<?xml version="1.0" encoding="utf-8"?>

<svg version="1.1" id="Layer_1" xmlns="http://www.w3.org/2000/svg" xmlns:xlink="http://www.w3.org/1999/xlink" x="0px" y="0px" viewBox="0 0 1043 296" style="enable-background:new 0 0 1043 296;" xml:space="preserve">

<g id="w_text">
&#x9;<path class="st0" d="M387.3,140.8h28.8l38.5,114.9h-23l-8.5-26.5H378l-8.3,26.5h-21.1L387.3,140.8L387.3,140.8z M418.2,213.2&#xA;&#x9;&#x9;l-17.5-54.5l-17.6,54.5H418.2z"></path>
&#x9;<path class="st0" d="M468.4,171.6h20.1V185c5.4-10.4,16.7-15.1,28.4-15.1c20.2,0,29.3,14.2,29.3,33.3v52.6h-20.4v-50.6&#xA;&#x9;&#x9;c0-11.8-5.3-18.7-17.2-18.7c-12.6,0-20.1,7.9-20.1,19.9v49.4h-20.1L468.4,171.6L468.4,171.6z"></path>
&#x9;<path class="st0" d="M614.5,245.4c-6.4,8.5-15.7,11.9-26,11.9c-15.8,0-28.2-8-28.2-24.5c0-23.3,24.6-27,44.2-27h9.9v-1.3&#xA;&#x9;&#x9;c0-12-2.8-19.6-16.4-19.6c-8.2,0-15.7,4.2-18.7,12l-15.6-6.8c5.7-14.8,21.3-20.2,36.3-20.2c19.8,0,34.3,9.6,34.3,30.9v54.9h-19.8&#xA;&#x9;&#x9;L614.5,245.4L614.5,245.4z M604.2,218.1c-9.3,0-24,1.1-24,13.8c0,8.1,5.9,11.1,13.4,11.1c10.2,0,20.7-5.3,20.7-16.7v-8.2H604.2&#xA;&#x9;&#x9;L604.2,218.1z"></path>
&#x9;<path class="st0" d="M655.1,137.6l20.1-8.7v126.8h-20.1V137.6L655.1,137.6z"></path>
&#x9;<path class="st0" d="M717.3,247.1l-33-75.5h21.5l22,53.7l20.6-53.7H768l-46.2,112.9h-19.7L717.3,247.1L717.3,247.1z"></path>
&#x9;<path class="st0" d="M825.4,255.1c-4.3,1.3-8.8,2-13.8,2c-16,0-25.5-8.3-25.5-25v-45.7h-11.3v-14.8h11.3v-17.3l20.1-8.7v26.1h18.5&#xA;&#x9;&#x9;v14.8h-18.5v43.9c0,6.6,2.8,10.7,10.2,10.7c2.8,0,6-0.6,9-1.6L825.4,255.1L825.4,255.1z"></path>
&#x9;<path class="st0" d="M851.8,136.1c6.5,0,11.7,4.8,11.7,11.5s-5,11.4-11.6,11.4s-12-4.9-12-11.5S845.3,136.1,851.8,136.1z&#xA;&#x9;&#x9; M841.7,171.8h20.1v83.9h-20.1V171.8z"></path>
&#x9;<path class="st0" d="M959.4,231.9c-5.6,17.6-21.3,25.4-38.8,25.4c-26.7,0-42.6-17.9-42.6-43.9s17.8-43.6,43.1-43.6&#xA;&#x9;&#x9;c17,0,31.7,7.1,37.9,23.6l-16.2,7.1c-3.4-9.4-11.5-14.8-21.7-14.8c-16.4,0-22.4,14.2-22.4,28.6s6.5,27.6,22.8,27.6&#xA;&#x9;&#x9;c11.5,0,19.3-6.4,22.8-16.9L959.4,231.9L959.4,231.9z"></path>
&#x9;<path class="st0" d="M983.2,230.6c3.1,8.2,11.7,12.2,20.8,12.2c6.5,0,14.6-2,14.6-10c0-8.4-9.1-10.4-19.5-12.6&#xA;&#x9;&#x9;c-13.5-2.8-28.6-6.1-28.6-25c0-17.3,16.1-25.5,31.3-25.5c13.3,0,28.6,5,34.1,18.3l-14.9,6.4c-3.3-7.5-11.5-10.3-18.4-10.3&#xA;&#x9;&#x9;s-13.1,2.7-13.1,9.5c0,7.7,8.2,9.3,18.4,11.3c13.7,2.7,30.1,5.8,30.1,25.4s-16.6,26.8-34.1,26.8c-14.8,0-30.8-5-36-20.1&#xA;&#x9;&#x9;L983.2,230.6L983.2,230.6z"></path>
&#x9;<path class="st0" d="M357.6,104.4l37-53.4h-33.2V40.5H412v5.2l-36.1,53.4h35v10.5h-53.3L357.6,104.4L357.6,104.4z"></path>
&#x9;<path class="st0" d="M443.6,58c15.4,0,27.2,10.8,27.2,26.3s-12.4,26.4-27.7,26.4s-27.8-10.7-27.8-26.1S428.3,58,443.6,58z&#xA;&#x9;&#x9; M457.8,84.3c0-9.3-4.7-17.1-14.6-17.1s-14.3,8.1-14.3,17.4s4.8,16.6,14.6,16.6S457.8,93.2,457.8,84.3L457.8,84.3z"></path>
&#x9;<path class="st0" d="M479,36.1h12.1v31c3.3-6.3,9.9-9.1,16.9-9.1c12.1,0,18.1,8.5,18.1,20v31.7H514V79.2c0-7.3-3.8-11.2-10.8-11.2&#xA;&#x9;&#x9;c-7.8,0-12,4.8-12,12v29.7H479L479,36.1L479,36.1z"></path>
&#x9;<path class="st0" d="M561.8,58c15.4,0,27.2,10.8,27.2,26.3s-12.4,26.4-27.7,26.4s-27.8-10.7-27.8-26.1S546.6,58,561.8,58z&#xA;&#x9;&#x9; M576,84.3c0-9.3-4.7-17.1-14.7-17.1S547,75.4,547,84.7s4.8,16.6,14.6,16.6S576,93.2,576,84.3L576,84.3z"></path>
</g>
<g id="logo">
&#x9;<path class="st0" d="M269.9,276.5H108.1c-9.2,0-17.5-4.8-22.1-12.8s-4.6-17.6,0-25.5l49.7-85.8c3.1-5.3,8.6-8.5,14.7-8.5&#xA;&#x9;&#x9;s11.6,3.2,14.7,8.5l23.7,40.9l28.7-49.5L157.8,40.8c-2.2-3.8-5.9-4.2-7.4-4.2s-5.1,0.4-7.4,4.2L23.7,246.7c-2.2,3.8-0.8,7.2,0,8.5&#xA;&#x9;&#x9;s2.9,4.3,7.4,4.3h30.4c4.7,0,8.5,3.8,8.5,8.5s-3.8,8.5-8.5,8.5H31.1c-9.2,0-17.5-4.8-22.1-12.8s-4.6-17.6,0-25.5L128.4,32.2&#xA;&#x9;&#x9;c4.6-8,12.9-12.7,22.1-12.7s17.4,4.8,22.1,12.7l54.9,94.7l43.4-74.8c2.4-4.1,7.6-5.4,11.6-3.1c4.1,2.4,5.5,7.6,3.1,11.6l-48.3,83.2&#xA;&#x9;&#x9;l54.7,94.3c4.6,8,4.6,17.5,0,25.5C287.4,271.7,279.2,276.5,269.9,276.5L269.9,276.5z M150.5,160.9l-49.7,85.8&#xA;&#x9;&#x9;c-2.2,3.8-0.8,7.2,0,8.5c0.7,1.3,2.9,4.3,7.4,4.3H270c4.4,0,6.6-3,7.4-4.3c0.7-1.3,2.2-4.7,0-8.5l-49.8-85.9l-23.8,41.1&#xA;&#x9;&#x9;c-3.1,5.3-8.6,8.5-14.7,8.5l0,0c-6.1,0-11.6-3.2-14.7-8.5L150.5,160.9L150.5,160.9z"></path>
&#x9;<path class="st0" d="M287,97.9c-3.8,0-7.2-2.5-8.2-6.3l-6.6-24.7l-24.7,6.6c-4.5,1.2-9.2-1.5-10.4-6c-1.2-4.5,1.5-9.2,6-10.4&#xA;&#x9;&#x9;l33-8.8c4.5-1.2,9.2,1.5,10.4,6l8.8,32.9c1.2,4.5-1.5,9.2-6,10.4C288.4,97.8,287.7,97.9,287,97.9L287,97.9z"></path>
</g>
</svg>