<svg width="176" height="50" viewBox="0 0 176 50" fill="none" xmlns="http://www.w3.org/2000/svg">
<path d="M65.3626 23.782H70.2225L76.7243 43.1891H72.8448L71.402 38.7093H63.7881L62.3842 43.1891H58.8219L65.3642 23.782H65.3626ZM70.5667 36.0168L67.6136 26.8175L64.6471 36.0168H70.5667Z" fill="white"/>
<path d="M79.0412 28.9915H82.4313V31.2449C83.3443 29.4949 85.2511 28.6858 87.2255 28.6858C90.6291 28.6858 92.1647 31.0844 92.1647 34.3057V43.1875H88.7222V34.6368C88.7222 32.6486 87.8346 31.4814 85.8215 31.4814C83.6902 31.4814 82.4313 32.8074 82.4313 34.848V43.1858H79.0412V28.9882V28.9915Z" fill="white"/>
<path d="M103.699 41.4527C102.625 42.8851 101.049 43.4544 99.3027 43.4544C96.6415 43.4544 94.5491 42.103 94.5491 39.3193C94.5491 35.3818 98.707 34.7584 102.004 34.7584H103.673V34.5338C103.673 32.5051 103.196 31.2196 100.906 31.2196C99.5288 31.2196 98.2581 31.9358 97.7536 33.2483L95.1177 32.1081C96.0712 29.603 98.7205 28.6875 101.248 28.6875C104.598 28.6875 107.035 30.3041 107.035 33.9105V43.1892H103.697V41.4527H103.699ZM101.964 36.8395C100.401 36.8395 97.9122 37.0253 97.9122 39.1723C97.9122 40.5372 98.9061 41.0422 100.177 41.0422C101.898 41.0422 103.673 40.1402 103.673 38.2179V36.8395H101.966H101.964Z" fill="white"/>
<path d="M110.543 23.2381L113.933 21.7668V43.1891H110.543V23.2381Z" fill="white"/>
<path d="M121.044 41.7431L115.482 28.9915H119.11L122.831 38.059L126.301 28.9915H129.598L121.798 48.054H118.474L121.042 41.7448L121.044 41.7431Z" fill="white"/>
<path d="M139.279 43.0826C138.55 43.2955 137.796 43.4272 136.949 43.4272C134.247 43.4272 132.645 42.0218 132.645 39.1992V31.4847H130.739V28.9931H132.645V26.0641L136.036 24.5928V28.9931H139.161V31.4847H136.036V38.8951C136.036 40.0083 136.513 40.6975 137.757 40.6975C138.234 40.6975 138.763 40.5911 139.279 40.4188V43.0826Z" fill="white"/>
<path d="M143.741 22.9866C144.839 22.9866 145.713 23.7957 145.713 24.9224C145.713 26.0491 144.866 26.8447 143.754 26.8447C142.642 26.8447 141.727 26.022 141.727 24.9089C141.727 23.7957 142.642 22.9866 143.741 22.9866ZM142.033 29.0187H145.423V43.1893H142.033V29.0187Z" fill="white"/>
<path d="M161.896 39.1723C160.956 42.1419 158.307 43.4544 155.34 43.4544C150.838 43.4544 148.15 40.4324 148.15 36.0439C148.15 31.6554 151.155 28.6875 155.42 28.6875C158.293 28.6875 160.769 29.8936 161.815 32.6774L159.073 33.8834C158.504 32.2922 157.126 31.3784 155.418 31.3784C152.65 31.3784 151.631 33.777 151.631 36.2162C151.631 38.6554 152.73 40.8818 155.472 40.8818C157.419 40.8818 158.73 39.8074 159.313 38.0321L161.894 39.1723H161.896Z" fill="white"/>
<path d="M165.921 38.9594C166.451 40.3513 167.893 41.0135 169.431 41.0135C170.529 41.0135 171.894 40.6689 171.894 39.3294C171.894 37.9104 170.359 37.5794 168.611 37.2077C166.332 36.7297 163.778 36.1739 163.778 32.9915C163.778 30.076 166.493 28.6841 169.061 28.6841C171.312 28.6841 173.882 29.5321 174.809 31.7736L172.293 32.8598C171.736 31.5996 170.345 31.1233 169.181 31.1233C168.017 31.1233 166.969 31.5743 166.969 32.728C166.969 34.027 168.359 34.3057 170.067 34.6368C172.384 35.0878 175.139 35.6182 175.139 38.9324C175.139 42.2466 172.345 43.4527 169.392 43.4527C166.889 43.4527 164.201 42.6047 163.314 40.0591L165.922 38.9594H165.921Z" fill="white"/>
<path d="M60.3491 17.6385L66.5877 8.61488H60.9802V6.83447H69.5239V7.7213L63.4371 16.7449H69.3484V18.5254H60.3508V17.6385H60.3491Z" fill="white"/>
<path d="M74.8512 9.79053C77.4432 9.79053 79.4378 11.6115 79.4378 14.2297C79.4378 16.848 77.3402 18.6858 74.7635 18.6858C72.1867 18.6858 70.0723 16.8817 70.0723 14.2703C70.0723 11.6588 72.2812 9.79053 74.8512 9.79053ZM77.2441 14.2466C77.2441 12.674 76.4459 11.3649 74.7719 11.3649C73.0979 11.3649 72.3622 12.7382 72.3622 14.304C72.3622 15.8699 73.1671 17.1149 74.8192 17.1149C76.4712 17.1149 77.2441 15.7415 77.2441 14.2483V14.2466Z" fill="white"/>
<path d="M80.8333 6.10132H82.8751V11.331C83.4253 10.2685 84.5508 9.79051 85.7304 9.79051C87.7722 9.79051 88.7931 11.228 88.7931 13.1756V18.5253H86.7344V13.375C86.7344 12.1452 86.0965 11.4746 84.9069 11.4746C83.5991 11.4746 82.8735 12.2804 82.8735 13.5033V18.5253H80.8316V6.10132H80.8333Z" fill="white"/>
<path d="M94.8022 9.79053C97.3942 9.79053 99.3887 11.6115 99.3887 14.2297C99.3887 16.848 97.2912 18.6858 94.7145 18.6858C92.1377 18.6858 90.0233 16.8817 90.0233 14.2703C90.0233 11.6588 92.2322 9.79053 94.8022 9.79053ZM97.195 14.2466C97.195 12.674 96.3969 11.3649 94.7229 11.3649C93.0489 11.3649 92.3132 12.7382 92.3132 14.304C92.3132 15.8699 93.1181 17.1149 94.7701 17.1149C96.4222 17.1149 97.195 15.7415 97.195 14.2483V14.2466Z" fill="white"/>
<path d="M45.5516 46.7028H18.2433C16.6857 46.7028 15.2902 45.8954 14.5123 44.544C13.7343 43.1927 13.7377 41.5795 14.519 40.2298L22.9125 25.7433C23.4322 24.8464 24.3604 24.3109 25.3948 24.3109C26.4292 24.3109 27.359 24.8464 27.877 25.7433L31.8831 32.6572L36.7262 24.3008L26.6351 6.88691C26.2604 6.24164 25.6428 6.17069 25.3931 6.17069C25.1433 6.17069 24.5257 6.23995 24.1511 6.88691L3.99931 41.6724C3.623 42.321 3.87275 42.8937 3.99762 43.1099C4.1225 43.3261 4.49205 43.8295 5.24129 43.8295H10.3712C11.1643 43.8295 11.8056 44.4731 11.8056 45.2653C11.8056 46.0575 11.1626 46.7011 10.3712 46.7011H5.24129C3.68375 46.7011 2.28821 45.8937 1.51029 44.5423C0.732363 43.191 0.735738 41.5778 1.51704 40.2281L21.6722 5.44603C22.4518 4.10144 23.844 3.29907 25.3965 3.29907C26.9489 3.29907 28.3411 4.10144 29.1207 5.44603L38.3883 21.4393L45.7069 8.81259C46.1051 8.12677 46.9826 7.89367 47.6677 8.29063C48.3528 8.68928 48.5874 9.56765 48.1892 10.2535L40.0454 24.3025L49.2759 40.2315C50.0572 41.5812 50.0606 43.1927 49.2826 44.5457C48.5047 45.897 47.1109 46.7045 45.5516 46.7045V46.7028ZM25.3965 27.1859L17.003 41.6724C16.6267 42.321 16.8764 42.8937 17.0013 43.1099C17.1262 43.3261 17.4957 43.8295 18.245 43.8295H45.5533C46.3026 43.8295 46.6721 43.3261 46.797 43.1099C46.9219 42.8937 47.1699 42.321 46.7953 41.6724L38.3883 27.1656L34.3688 34.1014C33.849 34.9984 32.9209 35.5322 31.8865 35.5322C30.8521 35.5322 29.9239 34.9967 29.4042 34.0997L25.3981 27.1859H25.3965Z" fill="white"/>
<path d="M48.4254 16.5339C47.7909 16.5339 47.2104 16.1082 47.04 15.4663L45.9313 11.2889L41.7582 12.3987C40.9921 12.6031 40.2057 12.1454 40.0032 11.3785C39.799 10.6116 40.2564 9.82442 41.0225 9.62171L46.5827 8.14367C47.3488 7.93928 48.1352 8.39705 48.3377 9.16394L49.8142 14.7298C50.0184 15.4967 49.5611 16.2839 48.795 16.4866C48.6718 16.5187 48.5469 16.5356 48.4254 16.5356V16.5339Z" fill="white"/>
</svg>
