<svg width="139" height="50" viewBox="0 0 139 50" fill="none" xmlns="http://www.w3.org/2000/svg">
<path d="M67.0802 23.7837H71.9503L78.4657 43.1891H74.5781L73.1323 38.7094H65.5025L64.0956 43.1891H60.5259L67.0802 23.7837ZM72.2952 36.0185L69.336 26.8192L66.3632 36.0185H72.2952Z" fill="white"/>
<path d="M82.3144 38.9609C82.448 39.3055 82.6323 39.6079 82.8724 39.8697C83.1108 40.1299 83.3848 40.3444 83.6959 40.5133C84.0054 40.6805 84.3436 40.8072 84.7105 40.8917C85.0775 40.9761 85.4512 41.0184 85.8317 41.0184C86.1056 41.0184 86.388 40.9947 86.6805 40.9457C86.9731 40.8968 87.2386 40.8089 87.477 40.6805C87.7154 40.5522 87.9133 40.3799 88.0672 40.1636C88.2227 39.9474 88.2988 39.6704 88.2988 39.3359C88.2988 38.9829 88.2109 38.6907 88.0333 38.4609C87.8558 38.2312 87.6157 38.0386 87.3096 37.8849C87.0052 37.7295 86.6552 37.6028 86.2612 37.4998C85.8672 37.3984 85.4495 37.3038 85.0065 37.2143C84.44 37.091 83.8667 36.9508 83.2884 36.7971C82.7084 36.6417 82.1893 36.417 81.7293 36.1214C81.2693 35.8258 80.8939 35.4305 80.6014 34.9356C80.3089 34.4407 80.1634 33.7954 80.1634 32.9998C80.1634 32.2667 80.3173 31.6299 80.6285 31.091C80.9379 30.5522 81.3421 30.1062 81.8426 29.7515C82.3431 29.3984 82.9079 29.1332 83.5404 28.9559C84.1728 28.7785 84.812 28.6907 85.4579 28.6907C86.0244 28.6907 86.5994 28.7464 87.1828 28.8562C87.7662 28.966 88.3174 29.1451 88.8349 29.3934C89.3523 29.64 89.8207 29.9609 90.2418 30.3545C90.6611 30.7481 90.9875 31.2228 91.2175 31.7802L88.6962 32.8663C88.5542 32.5488 88.3681 32.2819 88.1382 32.064C87.9082 31.8478 87.6512 31.6687 87.3688 31.5268C87.0864 31.3849 86.7888 31.2836 86.4793 31.2228C86.1699 31.1603 85.8689 31.1299 85.5763 31.1299C85.2939 31.1299 85.0183 31.1586 84.7528 31.216C84.4873 31.2734 84.2506 31.3663 84.0426 31.4947C83.8346 31.6231 83.6689 31.7886 83.5454 31.9913C83.422 32.1941 83.3594 32.4424 83.3594 32.7329C83.3594 33.0606 83.4406 33.3275 83.6046 33.5353C83.7686 33.743 83.9902 33.9153 84.2675 34.0522C84.5465 34.189 84.8762 34.3022 85.2567 34.39C85.6372 34.4778 86.0397 34.5623 86.4641 34.6417C87.0475 34.7566 87.641 34.8883 88.2413 35.0386C88.8433 35.189 89.3895 35.4136 89.8799 35.7143C90.3703 36.015 90.7711 36.4187 91.0805 36.9272C91.39 37.4356 91.5455 38.1045 91.5455 38.9356C91.5455 39.7667 91.3832 40.4711 91.0619 41.0505C90.7389 41.6299 90.3094 42.0961 89.7751 42.4491C89.239 42.8022 88.6269 43.0589 87.937 43.2177C87.247 43.3765 86.53 43.4559 85.7877 43.4559C85.1603 43.4559 84.5313 43.3984 83.9039 43.2836C83.2766 43.1687 82.6881 42.9795 82.1385 42.7143C81.5906 42.4491 81.1019 42.0995 80.6724 41.667C80.2429 41.2346 79.9182 40.6991 79.6967 40.0623L82.3144 38.9609Z" fill="white"/>
<path d="M95.7561 38.9609C95.8897 39.3055 96.074 39.6079 96.3142 39.8697C96.5526 40.1299 96.8265 40.3444 97.1377 40.5133C97.4471 40.6805 97.7853 40.8072 98.1523 40.8917C98.5192 40.9761 98.8929 41.0184 99.2734 41.0184C99.5473 41.0184 99.8297 40.9947 100.122 40.9457C100.415 40.8968 100.68 40.8089 100.919 40.6805C101.157 40.5522 101.355 40.3799 101.509 40.1636C101.664 39.9474 101.741 39.6704 101.741 39.3359C101.741 38.9829 101.653 38.6907 101.475 38.4609C101.298 38.2312 101.057 38.0386 100.751 37.8849C100.447 37.7295 100.097 37.6028 99.7029 37.4998C99.3089 37.3984 98.8912 37.3038 98.4482 37.2143C97.8817 37.091 97.3085 36.9508 96.7301 36.7971C96.1501 36.6417 95.631 36.417 95.171 36.1214C94.7111 35.8258 94.3357 35.4305 94.0431 34.9356C93.7506 34.4407 93.6052 33.7954 93.6052 32.9998C93.6052 32.2667 93.7591 31.6299 94.0702 31.091C94.3797 30.5522 94.7838 30.1062 95.2843 29.7515C95.7849 29.3984 96.3497 29.1332 96.9821 28.9559C97.6145 28.7785 98.2537 28.6907 98.8997 28.6907C99.4662 28.6907 100.041 28.7464 100.625 28.8562C101.208 28.966 101.759 29.1451 102.277 29.3934C102.794 29.64 103.262 29.9609 103.684 30.3545C104.103 30.7481 104.429 31.2228 104.659 31.7802L102.138 32.8663C101.996 32.5488 101.81 32.2819 101.58 32.064C101.35 31.8478 101.093 31.6687 100.811 31.5268C100.528 31.3849 100.231 31.2836 99.9211 31.2228C99.6116 31.1603 99.3106 31.1299 99.0181 31.1299C98.7357 31.1299 98.46 31.1586 98.1945 31.216C97.9291 31.2734 97.6923 31.3663 97.4843 31.4947C97.2763 31.6231 97.1106 31.7886 96.9872 31.9913C96.8637 32.1941 96.8012 32.4424 96.8012 32.7329C96.8012 33.0606 96.8823 33.3275 97.0464 33.5353C97.2104 33.743 97.4319 33.9153 97.7092 34.0522C97.9882 34.189 98.318 34.3022 98.6985 34.39C99.0789 34.4778 99.4814 34.5623 99.9058 34.6417C100.489 34.7566 101.083 34.8883 101.683 35.0386C102.285 35.189 102.831 35.4136 103.322 35.7143C103.812 36.015 104.213 36.4187 104.522 36.9272C104.832 37.4356 104.987 38.1045 104.987 38.9356C104.987 39.7667 104.825 40.4711 104.504 41.0505C104.181 41.6299 103.751 42.0961 103.217 42.4491C102.681 42.8022 102.069 43.0589 101.379 43.2177C100.689 43.3765 99.9718 43.4559 99.2294 43.4559C98.6021 43.4559 97.973 43.3984 97.3457 43.2836C96.7183 43.1687 96.1298 42.9795 95.5803 42.7143C95.0324 42.4491 94.5437 42.0995 94.1142 41.667C93.6847 41.2346 93.36 40.6991 93.1385 40.0623L95.7561 38.9609Z" fill="white"/>
<path d="M107.487 24.9104C107.487 24.6283 107.539 24.3698 107.646 24.135C107.752 23.9002 107.897 23.6975 108.083 23.5252C108.269 23.3529 108.484 23.2212 108.728 23.1283C108.971 23.0354 109.23 22.9897 109.504 22.9897C109.778 22.9897 110.035 23.0387 110.273 23.135C110.512 23.233 110.721 23.3664 110.904 23.5387C111.085 23.711 111.227 23.9137 111.329 24.1485C111.43 24.3833 111.481 24.6418 111.481 24.9239C111.481 25.1975 111.43 25.4543 111.329 25.6924C111.227 25.9306 111.09 26.135 110.918 26.3022C110.745 26.4712 110.539 26.6029 110.3 26.6992C110.062 26.7972 109.8 26.8445 109.517 26.8445C109.244 26.8445 108.981 26.7955 108.735 26.6992C108.488 26.6012 108.269 26.4678 108.083 26.2955C107.897 26.1232 107.752 25.9171 107.646 25.6789C107.539 25.4391 107.487 25.184 107.487 24.9104ZM107.791 29.0185H111.188V43.1891H107.791V29.0185Z" fill="white"/>
<path d="M116.537 38.9609C116.67 39.3055 116.855 39.6079 117.095 39.8697C117.333 40.1299 117.607 40.3444 117.918 40.5133C118.228 40.6805 118.566 40.8072 118.933 40.8917C119.3 40.9761 119.674 41.0184 120.054 41.0184C120.328 41.0184 120.61 40.9947 120.903 40.9457C121.195 40.8968 121.461 40.8089 121.699 40.6805C121.938 40.5522 122.136 40.3799 122.29 40.1636C122.445 39.9474 122.521 39.6704 122.521 39.3359C122.521 38.9829 122.433 38.6907 122.256 38.4609C122.078 38.2312 121.838 38.0386 121.532 37.8849C121.228 37.7295 120.878 37.6028 120.484 37.4998C120.09 37.3984 119.672 37.3038 119.229 37.2143C118.662 37.091 118.089 36.9508 117.511 36.7971C116.931 36.6417 116.412 36.417 115.952 36.1214C115.492 35.8258 115.116 35.4305 114.824 34.9356C114.531 34.4407 114.386 33.7954 114.386 32.9998C114.386 32.2667 114.54 31.6299 114.851 31.091C115.16 30.5522 115.564 30.1062 116.065 29.7515C116.566 29.3984 117.13 29.1332 117.763 28.9559C118.395 28.7785 119.034 28.6907 119.68 28.6907C120.247 28.6907 120.822 28.7464 121.405 28.8562C121.989 28.966 122.54 29.1451 123.057 29.3934C123.575 29.64 124.043 29.9609 124.464 30.3545C124.884 30.7481 125.21 31.2228 125.44 31.7802L122.919 32.8663C122.777 32.5488 122.591 32.2819 122.361 32.064C122.131 31.8478 121.874 31.6687 121.591 31.5268C121.309 31.3849 121.011 31.2836 120.702 31.2228C120.392 31.1603 120.091 31.1299 119.799 31.1299C119.516 31.1299 119.241 31.1586 118.975 31.216C118.71 31.2734 118.473 31.3663 118.265 31.4947C118.057 31.6231 117.891 31.7886 117.768 31.9913C117.644 32.1941 117.582 32.4424 117.582 32.7329C117.582 33.0606 117.663 33.3275 117.827 33.5353C117.991 33.743 118.213 33.9153 118.49 34.0522C118.769 34.189 119.099 34.3022 119.479 34.39C119.86 34.4778 120.262 34.5623 120.687 34.6417C121.27 34.7566 121.863 34.8883 122.464 35.0386C123.066 35.189 123.612 35.4136 124.102 35.7143C124.593 36.015 124.993 36.4187 125.303 36.9272C125.612 37.4356 125.768 38.1045 125.768 38.9356C125.768 39.7667 125.606 40.4711 125.284 41.0505C124.961 41.6299 124.532 42.0961 123.997 42.4491C123.461 42.8022 122.849 43.0589 122.159 43.2177C121.469 43.3765 120.752 43.4559 120.01 43.4559C119.383 43.4559 118.754 43.3984 118.126 43.2836C117.499 43.1687 116.911 42.9795 116.361 42.7143C115.813 42.4491 115.324 42.0995 114.895 41.667C114.465 41.2346 114.141 40.6991 113.919 40.0623L116.537 38.9609Z" fill="white"/>
<path d="M135.67 43.0826C135.298 43.1891 134.923 43.2718 134.543 43.3343C134.162 43.3968 133.76 43.4272 133.335 43.4272C131.982 43.4272 130.924 43.0759 130.165 42.3732C129.404 41.6705 129.023 40.613 129.023 39.1992V31.4847H127.112V28.9931H129.023V26.0641L132.42 24.5928V28.9931H135.552V31.4847H132.42V38.8951C132.42 39.4526 132.551 39.8918 132.811 40.2144C133.071 40.537 133.516 40.6975 134.145 40.6975C134.384 40.6975 134.634 40.6739 134.894 40.6249C135.155 40.5759 135.413 40.5083 135.67 40.4188V43.0826Z" fill="white"/>
<path d="M62.0782 17.6402L68.3298 8.61659H62.7107V6.83618H71.2722V7.72301L65.1711 16.745H71.0946V18.5254H62.0782V17.6402Z" fill="white"/>
<path d="M71.8387 14.2703C71.8387 13.5996 71.9672 12.9882 72.2259 12.4375C72.4846 11.8868 72.8313 11.4155 73.2692 11.0236C73.7055 10.6317 74.2128 10.3294 74.7911 10.1132C75.3695 9.89695 75.9816 9.79053 76.6259 9.79053C77.2752 9.79053 77.8806 9.89864 78.4403 10.1132C79 10.3294 79.4853 10.6317 79.8996 11.0236C80.3139 11.4155 80.6369 11.8834 80.8703 12.429C81.1053 12.9746 81.222 13.5743 81.222 14.2297C81.222 14.9003 81.0986 15.5101 80.8551 16.0591C80.6099 16.6081 80.275 17.076 79.8523 17.4645C79.4279 17.853 78.9324 18.1537 78.3608 18.3665C77.791 18.5794 77.1822 18.6858 76.5379 18.6858C75.8886 18.6858 75.2765 18.5777 74.7032 18.3632C74.13 18.1469 73.6328 17.8463 73.2084 17.4561C72.7839 17.0676 72.4508 16.603 72.2056 16.0625C71.9604 15.5219 71.8387 14.924 71.8387 14.2703ZM76.5937 17.1115C77.0199 17.1115 77.3868 17.0321 77.6929 16.8716C77.999 16.7111 78.2509 16.5 78.4488 16.2365C78.6466 15.973 78.792 15.6689 78.885 15.3226C78.978 14.9763 79.0254 14.6165 79.0254 14.2449C79.0254 13.8513 78.9747 13.4797 78.8732 13.1317C78.7717 12.7838 78.6179 12.4763 78.4133 12.2128C78.2086 11.9493 77.9516 11.7415 77.6422 11.5895C77.3327 11.4375 76.9675 11.3615 76.5464 11.3615C76.1152 11.3615 75.7449 11.4409 75.4388 11.6013C75.1327 11.7618 74.8825 11.9746 74.6914 12.2449C74.5003 12.5135 74.3582 12.826 74.2686 13.179C74.1773 13.5338 74.1333 13.9071 74.1333 14.3007C74.1333 14.679 74.1841 15.0388 74.2855 15.3784C74.387 15.7179 74.5392 16.0169 74.7455 16.2719C74.9501 16.527 75.2071 16.7314 75.5132 16.8834C75.8176 17.0371 76.1794 17.1115 76.5937 17.1115Z" fill="white"/>
<path d="M82.7169 6.10132H84.763V11.331C84.9016 11.0642 85.0724 10.8344 85.2787 10.6402C85.4833 10.4459 85.7099 10.2854 85.9585 10.1604C86.2054 10.0354 86.4726 9.94253 86.7583 9.88172C87.0441 9.82091 87.3333 9.79051 87.6258 9.79051C88.1382 9.79051 88.5846 9.87497 88.9685 10.0456C89.3523 10.2162 89.6719 10.451 89.9273 10.7517C90.1826 11.0523 90.3754 11.4088 90.5022 11.8209C90.6307 12.2331 90.6933 12.6841 90.6933 13.174V18.5236H88.6303V13.375C88.6303 12.7567 88.4747 12.2854 88.1619 11.9611C87.849 11.6368 87.3958 11.4746 86.7989 11.4746C86.1377 11.4746 85.6338 11.6588 85.2838 12.0304C84.9337 12.402 84.7596 12.8919 84.7596 13.5033V18.5253H82.7135V6.10132H82.7169Z" fill="white"/>
<path d="M92.0224 14.2703C92.0224 13.5996 92.1509 12.9882 92.4096 12.4375C92.6684 11.8868 93.015 11.4155 93.453 11.0236C93.8893 10.6317 94.3966 10.3294 94.9749 10.1132C95.5532 9.89695 96.1653 9.79053 96.8096 9.79053C97.459 9.79053 98.0643 9.89864 98.6241 10.1132C99.1838 10.3294 99.6691 10.6317 100.083 11.0236C100.498 11.4155 100.821 11.8834 101.054 12.429C101.289 12.9746 101.406 13.5743 101.406 14.2297C101.406 14.9003 101.282 15.5101 101.039 16.0591C100.794 16.6081 100.459 17.076 100.036 17.4645C99.6116 17.853 99.1161 18.1537 98.5446 18.3665C97.9747 18.5794 97.3659 18.6858 96.7217 18.6858C96.0723 18.6858 95.4602 18.5777 94.887 18.3632C94.3137 18.1469 93.8165 17.8463 93.3921 17.4561C92.9677 17.0676 92.6345 16.603 92.3893 16.0625C92.1441 15.5219 92.0224 14.924 92.0224 14.2703ZM96.7792 17.1115C97.2053 17.1115 97.5723 17.0321 97.8783 16.8716C98.1844 16.7111 98.4363 16.5 98.6342 16.2365C98.832 15.973 98.9775 15.6689 99.0705 15.3226C99.1635 14.9763 99.2108 14.6165 99.2108 14.2449C99.2108 13.8513 99.1601 13.4797 99.0586 13.1317C98.9572 12.7838 98.8033 12.4763 98.5987 12.2128C98.3941 11.9493 98.137 11.7415 97.8276 11.5895C97.5181 11.4375 97.1529 11.3615 96.7318 11.3615C96.3006 11.3615 95.9303 11.4409 95.6242 11.6013C95.3182 11.7618 95.0679 11.9746 94.8768 12.2449C94.6857 12.5135 94.5437 12.826 94.4541 13.179C94.3627 13.5338 94.3188 13.9071 94.3188 14.3007C94.3188 14.679 94.3695 15.0388 94.471 15.3784C94.5724 15.7179 94.7246 16.0169 94.9309 16.2719C95.1355 16.527 95.3926 16.7314 95.6986 16.8834C96.0013 17.0371 96.3632 17.1115 96.7792 17.1115Z" fill="white"/>
<path d="M19.3991 49.4933C18.0007 49.4967 16.6597 48.9426 15.6739 47.9528L3.6813 35.973C1.62335 33.9173 1.62335 30.5862 3.6813 28.5305L15.6739 16.5507C17.7318 14.4984 21.0648 14.4984 23.1244 16.5507L27.6309 21.0524C28.1923 21.6132 28.1923 22.522 27.6309 23.0828C27.0695 23.6437 26.1597 23.6437 25.5983 23.0828L21.0918 18.5812C20.1567 17.647 18.6399 17.647 17.7047 18.5812L5.71219 30.5609C4.77706 31.495 4.77706 33.0102 5.71219 33.9443L17.7047 45.9241C18.6399 46.8582 20.1567 46.8582 21.0918 45.9241L25.5983 41.4224C26.1631 40.8666 27.0729 40.8734 27.6292 41.4393C28.1788 41.9984 28.1788 42.8936 27.6292 43.4528L23.1227 47.9545C22.1385 48.9426 20.7959 49.4967 19.3991 49.4933Z" fill="white"/>
<path d="M33.9163 49.4934C32.5179 49.4968 31.1769 48.9427 30.1911 47.9529L18.1985 35.9731C16.1406 33.9174 16.1406 30.5863 18.1985 28.5306L30.1911 16.5508C32.249 14.4951 35.5837 14.4951 37.6416 16.5508L49.6342 28.5306C51.6921 30.5863 51.6921 33.9174 49.6342 35.9731L37.6416 47.9529C36.6557 48.9427 35.3148 49.4968 33.9163 49.4934ZM33.9163 17.8802C33.2805 17.8785 32.6718 18.1302 32.2236 18.5812L20.2311 30.561C19.296 31.4951 19.296 33.0103 20.2311 33.9444L32.2236 45.9241C33.1588 46.8583 34.6756 46.8583 35.6107 45.9241L47.6033 33.9444C48.5384 33.0103 48.5384 31.4951 47.6033 30.561L35.6107 18.5812C35.1609 18.1302 34.5521 17.8769 33.9163 17.8802Z" fill="white"/>
<path d="M26.6569 13.1031C23.1802 13.1031 20.3528 10.2771 20.3528 6.80582C20.3528 3.33454 23.1819 0.506836 26.6569 0.506836C30.1336 0.506836 32.9609 3.33285 32.9609 6.80413C32.9609 10.2754 30.1336 13.1031 26.6569 13.1031ZM26.6569 3.37677C24.7613 3.37677 23.2258 4.91055 23.2258 6.80413C23.2258 8.69771 24.7613 10.2315 26.6569 10.2315C28.5525 10.2315 30.0879 8.69771 30.0879 6.80413C30.0862 4.91224 28.5525 3.37846 26.6569 3.37677Z" fill="white"/>
</svg>
