<svg width="188" height="49" viewBox="0 0 188 49" fill="none" xmlns="http://www.w3.org/2000/svg">
<g clip-path="url(#clip0_1107_1927)">
<path d="M42.3944 10.6715L24.9119 0.570101C23.5787 -0.190034 21.9419 -0.190034 20.6087 0.570101L3.14313 10.6715C1.81 11.4316 1 12.8674 1 14.4046V34.5904C1 36.1275 1.82688 37.5465 3.14313 38.3235L20.6087 48.4248C21.2669 48.8133 22.0094 48.9992 22.7519 48.9992C23.4944 48.9992 24.2369 48.8133 24.895 48.4248L32.2019 44.2019C33.535 43.4417 34.345 42.0059 34.345 40.4688V24.489C34.345 24.489 34.345 24.489 34.345 24.4721C34.345 24.4046 34.345 24.3539 34.3281 24.2863C34.3281 24.2356 34.3113 24.1681 34.2944 24.1174C34.2944 24.1005 34.2944 24.1005 34.2775 24.0836C34.2606 24.0329 34.2437 23.9992 34.2269 23.9485C34.2269 23.9316 34.2269 23.9316 34.21 23.9147C34.1931 23.864 34.1594 23.8133 34.1256 23.7627C34.0919 23.712 34.0581 23.6613 34.0244 23.6106L34.0075 23.5938C33.9738 23.56 33.94 23.5093 33.9063 23.4755L33.8894 23.4586C33.805 23.3742 33.7038 23.3066 33.6025 23.239L23.4269 17.3606C22.9881 17.1073 22.4312 17.1073 21.9925 17.3606L12.5425 22.8167L3.80125 17.766V14.3877C3.80125 13.8809 4.07125 13.4079 4.51 13.1377L21.9756 3.03632C22.4144 2.78294 22.9713 2.78294 23.41 3.03632L40.8756 13.1377C41.3144 13.391 41.5844 13.864 41.5844 14.3877V34.5735C41.5844 35.0802 41.3144 35.5532 40.8756 35.8235L37.4838 37.7829C36.7919 38.1715 36.5556 39.0498 36.9606 39.7424C37.3488 40.435 38.2263 40.6715 38.9181 40.266L42.31 38.3066C43.6431 37.5465 44.4531 36.1106 44.4531 34.5735V14.3877C44.5375 12.8674 43.7106 11.4316 42.3944 10.6715ZM22.7688 20.266L30.0756 24.489L22.7688 28.712L15.4619 24.489L22.7688 20.266ZM22.06 31.6005C22.2794 31.7356 22.5325 31.7863 22.7688 31.7863C23.005 31.7863 23.2581 31.7188 23.4775 31.6005L31.4931 26.9721V40.4519C31.4931 40.9586 31.2231 41.4316 30.7844 41.7019L23.4775 45.9248C23.0387 46.1782 22.4819 46.1782 22.0431 45.9248L4.5775 35.8235C4.13875 35.5701 3.86875 35.0971 3.86875 34.5735V21.0938L22.06 31.6005Z" fill="white"/>
<path d="M54.459 17.6858H62.1034C65.6472 17.6858 68.5497 18.8175 68.5497 22.8378C68.5497 24.9493 67.4697 26.3851 65.4278 26.9594C68.0603 27.4831 69.3597 28.9527 69.3597 31.6385C69.3597 35.777 66.2547 37.0946 62.6265 37.0946H54.459V17.6858ZM61.6309 25.8277C63.7403 25.8277 64.9215 25.2027 64.9215 22.9223C64.9215 20.7939 63.4197 20.3209 61.5634 20.3209H58.104V25.8277H61.6309ZM62.154 34.4594C64.2972 34.4594 65.664 33.6317 65.664 31.402C65.664 28.9358 63.9765 28.3277 61.9009 28.3277H58.1209V34.4594H62.154Z" fill="white"/>
<path d="M80.2778 35.3547C79.1978 36.7905 77.6284 37.3479 75.8734 37.3479C73.2072 37.3479 71.1147 35.9966 71.1147 33.2094C71.1147 29.2736 75.2659 28.6486 78.5734 28.6486H80.244V28.429C80.244 26.402 79.7715 25.1182 77.4765 25.1182C76.0928 25.1182 74.8272 25.8277 74.3209 27.1452L71.6884 26.0135C72.6334 23.5135 75.2828 22.6013 77.814 22.6013C81.1722 22.6013 83.6022 24.2229 83.6022 27.8209V37.0946H80.2778V35.3547ZM78.5397 30.7432C76.9703 30.7432 74.4897 30.929 74.4897 33.0743C74.4897 34.4425 75.4853 34.9493 76.7509 34.9493C78.4722 34.9493 80.244 34.054 80.244 32.1283V30.7432H78.5397Z" fill="white"/>
<path d="M99.9878 33.0744C99.0428 36.0474 96.3934 37.348 93.4403 37.348C88.9346 37.348 86.2515 34.3244 86.2515 29.9325C86.2515 25.7095 89.2553 22.5676 93.5246 22.5676C96.3934 22.5676 98.874 23.767 99.9203 26.5541L97.1865 27.7534C96.6128 26.1656 95.2459 25.2534 93.5246 25.2534C90.7571 25.2534 89.7446 27.6521 89.7446 30.0845C89.7446 32.5845 90.8415 34.7467 93.5922 34.7467C95.5328 34.7467 96.849 33.6656 97.4396 31.892L99.9878 33.0744Z" fill="white"/>
<path d="M102.671 16.4696H106.063V29.0878L111.193 22.9054H114.922L109.286 29.4088L115.344 37.0946H111.429L106.046 30.1689V37.0946H102.654V16.4696H102.671Z" fill="white"/>
<path d="M118.803 32.8548C119.327 34.2399 120.778 34.9156 122.313 34.9156C123.41 34.9156 124.777 34.5778 124.777 33.2264C124.777 31.8075 123.242 31.4697 121.487 31.098C119.208 30.6251 116.66 30.0676 116.66 26.8751C116.66 23.9528 119.377 22.5676 121.942 22.5676C124.187 22.5676 126.768 23.4122 127.697 25.6588L125.182 26.7399C124.625 25.473 123.242 25.0001 122.077 25.0001C120.947 25.0001 119.867 25.4561 119.867 26.6048C119.867 27.9055 121.25 28.1757 122.972 28.5136C125.283 28.9697 128.051 29.4933 128.051 32.8041C128.051 36.1487 125.25 37.3311 122.297 37.3311C119.799 37.3311 117.099 36.4865 116.222 33.9359L118.803 32.8548Z" fill="white"/>
<path d="M137.906 36.9932C137.18 37.2128 136.421 37.331 135.577 37.331C132.877 37.331 131.274 35.929 131.274 33.1081V25.3885H129.367V22.8885H131.274V19.9662L134.666 18.4966V22.9054H137.788V25.4054H134.666V32.8209C134.666 33.9358 135.138 34.6283 136.387 34.6283C136.86 34.6283 137.4 34.527 137.906 34.3581V36.9932Z" fill="white"/>
<path d="M148.925 35.3547C147.845 36.7905 146.276 37.3479 144.521 37.3479C141.855 37.3479 139.762 35.9966 139.762 33.2094C139.762 29.2736 143.913 28.6486 147.221 28.6486H148.892V28.429C148.892 26.402 148.419 25.1182 146.124 25.1182C144.74 25.1182 143.475 25.8277 142.968 27.1452L140.336 26.0135C141.281 23.5135 143.93 22.6013 146.462 22.6013C149.82 22.6013 152.25 24.2229 152.25 27.8209V37.0946H148.908V35.3547H148.925ZM147.187 30.7432C145.618 30.7432 143.137 30.929 143.137 33.0743C143.137 34.4425 144.133 34.9493 145.398 34.9493C147.12 34.9493 148.892 34.054 148.892 32.1283V30.7432H147.187Z" fill="white"/>
<path d="M158.021 37.7196C158.73 39.2906 160.367 39.7635 161.936 39.7635C164.45 39.7635 165.969 38.5642 165.969 35.9797V33.8514C165.007 35.4899 163.1 36.5203 161.21 36.5203C157.194 36.5203 154.865 33.3615 154.865 29.6622C154.865 25.8446 157.363 22.5845 161.295 22.5845C163.218 22.5845 164.973 23.3615 165.969 25.0676V22.8885H169.378V36.0304C169.378 40.4899 166.037 42.2973 161.936 42.2973C159.303 42.2973 156.485 41.5541 155.338 38.8851L158.021 37.7196ZM166.104 29.4764C166.104 27.0439 164.788 25.2027 162.223 25.2027C159.506 25.2027 158.358 27.2635 158.358 29.7297C158.358 31.9426 159.742 33.902 162.105 33.902C164.754 33.902 166.104 31.9426 166.104 29.4764Z" fill="white"/>
<path d="M185.78 34.0034C184.599 36.5034 182.051 37.3649 179.452 37.3649C174.98 37.3649 172.162 34.375 172.162 29.9493C172.162 25.7939 175.031 22.5845 179.3 22.5845C183.89 22.5845 186.118 25.2703 186.118 30.7433H175.622C175.622 33.1419 177.005 34.8987 179.587 34.8987C181.123 34.8987 182.388 34.2737 183.131 32.8379L185.78 34.0034ZM182.726 28.5135C182.625 26.3683 181.325 25.0507 179.317 25.0507C177.191 25.0507 175.942 26.5541 175.655 28.5135H182.726Z" fill="white"/>
<path d="M54.4759 11.5372L60.7197 2.51693H55.1172V0.743286H63.6559V1.62166L57.564 10.6419H63.4703V12.4156H54.4759V11.5372Z" fill="white"/>
<path d="M69.0053 3.69934C71.604 3.69934 73.5953 5.52367 73.5953 8.14191C73.5953 10.8277 71.5028 12.6014 68.9209 12.6014C66.3222 12.6014 64.2296 10.7939 64.2296 8.19258C64.2128 5.48988 66.4234 3.69934 69.0053 3.69934ZM71.3846 8.14191C71.3846 6.57096 70.5915 5.25339 68.904 5.25339C67.1828 5.25339 66.4909 6.62164 66.4909 8.19258C66.4909 9.71285 67.3009 10.9966 68.9546 10.9966C70.6759 11.0135 71.3846 9.64529 71.3846 8.14191Z" fill="white"/>
<path d="M75.0803 0H77.1221V5.23649C77.679 4.1723 78.7928 3.69932 79.974 3.69932C82.0159 3.69932 83.0453 5.13514 83.0453 7.0777V12.4324H80.9865V7.28041C80.9865 6.0473 80.3453 5.37162 79.164 5.37162C77.8478 5.37162 77.1221 6.18243 77.1221 7.39865V12.4155H75.0803V0Z" fill="white"/>
<path d="M89.1371 3.69934C91.7359 3.69934 93.7272 5.52367 93.7272 8.14191C93.7272 10.8277 91.6346 12.6014 89.0528 12.6014C86.454 12.6014 84.3615 10.7939 84.3615 8.19258C84.3615 5.48988 86.5721 3.69934 89.1371 3.69934ZM91.5334 8.14191C91.5334 6.57096 90.7403 5.25339 89.0528 5.25339C87.3315 5.25339 86.6397 6.62164 86.6397 8.19258C86.6397 9.71285 87.4496 10.9966 89.1034 10.9966C90.8246 11.0135 91.5334 9.64529 91.5334 8.14191Z" fill="white"/>
</g>
<defs>
<clipPath id="clip0_1107_1927">
<rect width="187.118" height="48.9992" fill="white"/>
</clipPath>
</defs>
</svg>
