<svg width="145" height="50" viewBox="0 0 145 50" fill="none" xmlns="http://www.w3.org/2000/svg">
<path d="M64.4357 23.7821H72.0701C75.6024 23.7821 78.5142 24.9088 78.5142 28.9392C78.5142 31.0473 77.4283 32.4781 75.3916 33.0625C78.0252 33.5929 79.3218 35.0507 79.3218 37.7416C79.3218 41.8767 76.2262 43.1892 72.5877 43.1892H64.4374V23.7821H64.4357ZM71.6064 31.9206C73.7106 31.9206 74.901 31.2973 74.901 29.0169C74.901 26.8953 73.3919 26.4189 71.5542 26.4189H68.0994V31.9206H71.6064ZM72.1224 40.5507C74.2653 40.5507 75.6293 39.7162 75.6293 37.4882C75.6293 35.022 73.9483 34.4122 71.8711 34.4122H68.0994V40.549H72.1224V40.5507Z" fill="white"/>
<path d="M88.6473 28.6875C92.9467 28.6875 96.2547 31.7095 96.2547 36.0574C96.2547 40.5253 92.7747 43.4544 88.5006 43.4544C84.1877 43.4544 80.7212 40.4578 80.7212 36.1233C80.7212 31.6689 84.3867 28.6875 88.6473 28.6875ZM92.6162 36.0845C92.6162 33.473 91.2927 31.299 88.5141 31.299C85.6562 31.299 84.5182 33.5794 84.5182 36.1774C84.5182 38.6959 85.8552 40.8429 88.5933 40.8429C91.4259 40.8429 92.6162 38.5625 92.6162 36.0845Z" fill="white"/>
<path d="M105.265 28.6875C109.564 28.6875 112.872 31.7095 112.872 36.0574C112.872 40.5253 109.392 43.4544 105.118 43.4544C100.805 43.4544 97.3389 40.4578 97.3389 36.1233C97.3406 31.6689 101.004 28.6875 105.265 28.6875ZM109.236 36.0845C109.236 33.473 107.912 31.299 105.133 31.299C102.276 31.299 101.138 33.5794 101.138 36.1774C101.138 38.6959 102.475 40.8429 105.213 40.8429C108.044 40.8429 109.236 38.5625 109.236 36.0845Z" fill="white"/>
<path d="M115.348 22.5625H118.735V35.1824L123.869 28.9916H127.587L121.964 35.5L128.01 43.1892H124.107L118.735 36.2703V43.1892H115.348V22.5625Z" fill="white"/>
<path d="M131.475 38.9594C132.004 40.3513 133.446 41.0135 134.982 41.0135C136.079 41.0135 137.443 40.6689 137.443 39.3294C137.443 37.9104 135.909 37.5794 134.162 37.2077C131.886 36.7297 129.333 36.1739 129.333 32.9915C129.333 30.076 132.046 28.6841 134.612 28.6841C136.861 28.6841 139.428 29.5321 140.355 31.7736L137.841 32.8598C137.285 31.5996 135.895 31.1233 134.732 31.1233C133.607 31.1233 132.522 31.5743 132.522 32.728C132.522 34.027 133.911 34.3057 135.617 34.6368C137.932 35.0878 140.685 35.6182 140.685 38.9324C140.685 42.2736 137.893 43.4527 134.943 43.4527C132.442 43.4527 129.756 42.6047 128.87 40.0591L131.475 38.9594Z" fill="white"/>
<path d="M64.4609 17.6401L70.6943 8.61646H65.0915V6.83606H73.628V7.72288L67.5464 16.7465H73.4526V18.5269H64.4626V17.6401H64.4609Z" fill="white"/>
<path d="M78.9676 9.79053C81.5574 9.79053 83.5503 11.6115 83.5503 14.2297C83.5503 16.9206 81.4545 18.6858 78.88 18.6858C76.2818 18.6858 74.1927 16.8817 74.1927 14.2703C74.1927 11.5861 76.4015 9.79053 78.9676 9.79053ZM81.3584 14.2449C81.3584 12.6723 80.5609 11.3632 78.8884 11.3632C77.1669 11.3632 76.4807 12.7365 76.4807 14.3024C76.4807 15.8192 77.285 17.1132 78.9356 17.1132C80.6419 17.1115 81.3584 15.7382 81.3584 14.2449Z" fill="white"/>
<path d="M85.0409 6.10132H87.081V11.331C87.6306 10.2685 88.7552 9.79051 89.9338 9.79051C91.9739 9.79051 92.994 11.228 92.994 13.1756V18.5253H90.937V13.375C90.937 12.1452 90.2997 11.4746 89.111 11.4746C87.8043 11.4746 87.0793 12.2804 87.0793 13.5033V18.5253H85.0392V6.10132H85.0409Z" fill="white"/>
<path d="M99.0924 9.79053C101.682 9.79053 103.675 11.6115 103.675 14.2297C103.675 16.9206 101.579 18.6858 99.0047 18.6858C96.4065 18.6858 94.3175 16.8817 94.3175 14.2703C94.3192 11.5861 96.5262 9.79053 99.0924 9.79053ZM101.483 14.2449C101.483 12.6723 100.686 11.3632 99.0131 11.3632C97.2917 11.3632 96.6055 12.7365 96.6055 14.3024C96.6055 15.8192 97.4097 17.1132 99.0604 17.1132C100.767 17.1115 101.483 15.7382 101.483 14.2449Z" fill="white"/>
<path d="M39.5074 49.4932H6.10517C5.31442 49.4932 4.67203 48.8513 4.67203 48.0574V35.8986C4.67203 33.2432 6.3564 30.8783 8.86355 30.0168L45.8824 17.2871C48.7638 16.2956 50.7011 13.5777 50.7011 10.5253C50.7011 6.58273 47.4993 3.37665 43.5658 3.37665H7.53663V27.054C7.53663 27.8462 6.89593 28.4898 6.10349 28.4898C5.31105 28.4898 4.67035 27.8479 4.67035 27.054V1.94252C4.67035 1.15029 5.31105 0.506714 6.10349 0.506714H43.5674C49.0825 0.506714 53.5674 5.00165 53.5674 10.5253C53.5674 14.804 50.8528 18.6131 46.8131 20.0016L9.79424 32.7314C8.44372 33.1959 7.53663 34.4679 7.53663 35.8986V46.6216H39.5058C42.4968 46.6216 45.3074 45.4543 47.4217 43.3361C49.536 41.2179 50.7011 38.402 50.7011 35.4054C50.7011 33.2854 50.1042 31.2162 48.9763 29.4239C47.8601 27.6486 46.2769 26.2297 44.397 25.3158C43.6855 24.9696 43.3887 24.1114 43.7344 23.3986C44.08 22.6858 44.9365 22.3885 45.648 22.7348C48.0085 23.8817 49.9963 25.6655 51.3991 27.8952C52.8171 30.1469 53.5657 32.7449 53.5657 35.4071C53.5657 39.1689 52.1039 42.7077 49.4467 45.3682C46.7945 48.027 43.2623 49.4932 39.5074 49.4932Z" fill="white"/>
<path d="M20.7889 20.5895C17.6293 20.5895 15.0598 18.0151 15.0598 14.8496C15.0598 11.6841 17.6293 9.10974 20.7889 9.10974C23.9486 9.10974 26.5181 11.6841 26.5181 14.8496C26.5181 18.0151 23.9486 20.5895 20.7889 20.5895ZM20.7889 11.9797C19.2091 11.9797 17.9243 13.2668 17.9243 14.8496C17.9243 16.4324 19.2091 17.7195 20.7889 17.7195C22.3688 17.7195 23.6535 16.4324 23.6535 14.8496C23.6535 13.2668 22.3688 11.9797 20.7889 11.9797Z" fill="white"/>
<path d="M35.1524 40.8597C31.9928 40.8597 29.4232 38.2854 29.4232 35.1199C29.4232 31.9543 31.9928 29.38 35.1524 29.38C38.3121 29.38 40.8816 31.9543 40.8816 35.1199C40.8816 38.2854 38.3121 40.8597 35.1524 40.8597ZM35.1524 32.2483C33.5726 32.2483 32.2878 33.5354 32.2878 35.1182C32.2878 36.701 33.5726 37.9881 35.1524 37.9881C36.7322 37.9881 38.017 36.701 38.017 35.1182C38.017 33.5354 36.7322 32.2483 35.1524 32.2483Z" fill="white"/>
</svg>
