<svg width="180" height="50" viewBox="0 0 180 50" fill="none" xmlns="http://www.w3.org/2000/svg">
<path d="M60.6068 23.7838H68.2416C71.7809 23.7838 74.6798 24.9156 74.6798 28.9358C74.6798 31.0473 73.6011 32.4831 71.5618 33.0575C74.191 33.5811 75.4888 35.0507 75.4888 37.7365C75.4888 41.875 72.3876 43.1926 68.7641 43.1926H60.6236V23.7838H60.6068ZM67.7697 31.9257C69.8764 31.9257 71.0562 31.3007 71.0562 29.0203C71.0562 26.8919 69.5562 26.4189 67.7023 26.4189H64.2472V31.9257H67.7697ZM68.2921 40.5575C70.4326 40.5575 71.7978 39.7298 71.7978 37.5C71.7978 35.0338 70.1124 34.4257 68.0393 34.4257H64.2641V40.5575H68.2921Z" fill="white"/>
<path d="M84.809 28.6825C89.1068 28.6825 92.4101 31.7061 92.4101 36.0474C92.4101 40.5068 88.9382 43.446 84.6573 43.446C80.3427 43.446 76.8876 40.4561 76.8876 36.1149C76.8876 31.6724 80.545 28.6825 84.809 28.6825ZM88.7865 36.0811C88.7865 33.4629 87.4719 31.3007 84.691 31.3007C81.8258 31.3007 80.6966 33.5811 80.6966 36.1825C80.6966 38.6994 82.0281 40.8447 84.7753 40.8447C87.5899 40.8447 88.7865 38.5643 88.7865 36.0811Z" fill="white"/>
<path d="M101.427 28.6825C105.725 28.6825 109.028 31.7061 109.028 36.0474C109.028 40.5068 105.556 43.446 101.275 43.446C96.9607 43.446 93.5056 40.4561 93.5056 36.1149C93.5056 31.6724 97.1629 28.6825 101.427 28.6825ZM105.388 36.0811C105.388 33.4629 104.073 31.3007 101.292 31.3007C98.427 31.3007 97.2978 33.5811 97.2978 36.1825C97.2978 38.6994 98.6292 40.8447 101.376 40.8447C104.208 40.8447 105.388 38.5643 105.388 36.0811Z" fill="white"/>
<path d="M111.506 22.5676H114.893V35.1859L120.017 29.0034H123.742L118.112 35.5068L124.163 43.1926H120.253L114.876 36.267V43.1926H111.489V22.5676H111.506Z" fill="white"/>
<path d="M128.056 22.9899C129.152 22.9899 130.028 23.8007 130.028 24.9324C130.028 26.0473 129.185 26.8581 128.073 26.8581C126.978 26.8581 126.051 26.0304 126.051 24.9155C126.051 23.7838 126.961 22.9899 128.056 22.9899ZM126.354 29.0203H129.742V43.1926H126.354V29.0203Z" fill="white"/>
<path d="M133.567 28.9865H136.955V31.25C137.865 29.4933 139.77 28.6993 141.742 28.6993C145.146 28.6993 146.68 31.098 146.68 34.3243V43.2095H143.242V34.6622C143.242 32.6689 142.348 31.5034 140.343 31.5034C138.219 31.5034 136.955 32.821 136.955 34.8649V43.2095H133.567V28.9865Z" fill="white"/>
<path d="M152.427 43.8176C153.135 45.3886 154.77 45.8615 156.337 45.8615C158.848 45.8615 160.365 44.6622 160.365 42.0778V39.9494C159.404 41.5879 157.5 42.6183 155.612 42.6183C151.601 42.6183 149.275 39.4595 149.275 35.7602C149.275 31.9426 151.77 28.6825 155.697 28.6825C157.618 28.6825 159.371 29.4595 160.365 31.1656V28.9865H163.77V42.1284C163.77 46.5879 160.433 48.3953 156.337 48.3953C153.708 48.3953 150.893 47.6521 149.747 44.9832L152.427 43.8176ZM160.5 35.5744C160.5 33.142 159.185 31.3007 156.624 31.3007C153.91 31.3007 152.764 33.3615 152.764 35.8278C152.764 38.0406 154.146 40.0001 156.506 40.0001C159.152 40.0001 160.5 38.0406 160.5 35.5744Z" fill="white"/>
<path d="M168.978 38.9528C169.5 40.3379 170.949 41.0136 172.483 41.0136C173.579 41.0136 174.944 40.6758 174.944 39.3244C174.944 37.9055 173.41 37.5677 171.657 37.1961C169.382 36.7231 166.837 36.1656 166.837 32.9731C166.837 30.0508 169.551 28.6656 172.112 28.6656C174.354 28.6656 176.933 29.5102 177.86 31.7569L175.348 32.8379C174.792 31.5711 173.41 31.0981 172.247 31.0981C171.118 31.0981 170.039 31.5542 170.039 32.7028C170.039 34.0035 171.421 34.2738 173.14 34.6116C175.449 35.0677 178.213 35.5913 178.213 38.9021C178.213 42.2467 175.416 43.4292 172.466 43.4292C169.972 43.4292 167.275 42.5846 166.399 40.0339L168.978 38.9528Z" fill="white"/>
<path d="M60.6405 17.6352L66.8764 8.61496H61.2809V6.84131H69.809V7.71969L63.7247 16.74H69.6236V18.5136H60.6405V17.6352Z" fill="white"/>
<path d="M75.1348 9.79736C77.7303 9.79736 79.7191 11.6217 79.7191 14.2399C79.7191 16.9257 77.6292 18.6994 75.0506 18.6994C72.4551 18.6994 70.3652 16.892 70.3652 14.2906C70.3652 11.5879 72.573 9.79736 75.1348 9.79736ZM77.5281 14.2399C77.5281 12.669 76.736 11.3514 75.0506 11.3514C73.3315 11.3514 72.6405 12.7197 72.6405 14.2906C72.6405 15.8109 73.4494 17.0947 75.1011 17.0947C76.8034 17.1116 77.5281 15.7433 77.5281 14.2399Z" fill="white"/>
<path d="M81.2023 6.09802H83.2416V11.3345C83.7978 10.2703 84.9101 9.79735 86.0899 9.79735C88.1461 9.79735 89.1573 11.2332 89.1573 13.1757V18.5305H87.1011V13.3784C87.1011 12.1453 86.4607 11.4696 85.2809 11.4696C83.9663 11.4696 83.2416 12.2805 83.2416 13.4967V18.5136H81.2023V6.09802Z" fill="white"/>
<path d="M95.2584 9.79736C97.8539 9.79736 99.8427 11.6217 99.8427 14.2399C99.8427 16.9257 97.7528 18.6994 95.1742 18.6994C92.5787 18.6994 90.4888 16.892 90.4888 14.2906C90.4888 11.5879 92.6798 9.79736 95.2584 9.79736ZM97.6348 14.2399C97.6348 12.669 96.8427 11.3514 95.1573 11.3514C93.4382 11.3514 92.7472 12.7197 92.7472 14.2906C92.7472 15.8109 93.5562 17.0947 95.2079 17.0947C96.927 17.1116 97.6348 15.7433 97.6348 14.2399Z" fill="white"/>
<path d="M48.5056 12.3817C47.7135 10.5067 46.5674 8.81755 45.1348 7.36485C43.6854 5.91215 42 4.78039 40.1292 3.98647C39.5056 3.7162 38.8652 3.49661 38.2247 3.32769V1.97634C38.2247 1.18242 37.5843 0.540527 36.7921 0.540527C36 0.540527 35.3596 1.18242 35.3596 1.97634V2.80404C34.9045 2.77026 34.4494 2.73647 33.9944 2.73647H19.5506C18.7584 2.73647 18.118 3.37837 18.118 4.17228C18.118 4.9662 18.7584 5.6081 19.5506 5.6081H33.9944C34.4494 5.6081 34.9045 5.62499 35.3596 5.67566V6.41891C35.3596 7.21282 36 7.85472 36.7921 7.85472C37.5843 7.85472 38.2247 7.21282 38.2247 6.41891V6.31755C40.0449 6.94255 41.7135 7.98985 43.1124 9.39188C45.5562 11.8412 46.8876 15.0844 46.8876 18.5304V33.6824C46.8876 37.1284 45.5393 40.3885 43.1124 42.8209C40.6685 45.2703 37.4326 46.6216 33.9775 46.6216H30.4719C29.6798 46.6216 29.0393 47.2635 29.0393 48.0574C29.0393 48.8513 29.6798 49.4932 30.4719 49.4932H33.9775C36.1011 49.4932 38.1742 49.0709 40.1124 48.2432C41.9832 47.4493 43.6685 46.3007 45.118 44.8649C46.5674 43.4121 47.6966 41.723 48.4888 39.848C49.3146 37.9054 49.736 35.8277 49.736 33.6993V18.5473C49.736 16.402 49.3315 14.3412 48.5056 12.3817Z" fill="white"/>
<path d="M32.3764 33.6824C32.3764 31.554 31.9551 29.4763 31.1292 27.5337C30.3371 25.6587 29.191 23.9696 27.7584 22.5168C26.3258 21.0641 24.6236 19.9324 22.7528 19.1385C20.8146 18.3108 18.7416 17.8885 16.618 17.8885C14.4944 17.8885 12.4214 18.3108 10.4832 19.1385C8.61237 19.9324 6.92697 21.081 5.47754 22.5168C4.83709 23.1587 4.2472 23.8682 3.72473 24.5946V18.5304C3.72473 15.5236 4.78652 12.6013 6.69102 10.2871C8.19102 8.4628 10.1798 7.09455 12.3708 6.33442V6.40198C12.3708 7.1959 13.0112 7.8378 13.8034 7.8378C14.5955 7.8378 15.236 7.1959 15.236 6.40198V4.47631V4.45942V1.94252C15.236 1.14861 14.5955 0.506714 13.8034 0.506714C13.0112 0.506714 12.3708 1.14861 12.3708 1.94252V3.31077C9.30338 4.17225 6.53933 5.97969 4.48315 8.4459C3.33709 9.83104 2.44383 11.3851 1.82023 13.0743C1.17978 14.831 0.859558 16.6554 0.859558 18.5304V33.6824C0.859558 35.8108 1.28091 37.8885 2.10675 39.831C2.89888 41.706 4.04495 43.3952 5.47754 44.8479C6.92697 46.3006 8.61237 47.4324 10.4832 48.2263C12.4214 49.054 14.4944 49.4763 16.618 49.4763C16.7023 49.4763 16.7697 49.4763 16.8539 49.4594C18.8933 49.4256 20.882 49.0202 22.7528 48.2263C24.6236 47.4324 26.309 46.2837 27.7584 44.8479C29.2079 43.3952 30.3371 41.706 31.1292 39.831C31.9551 37.8885 32.3764 35.8108 32.3764 33.6824ZM25.736 42.8209C23.2921 45.2702 20.0562 46.6047 16.618 46.6047C13.1798 46.6047 9.92697 45.2533 7.50001 42.8209C5.05619 40.3716 3.72473 37.1283 3.72473 33.6824C3.72473 30.2364 5.07304 26.9763 7.50001 24.5439C9.92697 22.1114 13.1798 20.7601 16.618 20.7601C20.0562 20.7601 23.309 22.1114 25.736 24.5439C28.1798 26.9932 29.5112 30.2364 29.5112 33.6824C29.5112 37.1283 28.1798 40.3716 25.736 42.8209Z" fill="white"/>
<path d="M16.618 35.135C16.2303 35.135 15.8596 34.983 15.573 34.679L10.9382 29.7296C10.3989 29.1553 10.4326 28.2431 11.0056 27.7026C11.5787 27.1621 12.4888 27.1958 13.0281 27.7702L16.6854 31.6722L29.8652 19.3749C30.4382 18.8344 31.3483 18.8681 31.8877 19.4425C32.427 20.0168 32.3933 20.929 31.8202 21.4695L17.5955 34.7465C17.3259 34.9999 16.9719 35.135 16.618 35.135Z" fill="white"/>
</svg>
