<?xml version="1.0" encoding="utf-8"?>

<svg version="1.1" id="Layer_1" xmlns="http://www.w3.org/2000/svg" xmlns:xlink="http://www.w3.org/1999/xlink" x="0px" y="0px" viewBox="0 0 848 296" style="enable-background:new 0 0 848 296;" xml:space="preserve">

<g>
&#x9;<g>
&#x9;&#x9;<path class="st0" d="M370.3,140.8h45.3c21,0,38.2,6.7,38.2,30.5c0,12.5-6.4,20.9-18.5,24.4c15.6,3.1,23.3,11.8,23.3,27.7&#xA;&#x9;&#x9;&#x9;c0,24.5-18.4,32.2-39.9,32.2h-48.3L370.3,140.8L370.3,140.8z M412.9,189c12.5,0,19.5-3.7,19.5-17.2c0-12.6-9-15.4-19.9-15.4h-20.5&#xA;&#x9;&#x9;&#x9;V189H412.9z M415.9,240.1c12.7,0,20.8-4.9,20.8-18.1c0-14.6-10-18.2-22.3-18.2h-22.4v36.3L415.9,240.1L415.9,240.1z"></path>
&#x9;&#x9;<path class="st0" d="M513.9,169.8c25.5,0,45.1,17.9,45.1,43.6c0,26.4-20.6,43.8-46,43.8c-25.6,0-46.1-17.7-46.1-43.4&#xA;&#x9;&#x9;&#x9;C466.9,187.5,488.7,169.8,513.9,169.8z M537.5,213.6c0-15.5-7.8-28.3-24.3-28.3c-17,0-23.7,13.5-23.7,28.9&#xA;&#x9;&#x9;&#x9;c0,14.9,7.9,27.6,24.2,27.6C530.4,241.8,537.5,228.3,537.5,213.6z"></path>
&#x9;&#x9;<path class="st0" d="M612.5,169.8c25.5,0,45.1,17.9,45.1,43.6c0,26.4-20.6,43.8-46,43.8c-25.6,0-46.1-17.7-46.1-43.4&#xA;&#x9;&#x9;&#x9;C565.5,187.5,587.2,169.8,612.5,169.8z M636.1,213.6c0-15.5-7.8-28.3-24.3-28.3c-17,0-23.7,13.5-23.7,28.9&#xA;&#x9;&#x9;&#x9;c0,14.9,7.9,27.6,24.2,27.6C629,241.8,636.1,228.3,636.1,213.6z"></path>
&#x9;&#x9;<path class="st0" d="M672.3,133.6h20.1v74.7l30.5-36.6h22l-33.3,38.5l35.9,45.5h-23.2l-31.9-41v41h-20.1V133.6z"></path>
&#x9;&#x9;<path class="st0" d="M768,230.6c3.1,8.2,11.7,12.2,20.8,12.2c6.5,0,14.6-2,14.6-10c0-8.4-9.1-10.4-19.5-12.6&#xA;&#x9;&#x9;&#x9;c-13.5-2.8-28.6-6.1-28.6-25c0-17.3,16.1-25.5,31.3-25.5c13.3,0,28.6,5,34.1,18.3l-14.9,6.4c-3.3-7.5-11.5-10.3-18.4-10.3&#xA;&#x9;&#x9;&#x9;c-6.7,0-13.1,2.7-13.1,9.5c0,7.7,8.2,9.3,18.4,11.3c13.7,2.7,30.1,5.8,30.1,25.4c0,19.8-16.6,26.8-34.1,26.8&#xA;&#x9;&#x9;&#x9;c-14.8,0-30.8-5-36-20.1L768,230.6z"></path>
&#x9;</g>
&#x9;<g>
&#x9;&#x9;<path class="st0" d="M370.5,104.4l37-53.4h-33.2V40.5h50.6v5.2l-36.1,53.4h35v10.5h-53.3L370.5,104.4L370.5,104.4z"></path>
&#x9;&#x9;<path class="st0" d="M456.5,58c15.4,0,27.2,10.8,27.2,26.3c0,15.9-12.4,26.4-27.7,26.4c-15.4,0-27.8-10.7-27.8-26.1&#xA;&#x9;&#x9;&#x9;C428.2,68.6,441.3,58,456.5,58z M470.7,84.3c0-9.3-4.7-17.1-14.6-17.1c-10.2,0-14.3,8.1-14.3,17.4c0,9,4.8,16.6,14.6,16.6&#xA;&#x9;&#x9;&#x9;C466.5,101.3,470.7,93.2,470.7,84.3z"></path>
&#x9;&#x9;<path class="st0" d="M492.6,36.1h12.1v31c3.3-6.3,9.9-9.1,16.9-9.1c12.1,0,18.2,8.5,18.2,20v31.7h-12.2V79.2&#xA;&#x9;&#x9;&#x9;c0-7.3-3.8-11.2-10.8-11.2c-7.8,0-12,4.8-12,12v29.7h-12.1L492.6,36.1L492.6,36.1z"></path>
&#x9;&#x9;<path class="st0" d="M575.9,58c15.4,0,27.2,10.8,27.2,26.3c0,15.9-12.4,26.4-27.7,26.4c-15.4,0-27.8-10.7-27.8-26.1&#xA;&#x9;&#x9;&#x9;C547.6,68.6,560.7,58,575.9,58z M590.1,84.3c0-9.3-4.7-17.1-14.7-17.1c-10.2,0-14.3,8.1-14.3,17.4c0,9,4.8,16.6,14.6,16.6&#xA;&#x9;&#x9;&#x9;C585.8,101.3,590.1,93.2,590.1,84.3z"></path>
&#x9;</g>
</g>
<g>
&#x9;<g>
&#x9;&#x9;<path class="st0" d="M222.5,293H24.4c-4.7,0-8.5-3.8-8.5-8.5v-72c0-15.7,10-29.7,24.9-34.8l219.6-75.4c17.1-5.9,28.6-22,28.6-40&#xA;&#x9;&#x9;&#x9;c0-23.3-19-42.3-42.3-42.3H32.9v140.2c0,4.7-3.8,8.5-8.5,8.5s-8.5-3.8-8.5-8.5V11.5c0-4.7,3.8-8.5,8.5-8.5h222.2&#xA;&#x9;&#x9;&#x9;c32.7,0,59.3,26.6,59.3,59.3c0,25.3-16.1,47.9-40.1,56.1L46.3,193.8c-8,2.8-13.4,10.3-13.4,18.8V276h189.6&#xA;&#x9;&#x9;&#x9;c17.7,0,34.4-6.9,47-19.5c12.5-12.5,19.5-29.2,19.5-46.9c0-12.6-3.5-24.8-10.2-35.4c-6.6-10.5-16-18.9-27.2-24.3&#xA;&#x9;&#x9;&#x9;c-4.2-2.1-6-7.1-3.9-11.4c2-4.2,7.1-6,11.4-3.9c14,6.8,25.8,17.4,34.1,30.6c8.4,13.3,12.9,28.7,12.9,44.5c0,22.3-8.7,43.2-24.4,59&#xA;&#x9;&#x9;&#x9;C265.7,284.3,244.8,293,222.5,293z"></path>
&#x9;</g>
&#x9;<g>
&#x9;&#x9;<path class="st0" d="M111.5,121.9c-18.7,0-34-15.2-34-34s15.2-34,34-34s34,15.2,34,34S130.2,121.9,111.5,121.9z M111.5,70.9&#xA;&#x9;&#x9;&#x9;c-9.4,0-17,7.6-17,17s7.6,17,17,17s17-7.6,17-17S120.8,70.9,111.5,70.9z"></path>
&#x9;</g>
&#x9;<g>
&#x9;&#x9;<path class="st0" d="M196.7,241.9c-18.7,0-34-15.2-34-34s15.2-34,34-34s34,15.2,34,34S215.4,241.9,196.7,241.9z M196.7,190.9&#xA;&#x9;&#x9;&#x9;c-9.4,0-17,7.6-17,17s7.6,17,17,17c9.4,0,17-7.6,17-17S206,190.9,196.7,190.9z"></path>
&#x9;</g>
</g>
</svg>