<?xml version="1.0" encoding="utf-8"?>

<svg version="1.1" id="Layer_1" xmlns="http://www.w3.org/2000/svg" xmlns:xlink="http://www.w3.org/1999/xlink" x="0px" y="0px" viewBox="0 0 1230 296" style="enable-background:new 0 0 1230 296;" xml:space="preserve">

<g>
&#x9;<g>
&#x9;&#x9;<path class="st0" d="M463.5,224.1c-1.8,5.4-4.3,10.2-7.7,14.4s-7.2,7.6-11.6,10.4c-4.4,2.8-9.2,4.9-14.4,6.3&#xA;&#x9;&#x9;&#x9;c-5.2,1.4-10.6,2.1-16.2,2.1c-9.3,0-17.5-1.4-24.6-4.2s-13.1-6.8-18-12s-8.5-11.4-11.1-18.8s-3.8-15.5-3.8-24.5&#xA;&#x9;&#x9;&#x9;c0-8.3,1.4-16,4.1-23.1c2.8-7.1,6.6-13.3,11.6-18.6s11-9.4,17.9-12.4c7-3,14.7-4.5,23.2-4.5c5.4,0,10.7,0.7,15.7,2&#xA;&#x9;&#x9;&#x9;s9.6,3.3,13.9,5.9c4.3,2.6,8.1,5.8,11.5,9.7s6.1,8.4,8.3,13.5l-18.4,7.8c-1.2-3.1-2.8-6-4.8-8.7c-2-2.6-4.3-4.9-6.9-6.8&#xA;&#x9;&#x9;&#x9;c-2.6-1.9-5.4-3.4-8.5-4.4c-3.1-1.1-6.4-1.6-9.9-1.6c-6.1,0-11.3,1.2-15.6,3.6c-4.3,2.4-7.9,5.5-10.7,9.5&#xA;&#x9;&#x9;&#x9;c-2.8,3.9-4.8,8.4-6.1,13.5s-2,10.2-2,15.5c0,5.6,0.7,10.8,2.1,15.7s3.5,9.3,6.4,13s6.5,6.7,10.9,8.9s9.6,3.3,15.5,3.3&#xA;&#x9;&#x9;&#x9;c3.8,0,7.3-0.6,10.5-1.6c3.3-1.1,6.2-2.6,8.9-4.7c2.6-2,5-4.4,7-7.3c2-2.8,3.6-6,4.9-9.4L463.5,224.1z"></path>
&#x9;&#x9;<path class="st0" d="M527.4,245.4c-3.2,4.2-7,7.3-11.5,9.1c-4.5,1.8-9.3,2.8-14.6,2.8c-3.9,0-7.6-0.5-11-1.5s-6.4-2.5-9-4.6&#xA;&#x9;&#x9;&#x9;c-2.5-2-4.5-4.6-6-7.6c-1.5-3.1-2.2-6.7-2.2-10.8c0-3.9,0.6-7.2,1.9-10.1s3-5.3,5.2-7.3s4.7-3.6,7.6-4.9s6-2.2,9.3-2.9&#xA;&#x9;&#x9;&#x9;s6.6-1.2,10.1-1.4c3.5-0.3,6.8-0.4,10-0.4h9.9v-1.3c0-3-0.2-5.7-0.7-8.1s-1.3-4.5-2.5-6.2s-2.9-3-5-3.9s-4.9-1.4-8.3-1.4&#xA;&#x9;&#x9;&#x9;c-4.1,0-7.8,1-11.3,3.1c-3.4,2.1-5.9,5-7.4,8.9l-15.6-6.8c1.4-3.7,3.4-6.9,6-9.4c2.6-2.6,5.5-4.7,8.7-6.3s6.7-2.8,10.4-3.5&#xA;&#x9;&#x9;&#x9;c3.7-0.7,7.5-1.1,11.2-1.1c5,0,9.5,0.6,13.7,1.8s7.8,3.1,10.9,5.6s5.4,5.7,7.1,9.6s2.5,8.5,2.5,13.9v54.9h-19.7v-10.2H527.4z&#xA;&#x9;&#x9;&#x9; M517.1,218.1c-2.3,0-4.8,0.1-7.6,0.4c-2.8,0.2-5.4,0.8-7.9,1.8c-2.4,0.9-4.5,2.3-6.1,4.2s-2.4,4.3-2.4,7.5c0,2,0.3,3.8,1,5.1&#xA;&#x9;&#x9;&#x9;s1.6,2.5,2.9,3.4c1.2,0.9,2.6,1.5,4.3,1.9c1.6,0.4,3.4,0.6,5.3,0.6c2.6,0,5.1-0.3,7.5-1c2.5-0.7,4.7-1.7,6.6-3.1s3.5-3.1,4.8-5.2&#xA;&#x9;&#x9;&#x9;c1.2-2.1,1.8-4.6,1.8-7.4v-8.2H517.1L517.1,218.1z"></path>
&#x9;&#x9;<path class="st0" d="M568.4,171.6h20.1v12.9c1.3-2.4,2.8-4.5,4.7-6.4c1.9-1.8,3.9-3.4,6.2-4.6s4.7-2.2,7.3-2.8s5.2-0.9,8-0.9&#xA;&#x9;&#x9;&#x9;c2.6,0,5.2,0.3,7.7,0.9c2.5,0.6,4.8,1.5,7,2.7s4.1,2.8,5.8,4.7s3,4.1,4,6.8c3.2-4.8,7.4-8.5,12.6-11.1c5.2-2.6,10.8-3.9,16.8-3.9&#xA;&#x9;&#x9;&#x9;c4.8,0,9,0.8,12.6,2.5s6.5,4,8.9,6.9s4.1,6.3,5.3,10.3s1.7,8.3,1.7,12.9v53.2h-20v-51.9c0-5.3-1.3-9.5-4-12.6&#xA;&#x9;&#x9;&#x9;c-2.6-3.1-6.7-4.7-12-4.7c-2.9,0-5.5,0.5-7.8,1.4s-4.1,2.3-5.7,4c-1.5,1.7-2.7,3.7-3.5,6s-1.2,4.9-1.2,7.6v50.3h-20.1v-51.9&#xA;&#x9;&#x9;&#x9;c0-5.3-1.3-9.5-4-12.6s-6.7-4.7-12.1-4.7c-2.9,0-5.4,0.5-7.7,1.4s-4.2,2.3-5.7,4s-2.7,3.7-3.5,6s-1.2,4.9-1.2,7.6v50.3h-20.1&#xA;&#x9;&#x9;&#x9;L568.4,171.6L568.4,171.6z"></path>
&#x9;&#x9;<path class="st0" d="M717.9,171.6H738v13.6c1.5-2.5,3.3-4.6,5.4-6.6s4.5-3.5,7-4.8s5.2-2.3,8-3s5.6-1,8.4-1c6.4,0,12,1.2,16.8,3.6&#xA;&#x9;&#x9;&#x9;c4.8,2.4,8.7,5.6,11.8,9.6s5.5,8.7,7.1,13.9s2.3,10.7,2.3,16.5c0,5.9-0.8,11.5-2.4,16.8s-4,10-7.2,14s-7.1,7.2-11.8,9.5&#xA;&#x9;&#x9;&#x9;c-4.7,2.3-10.1,3.5-16.1,3.5c-2.9,0-5.8-0.3-8.8-0.9s-5.7-1.5-8.2-2.7c-2.6-1.2-4.9-2.7-7.1-4.6s-3.9-4-5.3-6.6v42h-20.1&#xA;&#x9;&#x9;&#x9;L717.9,171.6L717.9,171.6z M761.2,241.6c4.5,0,8.1-0.8,11.1-2.3s5.3-3.6,7-6.2c1.8-2.6,3-5.6,3.7-9.1c0.7-3.4,1.1-7.1,1.1-11&#xA;&#x9;&#x9;&#x9;c0-3.6-0.5-7-1.4-10.3s-2.3-6.2-4.2-8.8s-4.3-4.6-7.3-6.1s-6.5-2.3-10.6-2.3s-7.7,0.8-10.6,2.3c-3,1.5-5.4,3.6-7.3,6.2&#xA;&#x9;&#x9;&#x9;s-3.3,5.6-4.1,9.1s-1.3,7.1-1.3,10.8c0,3.9,0.5,7.6,1.4,10.9c0.9,3.4,2.3,6.3,4.3,8.8s4.5,4.4,7.5,5.9&#xA;&#x9;&#x9;&#x9;C753.5,240.9,757.1,241.6,761.2,241.6z"></path>
&#x9;&#x9;<path class="st0" d="M869.5,245.4c-3.2,4.2-7,7.3-11.5,9.1c-4.5,1.8-9.3,2.8-14.6,2.8c-3.9,0-7.6-0.5-11-1.5s-6.4-2.5-9-4.6&#xA;&#x9;&#x9;&#x9;c-2.5-2-4.5-4.6-6-7.6c-1.5-3.1-2.2-6.7-2.2-10.8c0-3.9,0.6-7.2,1.9-10.1c1.3-2.9,3-5.3,5.2-7.3s4.7-3.6,7.7-4.9&#xA;&#x9;&#x9;&#x9;c2.9-1.3,6-2.2,9.3-2.9s6.6-1.2,10.1-1.4s6.8-0.4,10-0.4h9.9v-1.3c0-3-0.2-5.7-0.7-8.1s-1.3-4.5-2.5-6.2s-2.9-3-5-3.9&#xA;&#x9;&#x9;&#x9;s-4.9-1.4-8.3-1.4c-4.1,0-7.8,1-11.3,3.1s-5.9,5-7.4,8.9l-15.6-6.8c1.4-3.7,3.4-6.9,6-9.4c2.6-2.6,5.5-4.7,8.7-6.3&#xA;&#x9;&#x9;&#x9;s6.7-2.8,10.4-3.5s7.5-1.1,11.2-1.1c5,0,9.5,0.6,13.7,1.8s7.8,3.1,10.9,5.6s5.4,5.7,7.1,9.6s2.5,8.5,2.5,13.9v54.9h-19.8&#xA;&#x9;&#x9;&#x9;L869.5,245.4L869.5,245.4z M859.3,218.1c-2.3,0-4.8,0.1-7.7,0.4c-2.8,0.2-5.4,0.8-7.8,1.8c-2.4,0.9-4.5,2.3-6.1,4.2&#xA;&#x9;&#x9;&#x9;s-2.4,4.3-2.4,7.5c0,2,0.3,3.8,1,5.1s1.6,2.5,2.9,3.4s2.7,1.5,4.3,1.9s3.4,0.6,5.3,0.6c2.6,0,5.1-0.3,7.5-1&#xA;&#x9;&#x9;&#x9;c2.5-0.7,4.7-1.7,6.6-3.1s3.5-3.1,4.8-5.2c1.2-2.1,1.8-4.6,1.8-7.4v-8.2H859.3L859.3,218.1z"></path>
&#x9;&#x9;<path class="st0" d="M909.2,147.5c0-1.7,0.3-3.2,0.9-4.6s1.5-2.6,2.6-3.6s2.4-1.8,3.8-2.4s3-0.8,4.6-0.8s3.1,0.3,4.5,0.9&#xA;&#x9;&#x9;&#x9;c1.4,0.6,2.7,1.4,3.7,2.4c1.1,1,1.9,2.2,2.5,3.6c0.6,1.4,0.9,2.9,0.9,4.6c0,1.6-0.3,3.1-0.9,4.6s-1.4,2.6-2.4,3.6&#xA;&#x9;&#x9;&#x9;s-2.2,1.8-3.7,2.4c-1.4,0.6-3,0.9-4.6,0.9s-3.2-0.3-4.6-0.9c-1.5-0.6-2.8-1.4-3.8-2.4s-2-2.2-2.6-3.6&#xA;&#x9;&#x9;&#x9;C909.6,150.6,909.2,149.1,909.2,147.5z M911,171.8h20.1v83.9H911V171.8z"></path>
&#x9;&#x9;<path class="st0" d="M966.8,259.4c1,2.4,2.4,4.3,4.1,5.9c1.7,1.5,3.5,2.8,5.6,3.7s4.2,1.6,6.5,2s4.6,0.6,7,0.6&#xA;&#x9;&#x9;&#x9;c7.5,0,13.3-1.8,17.6-5.5c4.2-3.6,6.4-9.3,6.4-16.9v-12.6c-1.4,2.4-3.2,4.6-5.2,6.6c-2.1,2-4.3,3.6-6.8,5s-5.1,2.4-7.8,3.1&#xA;&#x9;&#x9;&#x9;s-5.5,1.1-8.4,1.1c-6,0-11.3-1.1-15.9-3.3c-4.7-2.2-8.6-5.1-11.8-8.8s-5.7-8-7.3-12.9c-1.7-4.9-2.5-10.1-2.5-15.6&#xA;&#x9;&#x9;&#x9;c0-5.6,0.9-11,2.7-16.1s4.3-9.5,7.6-13.3s7.3-6.9,12-9.1s10-3.4,15.8-3.4c5.7,0,11,1.2,15.9,3.5s8.8,6.1,11.8,11.1v-12.9h20.2&#xA;&#x9;&#x9;&#x9;v77.8c0,6.6-1.2,12.2-3.4,17c-2.3,4.7-5.4,8.5-9.5,11.5c-4,3-8.7,5.2-14,6.5c-5.4,1.4-11.1,2.1-17.2,2.1c-3.9,0-7.8-0.3-11.8-0.9&#xA;&#x9;&#x9;&#x9;c-3.9-0.6-7.6-1.7-11.1-3.3c-3.5-1.5-6.6-3.6-9.5-6.2c-2.8-2.6-5.1-5.9-6.8-9.9L966.8,259.4z M991.1,236.9c3.9,0,7.4-0.7,10.3-2&#xA;&#x9;&#x9;&#x9;s5.4-3.2,7.4-5.6s3.5-5.1,4.5-8.3s1.5-6.6,1.5-10.3c0-3.6-0.5-7-1.5-10c-1-3.1-2.4-5.8-4.3-8c-1.9-2.3-4.3-4.1-7.2-5.3&#xA;&#x9;&#x9;&#x9;c-2.9-1.3-6.2-1.9-10-1.9c-4,0-7.5,0.7-10.4,2.2s-5.2,3.4-7.1,5.8c-1.9,2.4-3.2,5.3-4.1,8.5c-0.9,3.2-1.3,6.7-1.3,10.4&#xA;&#x9;&#x9;&#x9;c0,3.3,0.5,6.4,1.5,9.4s2.4,5.6,4.4,7.9c1.9,2.3,4.2,4.1,7,5.4C984.5,236.2,987.6,236.9,991.1,236.9z"></path>
&#x9;&#x9;<path class="st0" d="M1056.2,171.6h20.1V185c1.4-2.6,3.1-4.9,5.1-6.8c2-1.9,4.3-3.4,6.8-4.7s5.1-2.2,7.9-2.8s5.7-0.9,8.6-0.9&#xA;&#x9;&#x9;&#x9;c5,0,9.4,0.8,13.1,2.5s6.7,4,9.1,7s4.2,6.5,5.3,10.6s1.7,8.5,1.7,13.2v52.6h-20.4v-50.6c0-5.9-1.4-10.5-4.1-13.8&#xA;&#x9;&#x9;&#x9;s-7.1-4.9-13.1-4.9c-6.3,0-11.3,1.8-14.8,5.4c-3.5,3.6-5.3,8.4-5.3,14.5v49.4h-20.1L1056.2,171.6L1056.2,171.6z"></path>
&#x9;&#x9;<path class="st0" d="M1164,230.6c0.8,2,1.9,3.8,3.3,5.4c1.4,1.5,3,2.8,4.9,3.8c1.8,1,3.8,1.7,6,2.2s4.4,0.8,6.6,0.8&#xA;&#x9;&#x9;&#x9;c1.6,0,3.3-0.1,5-0.4s3.3-0.8,4.7-1.6c1.4-0.8,2.6-1.8,3.5-3.1s1.4-2.9,1.4-4.9c0-2.1-0.5-3.8-1.6-5.2s-2.5-2.5-4.3-3.4&#xA;&#x9;&#x9;&#x9;s-3.9-1.7-6.2-2.3c-2.3-0.6-4.8-1.2-7.4-1.7c-3.3-0.7-6.7-1.6-10.2-2.5c-3.4-0.9-6.5-2.2-9.2-4s-4.9-4.1-6.7-7&#xA;&#x9;&#x9;&#x9;c-1.7-2.9-2.6-6.8-2.6-11.5c0-4.3,0.9-8.1,2.8-11.3c1.8-3.2,4.2-5.8,7.2-7.9c3-2.1,6.3-3.7,10-4.7s7.5-1.6,11.3-1.6&#xA;&#x9;&#x9;&#x9;c3.3,0,6.8,0.3,10.2,1s6.7,1.7,9.8,3.2c3.1,1.5,5.8,3.4,8.3,5.7s4.4,5.1,5.8,8.4l-14.9,6.4c-0.8-1.9-1.9-3.5-3.3-4.8&#xA;&#x9;&#x9;&#x9;s-2.9-2.3-4.6-3.2s-3.4-1.4-5.3-1.8c-1.8-0.4-3.6-0.6-5.3-0.6c-1.7,0-3.3,0.2-4.9,0.5s-3,0.9-4.2,1.6s-2.2,1.7-2.9,2.9&#xA;&#x9;&#x9;&#x9;s-1.1,2.7-1.1,4.4c0,1.9,0.5,3.5,1.4,4.8s2.3,2.2,3.9,3.1c1.7,0.8,3.6,1.5,5.8,2s4.6,1,7.1,1.5c3.4,0.7,7,1.5,10.5,2.4&#xA;&#x9;&#x9;&#x9;c3.6,0.9,6.8,2.2,9.7,4s5.3,4.2,7.1,7.2s2.8,7,2.8,11.9s-1,9.1-2.9,12.5s-4.4,6.2-7.6,8.3s-6.8,3.6-10.9,4.6s-8.3,1.4-12.7,1.4&#xA;&#x9;&#x9;&#x9;c-3.7,0-7.4-0.3-11.1-1s-7.2-1.8-10.4-3.4c-3.2-1.6-6.1-3.6-8.7-6.2s-4.5-5.7-5.8-9.5L1164,230.6z"></path>
&#x9;</g>
&#x9;<g>
&#x9;&#x9;<g>
&#x9;&#x9;&#x9;<path class="st0" d="M362.2,104.4l37-53.4H366V40.5h50.6v5.2l-36.1,53.4h35v10.5h-53.3V104.4L362.2,104.4z"></path>
&#x9;&#x9;&#x9;<path class="st0" d="M419.9,84.5c0-4,0.8-7.6,2.3-10.8c1.5-3.3,3.6-6.1,6.2-8.4c2.6-2.3,5.6-4.1,9-5.4s7-1.9,10.9-1.9&#xA;&#x9;&#x9;&#x9;&#x9;c3.8,0,7.4,0.6,10.7,1.9c3.3,1.3,6.2,3.1,8.6,5.4s4.4,5.1,5.7,8.3c1.4,3.2,2.1,6.8,2.1,10.7c0,4-0.7,7.6-2.2,10.8&#xA;&#x9;&#x9;&#x9;&#x9;c-1.5,3.2-3.4,6-5.9,8.3s-5.4,4.1-8.8,5.3c-3.4,1.3-7,1.9-10.8,1.9s-7.5-0.6-10.9-1.9s-6.3-3.1-8.8-5.4s-4.5-5.1-5.9-8.2&#xA;&#x9;&#x9;&#x9;&#x9;C420.7,91.9,419.9,88.3,419.9,84.5z M448.1,101.3c2.5,0,4.7-0.5,6.5-1.4s3.3-2.2,4.5-3.8c1.2-1.6,2-3.4,2.6-5.4&#xA;&#x9;&#x9;&#x9;&#x9;c0.5-2.1,0.8-4.2,0.8-6.4c0-2.3-0.3-4.5-0.9-6.6s-1.5-3.9-2.7-5.4c-1.2-1.6-2.7-2.8-4.6-3.7s-4-1.3-6.5-1.3s-4.7,0.5-6.5,1.4&#xA;&#x9;&#x9;&#x9;&#x9;s-3.3,2.2-4.4,3.8c-1.1,1.6-2,3.4-2.5,5.5s-0.8,4.3-0.8,6.6c0,2.2,0.3,4.4,0.9,6.4s1.5,3.8,2.7,5.3s2.7,2.7,4.5,3.6&#xA;&#x9;&#x9;&#x9;&#x9;C443.5,100.9,445.6,101.3,448.1,101.3z"></path>
&#x9;&#x9;&#x9;<path class="st0" d="M484.3,36.1h12.1v31c0.8-1.6,1.8-2.9,3-4.1c1.2-1.2,2.5-2.1,4-2.8s3-1.3,4.7-1.7s3.4-0.5,5.1-0.5&#xA;&#x9;&#x9;&#x9;&#x9;c3,0,5.7,0.5,7.9,1.5s4.2,2.4,5.7,4.2s2.7,3.9,3.4,6.3c0.8,2.4,1.1,5.1,1.1,8v31.7h-12.2V79.2c0-3.7-0.9-6.4-2.8-8.4&#xA;&#x9;&#x9;&#x9;&#x9;s-4.5-2.9-8.1-2.9c-3.9,0-6.9,1.1-9,3.3s-3.1,5.1-3.1,8.7v29.7H484L484.3,36.1L484.3,36.1z"></path>
&#x9;&#x9;&#x9;<path class="st0" d="M539.3,84.5c0-4,0.8-7.6,2.3-10.8c1.5-3.3,3.6-6.1,6.2-8.4c2.6-2.3,5.6-4.1,9-5.4s7-1.9,10.8-1.9&#xA;&#x9;&#x9;&#x9;&#x9;s7.4,0.6,10.7,1.9c3.3,1.3,6.2,3.1,8.6,5.4s4.4,5.1,5.7,8.3c1.4,3.2,2.1,6.8,2.1,10.7c0,4-0.7,7.6-2.2,10.8&#xA;&#x9;&#x9;&#x9;&#x9;c-1.5,3.2-3.4,6-5.9,8.3s-5.4,4.1-8.8,5.3c-3.4,1.3-7,1.9-10.8,1.9s-7.5-0.6-10.8-1.9c-3.4-1.3-6.3-3.1-8.8-5.4s-4.5-5.1-5.9-8.2&#xA;&#x9;&#x9;&#x9;&#x9;C540,91.9,539.3,88.3,539.3,84.5z M567.4,101.3c2.5,0,4.7-0.5,6.5-1.4s3.3-2.2,4.5-3.8c1.2-1.6,2-3.4,2.6-5.4&#xA;&#x9;&#x9;&#x9;&#x9;c0.5-2.1,0.8-4.2,0.8-6.4c0-2.3-0.3-4.5-0.9-6.6c-0.6-2.1-1.5-3.9-2.7-5.4c-1.2-1.6-2.7-2.8-4.6-3.7s-4-1.3-6.5-1.3&#xA;&#x9;&#x9;&#x9;&#x9;s-4.7,0.5-6.5,1.4s-3.3,2.2-4.4,3.8c-1.1,1.6-2,3.4-2.5,5.5s-0.8,4.3-0.8,6.6c0,2.2,0.3,4.4,0.9,6.4s1.5,3.8,2.7,5.3&#xA;&#x9;&#x9;&#x9;&#x9;s2.7,2.7,4.5,3.6C562.8,100.9,565,101.3,567.4,101.3z"></path>
&#x9;&#x9;</g>
&#x9;</g>
</g>
<path class="st0" d="M297.1,191L268.8,30.7c-1.8-10.4-9.7-18.5-20-20.6c-10.3-2.1-20.7,2.2-26.5,11.1c-0.2,0.3-0.3,0.6-0.5,0.9&#xA;&#x9;l-66.6,102c-2.3,3.6-7,4.8-10.9,2.9l-39.2-19.7c-4.2-2.1-9.3-0.4-11.4,3.8c-2.1,4.2-0.4,9.3,3.8,11.4l39.2,19.7&#xA;&#x9;c3.6,1.8,7.5,2.7,11.4,2.7c8.4,0,16.5-4.2,21.4-11.5l67.1-102.8c0.1-0.2,0.2-0.3,0.3-0.5c2.9-4.1,7.3-3.6,8.5-3.3&#xA;&#x9;c1.3,0.3,5.7,1.6,6.7,6.9L280.3,194c0.6,3.4-0.9,5.8-1.9,6.9c-1,1.1-3.1,3-6.5,3H107.5c-4.7,0-8.5,3.8-8.5,8.5&#xA;&#x9;c0,4.7,3.8,8.5,8.5,8.5h21.9l-15.5,42.8c-1.2,3.4-4.4,5.6-8,5.6H99c-4.1,0-7.7-3-8.4-7L60.9,94.7l132-62.3c4.2-2,6.1-7.1,4.1-11.3&#xA;&#x9;c-2-4.2-7.1-6.1-11.3-4.1L22.1,94.2c-10.4,4.9-16.2,16.2-14.2,27.5l13.8,78.2c2.1,12.2,12.7,21.1,25.1,21.1H66l7.9,44.3&#xA;&#x9;c2.2,12.2,12.7,21.1,25.1,21.1h6.9c10.7,0,20.3-6.8,24-16.8l17.6-48.6H272c7.6,0,14.7-3.3,19.5-9.1&#xA;&#x9;C296.4,206.1,298.4,198.5,297.1,191z M46.8,204c-4.1,0-7.7-3-8.4-7l-13.8-78.2c-0.7-3.8,1.3-7.5,4.8-9.2l15.6-7.3L63,204H46.8z"></path>
</svg>