<svg width="206" height="51" viewBox="0 0 206 51" fill="none" xmlns="http://www.w3.org/2000/svg">
<path d="M49.9756 32.6481L45.1899 5.56361C44.8805 3.81024 43.5513 2.44537 41.8044 2.08895C40.0576 1.73253 38.3006 2.46564 37.3248 3.9572C36.8902 4.62274 37.0779 5.51125 37.7442 5.94537C38.4105 6.37949 39.3 6.19199 39.7346 5.52645C40.2301 4.76801 41.0029 4.85753 41.2278 4.90314C41.4527 4.94875 42.1985 5.16834 42.3557 6.06193L47.1397 33.1464C47.2412 33.7207 46.9858 34.1278 46.8252 34.3204C46.6645 34.5129 46.306 34.8339 45.7226 34.8339H17.9149C17.1201 34.8339 16.4758 35.4775 16.4758 36.2714C16.4758 37.0653 17.1201 37.7089 17.9149 37.7089H21.62L19.0005 44.9386C18.7959 45.5062 18.2514 45.8862 17.6477 45.8862H16.4775C15.7791 45.8862 15.1838 45.3879 15.0604 44.7004L10.0312 16.3778L32.3497 5.85247C33.0684 5.51463 33.3745 4.65821 33.0363 3.9403C32.6981 3.2224 31.8407 2.91666 31.122 3.25449L3.47325 16.2933C1.71962 17.121 0.728661 19.0315 1.06518 20.9403L3.39715 34.1531C3.76073 36.2173 5.54817 37.7156 7.64677 37.7156H10.8987L12.2278 45.2038C12.5948 47.2646 14.3806 48.7613 16.4775 48.7613H17.6477C19.4588 48.7613 21.089 47.6177 21.7062 45.9183L24.6808 37.7106H45.726C47.0044 37.7106 48.2102 37.1498 49.032 36.17C49.8539 35.1886 50.1971 33.9048 49.9756 32.6481ZM7.64677 34.8406C6.94668 34.8406 6.35143 34.3406 6.22967 33.6531L3.8977 20.4403C3.78609 19.8035 4.11585 19.1667 4.70095 18.8913L7.33393 17.6498L10.388 34.8406H7.64677Z" fill="white"/>
<path d="M24.7789 24.8474C24.1261 24.8474 23.4632 24.6988 22.8426 24.388L16.2171 21.0653C15.5068 20.7089 15.221 19.8457 15.5761 19.1363C15.933 18.4268 16.7971 18.1413 17.5073 18.4961L24.1329 21.8187C24.7873 22.1464 25.5821 21.9319 25.9829 21.3204L37.3248 3.95554C37.7594 3.29 38.6506 3.10419 39.3152 3.53662C39.9815 3.97074 40.1675 4.86094 39.7346 5.5248L28.3944 22.888C27.5725 24.1498 26.196 24.8474 24.7789 24.8474Z" fill="white"/>
<path d="M24.7789 24.8474C24.1261 24.8474 23.4632 24.6988 22.8426 24.388L16.2171 21.0653C15.5068 20.7089 15.221 19.8457 15.5761 19.1363C15.933 18.4268 16.7971 18.1413 17.5073 18.4961L24.1329 21.8187C24.7873 22.1464 25.5821 21.9319 25.9829 21.3204L37.3248 3.95554C37.7594 3.29 38.6506 3.10419 39.3152 3.53662C39.9815 3.97074 40.1675 4.86094 39.7346 5.5248L28.3944 22.888C27.5725 24.1498 26.196 24.8474 24.7789 24.8474Z" fill="white"/>
<path d="M77.1949 33.745C76.8939 34.6639 76.461 35.4731 75.8945 36.1707C75.328 36.8683 74.6736 37.4545 73.9312 37.9275C73.1888 38.4004 72.3737 38.7552 71.4893 38.995C70.6049 39.2332 69.6934 39.3531 68.7549 39.3531C67.189 39.3531 65.8023 39.115 64.5949 38.6369C63.3875 38.1589 62.3728 37.4832 61.5493 36.6082C60.7257 35.7332 60.1034 34.6758 59.679 33.4342C59.2545 32.1927 59.0414 30.8126 59.0414 29.2923C59.0414 27.8971 59.2731 26.5964 59.7382 25.3954C60.2032 24.1943 60.8543 23.1487 61.6947 22.2602C62.5352 21.3717 63.5464 20.6741 64.7268 20.1656C65.9071 19.6572 67.2143 19.4038 68.6483 19.4038C69.5683 19.4038 70.451 19.5153 71.2965 19.7349C72.1421 19.9562 72.9267 20.2856 73.6522 20.7231C74.3776 21.1606 75.0253 21.7062 75.5969 22.3599C76.1685 23.0136 76.6335 23.7737 76.9971 24.6403L73.8923 25.9528C73.6894 25.4224 73.4188 24.9342 73.0823 24.4883C72.7458 24.0423 72.3585 23.6589 71.9205 23.3413C71.4825 23.0237 71.0006 22.7754 70.4747 22.5998C69.9488 22.4224 69.3924 22.3346 68.809 22.3346C67.7825 22.3346 66.9032 22.5356 66.1676 22.9376C65.4336 23.3396 64.8316 23.8717 64.3632 24.5356C63.8948 25.1977 63.5498 25.9562 63.3283 26.8092C63.1067 27.6623 62.9968 28.5339 62.9968 29.4275C62.9968 30.365 63.1135 31.2501 63.3486 32.0846C63.5836 32.919 63.9438 33.6538 64.4308 34.2856C64.9179 34.9173 65.5317 35.419 66.2758 35.7906C67.0182 36.1623 67.8941 36.3464 68.9037 36.3464C69.5412 36.3464 70.1348 36.2535 70.6878 36.0677C71.2407 35.8819 71.7396 35.62 72.1877 35.2788C72.6342 34.9393 73.0265 34.5305 73.363 34.0525C73.6995 33.5744 73.9769 33.0457 74.1984 32.4612L77.1949 33.745Z" fill="white"/>
<path d="M87.9974 37.3514C87.458 38.0676 86.8103 38.5795 86.0527 38.8886C85.2968 39.1977 84.4749 39.3531 83.5905 39.3531C82.9276 39.3531 82.3053 39.2687 81.7253 39.1014C81.1452 38.9342 80.6413 38.6774 80.2118 38.3328C79.7823 37.9882 79.444 37.5575 79.1971 37.0406C78.9486 36.5237 78.8251 35.9156 78.8251 35.218C78.8251 34.5643 78.9333 33.9967 79.1498 33.5153C79.3663 33.0339 79.6588 32.6251 80.0258 32.2889C80.3927 31.9528 80.8239 31.6791 81.3194 31.4663C81.8149 31.2534 82.3391 31.0879 82.8921 30.9697C83.4451 30.8497 84.0133 30.7687 84.5967 30.7247C85.1801 30.6808 85.7466 30.6589 86.2945 30.6589H87.967V30.4342C87.967 29.9308 87.9298 29.473 87.8537 29.0626C87.7776 28.6521 87.6389 28.3024 87.436 28.0153C87.2331 27.7281 86.9523 27.5068 86.5938 27.3531C86.2353 27.1994 85.7686 27.1217 85.1936 27.1217C84.5037 27.1217 83.8695 27.2957 83.2895 27.6453C82.7095 27.995 82.2918 28.4967 82.0347 29.1504L79.3933 28.0102C79.6318 27.3835 79.9683 26.8531 80.4012 26.419C80.8341 25.9866 81.3262 25.6318 81.8741 25.3582C82.422 25.0845 83.0105 24.8869 83.6396 24.7687C84.2669 24.6487 84.9011 24.5896 85.5369 24.5896C86.3774 24.5896 87.1519 24.6943 87.8587 24.9004C88.5656 25.1082 89.1795 25.4241 89.6969 25.848C90.2144 26.272 90.6169 26.8143 90.9043 27.4714C91.1918 28.1285 91.3356 28.9089 91.3356 29.8109V39.0896H87.9974V37.3514ZM86.259 32.7382C85.8701 32.7382 85.4388 32.7585 84.9653 32.7974C84.4919 32.8379 84.0505 32.9359 83.6379 33.0964C83.2269 33.2551 82.8837 33.4899 82.6097 33.7991C82.3358 34.1082 82.1988 34.5322 82.1988 35.071C82.1988 35.4156 82.2563 35.7045 82.3713 35.9393C82.4863 36.1741 82.6469 36.3649 82.8549 36.5153C83.0629 36.6656 83.303 36.7737 83.5787 36.8396C83.8526 36.9055 84.1486 36.9393 84.4682 36.9393C84.9011 36.9393 85.3255 36.8818 85.7415 36.767C86.1575 36.6521 86.5313 36.4798 86.8627 36.2501C87.1942 36.0203 87.4613 35.7264 87.666 35.3683C87.8689 35.0102 87.972 34.593 87.972 34.1149V32.7366H86.259V32.7382Z" fill="white"/>
<path d="M94.924 24.8919H98.3213V27.0659C98.5344 26.6588 98.7965 26.3024 99.111 25.9916C99.4256 25.6825 99.7739 25.424 100.159 25.2162C100.545 25.0085 100.956 24.8514 101.394 24.745C101.832 24.6385 102.28 24.5862 102.74 24.5862C103.183 24.5862 103.614 24.6352 104.034 24.7315C104.453 24.8294 104.847 24.9815 105.214 25.1892C105.581 25.397 105.906 25.6605 106.19 25.9781C106.472 26.2956 106.699 26.6757 106.866 27.1183C107.406 26.3058 108.114 25.6808 108.99 25.2433C109.866 24.8058 110.813 24.5879 111.829 24.5879C112.643 24.5879 113.351 24.7298 113.953 25.0119C114.555 25.294 115.054 25.6808 115.453 26.1723C115.853 26.6639 116.148 27.2433 116.343 27.9156C116.537 28.5879 116.635 29.3159 116.635 30.1031V39.0896H113.252V30.3142C113.252 29.4223 113.028 28.7095 112.582 28.1808C112.136 27.6504 111.456 27.3852 110.544 27.3852C110.049 27.3852 109.611 27.4662 109.23 27.6301C108.85 27.794 108.532 28.0169 108.275 28.299C108.018 28.5811 107.823 28.9206 107.691 29.3125C107.558 29.7061 107.492 30.1318 107.492 30.5912V39.0879H104.095V30.3125C104.095 29.4206 103.87 28.7078 103.418 28.1791C102.967 27.6487 102.285 27.3835 101.375 27.3835C100.888 27.3835 100.455 27.4646 100.075 27.6284C99.6945 27.7923 99.3732 28.0152 99.1127 28.2973C98.8523 28.5794 98.6545 28.919 98.5226 29.3108C98.3907 29.7044 98.323 30.1301 98.323 30.5896V39.0862H94.9257V24.8919H94.924Z" fill="white"/>
<path d="M120.217 24.8919H123.614V27.1859C123.861 26.7703 124.166 26.4021 124.524 26.0794C124.883 25.7568 125.277 25.4849 125.705 25.2636C126.134 25.0423 126.586 24.8751 127.057 24.7602C127.531 24.6453 128.006 24.5879 128.485 24.5879C129.572 24.5879 130.519 24.7889 131.324 25.1909C132.129 25.593 132.797 26.1335 133.328 26.8142C133.859 27.495 134.256 28.2771 134.522 29.1605C134.787 30.044 134.919 30.9713 134.919 31.9443C134.919 32.9426 134.782 33.8903 134.508 34.7872C134.234 35.6842 133.828 36.4713 133.294 37.147C132.76 37.8227 132.095 38.3599 131.304 38.7568C130.512 39.1538 129.602 39.3531 128.576 39.3531C128.081 39.3531 127.587 39.3024 127.096 39.2011C126.606 39.0997 126.141 38.9477 125.703 38.7433C125.265 38.5406 124.868 38.2821 124.509 37.968C124.151 37.6538 123.853 37.2855 123.613 36.8615V43.9528H120.215V24.8919H120.217ZM127.543 36.7011C128.295 36.7011 128.918 36.571 129.413 36.3109C129.909 36.0507 130.304 35.6994 130.6 35.2568C130.896 34.8142 131.106 34.3024 131.231 33.7196C131.354 33.1369 131.417 32.5186 131.417 31.8632C131.417 31.2619 131.339 30.6842 131.185 30.1267C131.03 29.5693 130.791 29.0778 130.468 28.6487C130.145 28.2196 129.734 27.8784 129.234 27.6217C128.733 27.3649 128.135 27.2365 127.436 27.2365C126.738 27.2365 126.138 27.3666 125.639 27.6284C125.138 27.8886 124.729 28.2382 124.411 28.6757C124.093 29.1132 123.86 29.6234 123.714 30.2061C123.569 30.7889 123.496 31.3987 123.496 32.0355C123.496 32.6977 123.574 33.3126 123.728 33.8784C123.883 34.4443 124.125 34.9376 124.458 35.3565C124.79 35.7771 125.211 36.1048 125.718 36.3446C126.225 36.5828 126.834 36.7011 127.543 36.7011Z" fill="white"/>
<path d="M145.855 37.3514C145.316 38.0676 144.668 38.5795 143.911 38.8886C143.155 39.1977 142.333 39.3531 141.448 39.3531C140.785 39.3531 140.163 39.2687 139.583 39.1014C139.003 38.9342 138.499 38.6774 138.07 38.3328C137.64 37.9882 137.302 37.5575 137.055 37.0406C136.806 36.5237 136.683 35.9156 136.683 35.218C136.683 34.5643 136.791 33.9967 137.008 33.5153C137.224 33.0339 137.517 32.6251 137.884 32.2889C138.251 31.9528 138.682 31.6791 139.177 31.4663C139.673 31.2534 140.197 31.0879 140.75 30.9697C141.303 30.8497 141.871 30.7687 142.455 30.7247C143.038 30.6808 143.604 30.6589 144.152 30.6589H145.825V30.4342C145.825 29.9308 145.788 29.473 145.711 29.0626C145.635 28.6521 145.497 28.3024 145.294 28.0153C145.091 27.7281 144.81 27.5068 144.452 27.3531C144.093 27.1994 143.626 27.1217 143.051 27.1217C142.362 27.1217 141.727 27.2957 141.147 27.6453C140.567 27.995 140.15 28.4967 139.893 29.1504L137.251 28.0102C137.49 27.3835 137.826 26.8531 138.259 26.419C138.692 25.9866 139.184 25.6318 139.732 25.3582C140.28 25.0845 140.868 24.8869 141.497 24.7687C142.125 24.6487 142.759 24.5896 143.395 24.5896C144.235 24.5896 145.01 24.6943 145.717 24.9004C146.423 25.1082 147.037 25.4241 147.555 25.848C148.072 26.272 148.475 26.8143 148.762 27.4714C149.05 28.1285 149.193 28.9089 149.193 29.8109V39.0896H145.848V37.3514H145.855ZM144.117 32.7382C143.728 32.7382 143.297 32.7585 142.823 32.7974C142.35 32.8379 141.908 32.9359 141.496 33.0964C141.085 33.2551 140.741 33.4899 140.468 33.7991C140.194 34.1082 140.057 34.5322 140.057 35.071C140.057 35.4156 140.114 35.7045 140.229 35.9393C140.344 36.1741 140.505 36.3649 140.713 36.5153C140.921 36.6656 141.161 36.7737 141.436 36.8396C141.71 36.9055 142.006 36.9393 142.326 36.9393C142.759 36.9393 143.183 36.8818 143.599 36.767C144.015 36.6521 144.389 36.4798 144.721 36.2501C145.052 36.0203 145.319 35.7264 145.524 35.3683C145.727 35.0102 145.83 34.593 145.83 34.1149V32.7366H144.117V32.7382Z" fill="white"/>
<path d="M152.569 20.8092C152.569 20.5271 152.621 20.2686 152.728 20.0338C152.834 19.799 152.98 19.5963 153.166 19.424C153.352 19.2517 153.566 19.12 153.81 19.0271C154.053 18.9342 154.312 18.8885 154.586 18.8885C154.86 18.8885 155.117 18.9375 155.356 19.0338C155.594 19.1318 155.804 19.2652 155.986 19.4375C156.167 19.6098 156.309 19.8125 156.411 20.0473C156.512 20.2821 156.563 20.5406 156.563 20.8227C156.563 21.0963 156.512 21.3531 156.411 21.5913C156.309 21.8294 156.172 22.0338 156 22.201C155.827 22.37 155.621 22.5017 155.383 22.598C155.144 22.696 154.882 22.7433 154.6 22.7433C154.326 22.7433 154.064 22.6943 153.817 22.598C153.57 22.5 153.352 22.3666 153.166 22.1943C152.98 22.022 152.834 21.8159 152.728 21.5777C152.623 21.3379 152.569 21.0828 152.569 20.8092ZM152.875 24.9173H156.272V39.0879H152.875V24.9173Z" fill="white"/>
<path d="M162.309 39.7112C162.487 40.1081 162.717 40.4375 162.999 40.6993C163.282 40.9595 163.598 41.1672 163.948 41.3226C164.298 41.4781 164.667 41.5878 165.055 41.6537C165.444 41.7196 165.838 41.7534 166.236 41.7534C167.501 41.7534 168.492 41.446 169.209 40.8328C169.926 40.2179 170.284 39.2669 170.284 37.9764V35.8547C170.046 36.2618 169.752 36.6301 169.401 36.9612C169.051 37.2922 168.669 37.5726 168.253 37.8024C167.837 38.0321 167.398 38.2095 166.933 38.3328C166.468 38.4561 165.997 38.5186 165.519 38.5186C164.511 38.5186 163.613 38.3362 162.825 37.9679C162.037 37.6014 161.372 37.1047 160.828 36.4764C160.283 35.8497 159.871 35.1216 159.587 34.2956C159.304 33.4696 159.162 32.5929 159.162 31.6639C159.162 30.7095 159.313 29.8041 159.614 28.946C159.915 28.0895 160.344 27.3379 160.901 26.6926C161.459 26.0473 162.135 25.5355 162.932 25.1554C163.728 24.7753 164.617 24.5845 165.598 24.5845C166.562 24.5845 167.458 24.7838 168.285 25.1808C169.112 25.5777 169.779 26.2061 170.283 27.0625V24.8885H173.693V38.0253C173.693 39.1385 173.499 40.0929 173.11 40.8885C172.721 41.6841 172.188 42.3328 171.51 42.8379C170.834 43.3412 170.042 43.7112 169.134 43.9443C168.228 44.1791 167.261 44.2956 166.234 44.2956C165.571 44.2956 164.907 44.2433 164.244 44.1368C163.581 44.0304 162.953 43.848 162.367 43.5862C161.778 43.326 161.246 42.9764 160.767 42.5389C160.288 42.1014 159.908 41.5473 159.625 40.875L162.309 39.7112ZM166.41 35.9071C167.073 35.9071 167.655 35.7922 168.155 35.5625C168.656 35.3328 169.073 35.0186 169.41 34.6216C169.746 34.2247 169.998 33.7551 170.166 33.2162C170.333 32.6774 170.418 32.098 170.418 31.4797C170.418 30.8699 170.337 30.3041 170.173 29.7838C170.009 29.2618 169.765 28.8091 169.442 28.4257C169.119 28.0406 168.715 27.7416 168.228 27.5237C167.741 27.3074 167.174 27.1993 166.53 27.1993C165.849 27.1993 165.265 27.321 164.778 27.5642C164.291 27.8074 163.89 28.1335 163.577 28.5456C163.263 28.9561 163.031 29.4358 162.881 29.9831C162.73 30.5304 162.656 31.1149 162.656 31.7331C162.656 32.2906 162.74 32.8193 162.908 33.3243C163.075 33.8277 163.32 34.272 163.645 34.6571C163.968 35.0422 164.362 35.3463 164.825 35.5726C165.289 35.7939 165.818 35.9071 166.41 35.9071Z" fill="white"/>
<path d="M177.424 24.8919H180.821V27.1453C181.051 26.7027 181.339 26.3227 181.684 26.0051C182.029 25.6875 182.409 25.4223 182.825 25.2095C183.241 24.9967 183.688 24.8412 184.166 24.7382C184.643 24.6369 185.13 24.5862 185.625 24.5862C186.474 24.5862 187.212 24.7281 187.836 25.0102C188.46 25.2923 188.975 25.6858 189.381 26.1892C189.789 26.6926 190.09 27.2872 190.284 27.9713C190.479 28.6554 190.577 29.4004 190.577 30.2044V39.0862H187.127V30.5372C187.127 29.5389 186.897 28.7635 186.437 28.2112C185.977 27.6588 185.238 27.3835 184.222 27.3835C183.151 27.3835 182.318 27.6875 181.721 28.299C181.124 28.9088 180.825 29.7264 180.825 30.7517V39.0896H177.427V24.8919H177.424Z" fill="white"/>
<path d="M195.645 34.8599C195.779 35.2045 195.963 35.5068 196.203 35.7687C196.442 36.0288 196.715 36.2433 197.027 36.4122C197.336 36.5795 197.674 36.7062 198.041 36.7906C198.408 36.8751 198.782 36.9173 199.162 36.9173C199.436 36.9173 199.719 36.8937 200.011 36.8447C200.304 36.7957 200.569 36.7078 200.808 36.5795C201.046 36.4511 201.244 36.2788 201.398 36.0626C201.554 35.8464 201.63 35.5693 201.63 35.2349C201.63 34.8818 201.542 34.5896 201.364 34.3599C201.187 34.1301 200.946 33.9376 200.64 33.7839C200.336 33.6284 199.986 33.5018 199.592 33.3987C199.198 33.2974 198.78 33.2028 198.337 33.1132C197.771 32.9899 197.197 32.8497 196.619 32.696C196.039 32.5406 195.52 32.3159 195.06 32.0203C194.6 31.7247 194.225 31.3295 193.932 30.8345C193.639 30.3396 193.494 29.6943 193.494 28.8987C193.494 28.1656 193.648 27.5288 193.959 26.9899C194.268 26.4511 194.673 26.0051 195.173 25.6504C195.674 25.2974 196.239 25.0322 196.871 24.8548C197.503 24.6774 198.143 24.5896 198.789 24.5896C199.355 24.5896 199.93 24.6453 200.514 24.7551C201.097 24.8649 201.648 25.044 202.166 25.2923C202.683 25.5389 203.152 25.8599 203.573 26.2534C203.992 26.647 204.318 27.1217 204.548 27.6791L202.027 28.7653C201.885 28.4477 201.699 28.1808 201.469 27.9629C201.239 27.7467 200.982 27.5676 200.7 27.4257C200.417 27.2839 200.12 27.1825 199.81 27.1217C199.501 27.0592 199.2 27.0288 198.907 27.0288C198.625 27.0288 198.349 27.0575 198.084 27.1149C197.818 27.1724 197.581 27.2653 197.373 27.3937C197.165 27.522 197 27.6876 196.876 27.8903C196.753 28.093 196.69 28.3413 196.69 28.6318C196.69 28.9595 196.771 29.2264 196.935 29.4342C197.099 29.642 197.321 29.8143 197.598 29.9511C197.877 30.0879 198.207 30.2011 198.587 30.2889C198.968 30.3768 199.37 30.4612 199.795 30.5406C200.378 30.6555 200.972 30.7872 201.572 30.9376C202.174 31.0879 202.72 31.3126 203.211 31.6132C203.701 31.9139 204.102 32.3176 204.411 32.8261C204.721 33.3345 204.876 34.0035 204.876 34.8345C204.876 35.6656 204.714 36.37 204.393 36.9494C204.07 37.5288 203.64 37.995 203.106 38.348C202.57 38.7011 201.958 38.9578 201.268 39.1166C200.578 39.2754 199.861 39.3548 199.118 39.3548C198.491 39.3548 197.862 39.2974 197.235 39.1825C196.607 39.0676 196.019 38.8784 195.469 38.6132C194.921 38.348 194.433 37.9984 194.003 37.5659C193.573 37.1335 193.249 36.598 193.027 35.9612L195.645 34.8599Z" fill="white"/>
<path d="M60.0645 13.5388L66.3164 4.51515H60.697V2.73474H69.2588V3.62157L63.1592 12.6452H69.0829V14.4256H60.0662V13.5388H60.0645Z" fill="white"/>
<path d="M69.8253 10.1689C69.8253 9.49833 69.9538 8.88684 70.2126 8.33617C70.4713 7.78549 70.818 7.31421 71.2559 6.92232C71.6922 6.53043 72.1996 6.22806 72.7779 6.01184C73.3562 5.79563 73.9684 5.68921 74.6127 5.68921C75.2621 5.68921 75.8675 5.79732 76.4272 6.01184C76.9869 6.22806 77.4723 6.53043 77.8866 6.92232C78.3009 7.31421 78.6239 7.78211 78.8573 8.32772C79.0923 8.87333 79.209 9.47299 79.209 10.1284C79.209 10.799 79.0855 11.4088 78.842 11.9578C78.5968 12.5068 78.262 12.9747 77.8392 13.3632C77.4148 13.7517 76.9193 14.0524 76.3477 14.2652C75.7778 14.4781 75.1691 14.5845 74.5248 14.5845C73.8754 14.5845 73.2632 14.4764 72.69 14.2618C72.1167 14.0456 71.6195 13.745 71.1951 13.3547C70.7706 12.9662 70.4375 12.5017 70.1923 11.9612C69.9471 11.4206 69.8253 10.8227 69.8253 10.1689ZM74.5806 13.0102C75.0067 13.0102 75.3737 12.9308 75.6798 12.7703C75.9858 12.6098 76.2378 12.3987 76.4357 12.1352C76.6335 11.8716 76.7789 11.5676 76.8719 11.2213C76.965 10.875 77.0123 10.5152 77.0123 10.1436C77.0123 9.75002 76.9616 9.3784 76.8601 9.03043C76.7587 8.68245 76.6048 8.37502 76.4001 8.11151C76.1955 7.84799 75.9385 7.64022 75.629 7.4882C75.3196 7.33617 74.9543 7.26016 74.5332 7.26016C74.102 7.26016 73.7317 7.33955 73.4256 7.50002C73.1195 7.66049 72.8692 7.87333 72.6781 8.1436C72.487 8.41218 72.345 8.72468 72.2554 9.07772C72.164 9.43245 72.1201 9.80576 72.1201 10.1993C72.1201 10.5777 72.1708 10.9375 72.2723 11.277C72.3737 11.6166 72.5259 11.9156 72.7322 12.1706C72.9369 12.4257 73.1939 12.6301 73.5 12.7821C73.8044 12.9358 74.1663 13.0102 74.5806 13.0102Z" fill="white"/>
<path d="M80.7056 2H82.7518V7.22973C82.8904 6.96284 83.0612 6.73311 83.2675 6.53885C83.4721 6.3446 83.6987 6.18412 83.9473 6.05912C84.1942 5.93412 84.4614 5.84122 84.7472 5.78041C85.033 5.71959 85.3222 5.68919 85.6147 5.68919C86.1271 5.68919 86.5735 5.77365 86.9574 5.94426C87.3413 6.11487 87.6609 6.34966 87.9162 6.65034C88.1716 6.95101 88.3644 7.30743 88.4912 7.7196C88.6197 8.13176 88.6823 8.58277 88.6823 9.07264V14.4223H86.6192V9.27365C86.6192 8.65541 86.4636 8.18412 86.1508 7.8598C85.8379 7.53547 85.3847 7.37331 84.7878 7.37331C84.1266 7.37331 83.6226 7.55743 83.2726 7.92905C82.9225 8.30068 82.7484 8.79054 82.7484 9.40203V14.424H80.7022V2H80.7056Z" fill="white"/>
<path d="M90.0098 10.1689C90.0098 9.49833 90.1383 8.88684 90.397 8.33617C90.6558 7.78549 91.0024 7.31421 91.4404 6.92232C91.8767 6.53043 92.384 6.22806 92.9624 6.01184C93.5407 5.79563 94.1529 5.68921 94.7971 5.68921C95.4465 5.68921 96.0519 5.79732 96.6117 6.01184C97.1714 6.22806 97.6567 6.53043 98.071 6.92232C98.4853 7.31421 98.8083 7.78211 99.0417 8.32772C99.2768 8.87333 99.3934 9.47299 99.3934 10.1284C99.3934 10.799 99.27 11.4088 99.0265 11.9578C98.7813 12.5068 98.4465 12.9747 98.0237 13.3632C97.5992 13.7517 97.1038 14.0524 96.5322 14.2652C95.9623 14.4781 95.3535 14.5845 94.7092 14.5845C94.0599 14.5845 93.4477 14.4764 92.8744 14.2618C92.3011 14.0456 91.804 13.745 91.3795 13.3547C90.9551 12.9662 90.6219 12.5017 90.3767 11.9612C90.1315 11.4206 90.0098 10.8227 90.0098 10.1689ZM94.7667 13.0102C95.1929 13.0102 95.5598 12.9308 95.8659 12.7703C96.172 12.6098 96.424 12.3987 96.6218 12.1352C96.8197 11.8716 96.9651 11.5676 97.0581 11.2213C97.1511 10.875 97.1984 10.5152 97.1984 10.1436C97.1984 9.75002 97.1477 9.3784 97.0463 9.03043C96.9448 8.68245 96.7909 8.37502 96.5863 8.11151C96.3817 7.84799 96.1246 7.64022 95.8152 7.4882C95.5057 7.33617 95.1404 7.26016 94.7194 7.26016C94.2881 7.26016 93.9178 7.33955 93.6117 7.50002C93.3056 7.66049 93.0554 7.87333 92.8643 8.1436C92.6732 8.41218 92.5311 8.72468 92.4415 9.07772C92.3502 9.43245 92.3062 9.80576 92.3062 10.1993C92.3062 10.5777 92.357 10.9375 92.4584 11.277C92.5599 11.6166 92.7121 11.9156 92.9184 12.1706C93.123 12.4257 93.38 12.6301 93.6861 12.7821C93.9888 12.9358 94.3507 13.0102 94.7667 13.0102Z" fill="white"/>
</svg>
