<svg width="193" height="50" viewBox="0 0 193 50" fill="none" xmlns="http://www.w3.org/2000/svg">
<path d="M81.8625 37.8462C80.6537 41.532 77.1729 43.4543 73.4128 43.4543C67.142 43.4543 63.6883 39.4915 63.6883 33.3935C63.6883 27.826 67.5686 23.505 73.3078 23.505C76.9884 23.505 80.2033 25.2685 81.6644 28.7415L78.5544 30.0523C77.7299 27.9189 75.8033 26.4341 73.4653 26.4341C69.3462 26.4341 67.6465 29.9476 67.6465 33.5253C67.6465 37.2635 69.5071 40.4442 73.5584 40.4442C76.1232 40.4442 77.9821 38.8935 78.8591 36.5607L81.8625 37.8462Z" fill="white"/>
<path d="M84.3867 22.5625H87.7879V31.2449C88.7055 29.4814 90.5779 28.6858 92.5435 28.6858C95.9447 28.6858 97.6444 31.0726 97.6444 34.3057V43.1875H94.2162V34.6368C94.2162 32.5963 93.153 31.4814 91.1739 31.4814C88.995 31.4814 87.7862 32.8209 87.7862 34.848V43.1858H84.385V22.5625H84.3867Z" fill="white"/>
<path d="M113.96 40.0996C112.778 42.6047 110.227 43.4527 107.609 43.4527C103.118 43.4527 100.289 40.4561 100.289 36.0422C100.289 31.88 103.172 28.6858 107.45 28.6858C112.047 28.6858 114.293 31.3632 114.293 36.8378H103.758C103.758 39.2365 105.153 40.9865 107.743 40.9865C109.284 40.9865 110.56 40.3632 111.303 38.9189L113.96 40.0996ZM110.904 34.6115C110.797 32.4645 109.495 31.152 107.489 31.152C105.351 31.152 104.102 32.6503 103.809 34.6115H110.904Z" fill="white"/>
<path d="M129.862 39.1723C128.919 42.1419 126.261 43.4544 123.285 43.4544C118.768 43.4544 116.071 40.4324 116.071 36.0439C116.071 31.8277 119.086 28.6875 123.364 28.6875C126.247 28.6875 128.731 29.8936 129.781 32.6774L127.029 33.8834C126.459 32.2922 125.076 31.3784 123.362 31.3784C120.586 31.3784 119.563 33.777 119.563 36.2162C119.563 38.7213 120.666 40.8818 123.417 40.8818C125.37 40.8818 126.684 39.8074 127.27 38.0321L129.862 39.1723Z" fill="white"/>
<path d="M132.559 22.5625H135.96V35.1824L141.115 28.9916H144.848L139.202 35.5L145.273 43.1892H141.354L135.96 36.2703V43.1892H132.559V22.5625Z" fill="white"/>
<path d="M153.682 28.6875C157.999 28.6875 161.321 31.7095 161.321 36.0574C161.321 40.5253 157.827 43.4544 153.535 43.4544C149.204 43.4544 145.723 40.4578 145.723 36.1233C145.723 31.6689 149.404 28.6875 153.682 28.6875ZM157.667 36.0845C157.667 33.473 156.338 31.299 153.548 31.299C150.679 31.299 149.536 33.5794 149.536 36.1774C149.536 38.6959 150.879 40.8429 153.628 40.8429C156.472 40.8429 157.667 38.5625 157.667 36.0845Z" fill="white"/>
<path d="M173.344 40.9629C172.454 42.6859 170.62 43.4544 168.655 43.4544C165.387 43.4544 163.659 41.3075 163.659 38.0862V28.9933H167.06V37.6757C167.06 39.6115 167.951 40.8041 169.93 40.8041C172.056 40.8041 173.344 39.4392 173.344 37.4105V28.9933H176.732V43.1909H173.344V40.9629Z" fill="white"/>
<path d="M187.665 43.0828C186.934 43.2956 186.177 43.4274 185.327 43.4274C182.617 43.4274 181.01 42.0219 181.01 39.1993V31.4848H179.097V28.9932H181.01V26.0642L184.411 24.5929V28.9932H187.547V31.4848H184.411V38.8953C184.411 40.0084 184.891 40.6976 186.138 40.6976C186.617 40.6976 187.147 40.5912 187.667 40.4189V43.0828H187.665Z" fill="white"/>
<path d="M64.7109 17.6401L70.9698 8.61646H65.3441V6.83606H73.9156V7.72288L67.809 16.7465H73.7395V18.5269H64.7126V17.6401H64.7109Z" fill="white"/>
<path d="M79.2773 9.79053C81.8777 9.79053 83.8788 11.6115 83.8788 14.2297C83.8788 16.9206 81.7745 18.6858 79.1893 18.6858C76.5804 18.6858 74.4828 16.8817 74.4828 14.2703C74.4828 11.5861 76.6989 9.79053 79.2773 9.79053ZM81.678 14.2449C81.678 12.6723 80.8772 11.3632 79.1977 11.3632C77.4692 11.3632 76.7802 12.7365 76.7802 14.3024C76.7802 15.8192 77.5877 17.1132 79.2451 17.1132C80.9567 17.1115 81.678 15.7382 81.678 14.2449Z" fill="white"/>
<path d="M85.3755 6.10132H87.424V11.331C87.9759 10.2685 89.1051 9.79051 90.2885 9.79051C92.337 9.79051 93.3613 11.228 93.3613 13.1756V18.5253H91.2958V13.375C91.2958 12.1452 90.6559 11.4746 89.4623 11.4746C88.1503 11.4746 87.4223 12.2804 87.4223 13.5033V18.5253H85.3738V6.10132H85.3755Z" fill="white"/>
<path d="M99.4847 9.79053C102.085 9.79053 104.086 11.6115 104.086 14.2297C104.086 16.9206 101.982 18.6858 99.3967 18.6858C96.7878 18.6858 94.6902 16.8817 94.6902 14.2703C94.6902 11.5861 96.908 9.79053 99.4847 9.79053ZM101.885 14.2449C101.885 12.6723 101.085 11.3632 99.4051 11.3632C97.6766 11.3632 96.9876 12.7365 96.9876 14.3024C96.9876 15.8192 97.7951 17.1132 99.4525 17.1132C101.166 17.1115 101.885 15.7382 101.885 14.2449Z" fill="white"/>
<path d="M11.8881 36.3766C11.0907 36.3766 10.4491 35.7348 10.4491 34.9408V6.72631C10.4474 3.29894 13.2459 0.506714 16.6827 0.506714H41.8014C45.2382 0.506714 48.035 3.29894 48.035 6.72631V17.2618C48.035 18.0574 47.3917 18.6976 46.596 18.6976C45.7986 18.6976 45.1569 18.0557 45.1569 17.2618V6.72631C45.1569 4.8834 43.6553 3.37834 41.8014 3.37834H16.6827C14.8356 3.37834 13.3272 4.87665 13.3272 6.72631V34.9408C13.3272 35.7364 12.6838 36.3766 11.8881 36.3766Z" fill="white"/>
<path d="M41.8014 43.7466H34.7518C33.9544 43.7466 33.3128 43.1047 33.3128 42.3108C33.3128 41.5152 33.9561 40.875 34.7518 40.875H41.8014C43.6485 40.875 45.1569 39.3766 45.1569 37.527V26.3074C45.1569 25.5118 45.8002 24.8716 46.5959 24.8716C47.3933 24.8716 48.035 25.5135 48.035 26.3074V37.527C48.035 40.956 45.2382 43.7466 41.8014 43.7466Z" fill="white"/>
<path d="M31.0611 11.9949H20.5172C19.7198 11.9949 19.0782 11.353 19.0782 10.5591C19.0782 9.76518 19.7215 9.12329 20.5172 9.12329H31.0611C31.8585 9.12329 32.5002 9.76518 32.5002 10.5591C32.5002 11.353 31.8568 11.9949 31.0611 11.9949Z" fill="white"/>
<path d="M28.1864 17.7264H20.5172C19.7198 17.7264 19.0782 17.0845 19.0782 16.2905C19.0782 15.4949 19.7215 14.8547 20.5172 14.8547H28.1864C28.9838 14.8547 29.6255 15.4966 29.6255 16.2905C29.6255 17.0845 28.9771 17.7264 28.1864 17.7264Z" fill="white"/>
<path d="M17.5799 49.4932C16.6928 49.4932 15.8514 49.0861 15.3045 48.3766C10.2899 41.8986 5.35151 38.1148 5.30241 38.081C4.94688 37.8124 4.73526 37.3918 4.73526 36.9459C4.73018 36.4999 4.93672 36.0793 5.28717 35.8057C5.37859 35.7331 7.58116 34.0337 11.0653 33.5793C13.1003 33.3158 15.1691 33.5168 17.2041 34.1874C19.2627 34.8631 21.2875 36.0168 23.2463 37.6249C27.4889 31.1841 33.0182 23.3597 37.3793 18.9493C39.7546 16.5456 42.3466 15.4054 45.0875 15.554C46.7906 15.6503 48.4802 16.2432 50.1123 17.326C51.6715 18.3597 52.7956 19.581 53.4627 20.4239C53.7403 20.7787 53.8368 21.2381 53.7268 21.6739C53.6167 22.1097 53.3052 22.4645 52.8871 22.6368C49.6619 23.9831 42.2992 33.157 33.67 46.5895C32.5188 48.38 30.5549 49.4527 28.4201 49.4527H24.6955C23.8981 49.4527 23.2565 48.8108 23.2565 48.0168C23.2565 47.2212 23.8998 46.581 24.6955 46.581H28.4201C29.5679 46.581 30.6227 46.0067 31.2423 45.0388C33.1232 42.1131 36.8579 36.4341 40.7501 31.2567C44.6609 26.0709 47.737 22.6756 50.0903 20.9763C47.8149 18.7736 45.6225 18.4679 44.9317 18.429C43.0559 18.3243 41.2021 19.1807 39.4312 20.9712C32.6881 27.7905 22.945 43.2145 20.0618 48.0793C19.5776 48.8986 18.7176 49.4256 17.7628 49.4831C17.7001 49.4881 17.6426 49.4932 17.5799 49.4932ZM8.71038 37.1672C10.6692 38.8665 14.0907 42.0996 17.585 46.6148C18.44 45.179 19.879 42.8327 21.6685 40.054C19.9112 38.5641 18.1115 37.5118 16.3085 36.9172C14.6866 36.3817 13.0495 36.2179 11.4429 36.429C10.3526 36.5743 9.42651 36.8665 8.71038 37.1672Z" fill="white"/>
</svg>
