<svg width="114" height="50" viewBox="0 0 114 50" fill="none" xmlns="http://www.w3.org/2000/svg">
<path d="M79.7271 37.8463C79.4251 38.7653 78.9908 39.5744 78.4225 40.272C77.8542 40.9697 77.1977 41.5558 76.453 42.0288C75.7082 42.5017 74.8905 42.8565 74.0033 43.0963C73.1161 43.3345 72.2017 43.4545 71.2602 43.4545C69.6893 43.4545 68.2982 43.2163 67.087 42.7382C65.8757 42.2602 64.8579 41.5845 64.0317 40.7095C63.2055 39.8345 62.5813 38.7771 62.1555 37.5355C61.7297 36.294 61.5159 34.9139 61.5159 33.3936C61.5159 31.9984 61.7483 30.6977 62.2148 29.4967C62.6813 28.2957 63.3345 27.2501 64.1776 26.3615C65.0207 25.473 66.0352 24.7754 67.2193 24.267C68.4034 23.7585 69.7147 23.5051 71.1533 23.5051C72.0762 23.5051 72.9617 23.6166 73.8099 23.8362C74.6581 24.0575 75.4453 24.3869 76.173 24.8244C76.9008 25.2619 77.5505 25.8075 78.1239 26.4612C78.6973 27.1149 79.1638 27.8751 79.5286 28.7416L76.4139 30.0541C76.2104 29.5237 75.9389 29.0355 75.6013 28.5896C75.2638 28.1436 74.8753 27.7602 74.4359 27.4426C73.9965 27.1251 73.513 26.8768 72.9855 26.7011C72.4579 26.5237 71.8997 26.4359 71.3145 26.4359C70.2847 26.4359 69.4026 26.6369 68.6647 27.0389C67.9284 27.4409 67.3245 27.973 66.8546 28.6369C66.3847 29.299 66.0386 30.0575 65.8163 30.9105C65.5941 31.7636 65.4838 32.6352 65.4838 33.5288C65.4838 34.4663 65.6009 35.3514 65.8367 36.1859C66.0725 37.0203 66.4338 37.7551 66.9224 38.3869C67.411 39.0186 68.0268 39.5203 68.7732 39.892C69.518 40.2636 70.3967 40.4477 71.4095 40.4477C72.049 40.4477 72.6445 40.3548 73.1992 40.169C73.7539 39.9832 74.2544 39.7213 74.7039 39.3801C75.1518 39.0406 75.5454 38.6318 75.883 38.1538C76.2205 37.6757 76.4988 37.147 76.721 36.5626L79.7271 37.8463Z" fill="white"/>
<path d="M82.3497 23.2398L85.7579 21.7686V43.1892H82.3497V23.2398Z" fill="white"/>
<path d="M89.378 24.9104C89.378 24.6283 89.4306 24.3698 89.5375 24.135C89.6444 23.9002 89.7903 23.6975 89.9769 23.5252C90.1635 23.3529 90.3789 23.2212 90.6232 23.1283C90.8675 23.0354 91.1271 22.9897 91.4019 22.9897C91.6767 22.9897 91.9346 23.0387 92.1738 23.135C92.413 23.233 92.6233 23.3664 92.8065 23.5387C92.988 23.711 93.1305 23.9137 93.2323 24.1485C93.3341 24.3833 93.385 24.6418 93.385 24.9239C93.385 25.1975 93.3341 25.4543 93.2323 25.6924C93.1305 25.9306 92.9931 26.135 92.8201 26.3022C92.6471 26.4712 92.4401 26.6029 92.2009 26.6992C91.9617 26.7972 91.6988 26.8445 91.4154 26.8445C91.1406 26.8445 90.8777 26.7955 90.63 26.6992C90.3823 26.6012 90.1635 26.4678 89.9769 26.2955C89.7903 26.1232 89.6444 25.9171 89.5375 25.6789C89.4323 25.4391 89.378 25.184 89.378 24.9104ZM89.6851 29.0185H93.0932V43.1891H89.6851V29.0185Z" fill="white"/>
<path d="M107.364 40.8564C107.124 41.2635 106.817 41.625 106.446 41.9443C106.073 42.2618 105.665 42.5338 105.221 42.7602C104.777 42.9848 104.315 43.1571 103.837 43.277C103.357 43.397 102.887 43.4561 102.425 43.4561C101.334 43.4561 100.386 43.2585 99.5838 42.8666C98.7797 42.473 98.1147 41.9426 97.5871 41.2754C97.0595 40.6081 96.6659 39.8277 96.4097 38.9358C96.1519 38.0439 96.023 37.098 96.023 36.0997C96.023 35.1284 96.1655 34.1926 96.4488 33.2956C96.7321 32.3987 97.1528 31.6098 97.7075 30.9291C98.2622 30.2483 98.9425 29.7044 99.7517 29.299C100.559 28.8919 101.487 28.6892 102.534 28.6892C103.528 28.6892 104.456 28.8902 105.316 29.2923C106.176 29.6943 106.86 30.3243 107.365 31.1808V28.9933H110.76V48.0541H107.365V40.8564H107.364ZM103.357 40.8024C104.093 40.8024 104.721 40.6723 105.24 40.4122C105.759 40.152 106.179 39.8007 106.505 39.3581C106.829 38.9156 107.067 38.402 107.218 37.8142C107.369 37.2264 107.443 36.6098 107.443 35.9645C107.443 35.3277 107.37 34.7281 107.224 34.1622C107.079 33.5963 106.848 33.1064 106.532 32.6909C106.217 32.2754 105.811 31.946 105.314 31.7027C104.817 31.4595 104.213 31.3379 103.504 31.3379C102.759 31.3379 102.13 31.4713 101.621 31.7348C101.111 32 100.698 32.3581 100.383 32.8091C100.067 33.2602 99.8416 33.7804 99.7042 34.3733C99.5668 34.9645 99.4972 35.5879 99.4972 36.2416C99.4972 36.8328 99.5753 37.4037 99.7297 37.951C99.8857 38.4983 100.123 38.9848 100.442 39.4088C100.761 39.8328 101.163 40.1706 101.647 40.4223C102.13 40.674 102.7 40.8024 103.357 40.8024Z" fill="white"/>
<path d="M62.5422 17.6402L68.8139 8.61659H63.175V6.83618H71.764V7.72301L65.645 16.7467H71.5876V18.5271H62.5422V17.6402Z" fill="white"/>
<path d="M72.334 14.2703C72.334 13.5996 72.4629 12.9882 72.7225 12.4375C72.982 11.8868 73.3298 11.4155 73.7692 11.0236C74.2069 10.6317 74.7158 10.3294 75.296 10.1132C75.8762 9.89695 76.4903 9.79053 77.1366 9.79053C77.788 9.79053 78.3954 9.89864 78.9569 10.1132C79.5184 10.3294 80.0053 10.6317 80.4209 11.0236C80.8365 11.4155 81.1605 11.8834 81.3946 12.429C81.6304 12.9746 81.7475 13.5743 81.7475 14.2297C81.7475 14.9003 81.6237 15.5101 81.3794 16.0591C81.1334 16.6081 80.7975 17.076 80.3734 17.4645C79.9476 17.853 79.4505 18.1537 78.8771 18.3665C78.3054 18.5794 77.6947 18.6858 77.0484 18.6858C76.397 18.6858 75.7828 18.5777 75.2078 18.3632C74.6327 18.1469 74.1339 17.8463 73.7081 17.4561C73.2823 17.0676 72.9481 16.603 72.7021 16.0625C72.4562 15.5219 72.334 14.924 72.334 14.2703ZM77.1044 17.1115C77.5319 17.1115 77.9 17.0321 78.2071 16.8716C78.5141 16.7111 78.7669 16.5 78.9654 16.2365C79.1638 15.973 79.3097 15.6689 79.403 15.3226C79.4963 14.9763 79.5438 14.6165 79.5438 14.2449C79.5438 13.8513 79.4929 13.4797 79.3912 13.1317C79.2894 12.7838 79.135 12.4763 78.9297 12.2128C78.7245 11.9493 78.4666 11.7415 78.1562 11.5895C77.8457 11.4375 77.4793 11.3615 77.0569 11.3615C76.6243 11.3615 76.2528 11.4409 75.9457 11.6013C75.6387 11.7618 75.3876 11.9746 75.1959 12.2449C75.0042 12.5135 74.8617 12.826 74.7718 13.179C74.6802 13.5338 74.6361 13.9071 74.6361 14.3007C74.6361 14.679 74.687 15.0388 74.7887 15.3784C74.8905 15.7179 75.0432 16.0169 75.2502 16.2719C75.4554 16.527 75.7133 16.7314 76.0204 16.8834C76.3257 17.0371 76.687 17.1115 77.1044 17.1115Z" fill="white"/>
<path d="M83.2472 6.10132H85.2998V11.331C85.4389 11.0642 85.6103 10.8344 85.8172 10.6402C86.0225 10.4459 86.2498 10.2854 86.4992 10.1604C86.7469 10.0354 87.0149 9.94253 87.3016 9.88172C87.5883 9.82091 87.8784 9.79051 88.1719 9.79051C88.6859 9.79051 89.1338 9.87497 89.5188 10.0456C89.9039 10.2162 90.2246 10.451 90.4807 10.7517C90.7369 11.0523 90.9303 11.4088 91.0575 11.8209C91.1864 12.2331 91.2492 12.6841 91.2492 13.174V18.5236H89.1796V13.375C89.1796 12.7567 89.0235 12.2854 88.7096 11.9611C88.3958 11.6368 87.9412 11.4746 87.3423 11.4746C86.679 11.4746 86.1735 11.6588 85.8223 12.0304C85.4712 12.402 85.2964 12.8919 85.2964 13.5033V18.5253H83.2438V6.10132H83.2472Z" fill="white"/>
<path d="M92.5826 14.2703C92.5826 13.5996 92.7115 12.9882 92.9711 12.4375C93.2306 11.8868 93.5784 11.4155 94.0178 11.0236C94.4555 10.6317 94.9644 10.3294 95.5446 10.1132C96.1247 9.89695 96.7388 9.79053 97.3852 9.79053C98.0366 9.79053 98.6439 9.89864 99.2054 10.1132C99.767 10.3294 100.254 10.6317 100.669 11.0236C101.085 11.4155 101.409 11.8834 101.643 12.429C101.879 12.9746 101.996 13.5743 101.996 14.2297C101.996 14.9003 101.872 15.5101 101.628 16.0591C101.382 16.6081 101.046 17.076 100.622 17.4645C100.196 17.853 99.6991 18.1537 99.1257 18.3665C98.554 18.5794 97.9433 18.6858 97.297 18.6858C96.6455 18.6858 96.0314 18.5777 95.4563 18.3632C94.8813 18.1469 94.3825 17.8463 93.9567 17.4561C93.5309 17.0676 93.1967 16.603 92.9507 16.0625C92.7047 15.5219 92.5826 14.924 92.5826 14.2703ZM97.3547 17.1115C97.7822 17.1115 98.1503 17.0321 98.4573 16.8716C98.7644 16.7111 99.0171 16.5 99.2156 16.2365C99.4141 15.973 99.56 15.6689 99.6533 15.3226C99.7466 14.9763 99.7941 14.6165 99.7941 14.2449C99.7941 13.8513 99.7432 13.4797 99.6414 13.1317C99.5396 12.7838 99.3853 12.4763 99.18 12.2128C98.9747 11.9493 98.7169 11.7415 98.4064 11.5895C98.096 11.4375 97.7296 11.3615 97.3071 11.3615C96.8746 11.3615 96.503 11.4409 96.196 11.6013C95.8889 11.7618 95.6379 11.9746 95.4462 12.2449C95.2545 12.5135 95.112 12.826 95.0221 13.179C94.9305 13.5338 94.8863 13.9071 94.8863 14.3007C94.8863 14.679 94.9372 15.0388 95.039 15.3784C95.1408 15.7179 95.2935 16.0169 95.5005 16.2719C95.7057 16.527 95.9636 16.7314 96.2706 16.8834C96.5743 17.0371 96.9373 17.1115 97.3547 17.1115Z" fill="white"/>
<path d="M25.0987 48.6386C24.834 48.6386 24.566 48.5676 24.3251 48.4139C23.6533 47.9882 23.4599 47.098 23.8874 46.4342L30.5663 36.049C30.8309 35.6369 31.2872 35.3886 31.7826 35.3886H46.2921C47.6188 35.3886 48.6943 34.3176 48.6943 32.9967V6.57943C48.6943 5.25849 47.6188 4.18754 46.2921 4.18754H31.1057C30.3084 4.18754 29.6638 3.54734 29.6638 2.75173C29.6638 1.95612 30.3067 1.31592 31.1057 1.31592H46.2921C49.2083 1.31592 51.5765 3.67403 51.5765 6.57774V32.9899C51.5765 35.8936 49.2083 38.2517 46.2921 38.2517H32.5663L26.3167 47.9781C26.0402 48.4038 25.5737 48.6386 25.0987 48.6386ZM18.43 38.2534H7.66277C4.74661 38.2534 2.3784 35.8953 2.3784 32.9916V6.57943C2.3784 3.67572 4.74661 1.31761 7.66277 1.31761H21.3122C22.1096 1.31761 22.7542 1.95781 22.7542 2.75342C22.7542 3.54903 22.1113 4.18923 21.3122 4.18923H7.66277C6.33616 4.18923 5.26063 5.26017 5.26063 6.58112V32.9899C5.26063 34.3109 6.33616 35.3818 7.66277 35.3818H18.43C19.2273 35.3818 19.872 36.022 19.872 36.8176C19.8703 37.6115 19.2273 38.2534 18.43 38.2534Z" fill="white"/>
<path d="M25.0987 48.6386C24.834 48.6386 24.566 48.5676 24.3251 48.4139C23.6533 47.9882 23.4599 47.098 23.8874 46.4342L30.5663 36.049C30.8309 35.6369 31.2872 35.3886 31.7826 35.3886H46.2921C47.6188 35.3886 48.6943 34.3176 48.6943 32.9967V6.57943C48.6943 5.25849 47.6188 4.18754 46.2921 4.18754H31.1057C30.3084 4.18754 29.6638 3.54734 29.6638 2.75173C29.6638 1.95612 30.3067 1.31592 31.1057 1.31592H46.2921C49.2083 1.31592 51.5765 3.67403 51.5765 6.57774V32.9899C51.5765 35.8936 49.2083 38.2517 46.2921 38.2517H32.5663L26.3167 47.9781C26.0402 48.4038 25.5737 48.6386 25.0987 48.6386ZM18.43 38.2534H7.66277C4.74661 38.2534 2.3784 35.8953 2.3784 32.9916V6.57943C2.3784 3.67572 4.74661 1.31761 7.66277 1.31761H21.3122C22.1096 1.31761 22.7542 1.95781 22.7542 2.75342C22.7542 3.54903 22.1113 4.18923 21.3122 4.18923H7.66277C6.33616 4.18923 5.26063 5.26017 5.26063 6.58112V32.9899C5.26063 34.3109 6.33616 35.3818 7.66277 35.3818H18.43C19.2273 35.3818 19.872 36.022 19.872 36.8176C19.8703 37.6115 19.2273 38.2534 18.43 38.2534Z" fill="white"/>
<path d="M37.5403 22.4713C39 22.4713 40.1833 21.293 40.1833 19.8395C40.1833 18.386 39 17.2078 37.5403 17.2078C36.0806 17.2078 34.8972 18.386 34.8972 19.8395C34.8972 21.293 36.0806 22.4713 37.5403 22.4713Z" fill="white"/>
<path d="M26.9715 22.4713C28.4312 22.4713 29.6146 21.293 29.6146 19.8395C29.6146 18.386 28.4312 17.2078 26.9715 17.2078C25.5118 17.2078 24.3285 18.386 24.3285 19.8395C24.3285 21.293 25.5118 22.4713 26.9715 22.4713Z" fill="white"/>
<path d="M16.4028 22.4713C17.8625 22.4713 19.0458 21.293 19.0458 19.8395C19.0458 18.386 17.8625 17.2078 16.4028 17.2078C14.9431 17.2078 13.7597 18.386 13.7597 19.8395C13.7597 21.293 14.9431 22.4713 16.4028 22.4713Z" fill="white"/>
<path d="M37.5403 22.4713C39 22.4713 40.1833 21.293 40.1833 19.8395C40.1833 18.386 39 17.2078 37.5403 17.2078C36.0806 17.2078 34.8972 18.386 34.8972 19.8395C34.8972 21.293 36.0806 22.4713 37.5403 22.4713Z" fill="white"/>
<path d="M26.9715 22.4713C28.4312 22.4713 29.6146 21.293 29.6146 19.8395C29.6146 18.386 28.4312 17.2078 26.9715 17.2078C25.5118 17.2078 24.3285 18.386 24.3285 19.8395C24.3285 21.293 25.5118 22.4713 26.9715 22.4713Z" fill="white"/>
<path d="M16.4028 22.4713C17.8625 22.4713 19.0458 21.293 19.0458 19.8395C19.0458 18.386 17.8625 17.2078 16.4028 17.2078C14.9431 17.2078 13.7597 18.386 13.7597 19.8395C13.7597 21.293 14.9431 22.4713 16.4028 22.4713Z" fill="white"/>
</svg>
