<svg width="121" height="50" viewBox="0 0 121 50" fill="none" xmlns="http://www.w3.org/2000/svg">
<path d="M77.7335 37.8462C76.5232 41.532 73.038 43.4543 69.2731 43.4543C62.9944 43.4543 59.5363 39.4915 59.5363 33.3935C59.5363 27.826 63.4216 23.505 69.168 23.505C72.8533 23.505 76.0723 25.2685 77.5352 28.7415L74.4229 30.054C73.5974 27.9205 71.6701 26.4357 69.3274 26.4357C65.2031 26.4357 63.5012 29.9493 63.5012 33.527C63.5012 37.1047 65.3642 40.4459 69.4206 40.4459C71.9887 40.4459 73.85 38.8952 74.7281 36.5624L77.7352 37.8479L77.7335 37.8462Z" fill="white"/>
<path d="M80.4983 23.7821H87.5483C91.4454 23.7821 94.8781 25.2145 94.8781 29.6149C94.8781 32.3851 93.2151 34.1757 90.5673 34.8243L96.0477 43.1892H91.9777L86.9093 35.3683H84.275V43.1892H80.4966V23.7821H80.4983ZM87.4415 32.7703C89.6096 32.7703 91.2064 31.9476 91.2064 29.6284C91.2064 27.3091 89.5045 26.6588 87.4415 26.6588H84.275V32.7703H87.4415Z" fill="white"/>
<path d="M98.6294 23.7821H103.405L109.019 37.9257L114.592 23.7821H119.261V43.1892H115.776V28.3953L109.643 43.1892H107.966L102.033 28.3953V43.1892H98.6277V23.7821H98.6294Z" fill="white"/>
<path d="M60.5381 17.6401L66.805 8.61646H61.1721V6.83606H69.7545V7.72288L63.6402 16.7465H69.5783V18.5269H60.5398V17.6401H60.5381Z" fill="white"/>
<path d="M75.1061 9.79053C77.7098 9.79053 79.7134 11.6115 79.7134 14.2297C79.7134 16.848 77.6064 18.6858 75.0179 18.6858C72.4295 18.6858 70.3055 16.8817 70.3055 14.2703C70.3055 11.6588 72.5244 9.79053 75.1061 9.79053ZM77.5098 14.2466C77.5098 12.674 76.708 11.3649 75.0264 11.3649C73.3448 11.3649 72.6058 12.7382 72.6058 14.304C72.6058 15.8699 73.4143 17.1149 75.0739 17.1149C76.7334 17.1149 77.5098 15.7415 77.5098 14.2483V14.2466Z" fill="white"/>
<path d="M81.1153 6.10132H83.1664V11.331C83.719 10.2685 84.8497 9.79051 86.0346 9.79051C88.0857 9.79051 89.1112 11.228 89.1112 13.1756V18.5253H87.0432V13.375C87.0432 12.1452 86.4024 11.4746 85.2074 11.4746C83.8936 11.4746 83.1647 12.2804 83.1647 13.5033V18.5253H81.1136V6.10132H81.1153Z" fill="white"/>
<path d="M95.1476 9.79053C97.7513 9.79053 99.7549 11.6115 99.7549 14.2297C99.7549 16.848 97.6479 18.6858 95.0594 18.6858C92.471 18.6858 90.347 16.8817 90.347 14.2703C90.347 11.6588 92.5659 9.79053 95.1476 9.79053ZM97.5513 14.2466C97.5513 12.674 96.7495 11.3649 95.0679 11.3649C93.3863 11.3649 92.6473 12.7382 92.6473 14.304C92.6473 15.8699 93.4558 17.1149 95.1154 17.1149C96.7749 17.1149 97.5513 15.7415 97.5513 14.2483V14.2466Z" fill="white"/>
<path d="M34.6247 40.4122C30.5242 40.4122 26.661 38.8294 23.7471 35.9561L15.2307 27.4696C14.2391 26.4814 13.695 25.1673 13.7 23.7703C13.7051 22.3733 14.256 21.0625 15.2528 20.0811C17.2903 18.0744 20.5975 18.0845 22.6232 20.1031L30.4225 27.875C31.3362 28.7855 32.8262 28.7889 33.7432 27.8835C34.1925 27.4409 34.4399 26.8514 34.4416 26.2213C34.4433 25.5929 34.1992 25 33.7517 24.5558L25.2473 16.0811C22.8707 13.7382 19.7144 12.4477 16.3682 12.4578C12.9542 12.4662 9.76734 13.8024 7.39416 16.2196C5.01759 18.6402 3.74624 21.848 3.81405 25.2517C3.94797 32.0271 9.59275 37.5406 16.397 37.5406C17.6141 37.5406 18.8159 37.3683 19.9703 37.0287C20.7331 36.8041 21.5349 37.2382 21.7587 37.9983C21.9841 38.7585 21.5485 39.5575 20.7857 39.7821C19.3669 40.1994 17.8904 40.4122 16.397 40.4122C8.03492 40.4122 1.09845 33.6369 0.934026 25.3092C0.850965 21.1284 2.41387 17.1875 5.33458 14.2129C8.25359 11.2399 12.1693 9.59632 16.3614 9.58787C20.4551 9.57774 24.3522 11.1605 27.2763 14.044L35.7893 22.5271C36.7809 23.5169 37.3267 24.8311 37.3234 26.2298C37.32 27.6284 36.7674 28.9409 35.7706 29.924C33.7297 31.9358 30.4174 31.9274 28.3866 29.9037L20.5874 22.1318C19.6771 21.2247 18.1938 21.2213 17.2785 22.1217C16.8309 22.5625 16.5835 23.1504 16.5818 23.7787C16.5801 24.4054 16.8242 24.9967 17.2683 25.4392L25.7761 33.919C28.1442 36.2534 31.2887 37.5423 34.6247 37.5423C41.5578 37.5423 47.2043 31.9223 47.211 25.0135C47.2144 21.6656 45.9058 18.5135 43.5258 16.1385C41.1459 13.7635 37.9845 12.4561 34.6247 12.4561C33.5534 12.4561 32.4905 12.5896 31.4633 12.8548C31.3141 12.8936 31.165 12.9342 31.0175 12.9781C30.2547 13.2044 29.4529 12.772 29.2257 12.0135C28.9986 11.2534 29.4325 10.4544 30.1936 10.2281C30.375 10.174 30.5581 10.1233 30.7412 10.076C32.0024 9.75172 33.3093 9.58618 34.623 9.58618C38.7524 9.58618 42.6376 11.1926 45.5617 14.1098C48.4858 17.0271 50.0945 20.9004 50.0894 25.0152C50.0809 33.5051 43.141 40.4105 34.623 40.4105L34.6247 40.4122Z" fill="white"/>
</svg>
