<svg width="183" height="50" viewBox="0 0 183 50" fill="none" xmlns="http://www.w3.org/2000/svg">
<path d="M64.5058 23.7838H71.0391C77.3698 23.7838 81.2189 27.0777 81.2189 33.5473C81.2189 39.8649 77.1672 43.1926 71.0053 43.1926H64.5058V23.7838ZM70.9209 40.2534C75.4453 40.2534 77.3023 37.6352 77.3023 33.3784C77.3023 29.0034 75.3271 26.7061 70.8703 26.7061H68.2705V40.2534H70.9209Z" fill="white"/>
<path d="M92.1921 41.4527C91.1117 42.8885 89.5417 43.446 87.786 43.446C85.1186 43.446 83.0253 42.0946 83.0253 39.3074C83.0253 35.3716 87.1782 34.7466 90.4871 34.7466H92.1584V34.527C92.1584 32.5 91.6857 31.2162 89.3898 31.2162C88.0054 31.2162 86.7393 31.9257 86.2328 33.2433L83.5993 32.1115C84.5446 29.6115 87.1951 28.6993 89.7274 28.6993C93.0869 28.6993 95.5179 30.321 95.5179 33.9189V43.1926H92.1753V41.4527H92.1921ZM90.4533 36.8412C88.8833 36.8412 86.4017 37.027 86.4017 39.1723C86.4017 40.5406 87.3977 41.0473 88.6638 41.0473C90.3858 41.0473 92.1584 40.152 92.1584 38.2264V36.8412H90.4533Z" fill="white"/>
<path d="M106.289 43.0912C105.563 43.3108 104.803 43.4291 103.959 43.4291C101.258 43.4291 99.6539 42.027 99.6539 39.2061V31.4865H97.7463V28.9865H99.6539V26.0642L103.047 24.5946V29.0034H106.17V31.5034H103.047V38.9189C103.047 40.0338 103.52 40.7264 104.769 40.7264C105.242 40.7264 105.782 40.625 106.289 40.4561V43.0912Z" fill="white"/>
<path d="M117.312 41.4527C116.232 42.8885 114.662 43.446 112.906 43.446C110.239 43.446 108.146 42.0946 108.146 39.3074C108.146 35.3716 112.299 34.7466 115.607 34.7466H117.279V34.527C117.279 32.5 116.806 31.2162 114.51 31.2162C113.126 31.2162 111.86 31.9257 111.353 33.2433L108.72 32.1115C109.665 29.6115 112.315 28.6993 114.848 28.6993C118.207 28.6993 120.638 30.321 120.638 33.9189V43.1926H117.296V41.4527H117.312ZM115.574 36.8412C114.004 36.8412 111.522 37.027 111.522 39.1723C111.522 40.5406 112.518 41.0473 113.784 41.0473C115.506 41.0473 117.279 40.152 117.279 38.2264V36.8412H115.574Z" fill="white"/>
<path d="M124.352 23.7838H131.088C135.174 23.7838 138.364 25.4223 138.364 29.8987C138.364 34.8142 134.481 35.8784 130.328 35.8784H128.1V43.1926H124.335V23.7838H124.352ZM131.071 33.1757C133.384 33.1757 134.701 32.2129 134.701 29.8818C134.701 27.4494 133.266 26.6554 131.071 26.6554H128.117V33.1926H131.071V33.1757Z" fill="white"/>
<path d="M140.896 28.9865H144.29V31.6554C145.252 29.7129 146.788 28.7838 148.949 28.7838V31.9257C146.214 31.9257 144.29 32.821 144.29 35.8615V43.1926H140.896V28.9865Z" fill="white"/>
<path d="M164.126 40.1014C162.944 42.6014 160.395 43.4629 157.795 43.4629C153.322 43.4629 150.502 40.473 150.502 36.0474C150.502 31.892 153.372 28.6825 157.643 28.6825C162.235 28.6825 164.464 31.3683 164.464 36.8413H153.963C153.963 39.2399 155.347 40.9967 157.93 40.9967C159.467 40.9967 160.733 40.3717 161.476 38.9359L164.126 40.1014ZM161.07 34.6115C160.969 32.4663 159.669 31.1487 157.66 31.1487C155.533 31.1487 154.284 32.6521 153.997 34.6115H161.07Z" fill="white"/>
<path d="M167.182 28.9865H170.575V31.2838C171.554 29.6284 173.546 28.6825 175.437 28.6825C179.776 28.6825 181.869 32.1622 181.869 36.0474C181.869 40.0338 179.641 43.4629 175.538 43.4629C173.546 43.4629 171.537 42.669 170.592 40.9629V48.0575H167.199V28.9865H167.182ZM178.357 35.9629C178.357 33.5643 177.159 31.3345 174.39 31.3345C171.588 31.3345 170.457 33.5811 170.457 36.1318C170.457 38.767 171.672 40.794 174.492 40.794C177.496 40.8109 178.357 38.5811 178.357 35.9629Z" fill="white"/>
<path d="M64.5227 17.6352L70.769 8.61496H65.1642V6.84131H73.7065V7.71969L67.6121 16.74H73.5208V18.5136H64.5227V17.6352Z" fill="white"/>
<path d="M79.058 9.79736C81.6579 9.79736 83.6499 11.6217 83.6499 14.2399C83.6499 16.9257 81.5566 18.6994 78.9736 18.6994C76.3738 18.6994 74.2805 16.892 74.2805 14.2906C74.2805 11.5879 76.4751 9.79736 79.058 9.79736ZM81.4384 14.2399C81.4384 12.669 80.6449 11.3514 78.9568 11.3514C77.2348 11.3514 76.5426 12.7197 76.5426 14.2906C76.5426 15.8109 77.353 17.0947 79.0074 17.0947C80.7293 17.1116 81.4384 15.7433 81.4384 14.2399Z" fill="white"/>
<path d="M85.1355 6.09802H87.1782V11.3345C87.7353 10.2703 88.8495 9.79735 90.0313 9.79735C92.074 9.79735 93.1038 11.2332 93.1038 13.1757V18.5305H91.0442V13.3784C91.0442 12.1453 90.4027 11.4696 89.2209 11.4696C87.9041 11.4696 87.1782 12.2805 87.1782 13.4967V18.5136H85.1355V6.09802Z" fill="white"/>
<path d="M99.1982 9.79736C101.798 9.79736 103.79 11.6217 103.79 14.2399C103.79 16.9257 101.697 18.6994 99.1138 18.6994C96.5139 18.6994 94.4206 16.892 94.4206 14.2906C94.4206 11.5879 96.6321 9.79736 99.1982 9.79736ZM101.595 14.2399C101.595 12.669 100.802 11.3514 99.1138 11.3514C97.3918 11.3514 96.6997 12.7197 96.6997 14.2906C96.6997 15.8109 97.51 17.0947 99.1644 17.0947C100.886 17.1116 101.595 15.7433 101.595 14.2399Z" fill="white"/>
<path d="M8.5085 40.0168C8.00204 40.0168 7.49559 39.9155 7.02289 39.7128C6.34762 39.4256 5.75675 38.9695 5.35158 38.3783C4.89577 37.7364 4.65942 36.9763 4.65942 36.1824V11.7905C4.65942 10.9966 4.89577 10.2195 5.35158 9.59454C5.77363 9.00333 6.34762 8.54725 7.02289 8.26009C7.69817 7.97292 8.44097 7.88846 9.15001 8.0236C9.92658 8.15873 10.6187 8.53036 11.1927 9.08779L21.018 18.9189C21.5751 19.4763 21.5751 20.3885 21.018 20.9459C20.4609 21.5033 19.5493 21.5033 18.9922 20.9459L9.1669 11.0979C8.76173 10.6925 8.30592 10.8108 8.12022 10.8952C7.93452 10.9628 7.52935 11.1993 7.52935 11.7736V36.1824C7.52935 36.7567 7.93452 36.9932 8.12022 37.0608C8.30592 37.1283 8.76173 37.2635 9.1669 36.8581L40.9893 5.01684C42.4749 3.53036 44.9059 3.53036 46.3915 5.01684L47.1343 5.76009C47.6914 6.31752 47.6914 7.22968 47.1343 7.78711C46.5772 8.34454 45.6656 8.34454 45.1085 7.78711L44.3657 7.04387C43.9943 6.67225 43.3865 6.67225 43.0151 7.04387L11.1927 38.8851C10.6187 39.4594 9.92658 39.831 9.15001 39.9493C8.93055 40 8.72797 40.0168 8.5085 40.0168Z" fill="white"/>
<path d="M14.586 46.0979C13.6068 46.0979 12.6277 45.7263 11.8849 44.983L11.1421 44.2398C10.585 43.6824 10.585 42.7702 11.1421 42.2128C11.6992 41.6553 12.6108 41.6553 13.1679 42.2128L13.9107 42.956C14.2821 43.3276 14.8899 43.3276 15.2613 42.956L47.0837 11.0979C47.6577 10.5236 48.3498 10.152 49.1264 10.0337C49.8354 9.91548 50.5782 9.99994 51.2535 10.2702C51.9288 10.5574 52.5197 11.0135 52.9248 11.6047C53.3806 12.2466 53.617 13.0067 53.617 13.8006V38.2094C53.617 39.0033 53.3806 39.7803 52.9248 40.4053C52.5028 40.9966 51.9288 41.4526 51.2535 41.7398C50.5782 42.027 49.8354 42.1114 49.1264 41.9763C48.3498 41.8412 47.6577 41.4695 47.0837 40.9121L37.2415 31.081C36.6844 30.5236 36.6844 29.6114 37.2415 29.054C37.7986 28.4966 38.7102 28.4966 39.2673 29.054L49.1095 38.902C49.5147 39.3074 49.9705 39.1891 50.1562 39.1047C50.3419 39.0371 50.7471 38.8006 50.7471 38.2263V13.8175C50.7471 13.2432 50.3419 13.0067 50.1562 12.9391C49.9705 12.8716 49.5147 12.7364 49.1095 13.1418L17.2871 44.983C16.5443 45.7263 15.5651 46.0979 14.586 46.0979Z" fill="white"/>
</svg>
