<svg width="153" height="50" viewBox="0 0 153 50" fill="none" xmlns="http://www.w3.org/2000/svg">
<path d="M62.1596 23.7837H68.6504C70.2206 23.7837 71.6315 23.9898 72.883 24.4002C74.1345 24.8107 75.1948 25.4256 76.0689 26.2432C76.9429 27.0607 77.6106 28.0776 78.077 29.2921C78.5417 30.5067 78.7749 31.9239 78.7749 33.5404C78.7749 35.1232 78.5333 36.5151 78.0501 37.7161C77.567 38.9188 76.8825 39.9256 75.9967 40.7381C75.1109 41.5506 74.0423 42.1638 72.7908 42.5742C71.5392 42.9847 70.1518 43.1908 68.6235 43.1908H62.1596V23.7837ZM68.5313 40.26C69.6553 40.26 70.6149 40.1013 71.4151 39.7837C72.2137 39.4661 72.8696 39.01 73.383 38.4188C73.8963 37.8276 74.2738 37.1046 74.5154 36.2516C74.7569 35.3986 74.8777 34.4425 74.8777 33.3817C74.8777 31.1908 74.3661 29.5303 73.3444 28.4036C72.321 27.2769 70.7004 26.7127 68.4792 26.7127H65.8974V40.26H68.5313Z" fill="white"/>
<path d="M94.1889 40.0997C93.8987 40.728 93.5279 41.2551 93.0767 41.6841C92.6254 42.1132 92.1238 42.4578 91.5752 42.7179C91.0266 42.978 90.4378 43.1672 89.8103 43.2804C89.1829 43.3953 88.5437 43.4527 87.8945 43.4527C86.7805 43.4527 85.7756 43.2736 84.8798 42.9155C83.9839 42.5574 83.2223 42.0541 82.5948 41.4037C81.9674 40.7551 81.4842 39.9747 81.147 39.0642C80.8098 38.1537 80.6404 37.147 80.6404 36.0422C80.6404 35 80.8115 34.0304 81.1537 33.1334C81.496 32.2365 81.9791 31.4595 82.6015 30.8007C83.2239 30.1419 83.9705 29.625 84.8395 29.25C85.7085 28.875 86.6731 28.6875 87.7351 28.6875C90.0167 28.6875 91.7178 29.3615 92.8368 30.7095C93.9557 32.0574 94.5144 34.1014 94.5144 36.8395H84.0745C84.0745 37.4409 84.1601 37.9949 84.3312 38.5034C84.5023 39.0118 84.7539 39.4493 85.0878 39.8159C85.4216 40.1824 85.8343 40.4696 86.3259 40.6774C86.8174 40.8851 87.3828 40.9882 88.0236 40.9882C88.7953 40.9882 89.4849 40.8243 90.0905 40.4983C90.6961 40.1723 91.1826 39.6453 91.5517 38.9206L94.1889 40.0997ZM91.1608 34.6132C91.1088 33.5355 90.7817 32.6892 90.1794 32.0743C89.5788 31.4595 88.7769 31.1537 87.777 31.1537C87.2502 31.1537 86.7772 31.2416 86.3561 31.4189C85.935 31.5963 85.5726 31.8395 85.2706 32.1486C84.9687 32.4578 84.7204 32.8226 84.5275 33.2416C84.3345 33.6622 84.202 34.1182 84.1332 34.6132H91.1608Z" fill="white"/>
<path d="M97.3211 23.2398L100.691 21.7686V43.1892H97.3211V23.2398Z" fill="white"/>
<path d="M113.936 40.9628C113.717 41.3952 113.443 41.7685 113.114 42.0827C112.785 42.3969 112.418 42.6553 112.015 42.858C111.611 43.0607 111.18 43.2111 110.719 43.309C110.257 43.407 109.783 43.4543 109.291 43.4543C108.484 43.4543 107.771 43.3259 107.152 43.0692C106.533 42.8124 106.015 42.4492 105.599 41.9763C105.181 41.5033 104.867 40.9374 104.657 40.2803C104.446 39.6215 104.342 38.8901 104.342 38.0861V28.9932H107.712V37.6756C107.712 38.6486 107.94 39.4121 108.397 39.9695C108.853 40.5269 109.573 40.804 110.556 40.804C111.083 40.804 111.554 40.7229 111.972 40.559C112.388 40.3952 112.744 40.1655 113.039 39.8699C113.332 39.5742 113.557 39.2161 113.71 38.7955C113.864 38.3766 113.94 37.9138 113.94 37.4104V28.9932H117.297V43.1891H113.94V40.9628H113.936Z" fill="white"/>
<path d="M123.165 43.8125C123.341 44.2094 123.569 44.5388 123.849 44.8007C124.13 45.0608 124.443 45.2686 124.791 45.424C125.138 45.5794 125.504 45.6892 125.889 45.755C126.275 45.8209 126.666 45.8547 127.06 45.8547C128.315 45.8547 129.298 45.5473 130.01 44.9341C130.721 44.3192 131.077 43.3682 131.077 42.0777V39.9561C130.84 40.3632 130.548 40.7314 130.201 41.0625C129.854 41.3936 129.475 41.674 129.062 41.9037C128.649 42.1334 128.213 42.3108 127.752 42.4341C127.29 42.5574 126.824 42.6199 126.349 42.6199C125.349 42.6199 124.458 42.4375 123.677 42.0692C122.895 41.7027 122.236 41.2061 121.695 40.5777C121.155 39.951 120.746 39.223 120.464 38.3969C120.184 37.5709 120.043 36.6942 120.043 35.7652C120.043 34.8108 120.192 33.9054 120.491 33.0473C120.789 32.1909 121.216 31.4392 121.768 30.7939C122.321 30.1486 122.992 29.6368 123.782 29.2567C124.573 28.8767 125.455 28.6858 126.428 28.6858C127.384 28.6858 128.273 28.8851 129.094 29.2821C129.914 29.679 130.575 30.3074 131.075 31.1638V28.9898H134.459V42.1267C134.459 43.2398 134.266 44.1942 133.88 44.9898C133.494 45.7855 132.966 46.4341 132.293 46.9392C131.622 47.4425 130.837 47.8125 129.936 48.0456C129.037 48.2804 128.077 48.3969 127.059 48.3969C126.401 48.3969 125.742 48.3446 125.084 48.2382C124.427 48.1317 123.804 47.9493 123.222 47.6875C122.638 47.4273 122.11 47.0777 121.635 46.6402C121.16 46.2027 120.783 45.6486 120.503 44.9763L123.165 43.8125ZM127.232 40.0084C127.889 40.0084 128.466 39.8936 128.963 39.6638C129.459 39.4341 129.874 39.1199 130.208 38.723C130.542 38.326 130.791 37.8564 130.958 37.3175C131.124 36.7787 131.208 36.1993 131.208 35.5811C131.208 34.9713 131.127 34.4054 130.964 33.8851C130.802 33.3632 130.56 32.9105 130.24 32.527C129.919 32.1419 129.518 31.8429 129.035 31.625C128.552 31.4088 127.99 31.3007 127.351 31.3007C126.675 31.3007 126.096 31.4223 125.613 31.6655C125.129 31.9088 124.732 32.2348 124.422 32.6469C124.109 33.0574 123.88 33.5371 123.73 34.0844C123.581 34.6317 123.507 35.2162 123.507 35.8344C123.507 36.3919 123.591 36.9206 123.757 37.4257C123.923 37.929 124.167 38.3733 124.489 38.7584C124.809 39.1436 125.2 39.4476 125.66 39.674C126.119 39.8952 126.644 40.0084 127.232 40.0084Z" fill="white"/>
<path d="M150.757 40.0997C150.467 40.728 150.096 41.2551 149.645 41.6841C149.193 42.1132 148.692 42.4578 148.143 42.7179C147.595 42.978 147.006 43.1672 146.378 43.2804C145.751 43.3953 145.112 43.4527 144.463 43.4527C143.349 43.4527 142.344 43.2736 141.448 42.9155C140.552 42.5574 139.79 42.0541 139.163 41.4037C138.535 40.7551 138.052 39.9747 137.715 39.0642C137.378 38.1537 137.208 37.147 137.208 36.0422C137.208 35 137.38 34.0304 137.722 33.1334C138.064 32.2365 138.547 31.4595 139.17 30.8007C139.792 30.1419 140.539 29.625 141.408 29.25C142.277 28.875 143.241 28.6875 144.303 28.6875C146.585 28.6875 148.286 29.3615 149.405 30.7095C150.524 32.0574 151.082 34.1014 151.082 36.8395H140.643C140.643 37.4409 140.728 37.9949 140.899 38.5034C141.07 39.0118 141.322 39.4493 141.656 39.8159C141.99 40.1824 142.402 40.4696 142.894 40.6774C143.385 40.8851 143.951 40.9882 144.592 40.9882C145.363 40.9882 146.053 40.8243 146.659 40.4983C147.264 40.1723 147.751 39.6453 148.12 38.9206L150.757 40.0997ZM147.729 34.6132C147.677 33.5355 147.35 32.6892 146.747 32.0743C146.147 31.4595 145.345 31.1537 144.345 31.1537C143.818 31.1537 143.345 31.2416 142.924 31.4189C142.503 31.5963 142.141 31.8395 141.839 32.1486C141.537 32.4578 141.288 32.8226 141.096 33.2416C140.903 33.6622 140.77 34.1182 140.701 34.6132H147.729Z" fill="white"/>
<path d="M62.1848 17.6402L68.387 8.61659H62.8122V6.83618H71.306V7.72301L65.2548 16.7467H71.1316V18.5271H62.1864V17.6402H62.1848Z" fill="white"/>
<path d="M71.868 14.2703C71.868 13.5996 71.9955 12.9882 72.2522 12.4375C72.5089 11.8868 72.8528 11.4155 73.2873 11.0236C73.7201 10.6317 74.2234 10.3294 74.7972 10.1132C75.3709 9.89695 75.9782 9.79053 76.6174 9.79053C77.2616 9.79053 77.8622 9.89864 78.4175 10.1132C78.9728 10.3294 79.4543 10.6317 79.8653 11.0236C80.2763 11.4155 80.5968 11.8834 80.8283 12.429C81.0615 12.9746 81.1772 13.5743 81.1772 14.2297C81.1772 14.9003 81.0547 15.5101 80.8132 16.0591C80.5699 16.6081 80.2377 17.076 79.8183 17.4645C79.3972 17.853 78.9057 18.1537 78.3387 18.3665C77.7733 18.5794 77.1694 18.6858 76.5302 18.6858C75.886 18.6858 75.2787 18.5777 74.7099 18.3632C74.1412 18.1469 73.648 17.8463 73.2269 17.4561C72.8058 17.0676 72.4753 16.603 72.2321 16.0625C71.9905 15.5219 71.868 14.924 71.868 14.2703ZM76.5872 17.1115C77.01 17.1115 77.374 17.0321 77.6777 16.8716C77.9813 16.7111 78.2313 16.5 78.4276 16.2365C78.6239 15.973 78.7681 15.6689 78.8604 15.3226C78.9527 14.9763 78.9997 14.6165 78.9997 14.2449C78.9997 13.8513 78.9493 13.4797 78.8487 13.1317C78.748 12.7838 78.5953 12.4763 78.3923 12.2128C78.1894 11.9493 77.9344 11.7415 77.6273 11.5895C77.3203 11.4375 76.958 11.3615 76.5402 11.3615C76.1124 11.3615 75.745 11.4409 75.4414 11.6013C75.1377 11.7618 74.8895 11.9746 74.6999 12.2449C74.5103 12.5135 74.3694 12.826 74.2805 13.179C74.1899 13.5338 74.1463 13.9071 74.1463 14.3007C74.1463 14.679 74.1966 15.0388 74.2972 15.3784C74.3979 15.7179 74.5489 16.0169 74.7536 16.2719C74.9566 16.527 75.2116 16.7314 75.5152 16.8834C75.8172 17.0371 76.1745 17.1115 76.5872 17.1115Z" fill="white"/>
<path d="M82.6619 6.10132H84.6919V11.331C84.8294 11.0642 84.9989 10.8344 85.2035 10.6402C85.4065 10.4459 85.6313 10.2854 85.8779 10.1604C86.1229 10.0354 86.3879 9.94253 86.6715 9.88172C86.955 9.82091 87.2419 9.79051 87.5321 9.79051C88.0404 9.79051 88.4833 9.87497 88.8641 10.0456C89.245 10.2162 89.562 10.451 89.8153 10.7517C90.0687 11.0523 90.2599 11.4088 90.3857 11.8209C90.5132 12.2331 90.5753 12.6841 90.5753 13.174V18.5236H88.5286V13.375C88.5286 12.7567 88.3743 12.2854 88.0639 11.9611C87.7535 11.6368 87.3039 11.4746 86.7117 11.4746C86.0558 11.4746 85.5558 11.6588 85.2086 12.0304C84.8613 12.402 84.6885 12.8919 84.6885 13.5033V18.5253H82.6586V6.10132H82.6619Z" fill="white"/>
<path d="M91.8939 14.2703C91.8939 13.5996 92.0214 12.9882 92.2781 12.4375C92.5348 11.8868 92.8787 11.4155 93.3132 11.0236C93.746 10.6317 94.2493 10.3294 94.8231 10.1132C95.3968 9.89695 96.0041 9.79053 96.6433 9.79053C97.2875 9.79053 97.8881 9.89864 98.4434 10.1132C98.9987 10.3294 99.4802 10.6317 99.8912 11.0236C100.302 11.4155 100.623 11.8834 100.854 12.429C101.087 12.9746 101.203 13.5743 101.203 14.2297C101.203 14.9003 101.081 15.5101 100.839 16.0591C100.596 16.6081 100.264 17.076 99.8442 17.4645C99.4231 17.853 98.9316 18.1537 98.3645 18.3665C97.7992 18.5794 97.1952 18.6858 96.5561 18.6858C95.9118 18.6858 95.3045 18.5777 94.7358 18.3632C94.1671 18.1469 93.6739 17.8463 93.2528 17.4561C92.8317 17.0676 92.5012 16.603 92.258 16.0625C92.0147 15.5219 91.8939 14.924 91.8939 14.2703ZM96.6114 17.1115C97.0342 17.1115 97.3982 17.0321 97.7019 16.8716C98.0055 16.7111 98.2555 16.5 98.4518 16.2365C98.6481 15.973 98.7923 15.6689 98.8846 15.3226C98.9769 14.9763 99.0239 14.6165 99.0239 14.2449C99.0239 13.8513 98.9735 13.4797 98.8729 13.1317C98.7722 12.7838 98.6195 12.4763 98.4166 12.2128C98.2136 11.9493 97.9586 11.7415 97.6516 11.5895C97.3445 11.4375 96.9822 11.3615 96.5644 11.3615C96.1366 11.3615 95.7692 11.4409 95.4656 11.6013C95.1619 11.7618 94.9137 11.9746 94.7241 12.2449C94.5345 12.5135 94.3936 12.826 94.3047 13.179C94.2141 13.5338 94.1705 13.9071 94.1705 14.3007C94.1705 14.679 94.2208 15.0388 94.3214 15.3784C94.4221 15.7179 94.5731 16.0169 94.7778 16.2719C94.9808 16.527 95.2358 16.7314 95.5394 16.8834C95.8414 17.0371 96.2004 17.1115 96.6114 17.1115Z" fill="white"/>
<path d="M30.2092 36.728H29.9005C29.1103 36.728 28.4745 36.0861 28.4745 35.2922C28.4745 34.4966 29.112 33.8564 29.9005 33.8564H30.2092C33.0964 33.8564 35.44 31.4966 35.44 28.5895V21.4071C35.44 18.505 33.0964 16.1402 30.2092 16.1402H29.9005C29.1103 16.1402 28.4745 15.4983 28.4745 14.7044C28.4745 13.9088 29.112 13.2686 29.9005 13.2686H30.2092C34.6649 13.2686 38.2937 16.9223 38.2937 21.4088V28.5912C38.2937 33.0743 34.67 36.728 30.2092 36.728Z" fill="white"/>
<path d="M30.2092 36.728H29.9005C29.1103 36.728 28.4745 36.0861 28.4745 35.2922C28.4745 34.4966 29.112 33.8564 29.9005 33.8564H30.2092C33.0964 33.8564 35.44 31.4966 35.44 28.5895V21.4071C35.44 18.505 33.0964 16.1402 30.2092 16.1402H29.9005C29.1103 16.1402 28.4745 15.4983 28.4745 14.7044C28.4745 13.9088 29.112 13.2686 29.9005 13.2686H30.2092C34.6649 13.2686 38.2937 16.9223 38.2937 21.4088V28.5912C38.2937 33.0743 34.67 36.728 30.2092 36.728Z" fill="white"/>
<path d="M24.1982 36.728H17.9456C17.1555 36.728 16.5197 36.0861 16.5197 35.2922V14.7027C16.5197 13.907 17.1572 13.2668 17.9456 13.2668H24.1982C24.9883 13.2668 25.6242 13.9087 25.6242 14.7027C25.6242 15.4983 24.9867 16.1385 24.1982 16.1385H19.3716V33.8547H24.1982C24.9883 33.8547 25.6242 34.4966 25.6242 35.2905C25.6242 36.0861 24.9883 36.728 24.1982 36.728Z" fill="white"/>
<path d="M24.1982 36.728H17.9456C17.1555 36.728 16.5197 36.0861 16.5197 35.2922V14.7027C16.5197 13.907 17.1572 13.2668 17.9456 13.2668H24.1982C24.9883 13.2668 25.6242 13.9087 25.6242 14.7027C25.6242 15.4983 24.9867 16.1385 24.1982 16.1385H19.3716V33.8547H24.1982C24.9883 33.8547 25.6242 34.4966 25.6242 35.2905C25.6242 36.0861 24.9883 36.728 24.1982 36.728Z" fill="white"/>
<path d="M49.9632 23.5608C48.4181 23.5608 47.1582 22.2923 47.1582 20.7365V12.9325C47.1582 7.65205 42.892 3.35645 37.6477 3.35645H29.9021C29.112 3.35645 28.4761 3.99834 28.4761 4.79226C28.4761 5.58617 29.1136 6.22807 29.9021 6.22807H37.6477C41.3184 6.22807 44.3046 9.23482 44.3046 12.9308V20.7348C44.3046 22.4257 45.0377 23.9426 46.202 24.9865C45.0276 26.0304 44.2811 27.5625 44.2811 29.2618V37.0659C44.2811 40.7618 41.2949 43.7686 37.6243 43.7686H29.9021C29.112 43.7686 28.4761 44.4105 28.4761 45.2044C28.4761 46 29.1136 46.6402 29.9021 46.6402H37.6192C42.8635 46.6402 47.1297 42.3446 47.1297 37.0642V29.2551C47.1297 27.6994 48.3896 26.4308 49.9347 26.4308H49.9582C50.7484 26.4308 51.3842 25.7889 51.3842 24.995C51.3842 24.2027 50.7517 23.5608 49.9632 23.5608Z" fill="white"/>
<path d="M24.2166 43.7672H16.476C12.8054 43.7672 9.8192 40.7604 9.8192 37.0645V29.2604C9.8192 27.5695 9.08607 26.0527 7.9218 25.0087C9.09614 23.9648 9.84268 22.4327 9.84268 20.7334V12.9327C9.84268 9.23678 12.8289 6.23002 16.4995 6.23002H24.1982C24.9883 6.23002 25.6242 5.58813 25.6242 4.79421C25.6242 4.00029 24.9867 3.3584 24.1982 3.3584H16.4995C11.2552 3.3584 6.98903 7.65401 6.98903 12.9344V20.7385C6.98903 22.2942 5.72913 23.5628 4.18403 23.5628H4.16054C3.37038 23.5628 2.73456 24.2047 2.73456 24.9986C2.73456 25.7925 3.37206 26.4344 4.16054 26.4344C5.70564 26.4344 6.96555 27.703 6.96555 29.2587V37.0628C6.96555 42.3432 11.2318 46.6388 16.476 46.6388H24.2183C25.0085 46.6388 25.6443 45.9969 25.6443 45.203C25.6443 44.4091 25.0068 43.7672 24.2166 43.7672Z" fill="white"/>
</svg>
