<svg width="116" height="50" viewBox="0 0 116 50" fill="none" xmlns="http://www.w3.org/2000/svg">
<path d="M52.607 23.7838H59.1701C65.5298 23.7838 69.3965 27.0777 69.3965 33.5473C69.3965 39.8649 65.3263 43.1926 59.1362 43.1926H52.607V23.7838ZM59.0514 40.2534C63.5965 40.2534 65.462 37.6352 65.462 33.3784C65.462 29.0034 63.4778 26.7061 59.0006 26.7061H56.3889V40.2534H59.0514Z" fill="white"/>
<path d="M84.9988 40.1014C83.8117 42.6014 81.2509 43.4629 78.6392 43.4629C74.145 43.4629 71.3129 40.473 71.3129 36.0474C71.3129 31.892 74.1959 28.6825 78.4865 28.6825C83.0994 28.6825 85.338 31.3683 85.338 36.8413H74.7895C74.7895 39.2399 76.1801 40.9967 78.7749 40.9967C80.3181 40.9967 81.5901 40.3717 82.3363 38.9359L84.9988 40.1014ZM81.9292 34.6115C81.8275 32.4663 80.5216 31.1487 78.5035 31.1487C76.3667 31.1487 75.1117 32.6521 74.8234 34.6115H81.9292Z" fill="white"/>
<path d="M89.6286 38.9528C90.1543 40.3379 91.6128 41.0136 93.1561 41.0136C94.2584 41.0136 95.6321 40.6758 95.6321 39.3244C95.6321 37.9055 94.0888 37.5677 92.3251 37.1961C90.0356 36.7231 87.4748 36.1656 87.4748 32.9731C87.4748 30.0508 90.2052 28.6656 92.783 28.6656C95.0385 28.6656 97.6333 29.5102 98.566 31.7569L96.0391 32.8379C95.4795 31.5711 94.0888 31.0981 92.9187 31.0981C91.7824 31.0981 90.697 31.5542 90.697 32.7028C90.697 34.0035 92.0877 34.2738 93.8175 34.6116C96.1409 35.0677 98.9222 35.5913 98.9222 38.9021C98.9222 42.2467 96.107 43.4292 93.1391 43.4292C90.6292 43.4292 87.9157 42.5846 87.0339 40.0339L89.6286 38.9528Z" fill="white"/>
<path d="M101.619 22.5676H105.027V35.1859L110.183 29.0034H113.931L108.267 35.5068L114.355 43.1926H110.42L105.011 36.267V43.1926H101.602V22.5676H101.619Z" fill="white"/>
<path d="M52.6409 17.6352L58.9158 8.61496H53.2854V6.84131H61.8667V7.71969L55.7444 16.74H61.6801V18.5136H52.6409V17.6352Z" fill="white"/>
<path d="M67.2257 9.79736C69.8374 9.79736 71.8386 11.6217 71.8386 14.2399C71.8386 16.9257 69.7357 18.6994 67.1409 18.6994C64.5293 18.6994 62.4263 16.892 62.4263 14.2906C62.4263 11.5879 64.648 9.79736 67.2257 9.79736ZM69.6339 14.2399C69.6339 12.669 68.8369 11.3514 67.1409 11.3514C65.4111 11.3514 64.7158 12.7197 64.7158 14.2906C64.7158 15.8109 65.5298 17.0947 67.1918 17.0947C68.9047 17.1116 69.6339 15.7433 69.6339 14.2399Z" fill="white"/>
<path d="M73.331 6.09802H75.383V11.3345C75.9427 10.2703 77.062 9.79735 78.2491 9.79735C80.3012 9.79735 81.3357 11.2332 81.3357 13.1757V18.5305H79.2667V13.3784C79.2667 12.1453 78.6222 11.4696 77.4351 11.4696C76.1123 11.4696 75.383 12.2805 75.383 13.4967V18.5136H73.331V6.09802Z" fill="white"/>
<path d="M87.4748 9.79736C90.0865 9.79736 92.0877 11.6217 92.0877 14.2399C92.0877 16.9257 89.9848 18.6994 87.39 18.6994C84.7783 18.6994 82.6754 16.892 82.6754 14.2906C82.6754 11.5879 84.8971 9.79736 87.4748 9.79736ZM89.883 14.2399C89.883 12.669 89.0859 11.3514 87.39 11.3514C85.6602 11.3514 84.9649 12.7197 84.9649 14.2906C84.9649 15.8109 85.7789 17.0947 87.4409 17.0947C89.1538 17.1116 89.883 15.7433 89.883 14.2399Z" fill="white"/>
<path d="M3.78189 49.4933C3.51054 49.4933 3.22224 49.4088 2.98481 49.2568C2.50996 48.9527 2.27253 48.3953 2.35733 47.8379L6.47838 22.6183C6.69885 21.2669 7.39417 20.0507 8.42867 19.1723C9.46318 18.294 10.8029 17.8041 12.1597 17.8041H29.1357L30.0854 12.0102H28.4912C27.779 12.0102 27.1176 11.7061 26.6597 11.1656C26.2018 10.625 25.9983 9.93247 26.117 9.2399L27.2024 2.53382C27.3889 1.36828 28.3895 0.523682 29.5766 0.523682H35.9024C37.5983 0.523682 39.1924 1.26692 40.2948 2.55071C41.3971 3.83449 41.872 5.52368 41.6006 7.19598L39.0567 22.8041C38.938 23.4798 38.548 24.0879 37.9544 24.4595L23.7427 33.1926C22.8778 33.7163 21.7755 33.6656 20.9784 33.0237L14.3643 27.7703C13.7369 27.2804 13.6351 26.3683 14.1439 25.7602C14.6357 25.1352 15.5515 25.0338 16.162 25.5406L22.5217 30.5913L36.2585 22.1115L38.7684 6.72301C38.9041 5.8953 38.6667 5.05071 38.124 4.40882C37.5813 3.76693 36.7842 3.3953 35.9363 3.3953H30.0176L29.0848 9.13855H30.662C31.3743 9.13855 32.0357 9.4426 32.4936 9.98314C32.9515 10.5237 33.155 11.2163 33.0363 11.9088L31.9339 18.6487C31.7474 19.8142 30.7468 20.6588 29.5597 20.6588H12.1597C10.7351 20.6588 9.54797 21.6723 9.31054 23.0744L5.69826 45.1858L10.769 42.0608C11.1421 41.8244 11.5831 41.7061 12.041 41.7061H30.6111C32.0357 41.7061 33.2228 40.6926 33.4603 39.2906L34.6135 32.2129C34.7491 31.4358 35.4784 30.8953 36.2585 31.0304C37.0386 31.1656 37.5813 31.8919 37.4456 32.669L36.2924 39.7467C36.0719 41.098 35.3766 42.3142 34.3421 43.1926C33.3076 44.071 31.9679 44.5608 30.6111 44.5608H12.1597L4.52809 49.2737C4.30762 49.4257 4.03627 49.4933 3.78189 49.4933Z" fill="white"/>
</svg>
