<svg width="179" height="50" viewBox="0 0 179 50" fill="none" xmlns="http://www.w3.org/2000/svg">
<path d="M64.5363 23.7821H77.431V26.7112H68.3003V31.9206H75.7221V34.6909H68.3003V40.2585H77.8819V43.1875H64.5363V23.7821Z" fill="white"/>
<path d="M84.2144 35.9122L79.5891 28.9933H83.5119L86.4671 33.5541L89.3817 28.9933H92.9195L88.3213 35.674L93.4093 43.1909H89.4594L86.1733 38.0879L82.7807 43.1909H79.2429L84.2144 35.9122Z" fill="white"/>
<path d="M95.7819 28.9916H99.1744V31.2855C100.156 29.6284 102.143 28.6875 104.038 28.6875C108.371 28.6875 110.465 32.174 110.465 36.0439C110.465 40.0338 108.239 43.4544 104.131 43.4544C102.143 43.4544 100.129 42.6588 99.1744 40.9628V48.0541H95.7819V28.9916ZM106.968 35.9645C106.968 33.5659 105.775 31.3378 102.993 31.3378C100.196 31.3378 99.0562 33.5777 99.0562 36.1368C99.0562 38.7753 100.275 40.8024 103.097 40.8024C106.093 40.8024 106.968 38.576 106.968 35.9645Z" fill="white"/>
<path d="M125.93 40.0996C124.751 42.6047 122.206 43.4527 119.596 43.4527C115.116 43.4527 112.294 40.4561 112.294 36.0422C112.294 31.88 115.17 28.6858 119.437 28.6858C124.022 28.6858 126.263 31.3632 126.263 36.8378H115.754C115.754 39.2365 117.145 40.9865 119.729 40.9865C121.266 40.9865 122.539 40.3632 123.28 38.9189L125.93 40.0996ZM122.882 34.6115C122.775 32.4645 121.477 31.152 119.476 31.152C117.343 31.152 116.097 32.6503 115.805 34.6115H122.882Z" fill="white"/>
<path d="M128.99 28.9915H132.382V31.2449C133.298 29.4949 135.204 28.6858 137.18 28.6858C140.586 28.6858 142.123 31.0844 142.123 34.3057V43.1875H138.678V34.6368C138.678 32.6486 137.789 31.4814 135.775 31.4814C133.642 31.4814 132.382 32.8074 132.382 34.848V43.1858H128.99V28.9915Z" fill="white"/>
<path d="M147.185 38.9594C147.716 40.3513 149.159 41.0135 150.698 41.0135C151.797 41.0135 153.163 40.6689 153.163 39.3294C153.163 37.9104 151.627 37.5794 149.877 37.2077C147.597 36.7297 145.041 36.1739 145.041 32.9915C145.041 30.076 147.758 28.6841 150.328 28.6841C152.581 28.6841 155.151 29.5321 156.08 31.7736L153.562 32.8598C153.004 31.5996 151.613 31.1233 150.448 31.1233C149.321 31.1233 148.234 31.5743 148.234 32.728C148.234 34.027 149.625 34.3057 151.334 34.6368C153.653 35.0878 156.411 35.6182 156.411 38.9324C156.411 42.2736 153.614 43.4527 150.659 43.4527C148.155 43.4527 145.465 42.6047 144.576 40.0591L147.185 38.9594Z" fill="white"/>
<path d="M171.793 40.0996C170.614 42.6047 168.069 43.4527 165.458 43.4527C160.978 43.4527 158.157 40.4561 158.157 36.0422C158.157 31.88 161.032 28.6858 165.3 28.6858C169.884 28.6858 172.125 31.3632 172.125 36.8378H161.617C161.617 39.2365 163.008 40.9865 165.592 40.9865C167.129 40.9865 168.402 40.3632 169.143 38.9189L171.793 40.0996ZM168.745 34.6115C168.638 32.4645 167.34 31.152 165.339 31.152C163.206 31.152 161.96 32.6503 161.667 34.6115H168.745Z" fill="white"/>
<path d="M64.5616 17.6401L70.8046 8.61646H65.1931V6.83606H73.7429V7.72288L67.6519 16.7465H73.5673V18.5269H64.5633V17.6401H64.5616Z" fill="white"/>
<path d="M79.0909 9.79053C81.6847 9.79053 83.6808 11.6115 83.6808 14.2297C83.6808 16.9206 81.5817 18.6858 79.0031 18.6858C76.4009 18.6858 74.3086 16.8817 74.3086 14.2703C74.3086 11.5861 76.5208 9.79053 79.0909 9.79053ZM81.4855 14.2449C81.4855 12.6723 80.6867 11.3632 79.0116 11.3632C77.2874 11.3632 76.6001 12.7365 76.6001 14.3024C76.6001 15.8192 77.4056 17.1132 79.0588 17.1132C80.7678 17.1115 81.4855 15.7382 81.4855 14.2449Z" fill="white"/>
<path d="M85.1736 6.10132H87.2169V11.331C87.7674 10.2685 88.8937 9.79051 90.0741 9.79051C92.1174 9.79051 93.1391 11.228 93.1391 13.1756V18.5253H91.0789V13.375C91.0789 12.1452 90.4406 11.4746 89.25 11.4746C87.9413 11.4746 87.2152 12.2804 87.2152 13.5033V18.5253H85.1719V6.10132H85.1736Z" fill="white"/>
<path d="M99.2471 9.79053C101.841 9.79053 103.837 11.6115 103.837 14.2297C103.837 16.9206 101.738 18.6858 99.1592 18.6858C96.557 18.6858 94.4647 16.8817 94.4647 14.2703C94.4664 11.5861 96.6769 9.79053 99.2471 9.79053ZM101.642 14.2449C101.642 12.6723 100.843 11.3632 99.1677 11.3632C97.4435 11.3632 96.7563 12.7365 96.7563 14.3024C96.7563 15.8192 97.5618 17.1132 99.215 17.1132C100.924 17.1115 101.642 15.7382 101.642 14.2449Z" fill="white"/>
<path d="M45.1249 48.6925C41.354 48.6925 37.6896 47.3479 34.525 44.8023C34.2211 44.5574 33.7803 44.581 33.5034 44.8564L30.7289 47.6317C29.3188 49.0388 27.0357 49.0388 25.6257 47.6317L22.9474 44.9527C22.6485 44.6537 22.1639 44.6537 21.865 44.9527L19.1547 47.6587C17.7767 49.0354 15.5443 49.0354 14.168 47.657C14.1241 47.6114 14.0802 47.5658 14.038 47.5185C3.7691 36.076 1.74944 19.4307 8.98375 5.86143C10.4782 3.05569 13.3996 1.304 16.5777 1.30738H43.1981C45.8932 1.30738 48.433 3.09454 50.3496 6.34116C52.0873 9.28204 53.2525 13.3158 53.6341 17.6993C53.8435 20.0692 52.094 22.1604 49.7248 22.3699C49.5982 22.3817 49.4732 22.3868 49.3466 22.3868H35.5213C35.5551 23.1925 35.6176 23.9915 35.702 24.7736C35.702 24.7939 35.7054 24.8124 35.7071 24.8327C35.8692 27.2111 36.3167 29.5608 37.0428 31.831C37.7352 33.9746 38.6606 35.9442 39.7954 37.6925C40.9116 39.4104 42.2018 40.8665 43.6287 42.0219C45.0556 43.1773 46.594 44.005 48.1949 44.4797C49.2739 44.7989 49.8886 45.9324 49.5695 47.0101C49.3516 47.7483 48.7369 48.2989 47.9804 48.4374C47.0381 48.6064 46.0823 48.6925 45.1249 48.6925ZM16.5777 4.17731C14.4584 4.17562 12.5114 5.34285 11.5151 7.21278C4.84142 19.7162 6.70403 35.0608 16.1741 45.603C16.4156 45.8733 16.831 45.8952 17.1012 45.6537C17.1097 45.6452 17.1198 45.6368 17.1282 45.6283L19.8335 42.9222C21.2537 41.505 23.5537 41.505 24.9739 42.9222L27.6538 45.603C27.9425 45.8918 28.4103 45.8918 28.7008 45.603L31.4753 42.8276C32.7857 41.5118 34.878 41.4003 36.3235 42.5658C38.6623 44.4476 41.3084 45.5439 44.034 45.7753C43.2589 45.3243 42.5209 44.8141 41.8252 44.2499C40.1635 42.9053 38.669 41.2246 37.389 39.2533C34.7935 35.2601 33.223 30.353 32.8465 25.0608C32.6962 23.6942 32.6202 22.3209 32.6219 20.9476C32.6219 15.8648 33.6266 11.0641 35.4521 7.429C36.0921 6.15535 36.8115 5.06582 37.5934 4.17562L16.5777 4.17731ZM35.5213 19.5151H49.3482C50.1419 19.5135 50.7836 18.8699 50.7836 18.076C50.7836 18.0337 50.7819 17.9915 50.7786 17.9493C50.4341 13.9847 49.4057 10.38 47.8825 7.80231C46.5028 5.46616 44.8395 4.179 43.2015 4.179C42.3149 4.179 41.4283 4.54724 40.5671 5.2719C39.6417 6.05231 38.7602 7.24488 38.0189 8.72123C36.5565 11.6266 35.6851 15.4155 35.5213 19.5151Z" fill="white"/>
<path d="M25.4484 22.3851H14.8097C14.0177 22.3851 13.3743 21.7432 13.3743 20.9492C13.3743 20.157 14.016 19.5134 14.8097 19.5134H25.4484C26.2404 19.5134 26.8838 20.1553 26.8838 20.9492C26.8838 21.7415 26.2404 22.3851 25.4484 22.3851Z" fill="white"/>
<path d="M20.2506 29.5624H15.112C14.32 29.5624 13.6766 28.9205 13.6766 28.1266C13.6766 27.3327 14.3183 26.6908 15.112 26.6908H20.2506C21.0426 26.6908 21.686 27.3327 21.686 28.1266C21.686 28.9205 21.0426 29.5624 20.2506 29.5624Z" fill="white"/>
<path d="M26.1171 15.2111H16.1015C15.3095 15.2111 14.6661 14.5692 14.6661 13.7753C14.6661 12.9814 15.3078 12.3395 16.1015 12.3395H26.1188C26.9108 12.3395 27.5541 12.9814 27.5541 13.7753C27.5541 14.5692 26.9108 15.2111 26.1171 15.2111Z" fill="white"/>
</svg>
