<svg width="122" height="50" viewBox="0 0 122 50" fill="none" xmlns="http://www.w3.org/2000/svg">
<path d="M60.9459 23.7838H73.7289V26.7129H64.7124V32.4392H71.8989V35.2889H64.7124V43.1892H60.9459V23.7838Z" fill="white"/>
<path d="M76.3683 23.2398L79.763 21.7686V43.1892H76.3683V23.2398Z" fill="white"/>
<path d="M82.1878 36.1233C82.1878 35.0101 82.4024 33.9966 82.8316 33.0811C83.2608 32.1672 83.837 31.3851 84.5619 30.7348C85.2868 30.0861 86.1283 29.5811 87.0881 29.223C88.0479 28.8648 89.0617 28.6858 90.1313 28.6858C91.2094 28.6858 92.2131 28.8648 93.1408 29.223C94.0684 29.5811 94.8761 30.0844 95.5605 30.7348C96.2448 31.3851 96.7822 32.1621 97.1708 33.0675C97.5595 33.973 97.7538 34.9696 97.7538 36.0574C97.7538 37.1706 97.551 38.1824 97.1438 39.0929C96.7366 40.0034 96.1823 40.7804 95.4794 41.4257C94.7764 42.0709 93.9518 42.5709 93.0073 42.924C92.061 43.277 91.0539 43.4544 89.9843 43.4544C88.9063 43.4544 87.8907 43.2753 86.9411 42.9172C85.9914 42.5591 85.1651 42.0574 84.4622 41.4121C83.7593 40.7669 83.205 39.9966 82.7978 39.0996C82.3923 38.2027 82.1878 37.2111 82.1878 36.1233ZM90.0789 40.8429C90.7869 40.8429 91.3936 40.7111 91.9022 40.4459C92.4108 40.1807 92.8282 39.8294 93.156 39.3919C93.4821 38.9544 93.7237 38.4493 93.8792 37.8733C94.0346 37.299 94.1107 36.7027 94.1107 36.0844C94.1107 35.4307 94.0262 34.8142 93.8589 34.2348C93.6899 33.6554 93.4365 33.1486 93.0968 32.7111C92.7572 32.2736 92.3297 31.929 91.8177 31.6773C91.304 31.4257 90.6991 31.299 90.0012 31.299C89.2848 31.299 88.6731 31.4324 88.1645 31.6959C87.6558 31.9611 87.2435 32.3175 86.9242 32.7635C86.6065 33.2094 86.3716 33.7263 86.2212 34.3142C86.0709 34.902 85.9965 35.5219 85.9965 36.1773C85.9965 36.804 86.081 37.402 86.2483 37.9662C86.4156 38.5321 86.6707 39.027 87.0103 39.451C87.35 39.875 87.7741 40.2128 88.2827 40.4645C88.7897 40.7162 89.3895 40.8429 90.0789 40.8429Z" fill="white"/>
<path d="M98.6831 28.9932H102.289L105.206 39.1739L108.242 28.9932H111.066L113.93 39.1739L116.9 28.9932H120.216L115.667 43.1891H112.22L109.541 33.7111L106.625 43.1891H103.151L98.6831 28.9932Z" fill="white"/>
<path d="M60.973 17.6401L67.22 8.61646H61.6049V6.83606H70.1601V7.72288L64.0652 16.7465H69.9844V18.5269H60.9747V17.6401H60.973Z" fill="white"/>
<path d="M70.7262 14.2703C70.7262 13.5996 70.8546 12.9882 71.1132 12.4375C71.3717 11.8868 71.7181 11.4155 72.1557 11.0236C72.5917 10.6317 73.0986 10.3294 73.6765 10.1132C74.2544 9.89695 74.8661 9.79053 75.5099 9.79053C76.1587 9.79053 76.7637 9.89864 77.323 10.1132C77.8823 10.3294 78.3673 10.6317 78.7812 11.0236C79.1952 11.4155 79.518 11.8834 79.7512 12.429C79.986 12.9746 80.1026 13.5743 80.1026 14.2297C80.1026 14.9003 79.9793 15.5101 79.7359 16.0591C79.4909 16.6081 79.1564 17.076 78.7339 17.4645C78.3098 17.853 77.8147 18.1537 77.2436 18.3665C76.6741 18.5794 76.0658 18.6858 75.422 18.6858C74.7732 18.6858 74.1615 18.5777 73.5886 18.3632C73.0158 18.1469 72.519 17.8463 72.0949 17.4561C71.6708 17.0676 71.3379 16.603 71.0929 16.0625C70.8496 15.5219 70.7262 14.924 70.7262 14.2703ZM75.4795 17.1115C75.9053 17.1115 76.272 17.0321 76.5778 16.8716C76.8836 16.7111 77.1354 16.5 77.3331 16.2365C77.5308 15.973 77.6761 15.6689 77.7691 15.3226C77.862 14.9763 77.9093 14.6165 77.9093 14.2449C77.9093 13.8513 77.8586 13.4797 77.7573 13.1317C77.6559 12.7838 77.5021 12.4763 77.2976 12.2128C77.0932 11.9493 76.8363 11.7415 76.5271 11.5895C76.2179 11.4375 75.8529 11.3615 75.4322 11.3615C75.0013 11.3615 74.6312 11.4409 74.3254 11.6013C74.0195 11.7618 73.7694 11.9746 73.5785 12.2449C73.3876 12.5135 73.2456 12.826 73.1561 13.179C73.0648 13.5338 73.0209 13.9071 73.0209 14.3007C73.0209 14.679 73.0716 15.0388 73.173 15.3784C73.2743 15.7179 73.4264 16.0169 73.6326 16.2719C73.837 16.527 74.0939 16.7314 74.3997 16.8834C74.7022 17.0371 75.0638 17.1115 75.4795 17.1115Z" fill="white"/>
<path d="M81.598 6.10132H83.6426V11.331C83.7812 11.0642 83.9519 10.8344 84.158 10.6402C84.3625 10.4459 84.5889 10.2854 84.8373 10.1604C85.084 10.0354 85.351 9.94253 85.6365 9.88172C85.9221 9.82091 86.2111 9.79051 86.5034 9.79051C87.0154 9.79051 87.4615 9.87497 87.8451 10.0456C88.2286 10.2162 88.548 10.451 88.8031 10.7517C89.0583 11.0523 89.2509 11.4088 89.3777 11.8209C89.5061 12.2331 89.5686 12.6841 89.5686 13.174V18.5236H87.5071V13.375C87.5071 12.7567 87.3516 12.2854 87.039 11.9611C86.7264 11.6368 86.2736 11.4746 85.6771 11.4746C85.0164 11.4746 84.5129 11.6588 84.1631 12.0304C83.8133 12.402 83.6393 12.8919 83.6393 13.5033V18.5253H81.5947V6.10132H81.598Z" fill="white"/>
<path d="M90.8951 14.2703C90.8951 13.5996 91.0235 12.9882 91.282 12.4375C91.5406 11.8868 91.887 11.4155 92.3246 11.0236C92.7606 10.6317 93.2675 10.3294 93.8454 10.1132C94.4233 9.89695 95.035 9.79053 95.6788 9.79053C96.3276 9.79053 96.9326 9.89864 97.4919 10.1132C98.0512 10.3294 98.5361 10.6317 98.9501 11.0236C99.3641 11.4155 99.6869 11.8834 99.92 12.429C100.155 12.9746 100.272 13.5743 100.272 14.2297C100.272 14.9003 100.148 15.5101 99.9048 16.0591C99.6598 16.6081 99.3252 17.076 98.9028 17.4645C98.4787 17.853 97.9836 18.1537 97.4125 18.3665C96.843 18.5794 96.2347 18.6858 95.5909 18.6858C94.942 18.6858 94.3303 18.5777 93.7575 18.3632C93.1847 18.1469 92.6879 17.8463 92.2638 17.4561C91.8397 17.0676 91.5068 16.603 91.2618 16.0625C91.0184 15.5219 90.8951 14.924 90.8951 14.2703ZM95.6484 17.1115C96.0742 17.1115 96.4408 17.0321 96.7467 16.8716C97.0525 16.7111 97.3043 16.5 97.502 16.2365C97.6997 15.973 97.845 15.6689 97.938 15.3226C98.0309 14.9763 98.0782 14.6165 98.0782 14.2449C98.0782 13.8513 98.0275 13.4797 97.9261 13.1317C97.8248 12.7838 97.671 12.4763 97.4665 12.2128C97.2621 11.9493 97.0052 11.7415 96.696 11.5895C96.3868 11.4375 96.0218 11.3615 95.601 11.3615C95.1702 11.3615 94.8001 11.4409 94.4942 11.6013C94.1884 11.7618 93.9383 11.9746 93.7474 12.2449C93.5564 12.5135 93.4145 12.826 93.3249 13.179C93.2337 13.5338 93.1898 13.9071 93.1898 14.3007C93.1898 14.679 93.2405 15.0388 93.3418 15.3784C93.4432 15.7179 93.5953 16.0169 93.8015 16.2719C94.0059 16.527 94.2628 16.7314 94.5686 16.8834C94.8728 17.0371 95.2327 17.1115 95.6484 17.1115Z" fill="white"/>
<path d="M11.1523 41.4308C10.6555 41.4308 10.174 41.174 9.90699 40.7129L1.24701 25.718C0.990172 25.2737 0.990172 24.7264 1.24701 24.2821L12.7796 4.31593C13.0364 3.87167 13.5095 3.59802 14.0232 3.59802H37.0883C37.7659 3.59802 38.3573 4.06931 38.4993 4.73316C38.6395 5.39532 38.3032 6.06255 37.6865 6.33789C37.6003 6.37843 35.6317 7.33282 33.4165 9.72978C32.0951 11.1588 30.9461 12.8159 29.9964 14.6555C29.0485 16.4933 28.2999 18.5186 27.7643 20.6977L31.725 20.6943C31.725 20.6943 31.725 20.6943 31.7267 20.6943C32.5192 20.6943 33.1613 21.3362 33.163 22.1284C33.163 22.9207 32.5209 23.5642 31.7284 23.5642L25.9867 23.5676C25.9867 23.5676 25.9867 23.5676 25.985 23.5676C25.5575 23.5676 25.1519 23.3767 24.8799 23.0473C24.6078 22.718 24.4946 22.2838 24.574 21.8649C25.1705 18.718 26.1556 15.8142 27.5024 13.2315C28.5872 11.1504 29.9086 9.2737 31.4293 7.65377C31.8383 7.21796 32.2421 6.82268 32.6308 6.46627H14.8512L4.14832 25L12.396 39.2788C12.7931 39.9646 12.5565 40.843 11.8705 41.2399C11.6441 41.37 11.3973 41.4308 11.1523 41.4308Z" fill="white"/>
<path d="M37.0883 46.4021H14.0232C13.3457 46.4021 12.7542 45.9308 12.6123 45.2669C12.4721 44.6048 12.8083 43.9376 13.4251 43.6622C13.5062 43.6234 15.4764 42.669 17.6951 40.2703C19.0148 38.8413 20.1655 37.1842 21.1151 35.3463C22.0631 33.5085 22.8116 31.4832 23.349 29.3058H19.3882C18.5957 29.3058 17.9519 28.6639 17.9519 27.87C17.9519 27.0778 18.594 26.4342 19.3882 26.4342H25.13C25.5575 26.4342 25.963 26.625 26.2351 26.9544C26.5071 27.2838 26.6203 27.718 26.5392 28.1369C25.9427 31.2821 24.9576 34.1859 23.6109 36.7669C22.5261 38.848 21.2047 40.7247 19.6839 42.3446C19.275 42.7805 18.8728 43.1757 18.4842 43.5305H36.2587L46.9632 25L38.724 10.7332C38.3286 10.0473 38.5635 9.16897 39.2495 8.77201C39.9356 8.37505 40.8142 8.61153 41.2113 9.29734L49.8662 24.2805C50.1231 24.7247 50.1231 25.272 49.8662 25.7163L38.3337 45.6825C38.0752 46.1284 37.602 46.4021 37.0883 46.4021Z" fill="white"/>
</svg>
