<svg width="135" height="50" viewBox="0 0 135 50" fill="none" xmlns="http://www.w3.org/2000/svg">
<path d="M55.2211 23.7838H68.0597V26.7061H59.0031V32.4325H66.211V35.2872H59.0031V43.1926H55.2211V23.7838Z" fill="white"/>
<path d="M76.3869 28.6825C80.7117 28.6825 84.0358 31.7061 84.0358 36.0474C84.0358 40.5068 80.5421 43.446 76.2343 43.446C71.8926 43.446 68.4158 40.4561 68.4158 36.1149C68.4158 31.6724 72.0961 28.6825 76.3869 28.6825ZM80.3725 36.0811C80.3725 33.4629 79.0496 31.3007 76.2512 31.3007C73.3681 31.3007 72.2318 33.5811 72.2318 36.1825C72.2318 38.6994 73.5716 40.8447 76.336 40.8447C79.1853 40.8447 80.3725 38.5643 80.3725 36.0811Z" fill="white"/>
<path d="M86.5289 28.9865H89.9378V31.6554C90.9045 29.7129 92.4479 28.7838 94.6187 28.7838V31.9257C91.8712 31.9257 89.9378 32.821 89.9378 35.8615V43.1926H86.5289V28.9865Z" fill="white"/>
<path d="M97.3153 28.9865H100.724V31.1656C101.572 29.5271 103.302 28.6825 105.151 28.6825C106.915 28.6825 108.628 29.4595 109.289 31.2163C110.374 29.5947 112.24 28.6825 114.275 28.6825C117.548 28.6825 119.092 31.0643 119.092 34.1893V43.1757H115.7V34.392C115.7 32.6183 114.801 31.4697 112.986 31.4697C111.002 31.4697 109.933 32.8379 109.933 34.6791V43.1757H106.508V34.392C106.508 32.6183 105.609 31.4697 103.777 31.4697C101.81 31.4697 100.724 32.8379 100.724 34.6791V43.1757H97.3153V28.9865Z" fill="white"/>
<path d="M124.197 38.9527C124.722 40.3378 126.181 41.0135 127.724 41.0135C128.827 41.0135 130.2 40.6757 130.2 39.3243C130.2 37.9054 128.657 37.5676 126.893 37.1959C124.604 36.723 122.043 36.1655 122.043 32.973C122.043 30.0507 124.773 28.6655 127.351 28.6655C129.607 28.6655 132.202 29.5101 133.134 31.7567L130.607 32.8378C130.048 31.5709 128.657 31.098 127.487 31.098C126.35 31.098 125.265 31.554 125.265 32.7027C125.265 34.0034 126.656 34.2736 128.386 34.6115C130.709 35.0676 133.491 35.5912 133.491 38.902C133.491 42.2466 130.675 43.429 127.707 43.429C125.197 43.429 122.484 42.5844 121.602 40.0338L124.197 38.9527Z" fill="white"/>
<path d="M55.255 17.6352L61.5301 8.61496H55.8995V6.84131H64.4812V7.71969L58.3587 16.74H64.2946V18.5136H55.255V17.6352Z" fill="white"/>
<path d="M69.8405 9.79736C72.4523 9.79736 74.4535 11.6217 74.4535 14.2399C74.4535 16.9257 72.3505 18.6994 69.7557 18.6994C67.1438 18.6994 65.0408 16.892 65.0408 14.2906C65.0408 11.5879 67.2626 9.79736 69.8405 9.79736ZM72.2487 14.2399C72.2487 12.669 71.4516 11.3514 69.7557 11.3514C68.0258 11.3514 67.3304 12.7197 67.3304 14.2906C67.3304 15.8109 68.1445 17.0947 69.8065 17.0947C71.5195 17.1116 72.2487 15.7433 72.2487 14.2399Z" fill="white"/>
<path d="M75.946 6.09802H77.9981V11.3345C78.5578 10.2703 79.6771 9.79735 80.8643 9.79735C82.9334 9.79735 83.951 11.2332 83.951 13.1757V18.5305H81.8819V13.3784C81.8819 12.1453 81.2374 11.4696 80.0503 11.4696C78.7274 11.4696 77.9981 12.2805 77.9981 13.4967V18.5136H75.946V6.09802Z" fill="white"/>
<path d="M90.0905 9.79736C92.7023 9.79736 94.7035 11.6217 94.7035 14.2399C94.7035 16.9257 92.6005 18.6994 90.0057 18.6994C87.3939 18.6994 85.2908 16.892 85.2908 14.2906C85.2908 11.5879 87.4956 9.79736 90.0905 9.79736ZM92.4818 14.2399C92.4818 12.669 91.6847 11.3514 89.9887 11.3514C88.2588 11.3514 87.5634 12.7197 87.5634 14.2906C87.5634 15.8109 88.3775 17.0947 90.0396 17.0947C91.7695 17.1116 92.4818 15.7433 92.4818 14.2399Z" fill="white"/>
<path d="M38.9058 0.506714H6.61432C3.64635 0.506714 1.23806 2.90536 1.2211 5.86144V44.1216C1.23806 47.0946 3.64635 49.4932 6.61432 49.4932H10.7186C11.5157 49.4932 12.1602 48.8513 12.1602 48.0574V37.2297H22.8109C25.7789 37.2297 28.1872 34.831 28.1872 31.875V26.8581C28.1872 26.0641 27.5427 25.4223 26.7456 25.4223H14.6533C11.6853 25.4223 9.277 27.8209 9.277 30.777V35.6925V35.777V46.6216H6.59736C5.22361 46.6216 4.10427 45.5067 4.10427 44.1385V5.86144C4.10427 4.4932 5.22361 3.37834 6.59736 3.37834H38.8888C40.2626 3.37834 41.3819 4.4932 41.3819 5.86144V44.1216C41.3819 45.4898 40.2626 46.6047 38.8888 46.6047H16.4849C15.6878 46.6047 15.0433 47.2466 15.0433 48.0405C15.0433 48.8344 15.6878 49.4763 16.4849 49.4763H38.9058C41.8737 49.4763 44.282 47.0777 44.282 44.1216V5.86144C44.282 2.90536 41.8737 0.506714 38.9058 0.506714ZM12.1602 30.7939C12.1602 29.4256 13.2795 28.3108 14.6533 28.3108H25.304V31.875C25.304 33.2432 24.1847 34.3581 22.8109 34.3581H12.1602V30.7939Z" fill="white"/>
<path d="M36.2261 9.93239C36.2261 9.13847 35.5817 8.49658 34.7845 8.49658H14.6533C11.6853 8.49658 9.27701 10.8952 9.27701 13.8513V18.8513C9.27701 19.6452 9.92148 20.2871 10.7186 20.2871H30.8499C33.8178 20.2871 36.2261 17.8885 36.2261 14.9324V9.93239ZM33.343 14.9324C33.343 16.3006 32.2236 17.4155 30.8499 17.4155H12.1602V13.8513C12.1602 12.4831 13.2795 11.3682 14.6533 11.3682H33.343V14.9324Z" fill="white"/>
</svg>
