<svg width="133" height="50" viewBox="0 0 133 50" fill="none" xmlns="http://www.w3.org/2000/svg">
<path d="M61.0375 23.7837H64.8205V40.2533H73.4384V43.1756H61.0375V23.7837Z" fill="white"/>
<path d="M88.5366 40.1013C87.3491 42.6013 84.7875 43.4628 82.175 43.4628C77.6795 43.4628 74.8464 40.4729 74.8464 36.0472C74.8464 31.8918 77.7303 28.6824 82.0223 28.6824C86.6366 28.6824 88.8759 31.3682 88.8759 36.8412H78.3241C78.3241 39.2398 79.7152 40.9966 82.3107 40.9966C83.8545 40.9966 85.1268 40.3716 85.8732 38.9358L88.5366 40.1013ZM85.483 34.6114C85.3812 32.4662 84.075 31.1486 82.0562 31.1486C79.9187 31.1486 78.6634 32.652 78.375 34.6114H85.483Z" fill="white"/>
<path d="M99.8518 41.4526C98.7661 42.8884 97.1884 43.4458 95.4241 43.4458C92.7437 43.4458 90.6402 42.0945 90.6402 39.3073C90.6402 35.3715 94.8134 34.7465 98.1384 34.7465H99.8179V34.5269C99.8179 32.4999 99.3428 31.2161 97.0357 31.2161C95.6446 31.2161 94.3723 31.9256 93.8634 33.2431L91.217 32.1114C92.167 29.6114 94.8303 28.6992 97.375 28.6992C100.751 28.6992 103.194 30.3208 103.194 33.9188V43.1925H99.8348V41.4526H99.8518ZM98.1045 36.8411C96.5268 36.8411 94.033 37.0269 94.033 39.1722C94.033 40.5404 95.0339 41.0472 96.3062 41.0472C98.0366 41.0472 99.8179 40.1519 99.8179 38.2262V36.8411H98.1045Z" fill="white"/>
<path d="M106.807 28.9864H110.217V31.6553C111.184 29.7127 112.728 28.7837 114.899 28.7837V31.9256C112.151 31.9256 110.217 32.8209 110.217 35.8614V43.1925H106.807V28.9864Z" fill="white"/>
<path d="M117.596 28.9864H121.006V31.2499C121.922 29.4931 123.839 28.6992 125.824 28.6992C129.251 28.6992 130.795 31.0979 130.795 34.3242V43.2094H127.334V34.6621C127.334 32.6688 126.435 31.5033 124.416 31.5033C122.279 31.5033 121.006 32.8208 121.006 34.8648V43.2094H117.596V28.9864Z" fill="white"/>
<path d="M61.0545 17.635L67.3312 8.61471H61.6991V6.84106H70.283V7.71944L64.1589 16.7397H70.0964V18.5134H61.0545V17.635Z" fill="white"/>
<path d="M75.6607 9.79712C78.2732 9.79712 80.275 11.6214 80.275 14.2397C80.275 16.9255 78.1714 18.6991 75.5759 18.6991C72.9634 18.6991 70.8598 16.8917 70.8598 14.2904C70.8598 11.5877 73.0821 9.79712 75.6607 9.79712ZM78.0696 14.2397C78.0696 12.6687 77.2723 11.3512 75.5759 11.3512C73.8455 11.3512 73.15 12.7194 73.15 14.2904C73.15 15.8106 73.9643 17.0944 75.6268 17.0944C77.3402 17.1113 78.0696 15.7431 78.0696 14.2397Z" fill="white"/>
<path d="M81.7679 6.0979H83.8205V11.3344C84.3804 10.2702 85.5 9.79723 86.6875 9.79723C88.7402 9.79723 89.775 11.233 89.775 13.1756V18.5303H87.7054V13.3783C87.7054 12.1452 87.0607 11.4695 85.8732 11.4695C84.55 11.4695 83.8205 12.2803 83.8205 13.4965V18.5134H81.7679V6.0979Z" fill="white"/>
<path d="M95.8991 9.79712C98.5116 9.79712 100.513 11.6214 100.513 14.2397C100.513 16.9255 98.4098 18.6991 95.8143 18.6991C93.2018 18.6991 91.0982 16.8917 91.0982 14.2904C91.0982 11.5877 93.3205 9.79712 95.8991 9.79712ZM98.308 14.2397C98.308 12.6687 97.5107 11.3512 95.8143 11.3512C94.0839 11.3512 93.3884 12.7194 93.3884 14.2904C93.3884 15.8106 94.2027 17.0944 95.8652 17.0944C97.5955 17.1113 98.308 15.7431 98.308 14.2397Z" fill="white"/>
<path d="M45.7866 14.7635C45.5491 14.7635 45.2947 14.6959 45.0741 14.5776L26.2268 3.74994C25.7857 3.49656 25.2259 3.49656 24.7679 3.74994L12.3161 10.9121C11.6375 11.3006 10.7554 11.0641 10.3652 10.3885C9.97501 9.71278 10.2125 8.8344 10.8911 8.44589L23.3598 1.28372C24.7 0.523589 26.3455 0.523589 27.6857 1.28372L46.533 12.1114C47.2116 12.4999 47.4491 13.3783 47.0589 14.054C46.7536 14.5101 46.2786 14.7635 45.7866 14.7635Z" fill="white"/>
<path d="M25.4973 49.3073C24.7509 49.3073 24.0045 49.1215 23.3429 48.7329L5.93752 38.733C4.59734 37.9728 3.78305 36.537 3.78305 34.9998V21.0302C3.78305 20.2363 4.42769 19.6113 5.20805 19.6113C5.98841 19.6113 6.63305 20.2532 6.63305 21.0302V34.9998C6.63305 35.5235 6.90448 35.9965 7.36252 36.2498L24.7679 46.2498C25.2089 46.5032 25.7688 46.5032 26.2268 46.2498L43.6322 36.2498C44.0732 35.9965 44.3616 35.5066 44.3616 34.9998V26.8411C44.3616 26.0471 45.0063 25.4221 45.7866 25.4221C46.567 25.4221 47.2116 26.064 47.2116 26.8411V34.9998C47.2116 36.537 46.3804 37.9559 45.0572 38.733L27.6518 48.7329C26.9902 49.1046 26.2438 49.3073 25.4973 49.3073Z" fill="white"/>
<path d="M49.6545 12.0776C49.3661 11.8073 48.9929 11.6553 48.6027 11.6722C43.8696 11.8411 39.3232 12.9728 35.0821 15.0506C31.4688 16.8242 28.2625 19.1722 25.4973 22.0945C22.7491 19.1891 19.5259 16.8242 15.9125 15.0506C11.6714 12.9728 7.125 11.8411 2.39197 11.6722C2.00179 11.6553 1.61161 11.8073 1.34018 12.0776C1.05179 12.3478 0.899109 12.7195 0.899109 13.108V20.5911C0.899109 21.3174 1.45893 21.9424 2.18839 22.0269C6.71786 22.5168 10.9929 23.9864 14.8607 26.3681C18.5929 28.6654 21.85 31.8073 24.2929 35.456C24.3437 35.5235 24.3946 35.5911 24.4625 35.6587L24.4795 35.6756C24.4964 35.6924 24.5304 35.7262 24.5643 35.7431C24.5813 35.76 24.5813 35.76 24.5982 35.7769C24.6152 35.7938 24.6491 35.8107 24.6661 35.8276C24.683 35.8445 24.7 35.8445 24.717 35.8614C24.7339 35.8783 24.7679 35.8951 24.7848 35.912C24.8018 35.9289 24.8188 35.9289 24.8527 35.9458C24.8696 35.9627 24.9036 35.9627 24.9205 35.9796C24.9375 35.9965 24.9714 35.9965 24.9884 36.0134C25.0054 36.0134 25.0393 36.0303 25.0562 36.0303C25.0902 36.0472 25.1241 36.0472 25.158 36.0641C25.175 36.0641 25.2089 36.081 25.2259 36.081C25.2768 36.081 25.3107 36.0978 25.3616 36.0978C25.3616 36.0978 25.3616 36.0978 25.3786 36.0978C25.4295 36.0978 25.4634 36.0978 25.5143 36.0978C25.6161 36.0978 25.7009 36.081 25.8027 36.0641C25.8366 36.0641 25.8705 36.0472 25.9045 36.0303C25.9214 36.0303 25.9214 36.0303 25.9384 36.0134C26.0741 35.9627 26.2098 35.912 26.3286 35.8276C26.3455 35.8107 26.3625 35.7938 26.3795 35.7769C26.3964 35.76 26.4134 35.7431 26.4304 35.7431C26.4473 35.7262 26.4812 35.7093 26.4982 35.6924C26.5152 35.6756 26.5321 35.6756 26.5321 35.6587C26.5321 35.6587 26.5321 35.6587 26.5491 35.6418C26.5661 35.6249 26.6 35.5911 26.617 35.5573C26.617 35.5573 26.617 35.5573 26.6339 35.5404C26.6679 35.5066 26.6848 35.4728 26.7188 35.4391C29.1446 31.7904 32.4188 28.6485 36.1509 26.3512C40.0357 23.9695 44.2937 22.4999 48.8232 22.01C49.5527 21.9256 50.1125 21.3174 50.1125 20.5742V13.108C50.0955 12.7195 49.9429 12.3478 49.6545 12.0776ZM22.0875 28.3276C20.3571 26.6553 18.4402 25.1688 16.3875 23.9188C14.3179 22.635 12.0955 21.5877 9.78839 20.7938C7.8375 20.1181 5.83572 19.6283 3.78304 19.3242V14.6283C7.56607 14.9492 11.2134 15.9458 14.6402 17.6181C18.2366 19.3749 21.392 21.7735 24.0554 24.7634V30.4053C23.4277 29.6958 22.7661 29.0033 22.0875 28.3276ZM47.2116 19.3242C45.1759 19.6283 43.1571 20.1181 41.2062 20.7938C38.9161 21.5877 36.6937 22.635 34.6071 23.9188C32.5545 25.1857 30.6375 26.6722 28.9071 28.3276C28.2286 28.9864 27.567 29.6789 26.9393 30.4053V24.7803C29.6027 21.7904 32.758 19.3918 36.3545 17.635C39.7813 15.9627 43.4116 14.9492 47.2116 14.6451V19.3242Z" fill="white"/>
</svg>
