<svg width="123" height="50" viewBox="0 0 123 50" fill="none" xmlns="http://www.w3.org/2000/svg">
<path d="M62.0021 23.7837H65.7578V40.26H74.3122V43.1891H62.0021V23.7837Z" fill="white"/>
<path d="M89.3183 40.0995C89.0268 40.7279 88.6544 41.2549 88.2011 41.684C87.7479 42.1131 87.2441 42.4576 86.6931 42.7178C86.1422 42.9779 85.5508 43.1671 84.9206 43.2803C84.2904 43.3951 83.6485 43.4526 82.9964 43.4526C81.8776 43.4526 80.8683 43.2735 79.9686 42.9154C79.0688 42.5573 78.3039 42.0539 77.6737 41.4036C77.0435 40.7549 76.5583 39.9745 76.2196 39.0641C75.8809 38.1536 75.7108 37.1468 75.7108 36.0421C75.7108 34.9999 75.8826 34.0303 76.2263 33.1333C76.5701 32.2364 77.0553 31.4593 77.6804 30.8006C78.3055 30.1418 79.0553 29.6249 79.9281 29.2499C80.8009 28.8749 81.7698 28.6874 82.8363 28.6874C85.1278 28.6874 86.8364 29.3614 87.9602 30.7093C89.0841 32.0573 89.6451 34.1012 89.6451 36.8394H79.1598C79.1598 37.4408 79.2457 37.9948 79.4176 38.5033C79.5895 39.0117 79.8422 39.4492 80.1775 39.8158C80.5128 40.1823 80.9273 40.4695 81.421 40.6772C81.9147 40.885 82.4825 40.9881 83.1261 40.9881C83.9012 40.9881 84.5937 40.8242 85.202 40.4982C85.8102 40.1722 86.2989 39.6451 86.6696 38.9205L89.3183 40.0995ZM86.277 34.6131C86.2247 33.5354 85.8962 32.6891 85.2913 32.0742C84.6881 31.4593 83.8827 31.1536 82.8785 31.1536C82.3494 31.1536 81.8742 31.2414 81.4513 31.4188C81.0284 31.5962 80.6645 31.8394 80.3612 32.1485C80.0579 32.4576 79.8085 32.8225 79.6147 33.2414C79.421 33.662 79.2879 34.1181 79.2188 34.6131H86.277Z" fill="white"/>
<path d="M92.373 28.9931H95.7581V31.2465C95.9872 30.8039 96.2737 30.4239 96.6174 30.1063C96.9611 29.7887 97.3402 29.5235 97.7547 29.3107C98.1692 29.0979 98.614 28.9424 99.0909 28.8394C99.566 28.7381 100.051 28.6874 100.545 28.6874C101.391 28.6874 102.125 28.8293 102.747 29.1114C103.369 29.3935 103.883 29.787 104.287 30.2904C104.693 30.7938 104.993 31.3884 105.187 32.0725C105.381 32.7566 105.478 33.5016 105.478 34.3056V43.1874H102.041V34.6384C102.041 33.6401 101.812 32.8647 101.354 32.3124C100.895 31.76 100.159 31.4847 99.1465 31.4847C98.0799 31.4847 97.2492 31.7887 96.6545 32.4002C96.0597 33.01 95.7615 33.8276 95.7615 34.8529V43.1908H92.3764V28.9931H92.373Z" fill="white"/>
<path d="M110.526 38.9611C110.66 39.3057 110.843 39.608 111.083 39.8698C111.32 40.13 111.593 40.3445 111.903 40.5134C112.211 40.6807 112.548 40.8073 112.914 40.8918C113.28 40.9763 113.652 41.0185 114.031 41.0185C114.304 41.0185 114.585 40.9948 114.877 40.9459C115.168 40.8969 115.433 40.809 115.671 40.6807C115.908 40.5523 116.105 40.38 116.259 40.1638C116.414 39.9476 116.489 39.6705 116.489 39.3361C116.489 38.983 116.402 38.6908 116.225 38.4611C116.048 38.2313 115.809 38.0388 115.504 37.8851C115.2 37.7296 114.852 37.603 114.459 37.4999C114.067 37.3986 113.65 37.304 113.209 37.2144C112.644 37.0911 112.073 36.9509 111.497 36.7972C110.919 36.6418 110.402 36.4171 109.944 36.1215C109.485 35.8259 109.111 35.4307 108.82 34.9357C108.528 34.4408 108.383 33.7955 108.383 32.9999C108.383 32.2668 108.537 31.63 108.847 31.0911C109.155 30.5523 109.558 30.1063 110.056 29.7516C110.555 29.3986 111.118 29.1334 111.748 28.956C112.378 28.7786 113.015 28.6908 113.659 28.6908C114.223 28.6908 114.796 28.7465 115.377 28.8563C115.959 28.9661 116.508 29.1452 117.024 29.3935C117.539 29.6401 118.006 29.9611 118.425 30.3546C118.843 30.7482 119.169 31.2229 119.398 31.7803L116.885 32.8665C116.744 32.5489 116.559 32.282 116.329 32.0641C116.1 31.8479 115.844 31.6688 115.563 31.5269C115.281 31.3851 114.985 31.2837 114.676 31.2229C114.368 31.1604 114.068 31.13 113.777 31.13C113.495 31.13 113.221 31.1587 112.956 31.2161C112.692 31.2736 112.456 31.3665 112.248 31.4948C112.041 31.6232 111.876 31.7888 111.753 31.9915C111.63 32.1942 111.568 32.4425 111.568 32.733C111.568 33.0607 111.649 33.3276 111.812 33.5354C111.976 33.7432 112.196 33.9155 112.473 34.0523C112.751 34.1891 113.079 34.3023 113.458 34.3901C113.837 34.478 114.238 34.5624 114.661 34.6418C115.243 34.7567 115.834 34.8884 116.432 35.0388C117.032 35.1891 117.576 35.4138 118.065 35.7144C118.554 36.0151 118.953 36.4188 119.261 36.9273C119.57 37.4357 119.725 38.1046 119.725 38.9357C119.725 39.7668 119.563 40.4712 119.243 41.0506C118.921 41.63 118.493 42.0962 117.96 42.4492C117.426 42.8023 116.816 43.059 116.129 43.2178C115.441 43.3766 114.727 43.456 113.987 43.456C113.362 43.456 112.735 43.3986 112.11 43.2837C111.485 43.1688 110.899 42.9796 110.351 42.7144C109.805 42.4492 109.318 42.0996 108.89 41.6671C108.462 41.2347 108.139 40.6992 107.918 40.0624L110.526 38.9611Z" fill="white"/>
<path d="M62.0274 17.6401L68.2566 8.61646H62.6576V6.83606H71.1884V7.72288L65.1108 16.7465H71.0131V18.5269H62.0291V17.6401H62.0274Z" fill="white"/>
<path d="M71.7528 14.2703C71.7528 13.5996 71.8809 12.9882 72.1387 12.4375C72.3965 11.8868 72.7419 11.4155 73.1783 11.0236C73.613 10.6317 74.1184 10.3294 74.6947 10.1132C75.2709 9.89695 75.8809 9.79053 76.5228 9.79053C77.1699 9.79053 77.7731 9.89864 78.3308 10.1132C78.8885 10.3294 79.3721 10.6317 79.7849 11.0236C80.1977 11.4155 80.5195 11.8834 80.752 12.429C80.9862 12.9746 81.1025 13.5743 81.1025 14.2297C81.1025 14.9003 80.9795 15.5101 80.7369 16.0591C80.4925 16.6081 80.1589 17.076 79.7377 17.4645C79.3148 17.853 78.8211 18.1537 78.2516 18.3665C77.6838 18.5794 77.0772 18.6858 76.4352 18.6858C75.7882 18.6858 75.1783 18.5777 74.6071 18.3632C74.0359 18.1469 73.5405 17.8463 73.1176 17.4561C72.6947 17.0676 72.3627 16.603 72.1184 16.0625C71.8758 15.5219 71.7528 14.924 71.7528 14.2703ZM76.4925 17.1115C76.9171 17.1115 77.2828 17.0321 77.5877 16.8716C77.8927 16.7111 78.1438 16.5 78.3409 16.2365C78.538 15.973 78.6829 15.6689 78.7756 15.3226C78.8683 14.9763 78.9154 14.6165 78.9154 14.2449C78.9154 13.8513 78.8649 13.4797 78.7638 13.1317C78.6627 12.7838 78.5094 12.4763 78.3055 12.2128C78.1016 11.9493 77.8455 11.7415 77.5372 11.5895C77.2288 11.4375 76.8649 11.3615 76.4453 11.3615C76.0157 11.3615 75.6467 11.4409 75.3417 11.6013C75.0367 11.7618 74.7874 11.9746 74.597 12.2449C74.4066 12.5135 74.265 12.826 74.1757 13.179C74.0848 13.5338 74.0409 13.9071 74.0409 14.3007C74.0409 14.679 74.0915 15.0388 74.1926 15.3784C74.2937 15.7179 74.4453 16.0169 74.6509 16.2719C74.8548 16.527 75.1109 16.7314 75.4158 16.8834C75.7191 17.0371 76.078 17.1115 76.4925 17.1115Z" fill="white"/>
<path d="M82.5937 6.10132H84.6325V11.331C84.7706 11.0642 84.9408 10.8344 85.1464 10.6402C85.3502 10.4459 85.576 10.2854 85.8237 10.1604C86.0697 10.0354 86.3359 9.94253 86.6207 9.88172C86.9054 9.82091 87.1936 9.79051 87.4851 9.79051C87.9956 9.79051 88.4404 9.87497 88.8229 10.0456C89.2054 10.2162 89.5238 10.451 89.7782 10.7517C90.0327 11.0523 90.2248 11.4088 90.3511 11.8209C90.4792 12.2331 90.5415 12.6841 90.5415 13.174V18.5236H88.4859V13.375C88.4859 12.7567 88.3309 12.2854 88.0192 11.9611C87.7075 11.6368 87.2559 11.4746 86.6611 11.4746C86.0023 11.4746 85.5002 11.6588 85.1514 12.0304C84.8026 12.402 84.6291 12.8919 84.6291 13.5033V18.5253H82.5903V6.10132H82.5937Z" fill="white"/>
<path d="M91.8658 14.2703C91.8658 13.5996 91.9939 12.9882 92.2517 12.4375C92.5095 11.8868 92.8549 11.4155 93.2913 11.0236C93.726 10.6317 94.2315 10.3294 94.8077 10.1132C95.384 9.89695 95.9939 9.79053 96.6359 9.79053C97.2829 9.79053 97.8861 9.89864 98.4438 10.1132C99.0015 10.3294 99.4851 10.6317 99.8979 11.0236C100.311 11.4155 100.633 11.8834 100.865 12.429C101.099 12.9746 101.216 13.5743 101.216 14.2297C101.216 14.9003 101.093 15.5101 100.85 16.0591C100.606 16.6081 100.272 17.076 99.8507 17.4645C99.4278 17.853 98.9341 18.1537 98.3646 18.3665C97.7968 18.5794 97.1902 18.6858 96.5483 18.6858C95.9013 18.6858 95.2913 18.5777 94.7201 18.3632C94.1489 18.1469 93.6536 17.8463 93.2306 17.4561C92.8077 17.0676 92.4758 16.603 92.2315 16.0625C91.9872 15.5219 91.8658 14.924 91.8658 14.2703ZM96.6039 17.1115C97.0285 17.1115 97.3941 17.0321 97.6991 16.8716C98.0041 16.7111 98.2551 16.5 98.4522 16.2365C98.6494 15.973 98.7943 15.6689 98.887 15.3226C98.9796 14.9763 99.0268 14.6165 99.0268 14.2449C99.0268 13.8513 98.9763 13.4797 98.8752 13.1317C98.7741 12.7838 98.6207 12.4763 98.4169 12.2128C98.213 11.9493 97.9569 11.7415 97.6485 11.5895C97.3402 11.4375 96.9762 11.3615 96.5567 11.3615C96.127 11.3615 95.758 11.4409 95.4531 11.6013C95.1481 11.7618 94.8987 11.9746 94.7083 12.2449C94.5179 12.5135 94.3764 12.826 94.2871 13.179C94.1961 13.5338 94.1523 13.9071 94.1523 14.3007C94.1523 14.679 94.2029 15.0388 94.3039 15.3784C94.405 15.7179 94.5567 16.0169 94.7622 16.2719C94.9661 16.527 95.2222 16.7314 95.5272 16.8834C95.8305 17.0371 96.1894 17.1115 96.6039 17.1115Z" fill="white"/>
<path d="M41.9818 36.7635C41.1898 36.7635 40.5496 36.1199 40.5496 35.326C40.5496 34.9459 40.7012 34.5794 40.9691 34.3108L46.8799 28.3851C48.7417 26.5135 48.7417 23.4848 46.8799 21.6132L41.8335 16.554C41.2859 15.9797 41.3078 15.0709 41.879 14.5219C42.4333 13.9915 43.3044 13.9915 43.8588 14.5219L48.9051 19.5811C51.8841 22.5692 51.8841 27.429 48.9051 30.4172L42.9944 36.3429C42.7265 36.6132 42.3625 36.7652 41.9818 36.7635Z" fill="white"/>
<path d="M10.5898 35.9138C10.209 35.9138 9.84507 35.7634 9.57717 35.4931L4.51395 30.4171C1.5333 27.429 1.5333 22.5692 4.50889 19.5827L10.4264 13.6435C10.9807 13.0776 11.8889 13.0692 12.4533 13.6266C13.0178 14.1823 13.0262 15.0928 12.4702 15.6587C12.4651 15.6638 12.4601 15.6705 12.4533 15.6756L6.53755 21.6131C4.67739 23.4847 4.67739 26.5117 6.53755 28.3834L11.6008 33.4594C12.1602 34.0202 12.1602 34.9306 11.6008 35.4915C11.3312 35.76 10.9672 35.9121 10.5881 35.9121L10.5898 35.9138Z" fill="white"/>
<path d="M26.7096 30.4764C23.6918 30.4764 21.247 28.0237 21.247 24.9983C21.247 21.973 23.6935 19.522 26.7112 19.522C29.729 19.522 32.1738 21.9747 32.1738 25C32.1704 28.0237 29.7256 30.4747 26.7096 30.4764ZM26.7096 22.3953C25.2757 22.3953 24.1131 23.5625 24.1131 25C24.1131 26.4375 25.2774 27.6031 26.7112 27.6031C28.1451 27.6031 29.3077 26.4375 29.3077 25C29.306 23.5625 28.1434 22.397 26.7096 22.3953Z" fill="white"/>
<path d="M26.7096 37.6621C24.2243 37.6655 21.7929 36.9324 19.7205 35.554C19.0617 35.1148 18.8814 34.2229 19.3195 33.5625C19.7575 32.902 20.6472 32.7212 21.306 33.1604C22.9067 34.2263 24.7871 34.7922 26.7096 34.7888C32.1081 34.7888 36.4973 30.3868 36.4973 24.9763V12.9898C36.5007 11.8462 36.0475 10.7483 35.2387 9.94253L30.0895 4.77868C29.1965 3.87834 27.98 3.37327 26.7129 3.37665C25.4459 3.37327 24.2294 3.87834 23.3347 4.78036L16.5208 11.6148C15.9614 12.1756 15.0532 12.1773 14.4938 11.6165C13.9344 11.0557 13.9327 10.1452 14.4921 9.58442L21.306 2.74827C22.7348 1.3057 24.6809 0.49827 26.7096 0.503338C28.7382 0.496581 30.686 1.3057 32.1165 2.74827L37.2673 7.91212C38.6153 9.25672 39.3701 11.0861 39.3651 12.9915V25.0118C39.3449 32.0033 33.6852 37.6621 26.7096 37.6621Z" fill="white"/>
<path d="M26.7096 49.4966C24.6809 49.5017 22.7365 48.6943 21.306 47.2517L16.1551 42.0862C14.8072 40.7432 14.0523 38.9139 14.0574 37.0101V24.9899C14.0776 17.9831 19.7592 12.3193 26.7483 12.3395C29.2302 12.3463 31.6548 13.0845 33.7206 14.4628C34.3844 14.8953 34.5714 15.7855 34.1401 16.451C33.7088 17.1166 32.8208 17.3041 32.1569 16.8716C32.1485 16.8666 32.1401 16.8598 32.13 16.8547C30.5259 15.7804 28.6388 15.2078 26.7079 15.2112C21.3093 15.2112 16.9201 19.6132 16.9201 25.0237V37.0084C16.9167 38.152 17.37 39.2483 18.1787 40.0557L23.3313 45.2213C25.1965 47.0895 28.2192 47.0895 30.0845 45.2213L36.9152 38.3733C37.4746 37.8125 38.3828 37.8125 38.9422 38.3733C39.5015 38.9341 39.5015 39.8446 38.9422 40.4054L32.1114 47.2534C30.6843 48.6943 28.7382 49.5034 26.7096 49.4966Z" fill="white"/>
</svg>
