<svg width="350" height="47" viewBox="0 0 350 47" fill="none" xmlns="http://www.w3.org/2000/svg">
<path d="M4.88388 16.3583C4.38535 16.3583 3.90202 16.0998 3.63839 15.6404L2.58556 13.8211C1.80481 12.4715 1.80481 10.8634 2.58556 9.5137C3.36631 8.16404 4.76051 7.35999 6.31525 7.35999H38.8381C39.6324 7.35999 40.2745 8.00188 40.2745 8.7958C40.2745 9.58972 39.6324 10.2316 38.8381 10.2316H6.32032C5.57337 10.2316 5.1999 10.735 5.07484 10.9495C4.94979 11.164 4.70136 11.7401 5.07484 12.3853L6.12767 14.2046C6.52481 14.8887 6.28991 15.7705 5.60041 16.1674C5.37734 16.2958 5.12892 16.3583 4.88388 16.3583Z" fill="white"/>
<path d="M4.88388 16.3583C4.38535 16.3583 3.90202 16.0998 3.63839 15.6404L2.58556 13.8211C1.80481 12.4715 1.80481 10.8634 2.58556 9.5137C3.36631 8.16404 4.76051 7.35999 6.31525 7.35999H38.8381C39.6324 7.35999 40.2745 8.00188 40.2745 8.7958C40.2745 9.58972 39.6324 10.2316 38.8381 10.2316H6.32032C5.57337 10.2316 5.1999 10.735 5.07484 10.9495C4.94979 11.164 4.70136 11.7401 5.07484 12.3853L6.12767 14.2046C6.52481 14.8887 6.28991 15.7705 5.60041 16.1674C5.37734 16.2958 5.12892 16.3583 4.88388 16.3583Z" fill="white"/>
<path d="M23.196 42.7941C20.7727 42.7941 18.6045 41.5407 17.3928 39.4444L7.56581 22.4377C6.78506 21.088 6.78506 19.4799 7.56581 18.1303C8.34656 16.7806 9.73907 15.9749 11.2955 15.9749H33.8579C34.6521 15.9749 35.2943 16.6167 35.2943 17.4107C35.2943 18.2046 34.6521 18.8465 33.8579 18.8465H11.2955C10.5486 18.8465 10.1751 19.3499 10.05 19.5644C9.92496 19.7806 9.67654 20.3549 10.05 21.0002L19.8719 38.0053C20.5665 39.2012 21.8069 39.9191 23.191 39.9191C24.575 39.9191 25.8154 39.2012 26.51 38.0053L30.8194 30.5441C31.2165 29.86 32.0936 29.6201 32.7831 30.0171C33.4675 30.414 33.7075 31.2907 33.3103 31.9799L29.001 39.4411C27.7876 41.539 25.6177 42.7941 23.196 42.7941Z" fill="white"/>
<path d="M23.196 42.7941C20.7727 42.7941 18.6045 41.5407 17.3928 39.4444L7.56581 22.4377C6.78506 21.088 6.78506 19.4799 7.56581 18.1303C8.34656 16.7806 9.73907 15.9749 11.2955 15.9749H33.8579C34.6521 15.9749 35.2943 16.6167 35.2943 17.4107C35.2943 18.2046 34.6521 18.8465 33.8579 18.8465H11.2955C10.5486 18.8465 10.1751 19.3499 10.05 19.5644C9.92496 19.7806 9.67654 20.3549 10.05 21.0002L19.8719 38.0053C20.5665 39.2012 21.8069 39.9191 23.191 39.9191C24.575 39.9191 25.8154 39.2012 26.51 38.0053L30.8194 30.5441C31.2165 29.86 32.0936 29.6201 32.7831 30.0171C33.4675 30.414 33.7075 31.2907 33.3103 31.9799L29.001 39.4411C27.7876 41.539 25.6177 42.7941 23.196 42.7941Z" fill="white"/>
<path d="M50.9583 8.43262L49.5168 3.06776C49.5117 3.04411 49.5033 3.02384 49.4982 3.00019C49.4982 2.99512 49.4932 2.99006 49.4932 2.98499C49.4881 2.96641 49.483 2.95121 49.4746 2.93263C49.4746 2.92756 49.4695 2.92249 49.4695 2.91742C49.4644 2.89884 49.456 2.88364 49.4509 2.86506C49.4509 2.85999 49.4458 2.85999 49.4458 2.85492C49.4357 2.83634 49.4272 2.81607 49.4222 2.79749C49.3208 2.59141 49.1687 2.40898 48.9727 2.27046C48.9541 2.25526 48.9338 2.24175 48.9152 2.23161C48.9101 2.22654 48.9 2.22148 48.8966 2.21641C48.8831 2.20627 48.8679 2.19783 48.8527 2.19276C48.8341 2.18262 48.8189 2.17418 48.8003 2.16404C48.7952 2.16404 48.7901 2.15898 48.7901 2.15898C48.5316 2.02553 48.2443 1.97654 47.9756 2.01033C47.9756 2.01033 47.9756 2.01033 47.9705 2.01033C47.9519 2.0154 47.9266 2.0154 47.908 2.02046C47.9029 2.02046 47.9029 2.02046 47.8979 2.02046C47.8793 2.02553 47.859 2.0306 47.8404 2.0306C47.8353 2.0306 47.8353 2.0306 47.8303 2.0306C47.8066 2.03567 47.7829 2.04073 47.7627 2.0458L42.3565 3.50019C41.591 3.70627 41.1347 4.49175 41.3409 5.26202C41.5471 6.02722 42.3329 6.4833 43.1035 6.27722L45.1534 5.72654L35.3568 22.6843C34.6775 23.8667 33.4033 24.5982 32.0378 24.5982H20.3688C19.5745 24.5982 18.9323 25.2401 18.9323 26.034C18.9323 26.8279 19.5745 27.4698 20.3688 27.4698H32.0429C34.4324 27.4698 36.6547 26.1877 37.8461 24.1201L47.6427 7.16236L48.1835 9.18263C48.3558 9.82452 48.9355 10.2451 49.5726 10.2451C49.6976 10.2451 49.821 10.2316 49.9461 10.1978C50.715 9.98837 51.1645 9.19783 50.9583 8.43262Z" fill="white"/>
<path d="M61.01 19.6825H65.7706L71.3677 33.8261L76.9242 19.6825H81.5783V39.0879H78.1038V24.294L71.9896 39.0879H70.3182L64.4034 24.294V39.0879H61.0083V19.6825H61.01Z" fill="white"/>
<path d="M93.5667 37.3514C93.0276 38.0676 92.3803 38.5795 91.6232 38.8886C90.8678 39.1977 90.0465 39.3531 89.1627 39.3531C88.5002 39.3531 87.8783 39.2686 87.2987 39.1014C86.719 38.9342 86.2154 38.6774 85.7862 38.3328C85.357 37.9882 85.019 37.5575 84.7722 37.0406C84.5238 36.5237 84.4005 35.9156 84.4005 35.218C84.4005 34.5643 84.5086 33.9967 84.7249 33.5153C84.9412 33.0339 85.2336 32.6251 85.6003 32.2889C85.967 31.9528 86.398 31.6791 86.8931 31.4663C87.3883 31.2534 87.9121 31.0879 88.4647 30.9697C89.0174 30.8497 89.5852 30.7687 90.1682 30.7247C90.7512 30.6808 91.3174 30.6589 91.8649 30.6589H93.5363V30.4342C93.5363 29.9308 93.4991 29.473 93.423 29.0626C93.347 28.6521 93.2084 28.3024 93.0056 28.0153C92.8028 27.7281 92.5223 27.5068 92.164 27.3531C91.8058 27.1994 91.3393 27.1217 90.7648 27.1217C90.0753 27.1217 89.4415 27.2957 88.8619 27.6453C88.2822 27.995 87.8648 28.4967 87.6079 29.1504L84.9683 28.0102C85.2066 27.3835 85.5429 26.8531 85.9755 26.419C86.4081 25.9866 86.8999 25.6318 87.4474 25.3582C87.995 25.0845 88.5831 24.8869 89.2117 24.7687C89.8387 24.6487 90.4724 24.5896 91.1078 24.5896C91.9477 24.5896 92.7217 24.6943 93.4281 24.9004C94.1345 25.1082 94.7479 25.4241 95.2651 25.848C95.7822 26.272 96.1844 26.8143 96.4717 27.4714C96.759 28.1285 96.9026 28.9089 96.9026 29.8109V39.0896H93.5599V37.3514H93.5667ZM91.8294 32.7382C91.4407 32.7382 91.0098 32.7585 90.5366 32.7974C90.0634 32.8379 89.6224 32.9359 89.21 33.0964C88.7994 33.2551 88.4563 33.4899 88.1825 33.7991C87.9088 34.1082 87.7719 34.5322 87.7719 35.071C87.7719 35.4156 87.8293 35.7045 87.9443 35.9393C88.0592 36.1741 88.2197 36.3649 88.4276 36.5153C88.6354 36.6656 88.8754 36.7737 89.1509 36.8396C89.4246 36.9055 89.7204 36.9393 90.0398 36.9393C90.4724 36.9393 90.8966 36.8818 91.3123 36.767C91.728 36.6521 92.1015 36.4798 92.4327 36.2501C92.764 36.0203 93.031 35.7264 93.2354 35.3683C93.4382 35.0102 93.5413 34.593 93.5413 34.1149V32.7366H91.8294V32.7382Z" fill="white"/>
<path d="M100.489 24.8919H103.884V27.5558C104.362 26.5743 104.987 25.8497 105.76 25.3818C106.534 24.9139 107.463 24.6791 108.551 24.6791V27.821C107.862 27.821 107.232 27.8835 106.662 28.0068C106.091 28.1301 105.601 28.3446 105.19 28.6504C104.779 28.9561 104.458 29.3598 104.228 29.8632C103.999 30.3666 103.884 30.9983 103.884 31.7585V39.0896H100.489V24.8919Z" fill="white"/>
<path d="M111.243 18.4629H114.639V31.0828L119.784 24.8919H123.511L117.875 31.4004L123.935 39.0879H120.023L114.639 32.169V39.0879H111.243V18.4629Z" fill="white"/>
<path d="M137.806 35.9983C137.514 36.6267 137.14 37.1538 136.685 37.5828C136.231 38.0119 135.726 38.3565 135.173 38.6166C134.62 38.8767 134.027 39.0659 133.395 39.1791C132.763 39.294 132.119 39.3514 131.465 39.3514C130.343 39.3514 129.331 39.1723 128.428 38.8142C127.526 38.4561 126.759 37.9527 126.127 37.3024C125.495 36.6538 125.008 35.8733 124.668 34.9629C124.329 34.0524 124.158 33.0456 124.158 31.9409C124.158 30.8987 124.33 29.9291 124.675 29.0321C125.02 28.1352 125.506 27.3581 126.133 26.6994C126.76 26.0406 127.512 25.5237 128.388 25.1487C129.263 24.7737 130.235 24.5862 131.305 24.5862C133.603 24.5862 135.317 25.2602 136.444 26.6081C137.571 27.9561 138.134 30 138.134 32.7382H127.617C127.617 33.3396 127.703 33.8936 127.876 34.4021C128.048 34.9105 128.302 35.348 128.638 35.7146C128.974 36.0811 129.39 36.3683 129.885 36.576C130.38 36.7838 130.95 36.8869 131.595 36.8869C132.373 36.8869 133.067 36.723 133.677 36.397C134.287 36.071 134.777 35.544 135.149 34.8193L137.806 35.9983ZM134.756 30.5119C134.703 29.4342 134.374 28.5879 133.767 27.973C133.162 27.3581 132.354 27.0524 131.347 27.0524C130.816 27.0524 130.34 27.1402 129.916 27.3176C129.491 27.495 129.126 27.7382 128.822 28.0473C128.518 28.3565 128.268 28.7213 128.074 29.1402C127.879 29.5608 127.746 30.0169 127.676 30.5119H134.756Z" fill="white"/>
<path d="M148.057 38.9814C147.685 39.0879 147.31 39.1706 146.93 39.2331C146.55 39.2956 146.147 39.326 145.723 39.326C144.371 39.326 143.313 38.9747 142.555 38.272C141.794 37.5693 141.414 36.5118 141.414 35.098V27.3835H139.504V24.8919H141.414V21.9629L144.809 20.4916V24.8919H147.939V27.3835H144.809V34.7939C144.809 35.3514 144.939 35.7906 145.199 36.1132C145.46 36.4358 145.904 36.5963 146.533 36.5963C146.771 36.5963 147.021 36.5727 147.281 36.5237C147.542 36.4747 147.8 36.4071 148.057 36.3176V38.9814Z" fill="white"/>
<path d="M150.67 20.8092C150.67 20.5271 150.722 20.2686 150.829 20.0338C150.935 19.799 151.08 19.5963 151.266 19.424C151.452 19.2517 151.667 19.12 151.91 19.0271C152.153 18.9342 152.412 18.8885 152.686 18.8885C152.96 18.8885 153.216 18.9375 153.455 19.0338C153.693 19.1318 153.903 19.2652 154.085 19.4375C154.266 19.6098 154.408 19.8125 154.509 20.0473C154.611 20.2821 154.661 20.5406 154.661 20.8227C154.661 21.0963 154.611 21.3531 154.509 21.5913C154.408 21.8294 154.271 22.0338 154.099 22.201C153.926 22.37 153.72 22.5017 153.482 22.598C153.243 22.696 152.982 22.7433 152.699 22.7433C152.426 22.7433 152.164 22.6943 151.917 22.598C151.67 22.5 151.452 22.3666 151.266 22.1943C151.08 22.022 150.935 21.8159 150.829 21.5777C150.722 21.3379 150.67 21.0828 150.67 20.8092ZM150.974 24.9173H154.369V39.0879H150.974V24.9173Z" fill="white"/>
<path d="M158.215 24.8919H161.61V27.1453C161.84 26.7027 162.127 26.3227 162.472 26.0051C162.817 25.6875 163.197 25.4223 163.613 25.2095C164.029 24.9967 164.475 24.8412 164.953 24.7382C165.43 24.6369 165.916 24.5862 166.411 24.5862C167.26 24.5862 167.997 24.7281 168.62 25.0102C169.244 25.2923 169.759 25.6858 170.165 26.1892C170.572 26.6926 170.873 27.2872 171.067 27.9713C171.262 28.6554 171.36 29.4004 171.36 30.2044V39.0862H167.912V30.5372C167.912 29.5389 167.682 28.7635 167.223 28.2112C166.763 27.6588 166.024 27.3835 165.009 27.3835C163.939 27.3835 163.106 27.6875 162.509 28.299C161.913 28.9088 161.614 29.7264 161.614 30.7517V39.0896H158.219V24.8919H158.215Z" fill="white"/>
<path d="M177.112 39.7112C177.29 40.1081 177.519 40.4375 177.802 40.6993C178.084 40.9595 178.4 41.1672 178.75 41.3226C179.099 41.4781 179.468 41.5878 179.857 41.6537C180.245 41.7196 180.639 41.7534 181.036 41.7534C182.3 41.7534 183.291 41.446 184.007 40.8328C184.724 40.2179 185.082 39.2669 185.082 37.9764V35.8547C184.844 36.2618 184.55 36.6301 184.2 36.9612C183.85 37.2922 183.468 37.5726 183.052 37.8024C182.636 38.0321 182.197 38.2095 181.732 38.3328C181.268 38.4561 180.798 38.5186 180.32 38.5186C179.312 38.5186 178.415 38.3362 177.628 37.9679C176.84 37.6014 176.176 37.1047 175.632 36.4764C175.088 35.8497 174.675 35.1216 174.391 34.2956C174.109 33.4696 173.967 32.5929 173.967 31.6639C173.967 30.7095 174.118 29.8041 174.418 28.946C174.719 28.0895 175.148 27.3379 175.704 26.6926C176.262 26.0473 176.938 25.5355 177.734 25.1554C178.53 24.7753 179.419 24.5845 180.399 24.5845C181.362 24.5845 182.258 24.7838 183.084 25.1808C183.911 25.5777 184.577 26.2061 185.08 27.0625V24.8885H188.489V38.0253C188.489 39.1385 188.294 40.0929 187.906 40.8885C187.517 41.6841 186.985 42.3328 186.307 42.8379C185.631 43.3412 184.84 43.7112 183.933 43.9443C183.027 44.1791 182.06 44.2956 181.034 44.2956C180.372 44.2956 179.708 44.2433 179.045 44.1368C178.383 44.0304 177.756 43.848 177.17 43.5862C176.581 43.326 176.049 42.9764 175.571 42.5389C175.093 42.1014 174.712 41.5473 174.43 40.875L177.112 39.7112ZM181.21 35.9071C181.873 35.9071 182.454 35.7922 182.954 35.5625C183.454 35.3328 183.872 35.0186 184.208 34.6216C184.544 34.2247 184.796 33.7551 184.964 33.2162C185.131 32.6774 185.215 32.098 185.215 31.4797C185.215 30.8699 185.134 30.3041 184.97 29.7838C184.806 29.2618 184.563 28.8091 184.24 28.4257C183.917 28.0406 183.514 27.7416 183.027 27.5237C182.54 27.3074 181.974 27.1993 181.33 27.1993C180.649 27.1993 180.066 27.321 179.579 27.5642C179.093 27.8074 178.692 28.1335 178.38 28.5456C178.065 28.9561 177.834 29.4358 177.683 29.9831C177.533 30.5304 177.459 31.1149 177.459 31.7331C177.459 32.2906 177.543 32.8193 177.71 33.3243C177.878 33.8277 178.123 34.272 178.447 34.6571C178.77 35.0422 179.164 35.3463 179.627 35.5726C180.09 35.7939 180.617 35.9071 181.21 35.9071Z" fill="white"/>
<path d="M203.343 19.6825H208.21L214.722 39.0879H210.836L209.392 34.6082H201.767L200.361 39.0879H196.793L203.343 19.6825ZM208.555 31.9173L205.598 22.718L202.627 31.9173H208.555Z" fill="white"/>
<path d="M226.391 36.8616C226.169 37.294 225.894 37.6673 225.563 37.9815C225.231 38.2957 224.861 38.5541 224.456 38.7568C224.048 38.9595 223.614 39.1099 223.149 39.2078C222.685 39.3058 222.206 39.3531 221.711 39.3531C220.898 39.3531 220.18 39.2247 219.557 38.968C218.933 38.7112 218.411 38.348 217.992 37.8751C217.571 37.4021 217.255 36.8362 217.044 36.1791C216.831 35.5203 216.726 34.7889 216.726 33.9849V24.892H220.121V33.5744C220.121 34.5474 220.351 35.3109 220.811 35.8683C221.27 36.4258 221.995 36.7028 222.985 36.7028C223.516 36.7028 223.991 36.6217 224.412 36.4578C224.831 36.294 225.189 36.0643 225.487 35.7687C225.782 35.473 226.009 35.1149 226.163 34.6943C226.318 34.2754 226.394 33.8126 226.394 33.3092V24.892H229.776V39.0879H226.394V36.8616H226.391Z" fill="white"/>
<path d="M240.688 38.9814C240.316 39.0879 239.941 39.1706 239.56 39.2331C239.18 39.2956 238.778 39.326 238.354 39.326C237.002 39.326 235.944 38.9747 235.185 38.272C234.425 37.5693 234.044 36.5118 234.044 35.098V27.3835H232.135V24.8919H234.044V21.9629L237.44 20.4916V24.8919H240.569V27.3835H237.44V34.7939C237.44 35.3514 237.57 35.7906 237.83 36.1132C238.09 36.4358 238.535 36.5963 239.163 36.5963C239.402 36.5963 239.652 36.5727 239.912 36.5237C240.172 36.4747 240.431 36.4071 240.688 36.3176V38.9814Z" fill="white"/>
<path d="M241.854 32.022C241.854 30.9088 242.068 29.8953 242.497 28.9797C242.927 28.0659 243.503 27.2838 244.228 26.6335C244.953 25.9848 245.795 25.4797 246.754 25.1216C247.714 24.7635 248.728 24.5845 249.798 24.5845C250.876 24.5845 251.88 24.7635 252.808 25.1216C253.736 25.4797 254.543 25.9831 255.228 26.6335C255.912 27.2838 256.45 28.0608 256.838 28.9662C257.227 29.8716 257.421 30.8683 257.421 31.9561C257.421 33.0693 257.219 34.0811 256.811 34.9916C256.404 35.902 255.85 36.6791 255.147 37.3243C254.444 37.9696 253.619 38.4696 252.674 38.8226C251.728 39.1757 250.721 39.3531 249.651 39.3531C248.573 39.3531 247.557 39.174 246.607 38.8159C245.658 38.4578 244.831 37.9561 244.128 37.3108C243.425 36.6656 242.871 35.8953 242.464 34.9983C242.058 34.1014 241.854 33.1098 241.854 32.022ZM249.744 36.7416C250.452 36.7416 251.059 36.6098 251.567 36.3446C252.076 36.0794 252.493 35.7281 252.821 35.2906C253.147 34.8531 253.389 34.348 253.545 33.772C253.7 33.1976 253.776 32.6014 253.776 31.9831C253.776 31.3294 253.692 30.7128 253.524 30.1335C253.355 29.5541 253.102 29.0473 252.762 28.6098C252.422 28.1723 251.995 27.8277 251.483 27.576C250.969 27.3243 250.364 27.1976 249.666 27.1976C248.95 27.1976 248.338 27.3311 247.829 27.5946C247.321 27.8598 246.908 28.2162 246.589 28.6622C246.271 29.1081 246.036 29.625 245.886 30.2128C245.735 30.8007 245.661 31.4206 245.661 32.076C245.661 32.7027 245.746 33.3007 245.913 33.8649C246.08 34.4308 246.335 34.9257 246.675 35.3497C247.015 35.7737 247.439 36.1115 247.948 36.3632C248.456 36.6149 249.054 36.7416 249.744 36.7416Z" fill="white"/>
<path d="M259.902 24.8919H263.297V27.0659C263.51 26.6588 263.772 26.3024 264.086 25.9916C264.401 25.6825 264.749 25.424 265.134 25.2162C265.52 25.0085 265.93 24.8514 266.368 24.745C266.806 24.6385 267.253 24.5862 267.713 24.5862C268.156 24.5862 268.587 24.6352 269.006 24.7315C269.425 24.8294 269.819 24.9815 270.185 25.1892C270.552 25.397 270.877 25.6605 271.161 25.9781C271.443 26.2956 271.669 26.6757 271.837 27.1183C272.376 26.3058 273.084 25.6808 273.959 25.2433C274.834 24.8058 275.781 24.5879 276.796 24.5879C277.609 24.5879 278.317 24.7298 278.919 25.0119C279.521 25.294 280.019 25.6808 280.418 26.1723C280.817 26.6639 281.113 27.2433 281.307 27.9156C281.501 28.5879 281.599 29.3159 281.599 30.1031V39.0896H278.218V30.3142C278.218 29.4223 277.995 28.7095 277.548 28.1808C277.102 27.6504 276.423 27.3852 275.512 27.3852C275.017 27.3852 274.579 27.4662 274.199 27.6301C273.819 27.794 273.501 28.0169 273.244 28.299C272.987 28.5811 272.793 28.9206 272.661 29.3125C272.528 29.7061 272.462 30.1318 272.462 30.5912V39.0879H269.067V30.3125C269.067 29.4206 268.842 28.7078 268.391 28.1791C267.94 27.6487 267.258 27.3835 266.349 27.3835C265.863 27.3835 265.43 27.4646 265.05 27.6284C264.669 27.7923 264.348 28.0152 264.088 28.2973C263.828 28.5794 263.63 28.919 263.498 29.3108C263.367 29.7044 263.299 30.1301 263.299 30.5896V39.0862H259.904V24.8919H259.902Z" fill="white"/>
<path d="M293.321 37.3514C292.782 38.0676 292.134 38.5795 291.377 38.8886C290.622 39.1977 289.801 39.3531 288.917 39.3531C288.254 39.3531 287.632 39.2686 287.053 39.1014C286.473 38.9342 285.969 38.6774 285.54 38.3328C285.111 37.9882 284.773 37.5575 284.526 37.0406C284.278 36.5237 284.154 35.9156 284.154 35.218C284.154 34.5643 284.263 33.9967 284.479 33.5153C284.695 33.0339 284.988 32.6251 285.354 32.2889C285.721 31.9528 286.152 31.6791 286.647 31.4663C287.142 31.2534 287.666 31.0879 288.219 30.9697C288.771 30.8497 289.339 30.7687 289.922 30.7247C290.505 30.6808 291.071 30.6589 291.619 30.6589H293.29V30.4342C293.29 29.9308 293.253 29.473 293.177 29.0626C293.101 28.6521 292.962 28.3024 292.76 28.0153C292.557 27.7281 292.276 27.5068 291.918 27.3531C291.56 27.1994 291.093 27.1217 290.519 27.1217C289.829 27.1217 289.196 27.2957 288.616 27.6453C288.036 27.995 287.619 28.4967 287.362 29.1504L284.722 28.0102C284.961 27.3835 285.297 26.8531 285.729 26.419C286.162 25.9866 286.654 25.6318 287.201 25.3582C287.749 25.0845 288.337 24.8869 288.966 24.7687C289.593 24.6487 290.226 24.5896 290.862 24.5896C291.702 24.5896 292.476 24.6943 293.182 24.9004C293.888 25.1082 294.502 25.4241 295.019 25.848C295.536 26.272 295.938 26.8143 296.226 27.4714C296.513 28.1285 296.657 28.9089 296.657 29.8109V39.0896H293.314V37.3514H293.321ZM291.583 32.7382C291.195 32.7382 290.764 32.7585 290.291 32.7974C289.817 32.8379 289.376 32.9359 288.964 33.0964C288.553 33.2551 288.21 33.4899 287.936 33.7991C287.663 34.1082 287.526 34.5322 287.526 35.071C287.526 35.4156 287.583 35.7045 287.698 35.9393C287.813 36.1741 287.974 36.3649 288.182 36.5153C288.389 36.6656 288.629 36.7737 288.905 36.8396C289.179 36.9055 289.474 36.9393 289.794 36.9393C290.226 36.9393 290.651 36.8818 291.066 36.767C291.482 36.6521 291.855 36.4798 292.187 36.2501C292.518 36.0203 292.785 35.7264 292.989 35.3683C293.192 35.0102 293.295 34.593 293.295 34.1149V32.7366H291.583V32.7382Z" fill="white"/>
<path d="M307.432 38.9814C307.06 39.0879 306.685 39.1706 306.304 39.2331C305.924 39.2956 305.522 39.326 305.098 39.326C303.746 39.326 302.688 38.9747 301.929 38.272C301.169 37.5693 300.788 36.5118 300.788 35.098V27.3835H298.879V24.8919H300.788V21.9629L304.184 20.4916V24.8919H307.313V27.3835H304.184V34.7939C304.184 35.3514 304.314 35.7906 304.574 36.1132C304.834 36.4358 305.279 36.5963 305.907 36.5963C306.146 36.5963 306.396 36.5727 306.656 36.5237C306.916 36.4747 307.175 36.4071 307.432 36.3176V38.9814Z" fill="white"/>
<path d="M310.044 20.8092C310.044 20.5271 310.097 20.2686 310.203 20.0338C310.31 19.799 310.455 19.5963 310.641 19.424C310.827 19.2517 311.041 19.12 311.285 19.0271C311.528 18.9342 311.787 18.8885 312.06 18.8885C312.334 18.8885 312.591 18.9375 312.829 19.0338C313.068 19.1318 313.277 19.2652 313.46 19.4375C313.64 19.6098 313.782 19.8125 313.884 20.0473C313.985 20.2821 314.036 20.5406 314.036 20.8227C314.036 21.0963 313.985 21.3531 313.884 21.5913C313.782 21.8294 313.646 22.0338 313.473 22.201C313.301 22.37 313.095 22.5017 312.856 22.598C312.618 22.696 312.356 22.7433 312.074 22.7433C311.8 22.7433 311.538 22.6943 311.291 22.598C311.045 22.5 310.827 22.3666 310.641 22.1943C310.455 22.022 310.31 21.8159 310.203 21.5777C310.097 21.3379 310.044 21.0828 310.044 20.8092ZM310.348 24.9173H313.744V39.0879H310.348V24.9173Z" fill="white"/>
<path d="M316.197 32.022C316.197 30.9088 316.412 29.8953 316.841 28.9797C317.27 28.0659 317.847 27.2838 318.572 26.6335C319.297 25.9848 320.138 25.4797 321.098 25.1216C322.058 24.7635 323.072 24.5845 324.142 24.5845C325.22 24.5845 326.224 24.7635 327.152 25.1216C328.079 25.4797 328.887 25.9831 329.572 26.6335C330.256 27.2838 330.793 28.0608 331.182 28.9662C331.571 29.8716 331.765 30.8683 331.765 31.9561C331.765 33.0693 331.562 34.0811 331.155 34.9916C330.748 35.902 330.193 36.6791 329.49 37.3243C328.787 37.9696 327.963 38.4696 327.018 38.8226C326.072 39.1757 325.064 39.3531 323.995 39.3531C322.917 39.3531 321.901 39.174 320.951 38.8159C320.001 38.4578 319.175 37.9561 318.472 37.3108C317.769 36.6656 317.215 35.8953 316.807 34.9983C316.4 34.1014 316.197 33.1098 316.197 32.022ZM324.088 36.7416C324.796 36.7416 325.402 36.6098 325.911 36.3446C326.42 36.0794 326.837 35.7281 327.165 35.2906C327.491 34.8531 327.733 34.348 327.888 33.772C328.044 33.1976 328.12 32.6014 328.12 31.9831C328.12 31.3294 328.035 30.7128 327.868 30.1335C327.699 29.5541 327.446 29.0473 327.106 28.6098C326.766 28.1723 326.339 27.8277 325.827 27.576C325.313 27.3243 324.708 27.1976 324.01 27.1976C323.293 27.1976 322.682 27.3311 322.173 27.5946C321.664 27.8598 321.252 28.2162 320.933 28.6622C320.615 29.1081 320.38 29.625 320.23 30.2128C320.079 30.8007 320.005 31.4206 320.005 32.076C320.005 32.7027 320.089 33.3007 320.257 33.8649C320.424 34.4308 320.679 34.9257 321.019 35.3497C321.358 35.7737 321.783 36.1115 322.291 36.3632C322.798 36.6149 323.398 36.7416 324.088 36.7416Z" fill="white"/>
<path d="M334.246 24.8919H337.641V27.1453C337.871 26.7027 338.158 26.3227 338.503 26.0051C338.848 25.6875 339.228 25.4223 339.644 25.2095C340.059 24.9967 340.505 24.8412 340.984 24.7382C341.46 24.6369 341.947 24.5862 342.442 24.5862C343.29 24.5862 344.027 24.7281 344.651 25.0102C345.274 25.2923 345.79 25.6858 346.195 26.1892C346.603 26.6926 346.903 27.2872 347.098 27.9713C347.292 28.6554 347.39 29.4004 347.39 30.2044V39.0862H343.943V30.5372C343.943 29.5389 343.713 28.7635 343.253 28.2112C342.794 27.6588 342.055 27.3835 341.039 27.3835C339.97 27.3835 339.137 27.6875 338.54 28.299C337.943 28.9088 337.644 29.7264 337.644 30.7517V39.0896H334.249V24.8919H334.246Z" fill="white"/>
<path d="M61.0371 13.5388L67.2848 4.51515H61.6691V2.73474H70.2253V3.62157L64.1297 12.6452H70.0495V14.4256H61.0388V13.5388H61.0371Z" fill="white"/>
<path d="M70.7914 10.1689C70.7914 9.49833 70.9198 8.88684 71.1784 8.33617C71.437 7.78549 71.7834 7.31421 72.2211 6.92232C72.6571 6.53043 73.1641 6.22806 73.742 6.01184C74.32 5.79563 74.9317 5.68921 75.5756 5.68921C76.2245 5.68921 76.8295 5.79732 77.3889 6.01184C77.9483 6.22806 78.4333 6.53043 78.8473 6.92232C79.2614 7.31421 79.5841 7.78211 79.8174 8.32772C80.0523 8.87333 80.1689 9.47299 80.1689 10.1284C80.1689 10.799 80.0455 11.4088 79.8021 11.9578C79.5571 12.5068 79.2225 12.9747 78.8 13.3632C78.3758 13.7517 77.8807 14.0524 77.3095 14.2652C76.74 14.4781 76.1316 14.5845 75.4877 14.5845C74.8388 14.5845 74.227 14.4764 73.6542 14.2618C73.0813 14.0456 72.5844 13.745 72.1602 13.3547C71.7361 12.9662 71.4032 12.5017 71.1581 11.9612C70.9131 11.4206 70.7914 10.8227 70.7914 10.1689ZM75.5435 13.0102C75.9694 13.0102 76.3361 12.9308 76.642 12.7703C76.9478 12.6098 77.1996 12.3987 77.3974 12.1352C77.5951 11.8716 77.7404 11.5676 77.8334 11.2213C77.9263 10.875 77.9736 10.5152 77.9736 10.1436C77.9736 9.75002 77.9229 9.3784 77.8215 9.03043C77.7201 8.68245 77.5664 8.37502 77.3619 8.11151C77.1574 7.84799 76.9005 7.64022 76.5913 7.4882C76.282 7.33617 75.917 7.26016 75.4962 7.26016C75.0652 7.26016 74.6952 7.33955 74.3893 7.50002C74.0834 7.66049 73.8333 7.87333 73.6423 8.1436C73.4514 8.41218 73.3094 8.72468 73.2198 9.07772C73.1286 9.43245 73.0846 9.80576 73.0846 10.1993C73.0846 10.5777 73.1353 10.9375 73.2367 11.277C73.3381 11.6166 73.4902 11.9156 73.6964 12.1706C73.9009 12.4257 74.1578 12.6301 74.4636 12.7821C74.7678 12.9358 75.1295 13.0102 75.5435 13.0102Z" fill="white"/>
<path d="M81.6644 2H83.7093V7.22973C83.8479 6.96284 84.0185 6.73311 84.2247 6.53885C84.4292 6.34459 84.6556 6.18412 84.9041 6.05912C85.1508 5.93412 85.4178 5.84122 85.7034 5.78041C85.989 5.71959 86.278 5.68919 86.5703 5.68919C87.0824 5.68919 87.5285 5.77365 87.9122 5.94426C88.2958 6.11486 88.6152 6.34966 88.8703 6.65034C89.1255 6.95101 89.3182 7.30743 89.4449 7.71959C89.5734 8.13176 89.6359 8.58277 89.6359 9.07263V14.4223H87.5742V9.27365C87.5742 8.65541 87.4187 8.18412 87.1061 7.8598C86.7934 7.53547 86.3405 7.37331 85.744 7.37331C85.0832 7.37331 84.5796 7.55743 84.2298 7.92905C83.88 8.30068 83.7059 8.79054 83.7059 9.40203V14.424H81.6611V2H81.6644Z" fill="white"/>
<path d="M90.9625 10.1689C90.9625 9.49833 91.0909 8.88684 91.3495 8.33617C91.608 7.78549 91.9545 7.31421 92.3922 6.92232C92.8282 6.53043 93.3352 6.22806 93.9131 6.01184C94.4911 5.79563 95.1028 5.68921 95.7467 5.68921C96.3956 5.68921 97.0006 5.79732 97.56 6.01184C98.1194 6.22806 98.6044 6.53043 99.0184 6.92232C99.4325 7.31421 99.7552 7.78211 99.9884 8.32772C100.223 8.87333 100.34 9.47299 100.34 10.1284C100.34 10.799 100.217 11.4088 99.9732 11.9578C99.7282 12.5068 99.3936 12.9747 98.9711 13.3632C98.5469 13.7517 98.0518 14.0524 97.4806 14.2652C96.9111 14.4781 96.3027 14.5845 95.6588 14.5845C95.0099 14.5845 94.3981 14.4764 93.8252 14.2618C93.2524 14.0456 92.7555 13.745 92.3313 13.3547C91.9072 12.9662 91.5742 12.5017 91.3292 11.9612C91.0842 11.4206 90.9625 10.8227 90.9625 10.1689ZM95.7163 13.0102C96.1422 13.0102 96.5089 12.9308 96.8147 12.7703C97.1206 12.6098 97.3724 12.3987 97.5701 12.1352C97.7679 11.8716 97.9132 11.5676 98.0062 11.2213C98.0991 10.875 98.1464 10.5152 98.1464 10.1436C98.1464 9.75002 98.0957 9.3784 97.9943 9.03043C97.8929 8.68245 97.7391 8.37502 97.5347 8.11151C97.3302 7.84799 97.0733 7.64022 96.7641 7.4882C96.4548 7.33617 96.0898 7.26016 95.669 7.26016C95.238 7.26016 94.8679 7.33955 94.5621 7.50002C94.2562 7.66049 94.0061 7.87333 93.8151 8.1436C93.6241 8.41218 93.4822 8.72468 93.3926 9.07772C93.3014 9.43245 93.2574 9.80576 93.2574 10.1993C93.2574 10.5777 93.3081 10.9375 93.4095 11.277C93.5109 11.6166 93.663 11.9156 93.8692 12.1706C94.0737 12.4257 94.3305 12.6301 94.6364 12.7821C94.9389 12.9358 95.3006 13.0102 95.7163 13.0102Z" fill="white"/>
</svg>
