<svg width="296" height="60" viewBox="0 0 296 60" fill="none" xmlns="http://www.w3.org/2000/svg">
<path d="M66.8027 28.5406H72.52L79.2307 45.5068L85.9008 28.5406H91.4762V51.8311H87.2997V34.0743L79.9606 51.8311H77.9534L70.8575 34.0743V51.8311H66.7825V28.5406H66.8027Z" fill="white"/>
<path d="M105.871 49.7433C104.573 51.4662 102.688 52.1352 100.579 52.1352C97.3759 52.1352 94.8619 50.5135 94.8619 47.1689C94.8619 42.446 99.8493 41.696 103.823 41.696H105.83V41.4325C105.83 39 105.262 37.4595 102.505 37.4595C100.843 37.4595 99.3222 38.3108 98.714 39.8919L95.5513 38.5338C96.6866 35.5338 99.8696 34.4392 102.911 34.4392C106.945 34.4392 109.865 36.3852 109.865 40.7027V51.8311H105.85V49.7433H105.871ZM103.782 44.2095C101.897 44.2095 98.9167 44.4325 98.9167 47.0068C98.9167 48.6487 100.113 49.2568 101.633 49.2568C103.701 49.2568 105.83 48.1825 105.83 45.8716V44.2095H103.782Z" fill="white"/>
<path d="M114.183 34.7838H118.258V37.9865C119.414 35.6554 121.259 34.5406 123.854 34.5406V38.3108C120.569 38.3108 118.258 39.3852 118.258 43.0338V51.8311H114.183V34.7838Z" fill="white"/>
<path d="M127.077 27.0811H131.152V42.223L137.316 34.8041H141.796L135.025 42.6081L142.303 51.8311H137.599L131.132 43.5203V51.8311H127.057V27.0811H127.077Z" fill="white"/>
<path d="M158.948 48.1216C157.529 51.1216 154.467 52.1554 151.345 52.1554C145.973 52.1554 142.587 48.5676 142.587 43.2568C142.587 38.2703 146.033 34.4189 151.163 34.4189C156.677 34.4189 159.353 37.6419 159.353 44.2095H146.743C146.743 47.0878 148.406 49.1959 151.507 49.1959C153.352 49.1959 154.873 48.4459 155.765 46.723L158.948 48.1216ZM155.278 41.5338C155.157 38.9595 153.596 37.3784 151.183 37.3784C148.629 37.3784 147.128 39.1824 146.784 41.5338H155.278Z" fill="white"/>
<path d="M171.234 51.7095C170.362 51.973 169.45 52.1149 168.436 52.1149C165.192 52.1149 163.266 50.4324 163.266 47.0473V37.7838H160.975V34.7838H163.266V31.277L167.341 29.5135V34.8041H171.092V37.8041H167.341V46.7027C167.341 48.0405 167.909 48.8716 169.409 48.8716C169.977 48.8716 170.626 48.75 171.234 48.5473V51.7095Z" fill="white"/>
<path d="M176.789 27.5879C178.107 27.5879 179.161 28.5608 179.161 29.9189C179.161 31.2568 178.147 32.2298 176.809 32.2298C175.492 32.2298 174.376 31.2365 174.376 29.8987C174.376 28.5406 175.471 27.5879 176.789 27.5879ZM174.741 34.8243H178.816V51.8311H174.741V34.8243Z" fill="white"/>
<path d="M183.419 34.7838H187.494V37.5C188.589 35.3919 190.88 34.4392 193.252 34.4392C197.347 34.4392 199.192 37.3176 199.192 41.1892V51.8514H195.056V41.5946C195.056 39.2027 193.981 37.8041 191.569 37.8041C189.014 37.8041 187.494 39.3852 187.494 41.8379V51.8514H183.419V34.7838Z" fill="white"/>
<path d="M206.105 52.5811C206.957 54.4662 208.923 55.0338 210.809 55.0338C213.83 55.0338 215.654 53.5946 215.654 50.4932V47.9392C214.499 49.9054 212.208 51.1419 209.937 51.1419C205.112 51.1419 202.314 47.3513 202.314 42.9122C202.314 38.3311 205.315 34.4189 210.038 34.4189C212.35 34.4189 214.458 35.3513 215.654 37.3986V34.7838H219.75V50.554C219.75 55.9054 215.735 58.0743 210.809 58.0743C207.646 58.0743 204.26 57.1824 202.882 53.9797L206.105 52.5811ZM215.816 42.6892C215.816 39.7703 214.235 37.5608 211.153 37.5608C207.889 37.5608 206.511 40.0338 206.511 42.9932C206.511 45.6486 208.173 48 211.012 48C214.195 48 215.816 45.6486 215.816 42.6892Z" fill="white"/>
<path d="M231.529 28.5406H239.618C244.524 28.5406 248.356 30.5068 248.356 35.8784C248.356 41.777 243.693 43.0541 238.706 43.0541H236.03V51.8311H231.529V28.5406ZM239.598 39.8108C242.375 39.8108 243.957 38.6554 243.957 35.8581C243.957 32.9392 242.233 31.9865 239.598 31.9865H236.05V39.8311H239.598V39.8108Z" fill="white"/>
<path d="M251.519 27.8919L255.594 26.1284V51.8311H251.519V27.8919Z" fill="white"/>
<path d="M271.59 49.1554C270.516 51.223 268.326 52.1554 265.974 52.1554C262.061 52.1554 259.993 49.5811 259.993 45.7095V34.8041H264.068V45.2027C264.068 47.5338 265.143 48.9527 267.515 48.9527C270.07 48.9527 271.61 47.3108 271.61 44.8784V34.7838H275.665V51.8108H271.61V49.1554H271.59Z" fill="white"/>
<path d="M281.93 46.7432C282.558 48.4054 284.302 49.2162 286.147 49.2162C287.465 49.2162 289.107 48.8108 289.107 47.1892C289.107 45.4865 287.262 45.0811 285.153 44.6351C282.416 44.0676 279.355 43.3987 279.355 39.5676C279.355 36.0608 282.619 34.3987 285.701 34.3987C288.397 34.3987 291.499 35.4122 292.614 38.1081L289.593 39.4054C288.924 37.8851 287.262 37.3176 285.863 37.3176C284.505 37.3176 283.207 37.8649 283.207 39.2432C283.207 40.8041 284.87 41.1284 286.938 41.5338C289.715 42.0811 293.04 42.7095 293.04 46.6824C293.04 50.696 289.675 52.1149 286.127 52.1149C283.126 52.1149 279.882 51.1014 278.828 48.0405L281.93 46.7432Z" fill="white"/>
<path d="M66.8433 21.1622L74.3446 10.3379H67.6137V8.20947H77.8723V9.26353L70.5534 20.0879H77.6493V22.2162H66.8433V21.1622Z" fill="white"/>
<path d="M84.2789 11.7567C87.4011 11.7567 89.7934 13.9459 89.7934 17.0878C89.7934 20.3108 87.2795 22.4392 84.1775 22.4392C81.0554 22.4392 78.5414 20.2703 78.5414 17.1486C78.5414 13.9054 81.1973 11.7567 84.2789 11.7567ZM87.1578 17.0878C87.1578 15.2027 86.2049 13.6216 84.1775 13.6216C82.1096 13.6216 81.2784 15.2635 81.2784 17.1486C81.2784 18.973 82.2515 20.5135 84.2384 20.5135C86.3063 20.5338 87.1578 18.8919 87.1578 17.0878Z" fill="white"/>
<path d="M91.5978 7.31757H94.0509V13.6013C94.72 12.3243 96.0581 11.7568 97.4772 11.7568C99.9304 11.7568 101.167 13.4797 101.167 15.8108V22.2365H98.6937V16.0541C98.6937 14.5743 97.9233 13.7635 96.5041 13.7635C94.9227 13.7635 94.0509 14.7365 94.0509 16.1959V22.2162H91.5978V7.31757Z" fill="white"/>
<path d="M108.486 11.7567C111.608 11.7567 114 13.9459 114 17.0878C114 20.3108 111.486 22.4392 108.385 22.4392C105.262 22.4392 102.748 20.2703 102.748 17.1486C102.748 13.9054 105.404 11.7567 108.486 11.7567ZM111.365 17.0878C111.365 15.2027 110.412 13.6216 108.385 13.6216C106.317 13.6216 105.485 15.2635 105.485 17.1486C105.485 18.973 106.459 20.5135 108.445 20.5135C110.493 20.5338 111.365 18.8919 111.365 17.0878Z" fill="white"/>
<path d="M53.7462 15.8716C53.7462 15.4662 53.5232 15.0811 53.1786 14.8784L28.7079 0.770283C28.3429 0.56758 27.9172 0.56758 27.5523 0.770283L3.10185 14.8784C2.73692 15.0811 2.53418 15.4662 2.53418 15.8716V44.1081C2.53418 44.5135 2.75719 44.8987 3.10185 45.1014L27.5725 59.2297C27.9375 59.4324 28.3632 59.4324 28.7282 59.2297L53.1988 45.1014H53.2191L53.2394 45.0811C53.2597 45.0608 53.2799 45.0608 53.3002 45.0406L53.3205 45.0203C53.3408 45 53.361 44.9797 53.4016 44.9595C53.4219 44.9392 53.4421 44.9189 53.4624 44.8987L53.4827 44.8784C53.5029 44.8581 53.5029 44.8379 53.5232 44.8176L53.5435 44.7973C53.5638 44.777 53.584 44.7568 53.6043 44.7365L53.6246 44.7162C53.6246 44.7162 53.6449 44.6757 53.6449 44.6554C53.6449 44.6351 53.6651 44.6351 53.6651 44.6149C53.6854 44.5946 53.6854 44.5743 53.6854 44.5541C53.6854 44.5338 53.6854 44.5338 53.7057 44.5135C53.7057 44.4933 53.726 44.473 53.726 44.4527C53.726 44.4324 53.726 44.4324 53.726 44.4122C53.726 44.3919 53.7462 44.3716 53.7462 44.3311V44.3108C53.7462 44.2703 53.7665 44.25 53.7665 44.2095C53.7665 44.2095 53.7665 44.2095 53.7665 44.1892C53.7665 44.1689 53.7665 44.1284 53.7665 44.1081V44.0878L53.7462 15.8716ZM29.2958 42.6081L45.8799 44.5135C46.0016 44.5541 46.1029 44.5743 46.2246 44.5743C46.2449 44.5743 46.2854 44.5743 46.3057 44.5743L49.0021 44.8784L29.2958 56.25V42.6081ZM29.2958 30.6487L45.069 21.527V42.1014L29.2958 40.2973V30.6487ZM26.9846 40.0338L22.869 39.5676V34.3581L26.9846 31.9865V40.0338ZM47.3802 42.3649V20.1892L51.435 17.8378V42.8311L47.3802 42.3649ZM28.1402 3.08109L50.2591 15.8514L37.8717 23.0068L28.7079 17.696C28.3429 17.4933 27.9172 17.4933 27.5523 17.696L18.4087 23.0068L6.0213 15.8514L28.1402 3.08109ZM4.82514 17.8176L17.8005 25.3176C17.841 25.3378 17.8613 25.3581 17.9019 25.3784L23.2745 28.4797C23.8016 28.8243 24.5314 28.6824 24.8761 28.1351C25.2208 27.6081 25.0788 26.8784 24.5314 26.5338C24.4909 26.5135 24.4706 26.4933 24.4301 26.473L20.7402 24.3446L28.1605 20.0473L35.601 24.3649L27.7347 28.9054C27.6131 28.946 27.5117 29.0068 27.4103 29.0878L21.1457 32.696C20.7808 32.8987 20.578 33.2838 20.578 33.6892V40.6014C20.578 41.1892 21.024 41.6757 21.5917 41.7365L26.9846 42.3446V56.25L4.82514 43.4595V17.8176Z" fill="white"/>
</svg>
