<svg width="156" height="50" viewBox="0 0 156 50" fill="none" xmlns="http://www.w3.org/2000/svg">
<g clip-path="url(#clip0_1107_2496)">
<mask id="mask0_1107_2496" style="mask-type:luminance" maskUnits="userSpaceOnUse" x="0" y="5" width="65" height="40">
<path d="M64.4037 5.08606H0V44.7918H64.4037V5.08606Z" fill="white"/>
</mask>
<g mask="url(#mask0_1107_2496)">
<path d="M40.6641 28.1246C41.3064 27.3056 42.4925 27.1614 43.3129 27.8025C44.1333 28.4437 44.2779 29.6274 43.6356 30.4465L35.1197 41.3055C35.1184 41.3069 35.1171 41.3087 35.1157 41.3105C31.9171 45.3605 26.0553 46.0819 21.9684 42.9501L21.8722 42.8755L21.8344 42.8451C21.0495 42.1947 20.9231 41.0347 21.5581 40.2305C22.1929 39.4262 23.3524 39.2776 24.1693 39.8872L24.2079 39.9169L24.2655 39.9619C26.7175 41.8408 30.2338 41.4076 32.1521 38.9783L40.6641 28.1246Z" fill="white"/>
<path d="M38.5102 6.15691C39.8291 5.68124 41.2463 5.50663 42.6381 5.64399C45.4425 5.91991 48.0119 7.45974 49.5712 9.80609L62.9342 29.9092L63.0011 30.011C65.7952 34.3317 64.5962 40.1047 60.2905 42.9569C55.9851 45.8083 50.1902 44.668 47.2874 40.419L47.2194 40.3183L40.5776 30.3275L40.5514 30.2867C40.009 29.4245 40.252 28.283 41.1068 27.7169C41.9748 27.1418 43.1458 27.3782 43.7219 28.2448L50.3637 38.2355C52.0908 40.8333 55.6008 41.5422 58.2038 39.8183C60.8071 38.0937 61.517 34.5897 59.7899 31.9917L46.4269 11.8886L46.4265 11.8884C45.4955 10.4872 43.9455 9.55749 42.2675 9.39249L42.2667 9.39245C41.432 9.31006 40.5801 9.41541 39.7929 9.69934L39.7926 9.69952C39.097 9.95034 38.7238 10.2799 38.1342 11.1286C36.5985 13.3379 34.9977 15.5354 33.4621 17.6928C31.3237 20.698 29.1853 23.7035 27.0461 26.7083C25.1543 29.3661 23.2609 32.0274 21.3681 34.6863C20.9603 35.259 20.5524 35.8319 20.1445 36.4051C19.7366 36.978 19.3287 37.5512 18.9207 38.124C18.317 38.9719 17.1391 39.1708 16.2897 38.5683C15.4403 37.9658 15.2411 36.7901 15.8448 35.9422C16.2526 35.3693 16.6603 34.7964 17.0682 34.2234C17.4761 33.6504 17.884 33.0773 18.2919 32.5043C20.1853 29.8446 22.0768 27.1861 23.9699 24.5265C26.1088 21.5221 28.2472 18.517 30.3856 15.5117C31.9556 13.3061 33.5122 11.1705 35.0334 8.98156C35.8736 7.77249 36.81 6.76999 38.5102 6.15691Z" fill="white"/>
<path d="M20.3956 5.31547C21.5731 5.00636 23.2333 4.7924 25.0838 5.22868C26.9649 5.67215 28.917 6.75932 30.6724 8.85429C31.341 9.65215 31.2349 10.84 30.4356 11.5073C29.6363 12.1746 28.4463 12.0688 27.7777 11.2709C26.5237 9.77429 25.2723 9.1435 24.2164 8.89454C23.1304 8.6385 22.1206 8.7574 21.3547 8.9585L21.3536 8.95875C20.8674 9.08615 20.4333 9.39015 20.1363 9.81968L4.72513 32.1568C4.71973 32.1646 4.71422 32.1724 4.70871 32.1801C2.92699 34.6807 3.49457 38.1418 5.96887 39.9461L6.03317 39.9922L6.1029 40.0422C7.68004 41.1615 9.63838 41.354 11.3296 40.7218C12.3055 40.3568 13.3928 40.8508 13.7584 41.8247C14.1239 42.799 13.6291 43.8843 12.6532 44.2493L12.5871 44.2736C9.78626 45.2968 6.53612 44.9715 3.91622 43.1122C3.91429 43.1107 3.91235 43.1093 3.91042 43.1079L3.84047 43.0579C-0.377134 40.0636 -1.36679 34.2273 1.62162 30.0139L17.0294 7.68172L17.0305 7.68011C17.8291 6.52515 19.0176 5.6765 20.3956 5.31547Z" fill="white"/>
</g>
<path d="M78.7156 16.2807V15.1193L86.9127 3.29594H79.5435V0.962646H90.7702V2.12406L82.7723 13.9474H90.5397V16.2807H78.7156Z" fill="white"/>
<path d="M91.504 10.7038C91.504 7.1882 94.4076 4.83398 97.783 4.83398C101.19 4.83398 103.81 7.21956 103.81 10.6515C103.81 14.1776 101.054 16.49 97.6678 16.49C94.2505 16.49 91.504 14.1253 91.504 10.7038ZM97.7412 14.4287C99.9842 14.4287 100.928 12.629 100.928 10.6724C100.928 8.61116 99.8794 6.8952 97.6782 6.8952C95.414 6.8952 94.5124 8.69488 94.5124 10.7457C94.5124 12.7337 95.5711 14.4287 97.7412 14.4287Z" fill="white"/>
<path d="M105.771 16.2807V0H108.454V6.85339C109.177 5.46179 110.656 4.834 112.207 4.834C114.89 4.834 116.232 6.71736 116.232 9.27036V16.2807H113.528V9.53196C113.528 7.92061 112.689 7.04171 111.127 7.04171C109.408 7.04171 108.454 8.0985 108.454 9.69936V16.2807H105.771Z" fill="white"/>
<path d="M117.983 10.7038C117.983 7.1882 120.886 4.83398 124.262 4.83398C127.668 4.83398 130.289 7.21956 130.289 10.6515C130.289 14.1776 127.532 16.49 124.146 16.49C120.729 16.49 117.983 14.1253 117.983 10.7038ZM124.22 14.4287C126.463 14.4287 127.406 12.629 127.406 10.6724C127.406 8.61116 126.358 6.8952 124.157 6.8952C121.893 6.8952 120.991 8.69488 120.991 10.7457C120.991 12.7337 122.05 14.4287 124.22 14.4287Z" fill="white"/>
<path d="M78.7156 49.5293V23.999H84.9874L92.3602 42.6061L99.6804 23.999H105.812V49.5293H101.235V30.0677L93.1814 49.5293H90.9798L83.1881 30.0677V49.5293H78.7156Z" fill="white"/>
<path d="M129.712 40.81L133.661 42.5014C132.071 47.3493 127.494 49.8779 122.549 49.8779C114.303 49.8779 109.761 44.6639 109.761 36.6421C109.761 29.3178 114.862 23.6328 122.41 23.6328C127.249 23.6328 131.477 25.9521 133.399 30.5211L129.31 32.2475C128.227 29.4398 125.694 27.4867 122.619 27.4867C117.203 27.4867 114.967 32.108 114.967 36.8164C114.967 41.7339 117.413 45.9193 122.742 45.9193C126.113 45.9193 128.559 43.8789 129.712 40.81Z" fill="white"/>
<path d="M137.172 49.5293V23.999H146.065C151.446 23.999 155.656 26.1614 155.656 32.0382C155.656 38.5078 150.537 39.9032 145.069 39.9032H142.134V49.5293H137.172ZM142.134 36.3457H146.03C149.087 36.3457 150.817 35.09 150.817 32.0033C150.817 28.7946 148.93 27.7483 146.03 27.7483H142.134V36.3457Z" fill="white"/>
</g>
<defs>
<clipPath id="clip0_1107_2496">
<rect width="156" height="50" fill="white"/>
</clipPath>
</defs>
</svg>
