<svg width="165" height="50" viewBox="0 0 165 50" fill="none" xmlns="http://www.w3.org/2000/svg">
<path d="M60.3544 23.7837H65.0927L70.6543 37.9222L76.1823 23.7837H80.8029V43.1925H77.3416V28.3952L71.2592 43.1925H69.5957L63.7149 28.3952V43.1925H60.3376V23.7837H60.3544Z" fill="white"/>
<path d="M97.2357 40.1013C96.0596 42.6013 93.5224 43.4628 90.9348 43.4628C86.4822 43.4628 83.6762 40.4729 83.6762 36.0472C83.6762 31.8918 86.5326 28.6824 90.7836 28.6824C95.3539 28.6824 97.5718 31.3682 97.5718 36.8412H87.1207C87.1207 39.2398 88.4985 40.9966 91.0692 40.9966C92.5983 40.9966 93.8584 40.3716 94.5978 38.9358L97.2357 40.1013ZM94.2113 34.6114C94.1105 32.4662 92.8167 31.1486 90.8172 31.1486C88.7001 31.1486 87.4567 32.652 87.1711 34.6114H94.2113Z" fill="white"/>
<path d="M112.912 40.1013C111.736 42.6013 109.199 43.4628 106.612 43.4628C102.159 43.4628 99.3528 40.4729 99.3528 36.0472C99.3528 31.8918 102.209 28.6824 106.46 28.6824C111.031 28.6824 113.248 31.3682 113.248 36.8412H102.797C102.797 39.2398 104.175 40.9966 106.746 40.9966C108.275 40.9966 109.535 40.3716 110.274 38.9358L112.912 40.1013ZM109.871 34.6114C109.77 32.4662 108.477 31.1486 106.477 31.1486C104.36 31.1486 103.117 32.652 102.831 34.6114H109.871Z" fill="white"/>
<path d="M123.095 43.0911C122.372 43.3107 121.616 43.4289 120.776 43.4289C118.088 43.4289 116.491 42.0269 116.491 39.206V31.4864H114.593V28.9864H116.491V26.0641L119.869 24.5945V29.0033H122.977V31.5033H119.869V38.9188C119.869 40.0337 120.339 40.7262 121.582 40.7262C122.053 40.7262 122.591 40.6249 123.095 40.456V43.0911Z" fill="white"/>
<path d="M127.699 22.9897C128.791 22.9897 129.664 23.8006 129.664 24.9323C129.664 26.0472 128.824 26.858 127.715 26.858C126.623 26.858 125.699 26.0303 125.699 24.9154C125.699 23.7837 126.606 22.9897 127.699 22.9897ZM126.002 29.0202H129.379V43.1924H126.002V29.0202Z" fill="white"/>
<path d="M133.193 28.9864H136.57V31.2499C137.478 29.4931 139.376 28.6992 141.342 28.6992C144.736 28.6992 146.265 31.0979 146.265 34.3242V43.2094H142.838V34.6621C142.838 32.6688 141.947 31.5033 139.948 31.5033C137.83 31.5033 136.57 32.8208 136.57 34.8648V43.2094H133.193V28.9864Z" fill="white"/>
<path d="M151.995 43.8175C152.701 45.3885 154.33 45.8614 155.893 45.8614C158.397 45.8614 159.909 44.6621 159.909 42.0776V39.9493C158.951 41.5878 157.052 42.6182 155.171 42.6182C151.172 42.6182 148.853 39.4594 148.853 35.7601C148.853 31.9425 151.34 28.6824 155.255 28.6824C157.17 28.6824 158.918 29.4594 159.909 31.1655V28.9864H163.303V42.1283C163.303 46.5878 159.976 48.3952 155.893 48.3952C153.272 48.3952 150.466 47.652 149.323 44.983L151.995 43.8175ZM160.043 35.5743C160.043 33.1418 158.733 31.3006 156.179 31.3006C153.474 31.3006 152.331 33.3614 152.331 35.8276C152.331 38.0405 153.709 39.9999 156.061 39.9999C158.699 39.9999 160.043 38.0405 160.043 35.5743Z" fill="white"/>
<path d="M60.3712 17.635L66.5881 8.61471H61.0097V6.84106H69.5117V7.71944L63.446 16.7397H69.3269V18.5134H60.3712V17.635Z" fill="white"/>
<path d="M74.8381 9.79712C77.4256 9.79712 79.4083 11.6214 79.4083 14.2397C79.4083 16.9255 77.3248 18.6991 74.7541 18.6991C72.1665 18.6991 70.083 16.8917 70.083 14.2904C70.083 11.5877 72.2841 9.79712 74.8381 9.79712ZM77.224 14.2397C77.224 12.6687 76.4343 11.3512 74.7541 11.3512C73.0402 11.3512 72.3513 12.7194 72.3513 14.2904C72.3513 15.8106 73.1578 17.0944 74.8045 17.0944C76.5015 17.1113 77.224 15.7431 77.224 14.2397Z" fill="white"/>
<path d="M80.887 6.0979H82.9201V11.3344C83.4745 10.2702 84.5835 9.79723 85.7597 9.79723C87.7928 9.79723 88.8177 11.233 88.8177 13.1756V18.5303H86.7678V13.3783C86.7678 12.1452 86.1293 11.4695 84.9532 11.4695C83.6426 11.4695 82.9201 12.2803 82.9201 13.4965V18.5134H80.887V6.0979Z" fill="white"/>
<path d="M94.8834 9.79712C97.471 9.79712 99.4537 11.6214 99.4537 14.2397C99.4537 16.9255 97.3701 18.6991 94.7994 18.6991C92.2118 18.6991 90.1283 16.8917 90.1283 14.2904C90.1283 11.5877 92.3294 9.79712 94.8834 9.79712ZM97.2693 14.2397C97.2693 12.6687 96.4796 11.3512 94.7994 11.3512C93.0855 11.3512 92.3966 12.7194 92.3966 14.2904C92.3966 15.8106 93.2031 17.0944 94.8498 17.0944C96.5636 17.1113 97.2693 15.7431 97.2693 14.2397Z" fill="white"/>
<path d="M42.7454 18.1757H39.2337L41.1492 15.152C42.1237 13.6149 42.443 11.8074 42.0565 10.0338C41.67 8.26014 40.6115 6.73987 39.0825 5.76014C35.9404 3.75 31.7566 4.67906 29.7403 7.83784L25.1869 15.0169L20.5998 7.78717C18.6003 4.62838 14.3997 3.69933 11.2576 5.72636C9.7286 6.70609 8.67005 8.22636 8.28359 10C7.89714 11.7737 8.21638 13.598 9.19093 15.1182L11.14 18.1757H7.56109C3.83095 18.1757 0.789703 21.2331 0.789703 24.9831C0.789703 28.7331 3.83095 31.7905 7.56109 31.7905H11.1568L9.20773 34.848C8.23319 36.3851 7.91394 38.1926 8.3004 39.9662C8.68685 41.7399 9.74541 43.2601 11.2744 44.2399C12.4002 44.9662 13.6604 45.3041 14.9038 45.3041C17.1385 45.3041 19.3228 44.1892 20.6166 42.1622L25.1869 34.9831L29.7739 42.2128C31.0677 44.2399 33.252 45.3547 35.4867 45.3547C36.7301 45.3547 37.9903 45.0169 39.1161 44.2905C40.6451 43.3108 41.7037 41.7905 42.0901 40.0169C42.4766 38.2432 42.1573 36.4189 41.1828 34.8987L39.2001 31.7905H42.779C46.5092 31.7905 49.5504 28.7331 49.5504 24.9831C49.5168 21.2331 46.4755 18.1757 42.7454 18.1757ZM18.197 40.6081C17.0377 42.4324 14.6181 42.9561 12.8035 41.8074C11.9297 41.25 11.3248 40.3716 11.0896 39.3412C10.8712 38.3108 11.056 37.2635 11.6105 36.3851L16.3824 28.8851H7.56109C5.41038 28.8851 3.66292 27.1284 3.66292 24.9662C3.66292 22.8041 5.41038 21.0473 7.56109 21.0473H16.3824L11.6105 13.5642C11.056 12.6858 10.8712 11.6385 11.0896 10.6081C11.308 9.57771 11.9129 8.71622 12.8035 8.1419C14.6181 6.97636 17.0377 7.5169 18.197 9.34122L23.9435 18.3615C23.9771 18.4122 24.0107 18.4797 24.0443 18.5304L28.1441 24.9662L24.0275 31.4358C23.9771 31.5034 23.9435 31.571 23.9099 31.6385L18.197 40.6081ZM42.7454 28.8851H33.9409L38.7464 36.4358C39.3009 37.3142 39.4857 38.3615 39.2673 39.3919C39.0489 40.4223 38.444 41.2838 37.5535 41.8581C35.7388 43.0237 33.3192 42.4831 32.1599 40.6588L26.8671 32.2973L31.5214 24.9662L26.8839 17.6858L32.1599 9.3919C33.3192 7.56757 35.7388 7.04392 37.5535 8.19257C38.4272 8.75 39.0321 9.62838 39.2673 10.6588C39.4857 11.6892 39.3009 12.7365 38.7464 13.6149L34.0081 21.0642H42.7454C44.8961 21.0642 46.6436 22.8209 46.6436 24.9831C46.6436 27.1453 44.8961 28.8851 42.7454 28.8851Z" fill="white"/>
</svg>
