<svg width="194" height="50" viewBox="0 0 194 50" fill="none" xmlns="http://www.w3.org/2000/svg">
<path d="M64.4536 23.782H68.9021L77.3621 37.6485V23.782H80.7512V43.1891H76.8594L67.8443 28.4222V43.1891H64.4552V23.782H64.4536Z" fill="white"/>
<path d="M91.1159 28.6875C95.4176 28.6875 98.7274 31.7095 98.7274 36.0574C98.7274 40.5253 95.2456 43.4544 90.9691 43.4544C86.6539 43.4544 83.1855 40.4578 83.1855 36.1233C83.1855 31.6689 86.853 28.6875 91.1159 28.6875ZM95.087 36.0845C95.087 33.473 93.7627 31.299 90.9826 31.299C88.1232 31.299 86.9845 33.5794 86.9845 36.1774C86.9845 38.6959 88.3223 40.8429 91.0619 40.8429C93.896 40.8429 95.087 38.5625 95.087 36.0845Z" fill="white"/>
<path d="M108.379 43.0829C107.65 43.2957 106.896 43.4275 106.049 43.4275C103.348 43.4275 101.747 42.0221 101.747 39.1994V31.4849H99.8409V28.9934H101.747V26.0643L105.136 24.593V28.9934H108.26V31.4849H105.136V38.8954C105.136 40.0086 105.614 40.6977 106.857 40.6977C107.334 40.6977 107.862 40.5913 108.38 40.419V43.0829H108.379Z" fill="white"/>
<path d="M123.602 40.0996C122.424 42.6047 119.882 43.4527 117.274 43.4527C112.798 43.4527 109.979 40.4561 109.979 36.0422C109.979 31.88 112.852 28.6858 117.115 28.6858C121.695 28.6858 123.934 31.3632 123.934 36.8378H113.436C113.436 39.2365 114.826 40.9865 117.407 40.9865C118.942 40.9865 120.214 40.3632 120.955 38.9189L123.602 40.0996ZM120.557 34.6115C120.45 32.4645 119.153 31.152 117.154 31.152C115.023 31.152 113.778 32.6503 113.487 34.6115H120.557Z" fill="white"/>
<path d="M126.658 22.5625H130.047V31.2855C131.028 29.6554 133 28.6875 134.879 28.6875C139.194 28.6875 141.326 32.1605 141.326 36.0439C141.326 40.0473 139.076 43.4544 134.985 43.4544C132.986 43.4544 130.974 42.6453 130.047 40.9088V43.1892H126.658V22.5625ZM137.833 35.9645C137.833 33.5524 136.655 31.3378 133.862 31.3378C131.055 31.3378 129.929 33.5912 129.929 36.1098C129.929 38.7736 131.2 40.8024 134.02 40.8024C136.998 40.8024 137.833 38.576 137.833 35.9645Z" fill="white"/>
<path d="M150.647 28.6875C154.949 28.6875 158.258 31.7095 158.258 36.0574C158.258 40.5253 154.777 43.4544 150.5 43.4544C146.185 43.4544 142.717 40.4578 142.717 36.1233C142.717 31.6689 146.384 28.6875 150.647 28.6875ZM154.618 36.0845C154.618 33.473 153.294 31.299 150.514 31.299C147.654 31.299 146.516 33.5794 146.516 36.1774C146.516 38.6959 147.853 40.8429 150.593 40.8429C153.427 40.8429 154.618 38.5625 154.618 36.0845Z" fill="white"/>
<path d="M167.274 28.6875C171.575 28.6875 174.885 31.7095 174.885 36.0574C174.885 40.5253 171.403 43.4544 167.127 43.4544C162.812 43.4544 159.343 40.4578 159.343 36.1233C159.343 31.6689 163.011 28.6875 167.274 28.6875ZM171.245 36.0845C171.245 33.473 169.92 31.299 167.14 31.299C164.281 31.299 163.142 33.5794 163.142 36.1774C163.142 38.6959 164.48 40.8429 167.22 40.8429C170.054 40.8429 171.245 38.5625 171.245 36.0845Z" fill="white"/>
<path d="M177.36 22.5625H180.749V35.1824L185.886 28.9916H189.605L183.979 35.5L190.029 43.1892H186.124L180.749 36.2703V43.1892H177.36V22.5625Z" fill="white"/>
<path d="M64.4805 17.6402L70.7172 8.61659H65.1115V6.83618H73.6525V7.72301L67.5677 16.7467H73.4771V18.5271H64.4822V17.6402H64.4805Z" fill="white"/>
<path d="M78.9951 9.79053C81.5863 9.79053 83.5803 11.6115 83.5803 14.2297C83.5803 16.9206 81.4834 18.6858 78.9074 18.6858C76.3078 18.6858 74.2177 16.8817 74.2177 14.2703C74.2177 11.5861 76.4259 9.79053 78.9951 9.79053ZM81.3872 14.2449C81.3872 12.6723 80.5893 11.3632 78.9158 11.3632C77.1934 11.3632 76.5068 12.7365 76.5068 14.3024C76.5068 15.8192 77.3115 17.1132 78.9631 17.1132C80.6686 17.1115 81.3872 15.7382 81.3872 14.2449Z" fill="white"/>
<path d="M85.0715 6.10132H87.1128V11.331C87.6627 10.2685 88.7879 9.79051 89.9671 9.79051C92.0083 9.79051 93.0289 11.228 93.0289 13.1756V18.5253H90.9708V13.375C90.9708 12.1452 90.3332 11.4746 89.1439 11.4746C87.8365 11.4746 87.1111 12.2804 87.1111 13.5033V18.5253H85.0699V6.10132H85.0715Z" fill="white"/>
<path d="M99.1306 9.79053C101.722 9.79053 103.716 11.6115 103.716 14.2297C103.716 16.9206 101.619 18.6858 99.0429 18.6858C96.4433 18.6858 94.3532 16.8817 94.3532 14.2703C94.3532 11.5861 96.5631 9.79053 99.1306 9.79053ZM101.523 14.2449C101.523 12.6723 100.725 11.3632 99.0513 11.3632C97.329 11.3632 96.6424 12.7365 96.6424 14.3024C96.6424 15.8192 97.447 17.1132 99.0986 17.1132C100.806 17.1115 101.523 15.7382 101.523 14.2449Z" fill="white"/>
<path d="M10.1302 42.7973C8.93074 42.7973 7.89326 41.8885 7.75999 40.6588V40.6537L4.67286 11.2753C4.60538 10.6385 4.78757 10.0118 5.19413 9.51519C5.59563 9.02195 6.16413 8.71114 6.79505 8.64357H6.80011L20.3616 7.21789C21.1494 7.13681 21.8528 7.70607 21.9389 8.49492C22.0249 9.28377 21.4513 9.98816 20.6635 10.0743L7.57274 11.4527L10.5587 39.8784L12.7416 39.6486C13.5294 39.5676 14.2328 40.1368 14.3189 40.9257C14.3999 41.7145 13.8313 42.4189 13.0435 42.5051L10.3916 42.7821C10.3022 42.7922 10.2162 42.7973 10.1302 42.7973Z" fill="white"/>
<path d="M47.0964 40.8783C46.9817 40.8783 46.867 40.8682 46.7523 40.8546L44.1105 40.4813C43.3261 40.3715 42.7829 39.6435 42.8926 38.8597C43.0022 38.0742 43.7293 37.5303 44.512 37.6401L46.6815 37.9459L50.6526 9.63505L22.3792 5.6587L21.1274 14.5827C21.0178 15.3682 20.2907 15.9121 19.508 15.8023C18.7235 15.6925 18.1803 14.9644 18.29 14.1807L19.6092 4.7837C19.6952 4.15194 20.0242 3.59282 20.5404 3.20431C21.0515 2.82086 21.6774 2.6587 22.3083 2.74992L51.5264 6.85802C52.1573 6.94417 52.7157 7.27356 53.1037 7.79046C53.4866 8.30228 53.6486 8.92897 53.5575 9.56073L49.4531 38.8192C49.3671 39.4509 49.0381 40.0101 48.5219 40.3986C48.1036 40.7161 47.6076 40.8783 47.0964 40.8783Z" fill="white"/>
<path d="M43.3497 47.2752H13.8482C12.529 47.2752 11.4595 46.2026 11.4595 44.8833V15.3377C11.4595 14.0167 12.529 12.9458 13.8482 12.9458H43.3548C44.674 12.9458 45.7435 14.0167 45.7435 15.3377V44.8833C45.7435 44.8884 45.7435 44.8934 45.7435 44.8968C45.73 46.2093 44.6588 47.2752 43.3497 47.2752ZM14.3256 44.4053H42.8774V15.8157H14.3256V44.4053Z" fill="white"/>
<path d="M37.2092 23.0032H20.0073C19.2144 23.0032 18.5734 22.3613 18.5734 21.5674C18.5734 20.7735 19.2144 20.1316 20.0073 20.1316H37.2092C38.0021 20.1316 38.6431 20.7735 38.6431 21.5674C38.6431 22.3613 38.0021 23.0032 37.2092 23.0032Z" fill="white"/>
<path d="M37.2092 28.6958H20.0073C19.2144 28.6958 18.5734 28.0539 18.5734 27.26C18.5734 26.4661 19.2144 25.8242 20.0073 25.8242H37.2092C38.0021 25.8242 38.6431 26.4661 38.6431 27.26C38.6431 28.0539 38.0021 28.6958 37.2092 28.6958Z" fill="white"/>
<path d="M37.2092 34.3902H20.0073C19.2144 34.3902 18.5734 33.7483 18.5734 32.9544C18.5734 32.1604 19.2144 31.5186 20.0073 31.5186H37.2092C38.0021 31.5186 38.6431 32.1604 38.6431 32.9544C38.6431 33.7483 38.0021 34.3902 37.2092 34.3902Z" fill="white"/>
<path d="M28.5838 40.0843H20.0259C19.233 40.0843 18.5919 39.4424 18.5919 38.6485C18.5919 37.8545 19.233 37.2126 20.0259 37.2126H28.5838C29.3767 37.2126 30.0177 37.8545 30.0177 38.6485C30.0177 39.4424 29.3783 40.0843 28.5838 40.0843Z" fill="white"/>
</svg>
