<?xml version="1.0" encoding="utf-8"?>

<svg version="1.1" id="Layer_1" xmlns="http://www.w3.org/2000/svg" xmlns:xlink="http://www.w3.org/1999/xlink" x="0px" y="0px" viewBox="0 0 644 296" style="enable-background:new 0 0 644 296;" xml:space="preserve">

<g>
&#x9;<g>
&#x9;&#x9;<path class="st0" d="M324,197.8c0-33.9,25-58.6,59.6-58.6s58,24.7,58,58.9c0,34.7-24.2,59.2-59,59.2&#xA;&#x9;&#x9;&#x9;C347.7,257.2,324,232.7,324,197.8z M418.4,198.2c0-22.5-11.8-41.4-36.2-41.4c-24.6,0-35.1,19.1-35.1,42.1&#xA;&#x9;&#x9;&#x9;c0,21.6,12.9,40.7,36.5,40.7C407.9,239.6,418.4,219.5,418.4,198.2z"></path>
&#x9;&#x9;<path class="st0" d="M458.5,171.6h20.1V185c5.4-10.4,16.7-15.1,28.4-15.1c20.2,0,29.3,14.2,29.3,33.3v52.6h-20.4v-50.6&#xA;&#x9;&#x9;&#x9;c0-11.8-5.3-18.7-17.2-18.7c-12.6,0-20.1,7.8-20.1,19.9v49.4h-20.1L458.5,171.6L458.5,171.6z"></path>
&#x9;&#x9;<path class="st0" d="M632.4,237.4c-7,14.8-22.1,19.9-37.5,19.9c-26.5,0-43.2-17.7-43.2-43.9c0-24.6,17-43.6,42.3-43.6&#xA;&#x9;&#x9;&#x9;c27.2,0,40.4,15.9,40.4,48.3h-62.2c0,14.2,8.2,24.6,23.5,24.6c9.1,0,16.6-3.7,21-12.2L632.4,237.4z M614.4,204.9&#xA;&#x9;&#x9;&#x9;c-0.6-12.7-8.3-20.5-20.2-20.5c-12.6,0-20,8.9-21.7,20.5H614.4z"></path>
&#x9;</g>
&#x9;<g>
&#x9;&#x9;<path class="st0" d="M330,104.4L367,51h-33.2V40.5h50.6v5.2l-36.1,53.4h35v10.5H330V104.4z"></path>
&#x9;&#x9;<path class="st0" d="M416,58c15.4,0,27.2,10.8,27.2,26.3c0,15.9-12.4,26.4-27.7,26.4c-15.4,0-27.8-10.7-27.8-26.1&#xA;&#x9;&#x9;&#x9;C387.7,68.6,400.8,58,416,58z M430.2,84.3c0-9.3-4.7-17.1-14.7-17.1c-10.2,0-14.3,8.1-14.3,17.4c0,9,4.8,16.6,14.6,16.6&#xA;&#x9;&#x9;&#x9;C426,101.3,430.2,93.2,430.2,84.3z"></path>
&#x9;&#x9;<path class="st0" d="M452.1,36.1h12.1v31c3.3-6.3,9.9-9.1,16.9-9.1c12.1,0,18.2,8.5,18.2,20v31.7H487V79.2&#xA;&#x9;&#x9;&#x9;c0-7.3-3.8-11.3-10.8-11.3c-7.8,0-12.1,4.8-12.1,12v29.7H452V36.1H452.1z"></path>
&#x9;&#x9;<path class="st0" d="M535.4,58c15.4,0,27.2,10.8,27.2,26.3c0,15.9-12.4,26.4-27.7,26.4c-15.4,0-27.8-10.7-27.8-26.1&#xA;&#x9;&#x9;&#x9;C507.1,68.6,520.2,58,535.4,58z M549.6,84.3c0-9.3-4.7-17.1-14.7-17.1c-10.2,0-14.3,8.1-14.3,17.4c0,9,4.8,16.6,14.6,16.6&#xA;&#x9;&#x9;&#x9;C545.3,101.3,549.6,93.2,549.6,84.3z"></path>
&#x9;</g>
</g>
<path class="st0" d="M265.1,76.1c-0.6-1.4-1.7-2.5-3.1-3.1l-120-69.2c-1.8-1-3.9-1-5.7,0L15.6,73.3c-2.1,1.2-3.1,3.6-2.8,5.8v138.6&#xA;&#x9;c0,2,1,3.9,2.8,4.9l119.9,69.1c0.7,0.6,1.5,0.9,2.4,1.1c0,0,0.1,0,0.1,0c0.1,0,0.3,0,0.4,0.1c0.2,0,0.4,0,0.6,0c0.2,0,0.4,0,0.7,0&#xA;&#x9;c0.1,0,0.1,0,0.2,0c0.1,0,0.3,0,0.4-0.1c0.1,0,0.2-0.1,0.3-0.1c0.1,0,0.1,0,0.2-0.1c0.4-0.1,0.8-0.3,1.2-0.6l120.6-69.7&#xA;&#x9;c1.7-1,2.8-2.9,2.8-4.9V79.2C265.7,78.2,265.5,77.1,265.1,76.1z M139.1,15.2l109.4,63.2l-61,35.2l-45.6-26.4c-1.8-1-3.9-1-5.7,0&#xA;&#x9;l-45.4,26.3l-61-35.2L139.1,15.2z M139.2,141.4l-37-21.4l36.9-21.2l37,21.4L139.2,141.4z M96.6,130l36.8,21.2v42.6l-36.8-21.2V130z&#xA;&#x9; M144.8,193.9v-42.5l36.9-21.3v42.5L144.8,193.9z M24.2,88.3l61,35.2v52.5c0,2,1,3.9,2.8,4.9l45.4,26.1v70.6l-109.2-63V88.3z&#xA;&#x9; M144.8,277.5V207l45.5-26.3c1.7-1,2.8-2.9,2.8-4.9v-52.3l61-35.2v126L144.8,277.5z"></path>
</svg>