<svg width="130" height="60" viewBox="0 0 130 60" fill="none" xmlns="http://www.w3.org/2000/svg">
<path d="M65.4037 40.0946C65.4037 33.223 70.4503 28.2162 77.4347 28.2162C84.4192 28.2162 89.1428 33.223 89.1428 40.1554C89.1428 47.1892 84.2577 52.1554 77.2329 52.1554C70.1878 52.1351 65.4037 47.1689 65.4037 40.0946ZM84.4596 40.1757C84.4596 35.6149 82.0776 31.7838 77.1521 31.7838C72.1863 31.7838 70.0667 35.6554 70.0667 40.3176C70.0667 44.6959 72.6708 48.5676 77.4347 48.5676C82.34 48.5676 84.4596 44.4932 84.4596 40.1757Z" fill="white"/>
<path d="M92.5543 34.7838H96.6118V37.5C97.7018 35.3919 99.9829 34.4392 102.345 34.4392C106.422 34.4392 108.259 37.3176 108.259 41.1892V51.8514H104.141V41.5946C104.141 39.2027 103.071 37.8041 100.669 37.8041C98.1258 37.8041 96.6118 39.3851 96.6118 41.8378V51.8514H92.5543V34.7838Z" fill="white"/>
<path d="M127.658 48.1216C126.245 51.1216 123.197 52.1554 120.088 52.1554C114.739 52.1554 111.368 48.5676 111.368 43.2568C111.368 38.2703 114.8 34.4189 119.907 34.4189C125.397 34.4189 128.062 37.6419 128.062 44.2095H115.506C115.506 47.0878 117.161 49.1959 120.25 49.1959C122.087 49.1959 123.601 48.4459 124.489 46.723L127.658 48.1216ZM124.025 41.5338C123.904 38.9595 122.349 37.3784 119.947 37.3784C117.404 37.3784 115.91 39.1824 115.567 41.5338H124.025Z" fill="white"/>
<path d="M66.6149 21.1622L74.0838 10.3378H67.3819V8.20946H77.5962V9.26351L70.309 20.0878H77.3742V22.2162H66.6149V21.1622Z" fill="white"/>
<path d="M83.9751 11.7568C87.0838 11.7568 89.4657 13.9459 89.4657 17.0878C89.4657 20.3108 86.9626 22.4392 83.8741 22.4392C80.7654 22.4392 78.2623 20.2703 78.2623 17.1486C78.2623 13.9054 80.9067 11.7568 83.9751 11.7568ZM86.8415 17.0878C86.8415 15.2027 85.8928 13.6216 83.8741 13.6216C81.8151 13.6216 80.9875 15.2635 80.9875 17.1486C80.9875 18.973 81.9564 20.5135 83.9347 20.5135C85.9937 20.5338 86.8415 18.8919 86.8415 17.0878Z" fill="white"/>
<path d="M91.2624 7.31757H93.7049V13.6013C94.3711 12.3243 95.7034 11.7568 97.1164 11.7568C99.559 11.7568 100.79 13.4797 100.79 15.8108V22.2365H98.3074V16.0541C98.3074 14.5743 97.5403 13.7635 96.1273 13.7635C94.5527 13.7635 93.6847 14.7365 93.6847 16.1959V22.2162H91.2422V7.31757H91.2624Z" fill="white"/>
<path d="M108.078 11.7568C111.186 11.7568 113.568 13.9459 113.568 17.0878C113.568 20.3108 111.065 22.4392 107.977 22.4392C104.868 22.4392 102.365 20.2703 102.365 17.1486C102.365 13.9054 105.009 11.7568 108.078 11.7568ZM110.944 17.0878C110.944 15.2027 109.995 13.6216 107.977 13.6216C105.918 13.6216 105.09 15.2635 105.09 17.1486C105.09 18.973 106.059 20.5135 108.037 20.5135C110.076 20.5338 110.944 18.8919 110.944 17.0878Z" fill="white"/>
<path d="M28.0793 59.3919C27.6755 59.3919 27.292 59.1892 27.0901 58.8243C26.7672 58.277 26.969 57.5676 27.5141 57.2432L51.2936 43.4595V15.8716C51.2936 15.223 51.8184 14.7162 52.4442 14.7162C53.07 14.7162 53.5948 15.223 53.5948 15.8716V44.1081C53.5948 44.5135 53.3728 44.8986 53.0296 45.1014L28.6647 59.2297C28.4628 59.3311 28.2609 59.3919 28.0793 59.3919Z" fill="white"/>
<path d="M28.0791 59.3919C27.8772 59.3919 27.6955 59.3311 27.5139 59.2297L3.14896 45.1216C2.7856 44.9189 2.58374 44.5338 2.58374 44.1284V15.8919C2.58374 15.2432 3.0884 14.7365 3.73436 14.7365C4.38032 14.7365 4.88498 15.2432 4.88498 15.8919V43.4797L28.6645 57.2635C29.2095 57.5878 29.3912 58.2973 29.0884 58.8446C28.8462 59.1892 28.4626 59.3919 28.0791 59.3919Z" fill="white"/>
<path d="M52.4239 17.027C52.222 17.027 52.0404 16.9662 51.8587 16.8649L28.0792 3.08108L4.29968 16.8649C3.75465 17.1892 3.04813 16.9865 2.72515 16.4392C2.40217 15.8919 2.60403 15.1824 3.14906 14.8581L27.4938 0.770271C27.8571 0.567568 28.281 0.567568 28.6444 0.770271L53.0093 14.8784C53.5543 15.2027 53.736 15.9122 53.4332 16.4595C53.2112 16.8243 52.8276 17.027 52.4239 17.027Z" fill="white"/>
<path d="M28.0793 42.4459C27.6755 42.4459 27.292 42.2432 27.0901 41.8784C26.7672 41.3311 26.969 40.6216 27.5141 40.2973L36.6786 34.9865V24.3446C36.6786 23.7162 37.2035 23.1892 37.8293 23.1892C38.455 23.1892 38.9799 23.7162 38.9799 24.3446V35.6351C38.9799 36.0405 38.7578 36.4257 38.4147 36.6284L28.6647 42.2838C28.4628 42.4054 28.2609 42.4459 28.0793 42.4459Z" fill="white"/>
<path d="M28.0792 42.4459C27.8773 42.4459 27.6956 42.3851 27.514 42.2838L17.7639 36.6487C17.4006 36.4459 17.1987 36.0608 17.1987 35.6554V24.3649C17.1987 23.7365 17.7236 23.2095 18.3494 23.2095C18.9751 23.2095 19.5 23.7365 19.5 24.3649V34.9865L28.6646 40.2973C29.2096 40.6216 29.3913 41.3311 29.0885 41.8784C28.8462 42.2432 28.4627 42.4459 28.0792 42.4459Z" fill="white"/>
<path d="M37.809 25.5C37.6071 25.5 37.4255 25.4392 37.2438 25.3378L28.0792 20.027L18.8944 25.3378C18.3494 25.6622 17.6429 25.4595 17.3199 24.9122C16.9969 24.3649 17.1988 23.6554 17.7438 23.3311L27.4938 17.6757C27.8571 17.473 28.2811 17.473 28.6444 17.6757L38.3944 23.3311C38.9394 23.6554 39.1211 24.3649 38.8183 24.9122C38.5963 25.2973 38.2127 25.5 37.809 25.5Z" fill="white"/>
<path d="M28.0793 31.1554C27.8774 31.1554 27.6957 31.0946 27.514 30.9932L3.14913 16.8851C2.60409 16.5608 2.42242 15.8514 2.72521 15.3041C3.04819 14.7568 3.75472 14.5743 4.29975 14.8784L28.6647 28.9865C29.2097 29.3108 29.3914 30.0203 29.0886 30.5676C28.8463 30.9527 28.4628 31.1554 28.0793 31.1554Z" fill="white"/>
<path d="M28.0793 31.1554C27.6755 31.1554 27.292 30.9527 27.0901 30.5878C26.7672 30.0405 26.969 29.3311 27.5141 29.0068L51.879 14.8987C52.424 14.5743 53.1305 14.777 53.4535 15.3243C53.7765 15.8716 53.5746 16.5811 53.0296 16.9054L28.6647 31.0135C28.4628 31.0946 28.2609 31.1554 28.0793 31.1554Z" fill="white"/>
<path d="M28.0791 59.3919C27.4533 59.3919 26.9285 58.8649 26.9285 58.2365V30C26.9285 29.3716 27.4533 28.8446 28.0791 28.8446C28.7049 28.8446 29.2297 29.3716 29.2297 30V58.2365C29.2095 58.8649 28.7049 59.3919 28.0791 59.3919Z" fill="white"/>
</svg>
