<svg width="244" height="60" viewBox="0 0 244 60" fill="none" xmlns="http://www.w3.org/2000/svg">
<path d="M66.4334 28.5406H74.4927C79.3808 28.5406 83.1983 30.5068 83.1983 35.8784C83.1983 41.777 78.5526 43.0541 73.5837 43.0541H70.9175V51.8311H66.4132V28.5406H66.4334ZM74.4725 39.8108C77.2397 39.8108 78.8152 38.6554 78.8152 35.8581C78.8152 32.9392 77.0983 31.9865 74.4725 31.9865H70.9377V39.8311H74.4725V39.8108Z" fill="white"/>
<path d="M100.69 48.1216C99.2764 51.1216 96.2264 52.1554 93.1158 52.1554C87.7632 52.1554 84.39 48.5676 84.39 43.2568C84.39 38.2703 87.8238 34.4189 92.9341 34.4189C98.4281 34.4189 101.094 37.6419 101.094 44.2095H88.5307C88.5307 47.0878 90.187 49.1959 93.2774 49.1959C95.1155 49.1959 96.6304 48.4459 97.5192 46.723L100.69 48.1216ZM97.0546 41.5338C96.9334 38.9595 95.3781 37.3784 92.9745 37.3784C90.4294 37.3784 88.9347 39.1824 88.5913 41.5338H97.0546Z" fill="white"/>
<path d="M112.183 34.4189C117.334 34.4189 121.293 38.0473 121.293 43.2568C121.293 48.6081 117.132 52.1351 112.002 52.1351C106.831 52.1351 102.69 48.5473 102.69 43.3378C102.69 38.0068 107.073 34.4189 112.183 34.4189ZM116.93 43.2973C116.93 40.1554 115.355 37.5608 112.022 37.5608C108.588 37.5608 107.235 40.2973 107.235 43.4189C107.235 46.4392 108.83 49.0135 112.123 49.0135C115.516 49.0135 116.93 46.277 116.93 43.2973Z" fill="white"/>
<path d="M124.262 34.7838H128.322V37.5405C129.494 35.554 131.877 34.4189 134.139 34.4189C139.33 34.4189 141.835 38.5946 141.835 43.2568C141.835 48.0405 139.169 52.1554 134.261 52.1554C131.877 52.1554 129.473 51.2027 128.342 49.1554V57.6689H124.282V34.7838H124.262ZM137.634 43.1554C137.634 40.277 136.2 37.6013 132.887 37.6013C129.534 37.6013 128.181 40.2973 128.181 43.3581C128.181 46.5203 129.635 48.9527 133.008 48.9527C136.604 48.973 137.634 46.2973 137.634 43.1554Z" fill="white"/>
<path d="M145.269 27.8919L149.329 26.1284V51.8311H145.269V27.8919Z" fill="white"/>
<path d="M169.063 48.1216C167.649 51.1216 164.599 52.1554 161.488 52.1554C156.136 52.1554 152.763 48.5676 152.763 43.2568C152.763 38.2703 156.196 34.4189 161.307 34.4189C166.801 34.4189 169.467 37.6419 169.467 44.2095H156.903C156.903 47.0878 158.56 49.1959 161.65 49.1959C163.488 49.1959 165.003 48.4459 165.892 46.723L169.063 48.1216ZM165.407 41.5338C165.286 38.9595 163.73 37.3784 161.327 37.3784C158.782 37.3784 157.287 39.1824 156.944 41.5338H165.407Z" fill="white"/>
<path d="M180.011 28.5406H188.07C192.958 28.5406 196.775 30.5068 196.775 35.8784C196.775 41.777 192.13 43.0541 187.161 43.0541H184.495V51.8311H179.99V28.5406H180.011ZM188.05 39.8108C190.817 39.8108 192.392 38.6554 192.392 35.8581C192.392 32.9392 190.675 31.9865 188.05 31.9865H184.515V39.8311H188.05V39.8108Z" fill="white"/>
<path d="M199.906 27.8919L203.966 26.1284V51.8311H199.906V27.8919Z" fill="white"/>
<path d="M219.923 49.1554C218.853 51.223 216.671 52.1554 214.328 52.1554C210.43 52.1554 208.37 49.5811 208.37 45.7095V34.8041H212.429V45.2027C212.429 47.5338 213.5 48.9527 215.863 48.9527C218.408 48.9527 219.943 47.3108 219.943 44.8784V34.7838H223.983V51.8108H219.943V49.1554H219.923Z" fill="white"/>
<path d="M230.204 46.7432C230.83 48.4054 232.568 49.2162 234.406 49.2162C235.719 49.2162 237.355 48.8108 237.355 47.1892C237.355 45.4865 235.517 45.0811 233.416 44.6351C230.689 44.0676 227.639 43.3987 227.639 39.5676C227.639 36.0608 230.891 34.3987 233.961 34.3987C236.648 34.3987 239.738 35.4122 240.849 38.1081L237.839 39.4054C237.173 37.8851 235.517 37.3176 234.123 37.3176C232.77 37.3176 231.477 37.8649 231.477 39.2432C231.477 40.8041 233.133 41.1284 235.193 41.5338C237.961 42.0811 241.273 42.7095 241.273 46.6824C241.273 50.696 237.92 52.1149 234.385 52.1149C231.396 52.1149 228.164 51.1014 227.114 48.0405L230.204 46.7432Z" fill="white"/>
<path d="M66.4738 21.1622L73.9473 10.3379H67.2413V8.20947H77.4618V9.26353L70.1701 20.0879H77.2396V22.2162H66.4738V21.1622Z" fill="white"/>
<path d="M83.8446 11.7567C86.9552 11.7567 89.3387 13.9459 89.3387 17.0878C89.3387 20.3108 86.8341 22.4392 83.7437 22.4392C80.6331 22.4392 78.1284 20.2703 78.1284 17.1486C78.1284 13.9054 80.7744 11.7567 83.8446 11.7567ZM86.7129 17.0878C86.7129 15.2027 85.7635 13.6216 83.7437 13.6216C81.6834 13.6216 80.8552 15.2635 80.8552 17.1486C80.8552 18.973 81.8248 20.5135 83.8042 20.5135C85.8645 20.5338 86.7129 18.8919 86.7129 17.0878Z" fill="white"/>
<path d="M91.1161 7.31757H93.5601V13.6013C94.2267 12.3243 95.5598 11.7568 96.9737 11.7568C99.4177 11.7568 100.65 13.4797 100.65 15.8108V22.2365H98.1856V16.0541C98.1856 14.5743 97.4181 13.7635 96.0042 13.7635C94.4287 13.7635 93.5601 14.7365 93.5601 16.1959V22.2162H91.1161V7.31757Z" fill="white"/>
<path d="M107.962 11.7567C111.072 11.7567 113.456 13.9459 113.456 17.0878C113.456 20.3108 110.951 22.4392 107.861 22.4392C104.75 22.4392 102.246 20.2703 102.246 17.1486C102.246 13.9054 104.892 11.7567 107.962 11.7567ZM110.83 17.0878C110.83 15.2027 109.881 13.6216 107.861 13.6216C105.801 13.6216 104.972 15.2635 104.972 17.1486C104.972 18.973 105.942 20.5135 107.921 20.5135C109.961 20.5338 110.83 18.8919 110.83 17.0878Z" fill="white"/>
<path d="M53.4254 44.1081V15.8716C53.4254 15.4662 53.2032 15.0811 52.8599 14.8784L28.4801 0.770264C28.1771 0.587832 27.7327 0.547291 27.3287 0.770264L2.96913 14.8784C2.60555 15.0811 2.40356 15.4662 2.40356 15.8716V44.1081C2.42376 44.4527 2.54496 44.8378 2.96913 45.1013L27.3287 59.2095C27.6923 59.4122 28.1165 59.4122 28.4801 59.2095L52.8599 45.0811C53.2032 44.8986 53.4254 44.5338 53.4254 44.1081ZM26.7632 3.74999V17.9797L17.5324 23.3311C17.1688 23.5338 16.9668 23.9189 16.9668 24.3243V34.9865L4.68601 42.1419V16.5608L26.7632 3.74999ZM19.2493 33.6486V24.973L26.7632 20.6149V29.2703L19.2493 33.6486ZM27.8943 56.9189L20.9257 52.8851C22.1377 51.2838 23.8546 50.1486 25.8138 49.6622C28.0559 49.0946 30.3989 49.4392 32.3986 50.5946C33.4085 51.1824 34.2771 51.9324 34.9638 52.8446L27.8943 56.9189ZM36.9635 51.6689C36.0546 50.4324 34.883 49.3784 33.5499 48.5878C31.0251 47.1284 28.0963 46.723 25.2685 47.4122C22.7032 48.0608 20.4612 49.5811 18.9261 51.7095L5.81714 44.1081L27.8539 31.277L47.4264 42.6284C47.9718 42.9527 48.6787 42.75 48.9817 42.2027C49.3049 41.6554 49.1029 40.9459 48.5575 40.6419L29.0456 29.3311V3.72972L51.1228 16.5203V43.4392L36.9635 51.6689Z" fill="white"/>
<path d="M29.9344 37.2162C28.0156 36.1013 25.5715 36.7703 24.4606 38.6959C23.3497 40.6216 24.0162 43.0743 25.9351 44.1892C27.854 45.304 30.298 44.6351 31.409 42.7094C32.4997 40.7838 31.8533 38.3311 29.9344 37.2162ZM27.0864 42.1824C26.2583 41.7162 25.9755 40.6622 26.4603 39.8311C26.9248 39 27.9752 38.7162 28.8033 39.2027C29.6315 39.6689 29.9142 40.723 29.4295 41.554C28.9447 42.3851 27.8944 42.6689 27.0864 42.1824Z" fill="white"/>
</svg>
