<svg width="149" height="50" viewBox="0 0 149 50" fill="none" xmlns="http://www.w3.org/2000/svg">
<path d="M60.6474 23.7839H67.4048C71.493 23.7839 74.6858 25.4224 74.6858 29.8988C74.6858 34.8143 70.8003 35.8785 66.6446 35.8785H64.4146V43.1927H60.6474V23.7839ZM67.371 33.1758C69.6854 33.1758 71.0031 32.213 71.0031 29.8819C71.0031 27.4495 69.5671 26.6556 67.371 26.6556H64.4146V33.1927H67.371V33.1758Z" fill="white"/>
<path d="M89.2986 40.1013C88.1161 42.6013 85.5652 43.4628 82.9636 43.4628C78.4869 43.4628 75.6656 40.4729 75.6656 36.0472C75.6656 31.8918 78.5375 28.6824 82.8116 28.6824C87.4066 28.6824 89.6365 31.3682 89.6365 36.8412H79.1288C79.1288 39.2398 80.5141 40.9966 83.0988 40.9966C84.6361 40.9966 85.9031 40.3716 86.6464 38.9358L89.2986 40.1013ZM86.2578 34.6114C86.1565 32.4662 84.8557 31.1486 82.8454 31.1486C80.7168 31.1486 79.4667 32.652 79.1795 34.6114H86.2578Z" fill="white"/>
<path d="M98.911 28.6824C103.219 28.6824 106.53 31.706 106.53 36.0472C106.53 40.5067 103.05 43.4459 98.759 43.4459C94.4342 43.4459 90.9711 40.456 90.9711 36.1148C90.9711 31.6722 94.637 28.6824 98.911 28.6824ZM102.881 36.081C102.881 33.4628 101.563 31.3006 98.7759 31.3006C95.904 31.3006 94.7721 33.581 94.7721 36.1824C94.7721 38.6993 96.1067 40.8445 98.8603 40.8445C101.698 40.8445 102.881 38.5641 102.881 36.081Z" fill="white"/>
<path d="M109.013 28.9864H112.409V31.2837C113.389 29.6283 115.382 28.6824 117.274 28.6824C121.616 28.6824 123.711 32.1621 123.711 36.0472C123.711 40.0337 121.481 43.4628 117.376 43.4628C115.382 43.4628 113.372 42.6689 112.426 40.9628V48.0574H109.03V28.9864H109.013ZM120.197 35.9628C120.197 33.5641 118.997 31.3344 116.227 31.3344C113.422 31.3344 112.291 33.581 112.291 36.1317C112.291 38.7668 113.507 40.7939 116.328 40.7939C119.318 40.8108 120.197 38.581 120.197 35.9628Z" fill="white"/>
<path d="M126.582 23.2433L129.978 21.7737V43.1926H126.582V23.2433Z" fill="white"/>
<path d="M146.483 40.1013C145.3 42.6013 142.749 43.4628 140.148 43.4628C135.671 43.4628 132.85 40.4729 132.85 36.0472C132.85 31.8918 135.722 28.6824 139.996 28.6824C144.591 28.6824 146.821 31.3682 146.821 36.8412H136.313C136.313 39.2398 137.698 40.9966 140.283 40.9966C141.82 40.9966 143.087 40.3716 143.831 38.9358L146.483 40.1013ZM143.425 34.6114C143.324 32.4662 142.023 31.1486 140.013 31.1486C137.884 31.1486 136.634 32.652 136.347 34.6114H143.425Z" fill="white"/>
<path d="M60.6812 17.6352L66.9317 8.61496H61.3231V6.84131H69.8712V7.71969L63.7727 16.74H69.6854V18.5136H60.6812V17.6352Z" fill="white"/>
<path d="M75.2095 9.79736C77.8111 9.79736 79.8045 11.6217 79.8045 14.2399C79.8045 16.9257 77.7097 18.6994 75.1251 18.6994C72.5235 18.6994 70.4287 16.892 70.4287 14.2906C70.4287 11.5879 72.6417 9.79736 75.2095 9.79736ZM77.6084 14.2399C77.6084 12.669 76.8144 11.3514 75.1251 11.3514C73.4019 11.3514 72.7093 12.7197 72.7093 14.2906C72.7093 15.8109 73.5202 17.0947 75.1757 17.0947C76.882 17.1116 77.6084 15.7433 77.6084 14.2399Z" fill="white"/>
<path d="M81.2912 6.09802H83.3353V11.3345C83.8927 10.2703 85.0077 9.79735 86.1902 9.79735C88.2344 9.79735 89.2649 11.2332 89.2649 13.1757V18.5305H87.2039V13.3784C87.2039 12.1453 86.5619 11.4696 85.3794 11.4696C84.0617 11.4696 83.3353 12.2805 83.3353 13.4967V18.5136H81.2912V6.09802Z" fill="white"/>
<path d="M95.3803 9.79736C97.9819 9.79736 99.9753 11.6217 99.9753 14.2399C99.9753 16.9257 97.8805 18.6994 95.2958 18.6994C92.6942 18.6994 90.5994 16.892 90.5994 14.2906C90.5994 11.5879 92.8125 9.79736 95.3803 9.79736ZM97.7791 14.2399C97.7791 12.669 96.9851 11.3514 95.2958 11.3514C93.5727 11.3514 92.88 12.7197 92.88 14.2906C92.88 15.8109 93.6909 17.0947 95.3465 17.0947C97.0527 17.1116 97.7791 15.7433 97.7791 14.2399Z" fill="white"/>
<path d="M25.5429 17.9223C23.0595 17.9223 21.0492 15.9121 21.0492 13.429C21.0492 10.9459 23.0595 8.93579 25.5429 8.93579C28.0262 8.93579 30.0365 10.9459 30.0365 13.429C30.0365 15.8953 28.0262 17.9223 25.5429 17.9223ZM25.5429 11.7905C24.6475 11.7905 23.9211 12.5169 23.9211 13.4121C23.9211 14.3074 24.6475 15.0338 25.5429 15.0338C26.4382 15.0338 27.1646 14.3074 27.1646 13.4121C27.1646 12.5169 26.4382 11.7905 25.5429 11.7905Z" fill="white"/>
<path d="M15.846 49.4932C15.0858 49.4932 14.3425 49.2905 13.6837 48.9189L3.48005 43.0236C2.14547 42.2466 1.31769 40.8277 1.31769 39.2905V27.5168C1.31769 25.9797 2.14547 24.5608 3.48005 23.7837L11.7578 19.0202C12.4505 18.6148 13.3289 18.8513 13.7175 19.5439C14.1229 20.2364 13.8864 21.1148 13.1938 21.5033L4.91599 26.2668C4.47676 26.5202 4.18957 26.9932 4.18957 27.5168V39.2905C4.18957 39.7973 4.45986 40.2702 4.91599 40.5405L15.1196 46.4358C15.5588 46.6891 16.1163 46.6891 16.5556 46.4358L24.8164 41.6554C25.5091 41.25 26.3875 41.4864 26.7761 42.179C27.1815 42.8716 26.945 43.75 26.2524 44.1385L17.9915 48.902C17.3327 49.2905 16.5893 49.4932 15.846 49.4932Z" fill="white"/>
<path d="M35.2397 49.4932C34.4795 49.4932 33.7362 49.2905 33.0773 48.9189L24.7995 44.1385C24.1069 43.7331 23.8704 42.8716 24.2758 42.179C24.6813 41.4864 25.5429 41.25 26.2355 41.6554L34.5133 46.4358C34.9525 46.6891 35.51 46.6891 35.9492 46.4358L46.1528 40.5405C46.5921 40.2871 46.8792 39.8141 46.8792 39.2905V27.5168C46.8792 27.0101 46.609 26.5371 46.1528 26.2668L37.8919 21.5033C37.1993 21.0979 36.9628 20.2364 37.3682 19.5439C37.7737 18.8513 38.6353 18.6148 39.3279 19.0202L47.5888 23.7837C48.9234 24.5608 49.7511 25.9797 49.7511 27.5168V39.2905C49.7511 40.8277 48.9234 42.2466 47.5888 43.0236L37.3851 48.9189C36.7432 49.2905 35.9999 49.4932 35.2397 49.4932Z" fill="white"/>
<path d="M12.4674 21.7061C11.6734 21.7061 11.0314 21.0642 11.0314 20.2703V10.7095C11.0314 9.1723 11.8592 7.75338 13.1938 6.97636L23.3974 1.08109C24.732 0.320953 26.3706 0.320953 27.7052 1.08109L37.9088 6.97636C39.2434 7.75338 40.0712 9.1723 40.0712 10.7095V20.2703C40.0712 21.0642 39.4293 21.7061 38.6353 21.7061C37.8413 21.7061 37.1993 21.0642 37.1993 20.2703V10.7095C37.1993 10.2027 36.929 9.72974 36.4729 9.45947L26.2693 3.5642C25.83 3.31082 25.2726 3.31082 24.8333 3.5642L14.6297 9.45947C14.1905 9.71284 13.9033 10.1858 13.9033 10.7095V20.2703C13.9033 21.0473 13.2613 21.7061 12.4674 21.7061Z" fill="white"/>
<path d="M22.1642 31.1656C21.9108 31.1656 21.6743 31.098 21.4378 30.9797L13.1769 26.2162C11.8423 25.4392 11.0145 24.0203 11.0145 22.4831V20.2703C11.0145 19.4764 11.6565 18.8345 12.4505 18.8345C13.2444 18.8345 13.8864 19.4764 13.8864 20.2703V22.4662C13.8864 22.973 14.1567 23.446 14.6128 23.7162L22.8737 28.4966C23.5663 28.902 23.8028 29.7635 23.3974 30.4561C23.1609 30.8953 22.6879 31.1824 22.1642 31.1656Z" fill="white"/>
<path d="M28.9215 31.1825C28.1275 31.1825 27.4856 30.5406 27.4856 29.7467C27.4856 29.2399 27.7559 28.7501 28.212 28.4967L36.4898 23.7163C36.929 23.4629 37.2162 22.9899 37.2162 22.4663V20.2534C37.2162 19.4595 37.8582 18.8176 38.6522 18.8176C39.4461 18.8176 40.0881 19.4595 40.0881 20.2534V22.4832C40.0881 24.0203 39.2603 25.4392 37.9257 26.2163L29.648 30.9798C29.4114 31.1149 29.1749 31.1825 28.9215 31.1825Z" fill="white"/>
<path d="M25.5429 25.3548C24.7489 25.3548 24.1069 24.7129 24.1069 23.9189C24.1069 23.4122 24.3772 22.9223 24.8333 22.6689L33.0942 17.9054C34.4288 17.1453 36.0675 17.1453 37.402 17.9054L39.3448 19.0203C40.0374 19.4257 40.2739 20.2872 39.8685 20.9798C39.463 21.6723 38.6015 21.9088 37.9088 21.5034L35.9661 20.3885C35.5269 20.1352 34.9694 20.1352 34.5302 20.3885L26.2693 25.152C26.0328 25.2872 25.7963 25.3548 25.5429 25.3548Z" fill="white"/>
<path d="M25.526 44.3244C25.2726 44.3244 25.0361 44.2568 24.7995 44.1385L22.8737 43.0237C21.5391 42.2466 20.7282 40.8277 20.7113 39.2906V29.7298C20.7113 28.9358 21.3533 28.2939 22.1473 28.2939C22.9413 28.2939 23.5832 28.9358 23.5832 29.7298V39.2906C23.5832 39.7973 23.8535 40.2703 24.3096 40.5406L26.2355 41.6554C26.9281 42.0608 27.1646 42.9223 26.7592 43.6149C26.5227 44.0541 26.0497 44.3244 25.526 44.3244Z" fill="white"/>
<path d="M25.5429 44.3412C24.7489 44.3412 24.1069 43.6993 24.1069 42.9054C24.1069 42.3987 24.3772 41.9088 24.8333 41.6554L26.7761 40.5406C27.2153 40.2872 27.5025 39.8142 27.5025 39.2906V29.7298C27.5025 28.9358 28.1444 28.2939 28.9384 28.2939C29.7324 28.2939 30.3744 28.9358 30.3744 29.7298V39.2906C30.3744 40.8277 29.5466 42.2466 28.212 43.0237L26.2693 44.1385C26.0328 44.2737 25.7963 44.3412 25.5429 44.3412Z" fill="white"/>
<path d="M25.5429 25.3548C25.2895 25.3548 25.0529 25.2872 24.8164 25.1689L16.5556 20.3885C16.1163 20.1352 15.5588 20.1352 15.1196 20.3885L13.1938 21.5034C12.5011 21.9088 11.6227 21.6723 11.2341 20.9798C10.8287 20.2872 11.0652 19.4088 11.7578 19.0203L13.6837 17.9054C15.0183 17.1453 16.6569 17.1453 17.9915 17.9054L26.2524 22.6858C26.945 23.0912 27.1815 23.9527 26.7761 24.6453C26.5396 25.0676 26.0497 25.3548 25.5429 25.3548Z" fill="white"/>
</svg>
