<svg width="164" height="50" viewBox="0 0 164 50" fill="none" xmlns="http://www.w3.org/2000/svg">
<path d="M60.3259 23.782H67.0636C71.141 23.782 74.3311 25.4256 74.3311 29.8935C74.3311 34.8124 70.4527 35.8715 66.3079 35.8715H64.0844V43.1891H60.3242V23.782H60.3259ZM67.0383 33.1671C69.3545 33.1671 70.6653 32.2127 70.6653 29.8664C70.6653 27.5202 69.2364 26.6316 67.0383 26.6316H64.0861V33.1671H67.0383Z" fill="white"/>
<path d="M76.8328 28.9914H80.2219V31.6553C81.1751 29.7059 82.7237 28.7786 84.8813 28.7786V31.9205C82.1417 31.9205 80.2219 32.8225 80.2219 35.858V43.189H76.8328V28.9914Z" fill="white"/>
<path d="M93.6198 28.6875C97.9216 28.6875 101.231 31.7095 101.231 36.0574C101.231 40.4054 97.7495 43.4544 93.4731 43.4544C89.1966 43.4544 85.6894 40.4578 85.6894 36.1233C85.6894 31.7889 89.3569 28.6875 93.6198 28.6875ZM97.5909 36.0845C97.5909 33.473 96.2667 31.299 93.4865 31.299C90.7064 31.299 89.4884 33.5794 89.4884 36.1774C89.4884 38.7753 90.8262 40.8429 93.5658 40.8429C96.3055 40.8429 97.5909 38.5625 97.5909 36.0845Z" fill="white"/>
<path d="M101.641 45.7079C102.912 45.642 103.64 45.0592 103.64 43.7332V29.0187H107.03V43.6538C107.03 47.2062 104.872 48.2923 101.641 48.2923V45.7079ZM105.309 22.9866C106.407 22.9866 107.281 23.7957 107.281 24.9089C107.281 26.022 106.421 26.8447 105.309 26.8447C104.197 26.8447 103.296 26.022 103.296 24.9089C103.296 23.7957 104.211 22.9866 105.309 22.9866Z" fill="white"/>
<path d="M123.378 40.0997C122.2 42.6047 119.658 43.4544 117.05 43.4544C112.575 43.4544 109.756 40.4578 109.756 36.0439C109.756 31.8818 112.629 28.6875 116.892 28.6875C121.472 28.6875 123.71 31.3649 123.71 36.8395H113.212C113.212 39.2399 114.602 40.9882 117.183 40.9882C118.718 40.9882 119.99 40.3649 120.731 38.9206L123.38 40.0997H123.378ZM120.333 34.6115C120.227 32.4645 118.929 31.152 116.93 31.152C114.8 31.152 113.555 32.6503 113.263 34.6115H120.333Z" fill="white"/>
<path d="M139.065 39.1723C138.125 42.1419 135.477 43.4544 132.511 43.4544C128.01 43.4544 125.323 40.4324 125.323 36.0439C125.323 31.6554 128.327 28.6875 132.59 28.6875C135.463 28.6875 137.938 29.8936 138.984 32.6774L136.243 33.8834C135.674 32.2922 134.296 31.3784 132.589 31.3784C129.822 31.3784 128.803 33.7787 128.803 36.2162C128.803 38.6537 129.901 40.8818 132.643 40.8818C134.589 40.8818 135.9 39.8074 136.482 38.0321L139.063 39.1723H139.065Z" fill="white"/>
<path d="M148.768 43.0826C148.04 43.2955 147.286 43.4272 146.439 43.4272C143.738 43.4272 142.137 42.0218 142.137 39.1992V31.4847H140.231V28.9931H142.137V26.0641L145.526 24.5928V28.9931H148.65V31.4847H145.526V38.8951C145.526 40.0083 146.003 40.6975 147.247 40.6975C147.724 40.6975 148.252 40.5911 148.768 40.4188V43.0826Z" fill="white"/>
<path d="M152.925 38.9611C153.455 40.353 154.897 41.0152 156.434 41.0152C157.532 41.0152 158.897 40.6706 158.897 39.3311C158.897 37.9121 157.362 37.5811 155.614 37.2094C153.337 36.7331 150.783 36.1757 150.783 32.9932C150.783 30.0777 153.497 28.6858 156.065 28.6858C158.315 28.6858 160.884 29.5338 161.81 31.7753L159.295 32.8615C158.738 31.6013 157.348 31.125 156.184 31.125C155.02 31.125 153.973 31.576 153.973 32.728C153.973 34.027 155.363 34.3057 157.07 34.6368C159.386 35.0878 162.141 35.6182 162.141 38.9324C162.141 42.2466 159.347 43.4527 156.395 43.4527C153.893 43.4527 151.206 42.6047 150.319 40.0591L152.927 38.9594L152.925 38.9611Z" fill="white"/>
<path d="M60.3309 17.6402L66.5676 8.61659H60.9619V6.83618H69.503V7.72301L63.4181 16.7467H69.3275V18.5271H60.3326V17.6402H60.3309Z" fill="white"/>
<path d="M74.8287 9.79053C77.4199 9.79053 79.4139 11.6115 79.4139 14.2297C79.4139 16.848 77.317 18.6858 74.741 18.6858C72.165 18.6858 70.0512 16.8817 70.0512 14.2703C70.0512 11.6588 72.2595 9.79053 74.8287 9.79053ZM77.2208 14.2466C77.2208 12.674 76.4229 11.3649 74.7494 11.3649C73.076 11.3649 72.3404 12.7382 72.3404 14.3024C72.3404 15.8665 73.1451 17.1132 74.7967 17.1132C76.4482 17.1132 77.2208 15.7399 77.2208 14.2466Z" fill="white"/>
<path d="M80.809 6.10132H82.8502V11.331C83.4002 10.2685 84.5254 9.79051 85.7046 9.79051C87.7458 9.79051 88.7664 11.228 88.7664 13.1756V18.5253H86.7083V13.375C86.7083 12.1452 86.0706 11.4746 84.8813 11.4746C83.5739 11.4746 82.8485 12.2821 82.8485 13.5033V18.5253H80.8073V6.10132H80.809Z" fill="white"/>
<path d="M94.7737 9.79053C97.3649 9.79053 99.3589 11.6115 99.3589 14.2297C99.3589 16.848 97.262 18.6858 94.686 18.6858C92.11 18.6858 89.9962 16.8817 89.9962 14.2703C89.9962 11.6588 92.2045 9.79053 94.7737 9.79053ZM97.1658 14.2466C97.1658 12.674 96.3679 11.3649 94.6944 11.3649C93.021 11.3649 92.2854 12.7382 92.2854 14.3024C92.2854 15.8665 93.0901 17.1132 94.7416 17.1132C96.3932 17.1132 97.1658 15.7399 97.1658 14.2466Z" fill="white"/>
<path d="M19.8421 44.8969C19.476 44.8969 19.1083 44.7567 18.8282 44.4763L9.66462 35.3006C9.10455 34.7398 9.10455 33.831 9.66462 33.2702C10.2247 32.7094 11.1323 32.7094 11.6924 33.2702L20.8559 42.4459C21.416 43.0067 21.416 43.9155 20.8559 44.4763C20.5759 44.7567 20.2098 44.8969 19.8421 44.8969Z" fill="white"/>
<path d="M19.8539 28.2314C19.4878 28.2314 19.1218 28.0912 18.8417 27.8125L9.66631 18.6469C9.10624 18.0878 9.10455 17.179 9.66463 16.6165C10.223 16.0557 11.1323 16.054 11.6924 16.6148L20.8678 25.7804C21.4278 26.3395 21.4295 27.2483 20.8694 27.8108C20.5894 28.0912 20.2217 28.2331 19.8539 28.2331V28.2314Z" fill="white"/>
<path d="M19.8421 36.5692C19.476 36.5692 19.1083 36.429 18.8282 36.1486L9.68318 26.9915C9.12311 26.4307 9.12311 25.5219 9.68318 24.9611C10.2433 24.4003 11.1508 24.4003 11.7109 24.9611L20.856 34.1182C21.416 34.679 21.416 35.5878 20.856 36.1486C20.5759 36.429 20.2098 36.5692 19.8421 36.5692Z" fill="white"/>
<path d="M30.5256 34.1993C30.1596 34.1993 29.7918 34.0591 29.5118 33.7787C28.9517 33.2179 28.9517 32.3091 29.5118 31.7483L47.402 13.8344C47.9621 13.2736 48.8697 13.2736 49.4298 13.8344C49.9898 14.3952 49.9898 15.304 49.4298 15.8648L31.5395 33.7787C31.2595 34.0591 30.8934 34.1993 30.5256 34.1993Z" fill="white"/>
<path d="M30.5273 25.8699C30.1612 25.8699 29.7935 25.7297 29.5135 25.4492C28.9534 24.8884 28.9534 23.9796 29.5135 23.4188L42.2315 10.684L40.1008 8.5506L31.5429 17.1199C30.9828 17.6807 30.0752 17.6807 29.5151 17.1199C28.9551 16.559 28.9551 15.6503 29.5151 15.0894L39.0853 5.50668C39.6234 4.96783 40.5749 4.96783 41.113 5.50668L45.2714 9.67053C45.8315 10.2313 45.8315 11.1401 45.2714 11.7009L31.5395 25.4509C31.2595 25.7313 30.8934 25.8715 30.5256 25.8715L30.5273 25.8699Z" fill="white"/>
<path d="M19.8539 28.2312C19.4878 28.2312 19.1201 28.091 18.84 27.8106C18.28 27.2498 18.28 26.341 18.84 25.7802L29.5152 15.091C30.0752 14.5302 30.9828 14.5302 31.5429 15.091C32.103 15.6518 32.103 16.5606 31.5429 17.1214L20.8678 27.8106C20.5877 28.091 20.2217 28.2312 19.8539 28.2312Z" fill="white"/>
<path d="M19.8421 36.5692C19.476 36.5692 19.1083 36.429 18.8282 36.1486C18.2682 35.5878 18.2682 34.679 18.8282 34.1182L29.5135 23.4189C30.0735 22.8581 30.9811 22.8581 31.5412 23.4189C32.1013 23.9797 32.1013 24.8885 31.5412 25.4493L20.856 36.1486C20.5759 36.429 20.2099 36.5692 19.8421 36.5692Z" fill="white"/>
<path d="M19.8421 44.8969C19.476 44.8969 19.1083 44.7567 18.8282 44.4763C18.2682 43.9155 18.2682 43.0067 18.8282 42.4459L29.5118 31.7482C30.0718 31.1874 30.9794 31.1874 31.5395 31.7482C32.0996 32.3091 32.0996 33.2178 31.5395 33.7787L20.856 44.4763C20.5759 44.7567 20.2099 44.8969 19.8421 44.8969Z" fill="white"/>
<path d="M10.6785 35.7211C10.3124 35.7211 9.94466 35.5809 9.66463 35.3005L1.34789 26.9728C1.07966 26.7042 0.927834 26.3377 0.927834 25.9576C0.927834 25.5775 1.07966 25.211 1.34789 24.9424L9.66463 16.6147C10.2247 16.0539 11.1323 16.0539 11.6924 16.6147C12.2524 17.1755 12.2524 18.0843 11.6924 18.6451L4.38949 25.9576L11.6924 33.2701C12.2524 33.8309 12.2524 34.7397 11.6924 35.3005C11.4123 35.5809 11.0462 35.7211 10.6785 35.7211Z" fill="white"/>
</svg>
