<svg width="145" height="50" viewBox="0 0 145 50" fill="none" xmlns="http://www.w3.org/2000/svg">
<path d="M53.532 23.7837H60.5459C64.4238 23.7837 67.8297 25.2195 67.8297 29.6114C67.8297 32.3817 66.1773 34.1722 63.5471 34.8141L68.993 43.1756H64.9465L59.9052 35.3546H57.2919V43.1756H53.532V23.7837ZM60.4448 32.7702C62.6029 32.7702 64.1878 31.9425 64.1878 29.6283C64.1878 27.2296 62.5017 26.6553 60.4448 26.6553H57.2919V32.7702H60.4448Z" fill="white"/>
<path d="M83.0041 40.1013C81.8238 42.6013 79.2779 43.4628 76.6814 43.4628C72.2134 43.4628 69.3977 40.4729 69.3977 36.0472C69.3977 31.8918 72.264 28.6824 76.5296 28.6824C81.1157 28.6824 83.3413 31.3682 83.3413 36.8412H72.8372C72.8372 39.2398 74.2198 40.9966 76.7994 40.9966C78.3337 40.9966 79.5983 40.3716 80.3401 38.9358L83.0041 40.1013ZM79.9523 34.6114C79.8512 32.4662 78.5529 31.1486 76.5465 31.1486C74.4221 31.1486 73.1744 32.652 72.8878 34.6114H79.9523Z" fill="white"/>
<path d="M98.8361 39.1723C97.8919 42.1453 95.2448 43.4459 92.2942 43.4459C87.7925 43.4459 85.1116 40.4223 85.1116 36.0304C85.1116 31.8074 88.1128 28.6655 92.3785 28.6655C95.2448 28.6655 97.7233 29.8649 98.7686 32.652L96.0372 33.8513C95.464 32.2635 94.0983 31.3513 92.3785 31.3513C89.6134 31.3513 88.6018 33.75 88.6018 36.1824C88.6018 38.6824 89.6977 40.8446 92.4459 40.8446C94.3849 40.8446 95.7 39.7635 96.2901 37.9899L98.8361 39.1723Z" fill="white"/>
<path d="M101.517 28.9864H104.906V31.6553C105.867 29.7127 107.401 28.7837 109.559 28.7837V31.9256C106.828 31.9256 104.906 32.8209 104.906 35.8614V43.1925H101.517V28.9864Z" fill="white"/>
<path d="M121.749 40.9627C120.856 42.6857 119.035 43.4627 117.079 43.4627C113.825 43.4627 112.105 41.3174 112.105 38.0911V29.0032H115.494V37.6688C115.494 39.6113 116.388 40.7938 118.36 40.7938C120.485 40.7938 121.766 39.4255 121.766 37.3985V28.9863H125.138V43.1755H121.766V40.9627H121.749Z" fill="white"/>
<path d="M130.652 22.9897C131.748 22.9897 132.624 23.8006 132.624 24.9323C132.624 26.0472 131.781 26.858 130.669 26.858C129.573 26.858 128.645 26.0303 128.645 24.9154C128.628 23.7837 129.539 22.9897 130.652 22.9897ZM128.932 29.0202H132.321V43.1924H128.932V29.0202Z" fill="white"/>
<path d="M143.331 43.0911C142.606 43.3107 141.847 43.4289 141.004 43.4289C138.306 43.4289 136.705 42.0269 136.705 39.206V31.4864H134.799V28.9864H136.705V26.0641L140.094 24.5945V29.0033H143.213V31.5033H140.094V38.9188C140.094 40.0337 140.566 40.7262 141.813 40.7262C142.285 40.7262 142.825 40.6249 143.331 40.456V43.0911Z" fill="white"/>
<path d="M53.5657 17.635L59.8041 8.61471H54.2064V6.84106H62.7209V7.71944L56.6512 16.7397H62.5523V18.5134H53.5657V17.635Z" fill="white"/>
<path d="M68.0657 9.79712C70.6622 9.79712 72.6517 11.6214 72.6517 14.2397C72.6517 16.9255 70.5611 18.6991 67.9814 18.6991C65.3849 18.6991 63.2942 16.8917 63.2942 14.2904C63.2942 11.5877 65.5029 9.79712 68.0657 9.79712ZM70.4599 14.2397C70.4599 12.6687 69.6674 11.3512 67.9814 11.3512C66.2616 11.3512 65.5704 12.7194 65.5704 14.2904C65.5704 15.8106 66.3797 17.0944 68.032 17.0944C69.7349 17.1113 70.4599 15.7431 70.4599 14.2397Z" fill="white"/>
<path d="M74.1355 6.0979H76.1756V11.3344C76.732 10.2702 77.8448 9.79723 79.025 9.79723C81.0651 9.79723 82.0936 11.233 82.0936 13.1756V18.5303H80.0366V13.3783C80.0366 12.1452 79.3959 11.4695 78.2157 11.4695C76.9006 11.4695 76.1756 12.2803 76.1756 13.4965V18.5134H74.1355V6.0979Z" fill="white"/>
<path d="M88.1971 9.79712C90.7936 9.79712 92.7831 11.6214 92.7831 14.2397C92.7831 16.9255 90.6924 18.6991 88.1128 18.6991C85.5163 18.6991 83.4256 16.8917 83.4256 14.2904C83.4256 11.5877 85.6343 9.79712 88.1971 9.79712ZM90.5913 14.2397C90.5913 12.6687 89.7988 11.3512 88.1128 11.3512C86.393 11.3512 85.7017 12.7194 85.7017 14.2904C85.7017 15.8106 86.5111 17.0944 88.1634 17.0944C89.8663 17.1113 90.5913 15.7431 90.5913 14.2397Z" fill="white"/>
<path d="M22.1547 49.4933C21.7837 49.4933 21.4128 49.3582 21.143 49.071L15.225 43.142C14.9552 42.8717 14.8035 42.5001 14.8035 42.1285C14.8035 41.7568 14.9552 41.3852 15.225 41.1149L21.143 35.1859C21.6994 34.6285 22.6099 34.6285 23.1663 35.1859L29.0843 41.1149C29.3541 41.3852 29.5058 41.7568 29.5058 42.1285C29.5058 42.5001 29.3541 42.8717 29.0843 43.142L23.1663 49.071C22.8965 49.3582 22.5256 49.4933 22.1547 49.4933ZM18.2599 42.1285L22.1547 46.0305L26.0494 42.1285L22.1547 38.2264L18.2599 42.1285Z" fill="white"/>
<path d="M33.8052 37.8548C33.4343 37.8548 33.0634 37.7197 32.7936 37.4325L26.8924 31.5203C26.6227 31.2501 26.4709 30.8785 26.4709 30.5068C26.4709 30.1352 26.6227 29.7636 26.8924 29.4933L28.7302 27.669C30.4837 25.9122 31.4448 23.5812 31.4448 21.0981C31.4448 18.6149 30.4837 16.2839 28.7302 14.5271L28.7134 14.5102C25.1052 10.8953 19.2209 10.8953 15.6128 14.5102C14.1797 15.946 13.2692 17.7703 12.9826 19.7805C12.7128 21.7231 13.0669 23.7332 13.9773 25.4562C14.3483 26.1487 14.0954 27.0271 13.3872 27.3987C12.6959 27.7703 11.8192 27.517 11.4483 26.8075C10.2512 24.5609 9.77907 21.9089 10.1331 19.3751C10.5041 16.7399 11.6843 14.3582 13.5727 12.4832C15.8657 10.1859 18.9174 8.919 22.1547 8.919C25.3919 8.919 28.4436 10.1859 30.7366 12.4832L30.7535 12.5001C33.0465 14.7974 34.311 17.8548 34.311 21.0981C34.311 24.3413 33.0465 27.3987 30.7535 29.696L29.9442 30.5068L33.8221 34.392L34.6483 33.5643C37.9866 30.2197 39.8076 25.794 39.8076 21.0643C39.8076 16.3345 37.9698 11.9089 34.6314 8.56427C31.293 5.21967 26.8756 3.39535 22.1547 3.39535C17.4337 3.39535 13.0163 5.23657 9.67791 8.56427C6.33954 11.892 4.51861 16.3345 4.51861 21.0643C4.51861 25.794 6.3564 30.2197 9.67791 33.5643L10.5041 34.392L15.3936 29.4933C15.95 28.9359 16.8605 28.9359 17.4169 29.4933C17.9733 30.0508 17.9733 30.9629 17.4169 31.5203L11.5157 37.4325C10.9593 37.9899 10.0488 37.9899 9.49244 37.4325L7.63779 35.5913C5.68198 33.6318 4.16454 31.3514 3.13605 28.8008C2.14128 26.3345 1.63547 23.7332 1.63547 21.0643C1.63547 18.3953 2.14128 15.794 3.13605 13.3278C4.16454 10.7771 5.68198 8.4967 7.63779 6.53724C9.59361 4.57778 11.9035 3.04062 14.4494 2.01021C16.8942 1.01359 19.4907 0.506836 22.1547 0.506836C24.8186 0.506836 27.4151 1.01359 29.8767 2.01021C32.4227 3.04062 34.6988 4.56089 36.6547 6.52035C38.6105 8.47981 40.1279 10.7771 41.1564 13.3278C42.1512 15.794 42.657 18.3953 42.657 21.0643C42.657 23.7332 42.1512 26.3345 41.1564 28.8008C40.1279 31.3514 38.6105 33.6318 36.6547 35.5913L34.8 37.4494C34.5302 37.7028 34.1593 37.8548 33.8052 37.8548Z" fill="white"/>
</svg>
