<svg width="176" height="50" viewBox="0 0 176 50" fill="none" xmlns="http://www.w3.org/2000/svg">
<g clip-path="url(#clip0_1107_1652)">
<path d="M52.602 3.91541H60.9819C65.6135 3.91541 69.6926 5.58782 69.6926 10.7309C69.6926 13.9689 67.7164 16.0602 64.57 16.8189L71.0845 26.593H66.247L60.2235 17.4533H57.0929V26.593H52.602V3.91541ZM60.8552 14.4171C63.4315 14.4171 65.3302 13.4568 65.3302 10.7464C65.3302 8.0361 63.3065 7.27747 60.8552 7.27747H57.0929V14.4189H60.8552V14.4171Z" fill="white"/>
<path d="M81.4406 9.64648C86.579 9.64648 90.5314 13.1775 90.5314 18.2586C90.5314 23.3396 86.3731 26.9017 81.2664 26.9017C76.1596 26.9017 71.9697 23.4017 71.9697 18.3361C71.9697 13.2706 76.3497 9.64648 81.4406 9.64648ZM86.1831 18.2896C86.1831 15.2379 84.6028 12.6982 81.2822 12.6982C77.9616 12.6982 76.5081 15.362 76.5081 18.3982C76.5081 21.4344 78.1041 23.8499 81.3772 23.8499C84.6504 23.8499 86.1831 21.1861 86.1831 18.2896Z" fill="white"/>
<path d="M104.838 23.9913C103.779 26.0051 101.597 26.9034 99.2579 26.9034C95.3689 26.9034 93.3135 24.3948 93.3135 20.6293V10.0034H97.3609V20.15C97.3609 22.412 98.4203 23.8051 100.777 23.8051C103.307 23.8051 104.84 22.2103 104.84 19.8396V10.0034H108.871V26.5931H104.84V23.9913H104.838Z" fill="white"/>
<path d="M121.883 26.4688C121.014 26.7171 120.113 26.8723 119.101 26.8723C115.875 26.8723 113.962 25.2309 113.962 21.9309V12.9154H111.685V10.0033H113.962V6.57919L118.01 4.86023V10.0033H121.74V12.9154H118.01V21.574C118.01 22.8757 118.578 23.6809 120.065 23.6809C120.633 23.6809 121.267 23.5568 121.883 23.3551V26.4688Z" fill="white"/>
<path d="M140.064 22.9844C138.657 25.912 135.621 26.9034 132.506 26.9034C127.162 26.9034 123.796 23.4034 123.796 18.2447C123.796 13.381 127.227 9.64819 132.318 9.64819C137.789 9.64819 140.46 12.7775 140.46 19.1741H127.922C127.922 21.9775 129.582 24.0223 132.665 24.0223C134.498 24.0223 136.017 23.2947 136.902 21.6051L140.064 22.9844ZM136.429 16.5706C136.302 14.062 134.754 12.5275 132.366 12.5275C129.821 12.5275 128.334 14.2775 127.986 16.5706H136.429Z" fill="white"/>
<path d="M144.033 3.91541H148.508V26.593H144.033V3.91541Z" fill="white"/>
<path d="M168.775 26.143C167.303 26.6534 165.755 26.9017 164.143 26.9017C157.076 26.9017 152.317 22.0379 152.317 15.1448C152.317 8.25167 157.361 3.5896 164.333 3.5896C171.305 3.5896 176 8.43787 176 15.2379C176 18.7844 174.703 22.0379 171.984 24.3465L174.561 27.0413L171.984 29.5051L168.775 26.143ZM166.529 18.5999L169.232 21.4499C170.812 19.6844 171.351 17.3758 171.351 15.0827C171.351 10.7758 168.979 7.04305 164.046 7.04305C159.114 7.04305 156.995 10.8379 156.995 15.362C156.995 19.6224 159.555 23.5103 164.268 23.5103C164.868 23.5103 165.486 23.4482 166.054 23.293L163.888 21.0155L166.527 18.5982L166.529 18.5999Z" fill="white"/>
<path d="M53.0895 39.5173H52.1638V38.6742H53.0895V38.3966C53.0895 38.0345 53.1035 37.6931 53.1317 37.369C53.1599 37.0449 53.2373 36.7586 53.3658 36.5121C53.4942 36.2638 53.6878 36.069 53.95 35.9224C54.2104 35.7776 54.5712 35.7052 55.0322 35.7052C55.173 35.7052 55.3155 35.7138 55.4616 35.7311C55.6077 35.7483 55.7537 35.7793 55.898 35.8224L55.5672 36.5949C55.3754 36.5638 55.2082 36.5483 55.0674 36.5483C54.8862 36.5483 54.7366 36.5742 54.6169 36.6276C54.4973 36.6811 54.3987 36.7552 54.323 36.8518C54.2474 36.9483 54.1928 37.0621 54.1612 37.1931C54.1295 37.3242 54.1136 37.469 54.1136 37.6259V38.6742H55.6904V39.5173H54.1136V44.9862H53.0912V39.5173H53.0895Z" fill="white"/>
<path d="M59.6216 45.0914C59.1412 45.0914 58.7048 45.007 58.3141 44.838C57.9235 44.669 57.5909 44.438 57.3164 44.1449C57.0418 43.8518 56.8307 43.5087 56.6811 43.1139C56.5333 42.719 56.4594 42.2949 56.4594 41.8432C56.4594 41.3914 56.5386 40.9414 56.6969 40.5414C56.8553 40.1414 57.0753 39.7949 57.3586 39.5018C57.6419 39.2087 57.9815 38.9794 58.3775 38.8121C58.7734 38.6449 59.2098 38.5621 59.6832 38.5621C60.1566 38.5621 60.6018 38.6466 60.9942 38.8156C61.3866 38.9845 61.7227 39.2156 61.999 39.5104C62.2753 39.8052 62.49 40.1501 62.6396 40.5449C62.7909 40.9397 62.8648 41.3639 62.8648 41.8156C62.8648 42.2673 62.7856 42.7121 62.6272 43.1121C62.4689 43.5121 62.2454 43.8604 61.9603 44.1518C61.6735 44.4449 61.3321 44.6742 60.9344 44.8414C60.5367 45.0087 60.1003 45.0914 59.6234 45.0914H59.6216ZM59.6392 44.2552C60.0088 44.2552 60.329 44.188 60.6018 44.0552C60.8745 43.9225 61.0998 43.7432 61.2775 43.519C61.4553 43.2949 61.589 43.0363 61.6752 42.7432C61.7615 42.4501 61.8054 42.1449 61.8054 41.8277C61.8054 41.5104 61.7597 41.1863 61.6699 40.8932C61.5802 40.6001 61.4429 40.3432 61.2617 40.1208C61.0787 39.8983 60.8517 39.7225 60.5789 39.5932C60.3061 39.4639 59.9894 39.3983 59.6287 39.3983C59.2679 39.3983 58.9476 39.4639 58.6819 39.5949C58.4144 39.7259 58.1962 39.9035 58.0238 40.1277C57.8513 40.3518 57.7246 40.6104 57.6419 40.9018C57.5592 41.1949 57.5187 41.5035 57.5187 41.8294C57.5187 42.1552 57.5627 42.4897 57.6507 42.7845C57.7387 43.0794 57.8724 43.3363 58.0502 43.5535C58.2279 43.7725 58.4496 43.9432 58.7153 44.0656C58.9793 44.1897 59.289 44.2518 59.641 44.2518L59.6392 44.2552Z" fill="white"/>
<path d="M64.4081 38.6742H65.4305V39.8052C65.6628 39.3811 65.9531 39.0725 66.2998 38.8777C66.6465 38.6828 67.0618 38.5777 67.5475 38.5621V39.5052C67.1938 39.5173 66.8858 39.5604 66.6218 39.638C66.3579 39.7139 66.1362 39.8328 65.9602 39.9914C65.7842 40.1501 65.6522 40.3552 65.5625 40.6035C65.4745 40.8535 65.4305 41.1587 65.4305 41.519V44.9845H64.4081V38.6725V38.6742Z" fill="white"/>
<path d="M70.8206 44.55L75.9572 37.2138H71.2658V36.3586H77.2929V36.7897L72.2882 44.0914H77.2137V44.988H70.8206V44.5517V44.55Z" fill="white"/>
<path d="M81.4001 45.0914C80.9197 45.0914 80.4833 45.007 80.0926 44.838C79.702 44.669 79.3694 44.438 79.0948 44.1449C78.8203 43.8518 78.6092 43.5087 78.4596 43.1139C78.3118 42.719 78.2379 42.2949 78.2379 41.8432C78.2379 41.3914 78.317 40.9414 78.4754 40.5414C78.6338 40.1414 78.8538 39.7949 79.1371 39.5018C79.4204 39.2087 79.76 38.9794 80.156 38.8121C80.5519 38.6449 80.9883 38.5621 81.4617 38.5621C81.9351 38.5621 82.3803 38.6466 82.7727 38.8156C83.1651 38.9845 83.5012 39.2156 83.7775 39.5104C84.0538 39.8052 84.2685 40.1501 84.418 40.5449C84.5694 40.9397 84.6433 41.3639 84.6433 41.8156C84.6433 42.2673 84.5641 42.7121 84.4057 43.1121C84.2474 43.5121 84.0239 43.8604 83.7388 44.1518C83.4519 44.4449 83.1106 44.6742 82.7129 44.8414C82.3152 45.0087 81.8787 45.0914 81.4019 45.0914H81.4001ZM81.4177 44.2552C81.7872 44.2552 82.1075 44.188 82.3803 44.0552C82.653 43.9225 82.8783 43.7432 83.056 43.519C83.2337 43.2949 83.3675 43.0363 83.4537 42.7432C83.5399 42.4501 83.5839 42.1449 83.5839 41.8277C83.5839 41.5104 83.5382 41.1863 83.4484 40.8932C83.3587 40.6001 83.2214 40.3432 83.0402 40.1208C82.8572 39.8983 82.6302 39.7225 82.3574 39.5932C82.0846 39.4639 81.7679 39.3983 81.4071 39.3983C81.0464 39.3983 80.7261 39.4639 80.4604 39.5949C80.1929 39.7259 79.9747 39.9035 79.8023 40.1277C79.6298 40.3518 79.5031 40.6104 79.4204 40.9018C79.3377 41.1949 79.2972 41.5035 79.2972 41.8294C79.2972 42.1552 79.3412 42.4897 79.4292 42.7845C79.5172 43.0794 79.6509 43.3363 79.8287 43.5535C80.0064 43.7725 80.2281 43.9432 80.4938 44.0656C80.7578 44.1897 81.0675 44.2518 81.4195 44.2518L81.4177 44.2552Z" fill="white"/>
<path d="M86.1883 35.8156H87.2107V39.6759C87.4149 39.2862 87.6982 39.0035 88.0589 38.8276C88.4197 38.6518 88.8209 38.5621 89.2626 38.5621C89.6603 38.5621 90.0087 38.6276 90.3096 38.7587C90.6106 38.8897 90.8604 39.0724 91.061 39.3069C91.2617 39.5414 91.413 39.8173 91.5151 40.1345C91.6171 40.4535 91.6682 40.7983 91.6682 41.1724V44.9845H90.6457V41.1018C90.6457 40.5552 90.5085 40.1414 90.2375 39.8587C89.9647 39.5759 89.5618 39.4345 89.0286 39.4345C88.4549 39.4345 88.0097 39.588 87.6894 39.8966C87.3709 40.2052 87.2107 40.6259 87.2107 41.1604V44.9845H86.1883V35.8156Z" fill="white"/>
<path d="M96.3174 45.0914C95.837 45.0914 95.4006 45.007 95.0099 44.838C94.6192 44.669 94.2866 44.438 94.0121 44.1449C93.7376 43.8518 93.5264 43.5087 93.3769 43.1139C93.229 42.719 93.1551 42.2949 93.1551 41.8432C93.1551 41.3914 93.2343 40.9414 93.3927 40.5414C93.5511 40.1414 93.771 39.7949 94.0544 39.5018C94.3377 39.2087 94.6773 38.9794 95.0733 38.8121C95.4692 38.6449 95.9056 38.5621 96.379 38.5621C96.8523 38.5621 97.2976 38.6466 97.69 38.8156C98.0824 38.9845 98.4185 39.2156 98.6948 39.5104C98.9711 39.8052 99.1858 40.1501 99.3353 40.5449C99.4867 40.9397 99.5606 41.3639 99.5606 41.8156C99.5606 42.2673 99.4814 42.7121 99.323 43.1121C99.1646 43.5121 98.9411 43.8604 98.6561 44.1518C98.3692 44.4449 98.0278 44.6742 97.6301 44.8414C97.2324 45.0087 96.796 45.0914 96.3191 45.0914H96.3174ZM96.335 44.2552C96.7045 44.2552 97.0248 44.188 97.2976 44.0552C97.5703 43.9225 97.7956 43.7432 97.9733 43.519C98.151 43.2949 98.2848 43.0363 98.371 42.7432C98.4572 42.4501 98.5012 42.1449 98.5012 41.8277C98.5012 41.5104 98.4555 41.1863 98.3657 40.8932C98.276 40.6001 98.1387 40.3432 97.9575 40.1208C97.7744 39.8983 97.5474 39.7225 97.2747 39.5932C97.0019 39.4639 96.6852 39.3983 96.3244 39.3983C95.9637 39.3983 95.6434 39.4639 95.3777 39.5949C95.1102 39.7259 94.892 39.9035 94.7195 40.1277C94.5471 40.3518 94.4204 40.6104 94.3377 40.9018C94.255 41.1949 94.2145 41.5035 94.2145 41.8294C94.2145 42.1552 94.2585 42.4897 94.3465 42.7845C94.4345 43.0794 94.5682 43.3363 94.7459 43.5535C94.9237 43.7725 95.1454 43.9432 95.4111 44.0656C95.6751 44.1897 95.9848 44.2518 96.3367 44.2518L96.335 44.2552Z" fill="white"/>
<path d="M111.119 42.5224C110.971 42.8879 110.774 43.2259 110.529 43.5397C110.284 43.8517 110.003 44.1224 109.686 44.3534C109.369 44.5828 109.023 44.7638 108.648 44.8948C108.273 45.0259 107.881 45.0914 107.472 45.0914C106.791 45.0914 106.188 44.9793 105.665 44.7534C105.142 44.5276 104.703 44.2155 104.345 43.819C103.988 43.4224 103.719 42.95 103.536 42.4052C103.353 41.8586 103.263 41.2672 103.263 40.631C103.263 40.0414 103.36 39.481 103.555 38.9483C103.749 38.4155 104.027 37.9483 104.386 37.5466C104.745 37.1448 105.179 36.8241 105.691 36.5897C106.204 36.3534 106.774 36.2362 107.402 36.2362C107.794 36.2362 108.178 36.2931 108.553 36.4034C108.928 36.5155 109.276 36.6759 109.596 36.8845C109.917 37.0931 110.202 37.3448 110.45 37.6397C110.698 37.9345 110.893 38.2638 111.034 38.6293L110.161 39C110.049 38.7138 109.903 38.4517 109.721 38.2138C109.54 37.9759 109.332 37.7724 109.098 37.6034C108.864 37.4345 108.604 37.3034 108.319 37.2086C108.034 37.1138 107.731 37.0672 107.411 37.0672C106.878 37.0672 106.42 37.1707 106.036 37.3759C105.653 37.5828 105.34 37.8534 105.091 38.1897C104.845 38.5259 104.662 38.9103 104.544 39.3414C104.426 39.7741 104.366 40.2155 104.366 40.6672C104.366 41.15 104.432 41.6086 104.562 42.0397C104.692 42.4724 104.887 42.8517 105.148 43.1776C105.408 43.5034 105.734 43.7621 106.124 43.9534C106.515 44.1448 106.971 44.2397 107.493 44.2397C107.81 44.2397 108.115 44.1845 108.405 44.0741C108.695 43.9638 108.963 43.8155 109.207 43.6259C109.452 43.4379 109.667 43.219 109.853 42.969C110.04 42.719 110.189 42.4552 110.302 42.1759L111.113 42.5241L111.119 42.5224Z" fill="white"/>
<path d="M112.725 36.3586H115.63C116.035 36.3586 116.424 36.4017 116.794 36.488C117.165 36.5742 117.491 36.7121 117.774 36.9035C118.057 37.0948 118.282 37.3414 118.45 37.6466C118.617 37.9517 118.703 38.3224 118.703 38.7638C118.703 39.1104 118.648 39.4173 118.541 39.6862C118.434 39.9552 118.282 40.1897 118.091 40.388C117.899 40.5862 117.668 40.75 117.403 40.8793C117.135 41.0086 116.841 41.1069 116.521 41.1742L119.222 44.9983H118.025L115.409 41.2448H113.802V44.9983H112.725V36.3586ZM115.703 40.4017C115.982 40.4017 116.241 40.3724 116.479 40.3138C116.714 40.2552 116.919 40.1604 117.089 40.0311C117.26 39.9017 117.392 39.7328 117.487 39.5242C117.58 39.3155 117.628 39.0621 117.628 38.7638C117.628 38.4655 117.579 38.2104 117.48 38.0086C117.381 37.8069 117.246 37.6483 117.073 37.5276C116.901 37.4069 116.697 37.3242 116.463 37.2742C116.229 37.2259 115.974 37.2 115.703 37.2H113.802V40.4H115.703V40.4017Z" fill="white"/>
<path d="M120.688 36.3586H122.18L125.001 43.2L127.787 36.3586H129.267V44.9862H128.197V37.7207L125.214 44.9862H124.756L121.677 37.7207V44.9862H120.69V36.3586H120.688Z" fill="white"/>
<path d="M20.6241 50C22.2763 50 23.6157 48.6877 23.6157 47.069C23.6157 45.4502 22.2763 44.1379 20.6241 44.1379C18.9719 44.1379 17.6326 45.4502 17.6326 47.069C17.6326 48.6877 18.9719 50 20.6241 50Z" fill="white"/>
<path d="M4.20575 13.6724C5.85794 13.6724 7.19731 12.3601 7.19731 10.7413C7.19731 9.12257 5.85794 7.8103 4.20575 7.8103C2.55357 7.8103 1.2142 9.12257 1.2142 10.7413C1.2142 12.3601 2.55357 13.6724 4.20575 13.6724Z" fill="white"/>
<path d="M27.0119 32.7587C28.6641 32.7587 30.0035 31.4464 30.0035 29.8276C30.0035 28.2089 28.6641 26.8966 27.0119 26.8966C25.3597 26.8966 24.0204 28.2089 24.0204 29.8276C24.0204 31.4464 25.3597 32.7587 27.0119 32.7587Z" fill="white"/>
<path d="M15.5385 45.4138C15.2393 45.4138 14.9226 45.3275 14.6586 45.1379C11.9838 43.2241 8.18277 40.0517 5.15603 35.7758C1.74214 30.931 0 25.6896 0 20.2069C0 18.7241 0.158376 17.2586 0.492726 15.8275C0.6687 15.0344 1.47818 14.5344 2.28766 14.7069C3.09714 14.8793 3.60746 15.6724 3.43149 16.4655C3.14993 17.6896 3.00915 18.9482 3.00915 20.2069C3.00915 25.0862 4.57531 29.7586 7.63725 34.1034C10.4176 38.0344 13.9547 40.9827 16.4359 42.7586C17.1046 43.2413 17.2454 44.1551 16.7527 44.8103C16.4711 45.2069 15.996 45.4138 15.5385 45.4138Z" fill="white"/>
<path d="M28.8069 42.9655C28.5957 42.9655 28.3669 42.9138 28.1558 42.8276C23.8268 40.8103 19.2339 37.5517 15.8904 34.069C11.5263 29.569 9.22101 24.8276 9.22101 20.3621C9.22101 17.3793 10.4 14.5862 12.5645 12.4655C14.729 10.3448 17.5798 9.18965 20.6241 9.18965C23.6684 9.18965 26.5192 10.3448 28.6837 12.4655C30.8482 14.569 32.0272 17.3793 32.0272 20.3621C32.0272 21.931 31.7632 23.5345 31.2353 25.1034C30.9889 25.8793 30.1267 26.2931 29.3524 26.0345C28.5605 25.7931 28.1382 24.9483 28.4021 24.1897C28.8245 22.9138 29.0532 21.6207 29.0532 20.3621C29.0532 15.8276 25.2874 12.1379 20.6593 12.1379C16.0312 12.1379 12.2126 15.8103 12.2126 20.3448C12.2126 22.931 13.2332 27.0345 18.0549 32.0345C20.9408 35.0172 24.8123 37.8448 28.5429 39.7241C31.1825 37.3448 33.3118 34.7586 34.9132 32.0517C37.1128 28.2931 38.2391 24.3103 38.2391 20.1897C38.2391 15.569 36.4089 11.2414 33.083 7.98276C29.7571 4.72414 25.3226 2.93103 20.6241 2.93103C16.3127 2.93103 12.1598 4.48276 8.93945 7.27586C8.32354 7.81034 7.37328 7.75862 6.82777 7.15517C6.28225 6.55172 6.33504 5.62069 6.95095 5.08621C10.7168 1.7931 15.5737 0 20.6241 0C23.4045 0 26.1145 0.534483 28.6485 1.58621C31.1121 2.60345 33.3118 4.06897 35.1947 5.91379C37.0776 7.75862 38.5734 9.93103 39.6116 12.3276C40.6851 14.8103 41.2306 17.4655 41.2306 20.1897C41.2306 24.8276 39.9812 29.3103 37.5176 33.5172C35.617 36.7586 33.0302 39.7931 29.7923 42.5862C29.5108 42.8448 29.1588 42.9655 28.8069 42.9655Z" fill="white"/>
</g>
<defs>
<clipPath id="clip0_1107_1652">
<rect width="176" height="50" fill="white"/>
</clipPath>
</defs>
</svg>
