<svg width="158" height="50" viewBox="0 0 158 50" fill="none" xmlns="http://www.w3.org/2000/svg">
<path d="M62.0066 37.348C62.7966 39.5608 64.7464 40.7095 67.0996 40.7095C68.8813 40.7095 70.747 39.7635 70.747 37.7365C70.747 35.5913 68.6291 35.2027 66.2928 34.7804C63.3008 34.2399 60.0064 33.598 60.0064 29.1385C60.0064 25.4054 63.3345 23.5135 66.6625 23.5135C69.7553 23.5135 72.4783 24.7804 73.6717 27.8041L70.9319 29.0541C70.1083 27.348 68.5787 26.3176 66.6121 26.3176C65.0489 26.3176 63.4689 26.9764 63.4689 28.8683C63.4689 30.9629 65.4187 31.3345 67.7719 31.7568C70.7974 32.2973 74.2936 32.9054 74.2936 37.4494C74.2936 41.3852 70.6462 43.4629 67.0828 43.4629C63.6202 43.4629 60.124 42.2129 59.0819 38.6149L62.0066 37.348Z" fill="white"/>
<path d="M85.2528 41.4527C84.177 42.8885 82.6138 43.446 80.8657 43.446C78.21 43.446 76.1257 42.0946 76.1257 39.3074C76.1257 35.3716 80.2606 34.7466 83.5551 34.7466H85.2191V34.527C85.2191 32.5 84.7485 31.2162 82.4625 31.2162C81.0842 31.2162 79.8236 31.9257 79.3193 33.2433L76.6972 32.1115C77.6385 29.6115 80.2774 28.6993 82.7987 28.6993C86.1436 28.6993 88.564 30.321 88.564 33.9189V43.1926H85.2359V41.4527H85.2528ZM83.5383 36.8412C81.9751 36.8412 79.5042 37.027 79.5042 39.1723C79.5042 40.5406 80.4959 41.0473 81.7566 41.0473C83.4711 41.0473 85.2359 40.152 85.2359 38.2264V36.8412H83.5383Z" fill="white"/>
<path d="M92.2451 23.2433L95.6236 21.7737V43.1926H92.2451V23.2433Z" fill="white"/>
<path d="M112.029 40.1014C110.852 42.6014 108.314 43.4629 105.726 43.4629C101.271 43.4629 98.4642 40.473 98.4642 36.0474C98.4642 31.892 101.322 28.6825 105.574 28.6825C110.146 28.6825 112.365 31.3683 112.365 36.8413H101.91C101.91 39.2399 103.288 40.9967 105.86 40.9967C107.39 40.9967 108.65 40.3717 109.39 38.9359L112.029 40.1014ZM109.003 34.6115C108.902 32.4663 107.608 31.1487 105.608 31.1487C103.49 31.1487 102.246 32.6521 101.96 34.6115H109.003Z" fill="white"/>
<path d="M116.634 38.9527C117.155 40.3378 118.601 41.0135 120.13 41.0135C121.223 41.0135 122.584 40.6757 122.584 39.3243C122.584 37.9054 121.055 37.5676 119.307 37.1959C117.038 36.723 114.5 36.1655 114.5 32.973C114.5 30.0507 117.206 28.6655 119.761 28.6655C121.996 28.6655 124.568 29.5101 125.492 31.7567L122.988 32.8378C122.433 31.5709 121.055 31.098 119.895 31.098C118.769 31.098 117.693 31.554 117.693 32.7027C117.693 34.0034 119.071 34.2736 120.786 34.6115C123.089 35.0676 125.845 35.5912 125.845 38.902C125.845 42.2466 123.055 43.429 120.114 43.429C117.626 43.429 114.937 42.5844 114.063 40.0338L116.634 38.9527Z" fill="white"/>
<path d="M128.77 23.7838H132.501V43.1926H128.77V23.7838Z" fill="white"/>
<path d="M149.411 42.8041C148.184 43.2433 146.89 43.446 145.545 43.446C139.645 43.446 135.678 39.2906 135.678 33.3785C135.678 27.6521 139.88 23.4967 145.696 23.4967C151.495 23.4967 155.428 27.6521 155.428 33.4629C155.428 36.5035 154.353 39.2906 152.083 41.2501L154.235 43.5643L152.083 45.6758L149.411 42.8041ZM147.545 36.3514L149.797 38.7839C151.109 37.2805 151.562 35.3041 151.562 33.3278C151.562 29.6454 149.579 26.4528 145.461 26.4528C141.326 26.4528 139.578 29.696 139.578 33.5643C139.578 37.2129 141.713 40.5406 145.646 40.5406C146.15 40.5406 146.654 40.4899 147.142 40.3548L145.326 38.4122L147.545 36.3514Z" fill="white"/>
<path d="M60.5443 17.6352L66.7634 8.61496H61.183V6.84131H69.6881V7.71969L63.6202 16.74H69.5032V18.5136H60.5443V17.6352Z" fill="white"/>
<path d="M74.9996 9.79736C77.5881 9.79736 79.5715 11.6217 79.5715 14.2399C79.5715 16.9257 77.4872 18.6994 74.9155 18.6994C72.327 18.6994 70.2428 16.892 70.2428 14.2906C70.2428 11.5879 72.4447 9.79736 74.9996 9.79736ZM77.3864 14.2399C77.3864 12.669 76.5964 11.3514 74.9155 11.3514C73.2011 11.3514 72.5119 12.7197 72.5119 14.2906C72.5119 15.8109 73.3187 17.0947 74.9659 17.0947C76.6636 17.1116 77.3864 15.7433 77.3864 14.2399Z" fill="white"/>
<path d="M81.0506 6.09802H83.0845V11.3345C83.6391 10.2703 84.7485 9.79735 85.9251 9.79735C87.9589 9.79735 88.9842 11.2332 88.9842 13.1757V18.5305H86.9336V13.3784C86.9336 12.1453 86.2949 11.4696 85.1183 11.4696C83.8072 11.4696 83.0845 12.2805 83.0845 13.4967V18.5136H81.0506V6.09802Z" fill="white"/>
<path d="M95.0689 9.79736C97.6574 9.79736 99.6408 11.6217 99.6408 14.2399C99.6408 16.9257 97.5566 18.6994 94.9849 18.6994C92.3964 18.6994 90.3121 16.892 90.3121 14.2906C90.3121 11.5879 92.514 9.79736 95.0689 9.79736ZM97.4557 14.2399C97.4557 12.669 96.6657 11.3514 94.9849 11.3514C93.2704 11.3514 92.5813 12.7197 92.5813 14.2906C92.5813 15.8109 93.3881 17.0947 95.0353 17.0947C96.733 17.1116 97.4557 15.7433 97.4557 14.2399Z" fill="white"/>
<path d="M49.2826 47.027L43.5341 41.2668C45.2989 39.2567 46.7277 37.0101 47.7698 34.527C49.0304 31.5033 49.686 28.3108 49.686 25C49.686 21.6891 49.0472 18.4797 47.7698 15.4729C46.5428 12.5506 44.7779 9.93239 42.5423 7.68577C40.3068 5.43915 37.7015 3.6655 34.7936 2.43239C31.7849 1.14861 28.6081 0.506714 25.3136 0.506714C22.0192 0.506714 18.8255 1.14861 15.8168 2.43239C12.9258 3.6655 10.3204 5.43915 8.06809 7.68577C5.81575 9.93239 4.08448 12.5506 2.85745 15.4729C1.58001 18.4797 0.941284 21.6891 0.941284 25C0.941284 28.3108 1.58001 31.5202 2.85745 34.527C4.08448 37.4493 5.84937 40.0675 8.0849 42.3141C10.3204 44.5608 12.9258 46.3344 15.8336 47.5675C18.8255 48.8513 22.0192 49.4932 25.3136 49.4932L48.2741 49.4763C48.8455 49.4763 49.3666 49.1216 49.6019 48.581C49.8204 48.0574 49.7028 47.4324 49.2826 47.027ZM25.3136 46.6216C22.4058 46.6216 19.5987 46.0473 16.943 44.9155C14.3881 43.8344 12.0853 42.2635 10.1019 40.2871C8.11852 38.3108 6.57214 35.9966 5.49639 33.4121C4.37022 30.7432 3.79873 27.9223 3.79873 25C3.79873 22.0777 4.37022 19.2567 5.49639 16.5878C6.57214 14.0202 8.13533 11.706 10.1019 9.71279C12.0853 7.71955 14.3713 6.1655 16.943 5.08442C19.5987 3.95266 22.4058 3.37834 25.3136 3.37834C28.2215 3.37834 31.0285 3.95266 33.6843 5.08442C36.2392 6.1655 38.5419 7.73644 40.5253 9.71279C42.5087 11.706 44.0551 14.0033 45.1309 16.5878C46.257 19.2567 46.8285 22.0777 46.8285 25C46.8285 27.9223 46.257 30.7432 45.1477 33.3952C44.2568 35.5236 43.0298 37.4831 41.517 39.2229L28.7762 26.4358H30.6755C31.4655 26.4358 32.1043 25.7939 32.1043 25C32.1043 24.206 31.4655 23.5641 30.6755 23.5641H25.3472C25.3472 23.5641 25.3472 23.5641 25.3304 23.5641C24.9606 23.5641 24.5909 23.6993 24.3051 23.9864C23.9689 24.3243 23.8345 24.8141 23.9017 25.2533V30.3547C23.9017 31.1486 24.5404 31.7905 25.3304 31.7905C26.1204 31.7905 26.7592 31.1486 26.7592 30.3547V28.4797L44.8283 46.6047L25.3136 46.6216Z" fill="white"/>
<path d="M25.3136 34.6622C20.0189 34.6622 15.6992 30.321 15.6992 25C15.6992 19.6791 20.0189 15.3379 25.3136 15.3379C30.6083 15.3379 34.9281 19.6791 34.9281 25C34.9281 25.8446 34.8272 26.6723 34.6087 27.4662C34.407 28.2264 34.8609 29.0203 35.6341 29.223C36.3904 29.4257 37.1804 28.9696 37.3821 28.1926C37.6511 27.1453 37.7855 26.0811 37.7855 24.9831C37.7855 21.6385 36.4913 18.4797 34.1381 16.1149C31.7849 13.75 28.6585 12.4493 25.3136 12.4493C21.9687 12.4493 18.8424 13.75 16.4892 16.1149C14.136 18.4797 12.8585 21.6554 12.8585 25C12.8585 28.3446 14.1528 31.5034 16.506 33.8683C18.8592 36.2331 21.9855 37.5338 25.3304 37.5338C26.4566 37.5338 27.566 37.3818 28.6417 37.0946C29.3981 36.8919 29.8519 36.098 29.6502 35.321C29.4485 34.5608 28.6585 34.1047 27.8853 34.3075C27.0449 34.5439 26.1877 34.6622 25.3136 34.6622Z" fill="white"/>
</svg>
