<svg width="264" height="60" viewBox="0 0 264 60" fill="none" xmlns="http://www.w3.org/2000/svg">
<path d="M72.732 44.8114C72.9756 45.4803 73.3006 46.0621 73.7047 46.5607C74.1088 47.0594 74.5759 47.479 75.108 47.8175C75.64 48.158 76.2229 48.4114 76.8605 48.5817C77.4982 48.752 78.1724 48.8351 78.8852 48.8351C79.4274 48.8351 79.9615 48.7641 80.4875 48.6202C81.0134 48.4763 81.4825 48.2594 81.8968 47.9675C82.3111 47.6756 82.6482 47.3047 82.9081 46.8547C83.1681 46.4047 83.298 45.8756 83.298 45.2716C83.298 44.6249 83.1498 44.0999 82.8513 43.6966C82.5528 43.2932 82.1588 42.9668 81.6633 42.7175C81.1678 42.4682 80.5971 42.2716 79.9493 42.1297C79.3015 41.9857 78.6212 41.852 77.9104 41.7243C77.0067 41.5662 76.1051 41.3716 75.2014 41.1445C74.2977 40.9175 73.4854 40.5689 72.7624 40.1026C72.0395 39.6364 71.4526 38.9939 71.0017 38.177C70.5509 37.3601 70.3255 36.2837 70.3255 34.9479C70.3255 33.8351 70.557 32.856 71.018 32.0128C71.481 31.1695 72.0882 30.4641 72.8416 29.8966C73.595 29.329 74.454 28.9053 75.4146 28.6236C76.3752 28.3418 77.3621 28.202 78.3714 28.202C79.3056 28.202 80.2032 28.2993 81.0642 28.4959C81.9252 28.6925 82.7233 29.0006 83.4625 29.4182C84.2017 29.8378 84.8597 30.3709 85.4385 31.0175C86.0172 31.6641 86.4884 32.4445 86.8499 33.3567L83.5357 34.8526C83.0361 33.8249 82.3395 33.0182 81.448 32.4344C80.5565 31.8506 79.5147 31.5587 78.3247 31.5587C77.8475 31.5587 77.3824 31.6114 76.9296 31.7189C76.4787 31.8243 76.0746 32.0006 75.7192 32.2439C75.3638 32.4871 75.0755 32.8033 74.8582 33.1905C74.6409 33.5776 74.5312 34.058 74.5312 34.6297C74.5312 35.256 74.6693 35.7648 74.9455 36.156C75.2217 36.5493 75.5953 36.8675 76.0685 37.1107C76.5417 37.354 77.092 37.5486 77.7175 37.6905C78.345 37.8344 79.0131 37.9682 79.7259 38.0959C80.3412 38.2013 80.9606 38.3189 81.5821 38.4466C82.2035 38.5743 82.8066 38.7405 83.3915 38.9472C83.9763 39.154 84.5226 39.4114 85.0323 39.7195C85.542 40.0276 85.9888 40.4148 86.3706 40.881C86.7524 41.3472 87.0529 41.9128 87.2702 42.5756C87.4875 43.2385 87.5972 44.0209 87.5972 44.9229C87.5972 46.1006 87.3454 47.1385 86.8397 48.0405C86.334 48.9425 85.6741 49.6966 84.8557 50.3067C84.0373 50.9168 83.1051 51.3749 82.0593 51.683C81.0134 51.9912 79.9534 52.1452 78.8791 52.1452C77.8048 52.1452 76.7935 52.0439 75.7801 51.8432C74.7648 51.6425 73.8225 51.3121 72.9513 50.856C72.0801 50.3999 71.3185 49.802 70.6646 49.058C70.0107 48.3162 69.5254 47.404 69.2065 46.3216L72.7279 44.8094L72.732 44.8114Z" fill="white"/>
<path d="M106.292 48.1195C105.941 48.8736 105.492 49.506 104.946 50.0209C104.4 50.5357 103.793 50.9493 103.129 51.2614C102.464 51.5736 101.752 51.8006 100.992 51.9364C100.233 52.0743 99.4589 52.1432 98.673 52.1432C97.3246 52.1432 96.1082 51.9283 95.0237 51.4986C93.9393 51.0688 93.0173 50.4648 92.2578 49.6844C91.4983 48.906 90.9134 47.9695 90.5053 46.877C90.0971 45.7844 89.892 44.5763 89.892 43.2506C89.892 41.9999 90.0991 40.8364 90.5134 39.7601C90.9277 38.6837 91.5125 37.7513 92.2659 36.9607C93.0194 36.1702 93.923 35.5499 94.975 35.0999C96.0269 34.6499 97.1946 34.4249 98.4801 34.4249C101.242 34.4249 103.301 35.2337 104.656 36.8513C106.01 38.4688 106.686 40.9215 106.686 44.2074H94.049C94.049 44.929 94.1525 45.5938 94.3597 46.204C94.5668 46.8141 94.8714 47.3391 95.2755 47.779C95.6797 48.2188 96.1792 48.5634 96.7742 48.8128C97.3693 49.0621 98.0536 49.1857 98.8294 49.1857C99.7635 49.1857 100.598 48.9891 101.331 48.5979C102.064 48.2067 102.653 47.5743 103.1 46.7047L106.286 48.1195H106.292ZM102.629 41.5357C102.566 40.2425 102.17 39.227 101.441 38.4891C100.714 37.7513 99.7432 37.3844 98.5329 37.3844C97.8952 37.3844 97.3226 37.4898 96.8128 37.7026C96.3031 37.9155 95.8645 38.2074 95.4989 38.5783C95.1334 38.9493 94.8328 39.3871 94.5993 39.8898C94.3658 40.3945 94.2053 40.9418 94.1221 41.5357H102.631H102.629Z" fill="white"/>
<path d="M109.974 34.7898H114.054V37.9865C114.629 36.8087 115.38 35.9392 116.308 35.3777C117.238 34.8162 118.355 34.5344 119.663 34.5344V38.3047C118.834 38.3047 118.077 38.3797 117.393 38.5277C116.706 38.6756 116.117 38.9331 115.624 39.3C115.13 39.6669 114.745 40.1513 114.468 40.7554C114.192 41.3594 114.054 42.1175 114.054 43.0297V51.827H109.974V34.7919V34.7898Z" fill="white"/>
<path d="M121.241 34.7898H125.607L130.022 47.6898L134.388 34.7898H138.373L132.221 51.8249H127.441L121.241 34.7898Z" fill="white"/>
<path d="M140.539 29.8905C140.539 29.552 140.602 29.2418 140.73 28.9601C140.858 28.6783 141.033 28.4351 141.256 28.2283C141.48 28.0216 141.737 27.8635 142.03 27.752C142.322 27.6405 142.633 27.5858 142.962 27.5858C143.291 27.5858 143.6 27.6445 143.886 27.7601C144.172 27.8776 144.424 28.0378 144.643 28.2445C144.861 28.4513 145.031 28.6945 145.153 28.9763C145.275 29.2581 145.336 29.5682 145.336 29.9067C145.336 30.2452 145.275 30.5432 145.153 30.829C145.031 31.1148 144.867 31.3601 144.66 31.5608C144.453 31.7635 144.205 31.9216 143.919 32.0371C143.632 32.1547 143.317 32.2114 142.978 32.2114C142.639 32.2114 142.335 32.1526 142.038 32.0371C141.742 31.9195 141.48 31.7594 141.256 31.5526C141.033 31.3459 140.858 31.0986 140.73 30.8128C140.602 30.527 140.539 30.2189 140.539 29.8905ZM140.907 34.8222H144.987V51.827H140.907V34.8222Z" fill="white"/>
<path d="M165.002 47.0067C164.716 47.8965 164.312 48.6668 163.792 49.3134C163.272 49.9601 162.667 50.4932 161.974 50.9128C161.284 51.3324 160.524 51.6425 159.696 51.8432C158.867 52.0438 158.006 52.1452 157.115 52.1452C155.766 52.1452 154.554 51.9283 153.481 51.4925C152.407 51.0587 151.499 50.4506 150.756 49.6702C150.013 48.8898 149.444 47.9553 149.05 46.8628C148.656 45.7702 148.461 44.5661 148.461 43.2526C148.461 41.9391 148.677 40.8182 149.107 39.7378C149.538 38.6574 150.141 37.7229 150.917 36.9384C151.692 36.154 152.614 35.5378 153.683 35.0938C154.751 34.6499 155.927 34.4249 157.212 34.4249C158.073 34.4249 158.898 34.5182 159.69 34.7026C160.482 34.8891 161.211 35.1749 161.881 35.5621C162.551 35.9493 163.142 36.4438 163.658 37.0499C164.173 37.654 164.59 38.3756 164.909 39.2128L161.611 40.6601C161.272 39.6952 160.711 38.9533 159.929 38.4324C159.149 37.9134 158.242 37.652 157.212 37.652C156.383 37.652 155.679 37.8161 155.1 38.1445C154.521 38.4729 154.05 38.9107 153.689 39.456C153.327 40.0013 153.065 40.6215 152.901 41.3168C152.736 42.0121 152.653 42.7256 152.653 43.4553C152.653 44.1851 152.738 44.9249 152.909 45.602C153.079 46.281 153.349 46.8749 153.721 47.3837C154.093 47.8925 154.57 48.2979 155.155 48.5999C155.74 48.902 156.446 49.054 157.275 49.054C158.455 49.054 159.432 48.752 160.207 48.1479C160.983 47.5438 161.546 46.7067 161.897 45.6344L165.004 47.0026L165.002 47.0067Z" fill="white"/>
<path d="M183.486 48.1195C183.135 48.8736 182.686 49.506 182.14 50.0209C181.593 50.5357 180.986 50.9493 180.322 51.2614C179.658 51.5736 178.945 51.8006 178.186 51.9364C177.426 52.0743 176.653 52.1432 175.867 52.1432C174.518 52.1432 173.302 51.9283 172.217 51.4986C171.133 51.0688 170.211 50.4648 169.451 49.6844C168.692 48.906 168.107 47.9695 167.699 46.877C167.291 45.7844 167.086 44.5763 167.086 43.2506C167.086 41.9999 167.293 40.8364 167.707 39.7601C168.121 38.6837 168.706 37.7513 169.46 36.9607C170.213 36.1702 171.117 35.5499 172.169 35.0999C173.221 34.6499 174.388 34.4249 175.674 34.4249C178.436 34.4249 180.495 35.2337 181.849 36.8513C183.204 38.4688 183.88 40.9215 183.88 44.2074H171.243C171.243 44.929 171.346 45.5938 171.553 46.204C171.76 46.8141 172.065 47.3391 172.469 47.779C172.873 48.2188 173.373 48.5634 173.968 48.8128C174.563 49.0621 175.247 49.1857 176.023 49.1857C176.957 49.1857 177.792 48.9891 178.525 48.5979C179.258 48.2067 179.847 47.5743 180.294 46.7047L183.48 48.1195H183.486ZM179.823 41.5357C179.76 40.2425 179.364 39.227 178.635 38.4891C177.908 37.7513 176.937 37.3844 175.726 37.3844C175.089 37.3844 174.516 37.4898 174.006 37.7026C173.497 37.9155 173.058 38.2074 172.693 38.5783C172.327 38.9493 172.026 39.3871 171.793 39.8898C171.559 40.3945 171.399 40.9418 171.316 41.5357H179.825H179.823Z" fill="white"/>
<path d="M194.499 28.5385H202.61C203.842 28.5385 204.99 28.6682 206.052 28.9276C207.114 29.1871 208.038 29.6087 208.824 30.1925C209.61 30.7763 210.229 31.5344 210.68 32.4668C211.131 33.3993 211.356 34.5344 211.356 35.8702C211.356 37.3439 211.088 38.5479 210.552 39.4803C210.016 40.4128 209.299 41.1425 208.402 41.6675C207.504 42.1925 206.472 42.5533 205.311 42.7499C204.147 42.9466 202.945 43.0439 201.702 43.0439H199.025V51.8249H194.499V28.5385ZM202.577 39.8006C203.968 39.8006 205.045 39.4925 205.804 38.8783C206.564 38.2641 206.943 37.2506 206.943 35.8398C206.943 35.108 206.84 34.4939 206.633 33.9952C206.426 33.4966 206.131 33.0972 205.749 32.7952C205.368 32.4932 204.907 32.2783 204.37 32.1506C203.834 32.0229 203.237 31.9601 202.577 31.9601H199.023V39.8026H202.577V39.8006Z" fill="white"/>
<path d="M214.514 27.8878L218.594 26.1223V51.827H214.514V27.8878Z" fill="white"/>
<path d="M234.625 49.1533C234.359 49.6722 234.028 50.1202 233.63 50.4972C233.232 50.8743 232.787 51.1844 232.3 51.4276C231.81 51.6709 231.288 51.8513 230.73 51.9688C230.171 52.0864 229.597 52.1432 229.002 52.1432C228.025 52.1432 227.162 51.9891 226.412 51.681C225.663 51.3729 225.036 50.9371 224.532 50.3695C224.026 49.802 223.646 49.1229 223.393 48.3344C223.137 47.5438 223.011 46.6661 223.011 45.7013V34.7898H227.091V45.2087C227.091 46.3763 227.367 47.2925 227.919 47.9614C228.472 48.6303 229.343 48.9628 230.533 48.9628C231.17 48.9628 231.741 48.8655 232.247 48.6688C232.75 48.4722 233.181 48.1966 233.538 47.8418C233.896 47.4871 234.166 47.0574 234.351 46.5526C234.538 46.0499 234.629 45.4945 234.629 44.8905V34.7898H238.692V51.8249H234.629V49.1533H234.625Z" fill="white"/>
<path d="M244.968 46.7513C245.128 47.1648 245.349 47.5277 245.638 47.8419C245.924 48.154 246.253 48.4115 246.627 48.6142C246.998 48.8148 247.405 48.9669 247.845 49.0682C248.286 49.1696 248.735 49.2202 249.192 49.2202C249.521 49.2202 249.86 49.1919 250.211 49.1331C250.562 49.0743 250.881 48.9689 251.168 48.8148C251.454 48.6608 251.691 48.454 251.876 48.1946C252.063 47.9351 252.154 47.6027 252.154 47.2013C252.154 46.7777 252.049 46.427 251.836 46.1513C251.622 45.8757 251.334 45.6446 250.966 45.4601C250.601 45.2736 250.181 45.1216 249.707 44.998C249.234 44.8763 248.733 44.7628 248.201 44.6554C247.52 44.5074 246.832 44.3392 246.137 44.1547C245.441 43.9682 244.817 43.6986 244.265 43.3439C243.713 42.9892 243.262 42.5148 242.91 41.9209C242.559 41.327 242.384 40.5527 242.384 39.598C242.384 38.7182 242.569 37.954 242.943 37.3074C243.315 36.6608 243.8 36.1257 244.401 35.7C245.002 35.2763 245.68 34.9581 246.44 34.7452C247.199 34.5324 247.967 34.427 248.743 34.427C249.423 34.427 250.114 34.4939 250.814 34.6257C251.515 34.7574 252.177 34.9723 252.798 35.2702C253.42 35.5662 253.982 35.9513 254.488 36.4236C254.991 36.8959 255.383 37.4655 255.66 38.1344L252.632 39.4378C252.461 39.0567 252.238 38.7365 251.962 38.475C251.685 38.2155 251.377 38.0007 251.038 37.8304C250.698 37.6601 250.341 37.5385 249.969 37.4655C249.598 37.3905 249.236 37.354 248.885 37.354C248.534 37.354 248.215 37.3885 247.896 37.4574C247.577 37.5263 247.293 37.6378 247.043 37.7919C246.793 37.9459 246.594 38.1446 246.446 38.3878C246.298 38.6311 246.223 38.929 246.223 39.2777C246.223 39.6709 246.32 39.9912 246.517 40.2405C246.714 40.4898 246.98 40.6966 247.313 40.8608C247.648 41.025 248.044 41.1608 248.501 41.2662C248.958 41.3716 249.441 41.473 249.951 41.5682C250.652 41.7061 251.365 41.8642 252.085 42.0446C252.808 42.225 253.464 42.4946 254.053 42.8554C254.642 43.2162 255.123 43.7007 255.495 44.3108C255.867 44.9209 256.054 45.7236 256.054 46.7209C256.054 47.7182 255.859 48.5635 255.473 49.2588C255.085 49.954 254.569 50.5135 253.927 50.9371C253.284 51.3608 252.548 51.6689 251.72 51.8594C250.891 52.05 250.03 52.1452 249.139 52.1452C248.385 52.1452 247.63 52.0763 246.877 51.9385C246.123 51.8007 245.416 51.5736 244.756 51.2554C244.098 50.9371 243.512 50.5175 242.996 49.9986C242.48 49.4797 242.09 48.8371 241.824 48.073L244.964 46.7534L244.968 46.7513Z" fill="white"/>
<path d="M70.9631 21.1662L78.4709 10.3378H71.7226V8.20135H82.0044V9.26554L74.6794 20.0939H81.7932V22.2304H70.9652V21.1662H70.9631Z" fill="white"/>
<path d="M82.6847 17.1223C82.6847 16.3175 82.839 15.5837 83.1497 14.9229C83.4604 14.2621 83.8768 13.6966 84.4027 13.2263C84.9267 12.756 85.5359 12.3932 86.2304 12.1337C86.9249 11.8743 87.6601 11.7466 88.4338 11.7466C89.2075 11.7466 89.9406 11.8763 90.6128 12.1337C91.285 12.3932 91.8678 12.756 92.3654 13.2263C92.8629 13.6966 93.2508 14.2581 93.531 14.9128C93.8133 15.5675 93.9534 16.2871 93.9534 17.0736C93.9534 17.8601 93.8052 18.6101 93.5128 19.2689C93.2183 19.9277 92.8162 20.4891 92.3085 20.9554C91.7988 21.4216 91.2038 21.7824 90.5174 22.0378C89.833 22.2932 89.1019 22.4209 88.3282 22.4209C87.5545 22.4209 86.8132 22.2912 86.1248 22.0337C85.4364 21.7743 84.8393 21.4135 84.3296 20.9452C83.8199 20.479 83.4198 19.9216 83.1254 19.2729C82.8309 18.6243 82.6847 17.9067 82.6847 17.1223ZM88.3972 20.5337C88.909 20.5337 89.3497 20.4385 89.7172 20.2459C90.0848 20.0533 90.3874 19.8 90.625 19.4837C90.8626 19.1675 91.0372 18.8027 91.1489 18.3871C91.2606 17.9716 91.3175 17.5398 91.3175 17.0939C91.3175 16.6216 91.2566 16.1756 91.1347 15.7581C91.0129 15.3405 90.8281 14.9716 90.5824 14.6554C90.3366 14.3392 90.028 14.0898 89.6563 13.9074C89.2847 13.725 88.846 13.6337 88.3404 13.6337C87.8347 13.6337 87.3778 13.729 87.0102 13.9216C86.6427 14.1141 86.3421 14.3696 86.1126 14.6939C85.8832 15.0162 85.7126 15.3912 85.6049 15.8148C85.4953 16.2405 85.4425 16.6885 85.4425 17.1608C85.4425 17.6331 85.5034 18.0466 85.6252 18.454C85.7471 18.8614 85.9299 19.2202 86.1776 19.5263C86.4233 19.8324 86.732 20.0777 87.0996 20.2601C87.4672 20.4425 87.9017 20.5337 88.4013 20.5337H88.3972Z" fill="white"/>
<path d="M95.7508 7.31958H98.208V13.5953C98.3745 13.275 98.5796 12.9993 98.8274 12.7662C99.0731 12.5331 99.3452 12.3405 99.6438 12.1905C99.9402 12.0405 100.261 11.929 100.604 11.8561C100.948 11.7831 101.295 11.7466 101.646 11.7466C102.261 11.7466 102.798 11.848 103.259 12.0527C103.72 12.2574 104.103 12.5392 104.41 12.9C104.717 13.2608 104.948 13.6885 105.1 14.1831C105.255 14.6777 105.33 15.2189 105.33 15.8067V22.2263H102.852V16.0459C102.852 15.304 102.666 14.7385 102.29 14.3493C101.914 13.9601 101.37 13.7655 100.653 13.7655C99.859 13.7655 99.2538 13.9865 98.8335 14.4324C98.4131 14.8784 98.2039 15.4662 98.2039 16.2V22.2263H95.7467V7.31958H95.7508Z" fill="white"/>
<path d="M106.926 17.1223C106.926 16.3175 107.08 15.5837 107.391 14.9229C107.702 14.2621 108.118 13.6966 108.644 13.2263C109.168 12.756 109.777 12.3932 110.472 12.1337C111.166 11.8743 111.901 11.7466 112.675 11.7466C113.449 11.7466 114.182 11.8763 114.854 12.1337C115.526 12.3932 116.109 12.756 116.607 13.2263C117.104 13.6966 117.492 14.2581 117.772 14.9128C118.055 15.5675 118.195 16.2871 118.195 17.0736C118.195 17.8601 118.047 18.6101 117.754 19.2689C117.46 19.9277 117.058 20.4891 116.55 20.9554C116.04 21.4216 115.445 21.7824 114.759 22.0378C114.074 22.2932 113.343 22.4209 112.57 22.4209C111.796 22.4209 111.055 22.2912 110.366 22.0337C109.678 21.7743 109.081 21.4135 108.571 20.9452C108.061 20.479 107.661 19.9216 107.367 19.2729C107.072 18.6243 106.926 17.9067 106.926 17.1223ZM112.637 20.5337C113.148 20.5337 113.589 20.4385 113.957 20.2459C114.324 20.0533 114.627 19.8 114.864 19.4837C115.102 19.1675 115.277 18.8027 115.388 18.3871C115.5 17.9716 115.557 17.5398 115.557 17.0939C115.557 16.6216 115.496 16.1756 115.374 15.7581C115.252 15.3405 115.067 14.9716 114.822 14.6554C114.576 14.3392 114.267 14.0898 113.896 13.9074C113.524 13.725 113.085 13.6337 112.58 13.6337C112.074 13.6337 111.617 13.729 111.25 13.9216C110.882 14.1141 110.581 14.3696 110.352 14.6939C110.122 15.0162 109.952 15.3912 109.844 15.8148C109.735 16.2405 109.682 16.6885 109.682 17.1608C109.682 17.6331 109.743 18.0466 109.865 18.454C109.986 18.8614 110.169 19.2202 110.417 19.5263C110.663 19.8324 110.971 20.0777 111.339 20.2601C111.706 20.4425 112.141 20.5337 112.641 20.5337H112.637Z" fill="white"/>
<path d="M57.8424 15.8615C57.8424 15.8494 57.8424 15.8392 57.8424 15.8271C57.8424 15.8048 57.8403 15.7804 57.8363 15.7581C57.8363 15.748 57.8363 15.7379 57.8343 15.7277C57.8302 15.6973 57.8241 15.6689 57.818 15.6385C57.816 15.6264 57.8119 15.6162 57.8099 15.6041C57.8038 15.5798 57.7977 15.5554 57.7896 15.5331C57.7875 15.525 57.7855 15.5169 57.7815 15.5088C57.7713 15.4784 57.7591 15.448 57.7469 15.4176C57.7429 15.4095 57.7388 15.4014 57.7368 15.3933C57.7083 15.3304 57.6738 15.2716 57.6332 15.2149C57.6291 15.2088 57.6231 15.2007 57.619 15.1946C57.5987 15.1683 57.5804 15.1439 57.5581 15.1196C57.552 15.1135 57.5459 15.1075 57.5418 15.1014C57.5256 15.0831 57.5073 15.0649 57.489 15.0487C57.4809 15.0406 57.4728 15.0325 57.4647 15.0244C57.4423 15.0041 57.42 14.9838 57.3956 14.9656C57.3875 14.9595 57.3794 14.9534 57.3712 14.9473C57.353 14.9331 57.3327 14.921 57.3144 14.9088C57.3042 14.9027 57.2941 14.8966 57.2859 14.8906C57.2819 14.8885 57.2778 14.8845 57.2717 14.8825L32.7624 0.76219C32.407 0.55746 31.9683 0.55746 31.613 0.76219L7.10767 14.8845C7.10767 14.8845 7.09954 14.8906 7.09548 14.8926C7.08533 14.8987 7.07517 14.9048 7.06502 14.9108C7.04674 14.923 7.02847 14.9352 7.01019 14.9494C7.00207 14.9554 6.99191 14.9615 6.98379 14.9676C6.95942 14.9858 6.93708 15.0061 6.91474 15.0244C6.90662 15.0325 6.8985 15.0406 6.88834 15.0487C6.87007 15.0649 6.85382 15.0831 6.83757 15.1014C6.83148 15.1075 6.82539 15.1135 6.8193 15.1196C6.79696 15.1439 6.77868 15.1683 6.75837 15.1946C6.75228 15.2007 6.74822 15.2088 6.74213 15.2169C6.70151 15.2737 6.66699 15.3325 6.63856 15.3953C6.6345 15.4034 6.63044 15.4115 6.62841 15.4196C6.61622 15.45 6.60404 15.4784 6.59388 15.5108C6.59185 15.5189 6.58982 15.5271 6.58576 15.5352C6.57764 15.5595 6.57154 15.5818 6.56545 15.6061C6.56342 15.6183 6.55936 15.6284 6.55733 15.6406C6.55124 15.6689 6.54514 15.6994 6.54108 15.7298C6.54108 15.7399 6.54108 15.75 6.53905 15.7602C6.53702 15.7825 6.53499 15.8068 6.53296 15.8291C6.53296 15.8412 6.53296 15.8514 6.53296 15.8635C6.53296 15.8696 6.53296 15.8737 6.53296 15.8798V44.1243C6.53296 44.5338 6.75228 44.9129 7.10767 45.1196L31.613 59.2419C31.7917 59.3453 31.9887 59.396 32.1877 59.396C32.3867 59.396 32.5857 59.3453 32.7624 59.2419L57.2677 45.1196C57.6231 44.9149 57.8424 44.5358 57.8424 44.1243V15.8777C57.8424 15.8777 57.8424 15.8676 57.8424 15.8615ZM32.1877 3.08314L54.3921 15.8798L41.9679 23.0392L32.7766 17.7426C32.4212 17.5379 31.9826 17.5379 31.6272 17.7426L22.4217 23.0473L9.98324 15.8798L32.1877 3.08314ZM24.7226 24.373L32.2019 20.0635L39.667 24.3649L32.1877 28.6744L24.7226 24.373ZM32.1877 56.9169L8.83382 43.4575V17.8662L21.8511 25.3683C21.8511 25.3683 21.8571 25.3723 21.8592 25.3744L31.617 30.9973C31.617 30.9973 31.6231 31.0014 31.6251 31.0014L40.8184 36.3V44.6838L32.1877 49.6581L23.5731 44.6939V38.0129L25.9613 36.6365L31.613 39.8939C31.9683 40.0987 32.407 40.0987 32.7644 39.8939L36.233 37.8953C36.7833 37.5791 36.9722 36.8757 36.6533 36.3264C36.3365 35.7771 35.6319 35.5885 35.0815 35.9068L32.1877 37.575L26.536 34.3176C26.1807 34.1129 25.742 34.1129 25.3866 34.3176L21.849 36.3568C21.4936 36.5615 21.2743 36.9406 21.2743 37.3521V45.3588C21.2743 45.7683 21.4936 46.1473 21.849 46.3541L31.615 51.9811C31.7937 52.0845 31.9907 52.1352 32.1897 52.1352C32.3887 52.1352 32.5877 52.0845 32.7644 51.9811L42.5446 46.3439C42.9 46.1392 43.1193 45.7602 43.1193 45.3487V35.6392C43.1193 35.2298 42.9 34.8507 42.5446 34.6439L34.4906 30.0021L55.5435 17.8683V43.4595L32.1897 56.9189L32.1877 56.9169Z" fill="white"/>
</svg>
