<svg width="134" height="60" viewBox="0 0 134 60" fill="none" xmlns="http://www.w3.org/2000/svg">
<path d="M68.2182 44.8177C69.1724 47.4731 71.5276 48.8514 74.37 48.8514C76.5221 48.8514 78.7758 47.7163 78.7758 45.2839C78.7758 42.7096 76.2176 42.2433 73.3955 41.7366C69.7815 41.0879 65.8021 40.3177 65.8021 34.9663C65.8021 30.4866 69.8221 28.2163 73.8421 28.2163C77.5779 28.2163 80.867 29.7366 82.3085 33.365L78.9991 34.865C78.0042 32.8177 76.1567 31.5812 73.7812 31.5812C71.893 31.5812 69.9845 32.3717 69.9845 34.642C69.9845 37.1555 72.3397 37.6014 75.1821 38.1082C78.8367 38.7568 83.0597 39.4866 83.0597 44.9393C83.0597 49.6623 78.6539 52.1555 74.3497 52.1555C70.1673 52.1555 65.9442 50.6555 64.6855 46.3379L68.2182 44.8177Z" fill="white"/>
<path d="M88.6836 27.5879C90.0033 27.5879 91.0591 28.5609 91.0591 29.919C91.0591 31.2568 90.0439 32.2298 88.7039 32.2298C87.3842 32.2298 86.2676 31.2365 86.2676 29.8987C86.2676 28.5406 87.3639 27.5879 88.6836 27.5879ZM86.633 34.8244H90.7139V51.8311H86.633V34.8244Z" fill="white"/>
<path d="M97.9621 52.5811C98.8148 54.4662 100.784 55.0338 102.672 55.0338C105.698 55.0338 107.525 53.5946 107.525 50.4933V47.9392C106.368 49.9054 104.073 51.1419 101.799 51.1419C96.9673 51.1419 94.1655 47.3514 94.1655 42.9122C94.1655 38.3311 97.1703 34.4189 101.901 34.4189C104.215 34.4189 106.327 35.3514 107.525 37.3987V34.7838H111.626V50.5541C111.626 55.9054 107.606 58.0744 102.672 58.0744C99.5052 58.0744 96.1145 57.1825 94.7339 53.9798L97.9621 52.5811ZM107.687 42.6892C107.687 39.7703 106.104 37.5608 103.018 37.5608C99.7488 37.5608 98.3682 40.0338 98.3682 42.9933C98.3682 45.6487 100.033 48 102.875 48C106.063 48 107.687 45.6487 107.687 42.6892Z" fill="white"/>
<path d="M116.113 34.7838H120.194V37.5C121.29 35.3919 123.585 34.4392 125.96 34.4392C130.061 34.4392 131.909 37.3176 131.909 41.1892V51.8514H127.767V41.5946C127.767 39.2027 126.691 37.8041 124.275 37.8041C121.717 37.8041 120.194 39.3852 120.194 41.8379V51.8514H116.113V34.7838Z" fill="white"/>
<path d="M66.4518 21.1622L73.9639 10.3379H67.203V8.20947H77.4764V9.26353L70.147 20.0879H77.253V22.2162H66.4315V21.1622H66.4518Z" fill="white"/>
<path d="M83.9124 11.7568C87.0391 11.7568 89.4349 13.946 89.4349 17.0879C89.4349 20.3109 86.9173 22.4393 83.8109 22.4393C80.6842 22.4393 78.1667 20.2703 78.1667 17.1487C78.1667 13.9055 80.8264 11.7568 83.9124 11.7568ZM86.7955 17.0879C86.7955 15.2028 85.8412 13.6217 83.8109 13.6217C81.74 13.6217 80.9076 15.2636 80.9076 17.1487C80.9076 18.9731 81.8821 20.5136 83.8718 20.5136C85.9224 20.5339 86.7955 18.892 86.7955 17.0879Z" fill="white"/>
<path d="M91.2215 7.31763H93.6782V13.6014C94.3482 12.3244 95.6882 11.7568 97.1094 11.7568C99.5661 11.7568 100.805 13.4798 100.805 15.8109V22.2365H98.3276V16.0541C98.3276 14.5744 97.5561 13.7636 96.1348 13.7636C94.5512 13.7636 93.6782 14.7365 93.6782 16.196V22.2163H91.2215V7.31763Z" fill="white"/>
<path d="M108.154 11.7568C111.281 11.7568 113.677 13.946 113.677 17.0879C113.677 20.3109 111.159 22.4393 108.053 22.4393C104.926 22.4393 102.408 20.2703 102.408 17.1487C102.408 13.9055 105.068 11.7568 108.154 11.7568ZM111.037 17.0879C111.037 15.2028 110.083 13.6217 108.053 13.6217C105.982 13.6217 105.149 15.2636 105.149 17.1487C105.149 18.9731 106.124 20.5136 108.114 20.5136C110.164 20.5339 111.037 18.892 111.037 17.0879Z" fill="white"/>
<path d="M37.7636 14.4325H13.5827C12.6285 14.4325 11.857 13.6622 11.857 12.7095C11.857 11.7568 12.6285 10.9866 13.5827 10.9866H37.7636C38.7179 10.9866 39.4894 11.7568 39.4894 12.7095C39.4894 13.6622 38.7179 14.4325 37.7636 14.4325Z" fill="white"/>
<path d="M30.82 23.0474H13.5827C12.6285 23.0474 11.857 22.2771 11.857 21.3244C11.857 20.3717 12.6285 19.6014 13.5827 19.6014H30.82C31.7742 19.6014 32.5458 20.3717 32.5458 21.3244C32.5458 22.2771 31.7742 23.0474 30.82 23.0474Z" fill="white"/>
<path d="M45.8442 59.3919H8.97394C4.85242 59.3919 1.48212 56.0473 1.48212 51.9122V8.08788C1.48212 3.95275 4.83212 0.608154 8.97394 0.608154H45.8442C49.9658 0.608154 53.3361 3.95275 53.3361 8.08788V37.2771C53.3361 38.2298 52.5645 39 51.6103 39C50.6561 39 49.8845 38.2298 49.8845 37.2771V8.08788C49.8845 5.85815 48.0776 4.0541 45.8442 4.0541H8.97394C6.7406 4.0541 4.93363 5.85815 4.93363 8.08788V51.9122C4.93363 54.1419 6.7406 55.946 8.97394 55.946H45.8442C48.0776 55.946 49.8845 54.1419 49.8845 51.9122V45.8717C49.8845 44.919 50.6561 44.1487 51.6103 44.1487C52.5645 44.1487 53.3361 44.919 53.3361 45.8717V51.9122C53.3361 56.0473 49.9658 59.3919 45.8442 59.3919Z" fill="white"/>
<path d="M52.6458 35.8987C51.8946 35.3108 50.7982 35.473 50.2297 36.223C50.2094 36.2432 48.7273 38.1487 46.8391 39.6892C45.9864 40.3784 43.8546 41.9189 42.677 41.2297C41.337 40.4392 40.2406 39.973 39.1443 40.277C38.0276 40.5811 37.52 41.4932 37.1342 42.2027C36.8094 42.7703 36.4643 43.4189 35.7333 44.1081C35.6927 44.1487 35.6521 44.1689 35.6318 44.1892C35.2867 43.8041 34.8197 42.75 34.5964 41.8378C34.4339 41.1486 33.8655 40.6419 33.1752 40.5203C32.4849 40.4189 31.7946 40.7432 31.4291 41.3514C30.2515 43.3581 28.6273 45.8514 26.597 47.2703C26.3939 47.4122 26.0082 47.6351 25.7239 47.4527C25.5412 47.3514 25.3991 47.0878 25.4397 46.7432C25.7239 44.6351 27.5512 41.5135 30.617 37.9459C33.0736 35.0878 35.4491 32.9189 35.4694 32.8987C36.0785 32.3514 36.2206 31.4392 35.7943 30.7297C35.3679 30.0203 34.4949 29.7162 33.7233 30C31.8758 30.6689 30.82 31.1757 29.5003 31.8243C28.3836 32.3716 27.1249 32.9797 24.9727 33.8919C21.4603 35.3716 18.4352 35.5946 17.2779 35.5135C17.217 35.5135 17.1358 35.4932 17.0546 35.4932C16.1003 35.4932 15.3288 36.2635 15.3288 37.2162C15.3288 38.1081 16.0191 38.8581 16.8921 38.9392C17.0546 38.9595 21.0136 39.3243 26.3127 37.0541C26.597 36.9324 26.8609 36.8108 27.1249 36.7095C24.0794 40.4595 22.3536 43.6824 22.0085 46.2973C21.7852 47.9595 22.5364 49.5608 23.9373 50.4122C24.5667 50.7973 25.257 50.9797 25.9676 50.9797C26.8609 50.9797 27.7542 50.6757 28.607 50.0878C30.2109 48.973 31.5509 47.4324 32.6473 45.8716C33.2564 46.7635 33.9467 47.3108 34.7588 47.5541C36.3018 48.0203 37.5403 47.1284 38.1291 46.5608C39.2458 45.5068 39.8142 44.473 40.1797 43.8041C40.2 43.7838 40.2 43.7635 40.2203 43.723C40.403 43.8041 40.6264 43.9257 40.9512 44.1284C41.8446 44.6554 43.347 45.1419 45.4179 44.4324C46.5549 44.0473 47.773 43.3378 49.0318 42.3041C51.2855 40.4797 52.9909 38.2703 53.0112 38.25C53.5594 37.5608 53.4173 36.4865 52.6458 35.8987Z" fill="white"/>
</svg>
