<svg width="137" height="51" viewBox="0 0 137 51" fill="none" xmlns="http://www.w3.org/2000/svg">
<path d="M32.1479 38.3835C31.9801 38.3835 31.8072 38.3548 31.6376 38.2872L23.913 35.3582C23.1671 35.0761 22.7976 34.2467 23.0756 33.5034C23.3587 32.7602 24.191 32.3919 24.9368 32.669L32.6666 35.598C33.4124 35.8801 33.782 36.7095 33.504 37.4528C33.2785 38.0322 32.731 38.3835 32.1479 38.3835Z" fill="white"/>
<path d="M32.1479 38.3835C31.9801 38.3835 31.8072 38.3548 31.6376 38.2872L23.913 35.3582C23.1671 35.0761 22.7976 34.2467 23.0756 33.5034C23.3587 32.7602 24.191 32.3919 24.9368 32.669L32.6666 35.598C33.4124 35.8801 33.782 36.7095 33.504 37.4528C33.2785 38.0322 32.731 38.3835 32.1479 38.3835Z" fill="white"/>
<path d="M40.1522 49.9493C34.6346 49.9493 30.1476 45.478 30.1476 39.9797C30.1476 34.4814 34.6346 30.0101 40.1522 30.0101C45.6698 30.0101 50.1568 34.4814 50.1568 39.9797C50.1568 45.478 45.6698 49.9493 40.1522 49.9493ZM40.1522 32.8851C36.228 32.8851 33.0327 36.0676 33.0327 39.9797C33.0327 43.8919 36.2263 47.0743 40.1522 47.0743C44.0764 47.0743 47.2717 43.8919 47.2717 39.9797C47.2717 36.0676 44.0815 32.8851 40.1522 32.8851Z" fill="white"/>
<path d="M40.1522 49.9493C34.6346 49.9493 30.1476 45.478 30.1476 39.9797C30.1476 34.4814 34.6346 30.0101 40.1522 30.0101C45.6698 30.0101 50.1568 34.4814 50.1568 39.9797C50.1568 45.478 45.6698 49.9493 40.1522 49.9493ZM40.1522 32.8851C36.228 32.8851 33.0327 36.0676 33.0327 39.9797C33.0327 43.8919 36.2263 47.0743 40.1522 47.0743C44.0764 47.0743 47.2717 43.8919 47.2717 39.9797C47.2717 36.0676 44.0815 32.8851 40.1522 32.8851Z" fill="white"/>
<path d="M48.1566 44.451C47.9888 44.451 47.8159 44.4222 47.6464 44.3547L39.642 41.3209C39.0843 41.1097 38.7131 40.5726 38.7131 39.978V31.5371C38.7131 30.7466 39.3572 30.0996 40.1556 30.0996C40.954 30.0996 41.5982 30.7415 41.5982 31.5371V38.9898L48.6736 41.6739C49.4195 41.956 49.789 42.7854 49.511 43.5287C49.2872 44.1013 48.738 44.451 48.1566 44.451Z" fill="white"/>
<path d="M48.1566 44.451C47.9888 44.451 47.8159 44.4222 47.6464 44.3547L39.642 41.3209C39.0843 41.1097 38.7131 40.5726 38.7131 39.978V31.5371C38.7131 30.7466 39.3572 30.0996 40.1556 30.0996C40.954 30.0996 41.5982 30.7415 41.5982 31.5371V38.9898L48.6736 41.6739C49.4195 41.956 49.789 42.7854 49.511 43.5287C49.2872 44.1013 48.738 44.451 48.1566 44.451Z" fill="white"/>
<path d="M23.0044 24.7939C22.5569 24.7939 22.1195 24.5878 21.8347 24.1993C21.3686 23.5574 21.5127 22.6605 22.1568 22.1959L29.0729 17.2061C29.7171 16.7415 30.6172 16.8851 31.0833 17.527C31.5495 18.1689 31.4054 19.0659 30.7613 19.5304L23.8485 24.5203C23.596 24.7027 23.2976 24.7939 23.0044 24.7939Z" fill="white"/>
<path d="M23.0044 24.7939C22.5569 24.7939 22.1195 24.5878 21.8347 24.1993C21.3686 23.5574 21.5127 22.6605 22.1568 22.1959L29.0729 17.2061C29.7171 16.7415 30.6172 16.8851 31.0833 17.527C31.5495 18.1689 31.4054 19.0659 30.7613 19.5304L23.8485 24.5203C23.596 24.7027 23.2976 24.7939 23.0044 24.7939Z" fill="white"/>
<path d="M13.7982 42.75C10.3774 42.75 7.16516 41.4223 4.74622 39.0118C2.33237 36.6064 1 33.4037 1 29.9966C1 26.5895 2.33237 23.3868 4.75131 20.9763C7.17024 18.5659 10.3842 17.2382 13.8033 17.2382C17.2223 17.2382 20.4363 18.5659 22.8552 20.9763C25.2741 23.3868 26.6065 26.5895 26.6065 29.9966C26.6065 33.4037 25.2741 36.6064 22.8552 39.0169C20.4363 41.4257 17.2189 42.75 13.7982 42.75ZM13.7982 20.1115C8.32971 20.1115 3.88001 24.5456 3.88001 29.9949C3.88001 35.4442 8.32971 39.8784 13.7982 39.8784C19.2666 39.8784 23.7214 35.4442 23.7214 29.9949C23.7214 24.5456 19.2717 20.1115 13.7982 20.1115Z" fill="white"/>
<path d="M13.7982 42.75C10.3774 42.75 7.16516 41.4223 4.74622 39.0118C2.33237 36.6064 1 33.4037 1 29.9966C1 26.5895 2.33237 23.3868 4.75131 20.9763C7.17024 18.5659 10.3842 17.2382 13.8033 17.2382C17.2223 17.2382 20.4363 18.5659 22.8552 20.9763C25.2741 23.3868 26.6065 26.5895 26.6065 29.9966C26.6065 33.4037 25.2741 36.6064 22.8552 39.0169C20.4363 41.4257 17.2189 42.75 13.7982 42.75ZM13.7982 20.1115C8.32971 20.1115 3.88001 24.5456 3.88001 29.9949C3.88001 35.4442 8.32971 39.8784 13.7982 39.8784C19.2666 39.8784 23.7214 35.4442 23.7214 29.9949C23.7214 24.5456 19.2717 20.1115 13.7982 20.1115Z" fill="white"/>
<path d="M10.652 33.6807C10.2045 33.6807 9.76209 33.4746 9.479 33.0811C9.01793 32.4392 9.16201 31.5371 9.81125 31.0777L12.3607 29.2567V24.603C12.3607 23.8125 13.0049 23.1655 13.8033 23.1655C14.6017 23.1655 15.2458 23.8074 15.2458 24.603V29.9949C15.2458 30.4594 15.0204 30.8919 14.644 31.1638L11.4928 33.4172C11.2351 33.5946 10.9402 33.6807 10.652 33.6807Z" fill="white"/>
<path d="M10.652 33.6807C10.2045 33.6807 9.76209 33.4746 9.479 33.0811C9.01793 32.4392 9.16201 31.5371 9.81125 31.0777L12.3607 29.2567V24.603C12.3607 23.8125 13.0049 23.1655 13.8033 23.1655C14.6017 23.1655 15.2458 23.8074 15.2458 24.603V29.9949C15.2458 30.4594 15.0204 30.8919 14.644 31.1638L11.4928 33.4172C11.2351 33.5946 10.9402 33.6807 10.652 33.6807Z" fill="white"/>
<path d="M36.05 22.924C31.0867 22.924 27.0455 18.8969 27.0455 13.951C27.0455 9.00505 31.0867 4.97803 36.05 4.97803C41.0134 4.97803 45.0545 9.00505 45.0545 13.951C45.0545 18.8969 41.0184 22.924 36.05 22.924ZM36.05 7.84965C32.6734 7.84965 29.9273 10.5861 29.9273 13.951C29.9273 17.3159 32.6734 20.0524 36.05 20.0524C39.4267 20.0524 42.1728 17.3108 42.1728 13.951C42.1728 10.5912 39.4267 7.84965 36.05 7.84965Z" fill="white"/>
<path d="M36.05 22.924C31.0867 22.924 27.0455 18.8969 27.0455 13.951C27.0455 9.00505 31.0867 4.97803 36.05 4.97803C41.0134 4.97803 45.0545 9.00505 45.0545 13.951C45.0545 18.8969 41.0184 22.924 36.05 22.924ZM36.05 7.84965C32.6734 7.84965 29.9273 10.5861 29.9273 13.951C29.9273 17.3159 32.6734 20.0524 36.05 20.0524C39.4267 20.0524 42.1728 17.3108 42.1728 13.951C42.1728 10.5912 39.4267 7.84965 36.05 7.84965Z" fill="white"/>
<path d="M28.978 12.7061C28.8102 12.7061 28.6373 12.6774 28.4678 12.6098L20.5075 9.59462C19.7616 9.31252 19.3921 8.48313 19.6701 7.73989C19.9532 6.99664 20.7855 6.6284 21.5313 6.90543L29.4916 9.92063C30.2375 10.2027 30.607 11.0321 30.329 11.7754C30.1086 12.3564 29.5611 12.7061 28.978 12.7061Z" fill="white"/>
<path d="M28.978 12.7061C28.8102 12.7061 28.6373 12.6774 28.4678 12.6098L20.5075 9.59462C19.7616 9.31252 19.3921 8.48313 19.6701 7.73989C19.9532 6.99664 20.7855 6.6284 21.5313 6.90543L29.4916 9.92063C30.2375 10.2027 30.607 11.0321 30.329 11.7754C30.1086 12.3564 29.5611 12.7061 28.978 12.7061Z" fill="white"/>
<path d="M16.9867 12.4611C13.8168 12.4611 11.2335 9.89189 11.2335 6.72804C11.2335 3.56419 13.8168 1 16.9867 1C20.1566 1 22.7399 3.56926 22.7399 6.72804C22.7399 9.88682 20.1566 12.4611 16.9867 12.4611ZM16.9867 3.87162C15.4035 3.87162 14.1202 5.15203 14.1202 6.72804C14.1202 8.30405 15.4051 9.58446 16.9867 9.58446C18.5682 9.58446 19.8531 8.30405 19.8531 6.72804C19.8531 5.15203 18.5699 3.87162 16.9867 3.87162Z" fill="white"/>
<path d="M16.9867 12.4611C13.8168 12.4611 11.2335 9.89189 11.2335 6.72804C11.2335 3.56419 13.8168 1 16.9867 1C20.1566 1 22.7399 3.56926 22.7399 6.72804C22.7399 9.88682 20.1566 12.4611 16.9867 12.4611ZM16.9867 3.87162C15.4035 3.87162 14.1202 5.15203 14.1202 6.72804C14.1202 8.30405 15.4051 9.58446 16.9867 9.58446C18.5682 9.58446 19.8531 8.30405 19.8531 6.72804C19.8531 5.15203 18.5699 3.87162 16.9867 3.87162Z" fill="white"/>
<path d="M62.0996 32.2416C62.303 32.799 62.5742 33.2838 62.9115 33.6994C63.2489 34.1149 63.6387 34.4646 64.0829 34.7467C64.527 35.0305 65.0135 35.2416 65.5458 35.3835C66.078 35.5254 66.6408 35.5946 67.2358 35.5946C67.6884 35.5946 68.1342 35.5355 68.5732 35.4156C69.0123 35.2957 69.4039 35.1149 69.7497 34.8717C70.0955 34.6284 70.3769 34.3193 70.5938 33.9443C70.8108 33.5693 70.9193 33.1284 70.9193 32.6251C70.9193 32.0862 70.7956 31.6487 70.5464 31.3126C70.2972 30.9764 69.9683 30.7044 69.5547 30.4967C69.1411 30.2889 68.6648 30.1251 68.124 30.0068C67.5833 29.8869 67.0154 29.7754 66.4221 29.669C65.6678 29.5372 64.9152 29.3751 64.1608 29.1859C63.4065 28.9967 62.7285 28.7061 62.125 28.3176C61.5215 27.9291 61.0316 27.3936 60.6553 26.7129C60.279 26.0321 60.0909 25.1352 60.0909 24.022C60.0909 23.0946 60.2841 22.2788 60.6689 21.5761C61.0554 20.8734 61.5622 20.2855 62.1911 19.8126C62.82 19.3396 63.537 18.9865 64.3388 18.7517C65.1406 18.5169 65.9645 18.4004 66.8069 18.4004C67.5867 18.4004 68.3359 18.4815 69.0547 18.6453C69.7734 18.8092 70.4396 19.0659 71.0566 19.4139C71.6736 19.7636 72.2228 20.2078 72.706 20.7467C73.1891 21.2855 73.5823 21.9359 73.8841 22.696L71.1176 23.9426C70.7006 23.0862 70.1192 22.4139 69.375 21.9274C68.6309 21.4409 67.7613 21.1977 66.7679 21.1977C66.3696 21.1977 65.9814 21.2416 65.6034 21.3311C65.2271 21.419 64.8897 21.5659 64.5931 21.7686C64.2965 21.9713 64.0557 22.2349 63.8744 22.5575C63.693 22.8801 63.6015 23.2805 63.6015 23.7568C63.6015 24.2788 63.7167 24.7028 63.9473 25.0288C64.1778 25.3565 64.4897 25.6217 64.8847 25.8244C65.2796 26.0271 65.739 26.1892 66.2611 26.3075C66.7849 26.4274 67.3426 26.5389 67.9376 26.6453C68.4512 26.7332 68.9682 26.8311 69.4869 26.9376C70.0056 27.044 70.5091 27.1825 70.9973 27.3548C71.4855 27.5271 71.9415 27.7416 72.3669 27.9984C72.7924 28.2551 73.1653 28.5778 73.484 28.9663C73.8027 29.3548 74.0536 29.8261 74.235 30.3784C74.4163 30.9308 74.5079 31.5828 74.5079 32.3345C74.5079 33.3159 74.2977 34.1808 73.8756 34.9325C73.4535 35.6842 72.9026 36.3126 72.2195 36.821C71.5363 37.3294 70.7583 37.7112 69.8853 37.968C69.0123 38.2247 68.1274 38.3531 67.2307 38.3531C66.3526 38.3531 65.4898 38.2686 64.644 38.1014C63.7964 37.9342 63.0099 37.6588 62.2827 37.2788C61.5554 36.8987 60.9198 36.4004 60.3739 35.7805C59.8281 35.1622 59.423 34.4021 59.1568 33.5001L62.0996 32.2416Z" fill="white"/>
<path d="M75.9877 31.022C75.9877 29.9088 76.203 28.8953 76.6336 27.9797C77.0641 27.0659 77.6422 26.2838 78.3694 25.6335C79.0966 24.9848 79.9407 24.4797 80.9036 24.1216C81.8664 23.7635 82.8835 23.5845 83.9565 23.5845C85.038 23.5845 86.0449 23.7635 86.9755 24.1216C87.9061 24.4797 88.7164 24.9831 89.4029 25.6335C90.0894 26.2838 90.6285 27.0608 91.0184 27.9662C91.4082 28.8716 91.6032 29.8683 91.6032 30.9561C91.6032 32.0693 91.3998 33.0811 90.9912 33.9916C90.5827 34.902 90.0267 35.6791 89.3215 36.3243C88.6164 36.9696 87.7892 37.4696 86.8416 37.8226C85.8923 38.1757 84.882 38.3531 83.809 38.3531C82.7275 38.3531 81.7087 38.174 80.7561 37.8159C79.8034 37.4578 78.9745 36.9561 78.2693 36.3108C77.5642 35.6656 77.0082 34.8953 76.5997 33.9983C76.1911 33.1014 75.9877 32.1098 75.9877 31.022ZM83.9022 35.7416C84.6125 35.7416 85.221 35.6098 85.7313 35.3446C86.2415 35.0794 86.6602 34.7281 86.9891 34.2906C87.3162 33.8531 87.5586 33.348 87.7146 32.772C87.8705 32.1976 87.9468 31.6014 87.9468 30.9831C87.9468 30.3294 87.862 29.7128 87.6942 29.1335C87.5247 28.5541 87.2704 28.0473 86.9297 27.6098C86.589 27.1723 86.1601 26.8277 85.6465 26.576C85.1312 26.3243 84.5243 26.1976 83.8243 26.1976C83.1055 26.1976 82.4919 26.3311 81.9817 26.5946C81.4714 26.8598 81.0578 27.2162 80.7374 27.6622C80.4188 28.1081 80.1831 28.625 80.0323 29.2128C79.8814 29.8007 79.8068 30.4206 79.8068 31.076C79.8068 31.7027 79.8916 32.3007 80.0594 32.8649C80.2272 33.4308 80.4832 33.9257 80.8239 34.3497C81.1646 34.7737 81.5901 35.1115 82.1003 35.3632C82.6089 35.6149 83.2106 35.7416 83.9022 35.7416Z" fill="white"/>
<path d="M106.941 34.071C106.702 34.8125 106.364 35.4544 105.93 35.9933C105.496 36.5321 104.991 36.9764 104.413 37.326C103.837 37.6757 103.203 37.9342 102.511 38.1014C101.82 38.2686 101.101 38.3531 100.357 38.3531C99.2312 38.3531 98.2192 38.1723 97.3242 37.8092C96.4275 37.4477 95.6698 36.9409 95.0494 36.2906C94.4289 35.6402 93.9543 34.8615 93.6255 33.951C93.2966 33.0406 93.1339 32.0372 93.1339 30.9426C93.1339 29.8919 93.3136 28.9139 93.6729 28.0135C94.0323 27.1132 94.5357 26.3345 95.1833 25.6808C95.8308 25.0271 96.6004 24.5135 97.492 24.1436C98.3837 23.7737 99.3651 23.5862 100.438 23.5862C101.157 23.5862 101.845 23.6639 102.506 23.8176C103.167 23.973 103.776 24.2112 104.335 24.5338C104.895 24.8565 105.388 25.2686 105.818 25.7737C106.249 26.2771 106.597 26.8784 106.863 27.576L104.11 28.7821C103.827 27.9781 103.359 27.3598 102.706 26.9257C102.055 26.4933 101.298 26.2754 100.438 26.2754C99.7465 26.2754 99.1583 26.4122 98.6752 26.6858C98.1921 26.9595 97.7988 27.3244 97.4971 27.7787C97.1954 28.2331 96.9767 28.75 96.8394 29.3294C96.7021 29.9088 96.6326 30.5034 96.6326 31.1115C96.6326 31.7382 96.7038 32.3362 96.8462 32.9004C96.9886 33.4662 97.214 33.9612 97.5242 34.3852C97.8344 34.8092 98.2328 35.147 98.721 35.3987C99.2092 35.6504 99.7991 35.7771 100.491 35.7771C101.476 35.7771 102.291 35.5254 102.938 35.022C103.586 34.5186 104.056 33.821 104.349 32.9274L106.941 34.071Z" fill="white"/>
<path d="M109.427 19.8092C109.427 19.5271 109.48 19.2686 109.587 19.0338C109.694 18.799 109.839 18.5963 110.026 18.424C110.212 18.2517 110.427 18.12 110.672 18.0271C110.916 17.9342 111.175 17.8885 111.45 17.8885C111.724 17.8885 111.982 17.9375 112.221 18.0338C112.46 18.1318 112.67 18.2652 112.853 18.4375C113.035 18.6098 113.177 18.8125 113.279 19.0473C113.38 19.2821 113.431 19.5406 113.431 19.8227C113.431 20.0963 113.38 20.3531 113.279 20.5913C113.177 20.8294 113.04 21.0338 112.867 21.201C112.694 21.37 112.487 21.5017 112.248 21.598C112.009 21.696 111.746 21.7433 111.463 21.7433C111.189 21.7433 110.926 21.6943 110.678 21.598C110.431 21.5 110.212 21.3666 110.026 21.1943C109.839 21.022 109.694 20.8159 109.587 20.5777C109.482 20.3379 109.427 20.0828 109.427 19.8092ZM109.734 23.9173H113.14V38.0879H109.734V23.9173Z" fill="white"/>
<path d="M125.165 36.3513C124.624 37.0675 123.975 37.5793 123.216 37.8885C122.458 38.1976 121.634 38.353 120.747 38.353C120.083 38.353 119.459 38.2685 118.878 38.1013C118.296 37.9341 117.791 37.6773 117.361 37.3327C116.93 36.9881 116.591 36.5574 116.343 36.0405C116.094 35.5236 115.971 34.9155 115.971 34.2179C115.971 33.5641 116.079 32.9966 116.296 32.5152C116.513 32.0337 116.806 31.6249 117.174 31.2888C117.542 30.9527 117.974 30.679 118.471 30.4662C118.968 30.2533 119.493 30.0878 120.047 29.9695C120.602 29.8496 121.171 29.7685 121.756 29.7246C122.341 29.6807 122.909 29.6587 123.458 29.6587H125.134V29.4341C125.134 28.9307 125.097 28.4729 125.021 28.0624C124.945 27.652 124.806 27.3023 124.602 27.0152C124.399 26.728 124.117 26.5067 123.758 26.353C123.399 26.1993 122.931 26.1216 122.354 26.1216C121.663 26.1216 121.027 26.2956 120.446 26.6452C119.864 26.9949 119.446 27.4966 119.188 28.1503L116.54 27.0101C116.779 26.3834 117.116 25.853 117.55 25.4189C117.984 24.9864 118.478 24.6317 119.027 24.3581C119.576 24.0844 120.166 23.8868 120.797 23.7685C121.425 23.6486 122.061 23.5895 122.698 23.5895C123.541 23.5895 124.317 23.6942 125.026 23.9003C125.734 24.1081 126.35 24.4239 126.868 24.8479C127.387 25.2719 127.791 25.8141 128.079 26.4712C128.367 27.1283 128.511 27.9087 128.511 28.8108V38.0895H125.158V36.3513H125.165ZM123.422 31.7381C123.032 31.7381 122.6 31.7584 122.126 31.7972C121.651 31.8378 121.208 31.9358 120.795 32.0962C120.383 32.255 120.039 32.4898 119.764 32.7989C119.49 33.1081 119.352 33.532 119.352 34.0709C119.352 34.4155 119.41 34.7043 119.525 34.9391C119.64 35.1739 119.802 35.3648 120.01 35.5152C120.219 35.6655 120.459 35.7736 120.736 35.8395C121.01 35.9054 121.307 35.9391 121.627 35.9391C122.061 35.9391 122.487 35.8817 122.904 35.7668C123.321 35.652 123.695 35.4797 124.027 35.25C124.36 35.0202 124.628 34.7263 124.833 34.3682C125.036 34.0101 125.139 33.5929 125.139 33.1148V31.7364H123.422V31.7381Z" fill="white"/>
<path d="M132.201 18.1385L135.607 16.6672V38.0878H132.201V18.1385Z" fill="white"/>
<path d="M60.6231 12.5388L66.89 3.51515H61.2571V1.73474H69.8395V2.62157L63.7252 11.6452H69.6632V13.4256H60.6248V12.5388H60.6231Z" fill="white"/>
<path d="M70.4074 9.16894C70.4074 8.49833 70.5362 7.88684 70.7955 7.33617C71.0549 6.78549 71.4024 6.31421 71.8414 5.92232C72.2788 5.53043 72.7873 5.22806 73.367 5.01184C73.9468 4.79563 74.5604 4.68921 75.2063 4.68921C75.8572 4.68921 76.464 4.79732 77.0251 5.01184C77.5862 5.22806 78.0727 5.53043 78.488 5.92232C78.9033 6.31421 79.2271 6.78211 79.461 7.32772C79.6966 7.87333 79.8136 8.47299 79.8136 9.1284C79.8136 9.79901 79.6899 10.4088 79.4458 10.9578C79.2 11.5068 78.8643 11.9747 78.4405 12.3632C78.0151 12.7517 77.5184 13.0524 76.9455 13.2652C76.3742 13.4781 75.764 13.5845 75.1181 13.5845C74.4672 13.5845 73.8535 13.4764 73.2789 13.2618C72.7043 13.0456 72.2059 12.745 71.7804 12.3547C71.3549 11.9662 71.021 11.5017 70.7752 10.9612C70.5311 10.4206 70.4074 9.82266 70.4074 9.16894ZM75.1757 12.0102C75.6029 12.0102 75.9708 11.9308 76.2776 11.7703C76.5844 11.6098 76.837 11.3987 77.0353 11.1352C77.2336 10.8716 77.3794 10.5676 77.4726 10.2213C77.5659 9.87502 77.6133 9.51522 77.6133 9.1436C77.6133 8.75002 77.5625 8.3784 77.4608 8.03043C77.3591 7.68245 77.2048 7.37502 76.9997 7.11151C76.7946 6.84799 76.5369 6.64022 76.2267 6.4882C75.9165 6.33617 75.5504 6.26016 75.1283 6.26016C74.696 6.26016 74.3248 6.33955 74.018 6.50002C73.7112 6.66049 73.4603 6.87333 73.2687 7.1436C73.0772 7.41218 72.9348 7.72468 72.845 8.07772C72.7534 8.43245 72.7093 8.80576 72.7093 9.19934C72.7093 9.57772 72.7602 9.93752 72.8619 10.277C72.9636 10.6166 73.1162 10.9156 73.323 11.1706C73.5281 11.4257 73.7857 11.6301 74.0926 11.7821C74.396 11.9358 74.7587 12.0102 75.1757 12.0102Z" fill="white"/>
<path d="M81.3138 1H83.3649V6.22973C83.5039 5.96284 83.6751 5.73311 83.8819 5.53885C84.087 5.3446 84.3142 5.18412 84.5633 5.05912C84.8108 4.93412 85.0786 4.84122 85.3651 4.78041C85.6516 4.71959 85.9415 4.68919 86.2347 4.68919C86.7483 4.68919 87.1959 4.77365 87.5807 4.94426C87.9654 5.11487 88.2858 5.34966 88.5418 5.65034C88.7977 5.95101 88.991 6.30743 89.1181 6.7196C89.2469 7.13176 89.3097 7.58277 89.3097 8.07264V13.4223H87.2416V8.27365C87.2416 7.65541 87.0857 7.18412 86.7721 6.8598C86.4585 6.53547 86.0042 6.37331 85.4058 6.37331C84.743 6.37331 84.2379 6.55743 83.887 6.92905C83.5361 7.30068 83.3615 7.79054 83.3615 8.40203V13.424H81.3104V1H81.3138Z" fill="white"/>
<path d="M90.6404 9.16894C90.6404 8.49833 90.7692 7.88684 91.0285 7.33617C91.2879 6.78549 91.6354 6.31421 92.0744 5.92232C92.5118 5.53043 93.0203 5.22806 93.6 5.01184C94.1798 4.79563 94.7934 4.68921 95.4392 4.68921C96.0902 4.68921 96.697 4.79732 97.2581 5.01184C97.8192 5.22806 98.3057 5.53043 98.721 5.92232C99.1363 6.31421 99.4601 6.78211 99.694 7.32772C99.9296 7.87333 100.047 8.47299 100.047 9.1284C100.047 9.79901 99.9228 10.4088 99.6787 10.9578C99.4329 11.5068 99.0973 11.9747 98.6735 12.3632C98.2481 12.7517 97.7514 13.0524 97.1784 13.2652C96.6072 13.4781 95.9969 13.5845 95.3511 13.5845C94.7002 13.5845 94.0865 13.4764 93.5119 13.2618C92.9372 13.0456 92.4389 12.745 92.0134 12.3547C91.5879 11.9662 91.254 11.5017 91.0082 10.9612C90.7641 10.4206 90.6404 9.82266 90.6404 9.16894ZM95.4087 12.0102C95.8359 12.0102 96.2037 11.9308 96.5106 11.7703C96.8174 11.6098 97.0699 11.3987 97.2683 11.1352C97.4666 10.8716 97.6124 10.5676 97.7056 10.2213C97.7988 9.87502 97.8463 9.51522 97.8463 9.1436C97.8463 8.75002 97.7955 8.3784 97.6938 8.03043C97.592 7.68245 97.4378 7.37502 97.2327 7.11151C97.0276 6.84799 96.7699 6.64022 96.4597 6.4882C96.1495 6.33617 95.7833 6.26016 95.3613 6.26016C94.929 6.26016 94.5578 6.33955 94.251 6.50002C93.9441 6.66049 93.6933 6.87333 93.5017 7.1436C93.3102 7.41218 93.1678 7.72468 93.0779 8.07772C92.9864 8.43245 92.9423 8.80576 92.9423 9.19934C92.9423 9.57772 92.9932 9.93752 93.0949 10.277C93.1966 10.6166 93.3492 10.9156 93.556 11.1706C93.7611 11.4257 94.0187 11.6301 94.3255 11.7821C94.6307 11.9358 94.9917 12.0102 95.4087 12.0102Z" fill="white"/>
</svg>
