<svg width="125" height="50" viewBox="0 0 125 50" fill="none" xmlns="http://www.w3.org/2000/svg">
<path d="M59.3496 23.7838H63.2622L68.3435 39.4088L73.374 23.7838H76.9309L70.2913 43.1926H65.9384L59.3496 23.7838Z" fill="white"/>
<path d="M85.2812 41.4527C84.1972 42.8885 82.622 43.446 80.8605 43.446C78.1843 43.446 76.084 42.0946 76.084 39.3074C76.084 35.3716 80.2507 34.7466 83.5705 34.7466H85.2473V34.527C85.2473 32.5 84.7731 31.2162 82.4695 31.2162C81.0807 31.2162 79.8103 31.9257 79.3022 33.2433L76.6599 32.1115C77.6084 29.6115 80.2676 28.6993 82.8083 28.6993C86.1789 28.6993 88.6179 30.321 88.6179 33.9189V43.1926H85.2643V41.4527H85.2812ZM83.5366 36.8412C81.9614 36.8412 79.4716 37.027 79.4716 39.1723C79.4716 40.5406 80.4709 41.0473 81.7412 41.0473C83.4689 41.0473 85.2473 40.152 85.2473 38.2264V36.8412H83.5366Z" fill="white"/>
<path d="M101.762 40.9629C100.864 42.6859 99.0346 43.4629 97.0698 43.4629C93.8008 43.4629 92.0732 41.3177 92.0732 38.0913V29.0035H95.4777V37.669C95.4777 39.6116 96.3754 40.794 98.3571 40.794C100.491 40.794 101.778 39.4258 101.778 37.3987V28.9866H105.166V43.1758H101.778V40.9629H101.762Z" fill="white"/>
<path d="M108.977 23.2433L112.381 21.7737V43.1926H108.977V23.2433Z" fill="white"/>
<path d="M123.408 43.0912C122.68 43.3108 121.917 43.4291 121.07 43.4291C118.36 43.4291 116.751 42.027 116.751 39.2061V31.4865H114.837V28.9865H116.751V26.0642L120.156 24.5946V29.0034H123.289V31.5034H120.156V38.9189C120.156 40.0338 120.63 40.7264 121.883 40.7264C122.358 40.7264 122.9 40.625 123.408 40.4561V43.0912Z" fill="white"/>
<path d="M60.9756 17.6352L67.2426 8.61496H61.6193V6.84131H70.1897V7.71969L64.0752 16.74H70.0034V18.5136H60.9756V17.6352Z" fill="white"/>
<path d="M75.559 9.79736C78.1674 9.79736 80.166 11.6217 80.166 14.2399C80.166 16.9257 78.0658 18.6994 75.4743 18.6994C72.8659 18.6994 70.7656 16.892 70.7656 14.2906C70.7656 11.5879 72.9845 9.79736 75.559 9.79736ZM77.9641 14.2399C77.9641 12.669 77.1681 11.3514 75.4743 11.3514C73.7467 11.3514 73.0522 12.7197 73.0522 14.2906C73.0522 15.8109 73.8652 17.0947 75.5251 17.0947C77.2358 17.1116 77.9641 15.7433 77.9641 14.2399Z" fill="white"/>
<path d="M81.6566 6.09802H83.706V11.3345C84.265 10.2703 85.3828 9.79735 86.5685 9.79735C88.6179 9.79735 89.6511 11.2332 89.6511 13.1757V18.5305H87.5847V13.3784C87.5847 12.1453 86.9411 11.4696 85.7555 11.4696C84.4343 11.4696 83.706 12.2805 83.706 13.4967V18.5136H81.6566V6.09802Z" fill="white"/>
<path d="M95.7656 9.79736C98.374 9.79736 100.373 11.6217 100.373 14.2399C100.373 16.9257 98.2724 18.6994 95.6809 18.6994C93.0725 18.6994 90.9722 16.892 90.9722 14.2906C90.9722 11.5879 93.1911 9.79736 95.7656 9.79736ZM98.1707 14.2399C98.1707 12.669 97.3747 11.3514 95.6809 11.3514C93.9533 11.3514 93.2588 12.7197 93.2588 14.2906C93.2588 15.8109 94.0718 17.0947 95.7317 17.0947C97.4594 17.1116 98.1707 15.7433 98.1707 14.2399Z" fill="white"/>
<path d="M41.3618 49.4932H36.5515C34.6884 49.4932 33.1809 47.9898 33.1809 46.1317V44.1554C33.1809 43.8851 32.9607 43.6824 32.7067 43.6824H18.2588C17.9878 43.6824 17.7846 43.902 17.7846 44.1554V46.1317C17.7846 47.9898 16.2771 49.4932 14.414 49.4932H9.56979C7.70665 49.4932 6.1992 47.9898 6.1992 46.1317V43.5304C3.16735 42.8716 0.897705 40.1689 0.897705 36.9594V7.22969C0.914643 3.53036 3.92955 0.506714 7.65584 0.506714H43.2927C47.002 0.506714 50.0339 3.53036 50.0339 7.22969V36.9594C50.0339 40.1689 47.7642 42.8716 44.7324 43.5304V46.1317C44.7324 47.9898 43.2249 49.4932 41.3618 49.4932ZM18.2419 40.7939H32.6897C34.5529 40.7939 36.0603 42.2973 36.0603 44.1554V46.1317C36.0603 46.402 36.2805 46.6047 36.5346 46.6047H41.3449C41.6159 46.6047 41.8191 46.3851 41.8191 46.1317V42.2466C41.8191 41.4527 42.4627 40.8108 43.2588 40.8108C45.376 40.8108 47.1037 39.0878 47.1037 36.9763V7.24658C47.1037 5.13509 45.376 3.41212 43.2588 3.41212H7.65584C5.53863 3.41212 3.81098 5.13509 3.81098 7.24658V36.9763C3.81098 39.0878 5.53863 40.8108 7.65584 40.8108C8.45191 40.8108 9.09554 41.4527 9.09554 42.2466V46.1317C9.09554 46.402 9.31573 46.6047 9.56979 46.6047H14.397C14.668 46.6047 14.8713 46.3851 14.8713 46.1317V44.1554C14.8713 42.3141 16.3787 40.7939 18.2419 40.7939Z" fill="white"/>
<path d="M29.9458 19.9324C29.7087 19.1723 28.8787 18.7669 28.1334 19.0034L22.4424 20.8277V14.9155C22.4424 14.1216 21.7988 13.4797 21.0027 13.4797C20.2066 13.4797 19.563 14.1216 19.563 14.9155V20.8277L13.8889 19.0034C13.1267 18.75 12.3137 19.1723 12.0765 19.9324C11.8394 20.6926 12.2459 21.5034 13.0081 21.7399L18.6822 23.5642L15.1592 28.3953C14.6849 29.0372 14.8374 29.9493 15.481 30.4054C15.7351 30.5912 16.04 30.6757 16.3279 30.6757C16.7683 30.6757 17.2087 30.473 17.4966 30.0845L21.0196 25.2534L24.5427 30.0845C24.8306 30.473 25.271 30.6757 25.7114 30.6757C25.9993 30.6757 26.3042 30.5912 26.5582 30.4054C27.2019 29.9324 27.3374 29.0372 26.8801 28.3953L23.374 23.5811L29.0481 21.7568C29.7595 21.5034 30.1829 20.6926 29.9458 19.9324Z" fill="white"/>
<path d="M37.5 30.6587C36.7039 30.6587 36.0603 30.0168 36.0603 29.2229V14.9492C36.0603 14.1553 36.7039 13.5134 37.5 13.5134C38.2961 13.5134 38.9397 14.1553 38.9397 14.9492V29.2229C38.9397 30.0168 38.2961 30.6587 37.5 30.6587Z" fill="white"/>
</svg>
