<svg width="194" height="50" viewBox="0 0 194 50" fill="none" xmlns="http://www.w3.org/2000/svg">
<path d="M54.1443 23.7839H57.9634L61.6305 37.9731L65.6018 23.7839H68.7619L72.8007 38.0576L76.4847 23.7839H79.9997L74.8624 43.1927H71.1277L67.072 29.1218L62.9148 43.1927H59.3153L54.1443 23.7839Z" fill="white"/>
<path d="M88.297 28.6824C92.6063 28.6824 95.9185 31.706 95.9185 36.0472C95.9185 40.5067 92.4373 43.4459 88.145 43.4459C83.8188 43.4459 80.3545 40.456 80.3545 36.1148C80.3545 31.6722 84.0216 28.6824 88.297 28.6824ZM92.2683 36.081C92.2683 33.4628 90.9502 31.3006 88.1619 31.3006C85.289 31.3006 84.1568 33.581 84.1568 36.1824C84.1568 38.6993 85.4918 40.8445 88.2464 40.8445C91.0854 40.8445 92.2683 38.5641 92.2683 36.081Z" fill="white"/>
<path d="M98.4026 28.9866H101.799V31.6556C102.763 29.713 104.3 28.7839 106.463 28.7839V31.9258C103.726 31.9258 101.799 32.8211 101.799 35.8616V43.1927H98.4026V28.9866Z" fill="white"/>
<path d="M109.15 22.5676H112.547V35.1859L117.684 29.0034H121.419L115.775 35.5068L121.841 43.1926H117.921L112.53 36.267V43.1926H109.133V22.5676H109.15Z" fill="white"/>
<path d="M123.954 28.9864H127.351V31.2837C128.331 29.6283 130.325 28.6824 132.217 28.6824C136.56 28.6824 138.656 32.1621 138.656 36.0472C138.656 40.0337 136.425 43.4628 132.319 43.4628C130.325 43.4628 128.314 42.6689 127.367 40.9628V48.0574H123.971V28.9864H123.954ZM135.141 35.9628C135.141 33.5641 133.941 31.3344 131.17 31.3344C128.364 31.3344 127.232 33.581 127.232 36.1317C127.232 38.7668 128.449 40.7939 131.271 40.7939C134.279 40.8108 135.141 38.581 135.141 35.9628Z" fill="white"/>
<path d="M141.529 23.2433L144.925 21.7737V43.1926H141.529V23.2433Z" fill="white"/>
<path d="M156.873 41.4528C155.791 42.8887 154.22 43.4461 152.462 43.4461C149.792 43.4461 147.697 42.0947 147.697 39.3076C147.697 35.3718 151.854 34.7468 155.166 34.7468H156.839V34.5272C156.839 32.5001 156.366 31.2164 154.068 31.2164C152.682 31.2164 151.415 31.9258 150.908 33.2434L148.271 32.1116C149.218 29.6116 151.871 28.6995 154.406 28.6995C157.769 28.6995 160.202 30.3211 160.202 33.9191V43.1927H156.856V41.4528H156.873ZM155.149 36.8414C153.578 36.8414 151.094 37.0272 151.094 39.1724C151.094 40.5407 152.091 41.0474 153.358 41.0474C155.082 41.0474 156.856 40.1522 156.856 38.2265V36.8414H155.149Z" fill="white"/>
<path d="M176.611 39.1723C175.665 42.1453 173.012 43.4459 170.054 43.4459C165.542 43.4459 162.855 40.4223 162.855 36.0304C162.855 31.8074 165.863 28.6655 170.139 28.6655C173.012 28.6655 175.496 29.8649 176.543 32.652L173.806 33.8513C173.231 32.2635 171.862 31.3513 170.139 31.3513C167.367 31.3513 166.353 33.75 166.353 36.1824C166.353 38.6824 167.452 40.8446 170.206 40.8446C172.15 40.8446 173.468 39.7635 174.059 37.9899L176.611 39.1723Z" fill="white"/>
<path d="M191.989 40.1013C190.806 42.6013 188.254 43.4628 185.652 43.4628C181.174 43.4628 178.352 40.4729 178.352 36.0472C178.352 31.8918 181.224 28.6824 185.5 28.6824C190.096 28.6824 192.327 31.3682 192.327 36.8412H181.816C181.816 39.2398 183.202 40.9966 185.787 40.9966C187.325 40.9966 188.592 40.3716 189.336 38.9358L191.989 40.1013ZM188.947 34.6114C188.846 32.4662 187.545 31.1486 185.534 31.1486C183.404 31.1486 182.154 32.652 181.867 34.6114H188.947Z" fill="white"/>
<path d="M55.7328 17.635L61.9854 8.61471H56.3749V6.84106H64.9258V7.71944L58.8253 16.7397H64.7399V18.5134H55.7328V17.635Z" fill="white"/>
<path d="M70.2659 9.79712C72.8683 9.79712 74.8624 11.6214 74.8624 14.2397C74.8624 16.9255 72.7669 18.6991 70.1814 18.6991C67.5789 18.6991 65.4835 16.8917 65.4835 14.2904C65.4835 11.5877 67.6972 9.79712 70.2659 9.79712ZM72.6655 14.2397C72.6655 12.6687 71.8713 11.3512 70.1814 11.3512C68.4577 11.3512 67.7648 12.7194 67.7648 14.2904C67.7648 15.8106 68.576 17.0944 70.2321 17.0944C71.9389 17.1113 72.6655 15.7431 72.6655 14.2397Z" fill="white"/>
<path d="M76.3495 6.0979H78.3943V11.3344C78.9519 10.2702 80.0673 9.79723 81.2502 9.79723C83.295 9.79723 84.3258 11.233 84.3258 13.1756V18.5303H82.2641V13.3783C82.2641 12.1452 81.622 11.4695 80.439 11.4695C79.1209 11.4695 78.3943 12.2803 78.3943 13.4965V18.5134H76.3495V6.0979Z" fill="white"/>
<path d="M90.4432 9.79712C93.0456 9.79712 95.0397 11.6214 95.0397 14.2397C95.0397 16.9255 92.9443 18.6991 90.3587 18.6991C87.7563 18.6991 85.6608 16.8917 85.6608 14.2904C85.6439 11.5877 87.8577 9.79712 90.4432 9.79712ZM92.826 14.2397C92.826 12.6687 92.0317 11.3512 90.3418 11.3512C88.6181 11.3512 87.9253 12.7194 87.9253 14.2904C87.9253 15.8106 88.7364 17.0944 90.3925 17.0944C92.1162 17.1113 92.826 15.7431 92.826 14.2397Z" fill="white"/>
<path d="M44.816 13.2263C44.816 12.9053 44.6301 12.5675 44.3428 12.3986L23.9458 0.641826C23.6416 0.472907 23.2868 0.472907 22.9826 0.641826L2.58553 12.3986C2.31515 12.5675 2.09547 12.8716 2.11236 13.2263V36.7567C2.11236 37.0945 2.29825 37.4155 2.58553 37.5844L22.9826 49.358C23.2361 49.5101 23.6078 49.5439 23.9458 49.358L44.3428 37.6013C44.647 37.4324 44.816 37.1114 44.816 36.7736V13.2263ZM23.4557 2.5675L41.9263 13.2263L31.6179 19.1722L25.585 15.7094C26.2948 15.1013 26.751 14.206 26.751 13.1925C26.751 11.3682 25.2639 9.89858 23.4557 9.89858C21.6476 9.89858 20.1604 11.3851 20.1604 13.1925C20.1604 14.206 20.6167 15.1182 21.3434 15.7263L15.3273 19.206L4.98519 13.2432L23.4557 2.5675ZM12.4714 29.6114C12.708 29.4763 12.9615 29.4087 13.215 29.4087C13.7388 29.4087 14.2289 29.679 14.5162 30.152C14.9218 30.8614 14.6852 31.7905 13.9754 32.1959C13.2657 32.6013 12.3362 32.3648 11.9307 31.6553C11.7279 31.3175 11.6772 30.9121 11.7786 30.5236C11.88 30.1351 12.1334 29.8141 12.4714 29.6114ZM23.4388 14.679C22.6108 14.679 21.9348 14.0033 21.9348 13.1756C21.9348 12.3479 22.6108 11.6722 23.4388 11.6722C24.2669 11.6722 24.9429 12.3479 24.9429 13.1756C24.9429 14.0033 24.2669 14.679 23.4388 14.679ZM23.4557 16.6891L29.6915 20.2871L23.4557 23.8851L17.22 20.2871L23.4557 16.6891ZM24.419 25.5574L30.6547 21.9594V29.1553L24.419 32.7533V25.5574ZM4.02195 14.8986L14.3303 20.8445V27.804C14.2458 27.7702 14.1444 27.7533 14.0599 27.7195C13.1981 27.4999 12.3193 27.6013 11.5589 28.0574C10.7984 28.4966 10.2408 29.206 10.0211 30.0675C9.80139 30.9121 9.90278 31.8074 10.3591 32.5675C10.7984 33.3276 11.5082 33.8851 12.37 34.1047C12.6573 34.1891 12.9446 34.2229 13.2319 34.2229C13.8064 34.2229 14.381 34.0709 14.888 33.7837C15.7667 33.277 16.3244 32.4324 16.4765 31.5033L19.4338 33.2094C19.5859 33.2939 19.7549 33.3445 19.907 33.3445C20.2449 33.3445 20.566 33.1756 20.735 32.8716C21.0054 32.4155 20.8364 31.8243 20.3801 31.554L16.2399 29.1722V21.9594L22.4756 25.5574V46.8749L4.02195 36.2161V14.8986ZM24.419 46.8749V34.9662L32.0911 30.5405C32.3953 30.3716 32.5643 30.0506 32.5643 29.7128V20.8445L42.8726 14.8986V36.2161L24.419 46.8749Z" fill="white"/>
</svg>
