<svg width="222" height="50" viewBox="0 0 222 50" fill="none" xmlns="http://www.w3.org/2000/svg">
<path d="M66.9821 23.7786H71.2998L75.4456 39.8091L79.9353 23.7786H83.4888L88.0549 39.9045L92.2198 23.7786H96.1936L90.3857 45.706H86.1635L81.5783 29.8091L76.8785 45.706H72.8091L66.9821 23.7786Z" fill="white"/>
<path d="M105.574 29.313C110.446 29.313 114.191 32.729 114.191 37.6336C114.191 42.6718 110.255 45.9924 105.402 45.9924C100.511 45.9924 96.5948 42.6145 96.5948 37.7099C96.5948 32.6909 100.76 29.313 105.574 29.313ZM110.083 37.6718C110.083 34.7137 108.593 32.271 105.44 32.271C102.193 32.271 100.913 34.8473 100.913 37.7863C100.913 40.6298 102.422 43.0534 105.536 43.0534C108.727 43.0534 110.083 40.4771 110.083 37.6718Z" fill="white"/>
<path d="M116.999 29.6565H120.839V32.6718C121.928 30.4771 123.667 29.4275 126.112 29.4275V32.9771C123.017 32.9771 120.839 33.9886 120.839 37.4237V45.7061H116.999V29.6565Z" fill="white"/>
<path d="M129.169 22.4045H133.009V36.6603L138.817 29.6755H143.039L136.658 37.0229L143.517 45.7061H139.084L132.99 37.8816V45.7061H129.15V22.4045H129.169Z" fill="white"/>
<path d="M146.039 23.7786H153.432C160.597 23.7786 164.953 27.4999 164.953 34.8091C164.953 41.9465 160.367 45.706 153.394 45.706H146.039V23.7786ZM153.298 42.4045C158.419 42.4045 160.52 39.4465 160.52 34.6373C160.52 29.6946 158.285 27.0992 153.241 27.0992H150.299V42.4045H153.298Z" fill="white"/>
<path d="M168.181 29.6565H172.021V32.6718C173.11 30.4771 174.849 29.4275 177.294 29.4275V32.9771C174.199 32.9771 172.021 33.9886 172.021 37.4237V45.7061H168.181V29.6565Z" fill="white"/>
<path d="M182.376 22.8816C183.618 22.8816 184.612 23.7976 184.612 25.0762C184.612 26.3358 183.656 27.2518 182.395 27.2518C181.154 27.2518 180.103 26.3167 180.103 25.0572C180.084 23.7785 181.134 22.8816 182.376 22.8816ZM180.447 29.6946H184.287V45.706H180.447V29.6946Z" fill="white"/>
<path d="M186.981 29.6565H191.088L195.234 41.7939L199.341 29.6565H203.086L197.297 45.687H192.808L186.981 29.6565Z" fill="white"/>
<path d="M219.211 42.2137C217.873 45.0382 214.988 46.0115 212.046 46.0115C206.983 46.0115 203.793 42.6336 203.793 37.6336C203.793 32.9389 207.041 29.313 211.874 29.313C217.071 29.313 219.593 32.3473 219.593 38.5305H207.709C207.709 41.2405 209.276 43.2252 212.199 43.2252C213.938 43.2252 215.371 42.5191 216.211 40.897L219.211 42.2137ZM215.753 36.0115C215.638 33.5878 214.167 32.0992 211.893 32.0992C209.486 32.0992 208.072 33.7977 207.748 36.0115H215.753Z" fill="white"/>
<path d="M68.7589 16.8319L75.8277 6.64102H69.4849V4.63721H79.152V5.62957L72.2551 15.8204H78.9418V17.8242H68.7589V16.8319Z" fill="white"/>
<path d="M85.2083 7.97705C88.1504 7.97705 90.4048 10.0381 90.4048 12.9961C90.4048 16.0305 88.0358 18.0343 85.1127 18.0343C82.1706 18.0343 79.8015 15.9923 79.8015 13.0534C79.7824 9.99995 82.2852 7.97705 85.2083 7.97705ZM87.9021 13.0152C87.9021 11.2404 87.0041 9.75186 85.0936 9.75186C83.1449 9.75186 82.3616 11.2977 82.3616 13.0725C82.3616 14.79 83.2787 16.2404 85.1509 16.2404C87.0997 16.2404 87.9021 14.6946 87.9021 13.0152Z" fill="white"/>
<path d="M92.0861 3.79761H94.3978V9.71364C95.0282 8.51135 96.2892 7.977 97.6265 7.977C99.9382 7.977 101.104 9.59913 101.104 11.7938V17.8434H98.7728V12.0228C98.7728 10.6297 98.0468 9.86631 96.7095 9.86631C95.2193 9.86631 94.3978 10.7823 94.3978 12.1564V17.8243H92.0861V3.79761Z" fill="white"/>
<path d="M108.001 7.97705C110.943 7.97705 113.197 10.0381 113.197 12.9961C113.197 16.0305 110.828 18.0343 107.905 18.0343C104.963 18.0343 102.594 15.9923 102.594 13.0534C102.594 9.99995 105.097 7.97705 108.001 7.97705ZM110.713 13.0152C110.713 11.2404 109.815 9.75186 107.905 9.75186C105.956 9.75186 105.173 11.2977 105.173 13.0725C105.173 14.79 106.09 16.2404 107.962 16.2404C109.892 16.2404 110.713 14.6946 110.713 13.0152Z" fill="white"/>
<path d="M49.9596 7.32835H29.3262C28.6384 7.32835 27.9697 7.09934 27.4157 6.69858L22.7349 3.20621C21.6269 2.3856 20.2513 1.92758 18.8757 1.92758H7.47006C3.91653 1.9085 1.01257 4.80926 1.01257 8.35888V41.9467C1.01257 45.4963 3.91653 48.3971 7.47006 48.3971H10.6988C11.5967 48.3971 12.3227 47.6719 12.3227 46.7749C12.3227 45.878 11.5967 45.1528 10.6988 45.1528H7.47006C5.7124 45.1528 4.26042 43.7215 4.26042 41.9467V8.35888C4.26042 6.60316 5.6933 5.15277 7.47006 5.15277H18.8948C19.5826 5.15277 20.2513 5.38178 20.8053 5.78255L25.4861 9.27491C26.5942 10.0955 27.9697 10.5535 29.3453 10.5535H49.9787C51.7363 10.5535 53.1883 11.9848 53.1883 13.7596V23.1108C53.0737 20.2864 50.7429 18.0154 47.8771 18.0154C44.9541 18.0154 42.5659 20.4009 42.5659 23.3207C42.5659 24.7329 43.12 26.0116 44.0179 26.9658L42.8716 27.3856C42.5468 27.5001 42.222 27.6528 41.9164 27.8245C41.9164 27.7482 41.9164 27.6719 41.9164 27.5955C41.9164 24.7711 39.6047 22.4619 36.7771 22.4619C33.9496 22.4619 31.6379 24.7711 31.6379 27.5955C31.6379 28.9123 32.1346 30.1146 32.9561 31.0306L32.1537 31.3169C31.7525 31.4696 31.3704 31.6413 31.0074 31.8513C31.0074 31.8131 31.0074 31.794 31.0074 31.7558C31.0074 29.0841 28.8294 26.8894 26.1356 26.8894C23.4609 26.8894 21.2639 29.065 21.2639 31.7558C21.2639 32.939 21.6842 34.0268 22.3911 34.8665L20.9964 35.3818C19.4107 35.9734 18.0542 37.0039 17.099 38.3971C16.1246 39.7902 15.6279 41.4123 15.6279 43.1108V46.7749C15.6279 47.6719 16.3539 48.3971 17.2518 48.3971H49.9787C53.5322 48.3971 56.4362 45.4963 56.4362 41.9658V13.7596C56.417 10.21 53.5131 7.32835 49.9596 7.32835ZM47.8771 21.2596C49.0043 21.2596 49.9405 22.1757 49.9405 23.3207C49.9405 24.4467 49.0234 25.3818 47.8771 25.3818C46.7499 25.3818 45.8138 24.4658 45.8138 23.3207C45.8138 22.1757 46.7308 21.2596 47.8771 21.2596ZM36.7771 25.7062C37.8279 25.7062 38.6685 26.5459 38.6685 27.5955C38.6685 28.6451 37.8279 29.4848 36.7771 29.4848C35.7263 29.4848 34.8857 28.6451 34.8857 27.5955C34.8857 26.5459 35.7263 25.7062 36.7771 25.7062ZM33.2809 34.3513L38.0954 32.5764C37.9234 33.2253 37.8279 33.9123 37.8279 34.5993V45.1528H30.0139V39.0268C30.0331 36.9658 31.3322 35.0764 33.2809 34.3513ZM26.1356 30.1337C27.0336 30.1337 27.7596 30.8589 27.7596 31.7558C27.7596 32.6528 27.0336 33.378 26.1356 33.378C25.2377 33.378 24.5117 32.6528 24.5117 31.7558C24.5117 30.8589 25.2377 30.1337 26.1356 30.1337ZM22.1236 38.4161L27.1482 36.565C26.8998 37.3665 26.7661 38.1871 26.7661 39.0268V45.1528H18.8757V43.1108C18.8757 41.0306 20.1749 39.1413 22.1236 38.4161ZM49.9596 45.1528H41.0757V34.5993C41.0757 32.7482 42.2411 31.0688 43.9988 30.42L49.6539 28.3207C49.7303 28.2825 49.8067 28.2444 49.8831 28.2062C51.7554 27.4429 53.0737 25.6299 53.1692 23.5116V41.9276C53.1692 43.7215 51.7363 45.1528 49.9596 45.1528Z" fill="white"/>
</svg>
