<svg width="149" height="50" viewBox="0 0 149 50" fill="none" xmlns="http://www.w3.org/2000/svg">
<path d="M63.1371 23.7822H66.9636L70.6311 37.9799L74.6033 23.7822H77.7661L81.8196 38.0593L85.5141 23.7822H89.036L83.8938 43.1893H80.1468L76.0814 29.1251L71.923 43.1893H68.3199L63.1371 23.7822Z" fill="white"/>
<path d="M91.0526 28.9916H94.4541V31.6555C95.4108 29.7062 96.9651 28.7788 99.1307 28.7788V31.9207C96.381 31.9207 94.4541 32.8227 94.4541 35.8582V43.1893H91.0526V28.9916Z" fill="white"/>
<path d="M103.636 22.9866C104.739 22.9866 105.616 23.7957 105.616 24.9224C105.616 26.0356 104.766 26.8447 103.65 26.8447C102.548 26.8447 101.616 26.022 101.616 24.9089C101.616 23.7822 102.532 22.9866 103.636 22.9866ZM101.921 29.0187H105.323V43.1893H101.921V29.0187Z" fill="white"/>
<path d="M116.377 43.0829C115.646 43.2957 114.889 43.4275 114.039 43.4275C111.328 43.4275 109.722 42.0221 109.722 39.1994V31.4849H107.808V28.9934H109.722V26.0643L113.123 24.593V28.9934H116.259V31.4849H113.121V38.8954C113.121 40.0086 113.601 40.6977 114.849 40.6977C115.328 40.6977 115.858 40.5913 116.377 40.419V43.0829Z" fill="white"/>
<path d="M131.658 40.0996C130.477 42.6047 127.925 43.4527 125.307 43.4527C120.815 43.4527 117.986 40.4561 117.986 36.0422C117.986 31.88 120.869 28.6858 125.148 28.6858C129.745 28.6858 131.992 31.3632 131.992 36.8378H121.455C121.455 39.2365 122.85 40.9865 125.441 40.9865C126.982 40.9865 128.259 40.3632 129.002 38.9189L131.658 40.0996ZM128.602 34.6115C128.496 32.4645 127.194 31.152 125.187 31.152C123.049 31.152 121.799 32.6503 121.506 34.6115H128.602Z" fill="white"/>
<path d="M134.726 28.9916H138.128V31.6555C139.085 29.7062 140.639 28.7788 142.805 28.7788V31.9207C140.055 31.9207 138.128 32.8227 138.128 35.8582V43.1893H134.726V28.9916Z" fill="white"/>
<path d="M64.7185 17.6402L70.9782 8.61659H65.3517V6.83618H73.9243V7.72301L67.817 16.7467H73.7482V18.5271H64.7202V17.6402H64.7185Z" fill="white"/>
<path d="M79.2866 9.79053C81.8873 9.79053 83.8887 11.6115 83.8887 14.2297C83.8887 16.9206 81.784 18.6858 79.1986 18.6858C76.5894 18.6858 74.4915 16.8817 74.4915 14.2703C74.4915 11.5861 76.7079 9.79053 79.2866 9.79053ZM81.6875 14.2449C81.6875 12.6723 80.8867 11.3632 79.207 11.3632C77.4783 11.3632 76.7892 12.7365 76.7892 14.3024C76.7892 15.8192 77.5968 17.1132 79.2544 17.1132C80.9662 17.1115 81.6875 15.7382 81.6875 14.2449Z" fill="white"/>
<path d="M85.3855 6.10132H87.4342V11.331C87.9862 10.2685 89.1155 9.79051 90.2991 9.79051C92.3478 9.79051 93.3722 11.228 93.3722 13.1756V18.5253H91.3065V13.375C91.3065 12.1452 90.6665 11.4746 89.4728 11.4746C88.1606 11.4746 87.4325 12.2804 87.4325 13.5033V18.5253H85.3838V6.10132H85.3855Z" fill="white"/>
<path d="M99.4964 9.79053C102.097 9.79053 104.098 11.6115 104.098 14.2297C104.098 16.9206 101.994 18.6858 99.4084 18.6858C96.7992 18.6858 94.7013 16.8817 94.7013 14.2703C94.7013 11.5861 96.9194 9.79053 99.4964 9.79053ZM101.897 14.2449C101.897 12.6723 101.096 11.3632 99.4168 11.3632C97.6881 11.3632 96.999 12.7365 96.999 14.3024C96.999 15.8192 97.8066 17.1132 99.4643 17.1132C101.178 17.1115 101.897 15.7382 101.897 14.2449Z" fill="white"/>
<path d="M20.1353 17.7619H14.7815C13.9823 17.7619 13.3372 17.1183 13.3372 16.321C13.3372 15.5237 13.9823 14.8801 14.7815 14.8801H20.1353C20.9345 14.8801 21.5796 15.5237 21.5796 16.321C21.5796 17.1183 20.9345 17.7619 20.1353 17.7619Z" fill="white"/>
<path d="M42.8646 46.6098H8.99927C6.61696 46.6098 4.67657 44.6739 4.67657 42.2973V7.70435C4.67657 5.32766 6.61696 3.39185 8.99927 3.39185H45.7278C46.5269 3.39185 47.1721 4.03543 47.1721 4.83272C47.1721 5.63002 46.5269 6.2736 45.7278 6.2736H8.99927C8.21025 6.2736 7.56514 6.91718 7.56514 7.70435V42.2956C7.56514 43.0827 8.21025 43.7263 8.99927 43.7263H42.8646C43.6536 43.7263 44.2987 43.0827 44.2987 42.2956V27.7128C44.2987 26.9155 44.9438 26.2719 45.743 26.2719C46.5422 26.2719 47.1873 26.9155 47.1873 27.7128V42.2956C47.1873 44.6739 45.2469 46.6098 42.8646 46.6098Z" fill="white"/>
<path d="M14.7341 26.5034C13.9349 26.5034 13.2898 25.8598 13.2898 25.0625C13.2898 24.2652 13.9349 23.6216 14.7341 23.6216L28.4353 23.6064C29.2345 23.6064 29.8796 24.25 29.8796 25.0473C29.8796 25.8446 29.2345 26.4882 28.4353 26.4882L14.7341 26.5034Z" fill="white"/>
<path d="M14.7341 35.0911C13.9349 35.0911 13.2898 34.4475 13.2898 33.6502C13.2898 32.8529 13.9349 32.2093 14.7341 32.2093L28.4353 32.1941C29.2345 32.1941 29.8796 32.8377 29.8796 33.635C29.8796 34.4323 29.2345 35.0758 28.4353 35.0758L14.7341 35.0911Z" fill="white"/>
<path d="M52.3396 26.5659C52.0992 26.5659 51.8588 26.5085 51.642 26.3886L43.6265 21.9882C43.6214 21.9882 43.6164 21.9831 43.6113 21.9831L35.7922 17.5879C35.3401 17.3328 35.0607 16.8581 35.0556 16.3396C35.0556 15.821 35.3299 15.3413 35.7786 15.0862L43.7891 10.495L51.6031 5.90375C52.0501 5.64024 52.6038 5.64024 53.0525 5.89362C53.4995 6.14869 53.7788 6.62842 53.7788 7.14193V25.1301C53.7788 25.6386 53.5096 26.1098 53.0711 26.37C52.8493 26.4983 52.5953 26.5659 52.3396 26.5659ZM45.0268 19.4663L50.8954 22.6892V9.65882L45.252 12.973C45.2469 12.9781 45.2418 12.9781 45.2367 12.9831L39.4207 16.3159L45.0268 19.4663Z" fill="white"/>
</svg>
