<svg width="103" height="50" viewBox="0 0 103 50" fill="none" xmlns="http://www.w3.org/2000/svg">
<path d="M58.8648 41.7178L69.1816 26.7398H59.9071V23.7837H74.0349V25.255L63.9703 40.233H73.7458V43.1891H58.8648V41.7178Z" fill="white"/>
<path d="M76.343 24.9104C76.343 24.6283 76.3951 24.3698 76.501 24.135C76.6069 23.9002 76.7515 23.6975 76.9364 23.5252C77.1214 23.3529 77.3349 23.2212 77.5769 23.1283C77.819 23.0354 78.0762 22.9897 78.3485 22.9897C78.6209 22.9897 78.8764 23.0387 79.1134 23.135C79.3505 23.233 79.5589 23.3664 79.7405 23.5387C79.9204 23.711 80.0616 23.9137 80.1624 24.1485C80.2633 24.3833 80.3137 24.6418 80.3137 24.9239C80.3137 25.206 80.2633 25.4543 80.1624 25.6924C80.0616 25.9306 79.9254 26.135 79.7539 26.3022C79.5825 26.4712 79.3774 26.6029 79.1403 26.6992C78.9033 26.7972 78.6427 26.8445 78.362 26.8445C78.0813 26.8445 77.8291 26.7955 77.5837 26.6992C77.3382 26.6012 77.1214 26.4678 76.9364 26.2955C76.7515 26.1232 76.6069 25.9171 76.501 25.6789C76.3951 25.4408 76.343 25.184 76.343 24.9104ZM76.6473 29.0185H80.0246V43.1891H76.6473V29.0185Z" fill="white"/>
<path d="M91.9485 41.4525C91.4123 42.1687 90.7684 42.6805 90.0153 42.9897C89.2638 43.2988 88.4468 43.4542 87.5676 43.4542C86.9086 43.4542 86.29 43.3697 85.7134 43.2025C85.1368 43.0353 84.6358 42.7785 84.2088 42.4339C83.7818 42.0893 83.4456 41.6586 83.2002 41.1417C82.953 40.6248 82.8303 40.0167 82.8303 39.3191C82.8303 38.6653 82.9379 38.0978 83.1531 37.6163C83.3683 37.1349 83.6591 36.7261 84.0239 36.39C84.3887 36.0538 84.8174 35.7802 85.3099 35.5674C85.8025 35.3545 86.3236 35.189 86.8733 35.0707C87.423 34.9508 87.9879 34.8697 88.5679 34.8258C89.1478 34.7819 89.711 34.7599 90.2557 34.7599H91.9183V34.5353C91.9183 34.0319 91.8813 33.5741 91.8056 33.1636C91.73 32.7532 91.5921 32.4035 91.3904 32.1163C91.1887 31.8292 90.9096 31.6079 90.5532 31.4542C90.1968 31.3005 89.7329 31.2228 89.1613 31.2228C88.4754 31.2228 87.845 31.3968 87.2684 31.7464C86.6918 32.0961 86.2765 32.5978 86.021 33.2515L83.3952 32.1113C83.6322 31.4846 83.9667 30.9542 84.3971 30.5201C84.8275 30.0876 85.3166 29.7329 85.8613 29.4593C86.406 29.1856 86.991 28.988 87.6164 28.8697C88.24 28.7498 88.8705 28.6907 89.5025 28.6907C90.338 28.6907 91.108 28.7954 91.8107 29.0015C92.5134 29.2093 93.1236 29.5251 93.638 29.9491C94.1524 30.3731 94.5525 30.9153 94.8383 31.5724C95.1241 32.2295 95.267 33.0099 95.267 33.912V43.1907H91.9418V41.4542L91.9485 41.4525ZM90.2204 36.8393C89.8337 36.8393 89.405 36.8596 88.9343 36.8984C88.4636 36.939 88.0249 37.037 87.6147 37.1974C87.2062 37.3562 86.8649 37.591 86.5926 37.9001C86.3202 38.2093 86.1841 38.6332 86.1841 39.1721C86.1841 39.5167 86.2412 39.8055 86.3556 40.0403C86.4699 40.2751 86.6296 40.466 86.8363 40.6163C87.0431 40.7667 87.2818 40.8748 87.5559 40.9407C87.8282 41.0066 88.1224 41.0403 88.4401 41.0403C88.8705 41.0403 89.2924 40.9829 89.706 40.868C90.1195 40.7532 90.491 40.5809 90.8205 40.3511C91.15 40.1214 91.4156 39.8275 91.619 39.4694C91.8208 39.1113 91.9233 38.6941 91.9233 38.216V36.8376H90.222L90.2204 36.8393Z" fill="white"/>
<path d="M60.5392 17.6401L66.7542 8.61646H61.1679V6.83606H69.6792V7.72288L63.6156 16.7465H69.5044V18.5269H60.5409V17.6401H60.5392Z" fill="white"/>
<path d="M70.2424 14.2703C70.2424 13.5996 70.3701 12.9882 70.6273 12.4375C70.8845 11.8868 71.2292 11.4155 71.6646 11.0236C72.0983 10.6317 72.6026 10.3294 73.1775 10.1132C73.7525 9.89695 74.361 9.79053 75.0015 9.79053C75.642 9.79053 76.2489 9.89864 76.8053 10.1132C77.3618 10.3294 77.8442 10.6317 78.2561 11.0236C78.668 11.4155 78.989 11.8834 79.221 12.429C79.4547 12.9746 79.5707 13.5743 79.5707 14.2297C79.5707 14.8851 79.448 15.5101 79.2059 16.0591C78.9622 16.6081 78.6293 17.076 78.209 17.4645C77.7871 17.853 77.2945 18.1537 76.7263 18.3665C76.1598 18.5794 75.5546 18.6858 74.9141 18.6858C74.2736 18.6858 73.66 18.5777 73.0901 18.3632C72.5202 18.1469 72.026 17.8463 71.604 17.4561C71.1821 17.0676 70.8509 16.603 70.6072 16.0625C70.3634 15.5219 70.2424 14.924 70.2424 14.2703ZM74.9713 17.1115C75.3949 17.1115 75.7597 17.0321 76.064 16.8716C76.3682 16.7111 76.6187 16.5 76.8154 16.2365C77.0121 15.973 77.1567 15.6689 77.2491 15.3226C77.3416 14.9763 77.3887 14.6165 77.3887 14.2449C77.3887 13.8513 77.3382 13.4797 77.2374 13.1317C77.1365 12.7838 76.9835 12.4763 76.7801 12.2128C76.5767 11.9493 76.3212 11.7415 76.0135 11.5895C75.7059 11.4375 75.3428 11.3615 74.9242 11.3615C74.5056 11.3615 74.1274 11.4409 73.8231 11.6013C73.5188 11.7618 73.27 11.9746 73.08 12.2449C72.8901 12.5135 72.7489 12.826 72.6598 13.179C72.569 13.5338 72.5253 13.9071 72.5253 14.3007C72.5253 14.6942 72.5757 15.0388 72.6766 15.3784C72.7774 15.7179 72.9287 16.0169 73.1338 16.2719C73.3372 16.527 73.5928 16.7314 73.897 16.8834C74.2013 17.0355 74.5611 17.1115 74.9746 17.1115H74.9713Z" fill="white"/>
<path d="M81.0585 6.10132H83.0926V11.331C83.2304 11.0642 83.4002 10.8344 83.6053 10.6402C83.8087 10.4459 84.034 10.2854 84.2811 10.1604C84.5266 10.0354 84.7922 9.94253 85.0763 9.88172C85.3604 9.82091 85.6478 9.79051 85.9387 9.79051C86.448 9.79051 86.8918 9.87497 87.2734 10.0456C87.6551 10.2162 87.9728 10.451 88.2266 10.7517C88.4805 11.0523 88.6721 11.4088 88.7982 11.8209C88.9259 12.2331 88.9881 12.6841 88.9881 13.174V18.5236H86.9372V13.3733C86.9372 12.755 86.7826 12.2838 86.4716 11.9594C86.1606 11.6351 85.71 11.4729 85.1166 11.4729C84.4593 11.4729 83.9583 11.6571 83.6104 12.0287C83.2624 12.4003 83.0892 12.8902 83.0892 13.5017V18.5236H81.0551V6.10132H81.0585Z" fill="white"/>
<path d="M90.3095 14.2703C90.3095 13.5996 90.4373 12.9882 90.6945 12.4375C90.9517 11.8868 91.2963 11.4155 91.7317 11.0236C92.1654 10.6317 92.6697 10.3294 93.2447 10.1132C93.8196 9.89695 94.4282 9.79053 95.0687 9.79053C95.7091 9.79053 96.316 9.89864 96.8725 10.1132C97.4289 10.3294 97.9114 10.6317 98.3232 11.0236C98.7351 11.4155 99.0562 11.8834 99.2882 12.429C99.5218 12.9746 99.6378 13.5743 99.6378 14.2297C99.6378 14.8851 99.5151 15.5101 99.273 16.0591C99.0293 16.6081 98.6964 17.076 98.2762 17.4645C97.8542 17.853 97.3617 18.1537 96.7934 18.3665C96.2269 18.5794 95.6217 18.6858 94.9812 18.6858C94.3407 18.6858 93.7272 18.5777 93.1573 18.3632C92.5874 18.1469 92.0931 17.8463 91.6712 17.4561C91.2492 17.0676 90.9181 16.603 90.6743 16.0625C90.4305 15.5219 90.3095 14.924 90.3095 14.2703ZM95.0367 17.1115C95.4603 17.1115 95.8251 17.0321 96.1294 16.8716C96.4337 16.7111 96.6842 16.5 96.8809 16.2365C97.0775 15.973 97.2221 15.6689 97.3146 15.3226C97.407 14.9763 97.4541 14.6165 97.4541 14.2449C97.4541 13.8513 97.4037 13.4797 97.3028 13.1317C97.2019 12.7838 97.049 12.4763 96.8456 12.2128C96.6422 11.9493 96.3866 11.7415 96.079 11.5895C95.7714 11.4375 95.4082 11.3615 94.9896 11.3615C94.5711 11.3615 94.1928 11.4409 93.8885 11.6013C93.5843 11.7618 93.3355 11.9746 93.1455 12.2449C92.9555 12.5135 92.8143 12.826 92.7252 13.179C92.6344 13.5338 92.5907 13.9071 92.5907 14.3007C92.5907 14.6942 92.6412 15.0388 92.742 15.3784C92.8429 15.7179 92.9942 16.0169 93.1993 16.2719C93.4027 16.527 93.6582 16.7314 93.9625 16.8834C94.2668 17.0355 94.6265 17.1115 95.0401 17.1115H95.0367Z" fill="white"/>
<path d="M20.5882 49.4865H5.99304C5.0365 49.4865 4.1119 49.223 3.31675 48.7264C2.57035 48.2602 1.95339 47.598 1.52976 46.8125C1.10613 46.0271 0.89431 45.1453 0.914483 44.2619C0.936337 43.321 1.2238 42.3987 1.7483 41.5963L13.3848 23.7061C13.8471 22.9967 13.8874 22.1335 13.4907 21.397C13.3074 21.0558 12.7527 20.2602 11.586 20.2602H2.32827C1.53816 20.2602 0.899353 19.6166 0.899353 18.8244C0.899353 18.0321 1.53985 17.3885 2.32827 17.3885H11.586C13.4638 17.3885 15.1163 18.3767 16.0056 20.0321C16.8949 21.6858 16.8074 23.6977 15.7769 25.2788L4.14048 43.169C3.68659 43.8649 3.65129 44.7162 4.04466 45.4477C4.43803 46.1791 5.16594 46.6149 5.99304 46.6149H20.5882C21.2354 46.6149 21.8339 46.2889 22.1852 45.7416L25.2751 40.946L22.2743 39.8446C20.716 39.3953 19.4989 38.2669 18.9273 36.7382C18.349 35.1926 18.5373 33.5152 19.4434 32.1369L25.2061 23.2331C25.6365 22.5676 26.5224 22.3801 27.1831 22.8125C27.8454 23.245 28.032 24.1352 27.6017 24.799L21.8356 33.7061L21.8288 33.7163C21.4321 34.3176 21.3497 35.0507 21.6019 35.7264C21.8541 36.4021 22.3971 36.8987 23.0897 37.0896C23.1283 37.0997 23.1653 37.1115 23.2023 37.125L26.8671 38.4713L36.0138 24.2737C37.0275 22.701 38.8061 21.8801 40.6536 22.1335C42.5011 22.3869 43.9956 23.6554 44.5537 25.4426L49.4373 41.1014C49.7214 42.0135 49.75 42.9747 49.5197 43.8835C49.3028 44.7348 48.864 45.5237 48.2488 46.1639C47.6352 46.8041 46.8652 47.2737 46.0264 47.5237C45.132 47.7889 44.1738 47.7956 43.2576 47.5423C43.219 47.5321 43.182 47.5203 43.145 47.5068L28.0287 41.9561L24.5841 47.3024C23.7033 48.6706 22.2088 49.4865 20.5882 49.4865ZM44.0645 44.7872C44.8412 44.9831 45.6347 44.7551 46.1928 44.1723C46.7644 43.5777 46.9577 42.7517 46.7122 41.9629L41.8287 26.3041C41.6018 25.5777 41.0201 25.0845 40.2703 24.9815C39.5206 24.8784 38.828 25.1977 38.4161 25.8362L29.6223 39.4848L44.0645 44.7872Z" fill="white"/>
<path d="M21.2976 11.6808C26.4384 10.5389 27.9732 8.99837 29.108 3.83283C29.1668 3.56763 29.4005 3.38013 29.6711 3.38013C29.9418 3.38013 30.1754 3.56763 30.2343 3.83283C31.3707 8.99837 32.9038 10.5406 38.0446 11.6808C38.3085 11.7399 38.4951 11.9747 38.4951 12.2467C38.4951 12.5186 38.3085 12.7534 38.0446 12.8126C32.9038 13.9544 31.369 15.495 30.2343 20.6605C30.1754 20.9257 29.9418 21.1132 29.6711 21.1132C29.4005 21.1132 29.1668 20.9257 29.108 20.6605C27.9715 15.495 26.4384 13.9528 21.2976 12.8126C21.0337 12.7534 20.8471 12.5186 20.8471 12.2467C20.8471 11.9747 21.0337 11.7399 21.2976 11.6808Z" fill="white"/>
<path d="M32.8585 4.80071C35.5146 4.21119 36.3064 3.41558 36.8931 0.746658C36.9233 0.609834 37.0444 0.51355 37.1839 0.51355C37.3234 0.51355 37.4445 0.611523 37.4747 0.746658C38.0614 3.41558 38.8532 4.21119 41.5093 4.80071C41.6455 4.83112 41.7413 4.95274 41.7413 5.09294C41.7413 5.23314 41.6438 5.35477 41.5093 5.38517C38.8532 5.9747 38.0614 6.77031 37.4747 9.43923C37.4445 9.57605 37.3234 9.67233 37.1839 9.67233C37.0444 9.67233 36.9233 9.57436 36.8931 9.43923C36.3064 6.77031 35.5146 5.9747 32.8585 5.38517C32.7223 5.35477 32.6265 5.23314 32.6265 5.09294C32.6265 4.95274 32.724 4.83112 32.8585 4.80071Z" fill="white"/>
</svg>
