<svg width="194" height="50" viewBox="0 0 194 50" fill="none" xmlns="http://www.w3.org/2000/svg">
<path d="M59.4612 41.7179L69.8502 26.7399H60.5107V23.7838H74.7374V25.2551L64.6024 40.2331H74.4462V43.1892H59.4612V41.7179Z" fill="white"/>
<path d="M77.0634 24.9105C77.0634 24.6284 77.1158 24.3699 77.2225 24.1351C77.3291 23.9003 77.4747 23.6976 77.6609 23.5253C77.8471 23.353 78.0621 23.2213 78.3059 23.1284C78.5497 23.0355 78.8087 22.9899 79.0829 22.9899C79.3572 22.9899 79.6145 23.0389 79.8532 23.1351C80.0919 23.2331 80.3018 23.3666 80.4846 23.5389C80.6657 23.7112 80.8079 23.9139 80.9095 24.1487C81.0111 24.3834 81.0619 24.6419 81.0619 24.924C81.0619 25.1976 81.0111 25.4544 80.9095 25.6926C80.8079 25.9307 80.6708 26.1351 80.4981 26.3024C80.3255 26.4713 80.1189 26.603 79.8802 26.6993C79.6416 26.7973 79.3792 26.8446 79.0965 26.8446C78.8222 26.8446 78.5598 26.7956 78.3127 26.6993C78.0655 26.6014 77.8471 26.4679 77.6609 26.2956C77.4747 26.1233 77.3291 25.9172 77.2225 25.6791C77.1158 25.4392 77.0634 25.1841 77.0634 24.9105ZM77.3681 29.0186H80.769V43.1892H77.3681V29.0186Z" fill="white"/>
<path d="M92.7781 41.4527C92.238 42.169 91.5897 42.6808 90.8313 42.9899C90.0746 43.299 89.2519 43.4544 88.3665 43.4544C87.7029 43.4544 87.0799 43.37 86.4993 43.2027C85.9187 43.0355 85.4142 42.7788 84.9842 42.4342C84.5542 42.0896 84.2156 41.6588 83.9685 41.1419C83.7196 40.625 83.5961 40.0169 83.5961 39.3193C83.5961 38.6656 83.7044 38.098 83.9211 37.6166C84.1378 37.1352 84.4306 36.7264 84.798 36.3902C85.1653 36.0541 85.597 35.7804 86.093 35.5676C86.589 35.3548 87.1138 35.1892 87.6674 35.071C88.2209 34.9511 88.7897 34.87 89.3737 34.8261C89.9578 34.7821 90.5249 34.7602 91.0734 34.7602H92.7476V34.5355C92.7476 34.0321 92.7103 33.5744 92.6342 33.1639C92.558 32.7534 92.4192 32.4038 92.216 32.1166C92.0129 31.8294 91.7319 31.6081 91.373 31.4544C91.0141 31.3007 90.5469 31.223 89.9713 31.223C89.2806 31.223 88.6458 31.397 88.0652 31.7467C87.4845 32.0963 87.0664 32.598 86.8091 33.2517L84.1649 32.1115C84.4036 31.4848 84.7404 30.9544 85.1738 30.5203C85.6072 30.0879 86.0998 29.7331 86.6483 29.4595C87.1967 29.1858 87.7859 28.9882 88.4156 28.87C89.0436 28.75 89.6785 28.6909 90.315 28.6909C91.1563 28.6909 91.9316 28.7956 92.6392 29.0017C93.3469 29.2095 93.9614 29.5254 94.4794 29.9494C94.9974 30.3733 95.4003 30.9156 95.6881 31.5727C95.9758 32.2298 96.1197 33.0102 96.1197 33.9122V43.1909H92.7713V41.4527H92.7781ZM91.0378 36.8396C90.6485 36.8396 90.2168 36.8598 89.7428 36.8987C89.2688 36.9392 88.827 37.0372 88.4139 37.1977C88.0025 37.3565 87.6589 37.5913 87.3847 37.9004C87.1104 38.2095 86.9733 38.6335 86.9733 39.1723C86.9733 39.5169 87.0308 39.8058 87.146 40.0406C87.2611 40.2754 87.4219 40.4663 87.6301 40.6166C87.8383 40.7669 88.0787 40.875 88.3547 40.9409C88.6289 41.0068 88.9251 41.0406 89.2451 41.0406C89.6785 41.0406 90.1034 40.9831 90.5198 40.8683C90.9362 40.7534 91.3104 40.5811 91.6422 40.3514C91.974 40.1217 92.2414 39.8277 92.4463 39.4696C92.6494 39.1115 92.7527 38.6943 92.7527 38.2163V36.8379H91.0378V36.8396Z" fill="white"/>
<path d="M107.325 37.3429C107.528 37.9004 107.799 38.3852 108.136 38.8007C108.472 39.2162 108.862 39.5659 109.305 39.848C109.749 40.1318 110.235 40.3429 110.766 40.4848C111.298 40.6267 111.86 40.696 112.454 40.696C112.906 40.696 113.351 40.6368 113.79 40.5169C114.228 40.397 114.619 40.2162 114.965 39.973C115.31 39.7297 115.591 39.4206 115.808 39.0456C116.024 38.6706 116.133 38.2297 116.133 37.7264C116.133 37.1875 116.009 36.75 115.76 36.4139C115.511 36.0777 115.183 35.8058 114.77 35.598C114.357 35.3902 113.881 35.2264 113.341 35.1081C112.801 34.9882 112.234 34.8767 111.641 34.7703C110.888 34.6385 110.137 34.4764 109.383 34.2872C108.63 34.098 107.953 33.8075 107.35 33.4189C106.747 33.0304 106.258 32.495 105.882 31.8142C105.507 31.1335 105.319 30.2365 105.319 29.1233C105.319 28.196 105.512 27.3801 105.896 26.6774C106.282 25.9747 106.788 25.3868 107.416 24.9139C108.044 24.4409 108.76 24.0879 109.561 23.8531C110.362 23.6183 111.184 23.5017 112.026 23.5017C112.804 23.5017 113.553 23.5828 114.27 23.7466C114.988 23.9105 115.654 24.1672 116.27 24.5152C116.886 24.8649 117.434 25.3091 117.917 25.848C118.399 26.3868 118.792 27.0372 119.093 27.7973L116.331 29.0439C115.914 28.1875 115.334 27.5152 114.59 27.0287C113.847 26.5422 112.979 26.299 111.987 26.299C111.589 26.299 111.201 26.3429 110.824 26.4325C110.448 26.5203 110.111 26.6672 109.815 26.87C109.519 27.0727 109.278 27.3362 109.097 27.6588C108.916 27.9814 108.825 28.3818 108.825 28.8581C108.825 29.3801 108.94 29.8041 109.17 30.1301C109.4 30.4578 109.712 30.723 110.106 30.9257C110.5 31.1284 110.959 31.2906 111.481 31.4088C112.004 31.5287 112.561 31.6402 113.155 31.7466C113.668 31.8345 114.184 31.9325 114.702 32.0389C115.22 32.1453 115.723 32.2838 116.21 32.4561C116.698 32.6284 117.153 32.8429 117.578 33.0997C118.003 33.3564 118.376 33.6791 118.694 34.0676C119.012 34.4561 119.263 34.9274 119.444 35.4797C119.625 36.0321 119.716 36.6841 119.716 37.4358C119.716 38.4172 119.506 39.2821 119.085 40.0338C118.663 40.7855 118.113 41.4139 117.431 41.9223C116.749 42.4308 115.972 42.8125 115.1 43.0693C114.228 43.326 113.344 43.4544 112.449 43.4544C111.572 43.4544 110.71 43.37 109.866 43.2027C109.019 43.0355 108.234 42.7602 107.508 42.3801C106.781 42 106.146 41.5017 105.601 40.8818C105.056 40.2635 104.652 39.5034 104.386 38.6014L107.325 37.3429Z" fill="white"/>
<path d="M135.301 40.0997C135.008 40.728 134.634 41.2551 134.178 41.6841C133.723 42.1132 133.217 42.4578 132.663 42.7179C132.11 42.978 131.515 43.1672 130.882 43.2804C130.249 43.3953 129.604 43.4527 128.949 43.4527C127.825 43.4527 126.811 43.2736 125.907 42.9155C125.003 42.5574 124.235 42.0541 123.601 41.4037C122.968 40.7551 122.481 39.9747 122.14 39.0642C121.8 38.1537 121.629 37.147 121.629 36.0422C121.629 35 121.802 34.0304 122.147 33.1334C122.493 32.2365 122.98 31.4595 123.608 30.8007C124.236 30.1419 124.99 29.625 125.866 29.25C126.743 28.875 127.717 28.6875 128.788 28.6875C131.091 28.6875 132.807 29.3615 133.936 30.7095C135.065 32.0574 135.629 34.1014 135.629 36.8395H125.094C125.094 37.4409 125.181 37.9949 125.353 38.5034C125.526 39.0118 125.78 39.4493 126.117 39.8159C126.454 40.1824 126.87 40.4696 127.366 40.6774C127.862 40.8851 128.433 40.9882 129.079 40.9882C129.858 40.9882 130.554 40.8243 131.165 40.4983C131.776 40.1723 132.267 39.6453 132.639 38.9206L135.301 40.0997ZM132.245 34.6132C132.193 33.5355 131.862 32.6892 131.255 32.0743C130.649 31.4595 129.84 31.1537 128.831 31.1537C128.299 31.1537 127.822 31.2416 127.397 31.4189C126.972 31.5963 126.606 31.8395 126.301 32.1486C125.997 32.4578 125.746 32.8226 125.552 33.2416C125.357 33.6622 125.223 34.1182 125.154 34.6132H132.245Z" fill="white"/>
<path d="M146.592 41.4527C146.052 42.169 145.404 42.6808 144.645 42.9899C143.888 43.299 143.066 43.4544 142.18 43.4544C141.517 43.4544 140.894 43.37 140.313 43.2027C139.732 43.0355 139.228 42.7788 138.798 42.4342C138.368 42.0896 138.029 41.6588 137.782 41.1419C137.533 40.625 137.41 40.0169 137.41 39.3193C137.41 38.6656 137.518 38.098 137.735 37.6166C137.952 37.1352 138.244 36.7264 138.612 36.3902C138.979 36.0541 139.411 35.7804 139.907 35.5676C140.403 35.3548 140.928 35.1892 141.481 35.071C142.035 34.9511 142.604 34.87 143.188 34.8261C143.772 34.7821 144.339 34.7602 144.887 34.7602H146.561V34.5355C146.561 34.0321 146.524 33.5744 146.448 33.1639C146.372 32.7534 146.233 32.4038 146.03 32.1166C145.827 31.8294 145.546 31.6081 145.187 31.4544C144.828 31.3007 144.361 31.223 143.785 31.223C143.094 31.223 142.46 31.397 141.879 31.7467C141.298 32.0963 140.88 32.598 140.623 33.2517L137.979 32.1115C138.217 31.4848 138.554 30.9544 138.988 30.5203C139.421 30.0879 139.914 29.7331 140.462 29.4595C141.011 29.1858 141.6 28.9882 142.229 28.87C142.857 28.75 143.492 28.6909 144.129 28.6909C144.97 28.6909 145.745 28.7956 146.453 29.0017C147.161 29.2095 147.775 29.5254 148.293 29.9494C148.811 30.3733 149.214 30.9156 149.502 31.5727C149.79 32.2298 149.934 33.0102 149.934 33.9122V43.1909H146.585V41.4527H146.592ZM144.852 36.8396C144.462 36.8396 144.031 36.8598 143.557 36.8987C143.083 36.9392 142.641 37.0372 142.228 37.1977C141.816 37.3565 141.473 37.5913 141.198 37.9004C140.924 38.2095 140.787 38.6335 140.787 39.1723C140.787 39.5169 140.845 39.8058 140.96 40.0406C141.075 40.2754 141.236 40.4663 141.444 40.6166C141.652 40.7669 141.893 40.875 142.168 40.9409C142.443 41.0068 142.739 41.0406 143.059 41.0406C143.492 41.0406 143.917 40.9831 144.334 40.8683C144.75 40.7534 145.124 40.5811 145.456 40.3514C145.788 40.1217 146.055 39.8277 146.26 39.4696C146.463 39.1115 146.567 38.6943 146.567 38.2163V36.8379H144.852V36.8396Z" fill="white"/>
<path d="M153.526 28.9932H156.927V31.6571C157.406 30.6757 158.032 29.951 158.806 29.4831C159.581 29.0152 160.512 28.7804 161.602 28.7804V31.9223C160.912 31.9223 160.28 31.9848 159.71 32.1081C159.138 32.2314 158.647 32.4459 158.235 32.7517C157.824 33.0574 157.502 33.4611 157.272 33.9645C157.042 34.4679 156.927 35.0997 156.927 35.8598V43.1909H153.526V28.9932Z" fill="white"/>
<path d="M176.667 39.1723C176.428 39.9139 176.091 40.5557 175.658 41.0946C175.225 41.6334 174.72 42.0777 174.143 42.4274C173.567 42.777 172.934 43.0355 172.244 43.2027C171.553 43.3699 170.835 43.4544 170.092 43.4544C168.968 43.4544 167.957 43.2736 167.064 42.9105C166.168 42.549 165.411 42.0422 164.792 41.3919C164.172 40.7416 163.698 39.9628 163.37 39.0524C163.041 38.1419 162.879 37.1385 162.879 36.0439C162.879 34.9932 163.058 34.0152 163.417 33.1149C163.776 32.2145 164.279 31.4358 164.925 30.7821C165.572 30.1284 166.341 29.6149 167.231 29.2449C168.122 28.875 169.102 28.6875 170.173 28.6875C170.891 28.6875 171.578 28.7652 172.239 28.9189C172.899 29.0743 173.506 29.3125 174.065 29.6351C174.624 29.9578 175.116 30.3699 175.546 30.875C175.976 31.3784 176.323 31.9797 176.589 32.6774L173.84 33.8834C173.557 33.0794 173.09 32.4611 172.438 32.027C171.788 31.5946 171.032 31.3767 170.173 31.3767C169.483 31.3767 168.895 31.5135 168.413 31.7872C167.93 32.0608 167.538 32.4257 167.236 32.8801C166.935 33.3345 166.716 33.8514 166.579 34.4307C166.442 35.0101 166.373 35.6047 166.373 36.2128C166.373 36.8395 166.444 37.4375 166.586 38.0017C166.728 38.5676 166.953 39.0625 167.263 39.4865C167.573 39.9105 167.971 40.2483 168.458 40.5C168.946 40.7517 169.535 40.8784 170.226 40.8784C171.209 40.8784 172.024 40.6267 172.67 40.1233C173.317 39.6199 173.786 38.9223 174.079 38.0287L176.667 39.1723Z" fill="white"/>
<path d="M179.364 22.5642H182.765V31.2466C182.995 30.8041 183.281 30.4223 183.621 30.0997C183.961 29.777 184.339 29.5118 184.75 29.3041C185.162 29.0963 185.605 28.9426 186.079 28.8395C186.553 28.7382 187.034 28.6875 187.52 28.6875C188.37 28.6875 189.114 28.8294 189.751 29.1115C190.389 29.3936 190.921 29.7855 191.346 30.2838C191.771 30.7838 192.089 31.375 192.302 32.0608C192.515 32.745 192.62 33.495 192.62 34.3075V43.1892H189.192V34.6402C189.192 33.6149 188.933 32.8328 188.415 32.2939C187.897 31.7551 187.142 31.4848 186.15 31.4848C185.052 31.4848 184.212 31.7922 183.633 32.4054C183.052 33.0203 182.763 33.8345 182.763 34.8514V43.1892H179.362V22.5642H179.364Z" fill="white"/>
<path d="M61.1489 17.6401L67.4074 8.61646H61.782V6.83606H70.3529V7.72288L64.2468 16.7465H70.1769V18.5269H61.1506V17.6401H61.1489Z" fill="white"/>
<path d="M70.92 14.2703C70.92 13.5996 71.0487 12.9882 71.3077 12.4375C71.5667 11.8868 71.9137 11.4155 72.3522 11.0236C72.7889 10.6317 73.2968 10.3294 73.8757 10.1132C74.4547 9.89695 75.0675 9.79053 75.7125 9.79053C76.3625 9.79053 76.9686 9.89864 77.5289 10.1132C78.0892 10.3294 78.5751 10.6317 78.9898 11.0236C79.4046 11.4155 79.7279 11.8834 79.9615 12.429C80.1968 12.9746 80.3136 13.5743 80.3136 14.2297C80.3136 14.9003 80.1901 15.5101 79.9463 16.0591C79.7008 16.6081 79.3656 17.076 78.9424 17.4645C78.5175 17.853 78.0215 18.1537 77.4493 18.3665C76.8789 18.5794 76.2694 18.6858 75.6245 18.6858C74.9744 18.6858 74.3616 18.5777 73.7877 18.3632C73.2138 18.1469 72.7162 17.8463 72.2912 17.4561C71.8663 17.0676 71.5329 16.603 71.2874 16.0625C71.0419 15.5219 70.92 14.924 70.92 14.2703ZM75.682 17.1115C76.1086 17.1115 76.476 17.0321 76.7824 16.8716C77.0888 16.7111 77.341 16.5 77.5391 16.2365C77.7371 15.973 77.8827 15.6689 77.9758 15.3226C78.0689 14.9763 78.1163 14.6165 78.1163 14.2449C78.1163 13.8513 78.0655 13.4797 77.964 13.1317C77.8624 12.7838 77.7083 12.4763 77.5035 12.2128C77.2987 11.9493 77.0414 11.7415 76.7316 11.5895C76.4218 11.4375 76.0561 11.3615 75.6346 11.3615C75.2029 11.3615 74.8322 11.4409 74.5258 11.6013C74.2194 11.7618 73.9689 11.9746 73.7776 12.2449C73.5863 12.5135 73.4441 12.826 73.3544 13.179C73.2629 13.5338 73.2189 13.9071 73.2189 14.3007C73.2189 14.679 73.2697 15.0388 73.3713 15.3784C73.4729 15.7179 73.6252 16.0169 73.8317 16.2719C74.0366 16.527 74.2939 16.7314 74.6003 16.8834C74.9033 17.0371 75.2656 17.1115 75.682 17.1115Z" fill="white"/>
<path d="M81.8118 6.10132H83.8601V11.331C83.999 11.0642 84.1699 10.8344 84.3765 10.6402C84.5813 10.4459 84.8081 10.2854 85.057 10.1604C85.3041 10.0354 85.5716 9.94253 85.8577 9.88172C86.1438 9.82091 86.4333 9.79051 86.7261 9.79051C87.2391 9.79051 87.686 9.87497 88.0702 10.0456C88.4545 10.2162 88.7745 10.451 89.0301 10.7517C89.2857 11.0523 89.4787 11.4088 89.6057 11.8209C89.7343 12.2331 89.7969 12.6841 89.7969 13.174V18.5236H87.7317V13.375C87.7317 12.7567 87.5759 12.2854 87.2628 11.9611C86.9496 11.6368 86.4959 11.4746 85.8983 11.4746C85.2364 11.4746 84.732 11.6588 84.3815 12.0304C84.0311 12.402 83.8567 12.8919 83.8567 13.5033V18.5253H81.8084V6.10132H81.8118Z" fill="white"/>
<path d="M91.1258 14.2703C91.1258 13.5996 91.2545 12.9882 91.5135 12.4375C91.7725 11.8868 92.1195 11.4155 92.5579 11.0236C92.9947 10.6317 93.5026 10.3294 94.0815 10.1132C94.6605 9.89695 95.2733 9.79053 95.9182 9.79053C96.5683 9.79053 97.1743 9.89864 97.7347 10.1132C98.295 10.3294 98.7808 10.6317 99.1956 11.0236C99.6103 11.4155 99.9337 11.8834 100.167 12.429C100.403 12.9746 100.519 13.5743 100.519 14.2297C100.519 14.9003 100.396 15.5101 100.152 16.0591C99.9066 16.6081 99.5714 17.076 99.1482 17.4645C98.7233 17.853 98.2273 18.1537 97.6551 18.3665C97.0846 18.5794 96.4752 18.6858 95.8302 18.6858C95.1802 18.6858 94.5673 18.5777 93.9935 18.3632C93.4196 18.1469 92.9219 17.8463 92.497 17.4561C92.0721 17.0676 91.7386 16.603 91.4931 16.0625C91.2494 15.5219 91.1258 14.924 91.1258 14.2703ZM95.8878 17.1115C96.3144 17.1115 96.6817 17.0321 96.9881 16.8716C97.2945 16.7111 97.5468 16.5 97.7448 16.2365C97.9429 15.973 98.0885 15.6689 98.1816 15.3226C98.2747 14.9763 98.3221 14.6165 98.3221 14.2449C98.3221 13.8513 98.2713 13.4797 98.1697 13.1317C98.0681 12.7838 97.9141 12.4763 97.7093 12.2128C97.5044 11.9493 97.2471 11.7415 96.9373 11.5895C96.6275 11.4375 96.2619 11.3615 95.8404 11.3615C95.4087 11.3615 95.038 11.4409 94.7316 11.6013C94.4251 11.7618 94.1746 11.9746 93.9833 12.2449C93.792 12.5135 93.6498 12.826 93.5601 13.179C93.4687 13.5338 93.4247 13.9071 93.4247 14.3007C93.4247 14.679 93.4755 15.0388 93.577 15.3784C93.6786 15.7179 93.831 16.0169 94.0375 16.2719C94.2423 16.527 94.4996 16.7314 94.806 16.8834C95.1107 17.0371 95.4713 17.1115 95.8878 17.1115Z" fill="white"/>
<path d="M47.9989 37.1452L40.7569 29.9189C45.5697 19.5321 41.0345 7.22124 30.6269 2.41719C27.9184 1.17225 24.9677 0.516849 21.9833 0.506714H21.8868C10.4127 0.511781 1.11217 9.79725 1.11725 21.2466C1.12233 29.5793 6.12299 37.0962 13.8102 40.3395C16.3579 41.4172 19.1037 41.9679 21.8681 41.9679C22.0848 41.9679 22.2998 41.9679 22.5165 41.9577C23.3748 42.9628 24.8865 43.0777 25.8903 42.2212C26.8976 41.3648 27.0127 39.8564 26.1544 38.8547C25.2962 37.8496 23.7844 37.7348 22.7806 38.5912C22.6079 38.7398 22.4589 38.9071 22.3337 39.0946C22.1847 39.0996 22.0357 39.0996 21.8868 39.0996H21.8715C11.9819 39.0844 3.97647 31.0675 3.9917 21.1993C4.00524 14.0202 8.3203 7.5405 14.9529 4.7584C17.1705 3.82935 19.5591 3.35469 21.9646 3.36989C26.7401 3.38847 31.2228 5.26178 34.5814 8.6334C37.94 12.005 39.7937 16.4864 39.7835 21.2516C39.7784 24.1351 39.0776 26.9831 37.7352 29.5354C37.4423 30.0912 37.5473 30.7753 37.9891 31.2162L45.9556 39.1655C47.6011 40.8851 47.5435 43.6047 45.8253 45.2466C44.1544 46.8412 41.5305 46.8412 39.8597 45.2466L24.7324 30.1435C24.3973 29.8091 23.9216 29.6604 23.456 29.7466C22.9905 29.8327 22.5199 29.8766 22.0493 29.8851C19.7081 29.929 17.5006 29.0658 15.8348 27.4628C14.1691 25.853 13.2482 23.6841 13.2194 21.3479C13.1568 16.5692 16.9911 12.6469 21.7801 12.5895C21.8563 12.5895 21.9291 12.5895 22.0053 12.5895C26.7655 12.652 30.5998 16.5692 30.5575 21.3243C30.5474 22.2922 30.3798 23.25 30.053 24.1537C28.7529 24.4121 27.9133 25.6723 28.1672 26.9594C28.4262 28.2567 29.6891 29.0946 30.979 28.8412C32.2791 28.5827 33.1188 27.3226 32.8649 26.0354C32.8208 25.8192 32.7497 25.6098 32.6482 25.4121C33.1526 24.1148 33.4167 22.7398 33.4303 21.3513C33.4878 15.0202 28.3822 9.81077 22.0476 9.72969C15.6791 9.63847 10.4431 14.7196 10.3483 21.0692C10.3483 21.1739 10.3483 21.2804 10.3483 21.3851C10.3873 24.4881 11.6298 27.38 13.8373 29.5202C15.9974 31.6182 18.8515 32.7567 21.88 32.7567C21.9528 32.7567 22.029 32.7567 22.1001 32.7567C22.4691 32.7516 22.8398 32.728 23.2089 32.6841L37.8452 47.2888C40.591 50.1435 45.1397 50.2331 48.004 47.4898C50.8649 44.75 50.9546 40.2111 48.2054 37.353C48.1326 37.2736 48.0649 37.2077 47.9989 37.1452Z" fill="white"/>
</svg>
