<?xml version="1.0" encoding="utf-8"?>

<svg version="1.1" id="Layer_1" xmlns="http://www.w3.org/2000/svg" xmlns:xlink="http://www.w3.org/1999/xlink" x="0px" y="0px" viewBox="0 0 800 296" style="enable-background:new 0 0 800 296;" xml:space="preserve">

<g>
&#x9;<g>
&#x9;&#x9;<path d="M366.1,140.8h28.8l38.5,114.9h-23l-8.6-26.5h-45.1l-8.3,26.5h-21.1L366.1,140.8z M396.9,213.2l-17.5-54.5l-17.6,54.5&#xA;&#x9;&#x9;&#x9;H396.9z"></path>
&#x9;&#x9;<path d="M507.9,241.6c-5.6,9.7-18.1,15.7-29.1,15.7c-25.7,0-37.7-19.9-37.7-43.6c0-23.1,13.7-43.9,38.4-43.9&#xA;&#x9;&#x9;&#x9;c11.6,0,22.6,4.6,28.5,14.8v-51h20v122.1h-20V241.6z M508.4,212.9c0-15.2-6.7-27.4-23.4-27.4c-17.6,0-23.5,13.7-23.5,29&#xA;&#x9;&#x9;&#x9;c0,14.1,6.9,27,23.3,27C501.4,241.6,508.4,228.4,508.4,212.9z"></path>
&#x9;&#x9;<path d="M598.1,245.4c-6.4,8.5-15.7,11.8-26.1,11.8c-15.8,0-28.2-8-28.2-24.5c0-23.3,24.6-27,44.2-27h9.9v-1.3&#xA;&#x9;&#x9;&#x9;c0-12-2.8-19.6-16.4-19.6c-8.2,0-15.7,4.2-18.7,12l-15.6-6.7c5.6-14.8,21.3-20.2,36.3-20.2c19.9,0,34.3,9.6,34.3,30.9v54.9h-19.8&#xA;&#x9;&#x9;&#x9;V245.4z M587.9,218.1c-9.3,0-24,1.1-24,13.8c0,8.1,5.9,11.1,13.4,11.1c10.2,0,20.7-5.3,20.7-16.7v-8.2H587.9z"></path>
&#x9;&#x9;<path d="M639.1,171.6h20.1v13.6c5.8-9.8,17.6-15.4,28.8-15.4c25.7,0,38.1,20.6,38.1,43.6c0,23.6-13.2,43.9-37.5,43.9&#xA;&#x9;&#x9;&#x9;c-11.8,0-23.7-4.7-29.3-14.8v42h-20.1V171.6z M705.3,212.9c0-14.2-7.1-27.4-23.5-27.4c-16.6,0-23.3,13.3-23.3,28.4&#xA;&#x9;&#x9;&#x9;c0,15.6,7.2,27.6,23.9,27.6C700.1,241.6,705.3,228.4,705.3,212.9z"></path>
&#x9;&#x9;<path d="M785.1,255.1c-4.3,1.3-8.8,2-13.8,2c-16,0-25.5-8.3-25.5-25v-45.7h-11.3v-14.8h11.3v-17.3l20.1-8.7v26.1h18.5v14.8h-18.5&#xA;&#x9;&#x9;&#x9;v43.9c0,6.6,2.8,10.7,10.2,10.7c2.8,0,6-0.6,9-1.6V255.1z"></path>
&#x9;</g>
&#x9;<g>
&#x9;&#x9;<path d="M336.5,104.4l37-53.4h-33.2V40.5h50.6v5.2l-36.1,53.4h35v10.5h-53.3V104.4z"></path>
&#x9;&#x9;<path d="M422.5,58c15.4,0,27.2,10.8,27.2,26.3c0,15.9-12.4,26.4-27.7,26.4c-15.4,0-27.8-10.7-27.8-26.1&#xA;&#x9;&#x9;&#x9;C394.2,68.6,407.3,58,422.5,58z M436.7,84.3c0-9.3-4.7-17.1-14.7-17.1c-10.2,0-14.3,8.1-14.3,17.4c0,9,4.8,16.6,14.6,16.6&#xA;&#x9;&#x9;&#x9;C432.5,101.3,436.7,93.2,436.7,84.3z"></path>
&#x9;&#x9;<path d="M458.6,36.1h12.1v31c3.3-6.3,9.9-9.1,16.9-9.1c12.1,0,18.2,8.5,18.2,20v31.7h-12.2V79.2c0-7.3-3.8-11.3-10.8-11.3&#xA;&#x9;&#x9;&#x9;c-7.8,0-12.1,4.8-12.1,12v29.7h-12.1V36.1z"></path>
&#x9;&#x9;<path d="M541.9,58c15.4,0,27.2,10.8,27.2,26.3c0,15.9-12.4,26.4-27.7,26.4c-15.4,0-27.8-10.7-27.8-26.1&#xA;&#x9;&#x9;&#x9;C513.6,68.6,526.7,58,541.9,58z M556.1,84.3c0-9.3-4.7-17.1-14.7-17.1c-10.2,0-14.3,8.1-14.3,17.4c0,9,4.8,16.6,14.6,16.6&#xA;&#x9;&#x9;&#x9;C551.8,101.3,556.1,93.2,556.1,84.3z"></path>
&#x9;</g>
</g>
<g>
&#x9;<path class="st1" d="M136.9,293c-1.5,0-3-0.4-4.3-1.1L14.4,223.6c-2.6-1.5-4.3-4.3-4.3-7.4V79.8c0-3,1.6-5.9,4.3-7.4L132.6,4.1&#xA;&#x9;&#x9;c2.6-1.5,5.9-1.5,8.5,0l122.2,70.6c8.1,4.7,10.9,15.1,6.2,23.2c-1.5,2.6-3.6,4.7-6.2,6.2l-25.2,14.6l25.2,14.5&#xA;&#x9;&#x9;c8.1,4.7,10.9,15.1,6.2,23.2c-1.5,2.6-3.6,4.7-6.2,6.2l-25.1,14.5l25.2,14.6c8.1,4.7,10.9,15.1,6.2,23.2c-1.5,2.6-3.6,4.7-6.2,6.2&#xA;&#x9;&#x9;l-122.3,70.6C139.8,292.6,138.4,293,136.9,293z M27.2,211.3l109.7,63.3l118.1-68.2L221.2,187l-80.1,46.2c-2.6,1.5-5.9,1.5-8.5,0&#xA;&#x9;&#x9;l-84.3-48.7c-4.1-2.3-5.5-7.5-3.1-11.6c0.7-1.3,1.8-2.4,3.1-3.1L86.2,148l-37.9-21.9c-4.1-2.3-5.5-7.5-3.1-11.6&#xA;&#x9;&#x9;c0.7-1.3,1.8-2.4,3.1-3.1l84.3-48.7c2.6-1.5,5.9-1.5,8.5,0l80,46.2l33.7-19.5l-118-68.1L27.2,84.7V211.3z M69.6,177.2l67.3,38.9&#xA;&#x9;&#x9;l67.3-38.8l-33.7-19.4l-29.4,17c-2.6,1.5-5.9,1.5-8.5,0l-29.4-17L69.6,177.2z M255,206.5 M187.5,148l33.7,19.4l33.6-19.4l0,0&#xA;&#x9;&#x9;l-33.7-19.5L187.5,148z M107.9,140.8l29,16.8l29.3-16.9l0.3-0.1l37.7-21.8l-67.3-38.8l-67.3,38.9l37.5,21.6&#xA;&#x9;&#x9;C107.3,140.5,107.6,140.7,107.9,140.8z"></path>
</g>
</svg>