<svg width="176" height="50" viewBox="0 0 176 50" fill="none" xmlns="http://www.w3.org/2000/svg">
<path d="M65.3626 23.7821H70.2225L76.7243 43.1892H72.8448L71.402 38.7095H63.7881L62.3842 43.1892H58.8219L65.3642 23.7821H65.3626ZM70.5667 36.0169L67.6136 26.8176L64.6471 36.0169H70.5667Z" fill="black"/>
<path d="M79.0412 28.9915H82.4313V31.2449C83.3443 29.4949 85.2511 28.6858 87.2255 28.6858C90.6291 28.6858 92.1647 31.0845 92.1647 34.3057V43.1875H88.7222V34.6368C88.7222 32.6486 87.8346 31.4814 85.8215 31.4814C83.6902 31.4814 82.4313 32.8074 82.4313 34.848V43.1858H79.0412V28.9882V28.9915Z" fill="black"/>
<path d="M103.699 41.4527C102.625 42.8851 101.049 43.4544 99.3027 43.4544C96.6415 43.4544 94.5491 42.103 94.5491 39.3193C94.5491 35.3818 98.707 34.7584 102.004 34.7584H103.673V34.5338C103.673 32.5051 103.196 31.2196 100.906 31.2196C99.5288 31.2196 98.2581 31.9358 97.7536 33.2483L95.1177 32.1081C96.0712 29.603 98.7205 28.6875 101.248 28.6875C104.598 28.6875 107.035 30.3041 107.035 33.9105V43.1892H103.697V41.4527H103.699ZM101.964 36.8395C100.401 36.8395 97.9122 37.0253 97.9122 39.1723C97.9122 40.5372 98.9061 41.0422 100.177 41.0422C101.898 41.0422 103.673 40.1402 103.673 38.2179V36.8395H101.966H101.964Z" fill="black"/>
<path d="M110.543 23.2382L113.933 21.7669V43.1892H110.543V23.2382Z" fill="black"/>
<path d="M121.044 41.7432L115.482 28.9915H119.11L122.831 38.0591L126.301 28.9915H129.598L121.798 48.054H118.474L121.042 41.7449L121.044 41.7432Z" fill="black"/>
<path d="M139.279 43.0828C138.55 43.2956 137.796 43.4274 136.949 43.4274C134.247 43.4274 132.645 42.022 132.645 39.1993V31.4848H130.739V28.9932H132.645V26.0642L136.036 24.5929V28.9932H139.161V31.4848H136.036V38.8953C136.036 40.0084 136.513 40.6976 137.757 40.6976C138.234 40.6976 138.763 40.5912 139.279 40.4189V43.0828Z" fill="black"/>
<path d="M143.741 22.9865C144.839 22.9865 145.713 23.7956 145.713 24.9223C145.713 26.049 144.866 26.8446 143.754 26.8446C142.642 26.8446 141.727 26.022 141.727 24.9088C141.727 23.7956 142.642 22.9865 143.741 22.9865ZM142.033 29.0186H145.423V43.1892H142.033V29.0186Z" fill="black"/>
<path d="M161.896 39.1723C160.956 42.1419 158.307 43.4544 155.34 43.4544C150.838 43.4544 148.15 40.4324 148.15 36.0439C148.15 31.6554 151.155 28.6875 155.42 28.6875C158.293 28.6875 160.769 29.8936 161.815 32.6774L159.073 33.8834C158.504 32.2922 157.126 31.3784 155.418 31.3784C152.65 31.3784 151.631 33.777 151.631 36.2162C151.631 38.6554 152.73 40.8818 155.472 40.8818C157.419 40.8818 158.73 39.8074 159.313 38.0321L161.894 39.1723H161.896Z" fill="black"/>
<path d="M165.921 38.9595C166.451 40.3513 167.893 41.0135 169.431 41.0135C170.529 41.0135 171.894 40.6689 171.894 39.3294C171.894 37.9105 170.359 37.5794 168.611 37.2078C166.332 36.7297 163.778 36.174 163.778 32.9915C163.778 30.076 166.493 28.6841 169.061 28.6841C171.312 28.6841 173.882 29.5321 174.809 31.7736L172.293 32.8598C171.736 31.5997 170.345 31.1233 169.181 31.1233C168.017 31.1233 166.969 31.5743 166.969 32.728C166.969 34.027 168.359 34.3057 170.067 34.6368C172.384 35.0878 175.139 35.6182 175.139 38.9324C175.139 42.2466 172.345 43.4527 169.392 43.4527C166.889 43.4527 164.201 42.6047 163.314 40.0591L165.922 38.9595H165.921Z" fill="black"/>
<path d="M60.3491 17.6385L66.5877 8.61486H60.9802V6.83446H69.5239V7.72128L63.4371 16.7449H69.3484V18.5253H60.3508V17.6385H60.3491Z" fill="black"/>
<path d="M74.8512 9.79054C77.4432 9.79054 79.4378 11.6115 79.4378 14.2297C79.4378 16.848 77.3402 18.6858 74.7635 18.6858C72.1867 18.6858 70.0723 16.8818 70.0723 14.2703C70.0723 11.6588 72.2812 9.79054 74.8512 9.79054ZM77.2441 14.2466C77.2441 12.674 76.4459 11.3649 74.7719 11.3649C73.0979 11.3649 72.3622 12.7382 72.3622 14.3041C72.3622 15.8699 73.1671 17.1149 74.8192 17.1149C76.4712 17.1149 77.2441 15.7416 77.2441 14.2483V14.2466Z" fill="black"/>
<path d="M80.8333 6.10135H82.8751V11.3311C83.4253 10.2686 84.5508 9.79054 85.7304 9.79054C87.7722 9.79054 88.7931 11.228 88.7931 13.1757V18.5253H86.7344V13.375C86.7344 12.1453 86.0965 11.4747 84.9069 11.4747C83.5991 11.4747 82.8735 12.2804 82.8735 13.5034V18.5253H80.8316V6.10135H80.8333Z" fill="black"/>
<path d="M94.8022 9.79054C97.3942 9.79054 99.3887 11.6115 99.3887 14.2297C99.3887 16.848 97.2912 18.6858 94.7145 18.6858C92.1377 18.6858 90.0233 16.8818 90.0233 14.2703C90.0233 11.6588 92.2322 9.79054 94.8022 9.79054ZM97.195 14.2466C97.195 12.674 96.3969 11.3649 94.7229 11.3649C93.0489 11.3649 92.3132 12.7382 92.3132 14.3041C92.3132 15.8699 93.1181 17.1149 94.7701 17.1149C96.4222 17.1149 97.195 15.7416 97.195 14.2483V14.2466Z" fill="black"/>
<path d="M45.5516 46.7027H18.2433C16.6857 46.7027 15.2902 45.8953 14.5123 44.5439C13.7343 43.1926 13.7377 41.5794 14.519 40.2297L22.9125 25.7432C23.4322 24.8463 24.3604 24.3108 25.3948 24.3108C26.4292 24.3108 27.359 24.8463 27.877 25.7432L31.8831 32.6571L36.7262 24.3007L26.6351 6.88682C26.2604 6.24155 25.6428 6.1706 25.3931 6.1706C25.1433 6.1706 24.5257 6.23986 24.1511 6.88682L3.99931 41.6723C3.623 42.3209 3.87275 42.8936 3.99762 43.1098C4.1225 43.326 4.49205 43.8294 5.24129 43.8294H10.3712C11.1643 43.8294 11.8056 44.473 11.8056 45.2652C11.8056 46.0574 11.1626 46.701 10.3712 46.701H5.24129C3.68375 46.701 2.28821 45.8936 1.51029 44.5422C0.732363 43.1909 0.735738 41.5777 1.51704 40.228L21.6722 5.44594C22.4518 4.10135 23.844 3.29898 25.3965 3.29898C26.9489 3.29898 28.3411 4.10135 29.1207 5.44594L38.3883 21.4392L45.7069 8.81249C46.1051 8.12668 46.9826 7.89358 47.6677 8.29053C48.3528 8.68918 48.5874 9.56756 48.1892 10.2534L40.0454 24.3024L49.2759 40.2314C50.0572 41.5811 50.0606 43.1926 49.2826 44.5456C48.5047 45.897 47.1109 46.7044 45.5516 46.7044V46.7027ZM25.3965 27.1858L17.003 41.6723C16.6267 42.3209 16.8764 42.8936 17.0013 43.1098C17.1262 43.326 17.4957 43.8294 18.245 43.8294H45.5533C46.3026 43.8294 46.6721 43.326 46.797 43.1098C46.9219 42.8936 47.1699 42.3209 46.7953 41.6723L38.3883 27.1655L34.3688 34.1013C33.849 34.9983 32.9209 35.5321 31.8865 35.5321C30.8521 35.5321 29.924 34.9966 29.4042 34.0997L25.3981 27.1858H25.3965Z" fill="#F70011"/>
<path d="M48.4254 16.5338C47.7909 16.5338 47.2104 16.1081 47.04 15.4662L45.9313 11.2889L41.7582 12.3987C40.9921 12.603 40.2057 12.1453 40.0032 11.3784C39.799 10.6115 40.2564 9.82433 41.0225 9.62162L46.5827 8.14358C47.3488 7.93919 48.1352 8.39696 48.3377 9.16385L49.8142 14.7297C50.0184 15.4966 49.5611 16.2838 48.795 16.4865C48.6718 16.5186 48.5469 16.5355 48.4254 16.5355V16.5338Z" fill="#F70011"/>
</svg>
