<?xml version="1.0" encoding="utf-8"?>

<svg version="1.1" id="Layer_1" xmlns="http://www.w3.org/2000/svg" xmlns:xlink="http://www.w3.org/1999/xlink" x="0px" y="0px" viewBox="0 0 910 296" style="enable-background:new 0 0 910 296;" xml:space="preserve">

<g>
&#x9;<g>
&#x9;&#x9;<path d="M419.03,140.79h28.8l38.53,114.89h-22.99l-8.55-26.52h-45.12l-8.32,26.52h-21.11L419.03,140.79z M449.87,213.22&#xA;&#x9;&#x9;&#x9;l-17.5-54.46l-17.58,54.46H449.87z"></path>
&#x9;&#x9;<path d="M509.11,230.64c3.14,8.24,11.69,12.16,20.8,12.16c6.51,0,14.6-2.04,14.6-9.97c0-8.4-9.1-10.36-19.46-12.56&#xA;&#x9;&#x9;&#x9;c-13.5-2.83-28.64-6.12-28.64-24.96c0-17.26,16.09-25.5,31.31-25.5c13.34,0,28.56,5.02,34.06,18.29l-14.91,6.43&#xA;&#x9;&#x9;&#x9;c-3.3-7.46-11.54-10.28-18.44-10.28c-6.67,0-13.11,2.67-13.11,9.5c0,7.69,8.24,9.34,18.36,11.3c13.73,2.67,30.06,5.81,30.06,25.43&#xA;&#x9;&#x9;&#x9;c0,19.78-16.56,26.76-34.06,26.76c-14.83,0-30.76-5.02-36.02-20.09L509.11,230.64z"></path>
&#x9;&#x9;<path d="M588.6,230.64c3.14,8.24,11.69,12.16,20.8,12.16c6.51,0,14.6-2.04,14.6-9.97c0-8.4-9.1-10.36-19.46-12.56&#xA;&#x9;&#x9;&#x9;c-13.5-2.83-28.64-6.12-28.64-24.96c0-17.26,16.09-25.5,31.31-25.5c13.34,0,28.56,5.02,34.06,18.29l-14.91,6.43&#xA;&#x9;&#x9;&#x9;c-3.3-7.46-11.54-10.28-18.44-10.28c-6.67,0-13.11,2.67-13.11,9.5c0,7.69,8.24,9.34,18.36,11.3c13.73,2.67,30.06,5.81,30.06,25.43&#xA;&#x9;&#x9;&#x9;c0,19.78-16.56,26.76-34.06,26.76c-14.83,0-30.76-5.02-36.02-20.09L588.6,230.64z"></path>
&#x9;&#x9;<path d="M734.33,237.39c-6.98,14.83-22.05,19.85-37.51,19.85c-26.53,0-43.24-17.74-43.24-43.87c0-24.64,17.03-43.55,42.3-43.55&#xA;&#x9;&#x9;&#x9;c27.15,0,40.42,15.85,40.42,48.26h-62.23c0,14.2,8.24,24.56,23.54,24.56c9.1,0,16.64-3.69,21.03-12.24L734.33,237.39z&#xA;&#x9;&#x9;&#x9; M716.28,204.9c-0.63-12.71-8.32-20.48-20.17-20.48c-12.63,0-20.01,8.87-21.74,20.48H716.28z"></path>
&#x9;&#x9;<path d="M794.99,255.05c-4.32,1.26-8.79,2.04-13.81,2.04c-16.01,0-25.5-8.32-25.5-25.03v-45.67h-11.3v-14.75h11.3v-17.34&#xA;&#x9;&#x9;&#x9;l20.09-8.71v26.05h18.52v14.75h-18.52v43.87c0,6.59,2.83,10.67,10.2,10.67c2.83,0,5.96-0.63,9.03-1.65V255.05z"></path>
&#x9;&#x9;<path d="M820.57,230.64c3.14,8.24,11.69,12.16,20.8,12.16c6.51,0,14.6-2.04,14.6-9.97c0-8.4-9.1-10.36-19.46-12.56&#xA;&#x9;&#x9;&#x9;c-13.5-2.83-28.64-6.12-28.64-24.96c0-17.26,16.09-25.5,31.31-25.5c13.34,0,28.56,5.02,34.06,18.29l-14.91,6.43&#xA;&#x9;&#x9;&#x9;c-3.3-7.46-11.54-10.28-18.44-10.28c-6.67,0-13.11,2.67-13.11,9.5c0,7.69,8.24,9.34,18.36,11.3c13.73,2.67,30.06,5.81,30.06,25.43&#xA;&#x9;&#x9;&#x9;c0,19.78-16.56,26.76-34.06,26.76c-14.83,0-30.76-5.02-36.02-20.09L820.57,230.64z"></path>
&#x9;</g>
&#x9;<g>
&#x9;&#x9;<path d="M389.44,104.43l36.97-53.42h-33.23V40.47h50.63v5.25l-36.07,53.42h35.03v10.54h-53.32V104.43z"></path>
&#x9;&#x9;<path d="M475.48,57.96c15.36,0,27.18,10.78,27.18,26.28c0,15.93-12.43,26.38-27.7,26.38c-15.41,0-27.8-10.68-27.8-26.14&#xA;&#x9;&#x9;&#x9;C447.16,68.59,460.26,57.96,475.48,57.96z M489.66,84.33c0-9.31-4.73-17.06-14.65-17.06c-10.21,0-14.28,8.13-14.28,17.4&#xA;&#x9;&#x9;&#x9;c0,8.98,4.77,16.64,14.56,16.64C485.41,101.3,489.66,93.17,489.66,84.33z"></path>
&#x9;&#x9;<path d="M511.5,36.12h12.1v30.96c3.26-6.29,9.93-9.12,16.92-9.12c12.1,0,18.15,8.51,18.15,20.04v31.67h-12.2V79.18&#xA;&#x9;&#x9;&#x9;c0-7.28-3.78-11.25-10.83-11.25c-7.75,0-12.05,4.77-12.05,12.01v29.73h-12.1V36.12z"></path>
&#x9;&#x9;<path d="M594.84,57.96c15.36,0,27.18,10.78,27.18,26.28c0,15.93-12.43,26.38-27.7,26.38c-15.41,0-27.8-10.68-27.8-26.14&#xA;&#x9;&#x9;&#x9;C566.53,68.59,579.62,57.96,594.84,57.96z M609.02,84.33c0-9.31-4.73-17.06-14.65-17.06c-10.21,0-14.28,8.13-14.28,17.4&#xA;&#x9;&#x9;&#x9;c0,8.98,4.77,16.64,14.56,16.64C604.77,101.3,609.02,93.17,609.02,84.33z"></path>
&#x9;</g>
</g>
<path class="st1" d="M105.75,276.23c-9.39,0.01-17.02-7.61-17.02-17c0-2.99,0.78-5.93,2.28-8.52l74.1-128.46&#xA;&#x9;c3.01-5.29,8.64-8.54,14.72-8.51l0,0c6.09-0.04,11.72,3.2,14.75,8.48l79.29,136.99h31.12c1.57,0,2.84-1.27,2.84-2.84&#xA;&#x9;c0-0.5-0.13-0.99-0.38-1.42L182.29,38.2c-0.78-1.36-2.52-1.82-3.87-1.04c-0.43,0.25-0.79,0.61-1.04,1.04L52.22,254.97&#xA;&#x9;c-0.78,1.36-0.32,3.09,1.04,3.87c0.43,0.25,0.92,0.38,1.42,0.38h9.81c4.7,0,8.51,3.81,8.51,8.51c0,4.7-3.81,8.51-8.51,8.51l0,0&#xA;&#x9;h-9.81c-10.96,0-19.85-8.88-19.85-19.84c0-3.48,0.92-6.91,2.66-9.93L162.64,29.69c3.51-6.17,10.09-9.96,17.19-9.92l0,0&#xA;&#x9;c7.1-0.04,13.67,3.75,17.19,9.92l125.15,216.77c5.48,9.49,2.23,21.63-7.26,27.11c-3.02,1.74-6.44,2.66-9.92,2.66h-31.12&#xA;&#x9;c-6.07-0.01-11.67-3.24-14.72-8.49l-79.31-136.99l-74.08,128.46h36.7l25.41-44c2.51-4.41,7.2-7.12,12.28-7.09l0,0&#xA;&#x9;c5.07-0.03,9.77,2.68,12.28,7.09l25.35,43.98h14.31c4.7,0,8.51,3.81,8.51,8.51s-3.81,8.51-8.51,8.51h-15.95&#xA;&#x9;c-5.06-0.01-9.74-2.71-12.28-7.09l-23.71-41.14l-23.77,41.17c-2.54,4.38-7.21,7.08-12.28,7.09L105.75,276.23z"></path>
</svg>