<svg width="139" height="50" viewBox="0 0 139 50" fill="none" xmlns="http://www.w3.org/2000/svg">
<path d="M67.0802 23.7838H71.9503L78.4657 43.1892H74.5781L73.1323 38.7095H65.5025L64.0956 43.1892H60.5259L67.0802 23.7838ZM72.2952 36.0186L69.336 26.8193L66.3632 36.0186H72.2952Z" fill="black"/>
<path d="M82.3144 38.9611C82.448 39.3057 82.6323 39.6081 82.8724 39.8699C83.1108 40.13 83.3848 40.3446 83.6959 40.5135C84.0054 40.6807 84.3436 40.8074 84.7105 40.8919C85.0775 40.9763 85.4512 41.0186 85.8317 41.0186C86.1056 41.0186 86.388 40.9949 86.6805 40.9459C86.9731 40.8969 87.2386 40.8091 87.477 40.6807C87.7154 40.5523 87.9133 40.38 88.0672 40.1638C88.2227 39.9476 88.2988 39.6706 88.2988 39.3361C88.2988 38.9831 88.2109 38.6909 88.0333 38.4611C87.8558 38.2314 87.6157 38.0388 87.3096 37.8851C87.0052 37.7297 86.6552 37.603 86.2612 37.5C85.8672 37.3986 85.4495 37.304 85.0065 37.2145C84.44 37.0912 83.8667 36.951 83.2884 36.7973C82.7084 36.6419 82.1893 36.4172 81.7293 36.1216C81.2693 35.826 80.8939 35.4307 80.6014 34.9358C80.3089 34.4409 80.1634 33.7956 80.1634 33C80.1634 32.2669 80.3173 31.63 80.6285 31.0912C80.9379 30.5523 81.3421 30.1064 81.8426 29.7517C82.3431 29.3986 82.9079 29.1334 83.5404 28.9561C84.1728 28.7787 84.812 28.6909 85.4579 28.6909C86.0244 28.6909 86.5994 28.7466 87.1828 28.8564C87.7662 28.9662 88.3174 29.1452 88.8349 29.3936C89.3523 29.6402 89.8207 29.9611 90.2418 30.3547C90.6611 30.7483 90.9875 31.223 91.2175 31.7804L88.6962 32.8665C88.5542 32.549 88.3681 32.2821 88.1382 32.0642C87.9082 31.848 87.6512 31.6689 87.3688 31.527C87.0864 31.3851 86.7888 31.2838 86.4793 31.2229C86.1699 31.1604 85.8689 31.13 85.5763 31.13C85.2939 31.13 85.0183 31.1588 84.7528 31.2162C84.4873 31.2736 84.2506 31.3665 84.0426 31.4949C83.8346 31.6233 83.6689 31.7888 83.5454 31.9915C83.422 32.1942 83.3594 32.4425 83.3594 32.7331C83.3594 33.0608 83.4406 33.3277 83.6046 33.5355C83.7686 33.7432 83.9902 33.9155 84.2675 34.0523C84.5465 34.1892 84.8762 34.3023 85.2567 34.3902C85.6372 34.478 86.0397 34.5625 86.4641 34.6419C87.0475 34.7567 87.641 34.8885 88.2413 35.0388C88.8433 35.1892 89.3895 35.4138 89.8799 35.7145C90.3703 36.0152 90.7711 36.4189 91.0805 36.9273C91.39 37.4358 91.5455 38.1047 91.5455 38.9358C91.5455 39.7669 91.3832 40.4713 91.0619 41.0507C90.7389 41.63 90.3094 42.0963 89.7751 42.4493C89.239 42.8023 88.6269 43.0591 87.937 43.2179C87.247 43.3767 86.53 43.4561 85.7877 43.4561C85.1603 43.4561 84.5313 43.3986 83.9039 43.2838C83.2766 43.1689 82.6881 42.9797 82.1385 42.7145C81.5906 42.4493 81.1019 42.0996 80.6724 41.6672C80.2429 41.2348 79.9182 40.6993 79.6967 40.0625L82.3144 38.9611Z" fill="black"/>
<path d="M95.7561 38.9611C95.8897 39.3057 96.074 39.6081 96.3142 39.8699C96.5526 40.13 96.8265 40.3446 97.1377 40.5135C97.4471 40.6807 97.7853 40.8074 98.1523 40.8919C98.5192 40.9763 98.8929 41.0186 99.2734 41.0186C99.5473 41.0186 99.8297 40.9949 100.122 40.9459C100.415 40.8969 100.68 40.8091 100.919 40.6807C101.157 40.5523 101.355 40.38 101.509 40.1638C101.664 39.9476 101.741 39.6706 101.741 39.3361C101.741 38.9831 101.653 38.6909 101.475 38.4611C101.298 38.2314 101.057 38.0388 100.751 37.8851C100.447 37.7297 100.097 37.603 99.7029 37.5C99.3089 37.3986 98.8912 37.304 98.4482 37.2145C97.8817 37.0912 97.3085 36.951 96.7301 36.7973C96.1501 36.6419 95.631 36.4172 95.171 36.1216C94.7111 35.826 94.3357 35.4307 94.0431 34.9358C93.7506 34.4409 93.6052 33.7956 93.6052 33C93.6052 32.2669 93.7591 31.63 94.0702 31.0912C94.3797 30.5523 94.7838 30.1064 95.2843 29.7517C95.7849 29.3986 96.3497 29.1334 96.9821 28.9561C97.6145 28.7787 98.2537 28.6909 98.8997 28.6909C99.4662 28.6909 100.041 28.7466 100.625 28.8564C101.208 28.9662 101.759 29.1452 102.277 29.3936C102.794 29.6402 103.262 29.9611 103.684 30.3547C104.103 30.7483 104.429 31.223 104.659 31.7804L102.138 32.8665C101.996 32.549 101.81 32.2821 101.58 32.0642C101.35 31.848 101.093 31.6689 100.811 31.527C100.528 31.3851 100.231 31.2838 99.9211 31.2229C99.6116 31.1604 99.3106 31.13 99.0181 31.13C98.7357 31.13 98.46 31.1588 98.1945 31.2162C97.9291 31.2736 97.6923 31.3665 97.4843 31.4949C97.2763 31.6233 97.1106 31.7888 96.9872 31.9915C96.8637 32.1942 96.8012 32.4425 96.8012 32.7331C96.8012 33.0608 96.8823 33.3277 97.0464 33.5355C97.2104 33.7432 97.4319 33.9155 97.7092 34.0523C97.9882 34.1892 98.318 34.3023 98.6985 34.3902C99.0789 34.478 99.4814 34.5625 99.9058 34.6419C100.489 34.7567 101.083 34.8885 101.683 35.0388C102.285 35.1892 102.831 35.4138 103.322 35.7145C103.812 36.0152 104.213 36.4189 104.522 36.9273C104.832 37.4358 104.987 38.1047 104.987 38.9358C104.987 39.7669 104.825 40.4713 104.504 41.0507C104.181 41.63 103.751 42.0963 103.217 42.4493C102.681 42.8023 102.069 43.0591 101.379 43.2179C100.689 43.3767 99.9718 43.4561 99.2294 43.4561C98.6021 43.4561 97.973 43.3986 97.3457 43.2838C96.7183 43.1689 96.1298 42.9797 95.5803 42.7145C95.0324 42.4493 94.5437 42.0996 94.1142 41.6672C93.6847 41.2348 93.36 40.6993 93.1385 40.0625L95.7561 38.9611Z" fill="black"/>
<path d="M107.487 24.9105C107.487 24.6284 107.539 24.3699 107.646 24.1351C107.752 23.9003 107.897 23.6976 108.083 23.5253C108.269 23.353 108.484 23.2213 108.728 23.1284C108.971 23.0355 109.23 22.9899 109.504 22.9899C109.778 22.9899 110.035 23.0389 110.273 23.1351C110.512 23.2331 110.721 23.3666 110.904 23.5389C111.085 23.7112 111.227 23.9139 111.329 24.1487C111.43 24.3834 111.481 24.6419 111.481 24.924C111.481 25.1976 111.43 25.4544 111.329 25.6926C111.227 25.9307 111.09 26.1351 110.918 26.3024C110.745 26.4713 110.539 26.603 110.3 26.6993C110.062 26.7973 109.8 26.8446 109.517 26.8446C109.244 26.8446 108.981 26.7956 108.735 26.6993C108.488 26.6014 108.269 26.4679 108.083 26.2956C107.897 26.1233 107.752 25.9172 107.646 25.6791C107.539 25.4392 107.487 25.1841 107.487 24.9105ZM107.791 29.0186H111.188V43.1892H107.791V29.0186Z" fill="black"/>
<path d="M116.537 38.9611C116.67 39.3057 116.855 39.6081 117.095 39.8699C117.333 40.13 117.607 40.3446 117.918 40.5135C118.228 40.6807 118.566 40.8074 118.933 40.8919C119.3 40.9763 119.674 41.0186 120.054 41.0186C120.328 41.0186 120.61 40.9949 120.903 40.9459C121.195 40.8969 121.461 40.8091 121.699 40.6807C121.938 40.5523 122.136 40.38 122.29 40.1638C122.445 39.9476 122.521 39.6706 122.521 39.3361C122.521 38.9831 122.433 38.6909 122.256 38.4611C122.078 38.2314 121.838 38.0388 121.532 37.8851C121.228 37.7297 120.878 37.603 120.484 37.5C120.09 37.3986 119.672 37.304 119.229 37.2145C118.662 37.0912 118.089 36.951 117.511 36.7973C116.931 36.6419 116.412 36.4172 115.952 36.1216C115.492 35.826 115.116 35.4307 114.824 34.9358C114.531 34.4409 114.386 33.7956 114.386 33C114.386 32.2669 114.54 31.63 114.851 31.0912C115.16 30.5523 115.564 30.1064 116.065 29.7517C116.566 29.3986 117.13 29.1334 117.763 28.9561C118.395 28.7787 119.034 28.6909 119.68 28.6909C120.247 28.6909 120.822 28.7466 121.405 28.8564C121.989 28.9662 122.54 29.1452 123.057 29.3936C123.575 29.6402 124.043 29.9611 124.464 30.3547C124.884 30.7483 125.21 31.223 125.44 31.7804L122.919 32.8665C122.777 32.549 122.591 32.2821 122.361 32.0642C122.131 31.848 121.874 31.6689 121.591 31.527C121.309 31.3851 121.011 31.2838 120.702 31.2229C120.392 31.1604 120.091 31.13 119.799 31.13C119.516 31.13 119.241 31.1588 118.975 31.2162C118.71 31.2736 118.473 31.3665 118.265 31.4949C118.057 31.6233 117.891 31.7888 117.768 31.9915C117.644 32.1942 117.582 32.4425 117.582 32.7331C117.582 33.0608 117.663 33.3277 117.827 33.5355C117.991 33.7432 118.213 33.9155 118.49 34.0523C118.769 34.1892 119.099 34.3023 119.479 34.3902C119.86 34.478 120.262 34.5625 120.687 34.6419C121.27 34.7567 121.863 34.8885 122.464 35.0388C123.066 35.1892 123.612 35.4138 124.102 35.7145C124.593 36.0152 124.993 36.4189 125.303 36.9273C125.612 37.4358 125.768 38.1047 125.768 38.9358C125.768 39.7669 125.606 40.4713 125.284 41.0507C124.961 41.63 124.532 42.0963 123.997 42.4493C123.461 42.8023 122.849 43.0591 122.159 43.2179C121.469 43.3767 120.752 43.4561 120.01 43.4561C119.383 43.4561 118.754 43.3986 118.126 43.2838C117.499 43.1689 116.911 42.9797 116.361 42.7145C115.813 42.4493 115.324 42.0996 114.895 41.6672C114.465 41.2348 114.141 40.6993 113.919 40.0625L116.537 38.9611Z" fill="black"/>
<path d="M135.67 43.0828C135.298 43.1892 134.923 43.272 134.543 43.3345C134.162 43.397 133.76 43.4274 133.335 43.4274C131.982 43.4274 130.924 43.076 130.165 42.3733C129.404 41.6706 129.023 40.6132 129.023 39.1993V31.4848H127.112V28.9932H129.023V26.0642L132.42 24.5929V28.9932H135.552V31.4848H132.42V38.8953C132.42 39.4527 132.551 39.8919 132.811 40.2145C133.071 40.5372 133.516 40.6976 134.145 40.6976C134.384 40.6976 134.634 40.674 134.894 40.625C135.155 40.576 135.413 40.5084 135.67 40.4189V43.0828Z" fill="black"/>
<path d="M62.0782 17.6402L68.3298 8.61659H62.7107V6.83618H71.2722V7.72301L65.1711 16.745H71.0946V18.5254H62.0782V17.6402Z" fill="black"/>
<path d="M71.8387 14.2703C71.8387 13.5997 71.9672 12.9882 72.2259 12.4375C72.4846 11.8869 72.8313 11.4156 73.2692 11.0237C73.7055 10.6318 74.2128 10.3294 74.7911 10.1132C75.3695 9.89701 75.9816 9.79059 76.6259 9.79059C77.2752 9.79059 77.8806 9.8987 78.4403 10.1132C79 10.3294 79.4853 10.6318 79.8996 11.0237C80.3139 11.4156 80.6369 11.8835 80.8703 12.4291C81.1053 12.9747 81.222 13.5744 81.222 14.2298C81.222 14.9004 81.0986 15.5102 80.8551 16.0592C80.6099 16.6082 80.275 17.0761 79.8523 17.4646C79.4279 17.8531 78.9324 18.1538 78.3608 18.3666C77.791 18.5794 77.1822 18.6859 76.5379 18.6859C75.8886 18.6859 75.2765 18.5778 74.7032 18.3632C74.13 18.147 73.6328 17.8463 73.2084 17.4561C72.7839 17.0676 72.4508 16.6031 72.2056 16.0625C71.9604 15.522 71.8387 14.924 71.8387 14.2703ZM76.5937 17.1115C77.0199 17.1115 77.3868 17.0321 77.6929 16.8717C77.999 16.7112 78.2509 16.5 78.4488 16.2365C78.6466 15.973 78.792 15.669 78.885 15.3227C78.978 14.9764 79.0254 14.6166 79.0254 14.245C79.0254 13.8514 78.9747 13.4798 78.8732 13.1318C78.7717 12.7838 78.6179 12.4764 78.4133 12.2129C78.2086 11.9494 77.9516 11.7416 77.6422 11.5896C77.3327 11.4375 76.9675 11.3615 76.5464 11.3615C76.1152 11.3615 75.7449 11.4409 75.4388 11.6014C75.1327 11.7619 74.8825 11.9747 74.6914 12.245C74.5003 12.5136 74.3582 12.8261 74.2686 13.1791C74.1773 13.5338 74.1333 13.9071 74.1333 14.3007C74.1333 14.6791 74.1841 15.0389 74.2855 15.3784C74.387 15.718 74.5392 16.0169 74.7455 16.272C74.9501 16.5271 75.2071 16.7315 75.5132 16.8835C75.8176 17.0372 76.1794 17.1115 76.5937 17.1115Z" fill="black"/>
<path d="M82.7169 6.10138H84.763V11.3311C84.9016 11.0642 85.0724 10.8345 85.2787 10.6402C85.4833 10.446 85.7099 10.2855 85.9585 10.1605C86.2054 10.0355 86.4726 9.9426 86.7583 9.88179C87.0441 9.82097 87.3333 9.79057 87.6258 9.79057C88.1382 9.79057 88.5846 9.87503 88.9685 10.0456C89.3523 10.2162 89.6719 10.451 89.9273 10.7517C90.1826 11.0524 90.3754 11.4088 90.5022 11.821C90.6307 12.2331 90.6933 12.6841 90.6933 13.174V18.5237H88.6303V13.375C88.6303 12.7568 88.4747 12.2855 88.1619 11.9612C87.849 11.6369 87.3958 11.4747 86.7989 11.4747C86.1377 11.4747 85.6338 11.6588 85.2838 12.0304C84.9337 12.4021 84.7596 12.8919 84.7596 13.5034V18.5254H82.7135V6.10138H82.7169Z" fill="black"/>
<path d="M92.0224 14.2703C92.0224 13.5997 92.1509 12.9882 92.4096 12.4375C92.6684 11.8869 93.015 11.4156 93.453 11.0237C93.8893 10.6318 94.3966 10.3294 94.9749 10.1132C95.5532 9.89701 96.1653 9.79059 96.8096 9.79059C97.459 9.79059 98.0643 9.8987 98.6241 10.1132C99.1838 10.3294 99.6691 10.6318 100.083 11.0237C100.498 11.4156 100.821 11.8835 101.054 12.4291C101.289 12.9747 101.406 13.5744 101.406 14.2298C101.406 14.9004 101.282 15.5102 101.039 16.0592C100.794 16.6082 100.459 17.0761 100.036 17.4646C99.6116 17.8531 99.1161 18.1538 98.5446 18.3666C97.9747 18.5794 97.3659 18.6859 96.7217 18.6859C96.0723 18.6859 95.4602 18.5778 94.887 18.3632C94.3137 18.147 93.8165 17.8463 93.3921 17.4561C92.9677 17.0676 92.6345 16.6031 92.3893 16.0625C92.1441 15.522 92.0224 14.924 92.0224 14.2703ZM96.7792 17.1115C97.2053 17.1115 97.5723 17.0321 97.8783 16.8717C98.1844 16.7112 98.4363 16.5 98.6342 16.2365C98.832 15.973 98.9775 15.669 99.0705 15.3227C99.1635 14.9764 99.2108 14.6166 99.2108 14.245C99.2108 13.8514 99.1601 13.4798 99.0586 13.1318C98.9572 12.7838 98.8033 12.4764 98.5987 12.2129C98.3941 11.9494 98.137 11.7416 97.8276 11.5896C97.5181 11.4375 97.1529 11.3615 96.7318 11.3615C96.3006 11.3615 95.9303 11.4409 95.6242 11.6014C95.3182 11.7619 95.0679 11.9747 94.8768 12.245C94.6857 12.5136 94.5437 12.8261 94.4541 13.1791C94.3627 13.5338 94.3188 13.9071 94.3188 14.3007C94.3188 14.6791 94.3695 15.0389 94.471 15.3784C94.5724 15.718 94.7246 16.0169 94.9309 16.272C95.1355 16.5271 95.3926 16.7315 95.6986 16.8835C96.0013 17.0372 96.3632 17.1115 96.7792 17.1115Z" fill="black"/>
<path d="M19.3991 49.4933C18.0007 49.4966 16.6597 48.9426 15.6739 47.9527L3.6813 35.973C1.62335 33.9172 1.62335 30.5862 3.6813 28.5304L15.6739 16.5507C17.7318 14.4983 21.0648 14.4983 23.1244 16.5507L27.6309 21.0524C28.1923 21.6132 28.1923 22.522 27.6309 23.0828C27.0695 23.6436 26.1597 23.6436 25.5983 23.0828L21.0918 18.5811C20.1567 17.647 18.6399 17.647 17.7047 18.5811L5.71219 30.5608C4.77706 31.4949 4.77706 33.0101 5.71219 33.9443L17.7047 45.924C18.6399 46.8581 20.1567 46.8581 21.0918 45.924L25.5983 41.4223C26.1631 40.8666 27.0729 40.8733 27.6292 41.4392C28.1788 41.9983 28.1788 42.8936 27.6292 43.4527L23.1227 47.9544C22.1385 48.9426 20.7959 49.4966 19.3991 49.4933Z" fill="#226DB4"/>
<path d="M33.9163 49.4933C32.5179 49.4967 31.1769 48.9426 30.1911 47.9527L18.1985 35.973C16.1406 33.9173 16.1406 30.5862 18.1985 28.5304L30.1911 16.5507C32.249 14.495 35.5837 14.495 37.6416 16.5507L49.6342 28.5304C51.6921 30.5862 51.6921 33.9173 49.6342 35.973L37.6416 47.9527C36.6557 48.9426 35.3148 49.4967 33.9163 49.4933ZM33.9163 17.8801C33.2805 17.8784 32.6718 18.1301 32.2236 18.5811L20.2311 30.5609C19.296 31.495 19.296 33.0102 20.2311 33.9443L32.2236 45.924C33.1588 46.8581 34.6756 46.8581 35.6107 45.924L47.6033 33.9443C48.5384 33.0102 48.5384 31.495 47.6033 30.5609L35.6107 18.5811C35.1609 18.1301 34.5521 17.8767 33.9163 17.8801Z" fill="#089949"/>
<path d="M26.6569 13.1031C23.1802 13.1031 20.3528 10.277 20.3528 6.80576C20.3528 3.33448 23.1819 0.506775 26.6569 0.506775C30.1336 0.506775 32.9609 3.33279 32.9609 6.80407C32.9609 10.2754 30.1336 13.1031 26.6569 13.1031ZM26.6569 3.37671C24.7613 3.37671 23.2258 4.91049 23.2258 6.80407C23.2258 8.69765 24.7613 10.2314 26.6569 10.2314C28.5525 10.2314 30.0879 8.69765 30.0879 6.80407C30.0862 4.91218 28.5525 3.3784 26.6569 3.37671Z" fill="#089949"/>
</svg>
