<?xml version="1.0" encoding="utf-8"?>

<svg version="1.1" id="Layer_1" xmlns="http://www.w3.org/2000/svg" xmlns:xlink="http://www.w3.org/1999/xlink" x="0px" y="0px" viewBox="0 0 1266 296" style="enable-background:new 0 0 1266 296;" xml:space="preserve">

<g>
&#x9;<g>
&#x9;&#x9;<path d="M379.2,140.8H408l38.5,114.9h-23l-8.6-26.5h-45.1l-8.3,26.5h-21.1L379.2,140.8z M410,213.2l-17.5-54.5l-17.6,54.5H410z"></path>
&#x9;&#x9;<path d="M515.6,242.5c-5.3,10.2-16.1,14.8-27.7,14.8c-19.3,0-29.5-12.7-29.5-31.8v-53.8h20.1V223c0,11.5,5.3,18.5,17,18.5&#xA;&#x9;&#x9;&#x9;c12.6,0,20.2-8.1,20.2-20.1v-49.8h20v84h-20V242.5z"></path>
&#x9;&#x9;<path d="M600.2,255.1c-4.3,1.3-8.8,2-13.8,2c-16,0-25.5-8.3-25.5-25v-45.7h-11.3v-14.8h11.3v-17.3l20.1-8.7v26.1h18.5v14.8h-18.5&#xA;&#x9;&#x9;&#x9;v43.9c0,6.6,2.8,10.7,10.2,10.7c2.8,0,6-0.6,9-1.6V255.1z"></path>
&#x9;&#x9;<path d="M654.1,169.8c25.5,0,45.1,17.9,45.1,43.6c0,26.4-20.6,43.8-46,43.8c-25.6,0-46.1-17.7-46.1-43.4&#xA;&#x9;&#x9;&#x9;C607.1,187.5,628.8,169.8,654.1,169.8z M677.6,213.6c0-15.5-7.8-28.3-24.3-28.3c-17,0-23.7,13.5-23.7,28.9&#xA;&#x9;&#x9;&#x9;c0,14.9,7.9,27.6,24.2,27.6C670.5,241.8,677.6,228.3,677.6,213.6z"></path>
&#x9;&#x9;<path d="M769.4,195.9h49V237c-13.5,13.8-32,20.2-51.1,20.2c-36.6,0-58.5-23.5-58.5-59.6c0-34.1,24.2-58.5,58.7-58.5&#xA;&#x9;&#x9;&#x9;c23,0,41.1,10.7,49.5,29.4l-18.4,8c-5.8-13.2-16.6-20.1-31-20.1c-24.7,0-35.5,20.7-35.5,43.2c0,22.4,10.8,40.6,35.9,40.6&#xA;&#x9;&#x9;&#x9;c10.8,0,21.8-3.3,30.2-10.4v-17.5h-28.7V195.9z"></path>
&#x9;&#x9;<path d="M883.6,245.4c-6.4,8.5-15.7,11.8-26.1,11.8c-15.8,0-28.2-8-28.2-24.5c0-23.3,24.6-27,44.2-27h9.9v-1.3&#xA;&#x9;&#x9;&#x9;c0-12-2.8-19.6-16.4-19.6c-8.2,0-15.7,4.2-18.7,12l-15.6-6.7c5.6-14.8,21.3-20.2,36.3-20.2c19.9,0,34.3,9.6,34.3,30.9v54.9h-19.8&#xA;&#x9;&#x9;&#x9;V245.4z M873.3,218.1c-9.3,0-24,1.1-24,13.8c0,8.1,5.9,11.1,13.4,11.1c10.2,0,20.7-5.3,20.7-16.7v-8.2H873.3z"></path>
&#x9;&#x9;<path d="M924.6,171.6h20.1v15.8c5.7-11.5,14.8-17,27.6-17V189c-16.2,0-27.6,5.3-27.6,23.3v43.4h-20.1V171.6z"></path>
&#x9;&#x9;<path d="M1032.8,245.4c-6.4,8.5-15.7,11.8-26.1,11.8c-15.8,0-28.2-8-28.2-24.5c0-23.3,24.6-27,44.2-27h9.9v-1.3&#xA;&#x9;&#x9;&#x9;c0-12-2.8-19.6-16.4-19.6c-8.2,0-15.7,4.2-18.7,12l-15.6-6.7c5.6-14.8,21.3-20.2,36.3-20.2c19.9,0,34.3,9.6,34.3,30.9v54.9h-19.8&#xA;&#x9;&#x9;&#x9;V245.4z M1022.6,218.1c-9.3,0-24,1.1-24,13.8c0,8.1,5.9,11.1,13.4,11.1c10.2,0,20.7-5.3,20.7-16.7v-8.2H1022.6z"></path>
&#x9;&#x9;<path d="M1086.8,259.4c4.2,9.3,13.9,12.1,23.2,12.1c14.9,0,23.9-7.1,23.9-22.4v-12.6c-5.7,9.7-17,15.8-28.2,15.8&#xA;&#x9;&#x9;&#x9;c-23.8,0-37.6-18.7-37.6-40.6c0-22.6,14.8-41.9,38.1-41.9c11.4,0,21.8,4.6,27.7,14.7v-12.9h20.2v77.8c0,26.4-19.8,37.1-44.1,37.1&#xA;&#x9;&#x9;&#x9;c-15.6,0-32.3-4.4-39.1-20.2L1086.8,259.4z M1134.7,210.6c0-14.4-7.8-25.3-23-25.3c-16.1,0-22.9,12.2-22.9,26.8&#xA;&#x9;&#x9;&#x9;c0,13.1,8.2,24.7,22.2,24.7C1126.7,236.8,1134.7,225.2,1134.7,210.6z"></path>
&#x9;&#x9;<path d="M1251.2,237.4c-7,14.8-22.1,19.9-37.5,19.9c-26.5,0-43.2-17.7-43.2-43.9c0-24.6,17-43.6,42.3-43.6&#xA;&#x9;&#x9;&#x9;c27.2,0,40.4,15.9,40.4,48.3H1191c0,14.2,8.2,24.6,23.5,24.6c9.1,0,16.6-3.7,21-12.2L1251.2,237.4z M1233.2,204.9&#xA;&#x9;&#x9;&#x9;c-0.6-12.7-8.3-20.5-20.2-20.5c-12.6,0-20,8.9-21.7,20.5H1233.2z"></path>
&#x9;</g>
&#x9;<g>
&#x9;&#x9;<path d="M349.6,104.4l37-53.4h-33.2V40.5H404v5.2l-36.1,53.4h35v10.5h-53.3V104.4z"></path>
&#x9;&#x9;<path d="M435.6,58c15.4,0,27.2,10.8,27.2,26.3c0,15.9-12.4,26.4-27.7,26.4c-15.4,0-27.8-10.7-27.8-26.1&#xA;&#x9;&#x9;&#x9;C407.3,68.6,420.4,58,435.6,58z M449.8,84.3c0-9.3-4.7-17.1-14.7-17.1c-10.2,0-14.3,8.1-14.3,17.4c0,9,4.8,16.6,14.6,16.6&#xA;&#x9;&#x9;&#x9;C445.6,101.3,449.8,93.2,449.8,84.3z"></path>
&#x9;&#x9;<path d="M471.6,36.1h12.1v31c3.3-6.3,9.9-9.1,16.9-9.1c12.1,0,18.2,8.5,18.2,20v31.7h-12.2V79.2c0-7.3-3.8-11.3-10.8-11.3&#xA;&#x9;&#x9;&#x9;c-7.8,0-12.1,4.8-12.1,12v29.7h-12.1V36.1z"></path>
&#x9;&#x9;<path d="M555,58c15.4,0,27.2,10.8,27.2,26.3c0,15.9-12.4,26.4-27.7,26.4c-15.4,0-27.8-10.7-27.8-26.1C526.7,68.6,539.8,58,555,58z&#xA;&#x9;&#x9;&#x9; M569.2,84.3c0-9.3-4.7-17.1-14.7-17.1c-10.2,0-14.3,8.1-14.3,17.4c0,9,4.8,16.6,14.6,16.6C564.9,101.3,569.2,93.2,569.2,84.3z"></path>
&#x9;</g>
</g>
<g>
&#x9;<path class="st1" d="M259.4,293h-24.9c-6.1,0-12-2.2-16.6-6.1c-4.6-4-7.7-9.4-8.7-15.4l-2.8-17.1H91.9l-2.8,17.1&#xA;&#x9;&#x9;c-1,6-4,11.5-8.7,15.4c-4.6,4-10.5,6.1-16.6,6.1H38.9c-7.5,0-14.6-3.3-19.5-9s-7-13.2-5.8-20.6l10.9-67.6h-2c-3.8,0-7.5-1.7-10-4.6&#xA;&#x9;&#x9;c-2.5-2.9-3.6-6.8-3-10.5l5.2-32.2c1-6.4,6.5-11,12.9-11h6.2L52.1,24.6c1-6,4-11.5,8.7-15.4C65.3,5.2,71.2,3,77.3,3h158.3&#xA;&#x9;&#x9;c4.7,0,8.5,3.8,8.5,8.5s-3.8,8.5-8.5,8.5H77.3c-4.2,0-7.8,3-8.4,7.2l-19.2,120c-0.7,4.1-4.2,7.2-8.4,7.2H31.1l-3.9,24.3h7.3&#xA;&#x9;&#x9;c2.5,0,4.9,1.1,6.5,3c1.6,1.9,2.3,4.4,1.9,6.9L30.6,266c-0.4,2.5,0.3,4.9,1.9,6.9s4,3,6.5,3h24.9c4.2,0,7.8-3,8.4-7.2l3.3-20.5&#xA;&#x9;&#x9;c1-6.4,6.5-11,12.9-11h121.4c6.5,0,11.9,4.6,12.9,11l3.3,20.5c0.7,4.2,4.2,7.2,8.4,7.2h24.9c2.5,0,4.8-1.1,6.5-3s2.3-4.4,1.9-6.9&#xA;&#x9;&#x9;l-12.4-77.5c-0.4-2.5,0.3-5,1.9-6.9c1.6-1.9,4-3,6.5-3h7.3l-3.9-24.3h-10.1c-4.2,0-7.8-3-8.4-7.2l-11-68.6H120L104,178.7h90.4&#xA;&#x9;&#x9;l-6.7-41.5h-38.4c-4.7,0-8.5-3.8-8.5-8.5c0-4.7,3.8-8.5,8.5-8.5H191c6.5,0,11.9,4.6,12.9,11l8,49.5c0.6,3.8-0.5,7.6-3,10.6&#xA;&#x9;&#x9;c-2.5,2.9-6.1,4.6-10,4.6H99.3c-3.8,0-7.5-1.7-10-4.6c-2.5-2.9-3.6-6.8-3-10.5l17.3-108c1-6.4,6.5-11,12.9-11h124.5&#xA;&#x9;&#x9;c6.5,0,11.9,4.6,12.9,11l10.4,64.8h6.2c6.5,0,11.9,4.6,12.9,11l5.2,32.2c0.6,3.8-0.5,7.6-3,10.5c-2.5,2.9-6.1,4.6-10,4.6h-2&#xA;&#x9;&#x9;l10.8,67.6c1.2,7.4-0.9,14.9-5.8,20.6C274,289.7,266.9,293,259.4,293z M191,137.2L191,137.2L191,137.2z"></path>
</g>
</svg>