<svg width="145" height="50" viewBox="0 0 145 50" fill="none" xmlns="http://www.w3.org/2000/svg">
<path d="M64.4357 23.7821H72.0701C75.6024 23.7821 78.5142 24.9088 78.5142 28.9392C78.5142 31.0473 77.4283 32.4781 75.3916 33.0625C78.0252 33.5929 79.3218 35.0507 79.3218 37.7416C79.3218 41.8767 76.2262 43.1892 72.5877 43.1892H64.4374V23.7821H64.4357ZM71.6064 31.9206C73.7106 31.9206 74.901 31.2973 74.901 29.0169C74.901 26.8953 73.3919 26.4189 71.5542 26.4189H68.0994V31.9206H71.6064ZM72.1224 40.5507C74.2653 40.5507 75.6293 39.7162 75.6293 37.4882C75.6293 35.022 73.9483 34.4122 71.8711 34.4122H68.0994V40.549H72.1224V40.5507Z" fill="black"/>
<path d="M88.6473 28.6875C92.9467 28.6875 96.2547 31.7095 96.2547 36.0574C96.2547 40.5253 92.7747 43.4544 88.5006 43.4544C84.1877 43.4544 80.7212 40.4578 80.7212 36.1233C80.7212 31.6689 84.3867 28.6875 88.6473 28.6875ZM92.6162 36.0845C92.6162 33.473 91.2927 31.299 88.5141 31.299C85.6562 31.299 84.5182 33.5794 84.5182 36.1774C84.5182 38.6959 85.8552 40.8429 88.5933 40.8429C91.4259 40.8429 92.6162 38.5625 92.6162 36.0845Z" fill="black"/>
<path d="M105.265 28.6875C109.564 28.6875 112.872 31.7095 112.872 36.0574C112.872 40.5253 109.392 43.4544 105.118 43.4544C100.805 43.4544 97.3389 40.4578 97.3389 36.1233C97.3406 31.6689 101.004 28.6875 105.265 28.6875ZM109.236 36.0845C109.236 33.473 107.912 31.299 105.133 31.299C102.276 31.299 101.138 33.5794 101.138 36.1774C101.138 38.6959 102.475 40.8429 105.213 40.8429C108.044 40.8429 109.236 38.5625 109.236 36.0845Z" fill="black"/>
<path d="M115.348 22.5625H118.735V35.1824L123.869 28.9916H127.587L121.964 35.5L128.01 43.1892H124.107L118.735 36.2703V43.1892H115.348V22.5625Z" fill="black"/>
<path d="M131.475 38.9595C132.004 40.3514 133.446 41.0135 134.982 41.0135C136.079 41.0135 137.443 40.6689 137.443 39.3294C137.443 37.9105 135.909 37.5794 134.162 37.2078C131.886 36.7298 129.333 36.174 129.333 32.9916C129.333 30.076 132.046 28.6841 134.612 28.6841C136.861 28.6841 139.428 29.5321 140.355 31.7737L137.841 32.8598C137.285 31.5997 135.895 31.1233 134.732 31.1233C133.607 31.1233 132.522 31.5743 132.522 32.7281C132.522 34.027 133.911 34.3058 135.617 34.6368C137.932 35.0879 140.685 35.6183 140.685 38.9325C140.685 42.2737 137.893 43.4527 134.943 43.4527C132.442 43.4527 129.756 42.6047 128.87 40.0591L131.475 38.9595Z" fill="black"/>
<path d="M64.4609 17.6402L70.6943 8.61659H65.0915V6.83618H73.628V7.72301L67.5464 16.7467H73.4526V18.5271H64.4626V17.6402H64.4609Z" fill="black"/>
<path d="M78.9676 9.79059C81.5574 9.79059 83.5503 11.6115 83.5503 14.2298C83.5503 16.9207 81.4545 18.6859 78.88 18.6859C76.2818 18.6859 74.1927 16.8818 74.1927 14.2703C74.1927 11.5862 76.4015 9.79059 78.9676 9.79059ZM81.3584 14.245C81.3584 12.6723 80.5609 11.3632 78.8884 11.3632C77.1669 11.3632 76.4807 12.7365 76.4807 14.3024C76.4807 15.8193 77.285 17.1132 78.9356 17.1132C80.6419 17.1115 81.3584 15.7382 81.3584 14.245Z" fill="black"/>
<path d="M85.0409 6.10138H87.081V11.3311C87.6306 10.2686 88.7552 9.79057 89.9338 9.79057C91.9739 9.79057 92.994 11.2281 92.994 13.1757V18.5254H90.937V13.375C90.937 12.1453 90.2997 11.4747 89.111 11.4747C87.8043 11.4747 87.0793 12.2804 87.0793 13.5034V18.5254H85.0392V6.10138H85.0409Z" fill="black"/>
<path d="M99.0924 9.79059C101.682 9.79059 103.675 11.6115 103.675 14.2298C103.675 16.9207 101.579 18.6859 99.0047 18.6859C96.4065 18.6859 94.3175 16.8818 94.3175 14.2703C94.3192 11.5862 96.5262 9.79059 99.0924 9.79059ZM101.483 14.245C101.483 12.6723 100.686 11.3632 99.0131 11.3632C97.2917 11.3632 96.6055 12.7365 96.6055 14.3024C96.6055 15.8193 97.4097 17.1132 99.0604 17.1132C100.767 17.1115 101.483 15.7382 101.483 14.245Z" fill="black"/>
<path d="M39.5074 49.4933H6.10517C5.31442 49.4933 4.67203 48.8514 4.67203 48.0575V35.8987C4.67203 33.2433 6.3564 30.8784 8.86355 30.0169L45.8824 17.2872C48.7638 16.2956 50.7011 13.5777 50.7011 10.5254C50.7011 6.58279 47.4993 3.37671 43.5658 3.37671H7.53663V27.0541C7.53663 27.8463 6.89593 28.4899 6.10349 28.4899C5.31105 28.4899 4.67035 27.848 4.67035 27.0541V1.94259C4.67035 1.15036 5.31105 0.506775 6.10349 0.506775H43.5674C49.0825 0.506775 53.5674 5.00171 53.5674 10.5254C53.5674 14.8041 50.8528 18.6132 46.8131 20.0017L9.79424 32.7314C8.44372 33.196 7.53663 34.4679 7.53663 35.8987V46.6216H39.5058C42.4968 46.6216 45.3074 45.4544 47.4217 43.3362C49.536 41.2179 50.7011 38.402 50.7011 35.4054C50.7011 33.2855 50.1042 31.2162 48.9763 29.424C47.8601 27.6487 46.2769 26.2297 44.397 25.3159C43.6855 24.9696 43.3887 24.1115 43.7344 23.3987C44.08 22.6858 44.9365 22.3885 45.648 22.7348C48.0085 23.8818 49.9963 25.6656 51.3991 27.8953C52.8171 30.147 53.5657 32.745 53.5657 35.4071C53.5657 39.1689 52.1039 42.7078 49.4467 45.3683C46.7945 48.027 43.2623 49.4933 39.5074 49.4933Z" fill="#226DB4"/>
<path d="M20.7889 20.5895C17.6293 20.5895 15.0598 18.0152 15.0598 14.8497C15.0598 11.6841 17.6293 9.1098 20.7889 9.1098C23.9486 9.1098 26.5181 11.6841 26.5181 14.8497C26.5181 18.0152 23.9486 20.5895 20.7889 20.5895ZM20.7889 11.9797C19.2091 11.9797 17.9243 13.2669 17.9243 14.8497C17.9243 16.4324 19.2091 17.7196 20.7889 17.7196C22.3688 17.7196 23.6535 16.4324 23.6535 14.8497C23.6535 13.2669 22.3688 11.9797 20.7889 11.9797Z" fill="#226DB4"/>
<path d="M35.1524 40.8598C31.9928 40.8598 29.4232 38.2855 29.4232 35.1199C29.4232 31.9544 31.9928 29.3801 35.1524 29.3801C38.3121 29.3801 40.8816 31.9544 40.8816 35.1199C40.8816 38.2855 38.3121 40.8598 35.1524 40.8598ZM35.1524 32.2483C33.5726 32.2483 32.2878 33.5355 32.2878 35.1182C32.2878 36.701 33.5726 37.9882 35.1524 37.9882C36.7322 37.9882 38.017 36.701 38.017 35.1182C38.017 33.5355 36.7322 32.2483 35.1524 32.2483Z" fill="#226DB4"/>
</svg>
