<svg width="180" height="50" viewBox="0 0 180 50" fill="none" xmlns="http://www.w3.org/2000/svg">
<path d="M60.6068 23.7838H68.2416C71.7809 23.7838 74.6798 24.9155 74.6798 28.9358C74.6798 31.0473 73.6011 32.4831 71.5618 33.0574C74.191 33.581 75.4888 35.0506 75.4888 37.7365C75.4888 41.875 72.3876 43.1925 68.7641 43.1925H60.6236V23.7838H60.6068ZM67.7697 31.9256C69.8764 31.9256 71.0562 31.3006 71.0562 29.0202C71.0562 26.8919 69.5562 26.4189 67.7023 26.4189H64.2472V31.9256H67.7697ZM68.2921 40.5574C70.4326 40.5574 71.7978 39.7297 71.7978 37.5C71.7978 35.0338 70.1124 34.4256 68.0393 34.4256H64.2641V40.5574H68.2921Z" fill="black"/>
<path d="M84.809 28.6824C89.1068 28.6824 92.4101 31.7061 92.4101 36.0473C92.4101 40.5068 88.9382 43.4459 84.6573 43.4459C80.3427 43.4459 76.8876 40.4561 76.8876 36.1149C76.8876 31.6723 80.545 28.6824 84.809 28.6824ZM88.7865 36.0811C88.7865 33.4628 87.4719 31.3007 84.691 31.3007C81.8259 31.3007 80.6966 33.5811 80.6966 36.1824C80.6966 38.6993 82.0281 40.8446 84.7753 40.8446C87.5899 40.8446 88.7865 38.5642 88.7865 36.0811Z" fill="black"/>
<path d="M101.427 28.6824C105.725 28.6824 109.028 31.7061 109.028 36.0473C109.028 40.5068 105.556 43.4459 101.275 43.4459C96.9607 43.4459 93.5056 40.4561 93.5056 36.1149C93.5056 31.6723 97.1629 28.6824 101.427 28.6824ZM105.388 36.0811C105.388 33.4628 104.073 31.3007 101.292 31.3007C98.427 31.3007 97.2978 33.5811 97.2978 36.1824C97.2978 38.6993 98.6292 40.8446 101.376 40.8446C104.208 40.8446 105.388 38.5642 105.388 36.0811Z" fill="black"/>
<path d="M111.506 22.5676H114.893V35.1858L120.017 29.0034H123.742L118.112 35.5068L124.163 43.1926H120.253L114.876 36.2669V43.1926H111.489V22.5676H111.506Z" fill="black"/>
<path d="M128.056 22.9899C129.152 22.9899 130.028 23.8007 130.028 24.9324C130.028 26.0473 129.185 26.8581 128.073 26.8581C126.978 26.8581 126.051 26.0304 126.051 24.9155C126.051 23.7838 126.961 22.9899 128.056 22.9899ZM126.354 29.0203H129.742V43.1926H126.354V29.0203Z" fill="black"/>
<path d="M133.567 28.9865H136.955V31.25C137.865 29.4933 139.77 28.6993 141.742 28.6993C145.146 28.6993 146.68 31.098 146.68 34.3243V43.2095H143.242V34.6622C143.242 32.6689 142.348 31.5034 140.343 31.5034C138.219 31.5034 136.955 32.821 136.955 34.8649V43.2095H133.567V28.9865Z" fill="black"/>
<path d="M152.427 43.8176C153.135 45.3885 154.77 45.8615 156.337 45.8615C158.848 45.8615 160.365 44.6622 160.365 42.0777V39.9493C159.404 41.5878 157.5 42.6182 155.612 42.6182C151.601 42.6182 149.275 39.4595 149.275 35.7601C149.275 31.9426 151.77 28.6824 155.697 28.6824C157.618 28.6824 159.371 29.4595 160.365 31.1655V28.9865H163.77V42.1284C163.77 46.5878 160.433 48.3953 156.337 48.3953C153.708 48.3953 150.893 47.652 149.747 44.9831L152.427 43.8176ZM160.5 35.5743C160.5 33.1419 159.185 31.3007 156.624 31.3007C153.91 31.3007 152.764 33.3615 152.764 35.8277C152.764 38.0405 154.146 40 156.506 40C159.152 40 160.5 38.0405 160.5 35.5743Z" fill="black"/>
<path d="M168.978 38.9527C169.5 40.3378 170.949 41.0135 172.483 41.0135C173.579 41.0135 174.944 40.6757 174.944 39.3243C174.944 37.9054 173.41 37.5676 171.657 37.1959C169.382 36.723 166.837 36.1655 166.837 32.973C166.837 30.0507 169.551 28.6655 172.112 28.6655C174.354 28.6655 176.933 29.5101 177.86 31.7567L175.348 32.8378C174.792 31.5709 173.41 31.098 172.247 31.098C171.118 31.098 170.039 31.554 170.039 32.7027C170.039 34.0034 171.421 34.2736 173.14 34.6115C175.449 35.0676 178.213 35.5912 178.213 38.902C178.213 42.2466 175.416 43.429 172.466 43.429C169.972 43.429 167.275 42.5844 166.399 40.0338L168.978 38.9527Z" fill="black"/>
<path d="M60.6405 17.6351L66.8764 8.61484H61.2809V6.84119H69.809V7.71957L63.7247 16.7398H69.6236V18.5135H60.6405V17.6351Z" fill="black"/>
<path d="M75.1348 9.7973C77.7303 9.7973 79.7191 11.6216 79.7191 14.2399C79.7191 16.9257 77.6292 18.6993 75.0506 18.6993C72.4551 18.6993 70.3652 16.8919 70.3652 14.2905C70.3652 11.5878 72.573 9.7973 75.1348 9.7973ZM77.5281 14.2399C77.5281 12.6689 76.736 11.3514 75.0506 11.3514C73.3315 11.3514 72.6405 12.7196 72.6405 14.2905C72.6405 15.8108 73.4494 17.0946 75.1011 17.0946C76.8034 17.1115 77.5281 15.7432 77.5281 14.2399Z" fill="black"/>
<path d="M81.2023 6.09796H83.2416V11.3344C83.7978 10.2703 84.9101 9.79729 86.0899 9.79729C88.1461 9.79729 89.1573 11.2331 89.1573 13.1757V18.5304H87.1011V13.3784C87.1011 12.1453 86.4607 11.4696 85.2809 11.4696C83.9663 11.4696 83.2416 12.2804 83.2416 13.4966V18.5135H81.2023V6.09796Z" fill="black"/>
<path d="M95.2584 9.7973C97.8539 9.7973 99.8427 11.6216 99.8427 14.2399C99.8427 16.9257 97.7528 18.6993 95.1742 18.6993C92.5787 18.6993 90.4888 16.8919 90.4888 14.2905C90.4888 11.5878 92.6798 9.7973 95.2584 9.7973ZM97.6348 14.2399C97.6348 12.6689 96.8427 11.3514 95.1573 11.3514C93.4382 11.3514 92.7472 12.7196 92.7472 14.2905C92.7472 15.8108 93.5562 17.0946 95.2079 17.0946C96.927 17.1115 97.6348 15.7432 97.6348 14.2399Z" fill="black"/>
<path d="M48.5056 12.3818C47.7135 10.5068 46.5674 8.81762 45.1348 7.36491C43.6854 5.91221 42 4.78045 40.1292 3.98653C39.5056 3.71626 38.8652 3.49667 38.2247 3.32775V1.9764C38.2247 1.18248 37.5843 0.540588 36.7921 0.540588C36 0.540588 35.3596 1.18248 35.3596 1.9764V2.8041C34.9045 2.77032 34.4494 2.73653 33.9944 2.73653H19.5506C18.7584 2.73653 18.118 3.37843 18.118 4.17235C18.118 4.96626 18.7584 5.60816 19.5506 5.60816H33.9944C34.4494 5.60816 34.9045 5.62505 35.3596 5.67572V6.41897C35.3596 7.21289 36 7.85478 36.7921 7.85478C37.5843 7.85478 38.2247 7.21289 38.2247 6.41897V6.31762C40.0449 6.94262 41.7135 7.98991 43.1124 9.39194C45.5562 11.8413 46.8876 15.0845 46.8876 18.5305V33.6825C46.8876 37.1284 45.5393 40.3886 43.1124 42.821C40.6685 45.2703 37.4326 46.6217 33.9775 46.6217H30.4719C29.6798 46.6217 29.0393 47.2636 29.0393 48.0575C29.0393 48.8514 29.6798 49.4933 30.4719 49.4933H33.9775C36.1011 49.4933 38.1742 49.071 40.1124 48.2433C41.9832 47.4494 43.6685 46.3007 45.118 44.8649C46.5674 43.4122 47.6966 41.723 48.4888 39.848C49.3146 37.9055 49.736 35.8278 49.736 33.6994V18.5473C49.736 16.4021 49.3315 14.3413 48.5056 12.3818Z" fill="#226DB4"/>
<path d="M32.3764 33.6824C32.3764 31.5541 31.9551 29.4764 31.1292 27.5338C30.3371 25.6588 29.191 23.9696 27.7584 22.5169C26.3258 21.0642 24.6236 19.9325 22.7528 19.1385C20.8146 18.3108 18.7416 17.8885 16.618 17.8885C14.4944 17.8885 12.4214 18.3108 10.4832 19.1385C8.61237 19.9325 6.92697 21.0811 5.47754 22.5169C4.83709 23.1588 4.2472 23.8683 3.72473 24.5946V18.5304C3.72473 15.5237 4.78652 12.6014 6.69102 10.2872C8.19102 8.46286 10.1798 7.09461 12.3708 6.33448V6.40205C12.3708 7.19596 13.0112 7.83786 13.8034 7.83786C14.5955 7.83786 15.236 7.19596 15.236 6.40205V4.47637V4.45948V1.94259C15.236 1.14867 14.5955 0.506775 13.8034 0.506775C13.0112 0.506775 12.3708 1.14867 12.3708 1.94259V3.31083C9.30338 4.17232 6.53933 5.97975 4.48315 8.44596C3.33709 9.8311 2.44383 11.3852 1.82023 13.0743C1.17978 14.8311 0.859558 16.6554 0.859558 18.5304V33.6824C0.859558 35.8108 1.28091 37.8885 2.10675 39.8311C2.89888 41.7061 4.04495 43.3953 5.47754 44.848C6.92697 46.3007 8.61237 47.4325 10.4832 48.2264C12.4214 49.0541 14.4944 49.4764 16.618 49.4764C16.7023 49.4764 16.7697 49.4764 16.8539 49.4595C18.8933 49.4257 20.882 49.0203 22.7528 48.2264C24.6236 47.4325 26.309 46.2838 27.7584 44.848C29.2079 43.3953 30.3371 41.7061 31.1292 39.8311C31.9551 37.8885 32.3764 35.8108 32.3764 33.6824ZM25.736 42.821C23.2921 45.2703 20.0562 46.6047 16.618 46.6047C13.1798 46.6047 9.92697 45.2534 7.50001 42.821C5.05619 40.3716 3.72473 37.1284 3.72473 33.6824C3.72473 30.2365 5.07304 26.9764 7.50001 24.5439C9.92697 22.1115 13.1798 20.7602 16.618 20.7602C20.0562 20.7602 23.309 22.1115 25.736 24.5439C28.1798 26.9933 29.5112 30.2365 29.5112 33.6824C29.5112 37.1284 28.1798 40.3716 25.736 42.821Z" fill="#226DB4"/>
<path d="M16.618 35.1352C16.2303 35.1352 15.8596 34.9831 15.573 34.6791L10.9382 29.7298C10.3989 29.1554 10.4326 28.2433 11.0056 27.7027C11.5787 27.1622 12.4888 27.196 13.0281 27.7703L16.6854 31.6723L29.8652 19.375C30.4382 18.8345 31.3483 18.8683 31.8877 19.4426C32.427 20.0169 32.3933 20.9291 31.8202 21.4696L17.5955 34.7466C17.3259 35 16.9719 35.1352 16.618 35.1352Z" fill="#089949"/>
</svg>
