<svg width="206" height="51" viewBox="0 0 206 51" fill="none" xmlns="http://www.w3.org/2000/svg">
<path d="M49.9756 32.6481L45.1899 5.56361C44.8805 3.81024 43.5513 2.44537 41.8044 2.08895C40.0576 1.73253 38.3006 2.46564 37.3248 3.9572C36.8902 4.62274 37.0779 5.51125 37.7442 5.94537C38.4105 6.37949 39.3 6.19199 39.7346 5.52645C40.2301 4.76801 41.0029 4.85753 41.2278 4.90314C41.4527 4.94875 42.1985 5.16834 42.3557 6.06193L47.1397 33.1464C47.2412 33.7207 46.9858 34.1278 46.8252 34.3204C46.6645 34.5129 46.306 34.8339 45.7226 34.8339H17.9149C17.1201 34.8339 16.4758 35.4775 16.4758 36.2714C16.4758 37.0653 17.1201 37.7089 17.9149 37.7089H21.62L19.0005 44.9386C18.7959 45.5062 18.2514 45.8862 17.6477 45.8862H16.4775C15.7791 45.8862 15.1838 45.3879 15.0604 44.7004L10.0312 16.3778L32.3497 5.85247C33.0684 5.51463 33.3745 4.65821 33.0363 3.9403C32.6981 3.2224 31.8407 2.91666 31.122 3.25449L3.47325 16.2933C1.71962 17.121 0.728661 19.0315 1.06518 20.9403L3.39715 34.1531C3.76073 36.2173 5.54817 37.7156 7.64677 37.7156H10.8987L12.2278 45.2038C12.5948 47.2646 14.3806 48.7612 16.4775 48.7612H17.6477C19.4588 48.7612 21.089 47.6177 21.7062 45.9183L24.6808 37.7106H45.726C47.0044 37.7106 48.2102 37.1498 49.032 36.17C49.8539 35.1886 50.1971 33.9048 49.9756 32.6481ZM7.64677 34.8406C6.94668 34.8406 6.35143 34.3406 6.22967 33.6531L3.8977 20.4403C3.78609 19.8035 4.11585 19.1667 4.70095 18.8913L7.33393 17.6498L10.388 34.8406H7.64677Z" fill="#E42527"/>
<path d="M24.7789 24.8474C24.1261 24.8474 23.4632 24.6987 22.8426 24.3879L16.2171 21.0653C15.5068 20.7089 15.221 19.8457 15.5761 19.1362C15.933 18.4268 16.7971 18.1413 17.5073 18.496L24.1329 21.8187C24.7873 22.1464 25.5821 21.9318 25.9829 21.3203L37.3248 3.95548C37.7594 3.28994 38.6506 3.10413 39.3152 3.53656C39.9815 3.97068 40.1675 4.86088 39.7346 5.52473L28.3944 22.8879C27.5725 24.1497 26.196 24.8474 24.7789 24.8474Z" fill="#226DB4"/>
<path d="M24.7789 24.8474C24.1261 24.8474 23.4632 24.6987 22.8426 24.3879L16.2171 21.0653C15.5068 20.7089 15.221 19.8457 15.5761 19.1362C15.933 18.4268 16.7971 18.1413 17.5073 18.496L24.1329 21.8187C24.7873 22.1464 25.5821 21.9318 25.9829 21.3203L37.3248 3.95548C37.7594 3.28994 38.6506 3.10413 39.3152 3.53656C39.9815 3.97068 40.1675 4.86088 39.7346 5.52473L28.3944 22.8879C27.5725 24.1497 26.196 24.8474 24.7789 24.8474Z" fill="#226DB4"/>
<path d="M77.1949 33.7449C76.8939 34.6638 76.461 35.4729 75.8945 36.1706C75.328 36.8682 74.6736 37.4544 73.9312 37.9273C73.1888 38.4003 72.3737 38.755 71.4893 38.9949C70.6049 39.2331 69.6934 39.353 68.7549 39.353C67.189 39.353 65.8023 39.1148 64.5949 38.6368C63.3875 38.1588 62.3728 37.4831 61.5493 36.6081C60.7257 35.7331 60.1034 34.6756 59.679 33.4341C59.2545 32.1925 59.0414 30.8125 59.0414 29.2922C59.0414 27.8969 59.2731 26.5963 59.7382 25.3952C60.2032 24.1942 60.8543 23.1486 61.6947 22.2601C62.5352 21.3716 63.5464 20.674 64.7268 20.1655C65.9071 19.6571 67.2143 19.4037 68.6483 19.4037C69.5683 19.4037 70.451 19.5152 71.2965 19.7348C72.1421 19.9561 72.9267 20.2854 73.6522 20.7229C74.3776 21.1604 75.0253 21.7061 75.5969 22.3598C76.1685 23.0135 76.6335 23.7736 76.9971 24.6402L73.8923 25.9527C73.6894 25.4223 73.4188 24.9341 73.0823 24.4881C72.7458 24.0422 72.3585 23.6588 71.9205 23.3412C71.4825 23.0236 71.0006 22.7753 70.4747 22.5996C69.9488 22.4223 69.3924 22.3344 68.809 22.3344C67.7825 22.3344 66.9032 22.5354 66.1676 22.9375C65.4336 23.3395 64.8316 23.8716 64.3632 24.5354C63.8948 25.1976 63.5498 25.9561 63.3283 26.8091C63.1067 27.6621 62.9968 28.5338 62.9968 29.4273C62.9968 30.3648 63.1135 31.25 63.3486 32.0844C63.5836 32.9189 63.9438 33.6537 64.4308 34.2854C64.9179 34.9172 65.5317 35.4189 66.2758 35.7905C67.0182 36.1621 67.8941 36.3463 68.9037 36.3463C69.5412 36.3463 70.1348 36.2534 70.6878 36.0675C71.2407 35.8817 71.7396 35.6199 72.1877 35.2787C72.6342 34.9392 73.0265 34.5304 73.363 34.0523C73.6995 33.5743 73.9769 33.0456 74.1984 32.4611L77.1949 33.7449Z" fill="black"/>
<path d="M87.9974 37.3513C87.458 38.0675 86.8103 38.5793 86.0527 38.8885C85.2968 39.1976 84.4749 39.353 83.5905 39.353C82.9276 39.353 82.3053 39.2685 81.7253 39.1013C81.1452 38.9341 80.6413 38.6773 80.2118 38.3327C79.7823 37.9881 79.444 37.5574 79.1971 37.0405C78.9486 36.5236 78.8251 35.9155 78.8251 35.2179C78.8251 34.5641 78.9333 33.9966 79.1498 33.5152C79.3663 33.0337 79.6588 32.6249 80.0258 32.2888C80.3927 31.9527 80.8239 31.679 81.3194 31.4662C81.8149 31.2533 82.3391 31.0878 82.8921 30.9695C83.4451 30.8496 84.0133 30.7685 84.5967 30.7246C85.1801 30.6807 85.7466 30.6587 86.2945 30.6587H87.967V30.4341C87.967 29.9307 87.9298 29.4729 87.8537 29.0624C87.7776 28.652 87.6389 28.3023 87.436 28.0152C87.2331 27.728 86.9523 27.5067 86.5938 27.353C86.2353 27.1993 85.7686 27.1216 85.1936 27.1216C84.5037 27.1216 83.8695 27.2956 83.2895 27.6452C82.7095 27.9949 82.2918 28.4966 82.0347 29.1503L79.3933 28.0101C79.6318 27.3834 79.9683 26.853 80.4012 26.4189C80.8341 25.9864 81.3262 25.6317 81.8741 25.3581C82.422 25.0844 83.0105 24.8868 83.6396 24.7685C84.2669 24.6486 84.9011 24.5895 85.5369 24.5895C86.3774 24.5895 87.1519 24.6942 87.8587 24.9003C88.5656 25.1081 89.1795 25.4239 89.6969 25.8479C90.2144 26.2719 90.6169 26.8141 90.9043 27.4712C91.1918 28.1283 91.3356 28.9087 91.3356 29.8108V39.0895H87.9974V37.3513ZM86.259 32.7381C85.8701 32.7381 85.4388 32.7584 84.9653 32.7972C84.4919 32.8378 84.0505 32.9358 83.6379 33.0962C83.2269 33.255 82.8837 33.4898 82.6097 33.7989C82.3358 34.1081 82.1988 34.532 82.1988 35.0709C82.1988 35.4155 82.2563 35.7043 82.3713 35.9391C82.4863 36.1739 82.6469 36.3648 82.8549 36.5152C83.0629 36.6655 83.303 36.7736 83.5787 36.8395C83.8526 36.9054 84.1486 36.9391 84.4682 36.9391C84.9011 36.9391 85.3255 36.8817 85.7415 36.7668C86.1575 36.652 86.5313 36.4797 86.8627 36.25C87.1942 36.0202 87.4613 35.7263 87.666 35.3682C87.8689 35.0101 87.972 34.5929 87.972 34.1148V32.7364H86.259V32.7381Z" fill="black"/>
<path d="M94.924 24.8919H98.3213V27.0658C98.5344 26.6588 98.7965 26.3023 99.111 25.9915C99.4256 25.6824 99.7739 25.424 100.159 25.2162C100.545 25.0084 100.956 24.8513 101.394 24.7449C101.832 24.6385 102.28 24.5861 102.74 24.5861C103.183 24.5861 103.614 24.6351 104.034 24.7314C104.453 24.8294 104.847 24.9814 105.214 25.1892C105.581 25.3969 105.906 25.6604 106.19 25.978C106.472 26.2956 106.699 26.6756 106.866 27.1182C107.406 26.3057 108.114 25.6807 108.99 25.2432C109.866 24.8057 110.813 24.5878 111.829 24.5878C112.643 24.5878 113.351 24.7297 113.953 25.0118C114.555 25.2939 115.054 25.6807 115.453 26.1723C115.853 26.6638 116.148 27.2432 116.343 27.9155C116.537 28.5878 116.635 29.3159 116.635 30.103V39.0895H113.252V30.3142C113.252 29.4223 113.028 28.7094 112.582 28.1807C112.136 27.6503 111.456 27.3851 110.544 27.3851C110.049 27.3851 109.611 27.4662 109.23 27.63C108.85 27.7939 108.532 28.0169 108.275 28.299C108.018 28.5811 107.823 28.9206 107.691 29.3125C107.558 29.7061 107.492 30.1317 107.492 30.5912V39.0878H104.095V30.3125C104.095 29.4206 103.87 28.7077 103.418 28.179C102.967 27.6486 102.285 27.3834 101.375 27.3834C100.888 27.3834 100.455 27.4645 100.075 27.6283C99.6945 27.7922 99.3732 28.0152 99.1127 28.2973C98.8523 28.5794 98.6545 28.9189 98.5226 29.3108C98.3907 29.7044 98.323 30.13 98.323 30.5895V39.0861H94.9257V24.8919H94.924Z" fill="black"/>
<path d="M120.217 24.8919H123.614V27.1858C123.861 26.7703 124.166 26.402 124.524 26.0794C124.883 25.7567 125.277 25.4848 125.705 25.2635C126.134 25.0422 126.586 24.875 127.057 24.7601C127.531 24.6453 128.006 24.5878 128.485 24.5878C129.572 24.5878 130.519 24.7888 131.324 25.1909C132.129 25.5929 132.797 26.1334 133.328 26.8142C133.859 27.4949 134.256 28.277 134.522 29.1605C134.787 30.0439 134.919 30.9713 134.919 31.9442C134.919 32.9426 134.782 33.8902 134.508 34.7872C134.234 35.6841 133.828 36.4713 133.294 37.147C132.76 37.8226 132.095 38.3598 131.304 38.7568C130.512 39.1537 129.602 39.353 128.576 39.353C128.081 39.353 127.587 39.3024 127.096 39.201C126.606 39.0997 126.141 38.9476 125.703 38.7432C125.265 38.5405 124.868 38.2821 124.509 37.9679C124.151 37.6537 123.853 37.2855 123.613 36.8615V43.9527H120.215V24.8919H120.217ZM127.543 36.701C128.295 36.701 128.918 36.5709 129.413 36.3108C129.909 36.0507 130.304 35.6993 130.6 35.2567C130.896 34.8142 131.106 34.3024 131.231 33.7196C131.354 33.1368 131.417 32.5186 131.417 31.8632C131.417 31.2618 131.339 30.6841 131.185 30.1267C131.03 29.5693 130.791 29.0777 130.468 28.6486C130.145 28.2196 129.734 27.8784 129.234 27.6216C128.733 27.3649 128.135 27.2365 127.436 27.2365C126.738 27.2365 126.138 27.3665 125.639 27.6284C125.138 27.8885 124.729 28.2382 124.411 28.6757C124.093 29.1132 123.86 29.6233 123.714 30.2061C123.569 30.7888 123.496 31.3986 123.496 32.0355C123.496 32.6976 123.574 33.3125 123.728 33.8784C123.883 34.4442 124.125 34.9375 124.458 35.3564C124.79 35.777 125.211 36.1047 125.718 36.3446C126.225 36.5828 126.834 36.701 127.543 36.701Z" fill="black"/>
<path d="M145.855 37.3513C145.316 38.0675 144.668 38.5793 143.911 38.8885C143.155 39.1976 142.333 39.353 141.448 39.353C140.785 39.353 140.163 39.2685 139.583 39.1013C139.003 38.9341 138.499 38.6773 138.07 38.3327C137.64 37.9881 137.302 37.5574 137.055 37.0405C136.806 36.5236 136.683 35.9155 136.683 35.2179C136.683 34.5641 136.791 33.9966 137.008 33.5152C137.224 33.0337 137.517 32.6249 137.884 32.2888C138.251 31.9527 138.682 31.679 139.177 31.4662C139.673 31.2533 140.197 31.0878 140.75 30.9695C141.303 30.8496 141.871 30.7685 142.455 30.7246C143.038 30.6807 143.604 30.6587 144.152 30.6587H145.825V30.4341C145.825 29.9307 145.788 29.4729 145.711 29.0624C145.635 28.652 145.497 28.3023 145.294 28.0152C145.091 27.728 144.81 27.5067 144.452 27.353C144.093 27.1993 143.626 27.1216 143.051 27.1216C142.362 27.1216 141.727 27.2956 141.147 27.6452C140.567 27.9949 140.15 28.4966 139.893 29.1503L137.251 28.0101C137.49 27.3834 137.826 26.853 138.259 26.4189C138.692 25.9864 139.184 25.6317 139.732 25.3581C140.28 25.0844 140.868 24.8868 141.497 24.7685C142.125 24.6486 142.759 24.5895 143.395 24.5895C144.235 24.5895 145.01 24.6942 145.717 24.9003C146.423 25.1081 147.037 25.4239 147.555 25.8479C148.072 26.2719 148.475 26.8141 148.762 27.4712C149.05 28.1283 149.193 28.9087 149.193 29.8108V39.0895H145.848V37.3513H145.855ZM144.117 32.7381C143.728 32.7381 143.297 32.7584 142.823 32.7972C142.35 32.8378 141.908 32.9358 141.496 33.0962C141.085 33.255 140.741 33.4898 140.468 33.7989C140.194 34.1081 140.057 34.532 140.057 35.0709C140.057 35.4155 140.114 35.7043 140.229 35.9391C140.344 36.1739 140.505 36.3648 140.713 36.5152C140.921 36.6655 141.161 36.7736 141.436 36.8395C141.71 36.9054 142.006 36.9391 142.326 36.9391C142.759 36.9391 143.183 36.8817 143.599 36.7668C144.015 36.652 144.389 36.4797 144.721 36.25C145.052 36.0202 145.319 35.7263 145.524 35.3682C145.727 35.0101 145.83 34.5929 145.83 34.1148V32.7364H144.117V32.7381Z" fill="black"/>
<path d="M152.569 20.8091C152.569 20.527 152.621 20.2686 152.728 20.0338C152.834 19.799 152.98 19.5963 153.166 19.424C153.352 19.2517 153.566 19.1199 153.81 19.027C154.053 18.9341 154.312 18.8885 154.586 18.8885C154.86 18.8885 155.117 18.9375 155.356 19.0338C155.594 19.1317 155.804 19.2652 155.986 19.4375C156.167 19.6098 156.309 19.8125 156.411 20.0473C156.512 20.2821 156.563 20.5405 156.563 20.8226C156.563 21.0963 156.512 21.353 156.411 21.5912C156.309 21.8294 156.172 22.0338 156 22.201C155.827 22.3699 155.621 22.5017 155.383 22.5979C155.144 22.6959 154.882 22.7432 154.6 22.7432C154.326 22.7432 154.064 22.6942 153.817 22.5979C153.57 22.5 153.352 22.3665 153.166 22.1942C152.98 22.0219 152.834 21.8159 152.728 21.5777C152.623 21.3378 152.569 21.0827 152.569 20.8091ZM152.875 24.9172H156.272V39.0878H152.875V24.9172Z" fill="black"/>
<path d="M162.309 39.7111C162.487 40.1081 162.717 40.4375 162.999 40.6993C163.282 40.9594 163.598 41.1672 163.948 41.3226C164.298 41.478 164.667 41.5878 165.055 41.6537C165.444 41.7195 165.838 41.7533 166.236 41.7533C167.501 41.7533 168.492 41.4459 169.209 40.8327C169.926 40.2179 170.284 39.2668 170.284 37.9763V35.8547C170.046 36.2618 169.752 36.63 169.401 36.9611C169.051 37.2922 168.669 37.5726 168.253 37.8023C167.837 38.032 167.398 38.2094 166.933 38.3327C166.468 38.456 165.997 38.5185 165.519 38.5185C164.511 38.5185 163.613 38.3361 162.825 37.9679C162.037 37.6013 161.372 37.1047 160.828 36.4763C160.283 35.8496 159.871 35.1216 159.587 34.2956C159.304 33.4695 159.162 32.5929 159.162 31.6638C159.162 30.7094 159.313 29.804 159.614 28.9459C159.915 28.0895 160.344 27.3378 160.901 26.6925C161.459 26.0472 162.135 25.5354 162.932 25.1554C163.728 24.7753 164.617 24.5844 165.598 24.5844C166.562 24.5844 167.458 24.7837 168.285 25.1807C169.112 25.5777 169.779 26.206 170.283 27.0625V24.8885H173.693V38.0253C173.693 39.1385 173.499 40.0929 173.11 40.8885C172.721 41.6841 172.188 42.3327 171.51 42.8378C170.834 43.3412 170.042 43.7111 169.134 43.9442C168.228 44.179 167.261 44.2956 166.234 44.2956C165.571 44.2956 164.907 44.2432 164.244 44.1368C163.581 44.0304 162.953 43.8479 162.367 43.5861C161.778 43.326 161.246 42.9763 160.767 42.5388C160.288 42.1013 159.908 41.5473 159.625 40.875L162.309 39.7111ZM166.41 35.907C167.073 35.907 167.655 35.7922 168.155 35.5625C168.656 35.3327 169.073 35.0185 169.41 34.6216C169.746 34.2246 169.998 33.755 170.166 33.2162C170.333 32.6773 170.418 32.0979 170.418 31.4797C170.418 30.8699 170.337 30.304 170.173 29.7837C170.009 29.2618 169.765 28.8091 169.442 28.4256C169.119 28.0405 168.715 27.7415 168.228 27.5236C167.741 27.3074 167.174 27.1993 166.53 27.1993C165.849 27.1993 165.265 27.3209 164.778 27.5641C164.291 27.8074 163.89 28.1334 163.577 28.5456C163.263 28.956 163.031 29.4358 162.881 29.9831C162.73 30.5304 162.656 31.1148 162.656 31.7331C162.656 32.2905 162.74 32.8192 162.908 33.3243C163.075 33.8277 163.32 34.2719 163.645 34.657C163.968 35.0422 164.362 35.3462 164.825 35.5726C165.289 35.7939 165.818 35.907 166.41 35.907Z" fill="black"/>
<path d="M177.424 24.8919H180.821V27.1452C181.051 26.7027 181.339 26.3226 181.684 26.005C182.029 25.6875 182.409 25.4223 182.825 25.2094C183.241 24.9966 183.688 24.8412 184.166 24.7381C184.643 24.6368 185.13 24.5861 185.625 24.5861C186.474 24.5861 187.212 24.728 187.836 25.0101C188.46 25.2922 188.975 25.6858 189.381 26.1892C189.789 26.6925 190.09 27.2871 190.284 27.9713C190.479 28.6554 190.577 29.4003 190.577 30.2044V39.0861H187.127V30.5371C187.127 29.5388 186.897 28.7635 186.437 28.2111C185.977 27.6588 185.238 27.3834 184.222 27.3834C183.151 27.3834 182.318 27.6875 181.721 28.299C181.124 28.9088 180.825 29.7263 180.825 30.7517V39.0895H177.427V24.8919H177.424Z" fill="black"/>
<path d="M195.645 34.8597C195.779 35.2043 195.963 35.5067 196.203 35.7685C196.442 36.0287 196.715 36.2432 197.027 36.4121C197.336 36.5793 197.674 36.706 198.041 36.7905C198.408 36.875 198.782 36.9172 199.162 36.9172C199.436 36.9172 199.719 36.8935 200.011 36.8445C200.304 36.7956 200.569 36.7077 200.808 36.5793C201.046 36.451 201.244 36.2787 201.398 36.0625C201.554 35.8462 201.63 35.5692 201.63 35.2347C201.63 34.8817 201.542 34.5895 201.364 34.3597C201.187 34.13 200.946 33.9374 200.64 33.7837C200.336 33.6283 199.986 33.5016 199.592 33.3986C199.198 33.2972 198.78 33.2027 198.337 33.1131C197.771 32.9898 197.197 32.8496 196.619 32.6959C196.039 32.5405 195.52 32.3158 195.06 32.0202C194.6 31.7246 194.225 31.3293 193.932 30.8344C193.639 30.3395 193.494 29.6942 193.494 28.8986C193.494 28.1655 193.648 27.5287 193.959 26.9898C194.268 26.451 194.673 26.005 195.173 25.6503C195.674 25.2972 196.239 25.032 196.871 24.8547C197.503 24.6773 198.143 24.5895 198.789 24.5895C199.355 24.5895 199.93 24.6452 200.514 24.755C201.097 24.8648 201.648 25.0439 202.166 25.2922C202.683 25.5388 203.152 25.8597 203.573 26.2533C203.992 26.6469 204.318 27.1216 204.548 27.679L202.027 28.7652C201.885 28.4476 201.699 28.1807 201.469 27.9628C201.239 27.7466 200.982 27.5675 200.7 27.4256C200.417 27.2837 200.12 27.1824 199.81 27.1216C199.501 27.0591 199.2 27.0287 198.907 27.0287C198.625 27.0287 198.349 27.0574 198.084 27.1148C197.818 27.1722 197.581 27.2652 197.373 27.3935C197.165 27.5219 197 27.6874 196.876 27.8902C196.753 28.0929 196.69 28.3412 196.69 28.6317C196.69 28.9594 196.771 29.2263 196.935 29.4341C197.099 29.6418 197.321 29.8141 197.598 29.951C197.877 30.0878 198.207 30.201 198.587 30.2888C198.968 30.3766 199.37 30.4611 199.795 30.5405C200.378 30.6554 200.972 30.7871 201.572 30.9374C202.174 31.0878 202.72 31.3124 203.211 31.6131C203.701 31.9138 204.102 32.3175 204.411 32.826C204.721 33.3344 204.876 34.0033 204.876 34.8344C204.876 35.6655 204.714 36.3699 204.393 36.9493C204.07 37.5287 203.64 37.9949 203.106 38.3479C202.57 38.701 201.958 38.9577 201.268 39.1165C200.578 39.2753 199.861 39.3547 199.118 39.3547C198.491 39.3547 197.862 39.2972 197.235 39.1824C196.607 39.0675 196.019 38.8783 195.469 38.6131C194.921 38.3479 194.433 37.9983 194.003 37.5658C193.573 37.1334 193.249 36.5979 193.027 35.9611L195.645 34.8597Z" fill="black"/>
<path d="M60.0645 13.5389L66.3164 4.51521H60.697V2.7348H69.2588V3.62163L63.1592 12.6453H69.0829V14.4257H60.0662V13.5389H60.0645Z" fill="black"/>
<path d="M69.8253 10.1689C69.8253 9.49833 69.9538 8.88684 70.2126 8.33617C70.4713 7.78549 70.818 7.31421 71.2559 6.92232C71.6922 6.53043 72.1996 6.22806 72.7779 6.01184C73.3562 5.79563 73.9684 5.68921 74.6127 5.68921C75.2621 5.68921 75.8675 5.79732 76.4272 6.01184C76.9869 6.22806 77.4723 6.53043 77.8866 6.92232C78.3009 7.31421 78.6239 7.78211 78.8573 8.32772C79.0923 8.87333 79.209 9.47299 79.209 10.1284C79.209 10.799 79.0855 11.4088 78.842 11.9578C78.5968 12.5068 78.262 12.9747 77.8392 13.3632C77.4148 13.7517 76.9193 14.0524 76.3477 14.2652C75.7778 14.4781 75.1691 14.5845 74.5248 14.5845C73.8754 14.5845 73.2632 14.4764 72.69 14.2618C72.1167 14.0456 71.6195 13.745 71.1951 13.3547C70.7706 12.9662 70.4375 12.5017 70.1923 11.9612C69.9471 11.4206 69.8253 10.8227 69.8253 10.1689ZM74.5806 13.0102C75.0067 13.0102 75.3737 12.9308 75.6798 12.7703C75.9858 12.6098 76.2378 12.3987 76.4357 12.1352C76.6335 11.8716 76.7789 11.5676 76.8719 11.2213C76.965 10.875 77.0123 10.5152 77.0123 10.1436C77.0123 9.75002 76.9616 9.3784 76.8601 9.03043C76.7587 8.68245 76.6048 8.37502 76.4001 8.11151C76.1955 7.84799 75.9385 7.64022 75.629 7.4882C75.3196 7.33617 74.9543 7.26016 74.5332 7.26016C74.102 7.26016 73.7317 7.33955 73.4256 7.50002C73.1195 7.66049 72.8692 7.87333 72.6781 8.1436C72.487 8.41218 72.345 8.72468 72.2554 9.07772C72.164 9.43245 72.1201 9.80576 72.1201 10.1993C72.1201 10.5777 72.1708 10.9375 72.2723 11.277C72.3737 11.6166 72.5259 11.9156 72.7322 12.1706C72.9369 12.4257 73.1939 12.6301 73.5 12.7821C73.8044 12.9358 74.1663 13.0102 74.5806 13.0102Z" fill="black"/>
<path d="M80.7056 2H82.7518V7.22973C82.8904 6.96284 83.0612 6.73311 83.2675 6.53885C83.4721 6.34459 83.6987 6.18412 83.9473 6.05912C84.1942 5.93412 84.4614 5.84122 84.7472 5.78041C85.033 5.71959 85.3222 5.68919 85.6147 5.68919C86.1271 5.68919 86.5735 5.77365 86.9574 5.94426C87.3413 6.11487 87.6609 6.34966 87.9162 6.65034C88.1716 6.95101 88.3644 7.30743 88.4912 7.7196C88.6197 8.13176 88.6823 8.58277 88.6823 9.07264V14.4223H86.6192V9.27365C86.6192 8.65541 86.4636 8.18412 86.1508 7.8598C85.8379 7.53547 85.3847 7.37331 84.7878 7.37331C84.1266 7.37331 83.6226 7.55743 83.2726 7.92905C82.9225 8.30068 82.7484 8.79054 82.7484 9.40203V14.424H80.7022V2H80.7056Z" fill="black"/>
<path d="M90.0098 10.1689C90.0098 9.49833 90.1383 8.88684 90.397 8.33617C90.6558 7.78549 91.0024 7.31421 91.4404 6.92232C91.8767 6.53043 92.384 6.22806 92.9624 6.01184C93.5407 5.79563 94.1529 5.68921 94.7971 5.68921C95.4465 5.68921 96.0519 5.79732 96.6117 6.01184C97.1714 6.22806 97.6567 6.53043 98.071 6.92232C98.4853 7.31421 98.8083 7.78211 99.0417 8.32772C99.2768 8.87333 99.3934 9.47299 99.3934 10.1284C99.3934 10.799 99.27 11.4088 99.0265 11.9578C98.7813 12.5068 98.4465 12.9747 98.0237 13.3632C97.5992 13.7517 97.1038 14.0524 96.5322 14.2652C95.9623 14.4781 95.3535 14.5845 94.7092 14.5845C94.0599 14.5845 93.4477 14.4764 92.8744 14.2618C92.3011 14.0456 91.804 13.745 91.3795 13.3547C90.9551 12.9662 90.6219 12.5017 90.3767 11.9612C90.1315 11.4206 90.0098 10.8227 90.0098 10.1689ZM94.7667 13.0102C95.1929 13.0102 95.5598 12.9308 95.8659 12.7703C96.172 12.6098 96.424 12.3987 96.6218 12.1352C96.8197 11.8716 96.9651 11.5676 97.0581 11.2213C97.1511 10.875 97.1984 10.5152 97.1984 10.1436C97.1984 9.75002 97.1477 9.3784 97.0463 9.03043C96.9448 8.68245 96.7909 8.37502 96.5863 8.11151C96.3817 7.84799 96.1246 7.64022 95.8152 7.4882C95.5057 7.33617 95.1404 7.26016 94.7194 7.26016C94.2881 7.26016 93.9178 7.33955 93.6117 7.50002C93.3056 7.66049 93.0554 7.87333 92.8643 8.1436C92.6732 8.41218 92.5311 8.72468 92.4415 9.07772C92.3502 9.43245 92.3062 9.80576 92.3062 10.1993C92.3062 10.5777 92.357 10.9375 92.4584 11.277C92.5599 11.6166 92.7121 11.9156 92.9184 12.1706C93.123 12.4257 93.38 12.6301 93.6861 12.7821C93.9888 12.9358 94.3507 13.0102 94.7667 13.0102Z" fill="black"/>
</svg>
