<?xml version="1.0" encoding="UTF-8"?>
<svg id="Layer_1" data-name="Layer 1" xmlns="http://www.w3.org/2000/svg" viewBox="0 0 1000 296">
  <defs>
    
  </defs>
  <g>
    <g>
      <path d="M452.78,224.06c-.73,2.2-1.58,4.28-2.55,6.24-.97,1.96-2.05,3.82-3.26,5.57-1.2,1.75-2.51,3.41-3.92,4.98-1.41,1.57-2.92,3.01-4.51,4.32-1.6,1.31-3.28,2.53-5.06,3.65-1.78,1.13-3.61,2.13-5.49,3.02-1.88.89-3.84,1.67-5.89,2.35-2.04.68-4.11,1.24-6.2,1.69-2.09.44-4.24.78-6.43,1.02-2.2.24-4.39.35-6.59.35-3.71,0-7.26-.24-10.63-.71s-6.57-1.15-9.57-2.04c-3.01-.89-5.85-1.99-8.51-3.3s-5.17-2.81-7.49-4.51c-2.33-1.7-4.46-3.6-6.4-5.69-1.94-2.09-3.69-4.34-5.26-6.75-1.57-2.41-2.96-5-4.16-7.77-1.2-2.77-2.2-5.69-2.98-8.75-.78-3.06-1.39-6.26-1.8-9.61-.42-3.35-.63-6.83-.63-10.44,0-3.3.22-6.51.67-9.65.44-3.14,1.1-6.17,1.96-9.1.86-2.93,1.93-5.74,3.22-8.44,1.28-2.69,2.75-5.24,4.39-7.65,1.65-2.41,3.47-4.67,5.45-6.79,1.99-2.12,4.15-4.05,6.47-5.81s4.8-3.32,7.42-4.71c2.62-1.39,5.38-2.55,8.28-3.49,2.9-.94,5.94-1.66,9.1-2.16,3.16-.5,6.45-.75,9.85-.75,2.2,0,4.34.11,6.43.31,2.09.21,4.16.52,6.2.94,2.04.42,4.03.94,5.96,1.57,1.93.63,3.82,1.35,5.65,2.16,1.83.81,3.61,1.74,5.34,2.79,1.73,1.05,3.38,2.19,4.94,3.41,1.57,1.23,3.06,2.58,4.47,4.04,1.41,1.47,2.75,3.02,4,4.67,1.26,1.65,2.41,3.4,3.45,5.26,1.05,1.86,2.01,3.81,2.9,5.85l-18.36,7.77c-.47-1.26-1.02-2.47-1.65-3.65-.63-1.18-1.31-2.31-2.04-3.41-.73-1.1-1.52-2.14-2.35-3.14-.84-.99-1.73-1.92-2.67-2.79-.94-.86-1.94-1.67-2.98-2.43-1.05-.76-2.12-1.45-3.22-2.08-1.1-.63-2.25-1.19-3.45-1.69-1.2-.5-2.45-.9-3.73-1.22-1.28-.31-2.59-.56-3.92-.75-1.33-.18-2.68-.27-4.04-.27-2.41,0-4.7.2-6.87.59-2.17.39-4.19.97-6.04,1.73-1.86.76-3.6,1.67-5.22,2.75-1.62,1.07-3.11,2.28-4.47,3.61s-2.59,2.79-3.69,4.36-2.09,3.24-2.98,5.02c-.89,1.78-1.65,3.62-2.28,5.53-.63,1.91-1.15,3.87-1.57,5.88-.42,2.01-.73,4.08-.94,6.2-.21,2.12-.31,4.23-.31,6.32,0,2.2.1,4.37.31,6.51.21,2.15.55,4.23,1.02,6.24.47,2.01,1.03,3.96,1.69,5.85.65,1.88,1.44,3.68,2.35,5.38.92,1.7,1.95,3.29,3.1,4.79,1.15,1.49,2.42,2.88,3.81,4.16,1.38,1.28,2.9,2.42,4.55,3.41,1.65,1,3.41,1.83,5.3,2.51,1.88.68,3.88,1.2,6,1.57,2.12.37,4.38.55,6.79.55,1.52,0,2.99-.09,4.43-.27,1.44-.18,2.83-.44,4.16-.78,1.33-.34,2.63-.77,3.88-1.29,1.25-.52,2.46-1.11,3.61-1.77,1.15-.65,2.25-1.39,3.3-2.2,1.05-.81,2.05-1.69,3.02-2.63.97-.94,1.87-1.93,2.71-2.98.84-1.05,1.63-2.16,2.39-3.33.76-1.18,1.45-2.42,2.08-3.73.63-1.31,1.2-2.64,1.73-4l17.73,7.61Z"></path>
      <path d="M516.66,245.4c-.63.84-1.29,1.64-2,2.39-.71.76-1.43,1.47-2.16,2.12-.73.65-1.5,1.26-2.32,1.8-.81.55-1.64,1.06-2.47,1.53-.84.47-1.7.89-2.59,1.26-.89.37-1.79.71-2.71,1.02-.92.31-1.86.58-2.83.79-.97.21-1.94.38-2.9.51-.97.13-1.96.24-2.98.31-1.02.08-2.05.12-3.1.12-1.57,0-3.11-.08-4.63-.24s-2.97-.39-4.35-.71c-1.39-.31-2.73-.72-4.04-1.22-1.31-.5-2.54-1.07-3.69-1.73-1.15-.65-2.24-1.39-3.26-2.2-1.02-.81-1.96-1.7-2.83-2.67-.86-.97-1.62-2.03-2.28-3.18-.66-1.15-1.22-2.38-1.69-3.69-.47-1.31-.82-2.71-1.06-4.2-.24-1.49-.35-3.05-.35-4.67,0-2.35.24-4.5.71-6.43.47-1.93,1.14-3.71,2-5.34.86-1.62,1.91-3.07,3.14-4.36,1.23-1.28,2.59-2.43,4.08-3.45,1.49-1.02,3.1-1.91,4.83-2.67,1.73-.76,3.53-1.41,5.41-1.96,1.88-.55,3.83-1.01,5.85-1.37,2.01-.37,4.04-.65,6.08-.86,2.04-.21,4.08-.35,6.12-.43,2.04-.08,4.03-.12,5.96-.12h9.89v-1.33c0-1.2-.03-2.35-.08-3.45-.05-1.1-.16-2.16-.31-3.18s-.35-1.99-.59-2.9c-.24-.92-.52-1.77-.86-2.55-.34-.78-.76-1.52-1.25-2.2-.5-.68-1.06-1.31-1.69-1.88-.63-.58-1.32-1.07-2.08-1.49-.76-.42-1.62-.77-2.59-1.06-.97-.29-2.03-.51-3.18-.67-1.15-.16-2.41-.24-3.77-.24-.84,0-1.65.04-2.43.12-.78.08-1.57.21-2.35.39-.79.18-1.54.39-2.28.63s-1.45.52-2.16.86c-.71.34-1.39.71-2.04,1.1s-1.28.84-1.88,1.33c-.6.5-1.18,1.02-1.73,1.57-.55.55-1.06,1.14-1.53,1.77s-.89,1.29-1.26,2c-.37.71-.71,1.45-1.02,2.24l-15.62-6.75c.58-1.46,1.24-2.85,2-4.16.76-1.31,1.6-2.52,2.51-3.65.91-1.12,1.91-2.16,2.98-3.1,1.07-.94,2.21-1.82,3.41-2.63,1.2-.81,2.46-1.53,3.77-2.16,1.31-.63,2.65-1.19,4.04-1.69,1.39-.5,2.8-.93,4.24-1.29,1.44-.37,2.9-.67,4.39-.9s2.98-.4,4.47-.51c1.49-.1,2.99-.16,4.51-.16,1.99,0,3.91.09,5.77.27,1.86.18,3.66.47,5.41.86,1.75.39,3.41.89,4.98,1.49,1.57.6,3.06,1.31,4.47,2.12,1.41.81,2.73,1.71,3.96,2.71,1.23.99,2.34,2.11,3.33,3.33.99,1.23,1.88,2.58,2.67,4.04.79,1.47,1.45,3.04,2,4.71.55,1.67.97,3.45,1.26,5.34.29,1.88.43,3.9.43,6.04v54.93h-19.78v-10.28ZM506.38,218.09c-.94,0-1.92.01-2.94.04-1.02.03-2.05.08-3.1.16-1.05.08-2.12.2-3.22.35-1.1.16-2.17.37-3.22.63-1.05.26-2.05.58-3.02.94-.97.37-1.88.81-2.75,1.33-.86.52-1.65,1.11-2.35,1.77-.71.66-1.31,1.41-1.81,2.28s-.89,1.82-1.18,2.86c-.29,1.05-.43,2.2-.43,3.45,0,.79.05,1.54.16,2.28.1.73.27,1.4.51,2s.51,1.16.82,1.69c.31.52.67,1,1.06,1.41.39.42.84.81,1.33,1.18.5.37,1.02.68,1.57.94.55.26,1.14.5,1.77.71s1.27.38,1.92.51c.65.13,1.35.22,2.08.27.73.05,1.46.08,2.2.08,1.05,0,2.07-.05,3.06-.16.99-.1,1.99-.26,2.98-.47.99-.21,1.96-.48,2.9-.82.94-.34,1.86-.73,2.75-1.18.89-.44,1.73-.94,2.51-1.49.79-.55,1.5-1.15,2.16-1.8.65-.65,1.26-1.37,1.8-2.16.55-.79,1.01-1.62,1.37-2.51.37-.89.65-1.84.86-2.86.21-1.02.31-2.1.31-3.26v-8.16h-10.12Z"></path>
      <path d="M557.62,171.64h20.09v12.87c.52-.94,1.08-1.86,1.69-2.75.6-.89,1.24-1.73,1.92-2.51.68-.79,1.41-1.52,2.2-2.2.79-.68,1.6-1.31,2.43-1.88.84-.57,1.71-1.11,2.63-1.61.92-.5,1.86-.94,2.83-1.33.97-.39,1.95-.75,2.94-1.06.99-.31,2.01-.56,3.06-.75,1.05-.18,2.11-.33,3.18-.43,1.07-.1,2.16-.16,3.26-.16s2.08.05,3.1.16c1.02.11,2.03.25,3.02.43.99.18,1.97.42,2.94.71.97.29,1.92.62,2.86.98.94.37,1.84.8,2.71,1.29.86.5,1.69,1.05,2.47,1.65.79.6,1.53,1.26,2.24,1.96s1.37,1.46,2,2.28c.63.81,1.19,1.67,1.69,2.59.5.92.95,1.9,1.37,2.94.63-.94,1.31-1.86,2.04-2.75.73-.89,1.5-1.73,2.32-2.51.81-.78,1.66-1.52,2.55-2.2.89-.68,1.8-1.32,2.75-1.92.94-.6,1.92-1.16,2.94-1.69,1.02-.52,2.05-.99,3.1-1.41,1.05-.42,2.13-.79,3.26-1.1,1.12-.31,2.25-.58,3.37-.79,1.12-.21,2.28-.37,3.45-.47,1.18-.1,2.37-.16,3.57-.16,1.93,0,3.77.14,5.49.43,1.73.29,3.35.69,4.87,1.22,1.52.52,2.94,1.16,4.28,1.92,1.33.76,2.56,1.62,3.69,2.59,1.12.97,2.16,2.04,3.1,3.22.94,1.18,1.79,2.43,2.55,3.77.76,1.33,1.41,2.76,1.96,4.28.55,1.52,1.01,3.09,1.37,4.71.37,1.62.64,3.32.82,5.1.18,1.78.28,3.58.28,5.41v53.2h-20.01v-51.95c0-1.05-.05-2.05-.16-3.02-.11-.97-.26-1.9-.47-2.79-.21-.89-.47-1.74-.78-2.55-.31-.81-.69-1.57-1.14-2.28-.44-.71-.93-1.36-1.45-1.96-.52-.6-1.11-1.15-1.77-1.65-.66-.5-1.35-.94-2.08-1.33s-1.53-.72-2.39-.98c-.86-.26-1.78-.46-2.75-.59-.97-.13-1.98-.2-3.02-.2-1.15,0-2.26.08-3.33.24-1.07.16-2.08.39-3.02.71-.94.31-1.83.68-2.67,1.1-.84.42-1.62.92-2.35,1.49-.73.58-1.41,1.2-2.04,1.88-.63.68-1.18,1.41-1.65,2.2-.47.78-.9,1.61-1.29,2.47-.39.86-.71,1.78-.94,2.75-.24.97-.42,1.96-.55,2.98-.13,1.02-.2,2.08-.2,3.18v50.3h-20.09v-51.95c0-1.05-.05-2.05-.16-3.02-.11-.97-.26-1.9-.47-2.79-.21-.89-.48-1.74-.82-2.55-.34-.81-.72-1.57-1.14-2.28-.42-.71-.89-1.36-1.41-1.96-.52-.6-1.11-1.15-1.77-1.65-.66-.5-1.36-.94-2.12-1.33-.76-.39-1.56-.72-2.39-.98-.84-.26-1.74-.46-2.71-.59-.97-.13-2-.2-3.1-.2s-2.26.08-3.33.24c-1.07.16-2.08.39-3.02.71-.94.31-1.83.68-2.67,1.1-.84.42-1.62.92-2.35,1.49-.73.58-1.4,1.2-2,1.88-.6.68-1.15,1.41-1.65,2.2-.5.78-.93,1.61-1.29,2.47-.37.86-.68,1.78-.94,2.75-.26.97-.46,1.96-.59,2.98-.13,1.02-.2,2.08-.2,3.18v50.3h-20.09v-84.04Z"></path>
      <path d="M707.19,171.64h20.09v13.58c.58-.99,1.22-1.93,1.92-2.83.71-.89,1.45-1.74,2.24-2.55.79-.81,1.62-1.57,2.51-2.28s1.81-1.37,2.75-2,1.92-1.2,2.94-1.73c1.02-.52,2.07-.99,3.14-1.41,1.07-.42,2.16-.79,3.26-1.1s2.2-.59,3.3-.82,2.22-.4,3.37-.51c1.15-.1,2.28-.16,3.38-.16,2.56,0,5,.2,7.3.59,2.3.39,4.47.97,6.51,1.73,2.04.76,3.95,1.67,5.73,2.75,1.78,1.07,3.43,2.29,4.94,3.65s2.9,2.85,4.16,4.47c1.26,1.62,2.39,3.33,3.41,5.14,1.02,1.8,1.9,3.7,2.63,5.69.73,1.99,1.35,4.05,1.84,6.2.5,2.15.88,4.33,1.14,6.55.26,2.22.39,4.49.39,6.79s-.13,4.67-.39,6.95c-.26,2.28-.65,4.5-1.18,6.67-.52,2.17-1.17,4.26-1.92,6.28-.76,2.01-1.66,3.94-2.71,5.77-1.05,1.83-2.2,3.54-3.45,5.14-1.25,1.6-2.64,3.07-4.16,4.43-1.52,1.36-3.14,2.58-4.87,3.65-1.73,1.07-3.58,1.97-5.57,2.71-1.99.73-4.09,1.29-6.32,1.69-2.22.39-4.54.59-6.95.59-1.15,0-2.31-.05-3.49-.16-1.18-.11-2.35-.25-3.53-.43-1.18-.18-2.33-.42-3.45-.71-1.13-.29-2.22-.63-3.3-1.02-1.07-.39-2.13-.82-3.18-1.29-1.05-.47-2.05-1.01-3.02-1.61-.97-.6-1.9-1.24-2.79-1.92-.89-.68-1.73-1.41-2.51-2.2s-1.52-1.63-2.2-2.55c-.68-.91-1.31-1.87-1.88-2.86v41.98h-20.09v-112.84ZM750.5,241.55c1.78,0,3.43-.13,4.94-.39,1.52-.26,2.93-.63,4.24-1.1,1.31-.47,2.5-1.06,3.57-1.77,1.07-.71,2.05-1.5,2.94-2.39.89-.89,1.69-1.86,2.39-2.9.71-1.05,1.32-2.16,1.84-3.33.52-1.18.98-2.42,1.37-3.73.39-1.31.71-2.67.94-4.08.24-1.41.4-2.86.51-4.36.1-1.49.16-3.02.16-4.59,0-1.41-.07-2.81-.2-4.2-.13-1.38-.35-2.75-.67-4.08-.31-1.33-.69-2.63-1.14-3.88-.45-1.25-.97-2.46-1.57-3.61-.6-1.15-1.28-2.24-2.04-3.26-.76-1.02-1.6-1.96-2.51-2.83-.92-.86-1.94-1.63-3.06-2.31-1.12-.68-2.33-1.26-3.61-1.73-1.28-.47-2.66-.84-4.12-1.1-1.46-.26-3.01-.39-4.63-.39s-3.24.13-4.71.39c-1.46.26-2.83.63-4.08,1.1-1.26.47-2.43,1.06-3.53,1.77s-2.11,1.5-3.02,2.39c-.92.89-1.75,1.86-2.51,2.9-.76,1.05-1.43,2.16-2,3.33-.58,1.18-1.09,2.42-1.53,3.73-.45,1.31-.81,2.66-1.1,4.04-.29,1.39-.5,2.81-.63,4.28-.13,1.46-.2,2.96-.2,4.47s.08,3.1.24,4.59c.16,1.49.38,2.92.67,4.28.29,1.36.65,2.68,1.1,3.96.44,1.28.98,2.5,1.61,3.65.63,1.15,1.32,2.22,2.08,3.22.76.99,1.62,1.9,2.59,2.71.97.81,2.01,1.54,3.14,2.2,1.12.66,2.33,1.2,3.61,1.65,1.28.45,2.67.78,4.16,1.02,1.49.24,3.07.35,4.75.35Z"></path>
      <path d="M866.96,242.5c-.52,1-1.1,1.95-1.73,2.86-.63.92-1.31,1.78-2.04,2.59-.73.81-1.5,1.56-2.31,2.24-.81.68-1.67,1.32-2.59,1.92-.92.6-1.86,1.14-2.83,1.61-.97.47-1.96.9-2.98,1.29-1.02.39-2.07.72-3.14.98-1.07.26-2.16.48-3.26.67s-2.22.33-3.37.43c-1.15.1-2.3.16-3.45.16-1.94,0-3.78-.13-5.53-.39-1.75-.26-3.4-.63-4.94-1.1s-3.01-1.06-4.39-1.77c-1.39-.71-2.67-1.52-3.85-2.43-1.18-.91-2.26-1.93-3.26-3.06-.99-1.12-1.9-2.33-2.71-3.61-.81-1.28-1.52-2.65-2.12-4.12-.6-1.46-1.1-3.02-1.49-4.67-.39-1.65-.69-3.36-.9-5.14-.21-1.78-.31-3.61-.31-5.49v-53.83h20.09v51.4c0,1.15.05,2.25.16,3.3.1,1.05.26,2.05.47,3.02.21.97.48,1.88.82,2.75.34.86.73,1.67,1.18,2.43.44.76.94,1.45,1.49,2.08.55.63,1.15,1.2,1.8,1.73.65.52,1.39.98,2.2,1.37.81.39,1.67.73,2.59,1.02.91.29,1.9.5,2.94.63,1.05.13,2.14.2,3.3.2,1.26,0,2.46-.08,3.61-.24,1.15-.16,2.25-.39,3.3-.71,1.05-.31,2.04-.69,2.98-1.14s1.82-.95,2.63-1.53c.81-.58,1.57-1.22,2.28-1.92s1.33-1.46,1.88-2.28c.55-.81,1.05-1.69,1.49-2.63s.81-1.92,1.1-2.94c.29-1.02.51-2.09.67-3.22.16-1.12.24-2.29.24-3.49v-49.83h20.01v84.04h-20.01v-13.18Z"></path>
      <path d="M917.88,230.65c.31.84.68,1.62,1.1,2.35.42.73.89,1.43,1.41,2.08.52.65,1.07,1.27,1.65,1.84.58.58,1.2,1.1,1.88,1.57.68.47,1.38.92,2.12,1.33.73.42,1.49.79,2.28,1.1.78.31,1.59.59,2.43.82.84.24,1.69.43,2.55.59.86.16,1.75.27,2.67.35.92.08,1.82.12,2.71.12.63,0,1.28-.03,1.96-.08.68-.05,1.36-.12,2.04-.2.68-.08,1.35-.2,2-.35.65-.16,1.29-.35,1.92-.59.63-.24,1.23-.5,1.81-.78.57-.29,1.11-.63,1.61-1.02.5-.39.94-.82,1.33-1.29s.73-.99,1.02-1.57c.29-.58.51-1.2.67-1.88.16-.68.24-1.41.24-2.2,0-.84-.09-1.61-.28-2.32-.18-.71-.43-1.37-.75-2s-.72-1.19-1.22-1.69c-.5-.5-1.05-.97-1.65-1.41-.6-.44-1.26-.85-1.96-1.22-.71-.37-1.46-.69-2.28-.98-.81-.29-1.66-.56-2.55-.82-.89-.26-1.82-.51-2.79-.75-.97-.24-1.95-.47-2.94-.71-.99-.24-2.01-.46-3.06-.67-1.36-.26-2.72-.55-4.08-.86-1.36-.31-2.72-.65-4.08-1.02-1.36-.37-2.7-.77-4-1.22s-2.56-.94-3.77-1.49c-1.2-.55-2.35-1.18-3.45-1.88-1.1-.71-2.12-1.5-3.06-2.39s-1.79-1.87-2.55-2.94c-.76-1.07-1.41-2.26-1.96-3.57-.55-1.31-.97-2.76-1.25-4.36-.29-1.59-.43-3.33-.43-5.22,0-1.73.16-3.36.47-4.9.31-1.54.76-3,1.33-4.36.58-1.36,1.27-2.64,2.08-3.85.81-1.2,1.73-2.31,2.75-3.33s2.13-1.95,3.33-2.79c1.2-.84,2.46-1.6,3.77-2.28,1.31-.68,2.68-1.27,4.12-1.77,1.44-.5,2.89-.91,4.35-1.25,1.46-.34,2.97-.59,4.51-.75,1.54-.16,3.07-.24,4.59-.24,1.36,0,2.72.05,4.08.16,1.36.11,2.72.26,4.08.47,1.36.21,2.71.48,4.04.82,1.33.34,2.65.73,3.96,1.18,1.31.45,2.58.96,3.81,1.53,1.23.58,2.42,1.23,3.57,1.96,1.15.73,2.24,1.53,3.26,2.39s1.97,1.79,2.86,2.79c.89,1,1.7,2.08,2.43,3.26.73,1.18,1.39,2.42,1.96,3.73l-14.91,6.43c-.31-.73-.69-1.42-1.14-2.08-.45-.65-.92-1.27-1.41-1.84-.5-.57-1.03-1.1-1.61-1.57-.58-.47-1.16-.91-1.77-1.33-.6-.42-1.24-.78-1.92-1.1-.68-.31-1.37-.6-2.08-.86-.71-.26-1.41-.48-2.12-.67-.71-.18-1.43-.34-2.16-.47-.73-.13-1.45-.22-2.16-.27-.71-.05-1.4-.08-2.08-.08s-1.35.03-2,.08c-.66.05-1.29.13-1.92.24-.63.11-1.24.25-1.84.43-.6.18-1.18.39-1.73.63-.55.24-1.07.51-1.57.82-.5.31-.96.65-1.37,1.02-.42.37-.78.77-1.1,1.22-.31.44-.59.93-.82,1.45-.24.52-.42,1.09-.55,1.69-.13.6-.2,1.24-.2,1.92,0,.78.08,1.5.24,2.16.16.66.39,1.26.71,1.81.31.55.69,1.05,1.14,1.49.44.45.94.86,1.49,1.26.55.39,1.15.76,1.8,1.1.65.34,1.36.64,2.12.9.76.26,1.57.51,2.43.75.86.24,1.75.46,2.67.67.92.21,1.86.41,2.83.59.97.18,1.95.38,2.94.59,1.36.26,2.75.54,4.16.82,1.41.29,2.83.6,4.24.94,1.41.34,2.8.73,4.16,1.18,1.36.45,2.68.94,3.96,1.49,1.28.55,2.5,1.19,3.65,1.92,1.15.73,2.24,1.54,3.26,2.43,1.02.89,1.93,1.88,2.75,2.98.81,1.1,1.5,2.34,2.08,3.73.58,1.39,1.02,2.9,1.33,4.55.31,1.65.47,3.44.47,5.38s-.16,3.84-.47,5.57c-.31,1.73-.77,3.33-1.37,4.83s-1.33,2.86-2.2,4.12c-.86,1.25-1.83,2.41-2.9,3.45-1.07,1.05-2.25,1.99-3.53,2.83-1.28.84-2.63,1.58-4.04,2.24-1.41.66-2.9,1.22-4.47,1.69s-3.18.86-4.83,1.18c-1.65.31-3.33.54-5.06.67-1.73.13-3.45.2-5.18.2-1.46,0-2.96-.05-4.47-.16-1.52-.11-3.01-.26-4.47-.47-1.46-.21-2.92-.5-4.36-.86-1.44-.37-2.85-.78-4.24-1.25-1.39-.47-2.73-1.02-4.04-1.65-1.31-.63-2.56-1.33-3.77-2.12-1.2-.79-2.33-1.65-3.38-2.59-1.05-.94-2.03-1.97-2.94-3.1-.92-1.12-1.74-2.34-2.47-3.65-.73-1.31-1.36-2.72-1.88-4.24l15.46-6.51Z"></path>
    </g>
    <g>
      <path d="M351.47,104.43l36.97-53.42h-33.23v-10.54h50.63v5.25l-36.07,53.42h35.03v10.54h-53.32v-5.25Z"></path>
      <path d="M409.19,84.48c0-1.58.12-3.1.38-4.58.25-1.48.62-2.9,1.11-4.25.49-1.35,1.07-2.65,1.75-3.88.68-1.23,1.46-2.39,2.34-3.47.88-1.09,1.84-2.1,2.88-3.03s2.14-1.78,3.31-2.55,2.4-1.45,3.71-2.03c1.31-.58,2.65-1.08,4.04-1.49,1.39-.41,2.82-.72,4.3-.92,1.48-.21,2.98-.31,4.49-.31s3.04.1,4.49.31c1.45.21,2.86.51,4.23.92,1.37.41,2.68.92,3.92,1.51s2.43,1.28,3.55,2.06c1.12.77,2.17,1.62,3.14,2.53.98.91,1.88,1.91,2.69,3,.82,1.09,1.54,2.24,2.17,3.45.63,1.21,1.17,2.49,1.61,3.83.44,1.34.78,2.73,1.02,4.18.24,1.45.36,2.95.36,4.49s-.12,3.14-.36,4.61c-.24,1.46-.58,2.88-1.04,4.23-.46,1.36-1.03,2.65-1.7,3.88-.68,1.23-1.43,2.38-2.27,3.45-.83,1.07-1.76,2.07-2.76,3-1.01.93-2.09,1.77-3.24,2.53-1.15.76-2.36,1.43-3.62,2.01-1.26.58-2.58,1.07-3.97,1.47s-2.81.69-4.28.9c-1.47.21-2.96.31-4.47.31s-3.05-.1-4.51-.31c-1.46-.21-2.89-.51-4.28-.92s-2.72-.91-3.99-1.49-2.49-1.26-3.64-2.03c-1.15-.77-2.23-1.61-3.24-2.53-1.01-.91-1.94-1.91-2.79-2.98s-1.61-2.21-2.27-3.43c-.66-1.21-1.22-2.48-1.68-3.8-.46-1.32-.8-2.71-1.04-4.16-.24-1.45-.35-2.95-.35-4.49ZM437.32,101.31c1.01,0,1.96-.08,2.86-.24.9-.16,1.74-.39,2.53-.69.79-.3,1.51-.66,2.17-1.09.66-.43,1.28-.9,1.84-1.42.57-.52,1.09-1.09,1.56-1.72s.89-1.3,1.25-2.01.68-1.46.95-2.25c.27-.79.5-1.59.69-2.41.19-.82.32-1.66.4-2.53.08-.87.12-1.74.12-2.62,0-.95-.05-1.86-.14-2.74-.09-.88-.24-1.75-.42-2.6-.19-.85-.43-1.67-.71-2.46-.28-.79-.62-1.54-1.02-2.25-.39-.71-.84-1.37-1.32-1.99-.49-.61-1.02-1.18-1.61-1.7-.58-.52-1.21-.98-1.89-1.39-.68-.41-1.41-.76-2.2-1.04-.79-.28-1.63-.5-2.53-.66-.9-.16-1.84-.24-2.81-.24s-1.96.08-2.86.24c-.9.16-1.74.39-2.53.69-.79.3-1.52.66-2.2,1.09-.68.43-1.29.91-1.84,1.44s-1.06,1.13-1.54,1.77c-.47.65-.88,1.33-1.23,2.06-.35.72-.66,1.48-.92,2.27-.27.79-.49,1.62-.66,2.48-.17.87-.3,1.75-.38,2.65-.08.9-.12,1.8-.12,2.72s.05,1.76.14,2.65c.09.88.24,1.73.43,2.55.19.82.43,1.61.73,2.36.3.76.64,1.48,1.02,2.17.38.69.81,1.35,1.3,1.96.49.62,1.02,1.17,1.61,1.68.58.5,1.21.96,1.89,1.37.68.41,1.4.76,2.17,1.04.77.28,1.6.5,2.48.64.88.14,1.81.21,2.79.21Z"></path>
      <path d="M473.53,36.12h12.1v30.96c.31-.63.67-1.22,1.06-1.77.39-.55.82-1.08,1.28-1.58.46-.5.94-.97,1.44-1.39.5-.43,1.03-.82,1.58-1.18.55-.36,1.12-.69,1.7-.99.58-.3,1.19-.57,1.82-.8.63-.24,1.27-.44,1.92-.61.65-.17,1.31-.32,1.99-.43.68-.11,1.36-.2,2.06-.26s1.39-.09,2.08-.09c1.2,0,2.35.09,3.45.26,1.1.17,2.13.42,3.1.73.96.32,1.87.7,2.72,1.16.85.46,1.64.99,2.36,1.58s1.39,1.25,1.99,1.96c.6.71,1.14,1.47,1.63,2.29.49.82.91,1.69,1.28,2.62.36.93.66,1.9.9,2.91.24,1.01.42,2.06.54,3.14.13,1.09.19,2.21.19,3.38v31.67h-12.2v-30.49c0-.72-.04-1.42-.12-2.08-.08-.66-.19-1.29-.33-1.89-.14-.6-.32-1.16-.54-1.68-.22-.52-.48-1.01-.78-1.47-.3-.46-.63-.87-.99-1.25-.36-.38-.76-.72-1.21-1.02s-.91-.57-1.42-.8-1.04-.43-1.61-.59c-.57-.16-1.17-.28-1.82-.35-.65-.08-1.32-.12-2.01-.12-.79,0-1.53.05-2.22.14s-1.36.23-2.01.4c-.65.17-1.25.39-1.8.66-.55.27-1.07.58-1.56.92-.49.35-.94.73-1.35,1.16-.41.43-.78.88-1.11,1.37-.33.49-.62,1.01-.87,1.56-.25.55-.47,1.13-.64,1.75-.17.62-.3,1.26-.38,1.94-.08.68-.12,1.38-.12,2.1v29.73h-12.1V36.12Z"></path>
      <path d="M528.56,84.48c0-1.58.12-3.1.38-4.58.25-1.48.62-2.9,1.11-4.25.49-1.35,1.07-2.65,1.75-3.88.68-1.23,1.46-2.39,2.34-3.47.88-1.09,1.84-2.1,2.88-3.03s2.14-1.78,3.31-2.55,2.4-1.45,3.71-2.03c1.31-.58,2.65-1.08,4.04-1.49,1.39-.41,2.82-.72,4.3-.92,1.48-.21,2.98-.31,4.49-.31s3.04.1,4.49.31c1.45.21,2.86.51,4.23.92,1.37.41,2.68.92,3.92,1.51s2.43,1.28,3.55,2.06c1.12.77,2.17,1.62,3.14,2.53.98.91,1.88,1.91,2.69,3,.82,1.09,1.54,2.24,2.17,3.45.63,1.21,1.17,2.49,1.61,3.83.44,1.34.78,2.73,1.02,4.18.24,1.45.36,2.95.36,4.49s-.12,3.14-.36,4.61c-.24,1.46-.58,2.88-1.04,4.23-.46,1.36-1.03,2.65-1.7,3.88-.68,1.23-1.43,2.38-2.27,3.45-.83,1.07-1.76,2.07-2.76,3-1.01.93-2.09,1.77-3.24,2.53-1.15.76-2.36,1.43-3.62,2.01-1.26.58-2.58,1.07-3.97,1.47s-2.81.69-4.28.9c-1.47.21-2.96.31-4.47.31s-3.05-.1-4.51-.31c-1.46-.21-2.89-.51-4.28-.92s-2.72-.91-3.99-1.49-2.49-1.26-3.64-2.03c-1.15-.77-2.23-1.61-3.24-2.53-1.01-.91-1.94-1.91-2.79-2.98s-1.61-2.21-2.27-3.43c-.66-1.21-1.22-2.48-1.68-3.8-.46-1.32-.8-2.71-1.04-4.16-.24-1.45-.35-2.95-.35-4.49ZM556.68,101.31c1.01,0,1.96-.08,2.86-.24.9-.16,1.74-.39,2.53-.69.79-.3,1.51-.66,2.17-1.09.66-.43,1.28-.9,1.84-1.42.57-.52,1.09-1.09,1.56-1.72s.89-1.3,1.25-2.01.68-1.46.95-2.25c.27-.79.5-1.59.69-2.41.19-.82.32-1.66.4-2.53.08-.87.12-1.74.12-2.62,0-.95-.05-1.86-.14-2.74-.09-.88-.24-1.75-.42-2.6-.19-.85-.43-1.67-.71-2.46-.28-.79-.62-1.54-1.02-2.25-.39-.71-.84-1.37-1.32-1.99-.49-.61-1.02-1.18-1.61-1.7-.58-.52-1.21-.98-1.89-1.39-.68-.41-1.41-.76-2.2-1.04-.79-.28-1.63-.5-2.53-.66-.9-.16-1.84-.24-2.81-.24s-1.96.08-2.86.24c-.9.16-1.74.39-2.53.69-.79.3-1.52.66-2.2,1.09-.68.43-1.29.91-1.84,1.44s-1.06,1.13-1.54,1.77c-.47.65-.88,1.33-1.23,2.06-.35.72-.66,1.48-.92,2.27-.27.79-.49,1.62-.66,2.48-.17.87-.3,1.75-.38,2.65-.08.9-.12,1.8-.12,2.72s.05,1.76.14,2.65c.09.88.24,1.73.43,2.55.19.82.43,1.61.73,2.36.3.76.64,1.48,1.02,2.17.38.69.81,1.35,1.3,1.96.49.62,1.02,1.17,1.61,1.68.58.5,1.21.96,1.89,1.37.68.41,1.4.76,2.17,1.04.77.28,1.6.5,2.48.64.88.14,1.81.21,2.79.21Z"></path>
    </g>
  </g>
  <path class="cls-1" d="M286.87,119.71v-20.16c0-17.13-9.22-33.1-24.06-41.67L178.89,9.43c-14.84-8.57-33.28-8.57-48.11,0L46.85,57.88c-14.84,8.57-24.06,24.53-24.06,41.67v96.91c0,17.13,9.22,33.1,24.06,41.67l83.92,48.45c7.42,4.28,15.74,6.43,24.06,6.43s16.64-2.14,24.06-6.43l83.92-48.45c14.84-8.57,24.06-24.53,24.06-41.67v-20.16c0-11.36-5.18-21.54-13.29-28.29,8.12-6.76,13.29-16.93,13.29-28.29ZM269.85,119.71c0,10.91-8.88,19.79-19.79,19.79h-18.41c-18.25,0-35.41-7.11-48.31-20.01-12.9-12.9-20.01-30.06-20.01-48.31,0-.73-.09-1.45-.27-2.13-.94-3.67-4.27-6.38-8.24-6.38-4.7,0-8.51,3.81-8.51,8.51,0,18.25-7.11,35.41-20.01,48.31-12.9,12.9-30.06,20.01-48.31,20.01-4.7,0-8.51,3.81-8.51,8.51s3.81,8.51,8.51,8.51c18.25,0,35.41,7.11,48.31,20.01,12.9,12.9,20.01,30.06,20.01,48.31,0,4.7,3.81,8.51,8.51,8.51,1.32,0,2.57-.3,3.69-.84,2.85-1.37,4.82-4.29,4.82-7.67,0-18.25,7.11-35.41,20.01-48.31,12.9-12.9,30.06-20.01,48.31-20.01h18.41c10.91,0,19.79,8.88,19.79,19.79v20.16c0,11.08-5.96,21.4-15.55,26.94l-83.92,48.45c-9.59,5.54-21.51,5.54-31.1,0l-83.92-48.45c-9.59-5.54-15.55-15.86-15.55-26.94v-96.91c0-11.08,5.96-21.4,15.55-26.94l83.92-48.45c4.8-2.77,10.17-4.15,15.55-4.15s10.76,1.38,15.55,4.15l83.92,48.45c9.59,5.54,15.55,15.86,15.55,26.94v20.16ZM154.83,187.6c-4.11-8.46-9.64-16.27-16.49-23.12-6.85-6.85-14.65-12.38-23.11-16.49,8.46-4.11,16.27-9.64,23.11-16.49,6.85-6.85,12.38-14.65,16.49-23.11,4.11,8.46,9.64,16.27,16.49,23.12,6.84,6.84,14.64,12.38,23.1,16.49-8.46,4.11-16.26,9.65-23.1,16.49s-12.38,14.65-16.49,23.11Z"></path>
</svg>