<svg width="193" height="50" viewBox="0 0 193 50" fill="none" xmlns="http://www.w3.org/2000/svg">
<path d="M81.8625 37.8463C80.6537 41.5321 77.1729 43.4544 73.4128 43.4544C67.142 43.4544 63.6883 39.4916 63.6883 33.3936C63.6883 27.826 67.5686 23.5051 73.3078 23.5051C76.9884 23.5051 80.2033 25.2686 81.6644 28.7416L78.5544 30.0524C77.7299 27.9189 75.8033 26.4341 73.4653 26.4341C69.3462 26.4341 67.6465 29.9476 67.6465 33.5253C67.6465 37.2635 69.5071 40.4443 73.5584 40.4443C76.1232 40.4443 77.9821 38.8936 78.8591 36.5608L81.8625 37.8463Z" fill="black"/>
<path d="M84.3867 22.5625H87.7879V31.2449C88.7055 29.4814 90.5779 28.6858 92.5435 28.6858C95.9447 28.6858 97.6444 31.0726 97.6444 34.3057V43.1875H94.2162V34.6368C94.2162 32.5963 93.153 31.4814 91.1739 31.4814C88.995 31.4814 87.7862 32.8209 87.7862 34.848V43.1858H84.385V22.5625H84.3867Z" fill="black"/>
<path d="M113.96 40.0996C112.778 42.6047 110.227 43.4527 107.609 43.4527C103.118 43.4527 100.289 40.4561 100.289 36.0422C100.289 31.88 103.172 28.6858 107.45 28.6858C112.047 28.6858 114.293 31.3632 114.293 36.8378H103.758C103.758 39.2365 105.153 40.9865 107.743 40.9865C109.284 40.9865 110.56 40.3632 111.303 38.9189L113.96 40.0996ZM110.904 34.6115C110.797 32.4645 109.495 31.152 107.489 31.152C105.351 31.152 104.102 32.6503 103.809 34.6115H110.904Z" fill="black"/>
<path d="M129.862 39.1723C128.919 42.1419 126.261 43.4544 123.285 43.4544C118.768 43.4544 116.071 40.4324 116.071 36.0439C116.071 31.8277 119.086 28.6875 123.364 28.6875C126.247 28.6875 128.731 29.8936 129.781 32.6774L127.029 33.8834C126.459 32.2922 125.076 31.3784 123.362 31.3784C120.586 31.3784 119.563 33.777 119.563 36.2162C119.563 38.7213 120.666 40.8818 123.417 40.8818C125.37 40.8818 126.684 39.8074 127.27 38.0321L129.862 39.1723Z" fill="black"/>
<path d="M132.559 22.5625H135.96V35.1824L141.115 28.9916H144.848L139.202 35.5L145.273 43.1892H141.354L135.96 36.2703V43.1892H132.559V22.5625Z" fill="black"/>
<path d="M153.682 28.6875C157.999 28.6875 161.321 31.7095 161.321 36.0574C161.321 40.5253 157.827 43.4544 153.535 43.4544C149.204 43.4544 145.723 40.4578 145.723 36.1233C145.723 31.6689 149.404 28.6875 153.682 28.6875ZM157.667 36.0845C157.667 33.473 156.338 31.299 153.548 31.299C150.679 31.299 149.536 33.5794 149.536 36.1774C149.536 38.6959 150.879 40.8429 153.628 40.8429C156.472 40.8429 157.667 38.5625 157.667 36.0845Z" fill="black"/>
<path d="M173.344 40.9628C172.454 42.6858 170.62 43.4544 168.655 43.4544C165.387 43.4544 163.659 41.3074 163.659 38.0861V28.9932H167.06V37.6757C167.06 39.6115 167.951 40.804 169.93 40.804C172.056 40.804 173.344 39.4392 173.344 37.4105V28.9932H176.732V43.1909H173.344V40.9628Z" fill="black"/>
<path d="M187.665 43.0828C186.934 43.2956 186.177 43.4274 185.327 43.4274C182.617 43.4274 181.01 42.0219 181.01 39.1993V31.4848H179.097V28.9932H181.01V26.0642L184.411 24.5929V28.9932H187.547V31.4848H184.411V38.8953C184.411 40.0084 184.891 40.6976 186.138 40.6976C186.617 40.6976 187.147 40.5912 187.667 40.4189V43.0828H187.665Z" fill="black"/>
<path d="M64.7109 17.6402L70.9698 8.61659H65.3441V6.83618H73.9156V7.72301L67.809 16.7467H73.7395V18.5271H64.7126V17.6402H64.7109Z" fill="black"/>
<path d="M79.2773 9.79059C81.8777 9.79059 83.8788 11.6115 83.8788 14.2298C83.8788 16.9207 81.7745 18.6859 79.1893 18.6859C76.5804 18.6859 74.4828 16.8818 74.4828 14.2703C74.4828 11.5862 76.6989 9.79059 79.2773 9.79059ZM81.678 14.245C81.678 12.6723 80.8772 11.3632 79.1977 11.3632C77.4692 11.3632 76.7802 12.7365 76.7802 14.3024C76.7802 15.8193 77.5877 17.1132 79.2451 17.1132C80.9567 17.1115 81.678 15.7382 81.678 14.245Z" fill="black"/>
<path d="M85.3755 6.10138H87.424V11.3311C87.9759 10.2686 89.1051 9.79057 90.2885 9.79057C92.337 9.79057 93.3613 11.2281 93.3613 13.1757V18.5254H91.2958V13.375C91.2958 12.1453 90.6559 11.4747 89.4623 11.4747C88.1503 11.4747 87.4223 12.2804 87.4223 13.5034V18.5254H85.3738V6.10138H85.3755Z" fill="black"/>
<path d="M99.4847 9.79059C102.085 9.79059 104.086 11.6115 104.086 14.2298C104.086 16.9207 101.982 18.6859 99.3967 18.6859C96.7878 18.6859 94.6902 16.8818 94.6902 14.2703C94.6902 11.5862 96.908 9.79059 99.4847 9.79059ZM101.885 14.245C101.885 12.6723 101.085 11.3632 99.4051 11.3632C97.6766 11.3632 96.9876 12.7365 96.9876 14.3024C96.9876 15.8193 97.7951 17.1132 99.4525 17.1132C101.166 17.1115 101.885 15.7382 101.885 14.245Z" fill="black"/>
<path d="M11.8881 36.3767C11.0907 36.3767 10.4491 35.7348 10.4491 34.9409V6.72637C10.4474 3.299 13.2459 0.506775 16.6827 0.506775H41.8014C45.2382 0.506775 48.035 3.299 48.035 6.72637V17.2618C48.035 18.0575 47.3917 18.6977 46.596 18.6977C45.7986 18.6977 45.1569 18.0558 45.1569 17.2618V6.72637C45.1569 4.88346 43.6553 3.3784 41.8014 3.3784H16.6827C14.8356 3.3784 13.3272 4.87671 13.3272 6.72637V34.9409C13.3272 35.7365 12.6838 36.3767 11.8881 36.3767Z" fill="#226DB4"/>
<path d="M41.8014 43.7466H34.7518C33.9544 43.7466 33.3128 43.1047 33.3128 42.3108C33.3128 41.5152 33.9561 40.875 34.7518 40.875H41.8014C43.6485 40.875 45.1569 39.3767 45.1569 37.527V26.3075C45.1569 25.5118 45.8002 24.8716 46.5959 24.8716C47.3933 24.8716 48.035 25.5135 48.035 26.3075V37.527C48.035 40.9561 45.2382 43.7466 41.8014 43.7466Z" fill="#226DB4"/>
<path d="M31.0611 11.995H20.5172C19.7198 11.995 19.0782 11.3531 19.0782 10.5592C19.0782 9.76524 19.7215 9.12335 20.5172 9.12335H31.0611C31.8585 9.12335 32.5002 9.76524 32.5002 10.5592C32.5002 11.3531 31.8568 11.995 31.0611 11.995Z" fill="#226DB4"/>
<path d="M28.1864 17.7264H20.5172C19.7198 17.7264 19.0782 17.0845 19.0782 16.2905C19.0782 15.4949 19.7215 14.8547 20.5172 14.8547H28.1864C28.9838 14.8547 29.6255 15.4966 29.6255 16.2905C29.6255 17.0845 28.9771 17.7264 28.1864 17.7264Z" fill="#226DB4"/>
<path d="M17.5799 49.4933C16.6928 49.4933 15.8514 49.0862 15.3046 48.3767C10.2899 41.8987 5.35151 38.1149 5.30241 38.0811C4.94688 37.8125 4.73526 37.3919 4.73526 36.946C4.73018 36.5 4.93672 36.0794 5.28717 35.8058C5.37859 35.7331 7.58116 34.0338 11.0653 33.5794C13.1003 33.3159 15.1691 33.5169 17.2041 34.1875C19.2627 34.8632 21.2875 36.0169 23.2463 37.625C27.4889 31.1841 33.0182 23.3598 37.3793 18.9493C39.7546 16.5456 42.3466 15.4054 45.0875 15.5541C46.7906 15.6503 48.4802 16.2433 50.1123 17.326C51.6715 18.3598 52.7957 19.5811 53.4627 20.424C53.7403 20.7787 53.8368 21.2382 53.7268 21.674C53.6167 22.1098 53.3052 22.4645 52.8871 22.6368C49.6619 23.9831 42.2992 33.1571 33.67 46.5895C32.5188 48.3801 30.5549 49.4527 28.4201 49.4527H24.6955C23.8981 49.4527 23.2565 48.8108 23.2565 48.0169C23.2565 47.2213 23.8998 46.5811 24.6955 46.5811H28.4201C29.5679 46.5811 30.6227 46.0068 31.2423 45.0389C33.1232 42.1132 36.8579 36.4341 40.7501 31.2568C44.6609 26.071 47.737 22.6757 50.0903 20.9764C47.8149 18.7737 45.6225 18.4679 44.9317 18.4291C43.0559 18.3243 41.2021 19.1808 39.4312 20.9713C32.6881 27.7905 22.945 43.2145 20.0618 48.0794C19.5776 48.8987 18.7176 49.4257 17.7628 49.4831C17.7001 49.4882 17.6426 49.4933 17.5799 49.4933ZM8.71038 37.1672C10.6692 38.8666 14.0907 42.0997 17.585 46.6149C18.44 45.1791 19.879 42.8328 21.6685 40.0541C19.9112 38.5642 18.1115 37.5118 16.3085 36.9172C14.6866 36.3818 13.0495 36.2179 11.4429 36.4291C10.3526 36.5743 9.42651 36.8666 8.71038 37.1672Z" fill="#E42527"/>
</svg>
