<?xml version="1.0" encoding="utf-8"?>

<svg version="1.1" id="Layer_1" xmlns="http://www.w3.org/2000/svg" xmlns:xlink="http://www.w3.org/1999/xlink" x="0px" y="0px" viewBox="0 0 882 296" style="enable-background:new 0 0 882 296;" xml:space="preserve">

<g>
&#x9;<g>
&#x9;&#x9;<path d="M471.24,224.05c-1.78,5.44-4.34,10.23-7.69,14.36c-3.35,4.13-7.22,7.6-11.61,10.4c-4.39,2.8-9.21,4.9-14.44,6.32&#xA;&#x9;&#x9;&#x9;c-5.23,1.41-10.62,2.12-16.17,2.12c-9.26,0-17.46-1.41-24.6-4.24c-7.14-2.83-13.14-6.83-18.01-12.01&#xA;&#x9;&#x9;&#x9;c-4.87-5.18-8.55-11.44-11.06-18.79c-2.51-7.35-3.77-15.52-3.77-24.52c0-8.26,1.37-15.96,4.12-23.07&#xA;&#x9;&#x9;&#x9;c2.75-7.11,6.6-13.3,11.57-18.56c4.97-5.26,10.95-9.39,17.93-12.4c6.98-3.01,14.71-4.51,23.19-4.51c5.44,0,10.66,0.66,15.66,1.96&#xA;&#x9;&#x9;&#x9;c5,1.31,9.64,3.26,13.93,5.85c4.29,2.59,8.12,5.82,11.5,9.69c3.38,3.87,6.13,8.37,8.28,13.5l-18.36,7.77&#xA;&#x9;&#x9;&#x9;c-1.2-3.14-2.8-6.03-4.79-8.67c-1.99-2.64-4.28-4.91-6.87-6.79c-2.59-1.88-5.44-3.35-8.55-4.39c-3.11-1.05-6.4-1.57-9.85-1.57&#xA;&#x9;&#x9;&#x9;c-6.07,0-11.27,1.19-15.62,3.57c-4.34,2.38-7.9,5.53-10.67,9.46c-2.77,3.92-4.81,8.41-6.12,13.46c-1.31,5.05-1.96,10.21-1.96,15.5&#xA;&#x9;&#x9;&#x9;c0,5.55,0.69,10.79,2.08,15.73c1.39,4.94,3.52,9.29,6.4,13.03c2.88,3.74,6.51,6.71,10.91,8.91c4.39,2.2,9.57,3.29,15.54,3.29&#xA;&#x9;&#x9;&#x9;c3.77,0,7.28-0.55,10.55-1.65c3.27-1.1,6.22-2.65,8.87-4.67c2.64-2.01,4.96-4.43,6.95-7.26c1.99-2.83,3.63-5.96,4.94-9.42&#xA;&#x9;&#x9;&#x9;L471.24,224.05z"></path>
&#x9;&#x9;<path d="M484.9,147.47c0-1.67,0.31-3.2,0.94-4.59c0.63-1.39,1.49-2.59,2.59-3.61c1.1-1.02,2.37-1.8,3.81-2.35&#xA;&#x9;&#x9;&#x9;c1.44-0.55,2.97-0.82,4.59-0.82c1.62,0,3.14,0.29,4.55,0.86c1.41,0.58,2.65,1.37,3.73,2.39c1.07,1.02,1.91,2.22,2.51,3.61&#xA;&#x9;&#x9;&#x9;c0.6,1.39,0.9,2.92,0.9,4.59c0,1.62-0.3,3.14-0.9,4.55s-1.41,2.62-2.43,3.61c-1.02,1-2.24,1.78-3.65,2.35&#xA;&#x9;&#x9;&#x9;c-1.41,0.58-2.96,0.86-4.63,0.86c-1.62,0-3.17-0.29-4.63-0.86c-1.46-0.58-2.75-1.37-3.85-2.39c-1.1-1.02-1.96-2.24-2.59-3.65&#xA;&#x9;&#x9;&#x9;C485.21,150.6,484.9,149.09,484.9,147.47z M486.7,171.79h20.09v83.89H486.7V171.79z"></path>
&#x9;&#x9;<path d="M529.55,171.64h20.09v15.77c2.83-5.81,6.53-10.1,11.1-12.87c4.58-2.77,10.08-4.16,16.52-4.16v18.6&#xA;&#x9;&#x9;&#x9;c-4.08,0-7.81,0.37-11.18,1.1c-3.38,0.73-6.28,2-8.71,3.81s-4.33,4.2-5.69,7.18c-1.36,2.98-2.04,6.72-2.04,11.22v43.4h-20.09&#xA;&#x9;&#x9;&#x9;V171.64z"></path>
&#x9;&#x9;<path d="M666.24,231.9c-1.41,4.39-3.4,8.19-5.96,11.38c-2.56,3.19-5.54,5.82-8.95,7.89c-3.4,2.07-7.14,3.6-11.22,4.59&#xA;&#x9;&#x9;&#x9;c-4.08,0.99-8.32,1.49-12.71,1.49c-6.64,0-12.61-1.07-17.89-3.22c-5.29-2.14-9.76-5.14-13.42-8.99c-3.66-3.85-6.46-8.46-8.4-13.85&#xA;&#x9;&#x9;&#x9;c-1.94-5.39-2.9-11.33-2.9-17.81c0-6.22,1.06-12.01,3.18-17.34s5.09-9.94,8.91-13.81c3.82-3.87,8.36-6.91,13.62-9.1&#xA;&#x9;&#x9;&#x9;s11.05-3.3,17.38-3.3c4.24,0,8.3,0.46,12.2,1.37c3.9,0.92,7.49,2.33,10.79,4.24c3.3,1.91,6.21,4.35,8.75,7.34&#xA;&#x9;&#x9;&#x9;c2.54,2.98,4.59,6.54,6.16,10.67l-16.24,7.14c-1.67-4.76-4.43-8.42-8.28-10.99c-3.84-2.56-8.31-3.85-13.38-3.85&#xA;&#x9;&#x9;&#x9;c-4.08,0-7.55,0.81-10.4,2.43c-2.85,1.62-5.17,3.78-6.95,6.47c-1.78,2.69-3.07,5.75-3.88,9.18c-0.81,3.43-1.22,6.95-1.22,10.55&#xA;&#x9;&#x9;&#x9;c0,3.71,0.42,7.25,1.26,10.59c0.84,3.35,2.17,6.28,4,8.79c1.83,2.51,4.18,4.51,7.06,6c2.88,1.49,6.36,2.24,10.44,2.24&#xA;&#x9;&#x9;&#x9;c5.81,0,10.62-1.49,14.44-4.47c3.82-2.98,6.59-7.11,8.32-12.4L666.24,231.9z"></path>
&#x9;&#x9;<path d="M738.52,242.5c-1.31,2.56-2.94,4.77-4.9,6.63c-1.96,1.86-4.15,3.39-6.55,4.59c-2.41,1.2-4.98,2.09-7.73,2.67&#xA;&#x9;&#x9;&#x9;c-2.75,0.58-5.58,0.86-8.51,0.86c-4.81,0-9.06-0.76-12.75-2.28c-3.69-1.52-6.78-3.67-9.26-6.47c-2.49-2.8-4.36-6.15-5.61-10.04&#xA;&#x9;&#x9;&#x9;c-1.26-3.9-1.88-8.23-1.88-12.99v-53.83h20.09v51.4c0,5.76,1.36,10.28,4.08,13.58c2.72,3.3,7.01,4.94,12.87,4.94&#xA;&#x9;&#x9;&#x9;c3.14,0,5.95-0.48,8.44-1.45c2.48-0.97,4.6-2.33,6.36-4.08c1.75-1.75,3.09-3.87,4-6.36c0.92-2.48,1.37-5.22,1.37-8.2v-49.83h20.01&#xA;&#x9;&#x9;&#x9;v84.04h-20.01V242.5z"></path>
&#x9;&#x9;<path d="M779.32,147.47c0-1.67,0.31-3.2,0.94-4.59c0.63-1.39,1.49-2.59,2.59-3.61c1.1-1.02,2.37-1.8,3.81-2.35&#xA;&#x9;&#x9;&#x9;c1.44-0.55,2.97-0.82,4.59-0.82c1.62,0,3.14,0.29,4.55,0.86c1.41,0.58,2.65,1.37,3.73,2.39c1.07,1.02,1.91,2.22,2.51,3.61&#xA;&#x9;&#x9;&#x9;c0.6,1.39,0.9,2.92,0.9,4.59c0,1.62-0.3,3.14-0.9,4.55s-1.41,2.62-2.43,3.61c-1.02,1-2.24,1.78-3.65,2.35&#xA;&#x9;&#x9;&#x9;c-1.41,0.58-2.96,0.86-4.63,0.86c-1.62,0-3.17-0.29-4.63-0.86c-1.46-0.58-2.75-1.37-3.85-2.39c-1.1-1.02-1.96-2.24-2.59-3.65&#xA;&#x9;&#x9;&#x9;C779.64,150.6,779.32,149.09,779.32,147.47z M781.13,171.79h20.09v83.89h-20.09V171.79z"></path>
&#x9;&#x9;<path d="M866.5,255.05c-2.2,0.63-4.42,1.12-6.67,1.49c-2.25,0.37-4.63,0.55-7.14,0.55c-8,0-14.26-2.08-18.75-6.24&#xA;&#x9;&#x9;&#x9;c-4.5-4.16-6.75-10.42-6.75-18.79v-45.67h-11.3v-14.75h11.3v-17.34l20.09-8.71v26.05h18.52v14.75h-18.52v43.87&#xA;&#x9;&#x9;&#x9;c0,3.3,0.77,5.9,2.31,7.81c1.54,1.91,4.17,2.86,7.89,2.86c1.41,0,2.89-0.14,4.43-0.43c1.54-0.29,3.07-0.69,4.59-1.22V255.05z"></path>
&#x9;</g>
&#x9;<g>
&#x9;&#x9;<g>
&#x9;&#x9;&#x9;<path d="M369.94,104.43l36.97-53.42h-33.23V40.47h50.63v5.25l-36.07,53.42h35.03v10.54h-53.32V104.43z"></path>
&#x9;&#x9;&#x9;<path d="M427.65,84.48c0-3.97,0.76-7.59,2.29-10.85c1.53-3.26,3.58-6.05,6.17-8.37c2.58-2.32,5.58-4.11,9-5.39&#xA;&#x9;&#x9;&#x9;&#x9;c3.42-1.28,7.04-1.91,10.85-1.91c3.84,0,7.42,0.64,10.73,1.91c3.31,1.28,6.18,3.07,8.63,5.39s4.36,5.09,5.74,8.32&#xA;&#x9;&#x9;&#x9;&#x9;c1.39,3.23,2.08,6.78,2.08,10.66c0,3.97-0.73,7.58-2.17,10.83c-1.45,3.25-3.43,6.02-5.93,8.32c-2.51,2.3-5.44,4.08-8.82,5.34&#xA;&#x9;&#x9;&#x9;&#x9;c-3.37,1.26-6.97,1.89-10.78,1.89c-3.84,0-7.46-0.64-10.85-1.91c-3.39-1.28-6.33-3.06-8.84-5.37c-2.51-2.3-4.48-5.05-5.93-8.25&#xA;&#x9;&#x9;&#x9;&#x9;C428.38,91.89,427.65,88.35,427.65,84.48z M455.78,101.3c2.52,0,4.69-0.47,6.5-1.42c1.81-0.95,3.3-2.2,4.47-3.76&#xA;&#x9;&#x9;&#x9;&#x9;c1.17-1.56,2.03-3.36,2.58-5.41c0.55-2.05,0.83-4.18,0.83-6.38c0-2.33-0.3-4.53-0.9-6.59c-0.6-2.06-1.51-3.88-2.72-5.44&#xA;&#x9;&#x9;&#x9;&#x9;c-1.21-1.56-2.73-2.79-4.56-3.69c-1.83-0.9-3.99-1.35-6.48-1.35c-2.55,0-4.74,0.47-6.55,1.42c-1.81,0.95-3.29,2.21-4.42,3.81&#xA;&#x9;&#x9;&#x9;&#x9;c-1.13,1.59-1.97,3.44-2.5,5.53c-0.54,2.1-0.8,4.31-0.8,6.64c0,2.24,0.3,4.37,0.9,6.38s1.5,3.78,2.72,5.29&#xA;&#x9;&#x9;&#x9;&#x9;c1.21,1.51,2.73,2.72,4.54,3.62C451.19,100.86,453.32,101.3,455.78,101.3z"></path>
&#x9;&#x9;&#x9;<path d="M491.99,36.12h12.1v30.96c0.82-1.58,1.83-2.94,3.05-4.09c1.21-1.15,2.55-2.1,4.02-2.84c1.46-0.74,3.04-1.29,4.73-1.65&#xA;&#x9;&#x9;&#x9;&#x9;c1.69-0.36,3.4-0.54,5.13-0.54c3.03,0,5.67,0.5,7.94,1.51c2.27,1.01,4.16,2.4,5.67,4.18c1.51,1.78,2.65,3.89,3.4,6.33&#xA;&#x9;&#x9;&#x9;&#x9;c0.76,2.44,1.13,5.11,1.13,8.01v31.67h-12.2V79.18c0-3.66-0.92-6.45-2.77-8.37s-4.53-2.88-8.06-2.88c-3.91,0-6.89,1.09-8.96,3.29&#xA;&#x9;&#x9;&#x9;&#x9;s-3.1,5.1-3.1,8.72v29.73h-12.1V36.12z"></path>
&#x9;&#x9;&#x9;<path d="M547.02,84.48c0-3.97,0.76-7.59,2.29-10.85c1.53-3.26,3.58-6.05,6.17-8.37c2.58-2.32,5.58-4.11,9-5.39&#xA;&#x9;&#x9;&#x9;&#x9;c3.42-1.28,7.04-1.91,10.85-1.91c3.84,0,7.42,0.64,10.73,1.91c3.31,1.28,6.18,3.07,8.63,5.39s4.36,5.09,5.74,8.32&#xA;&#x9;&#x9;&#x9;&#x9;c1.39,3.23,2.08,6.78,2.08,10.66c0,3.97-0.73,7.58-2.17,10.83c-1.45,3.25-3.43,6.02-5.93,8.32c-2.51,2.3-5.44,4.08-8.82,5.34&#xA;&#x9;&#x9;&#x9;&#x9;c-3.37,1.26-6.97,1.89-10.78,1.89c-3.84,0-7.46-0.64-10.85-1.91c-3.39-1.28-6.33-3.06-8.84-5.37c-2.51-2.3-4.48-5.05-5.93-8.25&#xA;&#x9;&#x9;&#x9;&#x9;C547.74,91.89,547.02,88.35,547.02,84.48z M575.14,101.3c2.52,0,4.69-0.47,6.5-1.42c1.81-0.95,3.3-2.2,4.47-3.76&#xA;&#x9;&#x9;&#x9;&#x9;c1.17-1.56,2.03-3.36,2.58-5.41c0.55-2.05,0.83-4.18,0.83-6.38c0-2.33-0.3-4.53-0.9-6.59c-0.6-2.06-1.51-3.88-2.72-5.44&#xA;&#x9;&#x9;&#x9;&#x9;c-1.21-1.56-2.73-2.79-4.56-3.69c-1.83-0.9-3.99-1.35-6.48-1.35c-2.55,0-4.74,0.47-6.55,1.42c-1.81,0.95-3.29,2.21-4.42,3.81&#xA;&#x9;&#x9;&#x9;&#x9;c-1.13,1.59-1.97,3.44-2.5,5.53c-0.54,2.1-0.8,4.31-0.8,6.64c0,2.24,0.3,4.37,0.9,6.38s1.5,3.78,2.72,5.29&#xA;&#x9;&#x9;&#x9;&#x9;c1.21,1.51,2.73,2.72,4.54,3.62C570.55,100.86,572.69,101.3,575.14,101.3z"></path>
&#x9;&#x9;</g>
&#x9;</g>
</g>
<g>
&#x9;<g>
&#x9;&#x9;<g>
&#x9;&#x9;&#x9;<path class="st1" d="M142.51,275.88c-16.65,0-32.31-6.49-44.08-18.26l-65.54-65.54C21.12,180.31,14.63,164.65,14.63,148&#xA;&#x9;&#x9;&#x9;&#x9;s6.49-32.31,18.26-44.08l65.54-65.54c11.78-11.78,27.43-18.26,44.08-18.26s32.31,6.49,44.08,18.26l62.18,62.18l7.86-7.86&#xA;&#x9;&#x9;&#x9;&#x9;c5.31-5.31,12.37-8.24,19.88-8.24c0.02,0,0.04,0,0.05,0c7.53,0.01,14.6,2.97,19.9,8.31c5.26,5.3,8.16,12.34,8.16,19.81&#xA;&#x9;&#x9;&#x9;&#x9;s-2.9,14.51-8.16,19.81c-5.3,5.34-12.37,8.29-19.9,8.31c-0.02,0-0.04,0-0.05,0c-7.51,0-14.57-2.92-19.88-8.24l-7.86-7.86&#xA;&#x9;&#x9;&#x9;&#x9;L225.38,148l23.39,23.39l7.88-7.88c5.31-5.31,12.37-8.23,19.87-8.23c0.01,0,0.03,0,0.04,0c7.52,0.01,14.59,2.95,19.89,8.29&#xA;&#x9;&#x9;&#x9;&#x9;c5.27,5.3,8.17,12.33,8.18,19.8c0.01,7.47-2.89,14.5-8.14,19.81l-0.04,0.04c-5.29,5.34-12.36,8.3-19.89,8.31&#xA;&#x9;&#x9;&#x9;&#x9;c-0.02,0-0.05,0-0.07,0c-7.51,0-14.57-2.92-19.87-8.23l-7.85-7.85l-62.18,62.17C174.82,269.4,159.16,275.88,142.51,275.88z&#xA;&#x9;&#x9;&#x9;&#x9; M142.51,37.13c-12.11,0-23.49,4.71-32.06,13.28l-65.54,65.54c-8.56,8.56-13.28,19.95-13.28,32.05s4.71,23.49,13.28,32.06&#xA;&#x9;&#x9;&#x9;&#x9;l65.54,65.54c8.56,8.56,19.95,13.28,32.06,13.28c12.11,0,23.49-4.71,32.06-13.28l62.18-62.18l-23.39-23.39l-46.79,46.79&#xA;&#x9;&#x9;&#x9;&#x9;c-6.42,6.42-14.96,9.96-24.04,9.96s-17.62-3.54-24.04-9.96l-34.78-34.77c-13.26-13.26-13.26-34.83,0-48.09l34.77-34.77&#xA;&#x9;&#x9;&#x9;&#x9;c13.26-13.26,34.83-13.26,48.09,0l46.79,46.79l23.39-23.39l-62.18-62.17C166,41.84,154.62,37.13,142.51,37.13z M142.51,96.24&#xA;&#x9;&#x9;&#x9;&#x9;c-4.35,0-8.71,1.66-12.02,4.97l-34.77,34.77c-6.63,6.63-6.63,17.41,0,24.04l34.77,34.77c3.21,3.21,7.48,4.98,12.02,4.98&#xA;&#x9;&#x9;&#x9;&#x9;c4.54,0,8.81-1.77,12.02-4.98L201.32,148l-46.79-46.79C151.22,97.89,146.87,96.24,142.51,96.24z M260.8,183.42l7.85,7.85&#xA;&#x9;&#x9;&#x9;&#x9;c2.1,2.1,4.88,3.25,7.85,3.25c0.01,0,0.02,0,0.03,0c2.97-0.01,5.77-1.17,7.86-3.29l0.04-0.04c4.26-4.3,4.26-11.32-0.03-15.63&#xA;&#x9;&#x9;&#x9;&#x9;c-2.09-2.11-4.88-3.27-7.86-3.27c-0.01,0-0.01,0-0.02,0c-2.97,0-5.75,1.15-7.85,3.25L260.8,183.42z M260.8,112.58l7.86,7.86&#xA;&#x9;&#x9;&#x9;&#x9;c2.1,2.1,4.89,3.26,7.88,3.25c2.98-0.01,5.77-1.17,7.86-3.28c4.28-4.31,4.28-11.34,0-15.65c-2.09-2.11-4.89-3.28-7.86-3.28&#xA;&#x9;&#x9;&#x9;&#x9;c-0.01,0-0.01,0-0.02,0c-2.97,0-5.76,1.15-7.86,3.25L260.8,112.58z"></path>
&#x9;&#x9;</g>
&#x9;</g>
&#x9;<g>
&#x9;&#x9;<g>
&#x9;&#x9;&#x9;<path class="st1" d="M142.51,275.88c-16.65,0-32.31-6.49-44.08-18.26l-65.54-65.54C21.12,180.31,14.63,164.65,14.63,148&#xA;&#x9;&#x9;&#x9;&#x9;s6.49-32.31,18.26-44.08l65.54-65.54c11.78-11.78,27.43-18.26,44.08-18.26s32.31,6.49,44.08,18.26l62.18,62.18l7.86-7.86&#xA;&#x9;&#x9;&#x9;&#x9;c5.31-5.31,12.37-8.24,19.88-8.24c0.02,0,0.04,0,0.05,0c7.53,0.01,14.6,2.97,19.9,8.31c5.26,5.3,8.16,12.34,8.16,19.81&#xA;&#x9;&#x9;&#x9;&#x9;s-2.9,14.51-8.16,19.81c-5.3,5.34-12.37,8.29-19.9,8.31c-0.02,0-0.04,0-0.05,0c-7.51,0-14.57-2.92-19.88-8.24l-7.86-7.86&#xA;&#x9;&#x9;&#x9;&#x9;L225.38,148l23.39,23.39l7.88-7.88c5.31-5.31,12.37-8.23,19.87-8.23c0.01,0,0.03,0,0.04,0c7.52,0.01,14.59,2.95,19.89,8.29&#xA;&#x9;&#x9;&#x9;&#x9;c5.27,5.3,8.17,12.33,8.18,19.8c0.01,7.47-2.89,14.5-8.14,19.81l-0.04,0.04c-5.29,5.34-12.36,8.3-19.89,8.31&#xA;&#x9;&#x9;&#x9;&#x9;c-0.02,0-0.05,0-0.07,0c-7.51,0-14.57-2.92-19.87-8.23l-7.85-7.85l-62.18,62.17C174.82,269.4,159.16,275.88,142.51,275.88z&#xA;&#x9;&#x9;&#x9;&#x9; M142.51,37.13c-12.11,0-23.49,4.71-32.06,13.28l-65.54,65.54c-8.56,8.56-13.28,19.95-13.28,32.05s4.71,23.49,13.28,32.06&#xA;&#x9;&#x9;&#x9;&#x9;l65.54,65.54c8.56,8.56,19.95,13.28,32.06,13.28c12.11,0,23.49-4.71,32.06-13.28l62.18-62.18l-23.39-23.39l-46.79,46.79&#xA;&#x9;&#x9;&#x9;&#x9;c-6.42,6.42-14.96,9.96-24.04,9.96s-17.62-3.54-24.04-9.96l-34.78-34.77c-13.26-13.26-13.26-34.83,0-48.09l34.77-34.77&#xA;&#x9;&#x9;&#x9;&#x9;c13.26-13.26,34.83-13.26,48.09,0l46.79,46.79l23.39-23.39l-62.18-62.17C166,41.84,154.62,37.13,142.51,37.13z M142.51,96.24&#xA;&#x9;&#x9;&#x9;&#x9;c-4.35,0-8.71,1.66-12.02,4.97l-34.77,34.77c-6.63,6.63-6.63,17.41,0,24.04l34.77,34.77c3.21,3.21,7.48,4.98,12.02,4.98&#xA;&#x9;&#x9;&#x9;&#x9;c4.54,0,8.81-1.77,12.02-4.98L201.32,148l-46.79-46.79C151.22,97.89,146.87,96.24,142.51,96.24z M260.8,183.42l7.85,7.85&#xA;&#x9;&#x9;&#x9;&#x9;c2.1,2.1,4.88,3.25,7.85,3.25c0.01,0,0.02,0,0.03,0c2.97-0.01,5.77-1.17,7.86-3.29l0.04-0.04c4.26-4.3,4.26-11.32-0.03-15.63&#xA;&#x9;&#x9;&#x9;&#x9;c-2.09-2.11-4.88-3.27-7.86-3.27c-0.01,0-0.01,0-0.02,0c-2.97,0-5.75,1.15-7.85,3.25L260.8,183.42z M260.8,112.58l7.86,7.86&#xA;&#x9;&#x9;&#x9;&#x9;c2.1,2.1,4.89,3.26,7.88,3.25c2.98-0.01,5.77-1.17,7.86-3.28c4.28-4.31,4.28-11.34,0-15.65c-2.09-2.11-4.89-3.28-7.86-3.28&#xA;&#x9;&#x9;&#x9;&#x9;c-0.01,0-0.01,0-0.02,0c-2.97,0-5.76,1.15-7.86,3.25L260.8,112.58z"></path>
&#x9;&#x9;</g>
&#x9;</g>
</g>
</svg>