<?xml version="1.0" encoding="UTF-8"?>
<svg id="Layer_1" xmlns="http://www.w3.org/2000/svg" xmlns:xlink="http://www.w3.org/1999/xlink" version="1.1" viewBox="0 0 990 296">
  
  <defs>
    
  </defs>
  <g>
    <g>
      <path d="M490.8,224.1c-7.1,21.8-27.7,33.2-49.9,33.2-37,0-57.4-23.5-57.4-59.6s22.9-58.5,56.8-58.5,40.7,10.4,49.4,31l-18.4,7.8c-4.9-12.6-16.2-21.4-30.1-21.4-24.3,0-34.4,20.8-34.4,42s11,41,34.9,41,26.1-9.2,31.3-23l17.8,7.5Z"></path>
      <path d="M506.2,137.6l20.1-8.7v126.8h-20.1v-118.1h0Z"></path>
      <path d="M597.1,245.4c-6.4,8.5-15.7,11.8-26.1,11.8-15.8,0-28.2-8-28.2-24.5s24.6-27,44.2-27h9.9v-1.3c0-12-2.8-19.6-16.4-19.6s-15.7,4.2-18.7,12l-15.6-6.7c5.6-14.8,21.3-20.2,36.3-20.2s34.3,9.6,34.3,30.9v54.9h-19.8v-10.3h0ZM586.8,218.1c-9.3,0-24,1.1-24,13.8s5.9,11.1,13.4,11.1,20.7-5.3,20.7-16.7v-8.2h-10.1Z"></path>
      <path d="M646.9,230.6c3.1,8.2,11.7,12.2,20.8,12.2s14.6-2,14.6-10-9.1-10.4-19.5-12.6c-13.5-2.8-28.6-6.1-28.6-25s16.1-25.5,31.3-25.5,28.6,5,34.1,18.3l-14.9,6.4c-3.3-7.5-11.5-10.3-18.4-10.3s-13.1,2.7-13.1,9.5,8.2,9.3,18.4,11.3c13.7,2.7,30.1,5.8,30.1,25.4s-16.6,26.8-34.1,26.8-30.8-5-36-20.1l15.3-6.4Z"></path>
      <path d="M726.4,230.6c3.1,8.2,11.7,12.2,20.8,12.2s14.6-2,14.6-10-9.1-10.4-19.5-12.6c-13.5-2.8-28.6-6.1-28.6-25s16.1-25.5,31.3-25.5,28.6,5,34.1,18.3l-14.9,6.4c-3.3-7.5-11.5-10.3-18.4-10.3s-13.1,2.7-13.1,9.5,8.2,9.3,18.4,11.3c13.7,2.7,30.1,5.8,30.1,25.4s-16.6,26.8-34.1,26.8-30.8-5-36-20.1l15.3-6.4Z"></path>
      <path d="M872.1,237.4c-7,14.8-22.1,19.9-37.5,19.9-26.5,0-43.2-17.7-43.2-43.9s17-43.6,42.3-43.6,40.4,15.9,40.4,48.3h-62.2c0,14.2,8.2,24.6,23.5,24.6s16.6-3.7,21-12.2l15.7,6.9ZM854.1,204.9c-.6-12.7-8.3-20.5-20.2-20.5s-20,8.9-21.7,20.5h41.9Z"></path>
      <path d="M899.5,230.6c3.1,8.2,11.7,12.2,20.8,12.2s14.6-2,14.6-10-9.1-10.4-19.5-12.6c-13.5-2.8-28.6-6.1-28.6-25s16.1-25.5,31.3-25.5,28.6,5,34.1,18.3l-14.9,6.4c-3.3-7.5-11.5-10.3-18.4-10.3s-13.1,2.7-13.1,9.5,8.2,9.3,18.4,11.3c13.7,2.7,30.1,5.8,30.1,25.4s-16.6,26.8-34.1,26.8-30.8-5-36-20.1l15.3-6.4Z"></path>
    </g>
    <g>
      <path d="M389.4,104.4l37-53.4h-33.2v-10.5h50.6v5.2l-36.1,53.4h35v10.5h-53.3v-5.2Z"></path>
      <path d="M475.5,58c15.4,0,27.2,10.8,27.2,26.3s-12.4,26.4-27.7,26.4-27.8-10.7-27.8-26.1,13.1-26.6,28.3-26.6ZM489.7,84.3c0-9.3-4.7-17.1-14.7-17.1s-14.3,8.1-14.3,17.4,4.8,16.6,14.6,16.6c10.1,0,14.4-8,14.4-16.9Z"></path>
      <path d="M511.5,36.1h12.1v31c3.3-6.3,9.9-9.1,16.9-9.1,12.1,0,18.2,8.5,18.2,20v31.7h-12.2v-30.5c0-7.3-3.8-11.3-10.8-11.3s-12.1,4.8-12.1,12v29.7h-12.1V36.1h0Z"></path>
      <path d="M594.8,58c15.4,0,27.2,10.8,27.2,26.3s-12.4,26.4-27.7,26.4-27.8-10.7-27.8-26.1,13.1-26.6,28.3-26.6ZM609,84.3c0-9.3-4.7-17.1-14.7-17.1s-14.3,8.1-14.3,17.4,4.8,16.6,14.6,16.6c10.2,0,14.4-8,14.4-16.9Z"></path>
    </g>
  </g>
  <g>
    <path class="st1" d="M316.3,110.6c4.7,0,8.5-3.8,8.5-8.5v-45.8c0-19.1-14.9-34.9-34-36L73,7.6c-9.9-.6-19.7,3-26.9,9.8-7.3,6.9-11.3,16.2-11.3,26.2v161.3c0,10,4,19.2,11.2,26.1,6.8,6.5,15.6,10,24.9,10h1.8l72.5-3.6-27.4,37.5c-2.8,3.8-1.9,9.1,1.9,11.9,1.5,1.1,3.3,1.6,5,1.6,2.6,0,5.2-1.2,6.9-3.5l35.5-48.6,45.1-2.2,33.6,50.5c1.6,2.5,4.3,3.8,7.1,3.8s3.3-.5,4.7-1.4c3.9-2.6,5-7.9,2.4-11.8l-28-42.1,58.6-2.9c19.3-.9,34.3-16.8,34.3-36v-41.1c0-4.7-3.8-8.5-8.5-8.5s-8.5,3.8-8.5,8.5v41.1c0,10.2-8,18.5-18.2,19l-73.4,3.6h-.1l-144.3,7.1c-5.3.3-10.3-1.6-14.1-5.2-3.8-3.6-5.9-8.5-5.9-13.8V43.6c0-5.3,2.1-10.2,6-13.8,3.9-3.6,8.9-5.5,14.2-5.2l217.8,12.6c10.1.6,18,8.9,18,19v45.8c-.1,4.8,3.7,8.6,8.4,8.6Z"></path>
    <g>
      <path class="st0" d="M252.8,110.6H108c-4.7,0-8.5-3.8-8.5-8.5s3.8-8.5,8.5-8.5h144.9c4.7,0,8.5,3.8,8.5,8.5s-3.9,8.5-8.6,8.5Z"></path>
      <path class="st1" d="M252.8,110.6H108c-4.7,0-8.5-3.8-8.5-8.5s3.8-8.5,8.5-8.5h144.9c4.7,0,8.5,3.8,8.5,8.5s-3.9,8.5-8.6,8.5Z"></path>
    </g>
    <g>
      <path class="st0" d="M136.7,161.8h-28.7c-4.7,0-8.5-3.8-8.5-8.5s3.8-8.5,8.5-8.5h28.7c4.7,0,8.5,3.8,8.5,8.5s-3.8,8.5-8.5,8.5Z"></path>
      <path class="st1" d="M136.7,161.8h-28.7c-4.7,0-8.5-3.8-8.5-8.5s3.8-8.5,8.5-8.5h28.7c4.7,0,8.5,3.8,8.5,8.5s-3.8,8.5-8.5,8.5Z"></path>
    </g>
    <g>
      <path class="st0" d="M218.8,161.8h-48.1c-4.7,0-8.5-3.8-8.5-8.5s3.8-8.5,8.5-8.5h48.1c4.7,0,8.5,3.8,8.5,8.5,0,4.7-3.8,8.5-8.5,8.5Z"></path>
      <path class="st1" d="M218.8,161.8h-48.1c-4.7,0-8.5-3.8-8.5-8.5s3.8-8.5,8.5-8.5h48.1c4.7,0,8.5,3.8,8.5,8.5,0,4.7-3.8,8.5-8.5,8.5Z"></path>
    </g>
  </g>
</svg>