<svg width="188" height="50" viewBox="0 0 188 50" fill="none" xmlns="http://www.w3.org/2000/svg">
<path d="M85.6603 37.8463C84.451 41.5321 80.9687 43.4544 77.207 43.4544C70.9336 43.4544 67.4785 39.4916 67.4785 33.3936C67.4785 27.826 71.3604 23.5051 77.102 23.5051C80.7841 23.5051 84.0004 25.2686 85.4621 28.7416L82.3525 30.0541C81.5276 27.9206 79.6002 26.4358 77.2612 26.4358C73.1405 26.4358 71.44 29.9493 71.44 33.527C71.44 37.2652 73.3014 40.4459 77.3544 40.4459C79.9203 40.4459 81.78 38.8953 82.6573 36.5625L85.6603 37.8463Z" fill="black"/>
<path d="M94.7503 28.6875C99.0692 28.6875 102.392 31.7095 102.392 36.0574C102.392 40.5253 98.8965 43.4544 94.603 43.4544C90.2705 43.4544 86.7883 40.4578 86.7883 36.1233C86.7883 31.6689 90.4703 28.6875 94.7503 28.6875ZM98.7373 36.0845C98.7373 33.473 97.4077 31.299 94.6165 31.299C91.7457 31.299 90.6025 33.5794 90.6025 36.1774C90.6025 38.6959 91.9456 40.8429 94.6961 40.8429C97.5415 40.8429 98.7373 38.5625 98.7373 36.0845Z" fill="black"/>
<path d="M104.877 28.9916H108.28V31.2449C109.198 29.4949 111.11 28.6858 113.091 28.6858C116.507 28.6858 118.049 31.0845 118.049 34.3058V43.1875H114.594V34.6368C114.594 32.6487 113.703 31.4814 111.682 31.4814C109.543 31.4814 108.28 32.8074 108.28 34.848V43.1858H104.877V28.9916Z" fill="black"/>
<path d="M121.624 28.9916H125.027V31.2449C125.945 29.4949 127.857 28.6858 129.839 28.6858C133.255 28.6858 134.796 31.0845 134.796 34.3058V43.1875H131.341V34.6368C131.341 32.6487 130.45 31.4814 128.429 31.4814C126.29 31.4814 125.027 32.8074 125.027 34.848V43.1858H121.624V28.9916Z" fill="black"/>
<path d="M151.089 40.0997C149.907 42.6047 147.355 43.4527 144.736 43.4527C140.243 43.4527 137.413 40.4561 137.413 36.0422C137.413 31.8801 140.297 28.6858 144.577 28.6858C149.175 28.6858 151.423 31.3632 151.423 36.8378H140.881C140.881 39.2365 142.277 40.9865 144.868 40.9865C146.41 40.9865 147.687 40.3632 148.43 38.9189L151.089 40.0997ZM148.032 34.6115C147.926 32.4645 146.623 31.152 144.616 31.152C142.477 31.152 141.227 32.6503 140.934 34.6115H148.032Z" fill="black"/>
<path d="M166.998 39.1723C166.055 42.1419 163.396 43.4544 160.418 43.4544C155.899 43.4544 153.201 40.4324 153.201 36.0439C153.201 31.8277 156.218 28.6875 160.498 28.6875C163.382 28.6875 165.867 29.8936 166.917 32.6774L164.165 33.8834C163.594 32.2922 162.21 31.3784 160.496 31.3784C157.718 31.3784 156.695 33.777 156.695 36.2162C156.695 38.7213 157.798 40.8818 160.55 40.8818C162.505 40.8818 163.819 39.8074 164.405 38.0321L166.998 39.1723Z" fill="black"/>
<path d="M176.9 43.0828C176.168 43.2956 175.411 43.4274 174.561 43.4274C171.849 43.4274 170.242 42.0219 170.242 39.1993V31.4848H168.328V28.9932H170.242V26.0642L173.644 24.5929V28.9932H176.781V31.4848H173.644V38.8953C173.644 40.0084 174.124 40.6976 175.372 40.6976C175.851 40.6976 176.381 40.5912 176.901 40.4189V43.0828H176.9Z" fill="black"/>
<path d="M68.4997 17.6402L74.7613 8.61656H69.1332V6.83615H77.7084V7.72298L71.5992 16.7466H77.5322V18.527H68.5014V17.6402H68.4997Z" fill="black"/>
<path d="M83.0723 9.79053C85.6738 9.79053 87.6757 11.6115 87.6757 14.2297C87.6757 16.9206 85.5705 18.6858 82.9842 18.6858C80.3742 18.6858 78.2757 16.8817 78.2757 14.2703C78.2757 11.5861 80.4945 9.79053 83.0723 9.79053ZM85.4739 14.2449C85.4739 12.6723 84.6728 11.3632 82.9927 11.3632C81.2634 11.3632 80.5741 12.7365 80.5741 14.3024C80.5741 15.8192 81.382 17.1132 83.0401 17.1132C84.7541 17.1115 85.4739 15.7382 85.4739 14.2449Z" fill="black"/>
<path d="M89.173 6.10135H91.2223V11.3311C91.7745 10.2686 92.9042 9.79054 94.0881 9.79054C96.1374 9.79054 97.1621 11.228 97.1621 13.1757V18.5253H95.0958V13.375C95.0958 12.1453 94.4556 11.4747 93.2615 11.4747C91.9489 11.4747 91.2206 12.2804 91.2206 13.5034V18.5253H89.1713V6.10135H89.173Z" fill="black"/>
<path d="M103.288 9.79053C105.89 9.79053 107.892 11.6115 107.892 14.2297C107.892 16.9206 105.786 18.6858 103.2 18.6858C100.59 18.6858 98.4917 16.8817 98.4917 14.2703C98.4934 11.5861 100.71 9.79053 103.288 9.79053ZM105.69 14.2449C105.69 12.6723 104.889 11.3632 103.209 11.3632C101.479 11.3632 100.79 12.7365 100.79 14.3024C100.79 15.8192 101.598 17.1132 103.256 17.1132C104.97 17.1115 105.69 15.7382 105.69 14.2449Z" fill="black"/>
<path d="M15.1264 33.3125C14.6369 33.3125 14.1559 33.0642 13.8866 32.6081C12.0523 29.5321 11.1056 26.0068 11.1496 22.4088C11.1597 21.6233 11.8034 20.9915 12.5909 20.9915C12.596 20.9915 12.6062 20.9915 12.6095 20.9915C13.4073 21.0017 14.0407 21.652 14.0306 22.4476C13.9916 25.5135 14.7995 28.5169 16.3594 31.1368C16.7676 31.8176 16.5423 32.6976 15.8597 33.1064C15.6311 33.25 15.377 33.3125 15.1264 33.3125Z" fill="#226DB4"/>
<path d="M39.9068 8.61826C39.6578 8.61826 39.4021 8.55069 39.1718 8.41724C36.5448 6.85136 33.5233 6.04562 30.4442 6.08447C30.4391 6.08447 30.4289 6.08447 30.4255 6.08447C29.638 6.08447 28.9944 5.45271 28.9842 4.66724C28.974 3.87163 29.6092 3.2213 30.4052 3.21116C34.0178 3.16386 37.5611 4.1115 40.6453 5.94596C41.3278 6.35305 41.5531 7.23481 41.1449 7.91555C40.8756 8.36826 40.3963 8.61826 39.9068 8.61826Z" fill="#226DB4"/>
<path d="M39.4885 39.826C38.9838 39.826 38.4943 39.5625 38.2301 39.0929C37.8405 38.3986 38.0861 37.527 38.7822 37.1385C40.1084 36.3953 41.3278 35.4713 42.4135 34.3936C43.4991 33.3108 44.4205 32.0946 45.1657 30.777C45.5553 30.0878 46.4343 29.8378 47.1253 30.2264C47.8164 30.6149 48.067 31.4916 47.6775 32.1807C46.8086 33.728 45.723 35.1554 44.4493 36.4257C43.1773 37.6943 41.7445 38.777 40.1897 39.6503C39.9678 39.7686 39.729 39.826 39.4885 39.826Z" fill="#226DB4"/>
<path d="M48.1043 27.424C45.684 27.424 43.262 26.5051 41.4227 24.6689C39.6358 22.8868 38.6569 20.5203 38.6569 18.0051C38.6569 15.4848 39.6409 13.1182 41.4227 11.3412C45.1064 7.66723 51.1055 7.66723 54.7893 11.3412C56.5761 13.1233 57.5551 15.4899 57.5551 18.0051C57.5551 20.5253 56.5711 22.8919 54.7893 24.6689C52.9466 26.5051 50.5263 27.424 48.1043 27.424ZM48.1043 11.4544C46.4224 11.4544 44.7372 12.0912 43.4602 13.3699C42.2204 14.6064 41.5344 16.2534 41.5344 18.0017C41.5344 19.75 42.217 21.3986 43.4602 22.6334C46.021 25.1875 50.1892 25.1875 52.7501 22.6334C53.9899 21.397 54.6758 19.75 54.6758 18.0017C54.6758 16.2534 53.9933 14.6047 52.7501 13.3699C51.4713 12.0912 49.7912 11.4544 48.1043 11.4544Z" fill="#F9B21D"/>
<path d="M17.8837 19.353C15.3567 19.353 12.9839 18.3716 11.2021 16.5946C7.51831 12.9206 7.51831 6.9375 11.2021 3.26352C14.8859 -0.410471 20.8849 -0.410471 24.5687 3.26352C26.3556 5.04561 27.3345 7.41216 27.3345 9.92737C27.3345 12.4476 26.3505 14.8142 24.5687 16.5912C22.7836 18.3716 20.4056 19.353 17.8837 19.353ZM17.8837 3.37669C16.2019 3.37669 14.5167 4.01352 13.2396 5.29223C10.6787 7.84629 10.6787 12.0034 13.2396 14.5574C14.4794 15.7939 16.1307 16.478 17.8837 16.478C19.6367 16.478 21.2897 15.7973 22.5278 14.5574C23.7676 13.3209 24.4536 11.674 24.4536 9.92568C24.4536 8.17737 23.771 6.52872 22.5278 5.29392C21.2457 4.01521 19.5656 3.37669 17.8837 3.37669Z" fill="#226DB4"/>
<path d="M25.9813 49.4932C23.4543 49.4932 21.0814 48.5118 19.2996 46.7348C15.6159 43.0608 15.6159 37.0777 19.2996 33.4037C21.0865 31.6216 23.4594 30.6453 25.9813 30.6453C28.5083 30.6453 30.8811 31.6267 32.6629 33.4037C36.3467 37.0777 36.3467 43.0608 32.6629 46.7348C30.8811 48.5118 28.5032 49.4932 25.9813 49.4932ZM25.9813 33.5135C24.2283 33.5135 22.5752 34.1943 21.3372 35.4341C18.7763 37.9882 18.7763 42.1453 21.3372 44.6993C22.5769 45.9358 24.2283 46.6199 25.9813 46.6199C27.7342 46.6199 29.3873 45.9392 30.6254 44.6993C33.1862 42.1453 33.1862 37.9882 30.6254 35.4341C29.3873 34.1976 27.7359 33.5135 25.9813 33.5135Z" fill="#E42527"/>
</svg>
