<?xml version="1.0" encoding="utf-8"?>

<svg version="1.1" id="Layer_1" xmlns="http://www.w3.org/2000/svg" xmlns:xlink="http://www.w3.org/1999/xlink" x="0px" y="0px" viewBox="0 0 1070 296" style="enable-background:new 0 0 1070 296;" xml:space="preserve">

<g>
&#x9;<g>
&#x9;&#x9;<path d="M455.76,224.05c-7.14,21.82-27.7,33.2-49.91,33.2c-37.04,0-57.44-23.46-57.44-59.56c0-32.96,22.92-58.54,56.82-58.54&#xA;&#x9;&#x9;&#x9;c21.74,0,40.73,10.44,49.36,31l-18.36,7.77c-4.87-12.63-16.25-21.42-30.06-21.42c-24.33,0-34.37,20.8-34.37,41.98&#xA;&#x9;&#x9;&#x9;c0,22.13,10.99,40.96,34.92,40.96c15.15,0,26.13-9.18,31.31-22.99L455.76,224.05z"></path>
&#x9;&#x9;<path d="M509.43,169.83c25.5,0,45.12,17.89,45.12,43.63c0,26.45-20.64,43.79-45.99,43.79c-25.58,0-46.14-17.74-46.14-43.4&#xA;&#x9;&#x9;&#x9;C462.42,187.48,484.16,169.83,509.43,169.83z M532.97,213.62c0-15.46-7.85-28.33-24.33-28.33c-16.95,0-23.7,13.5-23.7,28.88&#xA;&#x9;&#x9;&#x9;c0,14.91,7.93,27.62,24.17,27.62C525.91,241.79,532.97,228.29,532.97,213.62z"></path>
&#x9;&#x9;<path d="M569.22,171.63h20.09v13.34c5.42-10.36,16.71-15.15,28.41-15.15c20.17,0,29.27,14.2,29.27,33.27v52.58h-20.4v-50.62&#xA;&#x9;&#x9;&#x9;c0-11.77-5.26-18.68-17.19-18.68c-12.63,0-20.09,7.85-20.09,19.93v49.36h-20.09V171.63z"></path>
&#x9;&#x9;<path d="M710.63,255.05c-4.32,1.26-8.79,2.04-13.81,2.04c-16.01,0-25.5-8.32-25.5-25.03v-45.67h-11.3v-14.75h11.3v-17.34&#xA;&#x9;&#x9;&#x9;l20.09-8.71v26.05h18.52v14.75H691.4v43.87c0,6.59,2.83,10.67,10.2,10.67c2.83,0,5.96-0.63,9.03-1.65V255.05z"></path>
&#x9;&#x9;<path d="M775.92,245.4c-6.36,8.48-15.69,11.85-26.05,11.85c-15.77,0-28.17-8-28.17-24.48c0-23.31,24.64-27,44.18-27h9.89v-1.33&#xA;&#x9;&#x9;&#x9;c0-12.01-2.83-19.62-16.4-19.62c-8.16,0-15.7,4.24-18.68,12.01l-15.62-6.75c5.65-14.83,21.34-20.25,36.33-20.25&#xA;&#x9;&#x9;&#x9;c19.85,0,34.29,9.57,34.29,30.92v54.93h-19.78V245.4z M765.64,218.09c-9.26,0-24.01,1.1-24.01,13.81&#xA;&#x9;&#x9;&#x9;c0,8.08,5.89,11.07,13.42,11.07c10.2,0,20.72-5.34,20.72-16.72v-8.16H765.64z"></path>
&#x9;&#x9;<path d="M892.69,231.9c-5.57,17.58-21.27,25.35-38.85,25.35c-26.68,0-42.61-17.89-42.61-43.87c0-24.96,17.81-43.55,43.08-43.55&#xA;&#x9;&#x9;&#x9;c17.03,0,31.7,7.14,37.9,23.62l-16.25,7.14c-3.37-9.42-11.54-14.83-21.66-14.83c-16.4,0-22.44,14.2-22.44,28.64&#xA;&#x9;&#x9;&#x9;c0,14.83,6.51,27.62,22.76,27.62c11.54,0,19.3-6.36,22.76-16.87L892.69,231.9z"></path>
&#x9;&#x9;<path d="M951.15,255.05c-4.32,1.26-8.79,2.04-13.81,2.04c-16.01,0-25.5-8.32-25.5-25.03v-45.67h-11.3v-14.75h11.3v-17.34&#xA;&#x9;&#x9;&#x9;l20.09-8.71v26.05h18.52v14.75h-18.52v43.87c0,6.59,2.83,10.67,10.2,10.67c2.83,0,5.96-0.63,9.03-1.65V255.05z"></path>
&#x9;&#x9;<path d="M976.73,230.64c3.14,8.24,11.69,12.16,20.8,12.16c6.51,0,14.6-2.04,14.6-9.97c0-8.4-9.1-10.36-19.46-12.56&#xA;&#x9;&#x9;&#x9;c-13.5-2.83-28.64-6.12-28.64-24.96c0-17.26,16.09-25.5,31.31-25.5c13.34,0,28.56,5.02,34.06,18.29l-14.91,6.43&#xA;&#x9;&#x9;&#x9;c-3.3-7.46-11.54-10.28-18.44-10.28c-6.67,0-13.11,2.67-13.11,9.5c0,7.69,8.24,9.34,18.36,11.3c13.73,2.67,30.06,5.81,30.06,25.43&#xA;&#x9;&#x9;&#x9;c0,19.78-16.56,26.76-34.06,26.76c-14.83,0-30.76-5.02-36.02-20.09L976.73,230.64z"></path>
&#x9;</g>
&#x9;<g>
&#x9;&#x9;<path d="M354.44,104.43l36.97-53.42h-33.23V40.47h50.63v5.25l-36.07,53.42h35.03v10.54h-53.32V104.43z"></path>
&#x9;&#x9;<path d="M440.48,57.96c15.36,0,27.18,10.78,27.18,26.28c0,15.93-12.43,26.38-27.7,26.38c-15.41,0-27.8-10.68-27.8-26.14&#xA;&#x9;&#x9;&#x9;C412.16,68.59,425.26,57.96,440.48,57.96z M454.66,84.33c0-9.31-4.73-17.06-14.65-17.06c-10.21,0-14.28,8.13-14.28,17.4&#xA;&#x9;&#x9;&#x9;c0,8.98,4.77,16.64,14.56,16.64C450.41,101.3,454.66,93.17,454.66,84.33z"></path>
&#x9;&#x9;<path d="M476.5,36.12h12.1v30.96c3.26-6.29,9.93-9.12,16.92-9.12c12.1,0,18.15,8.51,18.15,20.04v31.67h-12.2V79.18&#xA;&#x9;&#x9;&#x9;c0-7.28-3.78-11.25-10.83-11.25c-7.75,0-12.05,4.77-12.05,12.01v29.73h-12.1V36.12z"></path>
&#x9;&#x9;<path d="M559.84,57.96c15.36,0,27.18,10.78,27.18,26.28c0,15.93-12.43,26.38-27.7,26.38c-15.41,0-27.8-10.68-27.8-26.14&#xA;&#x9;&#x9;&#x9;C531.53,68.59,544.62,57.96,559.84,57.96z M574.02,84.33c0-9.31-4.73-17.06-14.65-17.06c-10.21,0-14.28,8.13-14.28,17.4&#xA;&#x9;&#x9;&#x9;c0,8.98,4.77,16.64,14.56,16.64C569.77,101.3,574.02,93.17,574.02,84.33z"></path>
&#x9;</g>
</g>
<path class="st1" d="M282.72,206.14l-96.38-55.54c6.63-5.98,10.82-14.61,10.82-24.22c0-17.96-14.61-32.57-32.57-32.57&#xA;&#x9;s-32.57,14.61-32.57,32.57c0,9.77,4.31,18.52,11.13,24.5l-32.4,18.72c-4.05,2.35-5.47,7.53-3.12,11.61&#xA;&#x9;c2.35,4.05,7.53,5.47,11.61,3.12l35.83-20.7c6.12-3.54,13.71-3.54,19.83,0l95.08,54.8l-95.08,54.89c-6.12,3.54-13.71,3.54-19.83,0&#xA;&#x9;l-93.69-54.1c-6.12-3.54-9.91-10.11-9.91-17.16V93.87c0-7.05,3.8-13.65,9.91-17.16l93.69-54.1c6.12-3.54,13.71-3.54,19.83,0&#xA;&#x9;l95.11,54.92L246.7,90.98l-70.38-40.61c-7-4.02-15.66-4.02-22.66,0L86.11,89.33c-7,4.02-11.33,11.56-11.33,19.63v77.97&#xA;&#x9;c0,8.07,4.33,15.58,11.33,19.63l67.55,39c7,4.02,15.66,4.02,22.66,0l42.71-24.67c4.05-2.35,5.47-7.53,3.12-11.61&#xA;&#x9;c-2.35-4.05-7.53-5.47-11.61-3.12l-42.71,24.7c-1.76,1.02-3.91,1.02-5.66,0l-67.55-39c-1.76-1.02-2.83-2.89-2.83-4.9v-78&#xA;&#x9;c0-2.01,1.08-3.91,2.83-4.9l67.55-39c1.76-1.02,3.91-1.02,5.66,0l71.8,41.44c4.36,2.52,9.8,2.52,14.16,0l28.97-16.74&#xA;&#x9;c4.45-2.55,7.08-7.14,7.08-12.26c0-5.13-2.63-9.71-7.08-12.26L183.4,7.91c-11.36-6.54-25.46-6.54-36.82,0L52.89,62&#xA;&#x9;c-11.36,6.54-18.41,18.78-18.41,31.89v108.19c0,13.11,7.05,25.32,18.41,31.89l93.69,54.1c5.66,3.29,12.04,4.93,18.41,4.93&#xA;&#x9;c6.37,0,12.75-1.64,18.41-4.93l99.35-57.41c4.45-2.55,7.08-7.14,7.08-12.26C289.8,213.27,287.17,208.68,282.72,206.14z&#xA;&#x9; M164.59,110.8c8.58,0,15.58,7,15.58,15.58s-7,15.58-15.58,15.58s-15.58-7-15.58-15.58S156.01,110.8,164.59,110.8z"></path>
</svg>