<svg width="210" height="60" viewBox="0 0 210 60" fill="none" xmlns="http://www.w3.org/2000/svg">
<path d="M86.8618 45.4256C85.4309 49.8446 81.2793 52.1554 76.8052 52.1554C69.3484 52.1554 65.2371 47.3919 65.2371 40.0743C65.2371 33.3851 69.8522 28.2162 76.6843 28.2162C81.0576 28.2162 84.8868 30.3243 86.6401 34.5L82.9319 36.0811C81.9444 33.527 79.667 31.7432 76.8657 31.7432C71.9683 31.7432 69.9328 35.9594 69.9328 40.2567C69.9328 44.7365 72.1497 48.5675 76.9664 48.5675C80.0096 48.5675 82.2265 46.7027 83.2745 43.9054L86.8618 45.4256Z" fill="black"/>
<path d="M90.0057 28.5405H98.3896C103.025 28.5405 107.096 30.2635 107.096 35.5338C107.096 38.8581 105.121 41.0067 101.977 41.777L108.487 51.8108H103.65L97.6238 42.4257H94.5V51.8108H90.0057V28.5405ZM98.2687 39.3243C100.848 39.3243 102.743 38.3311 102.743 35.554C102.743 32.6757 100.727 31.9865 98.2687 31.9865H94.5V39.3243H98.2687Z" fill="black"/>
<path d="M111.449 28.5405H117.132L123.803 45.5067L130.434 28.5405H135.976V51.8311H131.824V34.0743L124.529 51.8311H122.534L115.48 34.0743V51.8311H111.449V28.5405Z" fill="black"/>
<path d="M147.826 28.5405H155.868C160.745 28.5405 164.554 30.5067 164.554 35.8784C164.554 41.777 159.918 43.054 154.961 43.054H152.3V51.8311H147.806V28.5405H147.826ZM155.847 39.8108C158.608 39.8108 160.18 38.6554 160.18 35.8581C160.18 32.9392 158.467 31.9865 155.847 31.9865H152.321V39.8311H155.847V39.8108Z" fill="black"/>
<path d="M167.698 27.8919L171.749 26.1284V51.8311H167.698V27.8919Z" fill="black"/>
<path d="M187.65 49.1554C186.582 51.2229 184.405 52.1554 182.067 52.1554C178.178 52.1554 176.122 49.581 176.122 45.7094V34.804H180.173V45.2027C180.173 47.5338 181.241 48.9527 183.599 48.9527C186.138 48.9527 187.67 47.3108 187.67 44.8783V34.7838H191.701V51.8108H187.67V49.1554H187.65Z" fill="black"/>
<path d="M197.928 46.7432C198.553 48.4054 200.286 49.2162 202.12 49.2162C203.43 49.2162 205.062 48.8108 205.062 47.1892C205.062 45.4865 203.228 45.0811 201.132 44.6351C198.412 44.0675 195.368 43.3986 195.368 39.5675C195.368 36.0608 198.613 34.3986 201.677 34.3986C204.357 34.3986 207.44 35.4121 208.549 38.1081L205.546 39.4054C204.881 37.8851 203.228 37.3175 201.838 37.3175C200.487 37.3175 199.198 37.8648 199.198 39.2432C199.198 40.804 200.85 41.1283 202.906 41.5338C205.667 42.0811 208.972 42.7094 208.972 46.6824C208.972 50.6959 205.627 52.1148 202.1 52.1148C199.117 52.1148 195.892 51.1013 194.844 48.0405L197.928 46.7432Z" fill="black"/>
<path d="M66.4261 21.1622L73.883 10.3379H67.192V8.20947H77.3897V9.26353L70.1142 20.0879H77.168V22.2162H66.4261V21.1622Z" fill="black"/>
<path d="M83.7784 11.7568C86.8821 11.7568 89.2602 13.946 89.2602 17.0879C89.2602 20.3108 86.7611 22.4392 83.6776 22.4392C80.574 22.4392 78.075 20.2703 78.075 17.1487C78.075 13.9054 80.7151 11.7568 83.7784 11.7568ZM86.6402 17.0879C86.6402 15.2027 85.693 13.6216 83.6776 13.6216C81.622 13.6216 80.7957 15.2635 80.7957 17.1487C80.7957 18.973 81.7631 20.5135 83.7381 20.5135C85.7736 20.5338 86.6402 18.8919 86.6402 17.0879Z" fill="black"/>
<path d="M91.0337 7.31757H93.4723V13.6013C94.1373 12.3243 95.4675 11.7568 96.8782 11.7568C99.3168 11.7568 100.546 13.4797 100.546 15.8108V22.2365H98.0874V16.0541C98.0874 14.5743 97.3216 13.7635 95.9108 13.7635C94.3389 13.7635 93.4723 14.7365 93.4723 16.1959V22.2162H91.0337V7.31757Z" fill="black"/>
<path d="M107.821 11.7568C110.925 11.7568 113.303 13.946 113.303 17.0879C113.303 20.3108 110.804 22.4392 107.721 22.4392C104.617 22.4392 102.118 20.2703 102.118 17.1487C102.118 13.9054 104.758 11.7568 107.821 11.7568ZM110.683 17.0879C110.683 15.2027 109.736 13.6216 107.721 13.6216C105.665 13.6216 104.839 15.2635 104.839 17.1487C104.839 18.973 105.806 20.5135 107.781 20.5135C109.837 20.5338 110.683 18.8919 110.683 17.0879Z" fill="black"/>
<path d="M53.4069 15.8513C53.3868 15.5067 53.2054 15.1013 52.8426 14.8784L28.5173 0.770252C28.1545 0.567549 27.7313 0.567549 27.3685 0.770252L3.06336 14.8784C2.76106 15.0608 2.47891 15.4257 2.49907 15.8716V44.1081C2.49907 44.5135 2.72075 44.8986 3.06336 45.1013L27.3887 59.2297C27.6708 59.3919 28.1142 59.473 28.5375 59.2297L52.8628 45.1216C53.2256 44.9189 53.4271 44.5338 53.4271 44.1284V15.8919C53.4069 15.8716 53.4069 15.8513 53.4069 15.8513ZM35.1075 32.8176C35.0874 32.8176 35.0874 32.7973 35.0874 32.7973C35.0672 32.777 35.0471 32.777 35.0269 32.777C35.0067 32.777 34.9866 32.7567 34.9664 32.7567C34.9463 32.7567 34.9261 32.7365 34.906 32.7365C34.8858 32.7365 34.8657 32.7162 34.8455 32.7162C34.8254 32.7162 34.8254 32.6959 34.8052 32.6959C34.7851 32.6959 34.7649 32.6757 34.7447 32.6757C34.7246 32.6757 34.7246 32.6757 34.7044 32.6757C34.6843 32.6757 34.6641 32.6757 34.644 32.6757C34.6238 32.6757 34.6037 32.6757 34.5835 32.6757C34.5634 32.6757 34.5432 32.6757 34.5231 32.6757C34.5029 32.6757 34.4828 32.6757 34.4626 32.6757C34.4424 32.6757 34.4223 32.6757 34.4223 32.6757C34.4021 32.6757 34.382 32.6757 34.3618 32.6757C34.3417 32.6757 34.3417 32.6757 34.3215 32.6757C34.3014 32.6757 34.2812 32.6959 34.2611 32.6959C34.2409 32.6959 34.2409 32.6959 34.2208 32.7162C34.2006 32.7162 34.1804 32.7365 34.1603 32.7365C34.1401 32.7365 34.12 32.7567 34.0998 32.7567C34.0797 32.7567 34.0595 32.777 34.0394 32.777C34.0192 32.7973 33.9991 32.7973 33.9789 32.7973C33.9588 32.7973 33.9588 32.8176 33.9588 32.8176L24.3858 38.3513C23.4185 38.9189 22.3705 38.8986 21.1411 38.2703C20.859 38.1284 20.597 37.9662 20.3753 37.804L28.5979 30.9324L51.1094 17.8581V42.0608L35.1075 32.8176ZM27.953 3.08106L49.9808 15.8919L37.6469 23.0473C37.5864 22.9865 37.5259 22.9459 37.4453 22.9054L28.5173 17.7162C28.1545 17.5135 27.7313 17.5135 27.3685 17.7162L18.3398 22.9662C18.3196 22.9865 18.2793 23.0067 18.2591 23.027L5.92517 15.8919L27.953 3.08106ZM4.77642 17.8784L23.2975 28.5811C23.4789 28.6824 23.6804 28.7432 23.8618 28.7432C24.2649 28.7432 24.6478 28.5405 24.8494 28.1757C25.1718 27.6284 24.9703 26.9189 24.4261 26.5946L20.5566 24.3446L27.953 20.0473L35.3897 24.3648L27.3887 29.0067C27.3282 29.0473 27.2879 29.0676 27.2275 29.1081L17.8762 36.9121C17.8561 36.9121 17.8561 36.9324 17.8561 36.9324C17.8359 36.9324 17.8359 36.9527 17.8359 36.9527L17.8158 36.973C17.7956 36.9932 17.7956 36.9932 17.7755 37.0135C17.7553 37.0338 17.7553 37.0338 17.7352 37.054C17.715 37.0743 17.715 37.0946 17.6948 37.0946C17.6747 37.1148 17.6747 37.1148 17.6747 37.1351C17.6545 37.1554 17.6545 37.1757 17.6545 37.1959C17.6344 37.2162 17.6344 37.2162 17.6344 37.2365C17.6344 37.2567 17.6142 37.277 17.6142 37.2973C17.6142 37.3176 17.5941 37.3378 17.5941 37.3581C17.5941 37.3784 17.5739 37.3986 17.5739 37.4189C17.5739 37.4392 17.5538 37.4594 17.5538 37.4797C17.5538 37.5 17.5336 37.5203 17.5336 37.5405C17.5336 37.5608 17.5135 37.5811 17.5135 37.6013C17.5135 37.6216 17.5135 37.6419 17.4933 37.6621C17.4933 37.6824 17.4933 37.7027 17.4933 37.723C17.4933 37.7432 17.4933 37.7635 17.4933 37.7838C17.4933 37.804 17.4933 37.8243 17.4933 37.8446C17.4933 37.8648 17.4933 37.8851 17.4933 37.9054C17.4933 37.9257 17.4933 37.9459 17.4933 37.9662C17.4933 37.9865 17.4933 38.0067 17.4933 38.027C17.4933 38.0473 17.4933 38.0676 17.4933 38.0878C17.4933 38.1081 17.4933 38.1284 17.5135 38.1486C17.5135 38.1689 17.5135 38.1892 17.5336 38.2094C17.5336 38.2297 17.5538 38.25 17.5538 38.2703C17.5538 38.2905 17.5739 38.3108 17.5739 38.3311C17.5739 38.3513 17.5941 38.3716 17.5941 38.3919C17.5941 38.4121 17.6142 38.4324 17.6142 38.4527C17.6142 38.473 17.6344 38.473 17.6344 38.4932C17.6545 38.5135 17.6545 38.5338 17.6747 38.554C17.6948 38.5743 17.6948 38.5743 17.6948 38.5946C17.715 38.6148 17.715 38.6351 17.7352 38.6554C17.7352 38.6554 17.7352 38.6757 17.7553 38.6757C17.7755 38.6959 17.7755 38.7162 17.7956 38.7365C17.8359 38.777 18.7428 39.7297 20.0931 40.4392C21.0806 40.9459 22.048 41.1892 22.9751 41.1892C23.882 41.1892 24.7486 40.9459 25.5749 40.4797L34.5835 35.2703L50.0614 44.2297L44.1968 47.6351C44.1565 47.6148 34.2208 41.8176 34.2208 41.8176C33.6766 41.4932 32.9712 41.6757 32.6488 42.2432C32.3263 42.7905 32.5077 43.5 33.072 43.8243L41.9194 48.973L36.1353 52.3378C36.1152 52.3176 26.0586 46.5203 26.0586 46.5203C25.5144 46.1959 24.809 46.3986 24.4866 46.9459C24.1641 47.4932 24.3657 48.2027 24.9098 48.527L33.8378 53.6757L27.9933 57.0608L4.81672 43.6013V17.8784H4.77642Z" fill="#226DB4"/>
</svg>
