<svg width="121" height="50" viewBox="0 0 121 50" fill="none" xmlns="http://www.w3.org/2000/svg">
<path d="M77.7335 37.8463C76.5232 41.5321 73.038 43.4544 69.2731 43.4544C62.9944 43.4544 59.5363 39.4916 59.5363 33.3936C59.5363 27.826 63.4216 23.5051 69.168 23.5051C72.8533 23.5051 76.0723 25.2686 77.5352 28.7416L74.4229 30.0541C73.5974 27.9206 71.6701 26.4358 69.3274 26.4358C65.2031 26.4358 63.5012 29.9493 63.5012 33.527C63.5012 37.1047 65.3642 40.4459 69.4206 40.4459C71.9887 40.4459 73.85 38.8953 74.7281 36.5625L77.7352 37.848L77.7335 37.8463Z" fill="black"/>
<path d="M80.4983 23.7821H87.5483C91.4454 23.7821 94.8781 25.2145 94.8781 29.6149C94.8781 32.3851 93.2151 34.1757 90.5673 34.8243L96.0477 43.1892H91.9777L86.9093 35.3683H84.275V43.1892H80.4966V23.7821H80.4983ZM87.4415 32.7703C89.6096 32.7703 91.2064 31.9476 91.2064 29.6284C91.2064 27.3091 89.5045 26.6588 87.4415 26.6588H84.275V32.7703H87.4415Z" fill="black"/>
<path d="M98.6294 23.7821H103.405L109.019 37.9257L114.592 23.7821H119.261V43.1892H115.776V28.3953L109.643 43.1892H107.966L102.033 28.3953V43.1892H98.6277V23.7821H98.6294Z" fill="black"/>
<path d="M60.5381 17.6402L66.805 8.61659H61.1721V6.83618H69.7545V7.72301L63.6402 16.7467H69.5783V18.5271H60.5398V17.6402H60.5381Z" fill="black"/>
<path d="M75.1061 9.79059C77.7098 9.79059 79.7134 11.6115 79.7134 14.2298C79.7134 16.848 77.6064 18.6859 75.0179 18.6859C72.4295 18.6859 70.3055 16.8818 70.3055 14.2703C70.3055 11.6588 72.5244 9.79059 75.1061 9.79059ZM77.5098 14.2467C77.5098 12.674 76.708 11.3649 75.0264 11.3649C73.3448 11.3649 72.6058 12.7382 72.6058 14.3041C72.6058 15.87 73.4143 17.1149 75.0739 17.1149C76.7334 17.1149 77.5098 15.7416 77.5098 14.2484V14.2467Z" fill="black"/>
<path d="M81.1153 6.10138H83.1664V11.3311C83.719 10.2686 84.8497 9.79057 86.0346 9.79057C88.0857 9.79057 89.1112 11.2281 89.1112 13.1757V18.5254H87.0432V13.375C87.0432 12.1453 86.4024 11.4747 85.2074 11.4747C83.8936 11.4747 83.1647 12.2804 83.1647 13.5034V18.5254H81.1136V6.10138H81.1153Z" fill="black"/>
<path d="M95.1476 9.79059C97.7513 9.79059 99.7549 11.6115 99.7549 14.2298C99.7549 16.848 97.6479 18.6859 95.0594 18.6859C92.471 18.6859 90.347 16.8818 90.347 14.2703C90.347 11.6588 92.5659 9.79059 95.1476 9.79059ZM97.5513 14.2467C97.5513 12.674 96.7495 11.3649 95.0679 11.3649C93.3863 11.3649 92.6473 12.7382 92.6473 14.3041C92.6473 15.87 93.4558 17.1149 95.1154 17.1149C96.7749 17.1149 97.5513 15.7416 97.5513 14.2484V14.2467Z" fill="black"/>
<path d="M34.6247 40.4121C30.5242 40.4121 26.661 38.8294 23.7471 35.9561L15.2307 27.4696C14.2391 26.4814 13.695 25.1672 13.7 23.7702C13.7051 22.3733 14.256 21.0625 15.2528 20.0811C17.2903 18.0743 20.5975 18.0844 22.6232 20.103L30.4225 27.875C31.3362 28.7854 32.8262 28.7888 33.7432 27.8834C34.1925 27.4409 34.4399 26.8513 34.4416 26.2213C34.4433 25.5929 34.1992 25 33.7517 24.5557L25.2473 16.0811C22.8707 13.7381 19.7144 12.4476 16.3682 12.4577C12.9542 12.4662 9.76734 13.8023 7.39416 16.2196C5.01759 18.6402 3.74624 21.8479 3.81405 25.2517C3.94797 32.027 9.59275 37.5405 16.397 37.5405C17.6141 37.5405 18.8159 37.3682 19.9703 37.0287C20.7331 36.804 21.5349 37.2381 21.7587 37.9983C21.9841 38.7584 21.5485 39.5574 20.7857 39.7821C19.3669 40.1993 17.8904 40.4121 16.397 40.4121C8.03492 40.4121 1.09845 33.6368 0.934026 25.3091C0.850965 21.1284 2.41387 17.1875 5.33458 14.2128C8.25359 11.2398 12.1693 9.59626 16.3614 9.58781C20.4551 9.57767 24.3522 11.1604 27.2763 14.0439L35.7893 22.527C36.7809 23.5169 37.3267 24.8311 37.3234 26.2297C37.32 27.6283 36.7674 28.9408 35.7706 29.924C33.7297 31.9358 30.4174 31.9273 28.3866 29.9037L20.5874 22.1317C19.6771 21.2246 18.1938 21.2213 17.2785 22.1216C16.8309 22.5625 16.5835 23.1503 16.5818 23.7787C16.5801 24.4054 16.8242 24.9966 17.2683 25.4392L25.7761 33.9189C28.1442 36.2533 31.2887 37.5422 34.6247 37.5422C41.5578 37.5422 47.2043 31.9223 47.211 25.0135C47.2144 21.6655 45.9058 18.5135 43.5258 16.1385C41.1459 13.7635 37.9845 12.4561 34.6247 12.4561C33.5534 12.4561 32.4905 12.5895 31.4633 12.8547C31.3141 12.8936 31.165 12.9341 31.0175 12.978C30.2547 13.2044 29.4529 12.7719 29.2257 12.0135C28.9986 11.2534 29.4325 10.4544 30.1936 10.228C30.375 10.174 30.5581 10.1233 30.7412 10.076C32.0024 9.75166 33.3093 9.58612 34.623 9.58612C38.7524 9.58612 42.6376 11.1925 45.5617 14.1098C48.4858 17.027 50.0945 20.9003 50.0894 25.0152C50.0809 33.505 43.141 40.4104 34.623 40.4104L34.6247 40.4121Z" fill="#006EB9"/>
</svg>
