<svg width="183" height="50" viewBox="0 0 183 50" fill="none" xmlns="http://www.w3.org/2000/svg">
<path d="M64.5058 23.7838H71.0391C77.3698 23.7838 81.2189 27.0777 81.2189 33.5473C81.2189 39.8649 77.1672 43.1926 71.0053 43.1926H64.5058V23.7838ZM70.9209 40.2534C75.4453 40.2534 77.3023 37.6351 77.3023 33.3784C77.3023 29.0034 75.3271 26.7061 70.8703 26.7061H68.2705V40.2534H70.9209Z" fill="black"/>
<path d="M92.1921 41.4527C91.1117 42.8885 89.5417 43.4459 87.786 43.4459C85.1186 43.4459 83.0253 42.0946 83.0253 39.3074C83.0253 35.3716 87.1782 34.7466 90.4871 34.7466H92.1584V34.527C92.1584 32.5 91.6857 31.2162 89.3898 31.2162C88.0054 31.2162 86.7393 31.9257 86.2328 33.2432L83.5993 32.1115C84.5446 29.6115 87.1951 28.6993 89.7274 28.6993C93.0869 28.6993 95.5179 30.3209 95.5179 33.9189V43.1926H92.1753V41.4527H92.1921ZM90.4533 36.8412C88.8833 36.8412 86.4017 37.027 86.4017 39.1723C86.4017 40.5405 87.3977 41.0473 88.6638 41.0473C90.3858 41.0473 92.1584 40.152 92.1584 38.2263V36.8412H90.4533Z" fill="black"/>
<path d="M106.289 43.0912C105.563 43.3108 104.803 43.4291 103.959 43.4291C101.258 43.4291 99.6539 42.027 99.6539 39.2061V31.4865H97.7463V28.9865H99.6539V26.0642L103.047 24.5946V29.0034H106.17V31.5034H103.047V38.9189C103.047 40.0338 103.52 40.7264 104.769 40.7264C105.242 40.7264 105.782 40.625 106.289 40.4561V43.0912Z" fill="black"/>
<path d="M117.312 41.4527C116.232 42.8885 114.662 43.4459 112.906 43.4459C110.239 43.4459 108.146 42.0946 108.146 39.3074C108.146 35.3716 112.299 34.7466 115.607 34.7466H117.279V34.527C117.279 32.5 116.806 31.2162 114.51 31.2162C113.126 31.2162 111.86 31.9257 111.353 33.2432L108.72 32.1115C109.665 29.6115 112.315 28.6993 114.848 28.6993C118.207 28.6993 120.638 30.3209 120.638 33.9189V43.1926H117.296V41.4527H117.312ZM115.574 36.8412C114.004 36.8412 111.522 37.027 111.522 39.1723C111.522 40.5405 112.518 41.0473 113.784 41.0473C115.506 41.0473 117.279 40.152 117.279 38.2263V36.8412H115.574Z" fill="black"/>
<path d="M124.352 23.7838H131.088C135.174 23.7838 138.364 25.4223 138.364 29.8986C138.364 34.8142 134.481 35.8784 130.328 35.8784H128.1V43.1926H124.335V23.7838H124.352ZM131.071 33.1757C133.384 33.1757 134.701 32.2128 134.701 29.8818C134.701 27.4493 133.266 26.6554 131.071 26.6554H128.117V33.1926H131.071V33.1757Z" fill="black"/>
<path d="M140.896 28.9865H144.29V31.6554C145.252 29.7128 146.788 28.7838 148.949 28.7838V31.9257C146.214 31.9257 144.29 32.8209 144.29 35.8615V43.1926H140.896V28.9865Z" fill="black"/>
<path d="M164.126 40.1014C162.944 42.6014 160.395 43.4628 157.795 43.4628C153.322 43.4628 150.502 40.473 150.502 36.0473C150.502 31.8919 153.372 28.6824 157.643 28.6824C162.235 28.6824 164.464 31.3682 164.464 36.8412H153.963C153.963 39.2399 155.347 40.9966 157.93 40.9966C159.467 40.9966 160.733 40.3716 161.476 38.9358L164.126 40.1014ZM161.07 34.6115C160.969 32.4662 159.669 31.1486 157.66 31.1486C155.533 31.1486 154.284 32.652 153.997 34.6115H161.07Z" fill="black"/>
<path d="M167.182 28.9865H170.575V31.2838C171.554 29.6284 173.546 28.6824 175.437 28.6824C179.776 28.6824 181.869 32.1622 181.869 36.0473C181.869 40.0338 179.641 43.4628 175.538 43.4628C173.546 43.4628 171.537 42.6689 170.592 40.9628V48.0574H167.199V28.9865H167.182ZM178.357 35.9628C178.357 33.5642 177.159 31.3345 174.39 31.3345C171.588 31.3345 170.457 33.5811 170.457 36.1318C170.457 38.7669 171.672 40.7939 174.492 40.7939C177.496 40.8108 178.357 38.5811 178.357 35.9628Z" fill="black"/>
<path d="M64.5227 17.6351L70.769 8.61487H65.1642V6.84122H73.7065V7.7196L67.6121 16.7399H73.5208V18.5135H64.5227V17.6351Z" fill="black"/>
<path d="M79.058 9.79727C81.6579 9.79727 83.6499 11.6216 83.6499 14.2398C83.6499 16.9257 81.5566 18.6993 78.9736 18.6993C76.3738 18.6993 74.2805 16.8919 74.2805 14.2905C74.2805 11.5878 76.4751 9.79727 79.058 9.79727ZM81.4384 14.2398C81.4384 12.6689 80.6449 11.3513 78.9567 11.3513C77.2348 11.3513 76.5426 12.7196 76.5426 14.2905C76.5426 15.8108 77.353 17.0946 79.0074 17.0946C80.7293 17.1115 81.4384 15.7432 81.4384 14.2398Z" fill="black"/>
<path d="M85.1355 6.09796H87.1782V11.3344C87.7353 10.2703 88.8495 9.79729 90.0313 9.79729C92.074 9.79729 93.1038 11.2331 93.1038 13.1757V18.5304H91.0442V13.3784C91.0442 12.1453 90.4027 11.4696 89.2209 11.4696C87.9041 11.4696 87.1782 12.2804 87.1782 13.4966V18.5135H85.1355V6.09796Z" fill="black"/>
<path d="M99.1982 9.79727C101.798 9.79727 103.79 11.6216 103.79 14.2398C103.79 16.9257 101.697 18.6993 99.1138 18.6993C96.5139 18.6993 94.4206 16.8919 94.4206 14.2905C94.4206 11.5878 96.6321 9.79727 99.1982 9.79727ZM101.595 14.2398C101.595 12.6689 100.802 11.3513 99.1138 11.3513C97.3918 11.3513 96.6997 12.7196 96.6997 14.2905C96.6997 15.8108 97.51 17.0946 99.1644 17.0946C100.886 17.1115 101.595 15.7432 101.595 14.2398Z" fill="black"/>
<path d="M8.5085 40.0169C8.00204 40.0169 7.49559 39.9156 7.02289 39.7128C6.34762 39.4257 5.75675 38.9696 5.35158 38.3784C4.89577 37.7365 4.65942 36.9764 4.65942 36.1824V11.7906C4.65942 10.9966 4.89577 10.2196 5.35158 9.59461C5.77363 9.00339 6.34762 8.54731 7.02289 8.26015C7.69817 7.97298 8.44097 7.88853 9.15001 8.02366C9.92658 8.1588 10.6187 8.53042 11.1927 9.08785L21.018 18.9189C21.5751 19.4764 21.5751 20.3885 21.018 20.946C20.4609 21.5034 19.5493 21.5034 18.9922 20.946L9.1669 11.098C8.76173 10.6926 8.30592 10.8108 8.12022 10.8953C7.93452 10.9628 7.52935 11.1993 7.52935 11.7737V36.1824C7.52935 36.7568 7.93452 36.9933 8.12022 37.0608C8.30592 37.1284 8.76173 37.2635 9.1669 36.8581L40.9893 5.0169C42.4749 3.53042 44.9059 3.53042 46.3915 5.0169L47.1343 5.76015C47.6914 6.31758 47.6914 7.22974 47.1343 7.78717C46.5772 8.34461 45.6656 8.34461 45.1085 7.78717L44.3657 7.04393C43.9943 6.67231 43.3865 6.67231 43.0151 7.04393L11.1927 38.8851C10.6187 39.4595 9.92658 39.8311 9.15001 39.9493C8.93055 40 8.72797 40.0169 8.5085 40.0169Z" fill="#226DB4"/>
<path d="M14.586 46.098C13.6068 46.098 12.6277 45.7264 11.8849 44.9831L11.1421 44.2399C10.585 43.6824 10.585 42.7703 11.1421 42.2128C11.6992 41.6554 12.6108 41.6554 13.1679 42.2128L13.9107 42.9561C14.2821 43.3277 14.8899 43.3277 15.2613 42.9561L47.0837 11.098C47.6577 10.5237 48.3498 10.152 49.1264 10.0338C49.8354 9.91554 50.5782 10 51.2535 10.2703C51.9288 10.5574 52.5197 11.0135 52.9248 11.6047C53.3806 12.2466 53.617 13.0068 53.617 13.8007V38.2095C53.617 39.0034 53.3806 39.7804 52.9248 40.4054C52.5028 40.9966 51.9288 41.4527 51.2535 41.7399C50.5782 42.027 49.8354 42.1115 49.1264 41.9764C48.3498 41.8412 47.6577 41.4696 47.0837 40.9122L37.2415 31.0811C36.6844 30.5237 36.6844 29.6115 37.2415 29.0541C37.7986 28.4966 38.7102 28.4966 39.2673 29.0541L49.1095 38.902C49.5147 39.3074 49.9705 39.1892 50.1562 39.1047C50.3419 39.0372 50.7471 38.8007 50.7471 38.2264V13.8176C50.7471 13.2432 50.3419 13.0068 50.1562 12.9392C49.9705 12.8716 49.5147 12.7365 49.1095 13.1419L17.2871 44.9831C16.5443 45.7264 15.5651 46.098 14.586 46.098Z" fill="#226DB4"/>
</svg>
