<svg width="116" height="50" viewBox="0 0 116 50" fill="none" xmlns="http://www.w3.org/2000/svg">
<path d="M52.607 23.7838H59.1701C65.5298 23.7838 69.3965 27.0777 69.3965 33.5473C69.3965 39.8648 65.3263 43.1925 59.1362 43.1925H52.607V23.7838ZM59.0514 40.2533C63.5965 40.2533 65.462 37.6351 65.462 33.3783C65.462 29.0033 63.4778 26.7061 59.0006 26.7061H56.3889V40.2533H59.0514Z" fill="black"/>
<path d="M84.9988 40.1014C83.8117 42.6014 81.2509 43.4628 78.6392 43.4628C74.145 43.4628 71.3129 40.473 71.3129 36.0473C71.3129 31.8919 74.1959 28.6824 78.4865 28.6824C83.0994 28.6824 85.338 31.3682 85.338 36.8412H74.7895C74.7895 39.2399 76.1801 40.9966 78.7749 40.9966C80.3181 40.9966 81.5901 40.3716 82.3363 38.9358L84.9988 40.1014ZM81.9292 34.6115C81.8275 32.4662 80.5216 31.1486 78.5035 31.1486C76.3667 31.1486 75.1117 32.652 74.8234 34.6115H81.9292Z" fill="black"/>
<path d="M89.6286 38.9527C90.1543 40.3378 91.6128 41.0135 93.1561 41.0135C94.2584 41.0135 95.6321 40.6757 95.6321 39.3243C95.6321 37.9054 94.0888 37.5676 92.3251 37.1959C90.0356 36.723 87.4748 36.1655 87.4748 32.973C87.4748 30.0507 90.2052 28.6655 92.783 28.6655C95.0385 28.6655 97.6333 29.5101 98.566 31.7567L96.0391 32.8378C95.4795 31.5709 94.0888 31.098 92.9187 31.098C91.7824 31.098 90.697 31.554 90.697 32.7027C90.697 34.0034 92.0877 34.2736 93.8175 34.6115C96.1409 35.0676 98.9222 35.5912 98.9222 38.902C98.9222 42.2466 96.107 43.429 93.1391 43.429C90.6292 43.429 87.9157 42.5844 87.0339 40.0338L89.6286 38.9527Z" fill="black"/>
<path d="M101.619 22.5676H105.027V35.1858L110.183 29.0034H113.931L108.267 35.5068L114.355 43.1926H110.42L105.011 36.2669V43.1926H101.602V22.5676H101.619Z" fill="black"/>
<path d="M52.6409 17.6351L58.9158 8.61484H53.2854V6.84119H61.8667V7.71956L55.7444 16.7398H61.6801V18.5135H52.6409V17.6351Z" fill="black"/>
<path d="M67.2257 9.7973C69.8374 9.7973 71.8386 11.6216 71.8386 14.2399C71.8386 16.9257 69.7357 18.6993 67.1409 18.6993C64.5293 18.6993 62.4263 16.8919 62.4263 14.2905C62.4263 11.5878 64.648 9.7973 67.2257 9.7973ZM69.6339 14.2399C69.6339 12.6689 68.8369 11.3514 67.1409 11.3514C65.4111 11.3514 64.7158 12.7196 64.7158 14.2905C64.7158 15.8108 65.5298 17.0946 67.1918 17.0946C68.9047 17.1115 69.6339 15.7432 69.6339 14.2399Z" fill="black"/>
<path d="M73.331 6.09796H75.383V11.3344C75.9427 10.2703 77.062 9.79729 78.2491 9.79729C80.3012 9.79729 81.3357 11.2331 81.3357 13.1757V18.5304H79.2667V13.3784C79.2667 12.1453 78.6222 11.4696 77.4351 11.4696C76.1123 11.4696 75.383 12.2804 75.383 13.4966V18.5135H73.331V6.09796Z" fill="black"/>
<path d="M87.4748 9.7973C90.0865 9.7973 92.0877 11.6216 92.0877 14.2399C92.0877 16.9257 89.9848 18.6993 87.39 18.6993C84.7783 18.6993 82.6754 16.8919 82.6754 14.2905C82.6754 11.5878 84.8971 9.7973 87.4748 9.7973ZM89.883 14.2399C89.883 12.6689 89.0859 11.3514 87.39 11.3514C85.6602 11.3514 84.9649 12.7196 84.9649 14.2905C84.9649 15.8108 85.7789 17.0946 87.4409 17.0946C89.1538 17.1115 89.883 15.7432 89.883 14.2399Z" fill="black"/>
<path d="M3.78189 49.4932C3.51054 49.4932 3.22224 49.4088 2.98481 49.2567C2.50996 48.9527 2.27253 48.3952 2.35733 47.8378L6.47838 22.6182C6.69885 21.2669 7.39417 20.0506 8.42867 19.1723C9.46318 18.2939 10.8029 17.804 12.1597 17.804H29.1357L30.0854 12.0101H28.4912C27.779 12.0101 27.1176 11.7061 26.6597 11.1655C26.2018 10.625 25.9983 9.93241 26.117 9.23984L27.2024 2.53376C27.3889 1.36822 28.3895 0.523621 29.5766 0.523621H35.9024C37.5983 0.523621 39.1924 1.26686 40.2948 2.55065C41.3971 3.83443 41.872 5.52362 41.6006 7.19592L39.0567 22.804C38.938 23.4797 38.548 24.0878 37.9544 24.4594L23.7427 33.1925C22.8778 33.7162 21.7755 33.6655 20.9784 33.0236L14.3643 27.7702C13.7369 27.2804 13.6351 26.3682 14.1439 25.7601C14.6357 25.1351 15.5515 25.0338 16.162 25.5405L22.5217 30.5912L36.2585 22.1115L38.7684 6.72295C38.9041 5.89524 38.6667 5.05065 38.124 4.40876C37.5813 3.76686 36.7842 3.39524 35.9363 3.39524H30.0176L29.0848 9.13849H30.662C31.3743 9.13849 32.0357 9.44254 32.4936 9.98308C32.9515 10.5236 33.155 11.2162 33.0363 11.9088L31.9339 18.6486C31.7474 19.8142 30.7468 20.6588 29.5597 20.6588H12.1597C10.7351 20.6588 9.54797 21.6723 9.31054 23.0743L5.69826 45.1858L10.769 42.0608C11.1421 41.8243 11.5831 41.7061 12.041 41.7061H30.6111C32.0357 41.7061 33.2228 40.6925 33.4603 39.2905L34.6135 32.2128C34.7491 31.4358 35.4784 30.8952 36.2585 31.0304C37.0386 31.1655 37.5813 31.8919 37.4456 32.6689L36.2924 39.7466C36.0719 41.0979 35.3766 42.3142 34.3421 43.1925C33.3076 44.0709 31.9679 44.5608 30.6111 44.5608H12.1597L4.52809 49.2736C4.30762 49.4257 4.03627 49.4932 3.78189 49.4932Z" fill="#089949"/>
</svg>
