<svg width="179" height="50" viewBox="0 0 179 50" fill="none" xmlns="http://www.w3.org/2000/svg">
<path d="M59.4317 23.7838H65.9406C67.5153 23.7838 68.9301 23.9899 70.1852 24.4004C71.4402 24.8108 72.5034 25.4257 73.3799 26.2433C74.2564 27.0608 74.926 28.0777 75.3937 29.2923C75.8597 30.5068 76.0935 31.924 76.0935 33.5406C76.0935 35.1233 75.8513 36.5152 75.3667 37.7162C74.8822 38.9189 74.1958 39.9257 73.3076 40.7382C72.4193 41.5507 71.3477 42.1639 70.0926 42.5744C68.8376 42.9848 67.4463 43.1909 65.9137 43.1909H59.4317V23.7838ZM65.8212 40.2602C66.9484 40.2602 67.9107 40.1014 68.7131 39.7838C69.5139 39.4662 70.1717 39.0102 70.6865 38.4189C71.2013 37.8277 71.5798 37.1048 71.8221 36.2517C72.0643 35.3987 72.1855 34.4426 72.1855 33.3818C72.1855 31.1909 71.6723 29.5304 70.6478 28.4037C69.6216 27.2771 67.9965 26.7129 65.769 26.7129H63.1816V40.2602H65.8212Z" fill="black"/>
<path d="M78.7045 24.9105C78.7045 24.6284 78.7566 24.3699 78.8626 24.1351C78.9686 23.9003 79.1133 23.6976 79.2983 23.5253C79.4834 23.353 79.697 23.2213 79.9393 23.1284C80.1816 23.0355 80.439 22.9899 80.7115 22.9899C80.984 22.9899 81.2397 23.0389 81.477 23.1351C81.7142 23.2331 81.9228 23.3666 82.1045 23.5389C82.2845 23.7112 82.4258 23.9139 82.5267 24.1487C82.6277 24.3834 82.6781 24.6419 82.6781 24.924C82.6781 25.1976 82.6277 25.4544 82.5267 25.6926C82.4258 25.9307 82.2895 26.1351 82.1179 26.3024C81.9463 26.4713 81.7411 26.603 81.5039 26.6993C81.2667 26.7973 81.0059 26.8446 80.7249 26.8446C80.4524 26.8446 80.1916 26.7956 79.946 26.6993C79.7004 26.6014 79.4834 26.4679 79.2983 26.2956C79.1133 26.1233 78.9686 25.9172 78.8626 25.6791C78.7583 25.4392 78.7045 25.1841 78.7045 24.9105ZM79.009 29.0186H82.3888V43.1892H79.009V29.0186Z" fill="black"/>
<path d="M86.2178 28.9932H89.5976V31.6571C90.0737 30.6757 90.6961 29.951 91.465 29.4831C92.2355 29.0152 93.1608 28.7804 94.2442 28.7804V31.9223C93.5578 31.9223 92.9303 31.9848 92.3633 32.1081C91.7947 32.2314 91.3068 32.4459 90.898 32.7517C90.4892 33.0574 90.1696 33.4611 89.9408 33.9645C89.712 34.4679 89.5976 35.0997 89.5976 35.8598V43.1909H86.2178V28.9932Z" fill="black"/>
<path d="M109.36 40.0997C109.069 40.728 108.697 41.2551 108.245 41.6841C107.792 42.1132 107.289 42.4578 106.739 42.7179C106.189 42.978 105.598 43.1672 104.969 43.2804C104.34 43.3953 103.699 43.4527 103.048 43.4527C101.931 43.4527 100.923 43.2736 100.025 42.9155C99.1263 42.5574 98.3625 42.0541 97.7334 41.4037C97.1042 40.7551 96.6197 39.9747 96.2815 39.0642C95.9434 38.1537 95.7734 37.147 95.7734 36.0422C95.7734 35 95.945 34.0304 96.2882 33.1334C96.6314 32.2365 97.1159 31.4595 97.7401 30.8007C98.3642 30.1419 99.1129 29.625 99.9843 29.25C100.856 28.875 101.823 28.6875 102.888 28.6875C105.176 28.6875 106.882 29.3615 108.004 30.7095C109.126 32.0574 109.686 34.1014 109.686 36.8395H99.2172C99.2172 37.4409 99.303 37.9949 99.4746 38.5034C99.6462 39.0118 99.8985 39.4493 100.233 39.8159C100.568 40.1824 100.982 40.4696 101.475 40.6774C101.968 40.8851 102.535 40.9882 103.177 40.9882C103.951 40.9882 104.643 40.8243 105.25 40.4983C105.857 40.1723 106.345 39.6453 106.715 38.9206L109.36 40.0997ZM106.323 34.6132C106.271 33.5355 105.943 32.6892 105.339 32.0743C104.737 31.4595 103.933 31.1537 102.93 31.1537C102.402 31.1537 101.927 31.2416 101.505 31.4189C101.083 31.5963 100.719 31.8395 100.417 32.1486C100.114 32.4578 99.8649 32.8226 99.6714 33.2416C99.4779 33.6622 99.345 34.1182 99.2761 34.6132H106.323Z" fill="black"/>
<path d="M125.162 39.1723C124.925 39.9138 124.59 40.5557 124.159 41.0946C123.729 41.6334 123.227 42.0777 122.654 42.4274C122.082 42.777 121.453 43.0355 120.766 43.2027C120.08 43.3699 119.366 43.4544 118.628 43.4544C117.511 43.4544 116.506 43.2736 115.618 42.9105C114.728 42.549 113.976 42.0422 113.361 41.3919C112.745 40.7416 112.274 39.9628 111.947 39.0524C111.621 38.1419 111.459 37.1385 111.459 36.0439C111.459 34.9932 111.638 34.0152 111.994 33.1149C112.351 32.2145 112.851 31.4358 113.493 30.7821C114.136 30.1284 114.9 29.6149 115.785 29.2449C116.67 28.875 117.644 28.6875 118.709 28.6875C119.422 28.6875 120.105 28.7652 120.761 28.9189C121.417 29.0743 122.021 29.3125 122.576 29.6351C123.131 29.9578 123.621 30.3699 124.048 30.875C124.476 31.3784 124.821 31.9797 125.085 32.6774L122.353 33.8834C122.072 33.0794 121.607 32.4611 120.96 32.027C120.314 31.5946 119.562 31.3767 118.709 31.3767C118.022 31.3767 117.438 31.5135 116.959 31.7872C116.48 32.0608 116.089 32.4257 115.79 32.8801C115.49 33.3345 115.273 33.8514 115.137 34.4307C115.001 35.0101 114.932 35.6047 114.932 36.2128C114.932 36.8395 115.002 37.4375 115.144 38.0017C115.285 38.5676 115.509 39.0625 115.817 39.4865C116.125 39.9105 116.52 40.2483 117.004 40.5C117.489 40.7517 118.074 40.8784 118.761 40.8784C119.738 40.8784 120.547 40.6267 121.19 40.1233C121.833 39.6199 122.299 38.9223 122.59 38.0287L125.162 39.1723Z" fill="black"/>
<path d="M134.997 43.0828C134.627 43.1892 134.253 43.272 133.875 43.3345C133.496 43.397 133.096 43.4274 132.674 43.4274C131.328 43.4274 130.275 43.076 129.519 42.3733C128.762 41.6706 128.384 40.6132 128.384 39.1993V31.4848H126.483V28.9932H128.384V26.0642L131.763 24.5929V28.9932H134.879V31.4848H131.763V38.8953C131.763 39.4527 131.893 39.8919 132.152 40.2145C132.411 40.5372 132.854 40.6976 133.479 40.6976C133.717 40.6976 133.966 40.674 134.225 40.625C134.484 40.576 134.741 40.5084 134.997 40.4189V43.0828Z" fill="black"/>
<path d="M136.158 36.1233C136.158 35.0101 136.371 33.9966 136.799 33.0811C137.226 32.1672 137.8 31.3851 138.521 30.7348C139.243 30.0861 140.081 29.5811 141.037 29.223C141.992 28.8648 143.001 28.6858 144.066 28.6858C145.14 28.6858 146.139 28.8648 147.063 29.223C147.986 29.5811 148.79 30.0844 149.472 30.7348C150.153 31.3851 150.688 32.1621 151.075 33.0675C151.462 33.973 151.655 34.9696 151.655 36.0574C151.655 37.1706 151.454 38.1824 151.048 39.0929C150.643 40.0034 150.091 40.7804 149.391 41.4257C148.691 42.0709 147.87 42.5709 146.93 42.924C145.988 43.277 144.985 43.4544 143.92 43.4544C142.847 43.4544 141.836 43.2753 140.89 42.9172C139.945 42.5591 139.122 42.0574 138.422 41.4121C137.722 40.7669 137.171 39.9966 136.765 39.0996C136.361 38.2027 136.158 37.2111 136.158 36.1233ZM144.014 40.8429C144.719 40.8429 145.323 40.7111 145.829 40.4459C146.336 40.1807 146.751 39.8294 147.078 39.3919C147.402 38.9544 147.643 38.4493 147.798 37.8733C147.953 37.299 148.028 36.7027 148.028 36.0844C148.028 35.4307 147.944 34.8142 147.778 34.2348C147.609 33.6554 147.357 33.1486 147.019 32.7111C146.681 32.2736 146.255 31.929 145.745 31.6773C145.234 31.4257 144.632 31.299 143.937 31.299C143.224 31.299 142.615 31.4324 142.108 31.6959C141.602 31.9611 141.191 32.3175 140.873 32.7635C140.557 33.2094 140.323 33.7263 140.173 34.3142C140.024 34.902 139.95 35.5219 139.95 36.1773C139.95 36.804 140.034 37.402 140.2 37.9662C140.367 38.5321 140.621 39.027 140.959 39.451C141.297 39.875 141.72 40.2128 142.226 40.4645C142.731 40.7162 143.328 40.8429 144.014 40.8429Z" fill="black"/>
<path d="M154.127 28.9932H157.507V31.6571C157.983 30.6757 158.605 29.951 159.374 29.4831C160.144 29.0152 161.07 28.7804 162.153 28.7804V31.9223C161.467 31.9223 160.839 31.9848 160.272 32.1081C159.704 32.2314 159.216 32.4459 158.807 32.7517C158.398 33.0574 158.079 33.4611 157.85 33.9645C157.621 34.4679 157.507 35.0997 157.507 35.8598V43.1909H154.127V28.9932Z" fill="black"/>
<path d="M169.004 41.7449L163.459 28.9932H167.076L170.785 38.0591L174.244 28.9932H177.531L169.756 48.054H166.441L169.004 41.7449Z" fill="black"/>
<path d="M59.4569 17.6402L65.6765 8.61659H60.0861V6.83618H68.6037V7.72301L62.5356 16.7467H68.4288V18.5271H59.4586V17.6402H59.4569Z" fill="black"/>
<path d="M69.1673 14.2703C69.1673 13.5997 69.2952 12.9882 69.5525 12.4375C69.8099 11.8869 70.1548 11.4156 70.5905 11.0237C71.0246 10.6318 71.5293 10.3294 72.1046 10.1132C72.68 9.89701 73.289 9.79059 73.93 9.79059C74.576 9.79059 75.1783 9.8987 75.7351 10.1132C76.292 10.3294 76.7748 10.6318 77.187 11.0237C77.5991 11.4156 77.9205 11.8835 78.1526 12.4291C78.3865 12.9747 78.5025 13.5744 78.5025 14.2298C78.5025 14.9004 78.3797 15.5102 78.1375 16.0592C77.8935 16.6082 77.5604 17.0761 77.1399 17.4646C76.7176 17.8531 76.2247 18.1538 75.656 18.3666C75.0891 18.5794 74.4835 18.6859 73.8425 18.6859C73.1965 18.6859 72.5875 18.5778 72.0172 18.3632C71.4469 18.147 70.9522 17.8463 70.53 17.4561C70.1077 17.0676 69.7763 16.6031 69.5324 16.0625C69.2901 15.522 69.1673 14.924 69.1673 14.2703ZM73.8997 17.1115C74.3236 17.1115 74.6887 17.0321 74.9932 16.8717C75.2977 16.7112 75.5484 16.5 75.7452 16.2365C75.942 15.973 76.0867 15.669 76.1793 15.3227C76.2718 14.9764 76.3189 14.6166 76.3189 14.245C76.3189 13.8514 76.2684 13.4798 76.1675 13.1318C76.0665 12.7838 75.9134 12.4764 75.7099 12.2129C75.5063 11.9494 75.2506 11.7416 74.9427 11.5896C74.6349 11.4375 74.2715 11.3615 73.8526 11.3615C73.4236 11.3615 73.0552 11.4409 72.7507 11.6014C72.4462 11.7619 72.1972 11.9747 72.0071 12.245C71.817 12.5136 71.6756 12.8261 71.5865 13.1791C71.4956 13.5338 71.4519 13.9071 71.4519 14.3007C71.4519 14.6791 71.5024 15.0389 71.6033 15.3784C71.7042 15.718 71.8557 16.0169 72.0609 16.272C72.2645 16.5271 72.5202 16.7315 72.8247 16.8835C73.1275 17.0372 73.4858 17.1115 73.8997 17.1115Z" fill="black"/>
<path d="M79.9915 6.10138H82.0271V11.3311C82.165 11.0642 82.335 10.8345 82.5402 10.6402C82.7438 10.446 82.9692 10.2855 83.2165 10.1605C83.4621 10.0355 83.7279 9.9426 84.0122 9.88178C84.2965 9.82097 84.5842 9.79057 84.8753 9.79057C85.385 9.79057 85.8292 9.87503 86.211 10.0456C86.5929 10.2162 86.9109 10.451 87.1649 10.7517C87.419 11.0524 87.6107 11.4088 87.7369 11.821C87.8648 12.2331 87.927 12.6841 87.927 13.174V18.5237H85.8746V13.375C85.8746 12.7568 85.7198 12.2855 85.4086 11.9612C85.0973 11.6369 84.6465 11.4747 84.0526 11.4747C83.3948 11.4747 82.8935 11.6588 82.5452 12.0304C82.197 12.4021 82.0237 12.8919 82.0237 13.5034V18.5254H79.9881V6.10138H79.9915Z" fill="black"/>
<path d="M89.2493 14.2703C89.2493 13.5997 89.3772 12.9882 89.6346 12.4375C89.892 11.8869 90.2369 11.4156 90.6726 11.0237C91.1066 10.6318 91.6113 10.3294 92.1867 10.1132C92.762 9.89701 93.371 9.79059 94.012 9.79059C94.658 9.79059 95.2603 9.8987 95.8171 10.1132C96.374 10.3294 96.8568 10.6318 97.269 11.0237C97.6812 11.4156 98.0025 11.8835 98.2347 12.4291C98.4685 12.9747 98.5846 13.5744 98.5846 14.2298C98.5846 14.9004 98.4618 15.5102 98.2195 16.0592C97.9756 16.6082 97.6425 17.0761 97.2219 17.4646C96.7996 17.8531 96.3067 18.1538 95.7381 18.3666C95.1711 18.5794 94.5655 18.6859 93.9245 18.6859C93.2785 18.6859 92.6695 18.5778 92.0992 18.3632C91.5289 18.147 91.0343 17.8463 90.612 17.4561C90.1897 17.0676 89.8583 16.6031 89.6144 16.0625C89.3705 15.522 89.2493 14.924 89.2493 14.2703ZM93.98 17.1115C94.404 17.1115 94.7691 17.0321 95.0736 16.8717C95.3781 16.7112 95.6287 16.5 95.8256 16.2365C96.0224 15.973 96.1671 15.669 96.2596 15.3227C96.3521 14.9764 96.3992 14.6166 96.3992 14.245C96.3992 13.8514 96.3488 13.4798 96.2478 13.1318C96.1469 12.7838 95.9938 12.4764 95.7902 12.2129C95.5867 11.9494 95.331 11.7416 95.0231 11.5896C94.7152 11.4375 94.3518 11.3615 93.9329 11.3615C93.5039 11.3615 93.1355 11.4409 92.831 11.6014C92.5265 11.7619 92.2775 11.9747 92.0874 12.245C91.8973 12.5136 91.756 12.8261 91.6668 13.1791C91.576 13.5338 91.5323 13.9071 91.5323 14.3007C91.5323 14.6791 91.5827 15.0389 91.6837 15.3784C91.7846 15.718 91.936 16.0169 92.1413 16.272C92.3448 16.5271 92.6005 16.7315 92.905 16.8835C93.2078 17.0372 93.5662 17.1115 93.98 17.1115Z" fill="black"/>
<path d="M37.4773 49.4933H23.9901C23.1977 49.4933 22.5601 48.8514 22.5601 48.0574C22.5601 47.2635 23.1994 46.6216 23.9901 46.6216H37.4773C41.9456 46.6216 45.5794 42.973 45.5794 38.4865V11.5152C45.5794 7.02873 41.9456 3.38009 37.4773 3.38009H10.6324C9.31678 3.38009 8.25187 4.45272 8.25187 5.77029V13.5321C8.25187 14.3277 7.61258 14.9679 6.82189 14.9679C6.03119 14.9679 5.39191 14.326 5.39191 13.5321V5.7686C5.39695 2.86826 7.74381 0.511842 10.6324 0.506775H37.4723C43.5236 0.506775 48.431 5.43414 48.436 11.5102V38.4831C48.4377 44.5659 43.5303 49.4933 37.4773 49.4933Z" fill="#226DB4"/>
<path d="M13.7514 49.4933H10.6324C7.73708 49.4882 5.39191 47.1318 5.39191 44.2315V19.2821C5.39191 18.4865 6.03119 17.8463 6.82189 17.8463C7.61258 17.8463 8.25187 18.4882 8.25187 19.2821V44.2298C8.25187 45.5507 9.32015 46.62 10.6324 46.62H13.7514C14.5438 46.62 15.1814 47.2619 15.1814 48.0558C15.1814 48.8497 14.5438 49.4933 13.7514 49.4933Z" fill="#226DB4"/>
<path d="M9.67846 37.9392H3.9619C3.16952 37.9392 2.53192 37.2973 2.53192 36.5034C2.53192 35.7095 3.17121 35.0676 3.9619 35.0676H9.68015C10.4725 35.0676 11.1101 35.7095 11.1101 36.5034C11.1101 37.2973 10.4708 37.9392 9.67846 37.9392Z" fill="#F9B21D"/>
<path d="M9.67846 26.451H3.9619C3.16952 26.451 2.53192 25.8091 2.53192 25.0152C2.53192 24.2196 3.17121 23.5794 3.9619 23.5794H9.68015C10.4725 23.5794 11.1101 24.2213 11.1101 25.0152C11.1101 25.8091 10.4708 26.451 9.67846 26.451Z" fill="#F9B21D"/>
<path d="M9.67846 14.9679H3.9619C3.16952 14.9679 2.53192 14.326 2.53192 13.5321C2.53192 12.7365 3.17121 12.0963 3.9619 12.0963H9.68015C10.4725 12.0963 11.1101 12.7382 11.1101 13.5321C11.1101 14.326 10.4708 14.9679 9.67846 14.9679Z" fill="#F9B21D"/>
<path d="M23.9917 49.4933H22.084C19.1887 49.4882 16.8469 47.1318 16.8435 44.2314V34.625C16.8435 31.7179 19.1904 29.3632 22.084 29.3581H33.978V24.9054C33.973 22.5406 32.0652 20.625 29.71 20.62C28.5845 20.62 27.5162 21.0794 26.7053 21.9173C25.8944 22.745 25.4419 23.8615 25.4419 25.0203C25.4419 25.8159 24.8026 26.4561 24.0119 26.4561C23.2212 26.4561 22.5819 25.8142 22.5819 25.0203V24.7956C22.5819 24.7331 22.587 24.6757 22.592 24.6132C22.6879 22.8463 23.4214 21.1757 24.6529 19.9105C26.0072 18.5118 27.8005 17.7416 29.7083 17.7416C33.6382 17.7416 36.838 20.9493 36.838 24.9004V30.7906C36.838 31.5862 36.1987 32.2264 35.408 32.2264H22.0873C20.7717 32.2264 19.7068 33.299 19.7068 34.62V44.2264C19.7068 45.5473 20.7751 46.6166 22.0907 46.6166H23.9985C24.7908 46.6166 25.4284 47.2585 25.4284 48.0524C25.4268 48.8463 24.7824 49.4933 23.9917 49.4933Z" fill="#089949"/>
</svg>
