<svg width="179" height="50" viewBox="0 0 179 50" fill="none" xmlns="http://www.w3.org/2000/svg">
<path d="M64.5363 23.7821H77.431V26.7112H68.3003V31.9206H75.7221V34.6909H68.3003V40.2585H77.8819V43.1875H64.5363V23.7821Z" fill="black"/>
<path d="M84.2144 35.9121L79.5891 28.9932H83.5119L86.4671 33.554L89.3817 28.9932H92.9195L88.3213 35.674L93.4093 43.1909H89.4594L86.1733 38.0878L82.7807 43.1909H79.2429L84.2144 35.9121Z" fill="black"/>
<path d="M95.7819 28.9916H99.1744V31.2855C100.156 29.6284 102.143 28.6875 104.038 28.6875C108.371 28.6875 110.465 32.174 110.465 36.0439C110.465 40.0338 108.239 43.4544 104.131 43.4544C102.143 43.4544 100.129 42.6588 99.1744 40.9628V48.0541H95.7819V28.9916ZM106.968 35.9645C106.968 33.5659 105.775 31.3378 102.993 31.3378C100.196 31.3378 99.0562 33.5777 99.0562 36.1368C99.0562 38.7753 100.275 40.8024 103.097 40.8024C106.093 40.8024 106.968 38.576 106.968 35.9645Z" fill="black"/>
<path d="M125.93 40.0997C124.751 42.6048 122.206 43.4527 119.596 43.4527C115.116 43.4527 112.294 40.4561 112.294 36.0423C112.294 31.8801 115.17 28.6859 119.437 28.6859C124.022 28.6859 126.263 31.3632 126.263 36.8379H115.754C115.754 39.2365 117.145 40.9865 119.729 40.9865C121.266 40.9865 122.539 40.3632 123.28 38.919L125.93 40.0997ZM122.882 34.6115C122.775 32.4646 121.477 31.1521 119.476 31.1521C117.343 31.1521 116.097 32.6504 115.805 34.6115H122.882Z" fill="black"/>
<path d="M128.99 28.9916H132.382V31.245C133.298 29.495 135.204 28.6859 137.18 28.6859C140.586 28.6859 142.123 31.0845 142.123 34.3058V43.1875H138.678V34.6369C138.678 32.6487 137.789 31.4815 135.775 31.4815C133.642 31.4815 132.382 32.8075 132.382 34.848V43.1859H128.99V28.9916Z" fill="black"/>
<path d="M147.185 38.9595C147.716 40.3514 149.159 41.0135 150.698 41.0135C151.797 41.0135 153.163 40.6689 153.163 39.3294C153.163 37.9105 151.627 37.5794 149.877 37.2078C147.597 36.7298 145.041 36.174 145.041 32.9916C145.041 30.076 147.758 28.6841 150.328 28.6841C152.581 28.6841 155.151 29.5321 156.08 31.7737L153.562 32.8598C153.004 31.5997 151.613 31.1233 150.448 31.1233C149.321 31.1233 148.234 31.5743 148.234 32.7281C148.234 34.027 149.625 34.3058 151.334 34.6368C153.653 35.0879 156.411 35.6183 156.411 38.9325C156.411 42.2737 153.614 43.4527 150.659 43.4527C148.155 43.4527 145.465 42.6047 144.576 40.0591L147.185 38.9595Z" fill="black"/>
<path d="M171.793 40.0997C170.614 42.6048 168.069 43.4527 165.458 43.4527C160.978 43.4527 158.157 40.4561 158.157 36.0423C158.157 31.8801 161.032 28.6859 165.3 28.6859C169.884 28.6859 172.125 31.3632 172.125 36.8379H161.617C161.617 39.2365 163.008 40.9865 165.592 40.9865C167.129 40.9865 168.402 40.3632 169.143 38.919L171.793 40.0997ZM168.745 34.6115C168.638 32.4646 167.34 31.1521 165.339 31.1521C163.206 31.1521 161.96 32.6504 161.667 34.6115H168.745Z" fill="black"/>
<path d="M64.5616 17.6402L70.8046 8.61659H65.1931V6.83618H73.7429V7.72301L67.6519 16.7467H73.5673V18.5271H64.5633V17.6402H64.5616Z" fill="black"/>
<path d="M79.0909 9.79059C81.6847 9.79059 83.6808 11.6115 83.6808 14.2298C83.6808 16.9207 81.5817 18.6859 79.0031 18.6859C76.4009 18.6859 74.3086 16.8818 74.3086 14.2703C74.3086 11.5862 76.5208 9.79059 79.0909 9.79059ZM81.4855 14.245C81.4855 12.6723 80.6867 11.3632 79.0116 11.3632C77.2874 11.3632 76.6001 12.7365 76.6001 14.3024C76.6001 15.8193 77.4056 17.1132 79.0588 17.1132C80.7678 17.1115 81.4855 15.7382 81.4855 14.245Z" fill="black"/>
<path d="M85.1736 6.10138H87.2169V11.3311C87.7674 10.2686 88.8937 9.79057 90.0741 9.79057C92.1174 9.79057 93.1391 11.2281 93.1391 13.1757V18.5254H91.0789V13.375C91.0789 12.1453 90.4406 11.4747 89.25 11.4747C87.9413 11.4747 87.2152 12.2804 87.2152 13.5034V18.5254H85.1719V6.10138H85.1736Z" fill="black"/>
<path d="M99.2471 9.79059C101.841 9.79059 103.837 11.6115 103.837 14.2298C103.837 16.9207 101.738 18.6859 99.1592 18.6859C96.557 18.6859 94.4647 16.8818 94.4647 14.2703C94.4664 11.5862 96.6769 9.79059 99.2471 9.79059ZM101.642 14.245C101.642 12.6723 100.843 11.3632 99.1677 11.3632C97.4435 11.3632 96.7563 12.7365 96.7563 14.3024C96.7563 15.8193 97.5618 17.1132 99.215 17.1132C100.924 17.1115 101.642 15.7382 101.642 14.245Z" fill="black"/>
<path d="M45.1249 48.6926C41.354 48.6926 37.6896 47.348 34.525 44.8024C34.2211 44.5574 33.7803 44.5811 33.5034 44.8564L30.7289 47.6318C29.3188 49.0389 27.0357 49.0389 25.6257 47.6318L22.9474 44.9527C22.6485 44.6537 22.1639 44.6537 21.865 44.9527L19.1547 47.6588C17.7767 49.0355 15.5443 49.0355 14.168 47.6571C14.1241 47.6115 14.0802 47.5659 14.038 47.5186C3.7691 36.076 1.74944 19.4307 8.98375 5.86149C10.4782 3.05575 13.3996 1.30406 16.5777 1.30744H43.1981C45.8932 1.30744 48.433 3.0946 50.3496 6.34122C52.0873 9.2821 53.2525 13.3159 53.6341 17.6993C53.8435 20.0693 52.094 22.1605 49.7248 22.3699C49.5982 22.3818 49.4732 22.3868 49.3466 22.3868H35.5213C35.5551 23.1926 35.6176 23.9916 35.702 24.7737C35.702 24.7939 35.7054 24.8125 35.7071 24.8328C35.8692 27.2112 36.3167 29.5608 37.0428 31.8311C37.7352 33.9747 38.6606 35.9443 39.7954 37.6926C40.9116 39.4105 42.2018 40.8666 43.6287 42.022C45.0556 43.1774 46.594 44.0051 48.1949 44.4797C49.2739 44.799 49.8886 45.9324 49.5695 47.0101C49.3516 47.7483 48.7369 48.299 47.9804 48.4375C47.0381 48.6064 46.0823 48.6926 45.1249 48.6926ZM16.5777 4.17737C14.4584 4.17568 12.5114 5.34291 11.5151 7.21284C4.84142 19.7162 6.70403 35.0608 16.1741 45.6031C16.4156 45.8733 16.831 45.8953 17.1012 45.6537C17.1097 45.6453 17.1198 45.6368 17.1282 45.6284L19.8335 42.9223C21.2537 41.5051 23.5537 41.5051 24.9739 42.9223L27.6538 45.6031C27.9425 45.8919 28.4103 45.8919 28.7008 45.6031L31.4753 42.8277C32.7857 41.5118 34.878 41.4003 36.3235 42.5659C38.6623 44.4476 41.3084 45.5439 44.034 45.7753C43.2589 45.3243 42.5209 44.8142 41.8252 44.25C40.1635 42.9054 38.669 41.2247 37.389 39.2534C34.7935 35.2601 33.223 30.353 32.8465 25.0608C32.6962 23.6943 32.6202 22.321 32.6219 20.9476C32.6219 15.8649 33.6266 11.0642 35.4521 7.42906C36.0921 6.15541 36.8115 5.06588 37.5933 4.17568L16.5777 4.17737ZM35.5213 19.5152H49.3482C50.1419 19.5135 50.7836 18.8699 50.7836 18.076C50.7836 18.0338 50.7819 17.9916 50.7786 17.9493C50.4341 13.9848 49.4057 10.3801 47.8825 7.80237C46.5028 5.46622 44.8395 4.17906 43.2015 4.17906C42.3149 4.17906 41.4283 4.5473 40.5671 5.27197C39.6417 6.05237 38.7602 7.24494 38.0189 8.72129C36.5565 11.6267 35.6851 15.4155 35.5213 19.5152Z" fill="#E42527"/>
<path d="M25.4484 22.3852H14.8097C14.0177 22.3852 13.3743 21.7433 13.3743 20.9494C13.3743 20.1571 14.016 19.5135 14.8097 19.5135H25.4484C26.2404 19.5135 26.8838 20.1554 26.8838 20.9494C26.8838 21.7416 26.2404 22.3852 25.4484 22.3852Z" fill="#E42527"/>
<path d="M20.2506 29.5625H15.112C14.32 29.5625 13.6766 28.9206 13.6766 28.1267C13.6766 27.3327 14.3183 26.6909 15.112 26.6909H20.2506C21.0426 26.6909 21.686 27.3327 21.686 28.1267C21.686 28.9206 21.0426 29.5625 20.2506 29.5625Z" fill="#E42527"/>
<path d="M26.1171 15.2112H16.1015C15.3095 15.2112 14.6661 14.5693 14.6661 13.7753C14.6661 12.9814 15.3078 12.3395 16.1015 12.3395H26.1188C26.9108 12.3395 27.5541 12.9814 27.5541 13.7753C27.5541 14.5693 26.9108 15.2112 26.1171 15.2112Z" fill="#E42527"/>
</svg>
