<svg width="259" height="60" viewBox="0 0 259 60" fill="none" xmlns="http://www.w3.org/2000/svg">
<path d="M66.6318 28.5405H81.9493V32.0473H71.1441V38.9189H79.7437V42.3446H71.1441V51.8311H66.6318V28.5405Z" fill="black"/>
<path d="M86.9876 27.5878C88.3028 27.5878 89.355 28.5608 89.355 29.9189C89.355 31.2567 88.3433 32.2297 87.0078 32.2297C85.6926 32.2297 84.5797 31.2365 84.5797 29.8986C84.5797 28.5405 85.6724 27.5878 86.9876 27.5878ZM84.9439 34.8243H89.011V51.8311H84.9439V34.8243Z" fill="black"/>
<path d="M93.6245 34.7837H97.6916V37.5C98.7842 35.3919 101.071 34.4391 103.438 34.4391C107.525 34.4391 109.367 37.3175 109.367 41.1891V51.8513H105.219V41.5946C105.219 39.2027 104.146 37.804 101.738 37.804C99.1889 37.804 97.6714 39.3851 97.6714 41.8378V51.8513H93.6042V34.7837H93.6245Z" fill="black"/>
<path d="M123.369 49.7432C122.074 51.4662 120.192 52.1351 118.088 52.1351C114.891 52.1351 112.382 50.5135 112.382 47.1689C112.382 42.4459 117.359 41.6959 121.325 41.6959H123.329V41.4324C123.329 39 122.762 37.4594 120.01 37.4594C118.351 37.4594 116.833 38.3108 116.226 39.8919L113.07 38.5337C114.203 35.5337 117.38 34.4391 120.415 34.4391C124.441 34.4391 127.355 36.3851 127.355 40.7027V51.831H123.349V49.7432H123.369ZM121.285 44.2094C119.403 44.2094 116.429 44.4324 116.429 47.0067C116.429 48.6486 117.622 49.2567 119.14 49.2567C121.204 49.2567 123.329 48.1824 123.329 45.8716V44.2094H121.285Z" fill="black"/>
<path d="M131.665 34.7837H135.732V37.5C136.825 35.3919 139.111 34.4391 141.479 34.4391C145.566 34.4391 147.408 37.3175 147.408 41.1891V51.8513H143.28V41.5946C143.28 39.2027 142.207 37.804 139.799 37.804C137.25 37.804 135.732 39.3851 135.732 41.8378V51.8513H131.665V34.7837Z" fill="black"/>
<path d="M167.015 47.0067C165.881 50.5743 162.705 52.1351 159.164 52.1351C153.761 52.1351 150.544 48.5067 150.544 43.2365C150.544 38.1689 154.146 34.3986 159.265 34.3986C162.705 34.3986 165.679 35.8378 166.934 39.1824L163.656 40.6216C162.968 38.7162 161.329 37.6216 159.265 37.6216C155.946 37.6216 154.732 40.5 154.732 43.4189C154.732 46.4189 156.048 49.0135 159.346 49.0135C161.673 49.0135 163.251 47.7162 163.959 45.5878L167.015 47.0067Z" fill="black"/>
<path d="M185.428 48.1216C184.011 51.1216 180.956 52.1554 177.84 52.1554C172.478 52.1554 169.099 48.5675 169.099 43.2567C169.099 38.2702 172.539 34.4189 177.658 34.4189C183.162 34.4189 185.833 37.6419 185.833 44.2094H173.247C173.247 47.0878 174.906 49.1959 178.002 49.1959C179.843 49.1959 181.361 48.4459 182.251 46.7229L185.428 48.1216ZM181.786 41.5337C181.664 38.9594 180.106 37.3783 177.698 37.3783C175.149 37.3783 173.651 39.1824 173.308 41.5337H181.786Z" fill="black"/>
<path d="M196.395 28.5405H204.468C209.365 28.5405 213.189 30.5067 213.189 35.8784C213.189 41.777 208.535 43.054 203.558 43.054H200.887V51.8311H196.375V28.5405H196.395ZM204.448 39.8108C207.22 39.8108 208.799 38.6554 208.799 35.8581C208.799 32.9392 207.079 31.9865 204.448 31.9865H200.907V39.8311H204.448V39.8108Z" fill="black"/>
<path d="M216.346 27.8919L220.413 26.1284V51.8311H216.346V27.8919Z" fill="black"/>
<path d="M236.378 49.1554C235.306 51.2229 233.12 52.1554 230.773 52.1554C226.868 52.1554 224.804 49.581 224.804 45.7094V34.804H228.871V45.2027C228.871 47.5338 229.943 48.9527 232.311 48.9527C234.86 48.9527 236.398 47.3108 236.398 44.8783V34.7838H240.445V51.8108H236.398V49.1554H236.378Z" fill="black"/>
<path d="M246.677 46.7432C247.305 48.4054 249.045 49.2162 250.886 49.2162C252.201 49.2162 253.84 48.8108 253.84 47.1892C253.84 45.4865 251.999 45.0811 249.895 44.6351C247.163 44.0675 244.108 43.3986 244.108 39.5675C244.108 36.0608 247.365 34.3986 250.441 34.3986C253.132 34.3986 256.228 35.4121 257.341 38.1081L254.326 39.4054C253.658 37.8851 251.999 37.3175 250.603 37.3175C249.247 37.3175 247.952 37.8648 247.952 39.2432C247.952 40.804 249.611 41.1284 251.675 41.5338C254.447 42.0811 257.766 42.7094 257.766 46.6824C257.766 50.6959 254.407 52.1148 250.866 52.1148C247.871 52.1148 244.634 51.1013 243.581 48.0405L246.677 46.7432Z" fill="black"/>
<path d="M66.6724 21.1622L74.1591 10.3379H67.4413V8.20947H77.6799V9.26353L70.3753 20.0879H77.4573V22.2162H66.6724V21.1622Z" fill="black"/>
<path d="M84.074 11.7568C87.1901 11.7568 89.5777 13.946 89.5777 17.0879C89.5777 20.3108 87.0687 22.4392 83.9728 22.4392C80.8567 22.4392 78.3477 20.2703 78.3477 17.1487C78.3477 13.9054 80.9984 11.7568 84.074 11.7568ZM86.9473 17.0879C86.9473 15.2027 85.9962 13.6216 83.9728 13.6216C81.9089 13.6216 81.0793 15.2635 81.0793 17.1487C81.0793 18.973 82.0505 20.5135 84.0335 20.5135C86.0974 20.5338 86.9473 18.8919 86.9473 17.0879Z" fill="black"/>
<path d="M91.3785 7.31757H93.8269V13.6013C94.4946 12.3243 95.8301 11.7568 97.2465 11.7568C99.6949 11.7568 100.929 13.4797 100.929 15.8108V22.2365H98.4606V16.0541C98.4606 14.5743 97.6917 13.7635 96.2753 13.7635C94.697 13.7635 93.8269 14.7365 93.8269 16.1959V22.2162H91.3785V7.31757Z" fill="black"/>
<path d="M108.234 11.7568C111.35 11.7568 113.738 13.946 113.738 17.0879C113.738 20.3108 111.228 22.4392 108.133 22.4392C105.017 22.4392 102.507 20.2703 102.507 17.1487C102.507 13.9054 105.158 11.7568 108.234 11.7568ZM111.107 17.0879C111.107 15.2027 110.156 13.6216 108.133 13.6216C106.069 13.6216 105.239 15.2635 105.239 17.1487C105.239 18.973 106.21 20.5135 108.193 20.5135C110.237 20.5338 111.107 18.8919 111.107 17.0879Z" fill="black"/>
<path d="M53.0342 14.8784L28.6113 0.770252C28.2471 0.567549 27.8222 0.567549 27.458 0.770252L3.05533 14.8784C2.69111 15.0811 2.48877 15.4662 2.48877 15.8716V44.1081C2.48877 44.5135 2.71135 44.8986 3.05533 45.1013L27.458 59.2297C27.6401 59.3311 27.8424 59.3919 28.0245 59.3919C28.2269 59.3919 28.4292 59.3311 28.5911 59.2297L53.014 45.1216C53.3782 44.9189 53.5806 44.5338 53.5806 44.1284V15.8919C53.6008 15.4662 53.3782 15.0811 53.0342 14.8784ZM28.0448 3.08106L50.161 15.8716L37.7978 23.027L28.5911 17.7162C28.2269 17.5135 27.802 17.5135 27.4378 17.7162L18.2513 23.027L5.92861 15.8716L28.0448 3.08106ZM4.77525 17.8784L17.705 25.3378L26.8914 30.6486V56.25L4.77525 43.4594V17.8784ZM45.7094 46.7027V30.7297L46.0331 31.1148C46.2557 31.3784 46.5795 31.5203 46.9032 31.5203C47.1663 31.5203 47.4293 31.4392 47.6519 31.2567C48.1375 30.8513 48.1982 30.1216 47.7935 29.6351L45.507 26.9594C45.4463 26.8784 45.3856 26.7973 45.3249 26.7365C44.8596 26.3108 44.1311 26.3513 43.7062 26.8175L41.1769 29.5946C40.752 30.0608 40.7924 30.7905 41.2578 31.2162C41.4804 31.4189 41.7435 31.5203 42.0267 31.5203C42.3303 31.5203 42.654 31.3986 42.8766 31.1351L43.4027 30.5473V48.0202L37.5752 51.3851V44.7973L37.8787 45.1621C38.1013 45.4257 38.425 45.5676 38.7488 45.5676C39.0118 45.5676 39.2749 45.4865 39.4974 45.304C39.9831 44.8986 40.0438 44.1689 39.6391 43.6824L37.3931 41.027C37.3324 40.9459 37.2717 40.8648 37.211 40.804C36.7456 40.3784 36.0171 40.4189 35.5922 40.8851L33.0629 43.6621C32.638 44.1284 32.6785 44.8581 33.1438 45.2838C33.3664 45.4865 33.6295 45.5878 33.9128 45.5878C34.2163 45.5878 34.54 45.4662 34.7626 45.2027L35.3089 44.6148L35.2887 52.723L29.1779 56.25V30C29.1779 29.9797 29.1779 29.9797 29.1779 29.9594C29.1779 29.9392 29.1779 29.9392 29.1779 29.9189C29.1374 29.473 28.8744 29.1081 28.4899 28.9459L20.5783 24.3648L28.0448 20.0473L35.5315 24.3648L31.4846 26.7162C30.9383 27.0405 30.7562 27.7297 31.0597 28.277C31.2621 28.6419 31.6667 28.8446 32.0512 28.8446C32.2535 28.8446 32.4356 28.804 32.6178 28.6824L51.3143 17.8581V43.4392L45.7094 46.7027Z" fill="#089949"/>
</svg>
