<?xml version="1.0" encoding="UTF-8"?>
<svg id="Layer_1" data-name="Layer 1" xmlns="http://www.w3.org/2000/svg" viewBox="0 0 900 296">
  <defs>
    
  </defs>
  <g>
    <path class="cls-2" d="M174.43,293c-1.63,0-3.26-.47-4.68-1.41l-81.06-53.58c-15.11-9.99-27.63-23.7-36.21-39.65-8.58-15.95-13.11-33.96-13.11-52.07V54.7c0-3.63,2.31-6.87,5.75-8.04L171.68,3.46c1.78-.61,3.71-.61,5.49,0l126.57,43.2c4.44,1.52,6.81,6.34,5.3,10.79-1.52,4.44-6.35,6.81-10.79,5.3l-123.82-42.27L56.36,60.78v85.52c0,15.31,3.83,30.54,11.09,44.02,7.25,13.49,17.84,25.08,30.61,33.52l76.37,50.48,76.37-50.48c12.77-8.44,23.36-20.04,30.61-33.52,7.25-13.49,11.09-28.71,11.09-44.02v-46.1c-33.85,9.88-61.37,23.33-79.12,33.3-21.28,11.96-33.52,21.67-33.64,21.77-3.1,2.48-7.51,2.48-10.62,0-.34-.27-35.5-28.06-91.33-48.1-4.42-1.59-6.71-6.45-5.12-10.87,1.59-4.42,6.45-6.71,10.87-5.12,46.47,16.69,78.75,38.08,90.9,46.85,5.75-4.14,16.03-11.12,30.22-19.11,20.53-11.57,53.53-27.57,94.21-38.08,2.54-.66,5.25-.1,7.33,1.51s3.29,4.09,3.29,6.72v57.25c0,18.11-4.53,36.12-13.11,52.07-8.58,15.95-21.1,29.66-36.21,39.65l-81.06,53.58c-1.42.94-3.05,1.41-4.68,1.41Z"></path>
    <path class="cls-1" d="M174.41,117.82c-2.15,0-4.3-.82-5.94-2.46-.03-.03-5.31-5.12-16.31-12.09-10.16-6.44-27.41-15.84-51.92-24.1-4.45-1.5-6.84-6.32-5.34-10.76,1.5-4.45,6.32-6.84,10.76-5.34,36.85,12.4,58.98,27.38,68.77,35.08,9.8-7.7,31.92-22.68,68.77-35.08,4.45-1.5,9.27.89,10.76,5.34,1.5,4.45-.89,9.27-5.34,10.76-47.31,15.93-68.02,35.98-68.23,36.18-1.66,1.64-3.82,2.46-5.98,2.46Z"></path>
  </g>
  <g>
    <g>
      <path d="M373.95,140.8h75.65v17.34h-53.36v33.9h42.53v16.87h-42.53v46.77h-22.29v-114.88Z"></path>
      <path d="M451.72,213.85c0-2.62.21-5.15.63-7.61.42-2.46,1.03-4.81,1.84-7.06.81-2.25,1.78-4.39,2.9-6.43s2.42-3.96,3.88-5.77c1.46-1.8,3.06-3.48,4.79-5.02,1.73-1.54,3.56-2.96,5.49-4.24,1.94-1.28,3.99-2.41,6.16-3.37,2.17-.97,4.41-1.79,6.71-2.47,2.3-.68,4.68-1.19,7.14-1.53,2.46-.34,4.94-.51,7.46-.51s5.05.17,7.45.51c2.41.34,4.75.85,7.02,1.53,2.28.68,4.45,1.52,6.51,2.51,2.07.99,4.03,2.13,5.88,3.41,1.86,1.28,3.6,2.68,5.22,4.2,1.62,1.52,3.11,3.18,4.47,4.98s2.56,3.71,3.61,5.73c1.05,2.01,1.93,4.13,2.67,6.36.73,2.22,1.29,4.54,1.69,6.94.39,2.41.59,4.89.59,7.46s-.2,5.22-.59,7.65c-.39,2.43-.97,4.78-1.73,7.02-.76,2.25-1.7,4.39-2.83,6.43-1.13,2.04-2.38,3.95-3.77,5.73-1.39,1.78-2.92,3.44-4.59,4.98-1.67,1.54-3.47,2.94-5.38,4.2-1.91,1.26-3.91,2.37-6,3.33-2.09.97-4.29,1.78-6.59,2.43-2.3.65-4.67,1.15-7.1,1.49-2.43.34-4.9.51-7.42.51s-5.06-.17-7.49-.51c-2.43-.34-4.8-.85-7.1-1.53-2.3-.68-4.51-1.5-6.63-2.47-2.12-.97-4.13-2.09-6.04-3.38-1.91-1.28-3.7-2.68-5.38-4.2-1.67-1.52-3.22-3.16-4.63-4.94-1.41-1.78-2.67-3.67-3.77-5.69-1.1-2.01-2.03-4.12-2.79-6.32-.76-2.2-1.33-4.5-1.73-6.91-.39-2.41-.59-4.89-.59-7.45ZM498.41,241.79c1.67,0,3.26-.13,4.75-.39,1.49-.26,2.89-.64,4.2-1.14,1.31-.5,2.51-1.1,3.61-1.8s2.12-1.49,3.06-2.35,1.8-1.82,2.59-2.86c.78-1.05,1.48-2.16,2.08-3.33.6-1.18,1.12-2.42,1.57-3.73.44-1.31.82-2.64,1.14-4,.31-1.36.54-2.76.67-4.2.13-1.44.2-2.89.2-4.35,0-1.57-.08-3.09-.24-4.55-.16-1.46-.39-2.9-.71-4.32-.31-1.41-.71-2.77-1.18-4.08-.47-1.31-1.03-2.55-1.69-3.73-.65-1.18-1.39-2.28-2.2-3.3-.81-1.02-1.7-1.96-2.67-2.83-.97-.86-2.01-1.63-3.14-2.31-1.13-.68-2.34-1.26-3.65-1.73s-2.71-.84-4.2-1.1c-1.49-.26-3.05-.39-4.67-.39s-3.26.13-4.75.39c-1.49.26-2.89.64-4.2,1.14-1.31.5-2.53,1.1-3.65,1.8-1.12.71-2.15,1.5-3.06,2.39-.92.89-1.77,1.87-2.55,2.94-.79,1.07-1.47,2.21-2.04,3.41-.58,1.2-1.09,2.46-1.53,3.77-.45,1.31-.81,2.68-1.1,4.12-.29,1.44-.5,2.9-.63,4.39-.13,1.49-.2,3-.2,4.51s.08,2.93.24,4.39c.16,1.46.39,2.88.71,4.24.31,1.36.72,2.67,1.22,3.92.5,1.26,1.06,2.46,1.69,3.61.63,1.15,1.35,2.24,2.16,3.26.81,1.02,1.7,1.95,2.67,2.79.97.84,2.01,1.6,3.14,2.28,1.12.68,2.33,1.26,3.61,1.73,1.28.47,2.65.82,4.12,1.06,1.46.24,3.01.35,4.63.35Z"></path>
      <path d="M558.52,171.64h20.09v15.77c.58-1.15,1.18-2.25,1.8-3.3.63-1.05,1.29-2.01,2-2.9.71-.89,1.45-1.74,2.24-2.55.78-.81,1.59-1.56,2.43-2.24.84-.68,1.71-1.29,2.63-1.84.92-.55,1.87-1.06,2.86-1.53.99-.47,2.03-.86,3.1-1.18,1.07-.31,2.17-.59,3.3-.82s2.3-.41,3.53-.51c1.23-.1,2.47-.16,3.73-.16v18.6c-1.62,0-3.19.05-4.71.16-1.52.11-2.98.29-4.39.55-1.41.26-2.76.58-4.04.94-1.28.37-2.49.82-3.61,1.37-1.12.55-2.17,1.18-3.14,1.88-.97.71-1.86,1.52-2.67,2.43-.81.92-1.53,1.92-2.16,3.02s-1.15,2.3-1.57,3.61c-.42,1.31-.75,2.75-.98,4.32s-.35,3.24-.35,5.02v43.4h-20.09v-84.04Z"></path>
      <path d="M665.08,255.05c-2.15.63-4.36,1.12-6.63,1.49-2.28.37-4.67.55-7.18.55-2.67,0-5.15-.24-7.46-.71s-4.39-1.16-6.28-2.08c-1.88-.92-3.56-2.07-5.02-3.45-1.46-1.39-2.69-3.01-3.69-4.87-1-1.86-1.75-3.95-2.28-6.28-.52-2.33-.78-4.88-.78-7.65v-45.67h-11.3v-14.75h11.3v-17.34l20.09-8.71v26.05h18.52v14.75h-18.52v43.87c0,.68.03,1.32.08,1.92.05.6.14,1.18.27,1.73.13.55.29,1.07.47,1.57.18.5.41.96.67,1.37.26.42.55.82.86,1.22.31.39.67.73,1.06,1.02.39.29.84.55,1.33.78.5.24,1.02.43,1.57.59.55.16,1.15.27,1.81.35.65.08,1.35.12,2.08.12h.82c.29,0,.59-.01.9-.04.31-.03.61-.07.9-.12.29-.05.59-.1.9-.16.31-.05.61-.1.9-.16.29-.05.59-.1.9-.16.31-.05.63-.12.94-.2.31-.08.61-.16.9-.24.29-.08.59-.17.9-.27.31-.1.63-.21.94-.31v15.77Z"></path>
      <path d="M680.54,147.47c0-.68.05-1.33.16-1.96.1-.63.26-1.23.47-1.8.21-.58.46-1.12.75-1.65.29-.52.61-1.02.98-1.49.37-.47.76-.9,1.18-1.29s.88-.76,1.37-1.1c.5-.34,1.02-.64,1.57-.9.55-.26,1.12-.47,1.73-.63.6-.16,1.22-.29,1.84-.39.63-.1,1.26-.16,1.88-.16s1.25.05,1.88.16c.63.11,1.24.24,1.84.39s1.16.37,1.69.63c.52.26,1.03.56,1.53.9.5.34.95.72,1.37,1.14.42.42.8.86,1.14,1.33.34.47.65.97.94,1.49.29.52.52,1.07.71,1.65.18.58.33,1.18.43,1.8.1.63.16,1.28.16,1.96,0,1.1-.13,2.15-.39,3.14-.26.99-.64,1.91-1.14,2.75-.5.84-1.1,1.6-1.81,2.28-.71.68-1.49,1.26-2.35,1.73s-1.79.84-2.79,1.1c-.99.26-2.04.39-3.14.39-.63,0-1.26-.05-1.88-.16-.63-.1-1.24-.25-1.84-.43-.6-.18-1.18-.4-1.73-.67-.55-.26-1.07-.56-1.57-.9-.5-.34-.97-.71-1.41-1.1-.45-.39-.85-.82-1.22-1.29-.37-.47-.69-.98-.98-1.53-.29-.55-.54-1.11-.75-1.69-.21-.58-.37-1.16-.47-1.77-.11-.6-.16-1.24-.16-1.92ZM682.35,171.79h20.09v83.89h-20.09v-83.89Z"></path>
      <path d="M728.72,186.39h-11.61v-14.75h11.61v-9.34c0-1.88.09-3.7.27-5.45.18-1.75.44-3.41.79-4.98.34-1.57.79-3.06,1.33-4.47.55-1.41,1.19-2.73,1.92-3.96.73-1.23,1.56-2.35,2.47-3.38.92-1.02,1.92-1.96,3.02-2.82,1.1-.86,2.3-1.61,3.61-2.24,1.31-.63,2.72-1.16,4.24-1.61,1.52-.44,3.13-.77,4.83-.98,1.7-.21,3.52-.31,5.45-.31,2.51,0,4.89.21,7.14.63,2.25.42,4.42,1.07,6.51,1.96l-5.89,13.5c-.16-.05-.31-.09-.47-.12-.16-.03-.3-.07-.43-.12-.13-.05-.27-.09-.43-.12s-.31-.05-.47-.08c-.16-.03-.3-.05-.43-.08-.13-.03-.28-.04-.43-.04s-.3-.01-.43-.04c-.13-.03-.27-.04-.43-.04h-.86c-.99,0-1.92.08-2.79.24-.86.16-1.64.38-2.31.67-.68.29-1.29.64-1.84,1.06-.55.42-1.03.88-1.45,1.37-.42.5-.79,1.05-1.1,1.65-.31.6-.59,1.24-.82,1.92s-.43,1.39-.59,2.12c-.16.73-.28,1.49-.35,2.28-.08.79-.13,1.58-.16,2.39-.03.81-.04,1.61-.04,2.39v8h19.46v14.75h-19.38v69.29h-19.93v-69.29Z"></path>
      <path d="M809.94,247.13l-32.96-75.49h21.5l22.05,53.67,20.56-53.67h19.54l-46.22,112.84h-19.7l15.22-37.35Z"></path>
    </g>
    <g>
      <path d="M374.11,104.43l36.97-53.42h-33.23v-10.54h50.63v5.25l-36.07,53.42h35.03v10.54h-53.32v-5.25Z"></path>
      <path d="M431.83,84.48c0-1.58.12-3.1.38-4.58.25-1.48.62-2.9,1.11-4.25.49-1.35,1.07-2.65,1.75-3.88.68-1.23,1.46-2.39,2.34-3.47.88-1.09,1.84-2.1,2.88-3.03s2.14-1.78,3.31-2.55,2.4-1.45,3.71-2.03c1.31-.58,2.65-1.08,4.04-1.49,1.39-.41,2.82-.72,4.3-.92,1.48-.21,2.98-.31,4.49-.31s3.04.1,4.49.31c1.45.21,2.86.51,4.23.92,1.37.41,2.68.92,3.92,1.51s2.43,1.28,3.55,2.06c1.12.77,2.17,1.62,3.14,2.53.98.91,1.88,1.91,2.69,3,.82,1.09,1.54,2.24,2.17,3.45.63,1.21,1.17,2.49,1.61,3.83.44,1.34.78,2.73,1.02,4.18.24,1.45.36,2.95.36,4.49s-.12,3.14-.36,4.61c-.24,1.46-.58,2.88-1.04,4.23-.46,1.36-1.03,2.65-1.7,3.88-.68,1.23-1.43,2.38-2.27,3.45-.83,1.07-1.76,2.07-2.76,3-1.01.93-2.09,1.77-3.24,2.53-1.15.76-2.36,1.43-3.62,2.01-1.26.58-2.58,1.07-3.97,1.47s-2.81.69-4.28.9c-1.47.21-2.96.31-4.47.31s-3.05-.1-4.51-.31c-1.46-.21-2.89-.51-4.28-.92s-2.72-.91-3.99-1.49-2.49-1.26-3.64-2.03c-1.15-.77-2.23-1.61-3.24-2.53-1.01-.91-1.94-1.91-2.79-2.98s-1.61-2.21-2.27-3.43c-.66-1.21-1.22-2.48-1.68-3.8-.46-1.32-.8-2.71-1.04-4.16-.24-1.45-.35-2.95-.35-4.49ZM459.96,101.31c1.01,0,1.96-.08,2.86-.24.9-.16,1.74-.39,2.53-.69.79-.3,1.51-.66,2.17-1.09.66-.43,1.28-.9,1.84-1.42.57-.52,1.09-1.09,1.56-1.72s.89-1.3,1.25-2.01.68-1.46.95-2.25c.27-.79.5-1.59.69-2.41.19-.82.32-1.66.4-2.53.08-.87.12-1.74.12-2.62,0-.95-.05-1.86-.14-2.74-.09-.88-.24-1.75-.42-2.6-.19-.85-.43-1.67-.71-2.46-.28-.79-.62-1.54-1.02-2.25-.39-.71-.84-1.37-1.32-1.99-.49-.61-1.02-1.18-1.61-1.7-.58-.52-1.21-.98-1.89-1.39-.68-.41-1.41-.76-2.2-1.04-.79-.28-1.63-.5-2.53-.66-.9-.16-1.84-.24-2.81-.24s-1.96.08-2.86.24c-.9.16-1.74.39-2.53.69-.79.3-1.52.66-2.2,1.09-.68.43-1.29.91-1.84,1.44s-1.06,1.13-1.54,1.77c-.47.65-.88,1.33-1.23,2.06-.35.72-.66,1.48-.92,2.27-.27.79-.49,1.62-.66,2.48-.17.87-.3,1.75-.38,2.65-.08.9-.12,1.8-.12,2.72s.05,1.76.14,2.65c.09.88.24,1.73.43,2.55.19.82.43,1.61.73,2.36.3.76.64,1.48,1.02,2.17.38.69.81,1.35,1.3,1.96.49.62,1.02,1.17,1.61,1.68.58.5,1.21.96,1.89,1.37.68.41,1.4.76,2.17,1.04.77.28,1.6.5,2.48.64.88.14,1.81.21,2.79.21Z"></path>
      <path d="M496.17,36.12h12.1v30.96c.31-.63.67-1.22,1.06-1.77.39-.55.82-1.08,1.28-1.58.46-.5.94-.97,1.44-1.39.5-.43,1.03-.82,1.58-1.18.55-.36,1.12-.69,1.7-.99.58-.3,1.19-.57,1.82-.8.63-.24,1.27-.44,1.92-.61.65-.17,1.31-.32,1.99-.43.68-.11,1.36-.2,2.06-.26s1.39-.09,2.08-.09c1.2,0,2.35.09,3.45.26,1.1.17,2.13.42,3.1.73.96.32,1.87.7,2.72,1.16.85.46,1.64.99,2.36,1.58s1.39,1.25,1.99,1.96c.6.71,1.14,1.47,1.63,2.29.49.82.91,1.69,1.28,2.62.36.93.66,1.9.9,2.91.24,1.01.42,2.06.54,3.14.13,1.09.19,2.21.19,3.38v31.67h-12.2v-30.49c0-.72-.04-1.42-.12-2.08-.08-.66-.19-1.29-.33-1.89-.14-.6-.32-1.16-.54-1.68-.22-.52-.48-1.01-.78-1.47-.3-.46-.63-.87-.99-1.25-.36-.38-.76-.72-1.21-1.02s-.91-.57-1.42-.8-1.04-.43-1.61-.59c-.57-.16-1.17-.28-1.82-.35-.65-.08-1.32-.12-2.01-.12-.79,0-1.53.05-2.22.14s-1.36.23-2.01.4c-.65.17-1.25.39-1.8.66-.55.27-1.07.58-1.56.92-.49.35-.94.73-1.35,1.16-.41.43-.78.88-1.11,1.37-.33.49-.62,1.01-.87,1.56-.25.55-.47,1.13-.64,1.75-.17.62-.3,1.26-.38,1.94-.08.68-.12,1.38-.12,2.1v29.73h-12.1V36.12Z"></path>
      <path d="M551.19,84.48c0-1.58.12-3.1.38-4.58.25-1.48.62-2.9,1.11-4.25.49-1.35,1.07-2.65,1.75-3.88.68-1.23,1.46-2.39,2.34-3.47.88-1.09,1.84-2.1,2.88-3.03s2.14-1.78,3.31-2.55,2.4-1.45,3.71-2.03c1.31-.58,2.65-1.08,4.04-1.49,1.39-.41,2.82-.72,4.3-.92,1.48-.21,2.98-.31,4.49-.31s3.04.1,4.49.31c1.45.21,2.86.51,4.23.92,1.37.41,2.68.92,3.92,1.51s2.43,1.28,3.55,2.06c1.12.77,2.17,1.62,3.14,2.53.98.91,1.88,1.91,2.69,3,.82,1.09,1.54,2.24,2.17,3.45.63,1.21,1.17,2.49,1.61,3.83.44,1.34.78,2.73,1.02,4.18.24,1.45.36,2.95.36,4.49s-.12,3.14-.36,4.61c-.24,1.46-.58,2.88-1.04,4.23-.46,1.36-1.03,2.65-1.7,3.88-.68,1.23-1.43,2.38-2.27,3.45-.83,1.07-1.76,2.07-2.76,3-1.01.93-2.09,1.77-3.24,2.53-1.15.76-2.36,1.43-3.62,2.01-1.26.58-2.58,1.07-3.97,1.47s-2.81.69-4.28.9c-1.47.21-2.96.31-4.47.31s-3.05-.1-4.51-.31c-1.46-.21-2.89-.51-4.28-.92s-2.72-.91-3.99-1.49-2.49-1.26-3.64-2.03c-1.15-.77-2.23-1.61-3.24-2.53-1.01-.91-1.94-1.91-2.79-2.98s-1.61-2.21-2.27-3.43c-.66-1.21-1.22-2.48-1.68-3.8-.46-1.32-.8-2.71-1.04-4.16-.24-1.45-.35-2.95-.35-4.49ZM579.32,101.31c1.01,0,1.96-.08,2.86-.24.9-.16,1.74-.39,2.53-.69.79-.3,1.51-.66,2.17-1.09.66-.43,1.28-.9,1.84-1.42.57-.52,1.09-1.09,1.56-1.72s.89-1.3,1.25-2.01.68-1.46.95-2.25c.27-.79.5-1.59.69-2.41.19-.82.32-1.66.4-2.53.08-.87.12-1.74.12-2.62,0-.95-.05-1.86-.14-2.74-.09-.88-.24-1.75-.42-2.6-.19-.85-.43-1.67-.71-2.46-.28-.79-.62-1.54-1.02-2.25-.39-.71-.84-1.37-1.32-1.99-.49-.61-1.02-1.18-1.61-1.7-.58-.52-1.21-.98-1.89-1.39-.68-.41-1.41-.76-2.2-1.04-.79-.28-1.63-.5-2.53-.66-.9-.16-1.84-.24-2.81-.24s-1.96.08-2.86.24c-.9.16-1.74.39-2.53.69-.79.3-1.52.66-2.2,1.09-.68.43-1.29.91-1.84,1.44s-1.06,1.13-1.54,1.77c-.47.65-.88,1.33-1.23,2.06-.35.72-.66,1.48-.92,2.27-.27.79-.49,1.62-.66,2.48-.17.87-.3,1.75-.38,2.65-.08.9-.12,1.8-.12,2.72s.05,1.76.14,2.65c.09.88.24,1.73.43,2.55.19.82.43,1.61.73,2.36.3.76.64,1.48,1.02,2.17.38.69.81,1.35,1.3,1.96.49.62,1.02,1.17,1.61,1.68.58.5,1.21.96,1.89,1.37.68.41,1.4.76,2.17,1.04.77.28,1.6.5,2.48.64.88.14,1.81.21,2.79.21Z"></path>
    </g>
  </g>
</svg>