<svg width="190" height="50" viewBox="0 0 190 50" fill="none" xmlns="http://www.w3.org/2000/svg">
<path d="M64.3898 23.7821H68.1243V43.1892H64.3898V23.7821Z" fill="black"/>
<path d="M72.1614 28.9916H75.5393V31.245C76.4507 29.495 78.349 28.6859 80.3162 28.6859C83.7077 28.6859 85.2377 31.0845 85.2377 34.3058V43.1875H81.8077V34.6369C81.8077 32.6487 80.9232 31.4815 78.9173 31.4815C76.7937 31.4815 75.5393 32.8075 75.5393 34.848V43.1859H72.1614V28.9916Z" fill="black"/>
<path d="M86.5559 28.9916H90.171L93.8263 39.7416L97.4414 28.9916H100.74L95.6473 43.1892H91.6893L86.5559 28.9916Z" fill="black"/>
<path d="M114.911 40.0997C113.738 42.6048 111.204 43.4527 108.604 43.4527C104.144 43.4527 101.334 40.4561 101.334 36.0423C101.334 31.8801 104.197 28.6859 108.446 28.6859C113.011 28.6859 115.243 31.3632 115.243 36.8379H104.779C104.779 39.2365 106.165 40.9865 108.737 40.9865C110.267 40.9865 111.535 40.3632 112.273 38.919L114.911 40.0997ZM111.878 34.6115C111.772 32.4646 110.479 31.1521 108.487 31.1521C106.363 31.1521 105.122 32.6504 104.831 34.6115H111.878Z" fill="black"/>
<path d="M117.96 28.9916H121.338V31.245C122.249 29.495 124.147 28.6859 126.115 28.6859C129.506 28.6859 131.036 31.0845 131.036 34.3058V43.1875H127.606V34.6369C127.606 32.6487 126.722 31.4815 124.716 31.4815C122.592 31.4815 121.338 32.8075 121.338 34.848V43.1859H117.96V28.9916Z" fill="black"/>
<path d="M141.737 43.0828C141.01 43.2956 140.259 43.4274 139.415 43.4274C136.723 43.4274 135.127 42.0219 135.127 39.1993V31.4848H133.227V28.9932H135.127V26.0642L138.505 24.5929V28.9932H141.619V31.4848H138.505V38.8953C138.505 40.0084 138.981 40.6976 140.22 40.6976C140.696 40.6976 141.222 40.5912 141.738 40.4189V43.0828H141.737Z" fill="black"/>
<path d="M150.801 28.6875C155.089 28.6875 158.388 31.7095 158.388 36.0574C158.388 40.5253 154.917 43.4544 150.655 43.4544C146.354 43.4544 142.897 40.4578 142.897 36.1233C142.897 31.6689 146.552 28.6875 150.801 28.6875ZM154.759 36.0845C154.759 33.473 153.439 31.299 150.668 31.299C147.818 31.299 146.683 33.5794 146.683 36.1774C146.683 38.6959 148.017 40.8429 150.747 40.8429C153.572 40.8429 154.759 38.5625 154.759 36.0845Z" fill="black"/>
<path d="M160.854 28.9916H164.232V31.6554C165.182 29.7061 166.726 28.7787 168.876 28.7787V31.9206C166.146 31.9206 164.232 32.8227 164.232 35.8581V43.1892H160.854V28.9916Z" fill="black"/>
<path d="M175.725 41.7449L170.183 28.9932H173.798L177.505 38.0608L180.962 28.9932H184.248L176.476 48.0557H173.164L175.725 41.7449Z" fill="black"/>
<path d="M64.2839 17.6402L70.5001 8.61659H64.9127V6.83618H73.4257V7.72301L67.3609 16.7467H73.2509V18.5271H64.2856V17.6402H64.2839Z" fill="black"/>
<path d="M78.7508 9.79059C81.3334 9.79059 83.3209 11.6115 83.3209 14.2298C83.3209 16.9207 81.2309 18.6859 78.6633 18.6859C76.0723 18.6859 73.989 16.8818 73.989 14.2703C73.989 11.5862 76.1917 9.79059 78.7508 9.79059ZM81.135 14.245C81.135 12.6723 80.3397 11.3632 78.6718 11.3632C76.955 11.3632 76.2707 12.7365 76.2707 14.3024C76.2707 15.8193 77.0727 17.1132 78.7188 17.1132C80.4204 17.1115 81.135 15.7382 81.135 14.245Z" fill="black"/>
<path d="M84.8072 6.10138H86.8417V11.3311C87.3899 10.2686 88.5114 9.79057 89.6867 9.79057C91.7212 9.79057 92.7385 11.2281 92.7385 13.1757V18.5254H90.6871V13.375C90.6871 12.1453 90.0516 11.4747 88.8662 11.4747C87.5631 11.4747 86.8401 12.2804 86.8401 13.5034V18.5254H84.8055V6.10138H84.8072Z" fill="black"/>
<path d="M98.8201 9.79059C101.403 9.79059 103.39 11.6115 103.39 14.2298C103.39 16.9207 101.3 18.6859 98.7327 18.6859C96.1416 18.6859 94.0583 16.8818 94.0583 14.2703C94.06 11.5862 96.261 9.79059 98.8201 9.79059ZM101.204 14.245C101.204 12.6723 100.409 11.3632 98.7411 11.3632C97.0244 11.3632 96.34 12.7365 96.34 14.3024C96.34 15.8193 97.1421 17.1132 98.7882 17.1132C100.49 17.1115 101.204 15.7382 101.204 14.245Z" fill="black"/>
<path d="M17.1908 41.9105C16.4981 41.9105 15.9062 41.4105 15.7868 40.7247L9.62276 5.60814C9.51178 4.96455 9.04939 4.43922 8.42895 4.24665L5.67647 3.38685C4.92152 3.15881 4.49444 2.35813 4.72143 1.59969C4.94842 0.841243 5.74541 0.412189 6.50037 0.64023C6.50877 0.641919 6.51718 0.645297 6.52559 0.648675L9.27807 1.50847C10.9208 2.01861 12.1398 3.40881 12.4358 5.11151L18.5982 40.2264C18.736 41.0068 18.2165 41.75 17.4413 41.8885C17.3573 41.9021 17.2732 41.9105 17.1908 41.9105Z" fill="#E42527"/>
<path d="M23.977 46.6842C23.1884 46.6842 22.5495 46.0423 22.5495 45.25C22.5495 44.5541 23.0472 43.9578 23.7298 43.8379L49.0536 39.3514C49.9986 39.1909 50.6342 38.2906 50.4744 37.3413C50.3147 36.3919 49.4185 35.7534 48.4735 35.9139C48.4668 35.9156 48.4584 35.9156 48.4517 35.9173L26.7026 39.7703C24.2057 40.2129 21.8248 38.5372 21.3842 36.0304L17.5506 14.1808C17.1101 11.6723 18.778 9.28044 21.2733 8.83787L43.0224 4.98483C45.5193 4.54226 47.9002 6.21794 48.3407 8.7247L51.8902 28.9494C52.0163 29.7315 51.4883 30.4679 50.7098 30.5946C49.9464 30.7196 49.2234 30.2095 49.0788 29.446L45.5294 9.2247C45.3629 8.27706 44.4634 7.64362 43.5201 7.81085L21.7693 11.6622C20.826 11.8294 20.1955 12.7331 20.3619 13.6808L24.1972 35.5304C24.3637 36.4781 25.2633 37.1115 26.2065 36.9443C26.2065 36.9443 26.2065 36.9443 26.2082 36.9443L47.9573 33.0913C50.4458 32.6065 52.8553 34.2399 53.3379 36.7416C53.8204 39.2416 52.1945 41.6622 49.7043 42.147C49.6539 42.1571 49.6018 42.1656 49.5513 42.174L24.2275 46.6605C24.1451 46.6774 24.0611 46.6842 23.977 46.6842Z" fill="#E42527"/>
<path d="M29.7224 18.7855C28.9338 18.7855 28.2949 18.1436 28.2949 17.3514C28.2949 16.6554 28.7926 16.0591 29.4752 15.9392L37.7326 14.4764C38.5095 14.3395 39.2493 14.8598 39.3855 15.6402C39.5217 16.4206 39.0038 17.1639 38.227 17.3007L29.9696 18.7635C29.8888 18.7787 29.8065 18.7855 29.7224 18.7855Z" fill="#F9B21D"/>
<path d="M19.9904 49.4206C16.8377 49.4206 14.282 46.8514 14.282 43.6841C14.282 40.5169 16.8394 37.9493 19.9921 37.9493C23.1447 37.9493 25.7005 40.5186 25.7005 43.6858C25.7005 46.4662 23.7147 48.8463 20.9892 49.3328C20.6596 49.3919 20.325 49.4206 19.9904 49.4206ZM20.0072 40.848C19.8391 40.848 19.6726 40.8632 19.5078 40.8919C17.971 41.1672 16.9453 42.6419 17.2194 44.1858C17.4935 45.7297 18.9614 46.7602 20.4982 46.4848C22.035 46.2095 23.0607 44.7348 22.7866 43.1909C22.5478 41.8379 21.3776 40.8497 20.0072 40.848Z" fill="#E42527"/>
</svg>
