<?xml version="1.0" encoding="utf-8"?>

<svg version="1.1" id="Layer_1" xmlns="http://www.w3.org/2000/svg" xmlns:xlink="http://www.w3.org/1999/xlink" x="0px" y="0px" viewBox="0 0 1326 296" style="enable-background:new 0 0 1326 296;" xml:space="preserve">

<g>
&#x9;<g>
&#x9;&#x9;<path d="M331.59,140.8h22.29v97.54h50.77v17.34h-73.06V140.8z"></path>
&#x9;&#x9;<path d="M467.58,245.4c-3.19,4.24-7.02,7.27-11.5,9.1c-4.47,1.83-9.33,2.75-14.56,2.75c-3.92,0-7.6-0.5-11.03-1.49&#xA;&#x9;&#x9;&#x9;c-3.43-0.99-6.41-2.51-8.95-4.55c-2.54-2.04-4.54-4.59-6-7.65c-1.47-3.06-2.2-6.66-2.2-10.79c0-3.87,0.64-7.23,1.92-10.08&#xA;&#x9;&#x9;&#x9;c1.28-2.85,3.01-5.27,5.18-7.26c2.17-1.99,4.72-3.61,7.65-4.87c2.93-1.26,6.03-2.24,9.3-2.94c3.27-0.71,6.63-1.19,10.08-1.45&#xA;&#x9;&#x9;&#x9;c3.45-0.26,6.8-0.39,10.04-0.39h9.89v-1.33c0-2.98-0.22-5.69-0.67-8.12c-0.45-2.43-1.27-4.5-2.47-6.2&#xA;&#x9;&#x9;&#x9;c-1.2-1.7-2.86-3.01-4.98-3.92c-2.12-0.91-4.88-1.37-8.28-1.37c-4.08,0-7.83,1.03-11.26,3.1c-3.43,2.07-5.9,5.04-7.42,8.91&#xA;&#x9;&#x9;&#x9;l-15.62-6.75c1.41-3.71,3.4-6.85,5.96-9.42c2.56-2.56,5.47-4.66,8.71-6.28c3.24-1.62,6.72-2.79,10.44-3.49&#xA;&#x9;&#x9;&#x9;c3.71-0.71,7.46-1.06,11.22-1.06c4.97,0,9.55,0.62,13.73,1.84c4.18,1.23,7.81,3.1,10.87,5.61s5.44,5.72,7.14,9.61&#xA;&#x9;&#x9;&#x9;s2.55,8.51,2.55,13.85v54.93h-19.78V245.4z M457.3,218.09c-2.3,0-4.85,0.12-7.65,0.35c-2.8,0.24-5.41,0.82-7.85,1.77&#xA;&#x9;&#x9;&#x9;c-2.43,0.94-4.46,2.33-6.08,4.16c-1.62,1.83-2.43,4.34-2.43,7.53c0,2.04,0.34,3.75,1.02,5.14c0.68,1.39,1.63,2.52,2.86,3.41&#xA;&#x9;&#x9;&#x9;c1.23,0.89,2.65,1.53,4.28,1.92c1.62,0.39,3.37,0.59,5.26,0.59c2.56,0,5.07-0.34,7.53-1.02c2.46-0.68,4.67-1.7,6.63-3.06&#xA;&#x9;&#x9;&#x9;c1.96-1.36,3.54-3.1,4.75-5.22c1.2-2.12,1.81-4.59,1.81-7.42v-8.16H457.3z"></path>
&#x9;&#x9;<path d="M508.54,171.64h20.09v13.34c1.36-2.62,3.06-4.87,5.1-6.75c2.04-1.88,4.29-3.45,6.75-4.71c2.46-1.26,5.1-2.18,7.93-2.79&#xA;&#x9;&#x9;&#x9;c2.82-0.6,5.7-0.9,8.63-0.9c5.02,0,9.38,0.84,13.07,2.51c3.69,1.67,6.74,4,9.14,6.98c2.41,2.98,4.19,6.5,5.34,10.55&#xA;&#x9;&#x9;&#x9;c1.15,4.05,1.73,8.46,1.73,13.22v52.58h-20.4v-50.61c0-5.91-1.36-10.5-4.08-13.77c-2.72-3.27-7.09-4.9-13.1-4.9&#xA;&#x9;&#x9;&#x9;c-6.33,0-11.26,1.8-14.79,5.42c-3.53,3.61-5.3,8.45-5.3,14.52v49.36h-20.09V171.64z"></path>
&#x9;&#x9;<path d="M668.78,241.55c-1.41,2.41-3.21,4.59-5.38,6.55c-2.17,1.96-4.55,3.61-7.14,4.94c-2.59,1.33-5.31,2.37-8.16,3.1&#xA;&#x9;&#x9;&#x9;c-2.85,0.73-5.66,1.1-8.44,1.1c-6.43,0-12.02-1.17-16.75-3.49c-4.74-2.33-8.66-5.47-11.77-9.42c-3.11-3.95-5.43-8.57-6.94-13.85&#xA;&#x9;&#x9;&#x9;c-1.52-5.28-2.28-10.88-2.28-16.79c0-5.75,0.84-11.29,2.51-16.6c1.67-5.31,4.15-9.98,7.42-14.01c3.27-4.03,7.28-7.25,12.05-9.65&#xA;&#x9;&#x9;&#x9;c4.76-2.41,10.23-3.61,16.4-3.61c5.86,0,11.33,1.19,16.4,3.57c5.07,2.38,9.1,6.11,12.08,11.18v-51.01h20.01v122.1h-20.01V241.55z&#xA;&#x9;&#x9;&#x9; M645.71,241.55c4.13,0,7.69-0.77,10.67-2.31c2.98-1.54,5.43-3.62,7.34-6.24c1.91-2.62,3.31-5.65,4.2-9.1&#xA;&#x9;&#x9;&#x9;c0.89-3.45,1.33-7.11,1.33-10.99c0-3.82-0.43-7.39-1.29-10.71c-0.86-3.32-2.24-6.23-4.12-8.71c-1.88-2.48-4.3-4.43-7.26-5.85&#xA;&#x9;&#x9;&#x9;c-2.96-1.41-6.53-2.12-10.71-2.12c-4.39,0-8.08,0.79-11.06,2.35c-2.98,1.57-5.4,3.69-7.26,6.36c-1.86,2.67-3.18,5.75-3.96,9.26&#xA;&#x9;&#x9;&#x9;c-0.78,3.5-1.18,7.19-1.18,11.06c0,3.5,0.44,6.89,1.33,10.16c0.89,3.27,2.28,6.15,4.16,8.63c1.88,2.49,4.3,4.47,7.26,5.96&#xA;&#x9;&#x9;&#x9;C638.11,240.81,641.63,241.55,645.71,241.55z"></path>
&#x9;&#x9;<path d="M709.59,147.47c0-1.67,0.31-3.2,0.94-4.59c0.63-1.39,1.49-2.59,2.59-3.61c1.1-1.02,2.37-1.8,3.81-2.35&#xA;&#x9;&#x9;&#x9;c1.44-0.55,2.97-0.82,4.59-0.82c1.62,0,3.14,0.29,4.55,0.86c1.41,0.58,2.65,1.37,3.73,2.39c1.07,1.02,1.91,2.22,2.51,3.61&#xA;&#x9;&#x9;&#x9;c0.6,1.39,0.9,2.92,0.9,4.59c0,1.62-0.3,3.14-0.9,4.55s-1.41,2.62-2.43,3.61c-1.02,1-2.24,1.78-3.65,2.35&#xA;&#x9;&#x9;&#x9;c-1.41,0.58-2.96,0.86-4.63,0.86c-1.62,0-3.17-0.29-4.63-0.86c-1.46-0.58-2.75-1.37-3.85-2.39c-1.1-1.02-1.96-2.24-2.59-3.65&#xA;&#x9;&#x9;&#x9;C709.9,150.6,709.59,149.09,709.59,147.47z M711.39,171.79h20.09v83.89h-20.09V171.79z"></path>
&#x9;&#x9;<path d="M754.24,171.64h20.09v13.34c1.36-2.62,3.06-4.87,5.1-6.75c2.04-1.88,4.29-3.45,6.75-4.71c2.46-1.26,5.1-2.18,7.93-2.79&#xA;&#x9;&#x9;&#x9;c2.82-0.6,5.7-0.9,8.63-0.9c5.02,0,9.38,0.84,13.07,2.51c3.69,1.67,6.74,4,9.14,6.98c2.41,2.98,4.19,6.5,5.34,10.55&#xA;&#x9;&#x9;&#x9;c1.15,4.05,1.73,8.46,1.73,13.22v52.58h-20.4v-50.61c0-5.91-1.36-10.5-4.08-13.77c-2.72-3.27-7.09-4.9-13.1-4.9&#xA;&#x9;&#x9;&#x9;c-6.33,0-11.26,1.8-14.79,5.42c-3.53,3.61-5.3,8.45-5.3,14.52v49.36h-20.09V171.64z"></path>
&#x9;&#x9;<path d="M866.06,259.37c1.05,2.35,2.41,4.3,4.08,5.85c1.67,1.54,3.54,2.77,5.61,3.69c2.07,0.92,4.25,1.57,6.55,1.96&#xA;&#x9;&#x9;&#x9;c2.3,0.39,4.63,0.59,6.98,0.59c7.48,0,13.34-1.82,17.58-5.45c4.24-3.64,6.36-9.27,6.36-16.91v-12.56&#xA;&#x9;&#x9;&#x9;c-1.41,2.41-3.15,4.59-5.22,6.55c-2.07,1.96-4.33,3.62-6.79,4.98c-2.46,1.36-5.06,2.41-7.81,3.14c-2.75,0.73-5.53,1.1-8.36,1.1&#xA;&#x9;&#x9;&#x9;c-5.96,0-11.27-1.08-15.93-3.26c-4.66-2.17-8.59-5.11-11.81-8.83c-3.22-3.71-5.66-8.02-7.34-12.91&#xA;&#x9;&#x9;&#x9;c-1.67-4.89-2.51-10.08-2.51-15.58c0-5.65,0.89-11.01,2.67-16.09c1.78-5.07,4.32-9.52,7.61-13.34c3.3-3.82,7.3-6.85,12.01-9.1&#xA;&#x9;&#x9;&#x9;c4.71-2.25,9.97-3.38,15.77-3.38c5.7,0,11,1.18,15.89,3.53c4.89,2.35,8.83,6.07,11.81,11.14v-12.87h20.17v77.77&#xA;&#x9;&#x9;&#x9;c0,6.59-1.15,12.24-3.45,16.95c-2.3,4.71-5.45,8.55-9.46,11.54c-4,2.98-8.68,5.17-14.05,6.55c-5.36,1.39-11.08,2.08-17.15,2.08&#xA;&#x9;&#x9;&#x9;c-3.92,0-7.85-0.31-11.77-0.94c-3.92-0.63-7.63-1.71-11.1-3.26c-3.48-1.54-6.63-3.61-9.46-6.2c-2.83-2.59-5.08-5.87-6.75-9.85&#xA;&#x9;&#x9;&#x9;L866.06,259.37z M890.31,236.85c3.92,0,7.36-0.68,10.32-2.04c2.96-1.36,5.43-3.22,7.42-5.57c1.99-2.35,3.48-5.13,4.47-8.32&#xA;&#x9;&#x9;&#x9;c0.99-3.19,1.49-6.62,1.49-10.28c0-3.61-0.48-6.96-1.45-10.04c-0.97-3.09-2.41-5.77-4.32-8.04c-1.91-2.28-4.3-4.05-7.18-5.34&#xA;&#x9;&#x9;&#x9;c-2.88-1.28-6.23-1.92-10.04-1.92c-4.03,0-7.48,0.72-10.36,2.16c-2.88,1.44-5.25,3.37-7.1,5.81c-1.86,2.43-3.23,5.27-4.12,8.51&#xA;&#x9;&#x9;&#x9;c-0.89,3.24-1.33,6.7-1.33,10.36c0,3.3,0.5,6.43,1.49,9.42c0.99,2.98,2.44,5.61,4.36,7.89c1.91,2.28,4.24,4.08,6.98,5.42&#xA;&#x9;&#x9;&#x9;C883.68,236.18,886.8,236.85,890.31,236.85z"></path>
&#x9;&#x9;<path d="M956.23,140.8h39.94c6.07,0,11.72,0.64,16.95,1.92c5.23,1.28,9.78,3.36,13.65,6.24c3.87,2.88,6.92,6.62,9.14,11.22&#xA;&#x9;&#x9;&#x9;c2.22,4.6,3.33,10.2,3.33,16.79c0,7.27-1.32,13.21-3.96,17.81c-2.64,4.6-6.17,8.2-10.59,10.79c-4.42,2.59-9.5,4.37-15.22,5.34&#xA;&#x9;&#x9;&#x9;c-5.73,0.97-11.65,1.45-17.77,1.45h-13.18v43.32h-22.29V140.8z M996.01,196.35c6.85,0,12.15-1.52,15.89-4.55&#xA;&#x9;&#x9;&#x9;c3.74-3.03,5.61-8.03,5.61-14.99c0-3.61-0.51-6.64-1.53-9.1c-1.02-2.46-2.47-4.43-4.35-5.92c-1.88-1.49-4.15-2.55-6.79-3.18&#xA;&#x9;&#x9;&#x9;c-2.64-0.63-5.58-0.94-8.83-0.94h-17.5v38.69H996.01z"></path>
&#x9;&#x9;<path d="M1098.1,245.4c-3.19,4.24-7.02,7.27-11.5,9.1c-4.47,1.83-9.33,2.75-14.56,2.75c-3.92,0-7.6-0.5-11.03-1.49&#xA;&#x9;&#x9;&#x9;c-3.43-0.99-6.41-2.51-8.95-4.55c-2.54-2.04-4.54-4.59-6-7.65c-1.47-3.06-2.2-6.66-2.2-10.79c0-3.87,0.64-7.23,1.92-10.08&#xA;&#x9;&#x9;&#x9;c1.28-2.85,3.01-5.27,5.18-7.26c2.17-1.99,4.72-3.61,7.65-4.87c2.93-1.26,6.03-2.24,9.3-2.94c3.27-0.71,6.63-1.19,10.08-1.45&#xA;&#x9;&#x9;&#x9;c3.45-0.26,6.8-0.39,10.04-0.39h9.89v-1.33c0-2.98-0.22-5.69-0.67-8.12c-0.45-2.43-1.27-4.5-2.47-6.2&#xA;&#x9;&#x9;&#x9;c-1.2-1.7-2.86-3.01-4.98-3.92c-2.12-0.91-4.88-1.37-8.28-1.37c-4.08,0-7.83,1.03-11.26,3.1c-3.43,2.07-5.9,5.04-7.42,8.91&#xA;&#x9;&#x9;&#x9;l-15.62-6.75c1.41-3.71,3.4-6.85,5.96-9.42c2.56-2.56,5.47-4.66,8.71-6.28c3.24-1.62,6.72-2.79,10.44-3.49&#xA;&#x9;&#x9;&#x9;c3.71-0.71,7.46-1.06,11.22-1.06c4.97,0,9.55,0.62,13.73,1.84c4.18,1.23,7.81,3.1,10.87,5.61s5.44,5.72,7.14,9.61&#xA;&#x9;&#x9;&#x9;s2.55,8.51,2.55,13.85v54.93h-19.78V245.4z M1087.83,218.09c-2.3,0-4.85,0.12-7.65,0.35c-2.8,0.24-5.41,0.82-7.85,1.77&#xA;&#x9;&#x9;&#x9;c-2.43,0.94-4.46,2.33-6.08,4.16c-1.62,1.83-2.43,4.34-2.43,7.53c0,2.04,0.34,3.75,1.02,5.14c0.68,1.39,1.63,2.52,2.86,3.41&#xA;&#x9;&#x9;&#x9;c1.23,0.89,2.65,1.53,4.28,1.92c1.62,0.39,3.37,0.59,5.26,0.59c2.56,0,5.07-0.34,7.53-1.02c2.46-0.68,4.67-1.7,6.63-3.06&#xA;&#x9;&#x9;&#x9;c1.96-1.36,3.54-3.1,4.75-5.22c1.2-2.12,1.81-4.59,1.81-7.42v-8.16H1087.83z"></path>
&#x9;&#x9;<path d="M1152.01,259.37c1.05,2.35,2.41,4.3,4.08,5.85c1.67,1.54,3.54,2.77,5.61,3.69c2.07,0.92,4.25,1.57,6.55,1.96&#xA;&#x9;&#x9;&#x9;c2.3,0.39,4.63,0.59,6.98,0.59c7.48,0,13.34-1.82,17.58-5.45c4.24-3.64,6.36-9.27,6.36-16.91v-12.56&#xA;&#x9;&#x9;&#x9;c-1.41,2.41-3.15,4.59-5.22,6.55c-2.07,1.96-4.33,3.62-6.79,4.98c-2.46,1.36-5.06,2.41-7.81,3.14c-2.75,0.73-5.53,1.1-8.36,1.1&#xA;&#x9;&#x9;&#x9;c-5.96,0-11.27-1.08-15.93-3.26c-4.66-2.17-8.59-5.11-11.81-8.83c-3.22-3.71-5.66-8.02-7.34-12.91&#xA;&#x9;&#x9;&#x9;c-1.67-4.89-2.51-10.08-2.51-15.58c0-5.65,0.89-11.01,2.67-16.09c1.78-5.07,4.32-9.52,7.61-13.34c3.3-3.82,7.3-6.85,12.01-9.1&#xA;&#x9;&#x9;&#x9;c4.71-2.25,9.97-3.38,15.77-3.38c5.7,0,11,1.18,15.89,3.53c4.89,2.35,8.83,6.07,11.81,11.14v-12.87h20.17v77.77&#xA;&#x9;&#x9;&#x9;c0,6.59-1.15,12.24-3.45,16.95c-2.3,4.71-5.45,8.55-9.46,11.54c-4,2.98-8.68,5.17-14.05,6.55c-5.36,1.39-11.08,2.08-17.15,2.08&#xA;&#x9;&#x9;&#x9;c-3.92,0-7.85-0.31-11.77-0.94c-3.92-0.63-7.63-1.71-11.1-3.26c-3.48-1.54-6.63-3.61-9.46-6.2c-2.83-2.59-5.08-5.87-6.75-9.85&#xA;&#x9;&#x9;&#x9;L1152.01,259.37z M1176.26,236.85c3.92,0,7.36-0.68,10.32-2.04c2.96-1.36,5.43-3.22,7.42-5.57c1.99-2.35,3.48-5.13,4.47-8.32&#xA;&#x9;&#x9;&#x9;c0.99-3.19,1.49-6.62,1.49-10.28c0-3.61-0.48-6.96-1.45-10.04c-0.97-3.09-2.41-5.77-4.32-8.04c-1.91-2.28-4.3-4.05-7.18-5.34&#xA;&#x9;&#x9;&#x9;c-2.88-1.28-6.23-1.92-10.04-1.92c-4.03,0-7.48,0.72-10.36,2.16c-2.88,1.44-5.25,3.37-7.1,5.81c-1.86,2.43-3.23,5.27-4.12,8.51&#xA;&#x9;&#x9;&#x9;c-0.89,3.24-1.33,6.7-1.33,10.36c0,3.3,0.5,6.43,1.49,9.42c0.99,2.98,2.44,5.61,4.36,7.89c1.91,2.28,4.24,4.08,6.98,5.42&#xA;&#x9;&#x9;&#x9;C1169.63,236.18,1172.76,236.85,1176.26,236.85z"></path>
&#x9;&#x9;<path d="M1316.49,237.39c-1.73,3.72-3.94,6.84-6.63,9.38c-2.69,2.54-5.68,4.58-8.95,6.12c-3.27,1.54-6.78,2.66-10.52,3.33&#xA;&#x9;&#x9;&#x9;c-3.74,0.68-7.55,1.02-11.42,1.02c-6.64,0-12.63-1.06-17.97-3.18c-5.34-2.12-9.88-5.1-13.62-8.95c-3.74-3.84-6.62-8.46-8.63-13.85&#xA;&#x9;&#x9;&#x9;c-2.01-5.39-3.02-11.35-3.02-17.89c0-6.17,1.02-11.91,3.06-17.22c2.04-5.31,4.92-9.91,8.63-13.81c3.71-3.9,8.16-6.96,13.34-9.18&#xA;&#x9;&#x9;&#x9;c5.18-2.22,10.93-3.33,17.26-3.33c13.6,0,23.74,3.99,30.41,11.97c6.67,7.98,10,20.08,10,36.29h-62.23c0,3.56,0.51,6.84,1.53,9.85&#xA;&#x9;&#x9;&#x9;c1.02,3.01,2.52,5.6,4.51,7.77c1.99,2.17,4.45,3.87,7.38,5.1c2.93,1.23,6.3,1.84,10.12,1.84c4.6,0,8.71-0.97,12.32-2.9&#xA;&#x9;&#x9;&#x9;c3.61-1.93,6.51-5.05,8.71-9.34L1316.49,237.39z M1298.44,204.91c-0.31-6.38-2.26-11.39-5.85-15.03&#xA;&#x9;&#x9;&#x9;c-3.58-3.64-8.36-5.45-14.32-5.45c-3.14,0-5.96,0.52-8.47,1.57c-2.51,1.05-4.67,2.49-6.47,4.32c-1.8,1.83-3.28,3.99-4.43,6.47&#xA;&#x9;&#x9;&#x9;c-1.15,2.49-1.94,5.19-2.35,8.12H1298.44z"></path>
&#x9;</g>
&#x9;<g>
&#x9;&#x9;<g>
&#x9;&#x9;&#x9;<path d="M331.75,104.43l36.97-53.42h-33.23V40.47h50.63v5.25l-36.07,53.42h35.03v10.54h-53.32V104.43z"></path>
&#x9;&#x9;&#x9;<path d="M389.47,84.48c0-3.97,0.76-7.59,2.29-10.85c1.53-3.26,3.58-6.05,6.17-8.37c2.58-2.32,5.58-4.11,9-5.39&#xA;&#x9;&#x9;&#x9;&#x9;c3.42-1.28,7.04-1.91,10.85-1.91c3.84,0,7.42,0.64,10.73,1.91c3.31,1.28,6.18,3.07,8.63,5.39s4.36,5.09,5.74,8.32&#xA;&#x9;&#x9;&#x9;&#x9;c1.39,3.23,2.08,6.78,2.08,10.66c0,3.97-0.73,7.58-2.17,10.83c-1.45,3.25-3.43,6.02-5.93,8.32c-2.51,2.3-5.44,4.08-8.82,5.34&#xA;&#x9;&#x9;&#x9;&#x9;c-3.37,1.26-6.97,1.89-10.78,1.89c-3.84,0-7.46-0.64-10.85-1.91c-3.39-1.28-6.33-3.06-8.84-5.37c-2.51-2.3-4.48-5.05-5.93-8.25&#xA;&#x9;&#x9;&#x9;&#x9;C390.19,91.89,389.47,88.35,389.47,84.48z M417.59,101.3c2.52,0,4.69-0.47,6.5-1.42c1.81-0.95,3.3-2.2,4.47-3.76&#xA;&#x9;&#x9;&#x9;&#x9;c1.17-1.56,2.03-3.36,2.58-5.41c0.55-2.05,0.83-4.18,0.83-6.38c0-2.33-0.3-4.53-0.9-6.59c-0.6-2.06-1.51-3.88-2.72-5.44&#xA;&#x9;&#x9;&#x9;&#x9;c-1.21-1.56-2.73-2.79-4.56-3.69c-1.83-0.9-3.99-1.35-6.48-1.35c-2.55,0-4.74,0.47-6.55,1.42c-1.81,0.95-3.29,2.21-4.42,3.81&#xA;&#x9;&#x9;&#x9;&#x9;c-1.13,1.59-1.97,3.44-2.5,5.53c-0.54,2.1-0.8,4.31-0.8,6.64c0,2.24,0.3,4.37,0.9,6.38s1.5,3.78,2.72,5.29&#xA;&#x9;&#x9;&#x9;&#x9;c1.21,1.51,2.73,2.72,4.54,3.62C413,100.86,415.14,101.3,417.59,101.3z"></path>
&#x9;&#x9;&#x9;<path d="M453.81,36.12h12.1v30.96c0.82-1.58,1.83-2.94,3.05-4.09c1.21-1.15,2.55-2.1,4.02-2.84c1.46-0.74,3.04-1.29,4.73-1.65&#xA;&#x9;&#x9;&#x9;&#x9;c1.69-0.36,3.4-0.54,5.13-0.54c3.03,0,5.67,0.5,7.94,1.51c2.27,1.01,4.16,2.4,5.67,4.18c1.51,1.78,2.65,3.89,3.4,6.33&#xA;&#x9;&#x9;&#x9;&#x9;c0.76,2.44,1.13,5.11,1.13,8.01v31.67h-12.2V79.18c0-3.66-0.92-6.45-2.77-8.37s-4.53-2.88-8.06-2.88c-3.91,0-6.89,1.09-8.96,3.29&#xA;&#x9;&#x9;&#x9;&#x9;s-3.1,5.1-3.1,8.72v29.73h-12.1V36.12z"></path>
&#x9;&#x9;&#x9;<path d="M508.83,84.48c0-3.97,0.76-7.59,2.29-10.85c1.53-3.26,3.58-6.05,6.17-8.37c2.58-2.32,5.58-4.11,9-5.39&#xA;&#x9;&#x9;&#x9;&#x9;c3.42-1.28,7.04-1.91,10.85-1.91c3.84,0,7.42,0.64,10.73,1.91c3.31,1.28,6.18,3.07,8.63,5.39s4.36,5.09,5.74,8.32&#xA;&#x9;&#x9;&#x9;&#x9;c1.39,3.23,2.08,6.78,2.08,10.66c0,3.97-0.73,7.58-2.17,10.83c-1.45,3.25-3.43,6.02-5.93,8.32c-2.51,2.3-5.44,4.08-8.82,5.34&#xA;&#x9;&#x9;&#x9;&#x9;c-3.37,1.26-6.97,1.89-10.78,1.89c-3.84,0-7.46-0.64-10.85-1.91c-3.39-1.28-6.33-3.06-8.84-5.37c-2.51-2.3-4.48-5.05-5.93-8.25&#xA;&#x9;&#x9;&#x9;&#x9;C509.55,91.89,508.83,88.35,508.83,84.48z M536.96,101.3c2.52,0,4.69-0.47,6.5-1.42c1.81-0.95,3.3-2.2,4.47-3.76&#xA;&#x9;&#x9;&#x9;&#x9;c1.17-1.56,2.03-3.36,2.58-5.41c0.55-2.05,0.83-4.18,0.83-6.38c0-2.33-0.3-4.53-0.9-6.59c-0.6-2.06-1.51-3.88-2.72-5.44&#xA;&#x9;&#x9;&#x9;&#x9;c-1.21-1.56-2.73-2.79-4.56-3.69c-1.83-0.9-3.99-1.35-6.48-1.35c-2.55,0-4.74,0.47-6.55,1.42c-1.81,0.95-3.29,2.21-4.42,3.81&#xA;&#x9;&#x9;&#x9;&#x9;c-1.13,1.59-1.97,3.44-2.5,5.53c-0.54,2.1-0.8,4.31-0.8,6.64c0,2.24,0.3,4.37,0.9,6.38s1.5,3.78,2.72,5.29&#xA;&#x9;&#x9;&#x9;&#x9;c1.21,1.51,2.73,2.72,4.54,3.62C532.36,100.86,534.5,101.3,536.96,101.3z"></path>
&#x9;&#x9;</g>
&#x9;</g>
</g>
<g>
&#x9;<g>
&#x9;&#x9;<path class="st1" d="M207.8,71.25c-4.67,0-8.5-3.79-8.5-8.5V28.49c0-2.27-0.88-4.39-2.49-6s-3.74-2.49-6-2.49l0,0h-34.24l0,0&#xA;&#x9;&#x9;&#x9;c-4.67,0-8.5-3.79-8.5-8.5c0-4.67,3.79-8.5,8.5-8.5h34.24l0,0c6.8,0,13.2,2.66,18.01,7.45c4.81,4.81,7.45,11.21,7.45,18.01v34.26&#xA;&#x9;&#x9;&#x9;C216.3,67.45,212.51,71.25,207.8,71.25z"></path>
&#x9;</g>
&#x9;<g>
&#x9;&#x9;<g>
&#x9;&#x9;&#x9;<path class="st2" d="M241.67,293H70.97c-4.7,0-8.5-3.79-8.5-8.5v-54.03c0-4.67,3.79-8.5,8.5-8.5s8.5,3.79,8.5,8.5v45.53H241.7&#xA;&#x9;&#x9;&#x9;&#x9;c4.67,0,8.5-3.79,8.5-8.5V79.74c0-4.67-3.79-8.5-8.5-8.5H87.94c-4.67,0-8.5,3.79-8.5,8.5V196.3c0,4.67-3.79,8.5-8.5,8.5&#xA;&#x9;&#x9;&#x9;&#x9;s-8.5-3.79-8.5-8.5V79.74c0-14.05,11.41-25.46,25.46-25.46h153.76c14.05,0,25.46,11.41,25.46,25.46v187.8&#xA;&#x9;&#x9;&#x9;&#x9;C267.16,281.56,255.72,293,241.67,293z"></path>
&#x9;&#x9;</g>
&#x9;&#x9;<g>
&#x9;&#x9;&#x9;<path class="st2" d="M241.67,293H70.97c-4.7,0-8.5-3.79-8.5-8.5v-54.03c0-4.67,3.79-8.5,8.5-8.5s8.5,3.79,8.5,8.5v45.53H241.7&#xA;&#x9;&#x9;&#x9;&#x9;c4.67,0,8.5-3.79,8.5-8.5V79.74c0-4.67-3.79-8.5-8.5-8.5H87.94c-4.67,0-8.5,3.79-8.5,8.5V196.3c0,4.67-3.79,8.5-8.5,8.5&#xA;&#x9;&#x9;&#x9;&#x9;s-8.5-3.79-8.5-8.5V79.74c0-14.05,11.41-25.46,25.46-25.46h153.76c14.05,0,25.46,11.41,25.46,25.46v187.8&#xA;&#x9;&#x9;&#x9;&#x9;C267.16,281.56,255.72,293,241.67,293z"></path>
&#x9;&#x9;</g>
&#x9;</g>
&#x9;<g>
&#x9;&#x9;<g>
&#x9;&#x9;&#x9;<path class="st3" d="M190.76,112.33h-51.28c-4.67,0-8.5-3.79-8.5-8.5s3.79-8.5,8.5-8.5h51.28c4.67,0,8.5,3.79,8.5,8.5&#xA;&#x9;&#x9;&#x9;&#x9;S195.46,112.33,190.76,112.33z"></path>
&#x9;&#x9;</g>
&#x9;&#x9;<g>
&#x9;&#x9;&#x9;<path class="st3" d="M190.76,112.33h-51.28c-4.67,0-8.5-3.79-8.5-8.5s3.79-8.5,8.5-8.5h51.28c4.67,0,8.5,3.79,8.5,8.5&#xA;&#x9;&#x9;&#x9;&#x9;S195.46,112.33,190.76,112.33z"></path>
&#x9;&#x9;</g>
&#x9;</g>
&#x9;<g>
&#x9;&#x9;<g>
&#x9;&#x9;&#x9;<path class="st3" d="M178.13,146.29h-25.8c-4.67,0-8.5-3.79-8.5-8.5s3.79-8.5,8.5-8.5h25.8c4.67,0,8.5,3.79,8.5,8.5&#xA;&#x9;&#x9;&#x9;&#x9;S182.8,146.29,178.13,146.29z"></path>
&#x9;&#x9;</g>
&#x9;&#x9;<g>
&#x9;&#x9;&#x9;<path class="st3" d="M178.13,146.29h-25.8c-4.67,0-8.5-3.79-8.5-8.5s3.79-8.5,8.5-8.5h25.8c4.67,0,8.5,3.79,8.5,8.5&#xA;&#x9;&#x9;&#x9;&#x9;S182.8,146.29,178.13,146.29z"></path>
&#x9;&#x9;</g>
&#x9;</g>
&#x9;<path class="st4" d="M214.2,173.16c-0.28-0.31-0.57-0.59-0.88-0.85c0,0,0,0-0.03,0c-0.08-0.08-0.17-0.14-0.28-0.23&#xA;&#x9;&#x9;c-0.03,0-0.03-0.03-0.06-0.03c-0.08-0.06-0.17-0.14-0.25-0.2c-0.03-0.03-0.06-0.03-0.08-0.06c-0.08-0.06-0.17-0.11-0.23-0.17&#xA;&#x9;&#x9;c-0.03-0.03-0.08-0.06-0.11-0.08c-0.06-0.06-0.14-0.08-0.23-0.14c-0.06-0.03-0.11-0.06-0.14-0.08c-0.06-0.03-0.11-0.06-0.17-0.08&#xA;&#x9;&#x9;c-0.06-0.03-0.14-0.06-0.2-0.11c-0.06-0.03-0.08-0.06-0.14-0.06c-0.08-0.03-0.17-0.08-0.25-0.11c-0.03,0-0.06-0.03-0.08-0.03&#xA;&#x9;&#x9;c-0.08-0.03-0.2-0.08-0.31-0.11c-0.03,0-0.03,0-0.06-0.03c-0.11-0.03-0.23-0.08-0.34-0.11l0,0c-0.65-0.2-1.3-0.34-2.01-0.4&#xA;&#x9;&#x9;l-34.52-2.35c-4.67-0.31-8.72,3.23-9.03,7.9s3.23,8.72,7.9,9.03l14.05,0.96l-65.47,57l-42.14-19.34c-5.66-2.61-12.32-1.9-17.3,1.87&#xA;&#x9;&#x9;l-33.22,25.03V28.54c0-4.67,3.79-8.5,8.5-8.5l119.5-0.03c4.7,0,8.5-3.79,8.5-8.5c0-4.67-3.79-8.5-8.5-8.5l0,0L37.11,3.06&#xA;&#x9;&#x9;c-14.05,0-25.46,11.41-25.46,25.46v221.84c0,6.48,3.6,12.29,9.4,15.21c2.41,1.19,5.01,1.78,7.59,1.78c3.6,0,7.19-1.16,10.19-3.43&#xA;&#x9;&#x9;l33.19-25.03l42.16,19.34c6.06,2.78,13.2,1.76,18.21-2.63l65.56-57.06l-0.96,14.13c-0.31,4.67,3.23,8.72,7.9,9.03&#xA;&#x9;&#x9;c0.2,0,0.4,0.03,0.59,0.03c4.42,0,8.16-3.43,8.47-7.9l2.35-34.38C216.47,177.27,215.79,174.97,214.2,173.16z"></path>
</g>
</svg>