<svg width="133" height="50" viewBox="0 0 133 50" fill="none" xmlns="http://www.w3.org/2000/svg">
<path d="M61.0375 23.7838H64.8205V40.2534H73.4384V43.1757H61.0375V23.7838Z" fill="black"/>
<path d="M88.5366 40.1014C87.3491 42.6014 84.7875 43.4628 82.175 43.4628C77.6795 43.4628 74.8464 40.473 74.8464 36.0473C74.8464 31.8919 77.7303 28.6824 82.0223 28.6824C86.6366 28.6824 88.8759 31.3682 88.8759 36.8412H78.3241C78.3241 39.2399 79.7152 40.9966 82.3107 40.9966C83.8545 40.9966 85.1268 40.3716 85.8732 38.9358L88.5366 40.1014ZM85.483 34.6115C85.3812 32.4662 84.075 31.1486 82.0562 31.1486C79.9187 31.1486 78.6634 32.652 78.375 34.6115H85.483Z" fill="black"/>
<path d="M99.8518 41.4527C98.7661 42.8885 97.1884 43.4459 95.4241 43.4459C92.7437 43.4459 90.6402 42.0946 90.6402 39.3074C90.6402 35.3716 94.8134 34.7466 98.1384 34.7466H99.8179V34.527C99.8179 32.5 99.3428 31.2162 97.0357 31.2162C95.6446 31.2162 94.3723 31.9257 93.8634 33.2432L91.217 32.1115C92.167 29.6115 94.8303 28.6993 97.375 28.6993C100.751 28.6993 103.194 30.3209 103.194 33.9189V43.1926H99.8348V41.4527H99.8518ZM98.1045 36.8412C96.5268 36.8412 94.033 37.027 94.033 39.1723C94.033 40.5405 95.0339 41.0473 96.3062 41.0473C98.0366 41.0473 99.8179 40.152 99.8179 38.2263V36.8412H98.1045Z" fill="black"/>
<path d="M106.807 28.9865H110.217V31.6554C111.184 29.7128 112.728 28.7838 114.899 28.7838V31.9257C112.151 31.9257 110.217 32.8209 110.217 35.8615V43.1926H106.807V28.9865Z" fill="black"/>
<path d="M117.596 28.9865H121.006V31.25C121.922 29.4932 123.839 28.6993 125.824 28.6993C129.251 28.6993 130.795 31.098 130.795 34.3243V43.2095H127.334V34.6622C127.334 32.6689 126.435 31.5034 124.416 31.5034C122.279 31.5034 121.006 32.8209 121.006 34.8649V43.2095H117.596V28.9865Z" fill="black"/>
<path d="M61.0545 17.6351L67.3312 8.61487H61.6991V6.84122H70.283V7.7196L64.1589 16.7399H70.0964V18.5135H61.0545V17.6351Z" fill="black"/>
<path d="M75.6607 9.7973C78.2732 9.7973 80.275 11.6216 80.275 14.2399C80.275 16.9257 78.1714 18.6993 75.5759 18.6993C72.9634 18.6993 70.8598 16.8919 70.8598 14.2905C70.8598 11.5878 73.0821 9.7973 75.6607 9.7973ZM78.0696 14.2399C78.0696 12.6689 77.2723 11.3514 75.5759 11.3514C73.8455 11.3514 73.15 12.7196 73.15 14.2905C73.15 15.8108 73.9643 17.0946 75.6268 17.0946C77.3402 17.1115 78.0696 15.7432 78.0696 14.2399Z" fill="black"/>
<path d="M81.7679 6.09797H83.8205V11.3345C84.3804 10.2703 85.5 9.7973 86.6875 9.7973C88.7402 9.7973 89.775 11.2331 89.775 13.1757V18.5304H87.7054V13.3784C87.7054 12.1453 87.0607 11.4696 85.8732 11.4696C84.55 11.4696 83.8205 12.2804 83.8205 13.4966V18.5135H81.7679V6.09797Z" fill="black"/>
<path d="M95.8991 9.7973C98.5116 9.7973 100.513 11.6216 100.513 14.2399C100.513 16.9257 98.4098 18.6993 95.8143 18.6993C93.2018 18.6993 91.0982 16.8919 91.0982 14.2905C91.0982 11.5878 93.3205 9.7973 95.8991 9.7973ZM98.308 14.2399C98.308 12.6689 97.5107 11.3514 95.8143 11.3514C94.0839 11.3514 93.3884 12.7196 93.3884 14.2905C93.3884 15.8108 94.2027 17.0946 95.8652 17.0946C97.5955 17.1115 98.308 15.7432 98.308 14.2399Z" fill="black"/>
<path d="M45.7866 14.7635C45.5491 14.7635 45.2947 14.6959 45.0741 14.5777L26.2268 3.75C25.7857 3.49662 25.2259 3.49662 24.7679 3.75L12.3161 10.9122C11.6375 11.3007 10.7554 11.0642 10.3652 10.3885C9.97501 9.71284 10.2125 8.83446 10.8911 8.44595L23.3598 1.28379C24.7 0.52365 26.3455 0.52365 27.6857 1.28379L46.533 12.1115C47.2116 12.5 47.4491 13.3784 47.0589 14.0541C46.7536 14.5101 46.2786 14.7635 45.7866 14.7635Z" fill="#226DB4"/>
<path d="M25.4973 49.3074C24.7509 49.3074 24.0045 49.1216 23.3429 48.7331L5.93752 38.7331C4.59734 37.973 3.78305 36.5372 3.78305 35V21.0304C3.78305 20.2365 4.42769 19.6115 5.20805 19.6115C5.98841 19.6115 6.63305 20.2534 6.63305 21.0304V35C6.63305 35.5237 6.90448 35.9966 7.36252 36.25L24.7679 46.25C25.2089 46.5034 25.7688 46.5034 26.2268 46.25L43.6322 36.25C44.0732 35.9966 44.3616 35.5068 44.3616 35V26.8412C44.3616 26.0473 45.0063 25.4223 45.7866 25.4223C46.567 25.4223 47.2116 26.0642 47.2116 26.8412V35C47.2116 36.5372 46.3804 37.9561 45.0572 38.7331L27.6518 48.7331C26.9902 49.1047 26.2438 49.3074 25.4973 49.3074Z" fill="#226DB4"/>
<path d="M49.6545 12.0777C49.3661 11.8074 48.9929 11.6554 48.6027 11.6723C43.8696 11.8412 39.3232 12.973 35.0821 15.0507C31.4688 16.8243 28.2625 19.1723 25.4973 22.0946C22.7491 19.1892 19.5259 16.8243 15.9125 15.0507C11.6714 12.973 7.125 11.8412 2.39197 11.6723C2.00179 11.6554 1.61161 11.8074 1.34018 12.0777C1.05179 12.348 0.899109 12.7196 0.899109 13.1081V20.5912C0.899109 21.3176 1.45893 21.9426 2.18839 22.027C6.71786 22.5169 10.9929 23.9865 14.8607 26.3682C18.5929 28.6655 21.85 31.8074 24.2929 35.4561C24.3438 35.5237 24.3946 35.5912 24.4625 35.6588L24.4795 35.6757C24.4964 35.6926 24.5304 35.7264 24.5643 35.7432C24.5813 35.7601 24.5813 35.7601 24.5982 35.777C24.6152 35.7939 24.6491 35.8108 24.6661 35.8277C24.683 35.8446 24.7 35.8446 24.717 35.8615C24.7339 35.8784 24.7679 35.8953 24.7848 35.9122C24.8018 35.9291 24.8188 35.9291 24.8527 35.946C24.8696 35.9628 24.9036 35.9628 24.9205 35.9797C24.9375 35.9966 24.9714 35.9966 24.9884 36.0135C25.0054 36.0135 25.0393 36.0304 25.0562 36.0304C25.0902 36.0473 25.1241 36.0473 25.158 36.0642C25.175 36.0642 25.2089 36.0811 25.2259 36.0811C25.2768 36.0811 25.3107 36.098 25.3616 36.098C25.3616 36.098 25.3616 36.098 25.3786 36.098C25.4295 36.098 25.4634 36.098 25.5143 36.098C25.6161 36.098 25.7009 36.0811 25.8027 36.0642C25.8366 36.0642 25.8705 36.0473 25.9045 36.0304C25.9214 36.0304 25.9214 36.0304 25.9384 36.0135C26.0741 35.9628 26.2098 35.9122 26.3286 35.8277C26.3455 35.8108 26.3625 35.7939 26.3795 35.777C26.3964 35.7601 26.4134 35.7432 26.4304 35.7432C26.4473 35.7264 26.4812 35.7095 26.4982 35.6926C26.5152 35.6757 26.5321 35.6757 26.5321 35.6588C26.5321 35.6588 26.5321 35.6588 26.5491 35.6419C26.5661 35.625 26.6 35.5912 26.617 35.5574C26.617 35.5574 26.617 35.5574 26.6339 35.5405C26.6679 35.5068 26.6848 35.473 26.7188 35.4392C29.1446 31.7905 32.4188 28.6487 36.1509 26.3514C40.0357 23.9696 44.2938 22.5 48.8232 22.0101C49.5527 21.9257 50.1125 21.3176 50.1125 20.5743V13.1081C50.0955 12.7196 49.9429 12.348 49.6545 12.0777ZM22.0875 28.3277C20.3571 26.6554 18.4402 25.1689 16.3875 23.9189C14.3179 22.6351 12.0955 21.5878 9.78839 20.7939C7.8375 20.1182 5.83572 19.6284 3.78304 19.3243V14.6284C7.56607 14.9493 11.2134 15.946 14.6402 17.6182C18.2366 19.375 21.392 21.7737 24.0554 24.7635V30.4054C23.4277 29.696 22.7661 29.0034 22.0875 28.3277ZM47.2116 19.3243C45.1759 19.6284 43.1571 20.1182 41.2062 20.7939C38.9161 21.5878 36.6937 22.6351 34.6071 23.9189C32.5545 25.1858 30.6375 26.6723 28.9071 28.3277C28.2286 28.9865 27.567 29.6791 26.9393 30.4054V24.7804C29.6027 21.7905 32.758 19.3919 36.3545 17.6351C39.7812 15.9628 43.4116 14.9493 47.2116 14.6453V19.3243Z" fill="#E42527"/>
</svg>
