<svg width="123" height="50" viewBox="0 0 123 50" fill="none" xmlns="http://www.w3.org/2000/svg">
<path d="M62.0021 23.7838H65.7578V40.2602H74.3122V43.1892H62.0021V23.7838Z" fill="black"/>
<path d="M89.3183 40.0997C89.0268 40.728 88.6544 41.2551 88.2011 41.6841C87.7479 42.1132 87.2441 42.4578 86.6931 42.7179C86.1422 42.978 85.5508 43.1672 84.9206 43.2804C84.2904 43.3953 83.6485 43.4527 82.9964 43.4527C81.8776 43.4527 80.8683 43.2736 79.9686 42.9155C79.0688 42.5574 78.3039 42.0541 77.6737 41.4037C77.0435 40.7551 76.5583 39.9747 76.2196 39.0642C75.8809 38.1537 75.7108 37.147 75.7108 36.0422C75.7108 35 75.8826 34.0304 76.2263 33.1334C76.5701 32.2365 77.0553 31.4595 77.6804 30.8007C78.3055 30.1419 79.0553 29.625 79.9281 29.25C80.8009 28.875 81.7698 28.6875 82.8363 28.6875C85.1278 28.6875 86.8364 29.3615 87.9602 30.7095C89.0841 32.0574 89.6451 34.1014 89.6451 36.8395H79.1598C79.1598 37.4409 79.2457 37.9949 79.4176 38.5034C79.5895 39.0118 79.8422 39.4493 80.1775 39.8159C80.5128 40.1824 80.9273 40.4696 81.421 40.6774C81.9147 40.8851 82.4825 40.9882 83.1261 40.9882C83.9012 40.9882 84.5937 40.8243 85.202 40.4983C85.8102 40.1723 86.2989 39.6453 86.6696 38.9206L89.3183 40.0997ZM86.277 34.6132C86.2247 33.5355 85.8962 32.6892 85.2913 32.0743C84.6881 31.4595 83.8827 31.1537 82.8785 31.1537C82.3494 31.1537 81.8742 31.2416 81.4513 31.4189C81.0284 31.5963 80.6645 31.8395 80.3612 32.1486C80.0579 32.4578 79.8085 32.8226 79.6147 33.2416C79.421 33.6622 79.2879 34.1182 79.2188 34.6132H86.277Z" fill="black"/>
<path d="M92.373 28.9932H95.7581V31.2466C95.9872 30.8041 96.2737 30.424 96.6174 30.1064C96.9611 29.7889 97.3402 29.5236 97.7547 29.3108C98.1692 29.098 98.614 28.9426 99.0909 28.8395C99.566 28.7382 100.051 28.6875 100.545 28.6875C101.391 28.6875 102.125 28.8294 102.747 29.1115C103.369 29.3936 103.883 29.7872 104.287 30.2905C104.693 30.7939 104.993 31.3885 105.187 32.0726C105.381 32.7568 105.478 33.5017 105.478 34.3057V43.1875H102.041V34.6385C102.041 33.6402 101.812 32.8649 101.354 32.3125C100.895 31.7601 100.159 31.4848 99.1465 31.4848C98.0799 31.4848 97.2492 31.7889 96.6545 32.4003C96.0597 33.0101 95.7615 33.8277 95.7615 34.853V43.1909H92.3764V28.9932H92.373Z" fill="black"/>
<path d="M110.526 38.9612C110.66 39.3058 110.843 39.6081 111.083 39.87C111.32 40.1301 111.593 40.3446 111.903 40.5136C112.211 40.6808 112.548 40.8075 112.914 40.8919C113.28 40.9764 113.652 41.0186 114.031 41.0186C114.304 41.0186 114.585 40.995 114.877 40.946C115.168 40.897 115.433 40.8092 115.671 40.6808C115.908 40.5524 116.105 40.3801 116.259 40.1639C116.414 39.9477 116.489 39.6706 116.489 39.3362C116.489 38.9831 116.402 38.6909 116.225 38.4612C116.048 38.2315 115.809 38.0389 115.504 37.8852C115.2 37.7298 114.852 37.6031 114.459 37.5C114.067 37.3987 113.65 37.3041 113.209 37.2146C112.644 37.0913 112.073 36.9511 111.497 36.7973C110.919 36.6419 110.402 36.4173 109.944 36.1217C109.485 35.8261 109.111 35.4308 108.82 34.9359C108.528 34.4409 108.383 33.7956 108.383 33C108.383 32.2669 108.537 31.6301 108.847 31.0913C109.155 30.5524 109.558 30.1065 110.056 29.7517C110.555 29.3987 111.118 29.1335 111.748 28.9561C112.378 28.7788 113.015 28.6909 113.659 28.6909C114.223 28.6909 114.796 28.7467 115.377 28.8565C115.959 28.9663 116.508 29.1453 117.024 29.3936C117.539 29.6402 118.006 29.9612 118.425 30.3548C118.843 30.7483 119.169 31.223 119.398 31.7804L116.885 32.8666C116.744 32.549 116.559 32.2821 116.329 32.0642C116.1 31.848 115.844 31.669 115.563 31.5271C115.281 31.3852 114.985 31.2838 114.676 31.223C114.368 31.1605 114.068 31.1301 113.777 31.1301C113.495 31.1301 113.221 31.1588 112.956 31.2163C112.692 31.2737 112.456 31.3666 112.248 31.495C112.041 31.6233 111.876 31.7889 111.753 31.9916C111.63 32.1943 111.568 32.4426 111.568 32.7331C111.568 33.0608 111.649 33.3277 111.812 33.5355C111.976 33.7433 112.196 33.9156 112.473 34.0524C112.751 34.1892 113.079 34.3024 113.458 34.3902C113.837 34.4781 114.238 34.5625 114.661 34.6419C115.243 34.7568 115.834 34.8886 116.432 35.0389C117.032 35.1892 117.576 35.4139 118.065 35.7146C118.554 36.0152 118.953 36.419 119.261 36.9274C119.57 37.4358 119.725 38.1048 119.725 38.9358C119.725 39.7669 119.563 40.4713 119.243 41.0507C118.921 41.6301 118.493 42.0963 117.96 42.4494C117.426 42.8024 116.816 43.0592 116.129 43.2179C115.441 43.3767 114.727 43.4561 113.987 43.4561C113.362 43.4561 112.735 43.3987 112.11 43.2838C111.485 43.169 110.899 42.9798 110.351 42.7146C109.805 42.4494 109.318 42.0997 108.89 41.6673C108.462 41.2348 108.139 40.6994 107.918 40.0625L110.526 38.9612Z" fill="black"/>
<path d="M62.0274 17.6402L68.2566 8.61659H62.6576V6.83618H71.1884V7.72301L65.1108 16.7467H71.0131V18.5271H62.0291V17.6402H62.0274Z" fill="black"/>
<path d="M71.7528 14.2703C71.7528 13.5997 71.8809 12.9882 72.1387 12.4375C72.3965 11.8869 72.7419 11.4156 73.1783 11.0237C73.613 10.6318 74.1184 10.3294 74.6947 10.1132C75.2709 9.89701 75.8809 9.79059 76.5228 9.79059C77.1699 9.79059 77.7731 9.8987 78.3308 10.1132C78.8885 10.3294 79.3721 10.6318 79.7849 11.0237C80.1977 11.4156 80.5195 11.8835 80.752 12.4291C80.9862 12.9747 81.1025 13.5744 81.1025 14.2298C81.1025 14.9004 80.9795 15.5102 80.7369 16.0592C80.4925 16.6082 80.1589 17.0761 79.7377 17.4646C79.3148 17.8531 78.8211 18.1538 78.2516 18.3666C77.6838 18.5794 77.0772 18.6859 76.4352 18.6859C75.7882 18.6859 75.1783 18.5778 74.6071 18.3632C74.0359 18.147 73.5405 17.8463 73.1176 17.4561C72.6947 17.0676 72.3627 16.6031 72.1184 16.0625C71.8758 15.522 71.7528 14.924 71.7528 14.2703ZM76.4925 17.1115C76.9171 17.1115 77.2828 17.0321 77.5877 16.8717C77.8927 16.7112 78.1438 16.5 78.3409 16.2365C78.538 15.973 78.6829 15.669 78.7756 15.3227C78.8683 14.9764 78.9154 14.6166 78.9154 14.245C78.9154 13.8514 78.8649 13.4798 78.7638 13.1318C78.6627 12.7838 78.5094 12.4764 78.3055 12.2129C78.1016 11.9494 77.8455 11.7416 77.5372 11.5896C77.2288 11.4375 76.8649 11.3615 76.4453 11.3615C76.0157 11.3615 75.6467 11.4409 75.3417 11.6014C75.0367 11.7619 74.7874 11.9747 74.597 12.245C74.4066 12.5136 74.265 12.8261 74.1757 13.1791C74.0848 13.5338 74.0409 13.9071 74.0409 14.3007C74.0409 14.6791 74.0915 15.0389 74.1926 15.3784C74.2937 15.718 74.4453 16.0169 74.6509 16.272C74.8548 16.5271 75.1109 16.7315 75.4158 16.8835C75.7191 17.0372 76.078 17.1115 76.4925 17.1115Z" fill="black"/>
<path d="M82.5937 6.10138H84.6325V11.3311C84.7706 11.0642 84.9408 10.8345 85.1464 10.6402C85.3502 10.446 85.576 10.2855 85.8237 10.1605C86.0697 10.0355 86.3359 9.9426 86.6207 9.88178C86.9054 9.82097 87.1936 9.79057 87.4851 9.79057C87.9956 9.79057 88.4404 9.87503 88.8229 10.0456C89.2054 10.2162 89.5238 10.451 89.7782 10.7517C90.0327 11.0524 90.2248 11.4088 90.3511 11.821C90.4792 12.2331 90.5415 12.6841 90.5415 13.174V18.5237H88.4859V13.375C88.4859 12.7568 88.3309 12.2855 88.0192 11.9612C87.7075 11.6369 87.2559 11.4747 86.6611 11.4747C86.0023 11.4747 85.5002 11.6588 85.1514 12.0304C84.8026 12.4021 84.6291 12.8919 84.6291 13.5034V18.5254H82.5903V6.10138H82.5937Z" fill="black"/>
<path d="M91.8658 14.2703C91.8658 13.5997 91.9939 12.9882 92.2517 12.4375C92.5095 11.8869 92.8549 11.4156 93.2913 11.0237C93.726 10.6318 94.2315 10.3294 94.8077 10.1132C95.384 9.89701 95.9939 9.79059 96.6359 9.79059C97.2829 9.79059 97.8861 9.8987 98.4438 10.1132C99.0015 10.3294 99.4851 10.6318 99.8979 11.0237C100.311 11.4156 100.633 11.8835 100.865 12.4291C101.099 12.9747 101.216 13.5744 101.216 14.2298C101.216 14.9004 101.093 15.5102 100.85 16.0592C100.606 16.6082 100.272 17.0761 99.8507 17.4646C99.4278 17.8531 98.9341 18.1538 98.3646 18.3666C97.7968 18.5794 97.1902 18.6859 96.5483 18.6859C95.9013 18.6859 95.2913 18.5778 94.7201 18.3632C94.1489 18.147 93.6536 17.8463 93.2306 17.4561C92.8077 17.0676 92.4758 16.6031 92.2315 16.0625C91.9872 15.522 91.8658 14.924 91.8658 14.2703ZM96.6039 17.1115C97.0285 17.1115 97.3941 17.0321 97.6991 16.8717C98.0041 16.7112 98.2551 16.5 98.4522 16.2365C98.6494 15.973 98.7943 15.669 98.887 15.3227C98.9796 14.9764 99.0268 14.6166 99.0268 14.245C99.0268 13.8514 98.9763 13.4798 98.8752 13.1318C98.7741 12.7838 98.6207 12.4764 98.4169 12.2129C98.213 11.9494 97.9569 11.7416 97.6485 11.5896C97.3402 11.4375 96.9762 11.3615 96.5567 11.3615C96.127 11.3615 95.758 11.4409 95.4531 11.6014C95.1481 11.7619 94.8987 11.9747 94.7083 12.245C94.5179 12.5136 94.3764 12.8261 94.2871 13.1791C94.1961 13.5338 94.1523 13.9071 94.1523 14.3007C94.1523 14.6791 94.2029 15.0389 94.3039 15.3784C94.405 15.718 94.5567 16.0169 94.7622 16.272C94.9661 16.5271 95.2222 16.7315 95.5272 16.8835C95.8305 17.0372 96.1894 17.1115 96.6039 17.1115Z" fill="black"/>
<path d="M41.9818 36.7635C41.1898 36.7635 40.5496 36.1199 40.5496 35.326C40.5496 34.9459 40.7012 34.5794 40.9691 34.3108L46.8798 28.3851C48.7417 26.5135 48.7417 23.4848 46.8798 21.6132L41.8335 16.554C41.2859 15.9797 41.3078 15.0709 41.879 14.5219C42.4333 13.9915 43.3044 13.9915 43.8588 14.5219L48.9051 19.5811C51.8841 22.5692 51.8841 27.429 48.9051 30.4172L42.9944 36.3429C42.7265 36.6132 42.3625 36.7652 41.9818 36.7635Z" fill="#089949"/>
<path d="M10.5898 35.9139C10.209 35.9139 9.84507 35.7635 9.57717 35.4933L4.51395 30.4173C1.5333 27.4291 1.5333 22.5693 4.50889 19.5828L10.4264 13.6436C10.9807 13.0777 11.8889 13.0693 12.4533 13.6267C13.0178 14.1825 13.0262 15.0929 12.4702 15.6588C12.4651 15.6639 12.4601 15.6706 12.4533 15.6757L6.53755 21.6132C4.67739 23.4848 4.67739 26.5119 6.53755 28.3835L11.6008 33.4595C12.1602 34.0203 12.1602 34.9308 11.6008 35.4916C11.3312 35.7602 10.9672 35.9122 10.5881 35.9122L10.5898 35.9139Z" fill="#089949"/>
<path d="M26.7096 30.4764C23.6918 30.4764 21.247 28.0237 21.247 24.9983C21.247 21.973 23.6935 19.522 26.7112 19.522C29.729 19.522 32.1738 21.9747 32.1738 25C32.1704 28.0237 29.7256 30.4747 26.7096 30.4764ZM26.7096 22.3953C25.2757 22.3953 24.1131 23.5625 24.1131 25C24.1131 26.4375 25.2774 27.6031 26.7112 27.6031C28.1451 27.6031 29.3077 26.4375 29.3077 25C29.306 23.5625 28.1434 22.397 26.7096 22.3953Z" fill="#F9B21D"/>
<path d="M26.7096 37.6622C24.2243 37.6656 21.7929 36.9325 19.7205 35.5541C19.0617 35.1149 18.8814 34.223 19.3195 33.5625C19.7575 32.9021 20.6472 32.7213 21.306 33.1605C22.9067 34.2264 24.7871 34.7923 26.7096 34.7889C32.1081 34.7889 36.4973 30.3868 36.4973 24.9764V12.9899C36.5007 11.8463 36.0475 10.7483 35.2387 9.94259L30.0895 4.77874C29.1965 3.8784 27.98 3.37333 26.7129 3.37671C25.4459 3.37333 24.2294 3.8784 23.3347 4.78043L16.5208 11.6149C15.9614 12.1757 15.0532 12.1774 14.4938 11.6166C13.9344 11.0558 13.9327 10.1453 14.4921 9.58448L21.306 2.74833C22.7348 1.30576 24.6809 0.498331 26.7096 0.503399C28.7382 0.496642 30.686 1.30576 32.1165 2.74833L37.2673 7.91218C38.6153 9.25678 39.3701 11.0862 39.3651 12.9916V25.0118C39.3449 32.0034 33.6852 37.6622 26.7096 37.6622Z" fill="#E42527"/>
<path d="M26.7095 49.4966C24.6809 49.5017 22.7365 48.6943 21.306 47.2517L16.1551 42.0862C14.8072 40.7432 14.0523 38.9139 14.0574 37.0101V24.9899C14.0776 17.9831 19.7592 12.3193 26.7483 12.3395C29.2302 12.3463 31.6548 13.0845 33.7206 14.4628C34.3844 14.8953 34.5714 15.7855 34.1401 16.451C33.7088 17.1166 32.8208 17.3041 32.1569 16.8716C32.1485 16.8666 32.1401 16.8598 32.13 16.8547C30.5259 15.7804 28.6388 15.2078 26.7079 15.2112C21.3093 15.2112 16.9201 19.6132 16.9201 25.0237V37.0084C16.9167 38.152 17.37 39.2483 18.1787 40.0557L23.3313 45.2213C25.1965 47.0895 28.2192 47.0895 30.0845 45.2213L36.9152 38.3733C37.4746 37.8125 38.3828 37.8125 38.9422 38.3733C39.5015 38.9341 39.5015 39.8446 38.9422 40.4054L32.1114 47.2534C30.6843 48.6943 28.7382 49.5034 26.7095 49.4966Z" fill="#E42527"/>
</svg>
