<?xml version="1.0" encoding="utf-8"?>

<svg version="1.1" id="Layer_1" xmlns="http://www.w3.org/2000/svg" xmlns:xlink="http://www.w3.org/1999/xlink" x="0px" y="0px" viewBox="0 0 658 296" style="enable-background:new 0 0 658 296;" xml:space="preserve">

<g>
&#x9;<g>
&#x9;&#x9;<path d="M298.7,140.8H321v97.5h50.8v17.3h-73.1V140.8z"></path>
&#x9;&#x9;<path d="M424.5,169.8c25.5,0,45.1,17.9,45.1,43.6c0,26.4-20.6,43.8-46,43.8c-25.6,0-46.1-17.7-46.1-43.4&#xA;&#x9;&#x9;&#x9;C377.5,187.5,399.2,169.8,424.5,169.8z M448,213.6c0-15.5-7.8-28.3-24.3-28.3c-17,0-23.7,13.5-23.7,28.9&#xA;&#x9;&#x9;&#x9;c0,14.9,7.9,27.6,24.2,27.6C440.9,241.8,448,228.3,448,213.6z"></path>
&#x9;&#x9;<path d="M497.2,259.4c4.2,9.3,13.9,12.1,23.2,12.1c14.9,0,23.9-7.1,23.9-22.4v-12.6c-5.7,9.7-17,15.8-28.2,15.8&#xA;&#x9;&#x9;&#x9;c-23.8,0-37.6-18.7-37.6-40.6c0-22.6,14.8-41.9,38.1-41.9c11.4,0,21.8,4.6,27.7,14.7v-12.9h20.2v77.8c0,26.4-19.8,37.1-44.1,37.1&#xA;&#x9;&#x9;&#x9;c-15.6,0-32.3-4.4-39.1-20.2L497.2,259.4z M545.2,210.6c0-14.4-7.8-25.3-23-25.3c-16.1,0-22.9,12.2-22.9,26.8&#xA;&#x9;&#x9;&#x9;c0,13.1,8.2,24.7,22.2,24.7C537.1,236.8,545.2,225.2,545.2,210.6z"></path>
&#x9;&#x9;<path d="M595.5,230.6c3.1,8.2,11.7,12.2,20.8,12.2c6.5,0,14.6-2,14.6-10c0-8.4-9.1-10.4-19.5-12.6c-13.5-2.8-28.6-6.1-28.6-25&#xA;&#x9;&#x9;&#x9;c0-17.3,16.1-25.5,31.3-25.5c13.3,0,28.6,5,34.1,18.3l-14.9,6.4c-3.3-7.5-11.5-10.3-18.4-10.3c-6.7,0-13.1,2.7-13.1,9.5&#xA;&#x9;&#x9;&#x9;c0,7.7,8.2,9.3,18.4,11.3c13.7,2.7,30.1,5.8,30.1,25.4c0,19.8-16.6,26.8-34.1,26.8c-14.8,0-30.8-5-36-20.1L595.5,230.6z"></path>
&#x9;</g>
&#x9;<g>
&#x9;&#x9;<path d="M298.8,104.4l37-53.4h-33.2V40.5h50.6v5.2l-36.1,53.4h35v10.5h-53.3V104.4z"></path>
&#x9;&#x9;<path d="M384.9,58c15.4,0,27.2,10.8,27.2,26.3c0,15.9-12.4,26.4-27.7,26.4c-15.4,0-27.8-10.7-27.8-26.1&#xA;&#x9;&#x9;&#x9;C356.5,68.6,369.6,58,384.9,58z M399,84.3c0-9.3-4.7-17.1-14.7-17.1c-10.2,0-14.3,8.1-14.3,17.4c0,9,4.8,16.6,14.6,16.6&#xA;&#x9;&#x9;&#x9;C394.8,101.3,399,93.2,399,84.3z"></path>
&#x9;&#x9;<path d="M420.9,36.1H433v31c3.3-6.3,9.9-9.1,16.9-9.1c12.1,0,18.2,8.5,18.2,20v31.7h-12.2V79.2c0-7.3-3.8-11.3-10.8-11.3&#xA;&#x9;&#x9;&#x9;c-7.8,0-12.1,4.8-12.1,12v29.7h-12.1V36.1z"></path>
&#x9;&#x9;<path d="M504.2,58c15.4,0,27.2,10.8,27.2,26.3c0,15.9-12.4,26.4-27.7,26.4c-15.4,0-27.8-10.7-27.8-26.1&#xA;&#x9;&#x9;&#x9;C475.9,68.6,489,58,504.2,58z M518.4,84.3c0-9.3-4.7-17.1-14.7-17.1c-10.2,0-14.3,8.1-14.3,17.4c0,9,4.8,16.6,14.6,16.6&#xA;&#x9;&#x9;&#x9;C514.2,101.3,518.4,93.2,518.4,84.3z"></path>
&#x9;</g>
</g>
<g>
&#x9;<path class="st1" d="M174.7,3H71.8C39,3,12.3,29.7,12.3,62.5v132.8c0,32.8,26.7,59.5,59.5,59.5H115c4.7,0,8.5-3.8,8.5-8.5&#xA;&#x9;&#x9;c0-4.7-3.8-8.5-8.5-8.5H71.8c-23.4,0-42.5-19.1-42.5-42.5V62.5C29.3,39.1,48.4,20,71.8,20h102.9c23.4,0,42.5,19.1,42.5,42.5v93.6&#xA;&#x9;&#x9;c-10.5-10.4-24.9-16.9-40.8-16.9c-31.9,0-57.8,25.9-57.8,57.8s25.9,57.8,57.8,57.8c0.1,0,0.3,0,0.4,0c0.1,0,0.1,0,0.2,0&#xA;&#x9;&#x9;c5.9,0,10.6,4.8,10.6,10.6c0,5.9-4.8,10.6-10.6,10.6c-4.7,0-8.5,3.8-8.5,8.5c0,4.7,3.8,8.5,8.5,8.5c15.2,0,27.6-12.4,27.6-27.6&#xA;&#x9;&#x9;c0-5.8-1.8-11.2-4.8-15.6c20.2-9,34.4-29.3,34.4-52.8V62.5C234.2,29.7,207.5,3,174.7,3z M176.4,237.7c-22.5,0-40.8-18.3-40.8-40.8&#xA;&#x9;&#x9;s18.3-40.8,40.8-40.8s40.8,18.3,40.8,40.8C217.2,219.4,198.9,237.7,176.4,237.7z"></path>
&#x9;<g>
&#x9;&#x9;<g>
&#x9;&#x9;&#x9;<path class="st2" d="M159.9,71.3H71.8c-4.7,0-8.5-3.8-8.5-8.5s3.8-8.5,8.5-8.5h88.1c4.7,0,8.5,3.8,8.5,8.5S164.6,71.3,159.9,71.3&#xA;&#x9;&#x9;&#x9;&#x9;z"></path>
&#x9;&#x9;</g>
&#x9;&#x9;<g>
&#x9;&#x9;&#x9;<path class="st2" d="M159.9,105.1H71.8c-4.7,0-8.5-3.8-8.5-8.5c0-4.7,3.8-8.5,8.5-8.5h88.1c4.7,0,8.5,3.8,8.5,8.5&#xA;&#x9;&#x9;&#x9;&#x9;C168.4,101.3,164.6,105.1,159.9,105.1z"></path>
&#x9;&#x9;</g>
&#x9;&#x9;<g>
&#x9;&#x9;&#x9;<path class="st2" d="M127.1,139H71.8c-4.7,0-8.5-3.8-8.5-8.5c0-4.7,3.8-8.5,8.5-8.5h55.3c4.7,0,8.5,3.8,8.5,8.5&#xA;&#x9;&#x9;&#x9;&#x9;C135.6,135.2,131.8,139,127.1,139z"></path>
&#x9;&#x9;</g>
&#x9;</g>
</g>
</svg>