<?xml version="1.0" encoding="UTF-8"?>
<svg xmlns="http://www.w3.org/2000/svg" viewBox="0 0 1033.05 290">
  <defs>
    
  </defs>
  <g id="Layer_1" data-name="Layer 1">
    <g>
      <path d="m322.57,22.71h32.25l37.91,95.86,37.64-95.86h31.54v131.53h-23.54V53.97l-41.42,100.27h-11.32l-40.07-100.27v100.27h-23V22.71Z"></path>
      <path d="m543.13,142.47c-7.28,9.7-17.97,13.57-29.83,13.57-18.06,0-32.25-9.16-32.25-28.03,0-26.68,28.21-30.91,50.58-30.91h11.32v-1.53c0-13.75-3.23-22.46-18.78-22.46-9.34,0-17.97,4.85-21.38,13.75l-17.88-7.73c6.47-16.98,24.44-23.18,41.6-23.18,22.73,0,39.26,10.96,39.26,35.4v62.89h-22.64v-11.77Zm-11.77-31.27c-10.6,0-27.49,1.26-27.49,15.81,0,9.25,6.74,12.67,15.36,12.67,11.68,0,23.72-6.11,23.72-19.14v-9.34h-11.59Z"></path>
      <path d="m602.25,17.32c7.46,0,13.39,5.48,13.39,13.12s-5.75,13.03-13.3,13.03-13.75-5.57-13.75-13.12,6.2-13.03,13.66-13.03Zm-11.59,40.88h23v96.04h-23V58.2Z"></path>
      <path d="m640.34,19.02l23-9.97v145.19h-23V19.02Z"></path>
      <path d="m702.61,114.71c3.68,13.03,13.75,22.64,27.76,22.64s26.32-5.93,26.32-21.2c0-20.48-15.18-21.11-30.82-21.11h-3.14v-17.7h3.23c14.46,0,28.3-.9,28.3-19.14,0-12.22-10.15-18.42-22.37-18.42-13.12,0-21.11,7.28-25.25,20.21l-18.69-8.09c6.2-21.02,25.52-31.09,46.27-31.09,21.83,0,44.29,11.23,44.29,35.04,0,14.82-8.71,24.26-21.83,29.02,16.17,3.68,25.7,14.91,25.7,32.16,0,27.94-24.98,38.99-50.04,38.99-21.92,0-43.48-10.06-49.05-32.88l19.32-8.45Z"></path>
      <path d="m881.04,54.69c-4.76-9.97-13.3-14.55-23.54-14.55-24.44,0-31.18,26.23-31.18,45.28,7.19-11.68,19.41-16.89,33.24-16.89,25.07,0,43.48,17.16,43.48,43.21,0,28.48-22.01,44.29-49.41,44.29-40.97,0-52.47-28.93-52.47-64.87s15.27-70.35,55.88-70.35c18.6,0,34.95,7.46,43.57,25.43l-19.59,8.45Zm-3.32,56.87c0-14.73-8.89-25.79-24.26-25.79s-25.43,10.06-25.43,24.71c0,15.54,8.89,27.22,24.89,27.22s24.8-11.23,24.8-26.14Z"></path>
      <path d="m920.39,85.33c0-34.68,18.69-64.51,57.05-64.51,41.06,0,55.61,34.41,55.61,70.62s-17.97,64.6-56.15,64.6c-43.66,0-56.51-32.43-56.51-70.71Zm87.15-.36c0-19.86-6.02-44.29-31.27-44.29-27.85,0-30.19,29.47-30.19,51.12,0,20.48,6.2,44.38,31.71,44.38,28.3,0,29.74-29.74,29.74-51.21Z"></path>
    </g>
    <g>
      <path d="m322.71,207.73h5.81v22.73c.66-1.03,1.48-1.96,2.46-2.8.98-.84,2.04-1.56,3.2-2.15,1.15-.59,2.35-1.05,3.61-1.37,1.25-.32,2.48-.48,3.69-.48,2.76,0,5.18.5,7.26,1.5,2.09,1,3.83,2.36,5.25,4.07,1.41,1.71,2.48,3.7,3.2,5.96.72,2.27,1.08,4.66,1.08,7.16s-.37,4.99-1.11,7.31-1.82,4.36-3.25,6.12c-1.42,1.75-3.17,3.15-5.25,4.19-2.07,1.04-4.44,1.55-7.11,1.55-1.3,0-2.58-.14-3.84-.41-1.27-.27-2.46-.68-3.59-1.23-1.13-.55-2.17-1.24-3.13-2.08-.96-.84-1.78-1.82-2.46-2.94v6.05h-5.81v-53.18Zm18.12,48.95c2.19,0,4.02-.39,5.49-1.18,1.47-.79,2.64-1.83,3.52-3.14.88-1.31,1.5-2.83,1.86-4.56.36-1.73.55-3.54.55-5.43,0-1.75-.23-3.46-.68-5.13-.46-1.66-1.15-3.14-2.08-4.43-.93-1.29-2.12-2.32-3.55-3.11-1.44-.79-3.13-1.18-5.09-1.18-2.14,0-4,.38-5.57,1.14-1.57.76-2.87,1.79-3.9,3.09s-1.79,2.81-2.29,4.53c-.5,1.72-.75,3.54-.75,5.45s.27,3.86.8,5.57,1.33,3.18,2.38,4.43c1.05,1.24,2.35,2.21,3.91,2.9,1.56.7,3.37,1.04,5.42,1.04Z"></path>
      <path d="m376.07,257.12l-14.15-32.81h6.22l11.01,26.25,10.15-26.25h5.95l-20.23,49.36h-5.88l6.94-16.54Z"></path>
      <path d="m412.98,258.39l29.19-42.55h-26.66v-4.96h34.25v2.5l-28.44,42.35h27.99v5.2h-36.33v-2.53Z"></path>
      <path d="m473.1,261.53c-2.73,0-5.21-.49-7.43-1.47-2.22-.98-4.11-2.32-5.67-4.02-1.56-1.7-2.76-3.69-3.61-5.98-.84-2.29-1.26-4.75-1.26-7.37s.45-5.23,1.35-7.55,2.15-4.33,3.76-6.03c1.61-1.7,3.54-3.03,5.79-4s4.73-1.45,7.42-1.45,5.22.49,7.45,1.47c2.23.98,4.14,2.32,5.71,4.03s2.79,3.71,3.64,6c.86,2.29,1.28,4.75,1.28,7.37s-.45,5.2-1.35,7.52-2.17,4.34-3.79,6.03c-1.63,1.7-3.57,3.03-5.83,4-2.26.97-4.74,1.45-7.45,1.45Zm.1-4.85c2.1,0,3.92-.39,5.47-1.16,1.55-.77,2.83-1.81,3.84-3.11s1.77-2.8,2.26-4.5c.49-1.7.74-3.47.74-5.31s-.26-3.72-.77-5.42c-.51-1.7-1.29-3.19-2.32-4.48-1.04-1.29-2.33-2.31-3.88-3.06-1.55-.75-3.35-1.13-5.4-1.13s-3.87.38-5.38,1.14c-1.52.76-2.76,1.79-3.74,3.09-.98,1.3-1.7,2.8-2.17,4.49-.47,1.7-.7,3.49-.7,5.38s.25,3.83.75,5.54c.5,1.71,1.26,3.2,2.27,4.46,1.01,1.27,2.27,2.26,3.78,2.97,1.5.72,3.26,1.08,5.26,1.08Z"></path>
      <path d="m500.31,207.73h5.81v22.39c1.16-2.26,2.77-3.9,4.82-4.92s4.33-1.54,6.84-1.54c2.26,0,4.24.38,5.95,1.14,1.71.76,3.13,1.82,4.27,3.18,1.14,1.36,2,2.96,2.58,4.8.58,1.85.87,3.85.87,6.02v22.11h-5.81v-22.52c0-3.17-.78-5.57-2.32-7.21-1.55-1.64-3.84-2.46-6.87-2.46-3.26,0-5.79.89-7.61,2.68-1.81,1.79-2.72,4.23-2.72,7.33v22.18h-5.81v-53.18Z"></path>
      <path d="m557.87,261.53c-2.73,0-5.21-.49-7.43-1.47-2.22-.98-4.11-2.32-5.67-4.02-1.56-1.7-2.76-3.69-3.61-5.98-.84-2.29-1.26-4.75-1.26-7.37s.45-5.23,1.35-7.55,2.15-4.33,3.76-6.03c1.61-1.7,3.54-3.03,5.79-4s4.73-1.45,7.42-1.45,5.22.49,7.45,1.47c2.23.98,4.14,2.32,5.71,4.03s2.79,3.71,3.64,6c.86,2.29,1.28,4.75,1.28,7.37s-.45,5.2-1.35,7.52-2.17,4.34-3.79,6.03c-1.63,1.7-3.57,3.03-5.83,4-2.26.97-4.74,1.45-7.45,1.45Zm.1-4.85c2.1,0,3.92-.39,5.47-1.16,1.55-.77,2.83-1.81,3.84-3.11s1.77-2.8,2.26-4.5c.49-1.7.74-3.47.74-5.31s-.26-3.72-.77-5.42c-.51-1.7-1.29-3.19-2.32-4.48-1.04-1.29-2.33-2.31-3.88-3.06-1.55-.75-3.35-1.13-5.4-1.13s-3.87.38-5.38,1.14c-1.52.76-2.76,1.79-3.74,3.09-.98,1.3-1.7,2.8-2.17,4.49-.47,1.7-.7,3.49-.7,5.38s.25,3.83.75,5.54c.5,1.71,1.26,3.2,2.27,4.46,1.01,1.27,2.27,2.26,3.78,2.97,1.5.72,3.26,1.08,5.26,1.08Z"></path>
      <path d="m599.77,210.88h8.48l16.03,39.68,15.83-39.68h8.41v50.04h-6.08v-42.14l-16.95,42.14h-2.6l-17.5-42.14v42.14h-5.61v-50.04Z"></path>
      <path d="m681.05,256.3c-1.32,1.75-3.02,3.07-5.09,3.93-2.07.87-4.23,1.3-6.46,1.3-1.62,0-3.16-.23-4.61-.68-1.46-.46-2.73-1.13-3.83-2.03s-1.97-2.02-2.61-3.35c-.65-1.33-.97-2.88-.97-4.63,0-1.87.36-3.45,1.08-4.73.72-1.29,1.68-2.35,2.87-3.2,1.2-.84,2.57-1.5,4.12-1.98,1.55-.48,3.15-.83,4.8-1.04,1.65-.22,3.29-.35,4.92-.39,1.63-.04,3.13-.07,4.49-.07h1.3v-.24c0-1.57-.11-3.01-.32-4.32-.22-1.31-.64-2.43-1.27-3.37-.63-.93-1.5-1.66-2.63-2.19-1.13-.52-2.59-.79-4.39-.79-1,0-1.98.15-2.94.44-.96.3-1.85.72-2.67,1.28s-1.54,1.23-2.15,2.02c-.62.79-1.08,1.66-1.4,2.62l-4.96-2.15c.66-1.53,1.49-2.85,2.48-3.98.99-1.13,2.11-2.07,3.37-2.82,1.25-.75,2.61-1.32,4.07-1.69,1.46-.38,2.98-.56,4.58-.56,2.05,0,3.94.3,5.66.91,1.72.6,3.2,1.48,4.44,2.61,1.24,1.14,2.21,2.53,2.9,4.17s1.04,3.5,1.04,5.57v23.99h-5.81v-4.61Zm-5.02-12.75c-.8,0-1.66.03-2.6.09-.93.06-1.88.18-2.82.36-.95.18-1.86.43-2.75.75-.89.32-1.67.75-2.34,1.28s-1.21,1.19-1.62,1.96c-.41.78-.62,1.7-.62,2.77s.17,2.07.5,2.85c.33.79.79,1.42,1.38,1.91.59.49,1.3.84,2.12,1.06.82.22,1.72.33,2.7.33,1.34,0,2.68-.19,4-.56,1.32-.38,2.51-.94,3.55-1.69,1.05-.75,1.9-1.67,2.55-2.77.65-1.09.97-2.36.97-3.79v-4.55h-5.02Z"></path>
      <path d="m697.12,213.78c0-1.09.37-2.01,1.11-2.75s1.66-1.11,2.75-1.11,2.01.37,2.75,1.11c.74.74,1.11,1.66,1.11,2.75s-.37,2.01-1.11,2.75-1.66,1.11-2.75,1.11-2.01-.37-2.75-1.11c-.74-.74-1.11-1.66-1.11-2.75Zm1.06,10.6h5.81v36.54h-5.81v-36.54Z"></path>
      <path d="m715.81,207.97l5.88-2.6v55.54h-5.88v-52.94Z"></path>
    </g>
  </g>
  <g id="Layer_2" data-name="Layer 2">
    <g>
      <path class="cls-1" d="m258,204.75v-119.5c0-9.08-4.89-17.55-12.75-22.09L141.75,3.41c-7.87-4.54-17.64-4.54-25.51,0L12.75,63.16c-7.87,4.54-12.75,13.01-12.75,22.09v119.5c0,3.52.74,6.95,2.09,10.09.21.6.48,1.18.82,1.73,2.21,4.22,5.59,7.82,9.84,10.28l103.49,59.75c3.93,2.27,8.34,3.41,12.75,3.41s8.82-1.14,12.75-3.41l103.49-59.75c3.94-2.28,7.14-5.54,9.34-9.37.53-.73.93-1.53,1.2-2.36,1.43-3.22,2.21-6.74,2.21-10.37Zm-75.39-80.8l58.39-33.62v101.36l-58.39-67.75ZM21.26,77.89L124.75,18.14c1.31-.76,2.78-1.14,4.25-1.14s2.94.38,4.25,1.13l99.39,57.38-66.59,38.34c-.58.25-1.13.57-1.66.95l-31.21,17.97c-2.57,1.48-5.77,1.48-8.34,0l-32.06-18.5c-.24-.15-.48-.3-.73-.42l-45.1-26.02c-4.07-2.35-9.27-.95-11.62,3.11-2.35,4.07-.95,9.27,3.11,11.62l36.58,21.11-58.02,67.37v-105.79c0-3.03,1.63-5.85,4.25-7.36Zm111.99,193.98c-2.62,1.51-5.88,1.51-8.5,0l-103.47-59.74,68.73-79.81,26.32,15.19c3.91,2.25,8.29,3.38,12.67,3.38s8.75-1.12,12.65-3.37l25.94-14.94,68.74,79.76-103.09,59.52Z"></path>
      <path class="cls-1" d="m79.06,79.08l52.53,30.33c1.34.77,2.8,1.14,4.24,1.14,2.94,0,5.8-1.52,7.37-4.25,2.35-4.07.96-9.27-3.11-11.62l-52.53-30.33c-4.07-2.35-9.27-.96-11.62,3.11-2.35,4.07-.96,9.27,3.11,11.62Z"></path>
      <path class="cls-1" d="m119.59,55.65l26.11,15.07c1.34.77,2.8,1.14,4.24,1.14,2.94,0,5.8-1.52,7.37-4.25,2.35-4.07.96-9.27-3.11-11.62l-26.11-15.07c-4.07-2.35-9.27-.96-11.62,3.11-2.35,4.07-.96,9.27,3.11,11.62Z"></path>
    </g>
  </g>
</svg>