<svg width="114" height="50" viewBox="0 0 114 50" fill="none" xmlns="http://www.w3.org/2000/svg">
<path d="M60.6763 23.7838H65.432L71.0139 37.9223L76.5621 23.7838H81.1997V43.1926H77.7426V28.3953L71.6379 43.1926H69.9683L64.066 28.3953V43.1926H60.6763V23.7838Z" fill="black"/>
<path d="M93.1731 41.4527C92.0938 42.8885 90.5254 43.4459 88.7716 43.4459C86.1071 43.4459 84.016 42.0946 84.016 39.3074C84.016 35.3716 88.1645 34.7466 91.4698 34.7466H93.1393V34.527C93.1393 32.5 92.6672 31.2162 90.3737 31.2162C88.9908 31.2162 87.726 31.9257 87.2201 33.2432L84.5893 32.1115C85.5337 29.6115 88.1814 28.6993 90.7109 28.6993C94.0669 28.6993 96.4953 30.3209 96.4953 33.9189V43.1926H93.1562V41.4527H93.1731ZM91.4361 36.8412C89.8678 36.8412 87.3888 37.027 87.3888 39.1723C87.3888 40.5405 88.3837 41.0473 89.6485 41.0473C91.3686 41.0473 93.1393 40.152 93.1393 38.2264V36.8412H91.4361Z" fill="black"/>
<path d="M101.875 22.9899C102.971 22.9899 103.848 23.8007 103.848 24.9324C103.848 26.0473 103.005 26.8581 101.892 26.8581C100.796 26.8581 99.8681 26.0304 99.8681 24.9155C99.8681 23.7838 100.779 22.9899 101.875 22.9899ZM100.172 29.0203H103.561V43.1926H100.172V29.0203Z" fill="black"/>
<path d="M107.491 23.2432L110.88 21.7736V43.1926H107.491V23.2432Z" fill="black"/>
<path d="M60.7101 17.6351L66.9497 8.61487H61.3509V6.84122H69.884V7.7196L63.7961 16.7399H69.6985V18.5135H60.7101V17.6351Z" fill="black"/>
<path d="M75.213 9.7973C77.81 9.7973 79.8 11.6216 79.8 14.2399C79.8 16.9257 77.7089 18.6993 75.1287 18.6993C72.5316 18.6993 70.4405 16.8919 70.4405 14.2905C70.4405 11.5878 72.6497 9.7973 75.213 9.7973ZM77.6077 14.2399C77.6077 12.6689 76.8151 11.3514 75.1287 11.3514C73.4086 11.3514 72.7171 12.7196 72.7171 14.2905C72.7171 15.8108 73.5266 17.0946 75.1793 17.0946C76.8994 17.1115 77.6077 15.7432 77.6077 14.2399Z" fill="black"/>
<path d="M81.3009 6.09797H83.3414V11.3345C83.8979 10.2703 85.0109 9.7973 86.1914 9.7973C88.2319 9.7973 89.2606 11.2331 89.2606 13.1757V18.5304H87.1864V13.3784C87.1864 12.1453 86.5456 11.4696 85.3651 11.4696C84.0497 11.4696 83.3245 12.2804 83.3245 13.4966V18.5135H81.284V6.09797H81.3009Z" fill="black"/>
<path d="M95.3485 9.7973C97.9456 9.7973 99.9355 11.6216 99.9355 14.2399C99.9355 16.9257 97.8444 18.6993 95.2642 18.6993C92.6672 18.6993 90.576 16.8919 90.576 14.2905C90.576 11.5878 92.7852 9.7973 95.3485 9.7973ZM97.7432 14.2399C97.7432 12.6689 96.9506 11.3514 95.2642 11.3514C93.5441 11.3514 92.8526 12.7196 92.8526 14.2905C92.8526 15.8108 93.6621 17.0946 95.3148 17.0946C97.018 17.1115 97.7432 15.7432 97.7432 14.2399Z" fill="black"/>
<path d="M39.6976 33.5473C38.905 33.5473 38.2642 32.9054 38.2642 32.1115V24.3074C38.2642 23.4966 37.6065 22.8378 36.797 22.8378H13.9296C13.1201 22.8378 12.4624 23.4966 12.4624 24.3074V25.9459C12.4624 26.7399 11.8216 27.3818 11.029 27.3818C10.2364 27.3818 9.59555 26.7399 9.59555 25.9459V24.3074C9.59555 21.9257 11.5349 19.9662 13.9296 19.9662H36.797C39.1748 19.9662 41.1311 21.9088 41.1311 24.3074V32.1115C41.1311 32.9054 40.4902 33.5473 39.6976 33.5473Z" fill="#F9B21D"/>
<path d="M45.482 49.4764H5.24467C2.86686 49.4764 0.910645 47.5338 0.910645 45.1351V33.6824C0.910645 32.8885 1.55147 32.2466 2.34408 32.2466C3.13668 32.2466 3.77751 32.8885 3.77751 33.6824V45.1351C3.77751 45.946 4.4352 46.6047 5.24467 46.6047H45.482C46.2914 46.6047 46.9491 45.946 46.9491 45.1351V20.8446C46.9491 20.3885 46.7467 19.9831 46.3926 19.6959L26.274 3.69932C25.7343 3.27703 24.9923 3.27703 24.4527 3.69932L4.33402 19.6959C3.97988 19.9662 3.77751 20.3885 3.77751 20.8446V25.7601C3.77751 26.3007 4.08106 26.7905 4.55325 27.0608L24.6719 37.7872C25.1104 38.0237 25.6163 38.0237 26.0547 37.7872L39.0231 30.8615C39.7145 30.4899 40.5914 30.7601 40.9624 31.4527C41.3334 32.1453 41.0636 33.0237 40.3722 33.3953L27.4038 40.3209C26.1222 40.9966 24.6044 40.9966 23.3396 40.3209L3.20414 29.5777C1.78757 28.8176 0.910645 27.348 0.910645 25.7432V20.8277C0.910645 19.4932 1.51775 18.2601 2.54644 17.4324L22.6651 1.4527C23.424 0.844594 24.3852 0.506756 25.3633 0.506756C26.3414 0.506756 27.2858 0.844594 28.0615 1.4527L48.1802 17.4493C49.2257 18.277 49.816 19.5101 49.816 20.8446V45.152C49.816 47.5338 47.8766 49.4764 45.482 49.4764Z" fill="#226DB4"/>
</svg>
