<svg width="296" height="60" viewBox="0 0 296 60" fill="none" xmlns="http://www.w3.org/2000/svg">
<path d="M66.8027 28.5405H72.52L79.2307 45.5067L85.9008 28.5405H91.4762V51.8311H87.2997V34.0743L79.9606 51.8311H77.9534L70.8575 34.0743V51.8311H66.7825V28.5405H66.8027Z" fill="black"/>
<path d="M105.871 49.7432C104.573 51.4662 102.688 52.1351 100.579 52.1351C97.3759 52.1351 94.8619 50.5135 94.8619 47.1689C94.8619 42.4459 99.8493 41.6959 103.823 41.6959H105.83V41.4324C105.83 39 105.262 37.4594 102.505 37.4594C100.843 37.4594 99.3222 38.3108 98.714 39.8919L95.5513 38.5337C96.6866 35.5337 99.8696 34.4391 102.911 34.4391C106.945 34.4391 109.865 36.3851 109.865 40.7027V51.831H105.85V49.7432H105.871ZM103.782 44.2094C101.897 44.2094 98.9167 44.4324 98.9167 47.0067C98.9167 48.6486 100.113 49.2567 101.633 49.2567C103.701 49.2567 105.83 48.1824 105.83 45.8716V44.2094H103.782Z" fill="black"/>
<path d="M114.183 34.7838H118.258V37.9865C119.414 35.6554 121.259 34.5405 123.854 34.5405V38.3108C120.569 38.3108 118.258 39.3851 118.258 43.0338V51.8311H114.183V34.7838Z" fill="black"/>
<path d="M127.077 27.0811H131.152V42.2229L137.316 34.804H141.796L135.025 42.6081L142.303 51.8311H137.599L131.132 43.5202V51.8311H127.057V27.0811H127.077Z" fill="black"/>
<path d="M158.948 48.1216C157.529 51.1216 154.467 52.1554 151.345 52.1554C145.973 52.1554 142.587 48.5675 142.587 43.2567C142.587 38.2702 146.033 34.4189 151.163 34.4189C156.677 34.4189 159.353 37.6419 159.353 44.2094H146.743C146.743 47.0878 148.406 49.1959 151.507 49.1959C153.352 49.1959 154.873 48.4459 155.765 46.7229L158.948 48.1216ZM155.278 41.5337C155.157 38.9594 153.596 37.3783 151.183 37.3783C148.629 37.3783 147.128 39.1824 146.784 41.5337H155.278Z" fill="black"/>
<path d="M171.234 51.7094C170.362 51.9729 169.45 52.1148 168.436 52.1148C165.192 52.1148 163.266 50.4324 163.266 47.0473V37.7838H160.975V34.7838H163.266V31.277L167.341 29.5135V34.804H171.092V37.804H167.341V46.7027C167.341 48.0405 167.909 48.8716 169.409 48.8716C169.977 48.8716 170.626 48.75 171.234 48.5473V51.7094Z" fill="black"/>
<path d="M176.789 27.5878C178.107 27.5878 179.161 28.5608 179.161 29.9189C179.161 31.2567 178.147 32.2297 176.809 32.2297C175.492 32.2297 174.376 31.2365 174.376 29.8986C174.376 28.5405 175.471 27.5878 176.789 27.5878ZM174.741 34.8243H178.816V51.8311H174.741V34.8243Z" fill="black"/>
<path d="M183.419 34.7837H187.494V37.5C188.589 35.3919 190.88 34.4391 193.252 34.4391C197.347 34.4391 199.192 37.3175 199.192 41.1891V51.8513H195.056V41.5946C195.056 39.2027 193.981 37.804 191.569 37.804C189.014 37.804 187.494 39.3851 187.494 41.8378V51.8513H183.419V34.7837Z" fill="black"/>
<path d="M206.105 52.581C206.957 54.4662 208.923 55.0337 210.809 55.0337C213.83 55.0337 215.654 53.5946 215.654 50.4932V47.9392C214.499 49.9054 212.208 51.1419 209.937 51.1419C205.112 51.1419 202.314 47.3513 202.314 42.9121C202.314 38.331 205.315 34.4189 210.038 34.4189C212.35 34.4189 214.458 35.3513 215.654 37.3986V34.7837H219.75V50.554C219.75 55.9054 215.735 58.0743 210.809 58.0743C207.646 58.0743 204.26 57.1824 202.882 53.9797L206.105 52.581ZM215.816 42.6892C215.816 39.7702 214.235 37.5608 211.153 37.5608C207.889 37.5608 206.511 40.0337 206.511 42.9932C206.511 45.6486 208.173 48 211.012 48C214.195 48 215.816 45.6486 215.816 42.6892Z" fill="black"/>
<path d="M231.529 28.5405H239.618C244.524 28.5405 248.356 30.5067 248.356 35.8784C248.356 41.777 243.693 43.054 238.706 43.054H236.03V51.8311H231.529V28.5405ZM239.598 39.8108C242.375 39.8108 243.957 38.6554 243.957 35.8581C243.957 32.9392 242.233 31.9865 239.598 31.9865H236.05V39.8311H239.598V39.8108Z" fill="black"/>
<path d="M251.519 27.8919L255.594 26.1284V51.8311H251.519V27.8919Z" fill="black"/>
<path d="M271.59 49.1554C270.516 51.2229 268.326 52.1554 265.974 52.1554C262.061 52.1554 259.993 49.581 259.993 45.7094V34.804H264.068V45.2027C264.068 47.5338 265.143 48.9527 267.515 48.9527C270.07 48.9527 271.61 47.3108 271.61 44.8783V34.7838H275.665V51.8108H271.61V49.1554H271.59Z" fill="black"/>
<path d="M281.93 46.7432C282.558 48.4054 284.302 49.2162 286.147 49.2162C287.465 49.2162 289.107 48.8108 289.107 47.1892C289.107 45.4865 287.262 45.0811 285.153 44.6351C282.416 44.0675 279.355 43.3986 279.355 39.5675C279.355 36.0608 282.619 34.3986 285.701 34.3986C288.397 34.3986 291.499 35.4121 292.614 38.1081L289.593 39.4054C288.924 37.8851 287.262 37.3175 285.863 37.3175C284.505 37.3175 283.207 37.8648 283.207 39.2432C283.207 40.804 284.87 41.1284 286.938 41.5338C289.715 42.0811 293.04 42.7094 293.04 46.6824C293.04 50.6959 289.675 52.1148 286.127 52.1148C283.126 52.1148 279.882 51.1013 278.828 48.0405L281.93 46.7432Z" fill="black"/>
<path d="M66.8433 21.1622L74.3446 10.3379H67.6137V8.20947H77.8723V9.26353L70.5534 20.0879H77.6493V22.2162H66.8433V21.1622Z" fill="black"/>
<path d="M84.2789 11.7568C87.4011 11.7568 89.7934 13.946 89.7934 17.0879C89.7934 20.3108 87.2795 22.4392 84.1775 22.4392C81.0554 22.4392 78.5414 20.2703 78.5414 17.1487C78.5414 13.9054 81.1973 11.7568 84.2789 11.7568ZM87.1578 17.0879C87.1578 15.2027 86.2049 13.6216 84.1775 13.6216C82.1096 13.6216 81.2784 15.2635 81.2784 17.1487C81.2784 18.973 82.2515 20.5135 84.2384 20.5135C86.3063 20.5338 87.1578 18.8919 87.1578 17.0879Z" fill="black"/>
<path d="M91.5978 7.31757H94.0509V13.6013C94.72 12.3243 96.0581 11.7568 97.4772 11.7568C99.9304 11.7568 101.167 13.4797 101.167 15.8108V22.2365H98.6937V16.0541C98.6937 14.5743 97.9233 13.7635 96.5041 13.7635C94.9227 13.7635 94.0509 14.7365 94.0509 16.1959V22.2162H91.5978V7.31757Z" fill="black"/>
<path d="M108.486 11.7568C111.608 11.7568 114 13.946 114 17.0879C114 20.3108 111.486 22.4392 108.385 22.4392C105.262 22.4392 102.748 20.2703 102.748 17.1487C102.748 13.9054 105.404 11.7568 108.486 11.7568ZM111.365 17.0879C111.365 15.2027 110.412 13.6216 108.385 13.6216C106.317 13.6216 105.485 15.2635 105.485 17.1487C105.485 18.973 106.459 20.5135 108.445 20.5135C110.493 20.5338 111.365 18.8919 111.365 17.0879Z" fill="black"/>
<path d="M53.7462 15.8716C53.7462 15.4662 53.5232 15.0811 53.1786 14.8784L28.7079 0.770252C28.3429 0.567549 27.9172 0.567549 27.5523 0.770252L3.10185 14.8784C2.73692 15.0811 2.53418 15.4662 2.53418 15.8716V44.1081C2.53418 44.5135 2.75719 44.8986 3.10185 45.1013L27.5725 59.2297C27.9375 59.4324 28.3632 59.4324 28.7282 59.2297L53.1988 45.1013H53.2191L53.2394 45.0811C53.2597 45.0608 53.2799 45.0608 53.3002 45.0405L53.3205 45.0203C53.3408 45 53.361 44.9797 53.4016 44.9594C53.4219 44.9392 53.4421 44.9189 53.4624 44.8986L53.4827 44.8784C53.5029 44.8581 53.5029 44.8378 53.5232 44.8176L53.5435 44.7973C53.5638 44.777 53.584 44.7567 53.6043 44.7365L53.6246 44.7162C53.6246 44.7162 53.6449 44.6757 53.6449 44.6554C53.6449 44.6351 53.6651 44.6351 53.6651 44.6148C53.6854 44.5946 53.6854 44.5743 53.6854 44.554C53.6854 44.5338 53.6854 44.5338 53.7057 44.5135C53.7057 44.4932 53.726 44.473 53.726 44.4527C53.726 44.4324 53.726 44.4324 53.726 44.4121C53.726 44.3919 53.7462 44.3716 53.7462 44.3311V44.3108C53.7462 44.2703 53.7665 44.25 53.7665 44.2094C53.7665 44.2094 53.7665 44.2094 53.7665 44.1892C53.7665 44.1689 53.7665 44.1284 53.7665 44.1081V44.0878L53.7462 15.8716ZM29.2958 42.6081L45.8799 44.5135C46.0016 44.554 46.1029 44.5743 46.2246 44.5743C46.2449 44.5743 46.2854 44.5743 46.3057 44.5743L49.0021 44.8784L29.2958 56.25V42.6081ZM29.2958 30.6486L45.069 21.527V42.1013L29.2958 40.2973V30.6486ZM26.9846 40.0338L22.869 39.5675V34.3581L26.9846 31.9865V40.0338ZM47.3802 42.3648V20.1892L51.435 17.8378V42.8311L47.3802 42.3648ZM28.1402 3.08106L50.2591 15.8513L37.8717 23.0067L28.7079 17.6959C28.3429 17.4932 27.9172 17.4932 27.5523 17.6959L18.4087 23.0067L6.0213 15.8513L28.1402 3.08106ZM4.82514 17.8175L17.8005 25.3175C17.841 25.3378 17.8613 25.3581 17.9019 25.3784L23.2745 28.4797C23.8016 28.8243 24.5314 28.6824 24.8761 28.1351C25.2208 27.6081 25.0788 26.8784 24.5314 26.5338C24.4909 26.5135 24.4706 26.4932 24.4301 26.473L20.7402 24.3446L28.1605 20.0473L35.601 24.3648L27.7347 28.9054C27.6131 28.9459 27.5117 29.0067 27.4103 29.0878L21.1457 32.6959C20.7808 32.8986 20.578 33.2838 20.578 33.6892V40.6013C20.578 41.1892 21.024 41.6757 21.5917 41.7365L26.9846 42.3446V56.25L4.82514 43.4594V17.8175Z" fill="#E42527"/>
</svg>
