<svg width="200" height="47" viewBox="0 0 200 47" fill="none" xmlns="http://www.w3.org/2000/svg">
<path d="M42.0019 38.476C41.8002 38.476 41.5985 38.4591 41.3969 38.4253L36.9433 37.8003C36.1702 37.682 35.6156 36.9557 35.7332 36.1787C35.8509 35.4016 36.5735 34.8442 37.3466 34.9624L41.8002 35.5874C42.5733 35.7057 43.2959 35.1483 43.4136 34.3712L46.8588 9.69217C46.9092 9.32055 46.8084 8.93203 46.5899 8.62798C46.3546 8.32393 46.0353 8.12122 45.6488 8.07055L23.0615 4.89487C22.2884 4.77663 21.5658 5.33406 21.4481 6.11109L21.028 9.08406C20.9103 9.86109 20.1877 10.4185 19.4146 10.3003C18.6415 10.182 18.0869 9.45568 18.2046 8.67865L18.6247 5.70568C18.9608 3.35771 21.1288 1.7192 23.4648 2.04014L46.0521 5.23271C47.1781 5.38474 48.1865 5.97595 48.8755 6.90501C49.5646 7.81717 49.8503 8.94893 49.699 10.0976L46.2538 34.7766C45.9345 36.9219 44.1026 38.476 42.0019 38.476Z" fill="#089949"/>
<path d="M6.30589 43.155C5.60004 43.155 4.99502 42.6313 4.89419 41.9219L1.04561 14.405C0.877547 13.2732 1.18006 12.1415 1.8523 11.2293C2.54134 10.3172 3.5497 9.72594 4.67571 9.55702L27.263 6.36445C29.599 6.02661 31.767 7.68202 32.1031 10.03L35.3131 32.9523C35.4307 33.7293 34.8761 34.4557 34.103 34.5739C33.33 34.6922 32.6073 34.1347 32.4897 33.3577L29.2797 10.4185C29.1621 9.64148 28.4394 9.08405 27.6663 9.20229L5.07905 12.3949C4.70932 12.4455 4.3732 12.6482 4.13792 12.9523C3.90263 13.2563 3.8186 13.628 3.86902 14.0165L7.7176 41.5334C7.83524 42.3104 7.28064 43.0367 6.50756 43.155C6.44034 43.155 6.37312 43.155 6.30589 43.155Z" fill="#E42527"/>
<path d="M43.7497 15.9421C43.7497 13.5773 41.8338 11.6347 39.4642 11.6347C37.0945 11.6347 35.1786 13.5604 35.1786 15.9421C35.1786 17.4286 35.9181 18.7293 37.0609 19.5063L33.9182 31.7023C33.1283 31.7698 32.4056 32.057 31.7838 32.4962L21.5826 25.6043C21.6666 25.2665 21.717 24.8948 21.717 24.5401C21.717 22.1752 19.8011 20.2327 17.4315 20.2327C15.0618 20.2327 13.1459 22.1584 13.1459 24.5401C13.1459 25.5198 13.4821 26.432 14.0199 27.1584L5.07905 40.9421C4.64209 41.6009 4.84377 42.4962 5.4992 42.9354C5.73449 43.0874 6.00338 43.1719 6.27228 43.1719C6.74285 43.1719 7.19661 42.9354 7.46551 42.5131L16.4063 28.7293C16.7256 28.8138 17.0617 28.8475 17.4147 28.8475C18.3726 28.8475 19.2465 28.5266 19.9692 28.003L30.1368 34.878C30.036 35.2327 29.9856 35.6212 29.9856 36.0097C29.9856 38.3746 31.9015 40.3171 34.2711 40.3171C36.6239 40.3171 38.5566 38.3915 38.5566 36.0097C38.5566 34.5232 37.8004 33.2057 36.6576 32.4455L39.8003 20.2665C42.0187 20.0469 43.7497 18.1888 43.7497 15.9421ZM39.4642 14.5232C40.254 14.5232 40.8927 15.1651 40.8927 15.959C40.8927 16.7529 40.254 17.3948 39.4642 17.3948C38.6743 17.3948 38.0357 16.7529 38.0357 15.959C38.0357 15.1651 38.6743 14.5232 39.4642 14.5232ZM16.0198 24.5401C16.0198 23.7462 16.6584 23.1043 17.4483 23.1043C18.2382 23.1043 18.8768 23.7462 18.8768 24.5401C18.8768 24.8104 18.8096 25.0638 18.6751 25.2665C18.6583 25.2834 18.6415 25.3171 18.6247 25.334C18.6079 25.3509 18.5911 25.3847 18.5743 25.4016C18.3054 25.7394 17.902 25.9759 17.4483 25.9759C16.6584 25.959 16.0198 25.334 16.0198 24.5401ZM34.3047 37.4117C33.5148 37.4117 32.8762 36.7698 32.8762 35.9759C32.8762 35.182 33.5148 34.5401 34.3047 34.5401C35.0946 34.5401 35.7332 35.182 35.7332 35.9759C35.7332 36.7698 35.0946 37.4117 34.3047 37.4117Z" fill="#226DB4"/>
<path d="M59.7553 19.6858H66.4609C70.5279 19.6858 73.7043 21.3243 73.7043 25.8007C73.7043 30.7162 69.8389 31.7804 65.7046 31.7804H63.4862V39.0946H59.7385V19.6858H59.7553ZM66.4441 29.0777C68.7465 29.0777 70.0574 28.1148 70.0574 25.7838C70.0574 23.3513 68.6289 22.5574 66.4441 22.5574H63.503V29.0946H66.4441V29.0777Z" fill="black"/>
<path d="M83.603 37.3547C82.5274 38.7905 80.9645 39.3479 79.2167 39.3479C76.5613 39.3479 74.4774 37.9966 74.4774 35.2094C74.4774 31.2736 78.6116 30.6486 81.9056 30.6486H83.5694V30.429C83.5694 28.402 83.0988 27.1182 80.8132 27.1182C79.4351 27.1182 78.1747 27.8277 77.6705 29.1452L75.0488 28.0135C75.9899 25.5135 78.6284 24.6013 81.1493 24.6013C84.4937 24.6013 86.9138 26.2229 86.9138 29.8209V39.0946H83.5862V37.3547H83.603ZM81.872 32.7432C80.309 32.7432 77.8386 32.929 77.8386 35.0743C77.8386 36.4425 78.8301 36.9493 80.0906 36.9493C81.8048 36.9493 83.5694 36.054 83.5694 34.1283V32.7432H81.872Z" fill="black"/>
<path d="M92.6615 39.7196C93.3673 41.2906 94.9975 41.7635 96.5605 41.7635C99.0646 41.7635 100.577 40.5642 100.577 37.9797V35.8514C99.6192 37.4899 97.7201 38.5203 95.8378 38.5203C91.838 38.5203 89.5188 35.3615 89.5188 31.6622C89.5188 27.8446 92.006 24.5845 95.9218 24.5845C97.8377 24.5845 99.5856 25.3615 100.577 27.0676V24.8885H103.972V38.0304C103.972 42.4899 100.644 44.2973 96.5605 44.2973C93.9387 44.2973 91.1321 43.5541 89.9893 40.8851L92.6615 39.7196ZM100.712 31.4764C100.712 29.0439 99.4007 27.2027 96.8462 27.2027C94.1404 27.2027 92.9976 29.2635 92.9976 31.7297C92.9976 33.9426 94.3757 35.902 96.7285 35.902C99.3671 35.902 100.712 33.9426 100.712 31.4764Z" fill="black"/>
<path d="M120.291 36.0034C119.114 38.5034 116.576 39.3649 113.988 39.3649C109.535 39.3649 106.728 36.375 106.728 31.9493C106.728 27.7939 109.585 24.5845 113.837 24.5845C118.408 24.5845 120.627 27.2703 120.627 32.7433H110.173C110.173 35.1419 111.551 36.8987 114.123 36.8987C115.652 36.8987 116.913 36.2737 117.652 34.8379L120.291 36.0034ZM117.265 30.5135C117.165 28.3683 115.871 27.0507 113.871 27.0507C111.753 27.0507 110.509 28.5541 110.224 30.5135H117.265Z" fill="black"/>
<path d="M124.963 33.25C125.753 35.4628 127.702 36.6115 130.055 36.6115C131.836 36.6115 133.702 35.6655 133.702 33.6385C133.702 31.4932 131.584 31.1047 129.248 30.6824C126.257 30.1419 122.963 29.5 122.963 25.0405C122.963 21.3074 126.29 19.4155 129.618 19.4155C132.71 19.4155 135.433 20.6824 136.626 23.7061L133.887 24.9561C133.063 23.25 131.534 22.2196 129.567 22.2196C128.005 22.2196 126.425 22.8784 126.425 24.7703C126.425 26.8649 128.374 27.2365 130.727 27.6588C133.752 28.1993 137.248 28.8074 137.248 33.3513C137.248 37.2871 133.601 39.3648 130.038 39.3648C126.576 39.3648 123.08 38.1149 122.038 34.5169L124.963 33.25Z" fill="black"/>
<path d="M152.743 36.0034C151.567 38.5034 149.029 39.3649 146.441 39.3649C141.987 39.3649 139.181 36.375 139.181 31.9493C139.181 27.7939 142.038 24.5845 146.289 24.5845C150.861 24.5845 153.079 27.2703 153.079 32.7433H142.626C142.626 35.1419 144.004 36.8987 146.575 36.8987C148.105 36.8987 149.365 36.2737 150.104 34.8379L152.743 36.0034ZM149.701 30.5135C149.6 28.3683 148.306 27.0507 146.306 27.0507C144.189 27.0507 142.945 28.5541 142.659 30.5135H149.701Z" fill="black"/>
<path d="M155.785 24.8885H159.163V27.152C160.07 25.3952 161.969 24.6013 163.936 24.6013C167.331 24.6013 168.86 27 168.86 30.2263V39.1115H165.432V30.5642C165.432 28.5709 164.541 27.4054 162.541 27.4054C160.423 27.4054 159.163 28.7229 159.163 30.7669V39.1115H155.785V24.8885Z" fill="black"/>
<path d="M173.902 34.8547C174.423 36.2399 175.868 36.9155 177.397 36.9155C178.49 36.9155 179.851 36.5777 179.851 35.2264C179.851 33.8074 178.322 33.4696 176.574 33.098C174.305 32.625 171.767 32.0676 171.767 28.875C171.767 25.9527 174.473 24.5676 177.028 24.5676C179.263 24.5676 181.834 25.4122 182.759 27.6588L180.254 28.7399C179.7 27.473 178.322 27 177.162 27C176.036 27 174.961 27.4561 174.961 28.6047C174.961 29.9054 176.339 30.1757 178.053 30.5135C180.355 30.9696 183.111 31.4932 183.111 34.8041C183.111 38.1486 180.322 39.3311 177.381 39.3311C174.893 39.3311 172.204 38.4865 171.33 35.9358L173.902 34.8547Z" fill="black"/>
<path d="M198.388 36.0034C197.212 38.5034 194.674 39.3649 192.086 39.3649C187.632 39.3649 184.826 36.375 184.826 31.9493C184.826 27.7939 187.683 24.5845 191.935 24.5845C196.506 24.5845 198.724 27.2703 198.724 32.7433H188.254C188.254 35.1419 189.632 36.8987 192.204 36.8987C193.733 36.8987 194.993 36.2737 195.733 34.8379L198.388 36.0034ZM195.346 30.5135C195.245 28.3683 193.951 27.0507 191.951 27.0507C189.834 27.0507 188.59 28.5541 188.305 30.5135H195.346Z" fill="black"/>
<path d="M59.7721 13.5371L65.9903 4.51687H60.4107V2.74323H68.9146V3.6216L62.8476 12.6419H68.7297V14.4155H59.7721V13.5371Z" fill="black"/>
<path d="M74.2421 5.69934C76.8302 5.69934 78.8133 7.52367 78.8133 10.1419C78.8133 12.8277 76.7294 14.6014 74.1581 14.6014C71.5699 14.6014 69.486 12.7939 69.486 10.1926C69.486 7.48988 71.6708 5.69934 74.2421 5.69934ZM76.6117 10.1419C76.6117 8.57096 75.8218 7.25339 74.1412 7.25339C72.427 7.25339 71.738 8.62164 71.738 10.1926C71.738 11.7129 72.5447 12.9966 74.1917 12.9966C75.9059 13.0135 76.6117 11.6453 76.6117 10.1419Z" fill="black"/>
<path d="M80.2923 2H82.3258V7.23649C82.8804 6.1723 83.9896 5.69932 85.166 5.69932C87.1995 5.69932 88.2247 7.13514 88.2247 9.0777V14.4324H86.1744V9.28041C86.1744 8.0473 85.5357 7.37162 84.3593 7.37162C83.0484 7.37162 82.3258 8.18243 82.3258 9.39865V14.4155H80.2923V2Z" fill="black"/>
<path d="M94.2917 5.69934C96.8798 5.69934 98.8629 7.52367 98.8629 10.1419C98.8629 12.8277 96.779 14.6014 94.2076 14.6014C91.6195 14.6014 89.5356 12.7939 89.5356 10.1926C89.5356 7.48988 91.7371 5.69934 94.2917 5.69934ZM96.6781 10.1419C96.6781 8.57096 95.8882 7.25339 94.2076 7.25339C92.4934 7.25339 91.8044 8.62164 91.8044 10.1926C91.8044 11.7129 92.6111 12.9966 94.2581 12.9966C95.9723 13.0135 96.6781 11.6453 96.6781 10.1419Z" fill="black"/>
</svg>
