<svg width="268" height="60" viewBox="0 0 268 60" fill="none" xmlns="http://www.w3.org/2000/svg">
<path d="M68.8882 28.5406H76.9891C81.9025 28.5406 85.7397 30.5068 85.7397 35.8784C85.7397 41.777 81.07 43.0541 76.0755 43.0541H73.3955V51.8311H68.8679L68.8882 28.5406ZM76.9688 39.7906C79.7503 39.7906 81.334 38.6554 81.334 35.8379C81.334 33.0203 79.6082 31.9662 76.9688 31.9662H73.4158V39.8108L76.9688 39.7906Z" fill="black"/>
<path d="M88.7852 34.7838H92.8661V37.9865C94.003 35.6554 95.8709 34.5406 98.4697 34.5406V38.3108C95.1806 38.3108 92.8661 39.3852 92.8661 43.0338V51.8311H88.7852V34.7838Z" fill="black"/>
<path d="M109.169 34.4189C114.347 34.4189 118.326 38.0473 118.326 43.2568C118.326 48.4662 114.144 52.1351 108.987 52.1351C103.83 52.1351 99.627 48.5473 99.627 43.3378C99.627 38.1284 104.053 34.4189 109.169 34.4189ZM113.961 43.2973C113.961 40.1554 112.377 37.5608 109.027 37.5608C105.677 37.5608 104.215 40.2973 104.215 43.4189C104.215 46.5405 105.819 49.0135 109.129 49.0135C112.438 49.0135 113.961 46.277 113.961 43.2973Z" fill="black"/>
<path d="M119.016 54.8514C120.539 54.7703 121.412 54.0811 121.412 52.4797V34.8243H125.493V52.3784C125.493 56.6352 122.894 57.9527 119.016 57.9527V54.8514ZM123.442 27.5879C124.762 27.5879 125.818 28.5608 125.818 29.8987C125.818 31.2365 124.782 32.2298 123.442 32.2298C122.102 32.2298 121.026 31.2365 121.026 29.8987C121.026 28.5608 122.123 27.5879 123.442 27.5879Z" fill="black"/>
<path d="M145.37 48.1216C143.949 51.1216 140.903 52.1351 137.756 52.1351C132.376 52.1351 128.985 48.5473 128.985 43.2365C128.985 38.25 132.437 34.3987 137.573 34.3987C143.096 34.3987 145.776 37.6216 145.776 44.1892H133.147C133.147 47.0676 134.812 49.1757 137.919 49.1757C139.766 49.1757 141.289 48.4257 142.182 46.7027L145.37 48.1216ZM141.715 41.5338C141.593 38.9595 140.03 37.3784 137.614 37.3784C135.056 37.3784 133.553 39.1824 133.208 41.5338H141.715Z" fill="black"/>
<path d="M164.455 47.0068C163.318 50.5743 160.13 52.1554 156.577 52.1554C151.156 52.1554 147.928 48.527 147.928 43.2568C147.928 37.9865 151.542 34.4189 156.679 34.4189C160.13 34.4189 163.115 35.8581 164.373 39.2027L161.084 40.6419C160.394 38.7365 158.75 37.6419 156.679 37.6419C153.349 37.6419 152.131 40.5203 152.131 43.4392C152.131 46.3581 153.45 49.0338 156.76 49.0338C159.095 49.0338 160.678 47.7365 161.389 45.6081L164.455 47.0068Z" fill="black"/>
<path d="M176.312 51.7095C175.439 51.973 174.525 52.1149 173.51 52.1149C170.261 52.1149 168.332 50.4324 168.332 47.0473V37.7838H166.038V34.7838H168.332V31.277L172.413 29.5135V34.8041H176.169V37.8041H172.413V46.7027C172.413 48.0405 172.982 48.8716 174.484 48.8716C175.053 48.8716 175.702 48.75 176.312 48.5473V51.7095Z" fill="black"/>
<path d="M181.509 46.7432C182.138 48.4054 183.885 49.2162 185.732 49.2162C187.052 49.2162 188.696 48.8108 188.696 47.1892C188.696 45.4865 186.849 45.0811 184.737 44.6351C181.996 44.0676 178.931 43.3987 178.931 39.5676C178.931 36.0608 182.199 34.3987 185.285 34.3987C187.986 34.3987 191.092 35.4122 192.209 38.1081L189.184 39.4054C188.514 37.8851 186.849 37.3176 185.448 37.3176C184.047 37.3176 182.788 37.8649 182.788 39.2432C182.788 40.8041 184.453 41.1284 186.524 41.5338C189.305 42.0811 192.635 42.7095 192.635 46.6824C192.635 50.6554 189.265 52.1149 185.712 52.1149C182.707 52.1149 179.458 51.1014 178.403 48.0405L181.509 46.7432Z" fill="black"/>
<path d="M203.172 28.5406H211.273C216.187 28.5406 220.024 30.5068 220.024 35.8784C220.024 41.777 215.354 43.0541 210.36 43.0541H207.7V51.8311H203.172V28.5406ZM211.253 39.7906C214.035 39.7906 215.618 38.6554 215.618 35.8379C215.618 33.0203 213.892 31.9662 211.253 31.9662H207.7V39.8108L211.253 39.7906Z" fill="black"/>
<path d="M223.191 27.8919L227.272 26.1284V51.8311H223.191V27.8919Z" fill="black"/>
<path d="M243.291 49.1554C242.215 51.223 240.022 52.1554 237.667 52.1554C233.749 52.1554 231.678 49.5811 231.678 45.7095V34.8041H235.759V45.2027C235.759 47.5338 236.835 48.9527 239.19 48.9527C241.748 48.9527 243.291 47.3108 243.291 44.8784V34.7838H247.352V51.8311H243.291V49.1554Z" fill="black"/>
<path d="M253.626 46.7432C254.255 48.4054 256.001 49.2162 257.849 49.2162C259.168 49.2162 260.813 48.8108 260.813 47.1892C260.813 45.4865 258.965 45.0811 256.854 44.6351C254.113 44.0676 251.047 43.3987 251.047 39.5676C251.047 36.0608 254.316 34.3987 257.402 34.3987C260.102 34.3987 263.209 35.4122 264.325 38.1081L261.3 39.4054C260.63 37.8851 258.965 37.3176 257.564 37.3176C256.163 37.3176 254.905 37.8649 254.905 39.2432C254.905 40.8041 256.569 41.1284 258.64 41.5338C261.422 42.0811 264.752 42.7095 264.752 46.6824C264.752 50.6554 261.381 52.1149 257.828 52.1149C254.823 52.1149 251.575 51.1014 250.519 48.0405L253.626 46.7432Z" fill="black"/>
<path d="M68.9086 21.1622L76.4207 10.3379H69.6801V8.20947H79.9534V9.26353L72.624 20.0879H79.7301V22.2162H68.9086V21.1622Z" fill="black"/>
<path d="M86.3894 11.7567C89.5161 11.7567 91.9119 13.9459 91.9119 17.0878C91.9119 20.2297 89.3943 22.4392 86.2879 22.4392C83.1816 22.4392 80.6437 20.2703 80.6437 17.1486C80.6437 14.027 83.2831 11.7567 86.3894 11.7567ZM89.2725 17.0878C89.2725 15.2027 88.3182 13.6216 86.3082 13.6216C84.2982 13.6216 83.4049 15.2635 83.4049 17.1486C83.4049 19.0338 84.3794 20.5135 86.3691 20.5135C88.3588 20.5135 89.2725 18.8919 89.2725 17.0878Z" fill="black"/>
<path d="M93.6986 7.31757H96.1553V13.6013C96.8253 12.3243 98.1653 11.7568 99.5865 11.7568C102.043 11.7568 103.261 13.4797 103.261 15.8108V22.2365H100.784V16.0541C100.784 14.5743 100.013 13.7838 98.5916 13.7838C97.008 13.7838 96.1553 14.7568 96.1553 16.2162V22.2365H93.6986V7.31757Z" fill="black"/>
<path d="M110.611 11.7567C113.738 11.7567 116.133 13.9459 116.133 17.0878C116.133 20.2297 113.616 22.4392 110.509 22.4392C107.403 22.4392 104.865 20.2703 104.865 17.1486C104.865 14.027 107.525 11.7567 110.611 11.7567ZM113.494 17.0878C113.494 15.2027 112.54 13.6216 110.509 13.6216C108.479 13.6216 107.606 15.2635 107.606 17.1486C107.606 19.0338 108.581 20.5135 110.57 20.5135C112.56 20.5135 113.494 18.8919 113.494 17.0878Z" fill="black"/>
<path d="M55.7928 15.8716C55.7928 15.8514 55.7928 15.8514 55.7928 15.8311C55.7928 15.8108 55.7928 15.7906 55.7928 15.7703C55.7928 15.75 55.7928 15.75 55.7928 15.7297C55.7928 15.7095 55.7928 15.6689 55.7725 15.6487C55.7725 15.6284 55.7725 15.6284 55.7725 15.6081C55.7725 15.5878 55.7522 15.5676 55.7522 15.527V15.5068C55.7319 15.4662 55.7319 15.446 55.7116 15.4257C55.7116 15.4257 55.7116 15.4054 55.6913 15.4054C55.671 15.3446 55.6304 15.2838 55.5897 15.223C55.5897 15.223 55.5898 15.2027 55.5695 15.2027C55.5491 15.1824 55.5288 15.1419 55.5085 15.1216L55.4882 15.1014C55.4679 15.0811 55.4476 15.0608 55.4273 15.0406L55.407 15.0203C55.3867 15 55.3664 14.9797 55.3461 14.9595L55.3258 14.9392C55.3055 14.9189 55.2852 14.9189 55.2649 14.8987L55.2446 14.8784C55.2446 14.8784 55.2446 14.8784 55.2243 14.8784L30.7185 0.770283C30.3531 0.56758 29.9267 0.56758 29.5613 0.770283L5.07581 14.8784C4.71035 15.0811 4.50732 15.4662 4.50732 15.8716V44.1081C4.50732 44.5135 4.73066 44.8987 5.07581 45.1014L29.5816 59.2297C29.5816 59.2297 29.5816 59.2297 29.6019 59.2297C29.6222 59.2297 29.6222 59.25 29.6425 59.25C29.6628 59.2703 29.6831 59.2703 29.7034 59.2703C29.7034 59.2703 29.7237 59.2703 29.7237 59.2906C29.744 59.3108 29.7846 59.3108 29.8049 59.3311C29.8252 59.3311 29.8252 59.3311 29.8455 59.3514C29.8658 59.3514 29.8861 59.3716 29.9064 59.3716H29.9267C29.9673 59.3716 29.9876 59.3919 30.0282 59.3919H30.0485C30.0891 59.3919 30.1094 59.3919 30.1501 59.3919C30.1907 59.3919 30.211 59.3919 30.2516 59.3919H30.2719C30.3125 59.3919 30.3328 59.3919 30.3734 59.3716H30.3937C30.414 59.3716 30.4343 59.3514 30.4546 59.3514C30.4749 59.3514 30.4749 59.3514 30.4952 59.3311C30.5155 59.3311 30.5561 59.3108 30.5764 59.2906C30.5764 59.2906 30.5967 59.2906 30.5967 59.2703C30.617 59.2703 30.6373 59.25 30.6576 59.25C30.6779 59.25 30.6779 59.2297 30.6982 59.2297C30.6982 59.2297 30.6982 59.2297 30.7185 59.2297L55.2243 45.1216C55.5897 44.9189 55.7928 44.5338 55.7928 44.1284V15.8716ZM31.3073 30.6689L38.7788 26.3716V34.9865L31.3073 39.2838V30.6689ZM30.1501 28.6824L15.1055 20.0068L24.0997 14.8176L29.5816 17.9797C29.7643 18.0811 29.9673 18.1419 30.1501 18.1419C30.3531 18.1419 30.5561 18.0811 30.7185 17.9797L43.0628 10.8649C43.144 10.8041 43.2252 10.7433 43.3064 10.6824L52.3413 15.8919L30.1501 28.6824ZM6.80157 16.5406L30.1501 3.08109L41.0528 9.36488L30.1501 15.6487L24.6682 12.4865C24.6682 12.4865 24.6479 12.4865 24.6479 12.4662C24.6276 12.446 24.6073 12.446 24.587 12.4257C24.5667 12.4257 24.5464 12.4054 24.5464 12.4054C24.5261 12.4054 24.5058 12.3851 24.4855 12.3851C24.4652 12.3851 24.4449 12.3649 24.4246 12.3649C24.4043 12.3649 24.4043 12.3649 24.384 12.3446C24.3637 12.3446 24.3434 12.3446 24.3231 12.3243C24.3028 12.3243 24.3028 12.3243 24.2825 12.3243C24.2622 12.3243 24.2419 12.3243 24.2216 12.3243C24.2013 12.3243 24.181 12.3243 24.181 12.3243C24.1607 12.3243 24.1404 12.3243 24.1201 12.3243C24.0998 12.3243 24.0794 12.3243 24.0591 12.3243C24.0388 12.3243 24.0185 12.3243 24.0185 12.3243C23.9982 12.3243 23.9779 12.3243 23.9576 12.3243C23.9373 12.3243 23.9373 12.3243 23.917 12.3243C23.8967 12.3243 23.8764 12.3243 23.8561 12.3446C23.8358 12.3446 23.8358 12.3446 23.8155 12.3649C23.7952 12.3649 23.7749 12.3851 23.7546 12.3851C23.7343 12.3851 23.714 12.4054 23.714 12.4054C23.6937 12.4054 23.6734 12.4257 23.6531 12.4257C23.6328 12.4257 23.6125 12.446 23.5922 12.4662C23.5922 12.4662 23.5719 12.4662 23.5719 12.4865L12.8113 18.6689L10.4967 17.3311C9.94854 17.027 9.23793 17.2095 8.93338 17.777C8.60854 18.3243 8.81157 19.0338 9.35975 19.3379L12.2428 21L28.9928 30.6487V56.25L6.80157 43.4595V16.5406ZM31.3073 56.25V41.9392L40.5046 36.6487C40.8701 36.446 41.0731 36.0608 41.0731 35.6554V25.0541L53.5188 17.8784V43.4797L31.3073 56.25Z" fill="#E42527"/>
<path d="M45.6209 14.5743C45.296 14.027 44.6057 13.8446 44.0575 14.1487L30.1499 22.1554L23.3687 18.2433C22.8206 17.9189 22.1099 18.1216 21.8054 18.6689C21.5009 19.2162 21.6836 19.9257 22.2318 20.2298L29.6018 24.4662C29.7845 24.5676 29.9875 24.6284 30.1703 24.6284C30.353 24.6284 30.5763 24.5676 30.7387 24.4662L45.2148 16.1149C45.7427 15.8311 45.9457 15.1216 45.6209 14.5743Z" fill="#E42527"/>
</svg>
