<svg width="164" height="50" viewBox="0 0 164 50" fill="none" xmlns="http://www.w3.org/2000/svg">
<path d="M60.3259 23.7821H67.0636C71.141 23.7821 74.3311 25.4257 74.3311 29.8936C74.3311 34.8125 70.4527 35.8716 66.3079 35.8716H64.0844V43.1892H60.3242V23.7821H60.3259ZM67.0383 33.1672C69.3545 33.1672 70.6653 32.2128 70.6653 29.8666C70.6653 27.5203 69.2364 26.6318 67.0383 26.6318H64.0861V33.1672H67.0383Z" fill="black"/>
<path d="M76.8328 28.9916H80.2219V31.6554C81.1751 29.7061 82.7237 28.7787 84.8813 28.7787V31.9206C82.1417 31.9206 80.2219 32.8226 80.2219 35.8581V43.1892H76.8328V28.9916Z" fill="black"/>
<path d="M93.6198 28.6875C97.9216 28.6875 101.231 31.7095 101.231 36.0574C101.231 40.4054 97.7495 43.4544 93.4731 43.4544C89.1966 43.4544 85.6894 40.4578 85.6894 36.1233C85.6894 31.7889 89.3569 28.6875 93.6198 28.6875ZM97.5909 36.0845C97.5909 33.473 96.2667 31.299 93.4865 31.299C90.7064 31.299 89.4884 33.5794 89.4884 36.1774C89.4884 38.7753 90.8262 40.8429 93.5658 40.8429C96.3055 40.8429 97.5909 38.5625 97.5909 36.0845Z" fill="black"/>
<path d="M101.641 45.7078C102.912 45.6419 103.64 45.0591 103.64 43.7331V29.0186H107.03V43.6537C107.03 47.2061 104.872 48.2922 101.641 48.2922V45.7078ZM105.309 22.9865C106.407 22.9865 107.281 23.7956 107.281 24.9088C107.281 26.022 106.421 26.8446 105.309 26.8446C104.197 26.8446 103.296 26.022 103.296 24.9088C103.296 23.7956 104.211 22.9865 105.309 22.9865Z" fill="black"/>
<path d="M123.378 40.0997C122.2 42.6047 119.658 43.4544 117.05 43.4544C112.575 43.4544 109.756 40.4578 109.756 36.0439C109.756 31.8818 112.629 28.6875 116.892 28.6875C121.472 28.6875 123.71 31.3649 123.71 36.8395H113.212C113.212 39.2399 114.602 40.9882 117.183 40.9882C118.718 40.9882 119.99 40.3649 120.731 38.9206L123.38 40.0997H123.378ZM120.333 34.6115C120.227 32.4645 118.929 31.152 116.93 31.152C114.8 31.152 113.555 32.6503 113.263 34.6115H120.333Z" fill="black"/>
<path d="M139.065 39.1723C138.125 42.1419 135.477 43.4544 132.511 43.4544C128.01 43.4544 125.323 40.4324 125.323 36.0439C125.323 31.6554 128.327 28.6875 132.59 28.6875C135.463 28.6875 137.938 29.8936 138.984 32.6774L136.243 33.8834C135.674 32.2922 134.296 31.3784 132.589 31.3784C129.822 31.3784 128.803 33.7787 128.803 36.2162C128.803 38.6537 129.901 40.8818 132.643 40.8818C134.589 40.8818 135.9 39.8074 136.482 38.0321L139.063 39.1723H139.065Z" fill="black"/>
<path d="M148.768 43.0828C148.04 43.2956 147.286 43.4274 146.439 43.4274C143.738 43.4274 142.137 42.0219 142.137 39.1993V31.4848H140.231V28.9932H142.137V26.0642L145.526 24.5929V28.9932H148.65V31.4848H145.526V38.8953C145.526 40.0084 146.003 40.6976 147.247 40.6976C147.724 40.6976 148.252 40.5912 148.768 40.4189V43.0828Z" fill="black"/>
<path d="M152.925 38.9612C153.455 40.3531 154.897 41.0152 156.434 41.0152C157.532 41.0152 158.897 40.6706 158.897 39.3311C158.897 37.9122 157.362 37.5811 155.614 37.2095C153.337 36.7331 150.783 36.1757 150.783 32.9933C150.783 30.0777 153.497 28.6858 156.065 28.6858C158.315 28.6858 160.884 29.5338 161.81 31.7753L159.295 32.8615C158.738 31.6014 157.348 31.125 156.184 31.125C155.02 31.125 153.973 31.576 153.973 32.7281C153.973 34.027 155.363 34.3058 157.07 34.6368C159.386 35.0878 162.141 35.6183 162.141 38.9324C162.141 42.2466 159.347 43.4527 156.395 43.4527C153.893 43.4527 151.206 42.6047 150.319 40.0591L152.927 38.9595L152.925 38.9612Z" fill="black"/>
<path d="M60.3309 17.6402L66.5676 8.61656H60.9619V6.83615H69.503V7.72298L63.4181 16.7466H69.3275V18.527H60.3326V17.6402H60.3309Z" fill="black"/>
<path d="M74.8287 9.79053C77.4199 9.79053 79.4139 11.6115 79.4139 14.2297C79.4139 16.848 77.317 18.6858 74.741 18.6858C72.165 18.6858 70.0512 16.8817 70.0512 14.2703C70.0512 11.6588 72.2595 9.79053 74.8287 9.79053ZM77.2208 14.2466C77.2208 12.674 76.4229 11.3649 74.7494 11.3649C73.076 11.3649 72.3404 12.7382 72.3404 14.3024C72.3404 15.8665 73.1451 17.1132 74.7967 17.1132C76.4482 17.1132 77.2208 15.7399 77.2208 14.2466Z" fill="black"/>
<path d="M80.809 6.10135H82.8502V11.3311C83.4002 10.2686 84.5254 9.79054 85.7046 9.79054C87.7458 9.79054 88.7664 11.228 88.7664 13.1757V18.5253H86.7083V13.375C86.7083 12.1453 86.0706 11.4747 84.8813 11.4747C83.5739 11.4747 82.8485 12.2821 82.8485 13.5034V18.5253H80.8073V6.10135H80.809Z" fill="black"/>
<path d="M94.7737 9.79053C97.3649 9.79053 99.3589 11.6115 99.3589 14.2297C99.3589 16.848 97.262 18.6858 94.686 18.6858C92.11 18.6858 89.9962 16.8817 89.9962 14.2703C89.9962 11.6588 92.2045 9.79053 94.7737 9.79053ZM97.1658 14.2466C97.1658 12.674 96.3679 11.3649 94.6944 11.3649C93.021 11.3649 92.2854 12.7382 92.2854 14.3024C92.2854 15.8665 93.0901 17.1132 94.7416 17.1132C96.3932 17.1132 97.1658 15.7399 97.1658 14.2466Z" fill="black"/>
<path d="M19.8421 44.897C19.476 44.897 19.1083 44.7568 18.8282 44.4764L9.66462 35.3007C9.10455 34.7399 9.10455 33.8311 9.66462 33.2703C10.2247 32.7095 11.1323 32.7095 11.6924 33.2703L20.8559 42.446C21.416 43.0068 21.416 43.9155 20.8559 44.4764C20.5759 44.7568 20.2098 44.897 19.8421 44.897Z" fill="#FFAE00"/>
<path d="M19.8539 28.2314C19.4878 28.2314 19.1218 28.0912 18.8417 27.8125L9.66631 18.647C9.10624 18.0878 9.10455 17.1791 9.66463 16.6166C10.223 16.0557 11.1323 16.0541 11.6924 16.6149L20.8678 25.7804C21.4278 26.3395 21.4295 27.2483 20.8694 27.8108C20.5894 28.0912 20.2217 28.2331 19.8539 28.2331V28.2314Z" fill="#FFAE00"/>
<path d="M19.8421 36.5693C19.476 36.5693 19.1083 36.4291 18.8282 36.1487L9.68318 26.9916C9.12311 26.4308 9.12311 25.522 9.68318 24.9612C10.2433 24.4004 11.1508 24.4004 11.7109 24.9612L20.856 34.1183C21.416 34.6791 21.416 35.5879 20.856 36.1487C20.5759 36.4291 20.2098 36.5693 19.8421 36.5693Z" fill="#FFAE00"/>
<path d="M30.5256 34.1994C30.1596 34.1994 29.7918 34.0591 29.5118 33.7787C28.9517 33.2179 28.9517 32.3091 29.5118 31.7483L47.402 13.8345C47.9621 13.2737 48.8697 13.2737 49.4298 13.8345C49.9898 14.3953 49.9898 15.3041 49.4298 15.8649L31.5395 33.7787C31.2595 34.0591 30.8934 34.1994 30.5256 34.1994Z" fill="#006EB9"/>
<path d="M30.5273 25.8699C30.1612 25.8699 29.7935 25.7297 29.5135 25.4493C28.9534 24.8885 28.9534 23.9797 29.5135 23.4189L42.2315 10.6841L40.1008 8.55069L31.5429 17.1199C30.9828 17.6808 30.0752 17.6808 29.5151 17.1199C28.9551 16.5591 28.9551 15.6504 29.5151 15.0895L39.0853 5.50677C39.6234 4.96792 40.5749 4.96792 41.113 5.50677L45.2714 9.67062C45.8315 10.2314 45.8315 11.1402 45.2714 11.701L31.5395 25.451C31.2595 25.7314 30.8934 25.8716 30.5256 25.8716L30.5273 25.8699Z" fill="#006EB9"/>
<path d="M19.8539 28.2314C19.4878 28.2314 19.1201 28.0912 18.84 27.8108C18.28 27.25 18.28 26.3412 18.84 25.7804L29.5152 15.0912C30.0752 14.5304 30.9828 14.5304 31.5429 15.0912C32.103 15.652 32.103 16.5608 31.5429 17.1216L20.8678 27.8108C20.5877 28.0912 20.2217 28.2314 19.8539 28.2314Z" fill="#009C3E"/>
<path d="M19.8421 36.5693C19.476 36.5693 19.1083 36.4291 18.8282 36.1487C18.2682 35.5878 18.2682 34.6791 18.8282 34.1183L29.5135 23.4189C30.0735 22.8581 30.9811 22.8581 31.5412 23.4189C32.1013 23.9797 32.1013 24.8885 31.5412 25.4493L20.856 36.1487C20.5759 36.4291 20.2099 36.5693 19.8421 36.5693Z" fill="#009C3E"/>
<path d="M19.8421 44.897C19.476 44.897 19.1083 44.7568 18.8282 44.4764C18.2682 43.9156 18.2682 43.0068 18.8282 42.446L29.5118 31.7483C30.0718 31.1875 30.9794 31.1875 31.5395 31.7483C32.0996 32.3091 32.0996 33.2179 31.5395 33.7787L20.856 44.4764C20.5759 44.7568 20.2099 44.897 19.8421 44.897Z" fill="#009C3E"/>
<path d="M10.6785 35.7213C10.3124 35.7213 9.94466 35.5811 9.66463 35.3007L1.34789 26.973C1.07966 26.7044 0.927834 26.3379 0.927834 25.9578C0.927834 25.5777 1.07966 25.2112 1.34789 24.9426L9.66463 16.6149C10.2247 16.0541 11.1323 16.0541 11.6924 16.6149C12.2524 17.1757 12.2524 18.0845 11.6924 18.6453L4.38949 25.9578L11.6924 33.2703C12.2524 33.8311 12.2524 34.7399 11.6924 35.3007C11.4123 35.5811 11.0463 35.7213 10.6785 35.7213Z" fill="#F70011"/>
</svg>
