<svg width="148" height="50" viewBox="0 0 148 50" fill="none" xmlns="http://www.w3.org/2000/svg">
<path d="M46.1351 47.8041C45.545 47.8041 44.9716 47.6183 44.4826 47.2298L34.9049 39.848C34.7531 39.7298 34.5508 39.6622 34.3484 39.6622H9.29111C5.53083 39.6622 2.47876 36.6048 2.47876 32.8379V9.0034C2.47876 5.23651 5.53083 2.17908 9.29111 2.17908H42.0713C43.8925 2.17908 45.5955 2.88854 46.8771 4.17232C48.1586 5.4561 48.8668 7.17908 48.8668 8.98651V23.9527C48.8668 25.1014 48.2766 26.1318 47.2818 26.7061C46.2869 27.2804 45.1065 27.2804 44.1117 26.7061L22.7641 14.3581C22.1401 14.0034 21.6006 14.2399 21.3982 14.3581C21.1959 14.4764 20.7237 14.8311 20.7237 15.5406V25.9629C20.7237 26.6723 21.1959 27.0271 21.3982 27.1453C21.6006 27.2635 22.1401 27.5 22.7641 27.1453L30.9085 22.4325C31.5661 22.0608 32.3924 22.2804 32.7634 22.9223C33.1343 23.5811 32.9151 24.4088 32.2744 24.7804L24.1299 29.4933C22.8484 30.2365 21.3308 30.2365 20.0492 29.4933C18.7677 28.75 18.0089 27.4325 18.0089 25.946V15.5237C18.0089 14.0372 18.7677 12.7196 20.0492 11.9764C21.3308 11.2331 22.8484 11.2331 24.1299 11.9764L45.4775 24.3243C45.6799 24.4426 45.8485 24.375 45.9328 24.3243C46.0171 24.2737 46.1689 24.1554 46.1689 23.9358V8.96962C46.1689 7.87164 45.7473 6.84124 44.9716 6.0811C44.196 5.30408 43.1674 4.88178 42.0882 4.88178H9.29111C7.03157 4.88178 5.21044 6.723 5.21044 8.96962V32.8041C5.21044 35.0676 7.04843 36.8919 9.29111 36.8919H34.3653C35.1578 36.8919 35.9503 37.1622 36.5742 37.6521L46.152 45.0338V36.4696C46.152 35.7095 46.759 35.1014 47.5178 35.1014C48.2766 35.1014 48.8837 35.7095 48.8837 36.4696V45.0338C48.8837 46.0811 48.2935 47.0102 47.3661 47.4831C46.9782 47.6689 46.5736 47.7703 46.1689 47.7703L46.1351 47.8041Z" fill="#226DB4"/>
<path d="M58.2085 17.8717L64.515 8.73315H58.8493V6.92572H67.4827V7.82099L61.328 16.9595H67.3141V18.7669H58.2085V17.8717Z" fill="black"/>
<path d="M68.056 14.4595C68.056 13.7838 68.1909 13.1588 68.4439 12.6014C68.6968 12.044 69.0509 11.571 69.4893 11.1656C69.9277 10.7771 70.4505 10.4561 71.0238 10.2365C71.614 10.0169 72.221 9.91559 72.8786 9.91559C73.5363 9.91559 74.1433 10.0169 74.7166 10.2365C75.2731 10.4561 75.7789 10.7602 76.1836 11.1656C76.6052 11.5541 76.9256 12.044 77.1616 12.5845C77.3977 13.1419 77.5158 13.75 77.5158 14.4088C77.5158 15.0676 77.3977 15.7095 77.1448 16.2669C76.8919 16.8244 76.5546 17.2973 76.133 17.6859C75.7115 18.0744 75.2056 18.3784 74.6323 18.598C74.059 18.8176 73.4351 18.919 72.7943 18.919C72.1536 18.919 71.5128 18.8176 70.9395 18.598C70.3662 18.3784 69.8603 18.0744 69.4387 17.6859C69.0172 17.2973 68.6799 16.8244 68.427 16.2838C68.1741 15.7433 68.056 15.1352 68.056 14.4764V14.4595ZM72.8618 17.3311C73.3002 17.3311 73.6543 17.2467 73.9747 17.0946C74.2782 16.9257 74.5311 16.723 74.7335 16.4528C74.9358 16.1825 75.0707 15.8784 75.1719 15.5237C75.2731 15.169 75.3068 14.8142 75.3068 14.4257C75.3068 14.0372 75.2562 13.6487 75.155 13.294C75.0539 12.9392 74.9021 12.6352 74.6829 12.3649C74.4805 12.0946 74.2107 11.8919 73.9072 11.7399C73.5868 11.5879 73.2327 11.5034 72.7943 11.5034C72.3559 11.5034 71.9849 11.5879 71.6814 11.7399C71.3779 11.9088 71.125 12.1115 70.9226 12.3987C70.7371 12.669 70.5854 12.9899 70.5011 13.3446C70.4167 13.6994 70.3662 14.0879 70.3662 14.4764C70.3662 14.8649 70.4167 15.2196 70.5179 15.5744C70.6191 15.9122 70.7709 16.2163 70.9901 16.4865C71.1924 16.7399 71.4622 16.9595 71.7657 17.1115C72.0692 17.2636 72.4402 17.348 72.8618 17.348V17.3311Z" fill="black"/>
<path d="M79.0334 6.18245H81.0906V11.4696C81.2255 11.1993 81.411 10.9629 81.6133 10.777C81.8157 10.5743 82.0517 10.4223 82.3047 10.2872C82.5576 10.1689 82.8274 10.0676 83.1141 10C83.4007 9.93245 83.6874 9.89867 83.9909 9.89867C84.5136 9.89867 84.9521 9.98313 85.3399 10.152C85.7277 10.321 86.0481 10.5575 86.301 10.8615C86.554 11.1656 86.7563 11.5203 86.8744 11.9426C87.0092 12.3649 87.0598 12.821 87.0598 13.3108V18.7331H84.9858V13.5135C84.9858 12.8885 84.834 12.4156 84.5136 12.0777C84.1933 11.7568 83.738 11.5879 83.1309 11.5879C82.5239 11.5879 81.9506 11.7737 81.5965 12.1453C81.2424 12.5169 81.0737 13.0237 81.0737 13.6318V18.7162H79.0165V6.13177V6.18245H79.0334Z" fill="black"/>
<path d="M88.4257 14.4595C88.4257 13.7838 88.5606 13.1588 88.8135 12.6014C89.0664 12.044 89.4205 11.571 89.859 11.1656C90.2974 10.7771 90.8201 10.4561 91.3934 10.2365C91.9836 10.0169 92.5906 9.91559 93.2483 9.91559C93.9059 9.91559 94.5129 10.0169 95.0862 10.2365C95.6427 10.4561 96.1486 10.7602 96.5533 11.1656C96.9748 11.5541 97.2952 12.044 97.5313 12.5845C97.7673 13.1419 97.8854 13.75 97.8854 14.4088C97.8854 15.0676 97.7673 15.7095 97.5144 16.2669C97.2615 16.8244 96.9242 17.2973 96.5027 17.6859C96.0811 18.0744 95.5753 18.3784 95.0019 18.598C94.4286 18.8176 93.8047 18.919 93.1639 18.919C92.5232 18.919 91.8824 18.8176 91.3091 18.598C90.7358 18.3784 90.2299 18.0744 89.8084 17.6859C89.3868 17.2973 89.0496 16.8244 88.7966 16.2838C88.5437 15.7433 88.4257 15.1352 88.4257 14.4764V14.4595ZM93.2314 17.3311C93.6698 17.3311 94.0239 17.2467 94.3443 17.0946C94.6478 16.9257 94.9008 16.723 95.1031 16.4528C95.3055 16.1825 95.4403 15.8784 95.5415 15.5237C95.6427 15.169 95.6764 14.8142 95.6764 14.4257C95.6764 14.0372 95.6258 13.6487 95.5247 13.294C95.4235 12.9392 95.2717 12.6352 95.0525 12.3649C94.8502 12.0946 94.5804 11.8919 94.2769 11.7399C93.9565 11.5879 93.6024 11.5034 93.1639 11.5034C92.7255 11.5034 92.3546 11.5879 92.051 11.7399C91.7475 11.9088 91.4946 12.1115 91.2922 12.3987C91.1068 12.669 90.955 12.9899 90.8707 13.3446C90.7864 13.6994 90.7358 14.0879 90.7358 14.4764C90.7358 14.8649 90.7864 15.2196 90.8875 15.5744C90.9887 15.9122 91.1405 16.2163 91.3597 16.4865C91.562 16.7399 91.8318 16.9595 92.1354 17.1115C92.4389 17.2636 92.8098 17.348 93.2314 17.348V17.3311Z" fill="black"/>
<path d="M71.9512 42.9898C71.3611 43.1756 70.7709 43.3108 70.147 43.4121C69.5399 43.5135 68.8992 43.5642 68.2415 43.5642C66.7577 43.5642 65.4087 43.3277 64.1946 42.8378C62.9805 42.3479 61.9519 41.6554 61.0919 40.777C60.232 39.8986 59.5743 38.8344 59.1022 37.6013C58.6301 36.3682 58.394 35 58.394 33.5135C58.394 32.027 58.6469 30.7432 59.1528 29.5439C59.6587 28.3446 60.35 27.2973 61.2268 26.4189C62.1037 25.5405 63.1491 24.8648 64.3632 24.375C65.5773 23.8851 66.8926 23.6486 68.3259 23.6486C69.7591 23.6486 71.1587 23.8851 72.3728 24.375C73.5869 24.8648 74.6323 25.5405 75.5092 26.402C76.386 27.2635 77.0605 28.3108 77.5326 29.5439C78.0048 30.7601 78.2577 32.1115 78.2577 33.5811C78.2577 35.0506 78.1903 35.0169 78.0722 35.7263C77.9542 36.4358 77.7519 37.1284 77.4989 37.7702C77.246 38.429 76.9087 39.0371 76.504 39.6284C76.0994 40.2196 75.6272 40.7432 75.0708 41.2162L77.0268 43.3277L74.548 45.777L71.9344 43.0067H71.9512V42.9898ZM70.1301 35.8615L72.3897 38.3108C72.9124 37.6013 73.2496 36.8243 73.4351 35.9966C73.6206 35.1689 73.7049 34.3243 73.7049 33.4628C73.7049 32.6013 73.6037 31.8243 73.3845 31.0473C73.1653 30.2702 72.8449 29.5946 72.3897 29.0202C71.9344 28.429 71.3779 27.9729 70.6866 27.6182C69.9952 27.2635 69.1858 27.0946 68.2415 27.0946C67.2973 27.0946 66.471 27.2804 65.7965 27.6351C65.122 27.9898 64.5824 28.4797 64.1609 29.0878C63.7393 29.6959 63.4358 30.3885 63.2503 31.1993C63.0648 31.9932 62.9637 32.8209 62.9637 33.6993C62.9637 34.5777 63.0817 35.3378 63.3009 36.1317C63.5201 36.9088 63.8574 37.6013 64.3126 38.2094C64.7679 38.8175 65.3412 39.2905 66.0326 39.6621C66.7239 40.0169 67.5333 40.2027 68.4776 40.2027C69.4219 40.2027 68.7305 40.2027 68.8823 40.2027C69.0341 40.2027 69.169 40.1689 69.3207 40.152L67.6008 38.2601L70.147 35.8783H70.1301V35.8615Z" fill="black"/>
<path d="M90.2468 41.0473C90.0107 41.4864 89.7409 41.8581 89.4037 42.179C89.0664 42.5 88.7123 42.7702 88.3076 42.956C87.903 43.1587 87.4814 43.3108 87.0261 43.4121C86.5708 43.5135 86.0987 43.5641 85.6265 43.5641C84.8172 43.5641 84.0921 43.429 83.5019 43.1587C82.8949 42.8885 82.4059 42.5169 82.0012 42.0439C81.5965 41.5709 81.3098 41.0135 81.1075 40.3547C80.922 39.6959 80.8208 39.0033 80.8208 38.2263V29.1216H84.6991V37.6858C84.6991 38.0912 84.7497 38.4797 84.834 38.8344C84.9183 39.1891 85.0701 39.4763 85.2556 39.7297C85.4411 39.9831 85.7109 40.1689 86.0312 40.3209C86.3516 40.456 86.7394 40.5236 87.1947 40.5236C88.1222 40.5236 88.8641 40.2533 89.4037 39.6959C89.9433 39.1385 90.2131 38.3783 90.2131 37.4324V29.1385H94.0914V43.277H90.2131V41.0642H90.2468V41.0473Z" fill="black"/>
<path d="M105.676 41.554C105.17 42.2973 104.563 42.8209 103.855 43.125C103.146 43.4121 102.354 43.5642 101.511 43.5642C100.668 43.5642 100.195 43.4797 99.6053 43.3108C99.0151 43.1419 98.5093 42.8716 98.0877 42.5338C97.6493 42.179 97.3289 41.7567 97.076 41.2162C96.8399 40.6925 96.7219 40.0676 96.7219 39.375C96.7219 38.6824 96.9074 37.7365 97.2952 37.1453C97.683 36.554 98.172 36.098 98.7791 35.7432C99.3861 35.3885 100.061 35.152 100.819 35.0169C101.578 34.8817 102.337 34.8142 103.113 34.8142H105.642C105.642 34.3412 105.642 33.902 105.575 33.5135C105.524 33.125 105.423 32.7871 105.271 32.5169C105.119 32.2466 104.866 32.027 104.546 31.875C104.226 31.723 103.787 31.6385 103.231 31.6385C102.674 31.6385 102.624 31.6723 102.32 31.7398C102.017 31.8074 101.747 31.9257 101.477 32.0777C101.224 32.2297 100.988 32.4155 100.786 32.652C100.583 32.8885 100.432 33.1588 100.33 33.4628L97.3458 32.1621C97.5818 31.5203 97.9191 30.9966 98.3744 30.5574C98.8297 30.1182 99.3355 29.7804 99.9088 29.527C100.482 29.2736 101.089 29.0878 101.747 28.9696C102.404 28.8513 103.045 28.8007 103.669 28.8007C104.293 28.8007 105.305 28.902 106.013 29.0878C106.721 29.2736 107.345 29.5946 107.851 30C108.357 30.4223 108.762 30.9628 109.048 31.6216C109.335 32.2804 109.47 33.0912 109.47 34.0371V43.2432H105.642V41.5371H105.676V41.554ZM104.124 37.1284C103.77 37.1284 103.382 37.1284 102.978 37.179C102.556 37.2128 102.168 37.2973 101.814 37.4155C101.46 37.5507 101.157 37.7534 100.904 38.0236C100.651 38.2939 100.533 38.6655 100.533 39.1385C100.533 39.6115 100.583 39.7297 100.701 39.9324C100.819 40.152 100.954 40.3209 101.157 40.4561C101.342 40.5912 101.561 40.6925 101.814 40.7432C102.067 40.8108 102.337 40.8277 102.607 40.8277C102.877 40.8277 103.366 40.777 103.72 40.6757C104.074 40.5743 104.394 40.4223 104.681 40.2196C104.968 40.0169 105.187 39.7466 105.372 39.4425C105.558 39.1385 105.625 38.75 105.625 38.3277V37.1453H104.124V37.1284Z" fill="black"/>
<path d="M112.859 29.1216H116.771V31.8243C117.243 30.8445 117.85 30.1013 118.592 29.6283C119.334 29.1554 120.245 28.902 121.324 28.902V32.5506C120.683 32.5506 120.093 32.6013 119.537 32.7027C118.98 32.804 118.508 32.9898 118.086 33.2601C117.682 33.5304 117.361 33.902 117.125 34.3749C116.889 34.8479 116.771 35.4391 116.771 36.1824V43.277H112.859V29.1385V29.1216Z" fill="black"/>
<path d="M131.526 43.1588C130.784 43.4122 129.974 43.5304 129.097 43.5304C127.614 43.5304 126.501 43.1757 125.725 42.4493C124.949 41.723 124.578 40.6081 124.578 39.0878V31.9257H122.774V29.1385H124.578V26.0642L128.457 24.375V29.1385H131.424V31.9257H128.457V38.7331C128.457 39.2568 128.592 39.6791 128.844 39.9662C129.097 40.2534 129.536 40.4054 130.143 40.4054C130.75 40.4054 130.564 40.4054 130.8 40.3378C131.037 40.3041 131.273 40.2196 131.509 40.1182V43.1588H131.526Z" fill="black"/>
<path d="M132.908 41.7398L140.193 32.1452H133.6V29.1216H145.521V30.6419L138.186 40.2364H145.268V43.2601H132.908V41.7398Z" fill="black"/>
</svg>
