<?xml version="1.0" encoding="UTF-8"?>
<svg id="Layer_1" xmlns="http://www.w3.org/2000/svg" xmlns:xlink="http://www.w3.org/1999/xlink" version="1.1" viewBox="0 0 877.7 296">
  
  <defs>
    
  </defs>
  <path class="st0" d="M273.6,283c-3.5,0-6.9-1.1-9.8-3.4l-56.8-43.7c-.9-.7-2.1-1.1-3.3-1.1H55.1c-22.3,0-40.4-18.1-40.4-40.4V53.3c0-22.3,18.1-40.4,40.4-40.4h194.4c10.8,0,20.9,4.2,28.5,11.8,7.6,7.6,11.8,17.8,11.8,28.5v88.6c0,6.8-3.5,12.9-9.4,16.3s-12.9,3.4-18.8,0l-126.6-73.1c-3.7-2.1-6.9-.7-8.1,0s-4,2.8-4,7v61.7c0,4.2,2.8,6.3,4,7s4.4,2.1,8.1,0l48.3-27.9c3.9-2.2,8.8-.9,11,2.9,2.2,3.9.9,8.8-2.9,11l-48.3,27.9c-7.6,4.4-16.6,4.4-24.2,0s-12.1-12.2-12.1-21v-61.7c0-8.8,4.5-16.6,12.1-21s16.6-4.4,24.2,0l126.6,73.1c1.2.7,2.2.3,2.7,0s1.4-1,1.4-2.3V53.1c0-6.5-2.5-12.6-7.1-17.1-4.6-4.6-10.7-7.1-17.1-7.1H55.1c-13.4,0-24.2,10.9-24.2,24.2v141.1c0,13.4,10.9,24.2,24.2,24.2h148.7c4.7,0,9.4,1.6,13.1,4.5l56.8,43.7h0v-50.7c0-4.5,3.6-8.1,8.1-8.1s8.1,3.6,8.1,8.1v50.7c0,6.2-3.5,11.7-9,14.5-2.3,1.1-4.7,1.7-7.1,1.7l-.2.2h0ZM273.7,267h0Z"></path>
  <g>
    <path d="M345.2,105.8l37.4-54.1h-33.6v-10.7h51.2v5.3l-36.5,54.1h35.5v10.7h-54s0-5.3,0-5.3Z"></path>
    <path d="M403.6,85.6c0-4,.8-7.7,2.3-11s3.6-6.1,6.2-8.5c2.6-2.3,5.7-4.2,9.1-5.5,3.5-1.3,7.1-1.9,11-1.9s7.5.6,10.9,1.9c3.3,1.3,6.3,3.1,8.7,5.5,2.5,2.3,4.4,5.2,5.8,8.4,1.4,3.3,2.1,6.9,2.1,10.8s-.7,7.7-2.2,11-3.5,6.1-6,8.4-5.5,4.1-8.9,5.4-7.1,1.9-10.9,1.9-7.6-.6-11-1.9-6.4-3.1-8.9-5.4-4.5-5.1-6-8.3c-1.5-3.2-2.2-6.8-2.2-10.7h0ZM432.1,102.6c2.6,0,4.7-.5,6.6-1.4,1.8-1,3.3-2.2,4.5-3.8,1.2-1.6,2-3.4,2.6-5.5s.8-4.2.8-6.5-.3-4.6-.9-6.7-1.5-3.9-2.8-5.5c-1.2-1.6-2.8-2.8-4.6-3.7-1.9-.9-4-1.4-6.6-1.4s-4.8.5-6.6,1.4c-1.8,1-3.3,2.2-4.5,3.9-1.1,1.6-2,3.5-2.5,5.6s-.8,4.4-.8,6.7.3,4.4.9,6.5c.6,2,1.5,3.8,2.8,5.4,1.2,1.5,2.8,2.8,4.6,3.7,1.8.9,4,1.4,6.5,1.4h0Z"></path>
    <path d="M468.7,36.6h12.2v31.3c.8-1.6,1.9-3,3.1-4.1,1.2-1.2,2.6-2.1,4.1-2.9,1.5-.7,3.1-1.3,4.8-1.7,1.7-.4,3.4-.6,5.2-.6,3.1,0,5.7.5,8,1.5s4.2,2.4,5.7,4.2c1.5,1.8,2.7,3.9,3.4,6.4.8,2.5,1.1,5.2,1.1,8.1v32.1h-12.3v-30.9c0-3.7-.9-6.5-2.8-8.5-1.9-1.9-4.6-2.9-8.2-2.9s-7,1.1-9.1,3.3c-2.1,2.2-3.1,5.2-3.1,8.8v30.1h-12.2V36.3v.3h0Z"></path>
    <path d="M524.4,85.6c0-4,.8-7.7,2.3-11s3.6-6.1,6.2-8.5c2.6-2.3,5.7-4.2,9.1-5.5,3.5-1.3,7.1-1.9,11-1.9s7.5.6,10.9,1.9c3.3,1.3,6.3,3.1,8.7,5.5,2.5,2.3,4.4,5.2,5.8,8.4,1.4,3.3,2.1,6.9,2.1,10.8s-.7,7.7-2.2,11-3.5,6.1-6,8.4-5.5,4.1-8.9,5.4-7.1,1.9-10.9,1.9-7.6-.6-11-1.9-6.4-3.1-8.9-5.4-4.5-5.1-6-8.3c-1.5-3.2-2.2-6.8-2.2-10.7h0ZM552.9,102.6c2.6,0,4.7-.5,6.6-1.4,1.8-1,3.3-2.2,4.5-3.8,1.2-1.6,2-3.4,2.6-5.5s.8-4.2.8-6.5-.3-4.6-.9-6.7c-.6-2.1-1.5-3.9-2.8-5.5-1.2-1.6-2.8-2.8-4.6-3.7-1.9-.9-4-1.4-6.6-1.4s-4.8.5-6.6,1.4c-1.8,1-3.3,2.2-4.5,3.9-1.1,1.6-2,3.5-2.5,5.6s-.8,4.4-.8,6.7.3,4.4.9,6.5c.6,2,1.5,3.8,2.8,5.4,1.2,1.5,2.8,2.8,4.6,3.7,1.8.9,4,1.4,6.5,1.4h0Z"></path>
  </g>
  <g>
    <path d="M426.7,254.5c-3.5,1.1-7,1.9-10.7,2.5-3.6.6-7.4.9-11.3.9-8.8,0-16.8-1.4-24-4.3s-13.3-7-18.4-12.2-9-11.5-11.8-18.8-4.2-15.4-4.2-24.2,1.5-16.4,4.5-23.5,7.1-13.3,12.3-18.5c5.2-5.2,11.4-9.2,18.6-12.1s15-4.3,23.5-4.3,16.8,1.4,24,4.3,13.4,6.9,18.6,12,9.2,11.3,12,18.6c2.8,7.2,4.3,15.2,4.3,23.9s-.4,8.5-1.1,12.7-1.9,8.3-3.4,12.1c-1.5,3.9-3.5,7.5-5.9,11s-5.2,6.6-8.5,9.4l11.6,12.5-14.7,14.5-15.5-16.4h.1ZM415.9,212.3l13.4,14.5c3.1-4.2,5.1-8.8,6.2-13.7s1.6-9.9,1.6-15-.6-9.7-1.9-14.3-3.2-8.6-5.9-12c-2.7-3.5-6-6.2-10.1-8.3s-8.9-3.1-14.5-3.1-10.5,1.1-14.5,3.2-7.2,5-9.7,8.6-4.3,7.7-5.4,12.5c-1.1,4.7-1.7,9.6-1.7,14.8s.7,9.7,2,14.4c1.3,4.6,3.3,8.7,6,12.3s6.1,6.4,10.2,8.6c4.1,2.1,8.9,3.2,14.5,3.2s1.5,0,2.4,0,1.7-.2,2.6-.3l-10.2-11.2,15.1-14.1h-.1Z"></path>
    <path d="M535.2,243c-1.4,2.6-3,4.8-5,6.7s-4.1,3.5-6.5,4.6c-2.4,1.2-4.9,2.1-7.6,2.7-2.7.6-5.5.9-8.3.9-4.8,0-9.1-.8-12.6-2.4-3.6-1.6-6.5-3.8-8.9-6.6s-4.1-6.1-5.3-10c-1.1-3.9-1.7-8-1.7-12.6v-53.9h23v50.7c0,2.4.3,4.7.8,6.8s1.4,3.8,2.5,5.3,2.7,2.6,4.6,3.5c1.9.8,4.2,1.2,6.9,1.2,5.5,0,9.9-1.6,13.1-4.9,3.2-3.3,4.8-7.8,4.8-13.4v-49.1h23v83.7h-23v-13.1h.2Z"></path>
    <path d="M626.7,246c-3,4.4-6.6,7.5-10.8,9.3-4.2,1.7-8.9,2.6-13.9,2.6s-7.8-.5-11.3-1.5-6.5-2.6-9-4.6c-2.6-2.1-4.5-4.6-6-7.8-1.4-3.1-2.1-6.8-2.1-10.9s1.1-9.7,3.4-13.2c2.3-3.5,5.2-6.2,8.8-8.3s7.6-3.5,12.1-4.3,9-1.2,13.6-1.2h15c0-2.8,0-5.4-.4-7.7-.3-2.3-.9-4.3-1.8-5.9s-2.4-2.9-4.3-3.8c-1.9-.9-4.5-1.4-7.8-1.4s-3.6.2-5.4.6c-1.8.4-3.4,1.1-5,2-1.5.9-2.9,2-4.1,3.4-1.2,1.4-2.1,3-2.7,4.8l-17.7-7.7c1.4-3.8,3.4-6.9,6.1-9.5,2.7-2.6,5.7-4.6,9.1-6.1,3.4-1.5,7-2.6,10.9-3.3s7.7-1,11.4-1,9.7.6,13.9,1.7c4.2,1.1,7.9,3,10.9,5.4,3,2.5,5.4,5.7,7.1,9.6,1.7,3.9,2.5,8.7,2.5,14.3v54.5h-22.7v-10.1h.2ZM617.5,219.8c-2.1,0-4.4,0-6.8.3-2.5.2-4.8.7-6.9,1.4-2.1.8-3.9,2-5.4,3.6s-2.2,3.8-2.2,6.6.3,3.5,1,4.7c.7,1.3,1.5,2.3,2.7,3.1,1.1.8,2.4,1.4,3.9,1.7,1.5.4,3.1.5,4.7.5s4.5-.3,6.6-.9c2.1-.6,4-1.5,5.7-2.7s3-2.8,4.1-4.6,1.5-4.1,1.5-6.6v-7h-8.9,0Z"></path>
    <path d="M669.3,172.4h23.2v16c2.8-5.8,6.4-10.2,10.8-13,4.4-2.8,9.8-4.3,16.2-4.3v21.6c-3.8,0-7.3.3-10.6.9-3.3.6-6.1,1.7-8.6,3.3-2.4,1.6-4.3,3.8-5.7,6.6s-2.1,6.3-2.1,10.7v42h-23.2v-83.7h0Z"></path>
    <path d="M780,255.5c-4.4,1.5-9.2,2.2-14.4,2.2-8.8,0-15.4-2.1-20-6.4-4.6-4.3-6.8-10.9-6.8-19.9v-42.4h-10.7v-16.5h10.7v-18.2l23-10v28.2h17.6v16.5h-17.6v40.3c0,3.1.8,5.6,2.3,7.3s4.1,2.6,7.7,2.6,2.5,0,3.9-.4c1.4-.2,2.8-.7,4.2-1.3v18h0Z"></path>
    <path d="M788.2,247.1l43.2-56.8h-39.1v-17.9h70.7v9l-43.5,56.8h42v17.9h-73.3v-9h0Z"></path>
  </g>
</svg>