<?xml version="1.0" encoding="utf-8"?>

<svg version="1.1" id="Layer_1" xmlns="http://www.w3.org/2000/svg" xmlns:xlink="http://www.w3.org/1999/xlink" x="0px" y="0px" viewBox="0 0 816 296" style="enable-background:new 0 0 816 296;" xml:space="preserve">

<g>
&#x9;<g>
&#x9;&#x9;<path d="M385.04,253.4c-7.22,2.56-14.88,3.84-22.99,3.84c-8.79,0-16.78-1.46-23.97-4.39c-7.19-2.93-13.37-7.02-18.52-12.28&#xA;&#x9;&#x9;&#x9;c-5.15-5.26-9.14-11.54-11.97-18.83s-4.24-15.31-4.24-24.05c0-8.47,1.48-16.29,4.43-23.46c2.96-7.17,7.09-13.34,12.4-18.52&#xA;&#x9;&#x9;&#x9;c5.31-5.18,11.61-9.23,18.91-12.16c7.3-2.93,15.26-4.39,23.89-4.39s16.5,1.47,23.62,4.39c7.11,2.93,13.21,7,18.28,12.2&#xA;&#x9;&#x9;&#x9;c5.07,5.21,9.01,11.42,11.81,18.64s4.2,15.14,4.2,23.78c0,9-1.63,17.47-4.9,25.42s-8.28,14.86-15.03,20.72l12.79,13.65&#xA;&#x9;&#x9;&#x9;l-12.79,12.48L385.04,253.4z M373.89,215.19l13.42,14.44c3.92-4.5,6.66-9.53,8.2-15.11c1.54-5.57,2.32-11.29,2.32-17.15&#xA;&#x9;&#x9;&#x9;c0-5.44-0.75-10.63-2.24-15.58c-1.49-4.94-3.73-9.27-6.71-12.99c-2.98-3.71-6.75-6.67-11.3-8.87c-4.55-2.2-9.89-3.29-16.01-3.29&#xA;&#x9;&#x9;&#x9;c-6.12,0-11.39,1.12-15.81,3.37c-4.42,2.25-8.06,5.28-10.91,9.1c-2.85,3.82-4.94,8.28-6.28,13.38s-2,10.53-2,16.28&#xA;&#x9;&#x9;&#x9;c0,5.39,0.79,10.57,2.35,15.54c1.57,4.97,3.88,9.37,6.94,13.18c3.06,3.82,6.83,6.87,11.3,9.14c4.47,2.28,9.64,3.41,15.5,3.41&#xA;&#x9;&#x9;&#x9;c1.52,0,3.02-0.08,4.51-0.24c1.49-0.16,2.94-0.44,4.36-0.86l-10.75-11.54L373.89,215.19z"></path>
&#x9;&#x9;<path d="M494.19,242.5c-1.31,2.56-2.94,4.77-4.9,6.63c-1.96,1.86-4.15,3.39-6.55,4.59c-2.41,1.2-4.98,2.09-7.73,2.67&#xA;&#x9;&#x9;&#x9;c-2.75,0.58-5.58,0.86-8.51,0.86c-4.81,0-9.06-0.76-12.75-2.28c-3.69-1.52-6.78-3.67-9.26-6.47c-2.49-2.8-4.36-6.15-5.61-10.04&#xA;&#x9;&#x9;&#x9;c-1.26-3.9-1.88-8.23-1.88-12.99v-53.83h20.09v51.4c0,5.76,1.36,10.28,4.08,13.58c2.72,3.3,7.01,4.94,12.87,4.94&#xA;&#x9;&#x9;&#x9;c3.14,0,5.95-0.48,8.44-1.45c2.48-0.97,4.6-2.33,6.36-4.08c1.75-1.75,3.09-3.87,4-6.36c0.92-2.48,1.37-5.22,1.37-8.2v-49.83h20.01&#xA;&#x9;&#x9;&#x9;v84.04h-20.01V242.5z"></path>
&#x9;&#x9;<path d="M611.35,237.39c-1.73,3.72-3.94,6.84-6.63,9.38c-2.69,2.54-5.68,4.58-8.95,6.12c-3.27,1.54-6.78,2.66-10.52,3.33&#xA;&#x9;&#x9;&#x9;c-3.74,0.68-7.55,1.02-11.42,1.02c-6.64,0-12.63-1.06-17.97-3.18c-5.34-2.12-9.88-5.1-13.62-8.95c-3.74-3.84-6.62-8.46-8.63-13.85&#xA;&#x9;&#x9;&#x9;c-2.01-5.39-3.02-11.35-3.02-17.89c0-6.17,1.02-11.91,3.06-17.22c2.04-5.31,4.92-9.91,8.63-13.81c3.71-3.9,8.16-6.96,13.34-9.18&#xA;&#x9;&#x9;&#x9;c5.18-2.22,10.93-3.33,17.26-3.33c13.6,0,23.74,3.99,30.41,11.97c6.67,7.98,10,20.08,10,36.29h-62.23c0,3.56,0.51,6.84,1.53,9.85&#xA;&#x9;&#x9;&#x9;c1.02,3.01,2.52,5.6,4.51,7.77c1.99,2.17,4.45,3.87,7.38,5.1c2.93,1.23,6.3,1.84,10.12,1.84c4.6,0,8.71-0.97,12.32-2.9&#xA;&#x9;&#x9;&#x9;c3.61-1.93,6.51-5.05,8.71-9.34L611.35,237.39z M593.3,204.91c-0.31-6.38-2.26-11.39-5.85-15.03c-3.58-3.64-8.36-5.45-14.32-5.45&#xA;&#x9;&#x9;&#x9;c-3.14,0-5.96,0.52-8.47,1.57c-2.51,1.05-4.67,2.49-6.47,4.32c-1.8,1.83-3.28,3.99-4.43,6.47c-1.15,2.49-1.94,5.19-2.35,8.12&#xA;&#x9;&#x9;&#x9;H593.3z"></path>
&#x9;&#x9;<path d="M685.82,242.5c-1.31,2.56-2.94,4.77-4.9,6.63c-1.96,1.86-4.15,3.39-6.55,4.59c-2.41,1.2-4.98,2.09-7.73,2.67&#xA;&#x9;&#x9;&#x9;c-2.75,0.58-5.58,0.86-8.51,0.86c-4.81,0-9.06-0.76-12.75-2.28c-3.69-1.52-6.78-3.67-9.26-6.47c-2.49-2.8-4.36-6.15-5.61-10.04&#xA;&#x9;&#x9;&#x9;c-1.26-3.9-1.88-8.23-1.88-12.99v-53.83h20.09v51.4c0,5.76,1.36,10.28,4.08,13.58c2.72,3.3,7.01,4.94,12.87,4.94&#xA;&#x9;&#x9;&#x9;c3.14,0,5.95-0.48,8.44-1.45c2.48-0.97,4.6-2.33,6.36-4.08c1.75-1.75,3.09-3.87,4-6.36c0.92-2.48,1.37-5.22,1.37-8.2v-49.83h20.01&#xA;&#x9;&#x9;&#x9;v84.04h-20.01V242.5z"></path>
&#x9;&#x9;<path d="M802.98,237.39c-1.73,3.72-3.94,6.84-6.63,9.38c-2.69,2.54-5.68,4.58-8.95,6.12c-3.27,1.54-6.78,2.66-10.52,3.33&#xA;&#x9;&#x9;&#x9;c-3.74,0.68-7.55,1.02-11.42,1.02c-6.64,0-12.63-1.06-17.97-3.18c-5.34-2.12-9.88-5.1-13.62-8.95c-3.74-3.84-6.62-8.46-8.63-13.85&#xA;&#x9;&#x9;&#x9;c-2.01-5.39-3.02-11.35-3.02-17.89c0-6.17,1.02-11.91,3.06-17.22c2.04-5.31,4.92-9.91,8.63-13.81c3.71-3.9,8.16-6.96,13.34-9.18&#xA;&#x9;&#x9;&#x9;c5.18-2.22,10.93-3.33,17.26-3.33c13.6,0,23.74,3.99,30.41,11.97c6.67,7.98,10,20.08,10,36.29h-62.23c0,3.56,0.51,6.84,1.53,9.85&#xA;&#x9;&#x9;&#x9;c1.02,3.01,2.52,5.6,4.51,7.77c1.99,2.17,4.45,3.87,7.38,5.1c2.93,1.23,6.3,1.84,10.12,1.84c4.6,0,8.71-0.97,12.32-2.9&#xA;&#x9;&#x9;&#x9;c3.61-1.93,6.51-5.05,8.71-9.34L802.98,237.39z M784.93,204.91c-0.31-6.38-2.26-11.39-5.85-15.03c-3.58-3.64-8.36-5.45-14.32-5.45&#xA;&#x9;&#x9;&#x9;c-3.14,0-5.96,0.52-8.47,1.57c-2.51,1.05-4.67,2.49-6.47,4.32c-1.8,1.83-3.28,3.99-4.43,6.47c-1.15,2.49-1.94,5.19-2.35,8.12&#xA;&#x9;&#x9;&#x9;H784.93z"></path>
&#x9;</g>
&#x9;<g>
&#x9;&#x9;<g>
&#x9;&#x9;&#x9;<path d="M309.39,104.43l36.97-53.42h-33.23V40.47h50.63v5.25l-36.07,53.42h35.03v10.54h-53.32V104.43z"></path>
&#x9;&#x9;&#x9;<path d="M367.11,84.48c0-3.97,0.76-7.59,2.29-10.85c1.53-3.26,3.58-6.05,6.17-8.37c2.58-2.32,5.58-4.11,9-5.39&#xA;&#x9;&#x9;&#x9;&#x9;c3.42-1.28,7.04-1.91,10.85-1.91c3.84,0,7.42,0.64,10.73,1.91c3.31,1.28,6.18,3.07,8.63,5.39s4.36,5.09,5.74,8.32&#xA;&#x9;&#x9;&#x9;&#x9;c1.39,3.23,2.08,6.78,2.08,10.66c0,3.97-0.73,7.58-2.17,10.83c-1.45,3.25-3.43,6.02-5.93,8.32c-2.51,2.3-5.44,4.08-8.82,5.34&#xA;&#x9;&#x9;&#x9;&#x9;c-3.37,1.26-6.97,1.89-10.78,1.89c-3.84,0-7.46-0.64-10.85-1.91c-3.39-1.28-6.33-3.06-8.84-5.37c-2.51-2.3-4.48-5.05-5.93-8.25&#xA;&#x9;&#x9;&#x9;&#x9;C367.83,91.89,367.11,88.35,367.11,84.48z M395.24,101.3c2.52,0,4.69-0.47,6.5-1.42c1.81-0.95,3.3-2.2,4.47-3.76&#xA;&#x9;&#x9;&#x9;&#x9;c1.17-1.56,2.03-3.36,2.58-5.41c0.55-2.05,0.83-4.18,0.83-6.38c0-2.33-0.3-4.53-0.9-6.59c-0.6-2.06-1.51-3.88-2.72-5.44&#xA;&#x9;&#x9;&#x9;&#x9;c-1.21-1.56-2.73-2.79-4.56-3.69c-1.83-0.9-3.99-1.35-6.48-1.35c-2.55,0-4.74,0.47-6.55,1.42c-1.81,0.95-3.29,2.21-4.42,3.81&#xA;&#x9;&#x9;&#x9;&#x9;c-1.13,1.59-1.97,3.44-2.5,5.53c-0.54,2.1-0.8,4.31-0.8,6.64c0,2.24,0.3,4.37,0.9,6.38s1.5,3.78,2.72,5.29&#xA;&#x9;&#x9;&#x9;&#x9;c1.21,1.51,2.73,2.72,4.54,3.62C390.64,100.86,392.78,101.3,395.24,101.3z"></path>
&#x9;&#x9;&#x9;<path d="M431.45,36.12h12.1v30.96c0.82-1.58,1.83-2.94,3.05-4.09c1.21-1.15,2.55-2.1,4.02-2.84c1.46-0.74,3.04-1.29,4.73-1.65&#xA;&#x9;&#x9;&#x9;&#x9;c1.69-0.36,3.4-0.54,5.13-0.54c3.03,0,5.67,0.5,7.94,1.51c2.27,1.01,4.16,2.4,5.67,4.18c1.51,1.78,2.65,3.89,3.4,6.33&#xA;&#x9;&#x9;&#x9;&#x9;c0.76,2.44,1.13,5.11,1.13,8.01v31.67h-12.2V79.18c0-3.66-0.92-6.45-2.77-8.37s-4.53-2.88-8.06-2.88c-3.91,0-6.89,1.09-8.96,3.29&#xA;&#x9;&#x9;&#x9;&#x9;s-3.1,5.1-3.1,8.72v29.73h-12.1V36.12z"></path>
&#x9;&#x9;&#x9;<path d="M486.47,84.48c0-3.97,0.76-7.59,2.29-10.85c1.53-3.26,3.58-6.05,6.17-8.37c2.58-2.32,5.58-4.11,9-5.39&#xA;&#x9;&#x9;&#x9;&#x9;c3.42-1.28,7.04-1.91,10.85-1.91c3.84,0,7.42,0.64,10.73,1.91c3.31,1.28,6.18,3.07,8.63,5.39s4.36,5.09,5.74,8.32&#xA;&#x9;&#x9;&#x9;&#x9;c1.39,3.23,2.08,6.78,2.08,10.66c0,3.97-0.73,7.58-2.17,10.83c-1.45,3.25-3.43,6.02-5.93,8.32c-2.51,2.3-5.44,4.08-8.82,5.34&#xA;&#x9;&#x9;&#x9;&#x9;c-3.37,1.26-6.97,1.89-10.78,1.89c-3.84,0-7.46-0.64-10.85-1.91c-3.39-1.28-6.33-3.06-8.84-5.37c-2.51-2.3-4.48-5.05-5.93-8.25&#xA;&#x9;&#x9;&#x9;&#x9;C487.2,91.89,486.47,88.35,486.47,84.48z M514.6,101.3c2.52,0,4.69-0.47,6.5-1.42c1.81-0.95,3.3-2.2,4.47-3.76&#xA;&#x9;&#x9;&#x9;&#x9;c1.17-1.56,2.03-3.36,2.58-5.41c0.55-2.05,0.83-4.18,0.83-6.38c0-2.33-0.3-4.53-0.9-6.59c-0.6-2.06-1.51-3.88-2.72-5.44&#xA;&#x9;&#x9;&#x9;&#x9;c-1.21-1.56-2.73-2.79-4.56-3.69c-1.83-0.9-3.99-1.35-6.48-1.35c-2.55,0-4.74,0.47-6.55,1.42c-1.81,0.95-3.29,2.21-4.42,3.81&#xA;&#x9;&#x9;&#x9;&#x9;c-1.13,1.59-1.97,3.44-2.5,5.53c-0.54,2.1-0.8,4.31-0.8,6.64c0,2.24,0.3,4.37,0.9,6.38s1.5,3.78,2.72,5.29&#xA;&#x9;&#x9;&#x9;&#x9;c1.21,1.51,2.73,2.72,4.54,3.62C510,100.86,512.14,101.3,514.6,101.3z"></path>
&#x9;&#x9;</g>
&#x9;</g>
</g>
<path class="st1" d="M242.78,70.37c-0.07-0.14-0.15-0.29-0.23-0.43c-0.08-0.14-0.17-0.28-0.26-0.42c-1.46-2.36-3.48-4.36-5.95-5.79&#xA;&#x9;L135.06,5.27c-5.24-3.03-11.75-3.03-17,0L16.8,63.73c-2.47,1.43-4.5,3.44-5.96,5.79c-0.09,0.14-0.18,0.27-0.26,0.42&#xA;&#x9;c-0.08,0.14-0.16,0.28-0.23,0.43c-1.32,2.44-2.05,5.21-2.05,8.08v116.93c0,6.05,3.26,11.69,8.5,14.72l139.6,80.6&#xA;&#x9;c2.66,1.54,5.58,2.3,8.5,2.3c2.92,0,5.84-0.77,8.5-2.3c5.32-3.07,8.5-8.57,8.5-14.72v-34.45l54.44-31.43&#xA;&#x9;c5.24-3.03,8.5-8.66,8.5-14.72V78.45C244.83,75.59,244.1,72.82,242.78,70.37z M25.3,88.25l97.02,56.01&#xA;&#x9;c1.31,0.76,2.78,1.14,4.25,1.14c1.47,0,2.93-0.38,4.25-1.14l97.02-56.01V132l-101.26,58.47L25.3,132V88.25z M126.57,19.99&#xA;&#x9;l92.76,53.55l-92.76,53.55L33.81,73.54L126.57,19.99z M173.4,226.81c-5.24,3.03-8.5,8.66-8.5,14.72v34.45l-139.6-80.6v-43.76&#xA;&#x9;l97.02,56.02c1.31,0.76,2.78,1.14,4.25,1.14c1.47,0,2.93-0.38,4.25-1.14l97.02-56.01v43.76L173.4,226.81z"></path>
</svg>