<?xml version="1.0" encoding="UTF-8"?>
<svg id="Layer_1" xmlns="http://www.w3.org/2000/svg" version="1.1" viewBox="0 0 1223.58 296">
  
  <defs>
    
  </defs>
  <g>
    <g>
      <path d="M374.73,140.79h41.59c22.99,0,43.24,8.48,43.24,34.53,0,16.4-9.81,27-25.43,30.84l32.33,49.52h-24.01l-29.9-46.3h-15.54v46.3h-22.29v-114.89ZM415.69,194c12.79,0,22.21-4.87,22.21-18.6s-10.04-17.58-22.21-17.58h-18.68v36.18h18.68Z"></path>
      <path d="M549.49,237.39c-6.98,14.83-22.05,19.85-37.51,19.85-26.53,0-43.24-17.74-43.24-43.87,0-24.64,17.03-43.55,42.3-43.55,27.15,0,40.42,15.85,40.42,48.26h-62.23c0,14.2,8.24,24.56,23.54,24.56,9.1,0,16.64-3.69,21.03-12.24l15.7,6.98ZM531.44,204.9c-.63-12.71-8.32-20.48-20.17-20.48-12.63,0-20.01,8.87-21.74,20.48h41.91Z"></path>
      <path d="M616.19,245.4c-6.36,8.48-15.69,11.85-26.05,11.85-15.77,0-28.17-8-28.17-24.48,0-23.31,24.64-27,44.18-27h9.89v-1.33c0-12.01-2.83-19.62-16.4-19.62-8.16,0-15.7,4.24-18.68,12.01l-15.62-6.75c5.65-14.83,21.34-20.25,36.33-20.25,19.85,0,34.29,9.57,34.29,30.92v54.93h-19.78v-10.28ZM605.91,218.09c-9.26,0-24.01,1.1-24.01,13.81,0,8.08,5.89,11.07,13.42,11.07,10.2,0,20.72-5.34,20.72-16.72v-8.16h-10.12Z"></path>
      <path d="M657.7,137.57l20.09-8.71v126.82h-20.09v-118.11Z"></path>
      <path d="M736.48,140.79h76.36v17.34h-54.07v30.84h43.95v16.4h-43.95v32.96h56.74v17.34h-79.03v-114.89Z"></path>
      <path d="M840.3,230.64c3.14,8.24,11.69,12.16,20.8,12.16,6.51,0,14.6-2.04,14.6-9.97,0-8.4-9.1-10.36-19.46-12.56-13.5-2.83-28.64-6.12-28.64-24.96,0-17.26,16.09-25.5,31.31-25.5,13.34,0,28.56,5.02,34.06,18.29l-14.91,6.43c-3.3-7.46-11.54-10.28-18.44-10.28s-13.11,2.67-13.11,9.5c0,7.69,8.24,9.34,18.36,11.3,13.73,2.67,30.06,5.81,30.06,25.43s-16.56,26.76-34.06,26.76c-14.83,0-30.76-5.02-36.02-20.09l15.46-6.51Z"></path>
      <path d="M953.46,255.05c-4.32,1.26-8.79,2.04-13.81,2.04-16.01,0-25.5-8.32-25.5-25.03v-45.67h-11.3v-14.75h11.3v-17.34l20.09-8.71v26.05h18.52v14.75h-18.52v43.87c0,6.59,2.83,10.67,10.2,10.67,2.83,0,5.96-.63,9.03-1.65v15.77Z"></path>
      <path d="M1018.75,245.4c-6.36,8.48-15.69,11.85-26.05,11.85-15.77,0-28.17-8-28.17-24.48,0-23.31,24.64-27,44.18-27h9.89v-1.33c0-12.01-2.83-19.62-16.4-19.62-8.16,0-15.7,4.24-18.68,12.01l-15.62-6.75c5.65-14.83,21.34-20.25,36.33-20.25,19.85,0,34.29,9.57,34.29,30.92v54.93h-19.78v-10.28ZM1008.47,218.09c-9.26,0-24.01,1.1-24.01,13.81,0,8.08,5.89,11.07,13.42,11.07,10.2,0,20.72-5.34,20.72-16.72v-8.16h-10.12Z"></path>
      <path d="M1102.24,255.05c-4.32,1.26-8.79,2.04-13.81,2.04-16.01,0-25.5-8.32-25.5-25.03v-45.67h-11.3v-14.75h11.3v-17.34l20.09-8.71v26.05h18.52v14.75h-18.52v43.87c0,6.59,2.83,10.67,10.2,10.67,2.83,0,5.96-.63,9.03-1.65v15.77Z"></path>
      <path d="M1192.49,237.39c-6.98,14.83-22.05,19.85-37.51,19.85-26.53,0-43.24-17.74-43.24-43.87,0-24.64,17.03-43.55,42.3-43.55,27.15,0,40.42,15.85,40.42,48.26h-62.23c0,14.2,8.24,24.56,23.54,24.56,9.1,0,16.64-3.69,21.03-12.24l15.7,6.98ZM1174.44,204.9c-.63-12.71-8.32-20.48-20.17-20.48-12.63,0-20.01,8.87-21.74,20.48h41.91Z"></path>
    </g>
    <g>
      <path d="M374.89,104.43l36.97-53.42h-33.23v-10.54h50.63v5.25l-36.07,53.42h35.03v10.54h-53.32v-5.25Z"></path>
      <path d="M460.92,57.96c15.36,0,27.18,10.78,27.18,26.28s-12.43,26.38-27.7,26.38-27.8-10.68-27.8-26.14,13.09-26.52,28.32-26.52ZM475.1,84.33c0-9.31-4.73-17.06-14.65-17.06s-14.28,8.13-14.28,17.4,4.77,16.64,14.56,16.64,14.37-8.13,14.37-16.97Z"></path>
      <path d="M496.94,36.12h12.1v30.96c3.26-6.29,9.93-9.12,16.92-9.12,12.1,0,18.15,8.51,18.15,20.04v31.67h-12.2v-30.49c0-7.28-3.78-11.25-10.83-11.25-7.75,0-12.05,4.77-12.05,12.01v29.73h-12.1V36.12Z"></path>
      <path d="M580.28,57.96c15.36,0,27.18,10.78,27.18,26.28s-12.43,26.38-27.7,26.38-27.8-10.68-27.8-26.14,13.09-26.52,28.32-26.52ZM594.46,84.33c0-9.31-4.73-17.06-14.65-17.06s-14.28,8.13-14.28,17.4,4.77,16.64,14.56,16.64,14.37-8.13,14.37-16.97Z"></path>
      <path d="M640.6,65.82h-7.07v-6.78h7.07v-2.23c0-11.52.73-21.59,15-21.59,2.18,0,4.5.24,6.73.97l-2.52,6.2c-1.45-.24-2.81-.39-3.92-.39-5.42,0-7.21,3.58-7.21,8.62v8.42h12.05v6.78h-12.05v43.85h-8.08v-43.85Z"></path>
      <path d="M669.25,84.46c0-15.58,10.21-26.28,24.78-26.28s24.54,10.6,24.54,26.09-9.87,26.28-24.54,26.28-24.78-10.6-24.78-26.09ZM710.25,84.36c0-11.52-6.49-19.41-16.21-19.41s-16.46,7.94-16.46,19.46,6.82,19.17,16.46,19.17,16.21-7.74,16.21-19.21Z"></path>
      <path d="M731.26,59.05h8.03v8.71c3.58-6.53,8.86-9.58,16.26-9.58v7.6c-10.84.39-16.26,4.55-16.26,16.12v27.78h-8.03v-50.63Z"></path>
    </g>
  </g>
  <g>
    <g>
      <path class="st0" d="M165.62,292.99h-94.37c-28.11,0-50.97-22.87-50.97-50.97v-94.02c0-4.69,3.8-8.5,8.5-8.5s8.5,3.8,8.5,8.5v94.02c0,18.74,15.24,33.98,33.98,33.98h94.37c4.69,0,8.5,3.8,8.5,8.5s-3.8,8.5-8.5,8.5Z"></path>
      <path class="st2" d="M259.29,292.99h-93.67c-4.69,0-8.5-3.8-8.5-8.5s3.8-8.5,8.5-8.5h93.67c18.74,0,33.98-15.24,33.98-33.98v-94.02c0-4.69,3.8-8.5,8.5-8.5s8.5,3.8,8.5,8.5v94.02c0,28.11-22.87,50.97-50.97,50.97Z"></path>
      <path class="st3" d="M301.76,156.5c-4.69,0-8.5-3.8-8.5-8.5V53.98c0-18.74-15.24-33.98-33.98-33.98h-93.67c-4.69,0-8.5-3.8-8.5-8.5s3.8-8.5,8.5-8.5h93.67c28.11,0,50.97,22.87,50.97,50.97v94.02c0,4.69-3.8,8.5-8.5,8.5Z"></path>
      <path class="st1" d="M28.77,156.5c-4.69,0-8.5-3.8-8.5-8.5V53.98C20.28,25.88,43.14,3.01,71.25,3.01h94.37c4.69,0,8.5,3.8,8.5,8.5s-3.8,8.5-8.5,8.5h-94.37c-18.74,0-33.98,15.24-33.98,33.98v94.02c0,4.69-3.8,8.5-8.5,8.5Z"></path>
    </g>
    <g>
      <path class="st2" d="M153.92,246.83h-78.99c-4.69,0-8.5-3.8-8.5-8.5v-120.67c0-9.37,7.62-16.99,16.99-16.99h62c9.37,0,16.99,7.62,16.99,16.99v41.15c0,4.69-3.8,8.5-8.5,8.5s-8.5-3.8-8.5-8.5v-41.15h-62v112.18h62v-36.49c0-4.69,3.8-8.5,8.5-8.5s8.5,3.8,8.5,8.5v44.98c0,4.69-3.8,8.5-8.5,8.5Z"></path>
      <path class="st2" d="M194.82,246.84c-4.69,0-8.5-3.8-8.5-8.5v-21.05c0-4.69,3.8-8.5,8.49-8.5,4.69,0,8.5,3.8,8.5,8.5v21.05c0,4.69-3.8,8.5-8.49,8.5Z"></path>
      <path class="st2" d="M194.81,148.93c-4.69,0-8.5-3.8-8.5-8.5v-72.48s-63.31,12.25-63.31,12.25v27.58c0,4.69-3.8,8.5-8.5,8.5s-8.5-3.8-8.5-8.5v-27.58c0-8.12,5.79-15.14,13.76-16.68l73.41-14.21c2.49-.48,5.06.17,7.02,1.79,1.96,1.61,3.09,4.02,3.09,6.55v82.78c0,4.69-3.8,8.5-8.49,8.5Z"></path>
      <path class="st2" d="M232.92,246.83h-78.99c-4.69,0-8.5-3.8-8.5-8.5v-45.33l-15.75-9.34c-2.57-1.52-4.15-4.29-4.16-7.27-.01-2.99,1.55-5.76,4.1-7.31l60.79-36.73c2.7-1.63,6.09-1.63,8.79,0l60.79,36.73c2.63,1.59,4.19,4.47,4.1,7.54-.1,3.07-1.84,5.85-4.56,7.27l-18.11,9.44v45.01c0,4.69-3.8,8.5-8.5,8.5ZM162.43,229.84h61.99v-41.66c0-3.17,1.76-6.07,4.57-7.53l9.28-4.84-43.46-26.26-44.25,26.74,7.71,4.57c2.58,1.53,4.16,4.31,4.16,7.31v41.67Z"></path>
      <g>
        <path class="st2" d="M119.94,155.86h-11.03c-4.69,0-8.5-3.8-8.5-8.5s3.8-8.5,8.5-8.5h11.03c4.69,0,8.5,3.8,8.5,8.5s-3.8,8.5-8.5,8.5Z"></path>
        <path class="st2" d="M119.94,208.64h-11.03c-4.69,0-8.5-3.8-8.5-8.5s3.8-8.5,8.5-8.5h11.03c4.69,0,8.5,3.8,8.5,8.5s-3.8,8.5-8.5,8.5Z"></path>
      </g>
    </g>
  </g>
</svg>