<svg width="145" height="50" viewBox="0 0 145 50" fill="none" xmlns="http://www.w3.org/2000/svg">
<path d="M53.532 23.7838H60.5459C64.4238 23.7838 67.8297 25.2196 67.8297 29.6115C67.8297 32.3818 66.1773 34.1723 63.5471 34.8142L68.993 43.1757H64.9465L59.9052 35.3547H57.2919V43.1757H53.532V23.7838ZM60.4448 32.7703C62.6029 32.7703 64.1878 31.9426 64.1878 29.6284C64.1878 27.2297 62.5017 26.6554 60.4448 26.6554H57.2919V32.7703H60.4448Z" fill="black"/>
<path d="M83.0041 40.1014C81.8238 42.6014 79.2779 43.4628 76.6814 43.4628C72.2134 43.4628 69.3977 40.473 69.3977 36.0473C69.3977 31.8919 72.264 28.6824 76.5296 28.6824C81.1157 28.6824 83.3413 31.3682 83.3413 36.8412H72.8372C72.8372 39.2399 74.2198 40.9966 76.7994 40.9966C78.3337 40.9966 79.5983 40.3716 80.3401 38.9358L83.0041 40.1014ZM79.9523 34.6115C79.8512 32.4662 78.5529 31.1486 76.5465 31.1486C74.4221 31.1486 73.1744 32.652 72.8878 34.6115H79.9523Z" fill="black"/>
<path d="M98.8361 39.1723C97.8919 42.1453 95.2448 43.446 92.2942 43.446C87.7925 43.446 85.1116 40.4223 85.1116 36.0304C85.1116 31.8074 88.1128 28.6655 92.3785 28.6655C95.2448 28.6655 97.7233 29.8649 98.7686 32.652L96.0372 33.8514C95.464 32.2635 94.0983 31.3514 92.3785 31.3514C89.6134 31.3514 88.6018 33.75 88.6018 36.1824C88.6018 38.6824 89.6977 40.8446 92.4459 40.8446C94.3849 40.8446 95.7 39.7635 96.2901 37.9899L98.8361 39.1723Z" fill="black"/>
<path d="M101.517 28.9865H104.906V31.6554C105.867 29.7128 107.401 28.7838 109.559 28.7838V31.9257C106.828 31.9257 104.906 32.8209 104.906 35.8615V43.1926H101.517V28.9865Z" fill="black"/>
<path d="M121.749 40.9628C120.856 42.6858 119.035 43.4628 117.079 43.4628C113.825 43.4628 112.105 41.3176 112.105 38.0912V29.0034H115.494V37.6689C115.494 39.6115 116.388 40.7939 118.36 40.7939C120.485 40.7939 121.766 39.4257 121.766 37.3986V28.9865H125.138V43.1757H121.766V40.9628H121.749Z" fill="black"/>
<path d="M130.652 22.9899C131.748 22.9899 132.624 23.8007 132.624 24.9324C132.624 26.0473 131.781 26.8581 130.669 26.8581C129.573 26.8581 128.645 26.0304 128.645 24.9155C128.628 23.7838 129.539 22.9899 130.652 22.9899ZM128.932 29.0203H132.321V43.1926H128.932V29.0203Z" fill="black"/>
<path d="M143.331 43.0912C142.606 43.3108 141.847 43.4291 141.004 43.4291C138.306 43.4291 136.705 42.027 136.705 39.2061V31.4865H134.799V28.9865H136.705V26.0642L140.094 24.5946V29.0034H143.213V31.5034H140.094V38.9189C140.094 40.0338 140.566 40.7264 141.813 40.7264C142.285 40.7264 142.825 40.625 143.331 40.4561V43.0912Z" fill="black"/>
<path d="M53.5657 17.6351L59.8041 8.61487H54.2064V6.84122H62.7209V7.7196L56.6512 16.7399H62.5523V18.5135H53.5657V17.6351Z" fill="black"/>
<path d="M68.0657 9.79729C70.6622 9.79729 72.6517 11.6216 72.6517 14.2399C72.6517 16.9257 70.5611 18.6993 67.9814 18.6993C65.3849 18.6993 63.2942 16.8919 63.2942 14.2905C63.2942 11.5878 65.5029 9.79729 68.0657 9.79729ZM70.4599 14.2399C70.4599 12.6689 69.6674 11.3513 67.9814 11.3513C66.2616 11.3513 65.5704 12.7196 65.5704 14.2905C65.5704 15.8108 66.3797 17.0946 68.032 17.0946C69.7349 17.1115 70.4599 15.7432 70.4599 14.2399Z" fill="black"/>
<path d="M74.1355 6.09797H76.1756V11.3345C76.732 10.2703 77.8448 9.7973 79.025 9.7973C81.0651 9.7973 82.0936 11.2331 82.0936 13.1757V18.5304H80.0366V13.3784C80.0366 12.1453 79.3959 11.4696 78.2157 11.4696C76.9006 11.4696 76.1756 12.2804 76.1756 13.4966V18.5135H74.1355V6.09797Z" fill="black"/>
<path d="M88.1971 9.79729C90.7936 9.79729 92.7831 11.6216 92.7831 14.2399C92.7831 16.9257 90.6924 18.6993 88.1128 18.6993C85.5163 18.6993 83.4256 16.8919 83.4256 14.2905C83.4256 11.5878 85.6343 9.79729 88.1971 9.79729ZM90.5913 14.2399C90.5913 12.6689 89.7988 11.3513 88.1128 11.3513C86.393 11.3513 85.7017 12.7196 85.7017 14.2905C85.7017 15.8108 86.5111 17.0946 88.1634 17.0946C89.8663 17.1115 90.5913 15.7432 90.5913 14.2399Z" fill="black"/>
<path d="M22.1547 49.4932C21.7837 49.4932 21.4128 49.3581 21.143 49.0709L15.225 43.1419C14.9552 42.8716 14.8035 42.5 14.8035 42.1284C14.8035 41.7567 14.9552 41.3851 15.225 41.1149L21.143 35.1858C21.6994 34.6284 22.6099 34.6284 23.1663 35.1858L29.0843 41.1149C29.3541 41.3851 29.5058 41.7567 29.5058 42.1284C29.5058 42.5 29.3541 42.8716 29.0843 43.1419L23.1663 49.0709C22.8965 49.3581 22.5256 49.4932 22.1547 49.4932ZM18.2599 42.1284L22.1547 46.0304L26.0494 42.1284L22.1547 38.2263L18.2599 42.1284Z" fill="#E42527"/>
<path d="M33.8052 37.8547C33.4343 37.8547 33.0634 37.7196 32.7936 37.4324L26.8924 31.5203C26.6227 31.25 26.4709 30.8784 26.4709 30.5068C26.4709 30.1351 26.6227 29.7635 26.8924 29.4932L28.7302 27.6689C30.4837 25.9122 31.4448 23.5811 31.4448 21.098C31.4448 18.6149 30.4837 16.2838 28.7302 14.527L28.7134 14.5101C25.1052 10.8953 19.2209 10.8953 15.6128 14.5101C14.1797 15.9459 13.2692 17.7703 12.9826 19.7804C12.7128 21.723 13.0669 23.7331 13.9773 25.4561C14.3483 26.1486 14.0954 27.027 13.3872 27.3986C12.6959 27.7703 11.8192 27.5169 11.4483 26.8074C10.2512 24.5608 9.77907 21.9088 10.1331 19.375C10.5041 16.7399 11.6843 14.3581 13.5727 12.4831C15.8657 10.1858 18.9174 8.91892 22.1547 8.91892C25.3919 8.91892 28.4436 10.1858 30.7366 12.4831L30.7535 12.5C33.0465 14.7973 34.311 17.8547 34.311 21.098C34.311 24.3412 33.0465 27.3986 30.7535 29.6959L29.9442 30.5068L33.8221 34.3919L34.6483 33.5642C37.9866 30.2196 39.8076 25.7939 39.8076 21.0642C39.8076 16.3345 37.9698 11.9088 34.6314 8.56419C31.293 5.21959 26.8756 3.39527 22.1547 3.39527C17.4337 3.39527 13.0163 5.23649 9.67791 8.56419C6.33954 11.8919 4.51861 16.3345 4.51861 21.0642C4.51861 25.7939 6.3564 30.2196 9.67791 33.5642L10.5041 34.3919L15.3936 29.4932C15.95 28.9358 16.8605 28.9358 17.4169 29.4932C17.9733 30.0507 17.9733 30.9628 17.4169 31.5203L11.5157 37.4324C10.9593 37.9899 10.0488 37.9899 9.49244 37.4324L7.63779 35.5912C5.68198 33.6318 4.16454 31.3513 3.13605 28.8007C2.14128 26.3345 1.63547 23.7331 1.63547 21.0642C1.63547 18.3953 2.14128 15.7939 3.13605 13.3277C4.16454 10.777 5.68198 8.49662 7.63779 6.53716C9.59361 4.5777 11.9035 3.04054 14.4494 2.01013C16.8942 1.01351 19.4907 0.506756 22.1547 0.506756C24.8186 0.506756 27.4151 1.01351 29.8767 2.01013C32.4227 3.04054 34.6988 4.56081 36.6547 6.52027C38.6105 8.47973 40.1279 10.777 41.1564 13.3277C42.1512 15.7939 42.657 18.3953 42.657 21.0642C42.657 23.7331 42.1512 26.3345 41.1564 28.8007C40.1279 31.3513 38.6105 33.6318 36.6547 35.5912L34.8 37.4493C34.5302 37.7027 34.1593 37.8547 33.8052 37.8547Z" fill="#E42527"/>
</svg>
