<?xml version="1.0" encoding="UTF-8"?>
<svg id="Layer_1" xmlns="http://www.w3.org/2000/svg" version="1.1" viewBox="0 0 990 296">
  
  <defs>
    
  </defs>
  <g>
    <g>
      <path d="M369.84,140.8h41.59c5.75,0,11.25.58,16.48,1.73,5.23,1.15,9.82,3.07,13.77,5.77,3.95,2.69,7.1,6.24,9.46,10.63s3.53,9.86,3.53,16.4c0,4.08-.59,7.81-1.77,11.18-1.18,3.37-2.86,6.36-5.06,8.95-2.2,2.59-4.87,4.79-8,6.59s-6.67,3.18-10.59,4.12l32.33,49.52h-24.01l-29.9-46.3h-15.54v46.3h-22.29v-114.88ZM410.8,194c3.19,0,6.15-.33,8.87-.98,2.72-.65,5.06-1.71,7.02-3.18,1.96-1.46,3.5-3.37,4.63-5.73,1.12-2.35,1.69-5.26,1.69-8.71s-.59-6.47-1.77-8.75c-1.18-2.28-2.77-4.07-4.79-5.38-2.01-1.31-4.37-2.21-7.06-2.71-2.7-.5-5.56-.75-8.59-.75h-18.68v36.18h18.68Z"></path>
      <path d="M544.59,237.39c-1.73,3.72-3.94,6.84-6.63,9.38-2.69,2.54-5.68,4.58-8.95,6.12-3.27,1.54-6.78,2.66-10.52,3.33-3.74.68-7.55,1.02-11.42,1.02-6.64,0-12.63-1.06-17.97-3.18-5.34-2.12-9.88-5.1-13.62-8.95-3.74-3.84-6.62-8.46-8.63-13.85-2.01-5.39-3.02-11.35-3.02-17.89,0-6.17,1.02-11.91,3.06-17.22,2.04-5.31,4.92-9.91,8.63-13.81,3.71-3.9,8.16-6.96,13.34-9.18,5.18-2.22,10.93-3.33,17.26-3.33,13.6,0,23.74,3.99,30.41,11.97,6.67,7.98,10,20.08,10,36.29h-62.23c0,3.56.51,6.84,1.53,9.85,1.02,3.01,2.52,5.6,4.51,7.77,1.99,2.17,4.45,3.87,7.38,5.1,2.93,1.23,6.3,1.84,10.12,1.84,4.6,0,8.71-.97,12.32-2.9,3.61-1.93,6.51-5.05,8.71-9.34l15.69,6.98ZM526.55,204.91c-.31-6.38-2.26-11.39-5.85-15.03-3.58-3.64-8.36-5.45-14.32-5.45-3.14,0-5.96.52-8.47,1.57-2.51,1.05-4.67,2.49-6.47,4.32-1.8,1.83-3.28,3.99-4.43,6.47-1.15,2.49-1.94,5.19-2.35,8.12h41.9Z"></path>
      <path d="M605.25,255.05c-2.2.63-4.42,1.12-6.67,1.49-2.25.37-4.63.55-7.14.55-8,0-14.26-2.08-18.75-6.24-4.5-4.16-6.75-10.42-6.75-18.79v-45.67h-11.3v-14.75h11.3v-17.34l20.09-8.71v26.05h18.52v14.75h-18.52v43.87c0,3.3.77,5.9,2.31,7.81,1.54,1.91,4.17,2.86,7.89,2.86,1.41,0,2.89-.14,4.43-.43,1.54-.29,3.07-.69,4.59-1.22v15.77Z"></path>
      <path d="M670.54,245.4c-3.19,4.24-7.02,7.27-11.5,9.1-4.47,1.83-9.33,2.75-14.56,2.75-3.92,0-7.6-.5-11.03-1.49-3.43-.99-6.41-2.51-8.95-4.55-2.54-2.04-4.54-4.59-6-7.65-1.47-3.06-2.2-6.66-2.2-10.79,0-3.87.64-7.23,1.92-10.08,1.28-2.85,3.01-5.27,5.18-7.26,2.17-1.99,4.72-3.61,7.65-4.87,2.93-1.26,6.03-2.24,9.3-2.94,3.27-.71,6.63-1.19,10.08-1.45,3.45-.26,6.8-.39,10.04-.39h9.89v-1.33c0-2.98-.22-5.69-.67-8.12-.45-2.43-1.27-4.5-2.47-6.2-1.2-1.7-2.86-3.01-4.98-3.92-2.12-.91-4.88-1.37-8.28-1.37-4.08,0-7.83,1.03-11.26,3.1-3.43,2.07-5.9,5.04-7.42,8.91l-15.62-6.75c1.41-3.71,3.4-6.85,5.96-9.42,2.56-2.56,5.47-4.66,8.71-6.28,3.24-1.62,6.72-2.79,10.44-3.49,3.71-.71,7.46-1.06,11.22-1.06,4.97,0,9.55.62,13.73,1.84,4.18,1.23,7.81,3.1,10.87,5.61s5.44,5.72,7.14,9.61,2.55,8.51,2.55,13.85v54.93h-19.78v-10.28ZM660.26,218.09c-2.3,0-4.85.12-7.65.35-2.8.24-5.41.82-7.85,1.77-2.43.94-4.46,2.33-6.08,4.16-1.62,1.83-2.43,4.34-2.43,7.53,0,2.04.34,3.75,1.02,5.14.68,1.39,1.63,2.52,2.86,3.41,1.23.89,2.65,1.53,4.28,1.92,1.62.39,3.37.59,5.26.59,2.56,0,5.07-.34,7.53-1.02,2.46-.68,4.67-1.7,6.63-3.06,1.96-1.36,3.54-3.1,4.75-5.22,1.2-2.12,1.81-4.59,1.81-7.42v-8.16h-10.12Z"></path>
      <path d="M710.25,147.47c0-1.67.31-3.2.94-4.59.63-1.39,1.49-2.59,2.59-3.61,1.1-1.02,2.37-1.8,3.81-2.35,1.44-.55,2.97-.82,4.59-.82s3.14.29,4.55.86c1.41.58,2.65,1.37,3.73,2.39,1.07,1.02,1.91,2.22,2.51,3.61.6,1.39.9,2.92.9,4.59s-.3,3.14-.9,4.55-1.41,2.62-2.43,3.61c-1.02,1-2.24,1.78-3.65,2.35-1.41.58-2.96.86-4.63.86s-3.17-.29-4.63-.86c-1.46-.58-2.75-1.37-3.85-2.39-1.1-1.02-1.96-2.24-2.59-3.65-.63-1.41-.94-2.93-.94-4.55ZM712.05,171.79h20.09v83.89h-20.09v-83.89Z"></path>
      <path d="M755.45,137.58l20.09-8.71v126.81h-20.09v-118.1Z"></path>
      <path d="M799.08,140.8h26.21v114.88h-26.21v-114.88Z"></path>
      <path d="M923.85,254.11c-3.51,1.1-7.08,1.93-10.71,2.51-3.64.58-7.42.86-11.34.86-8.84,0-16.87-1.45-24.09-4.36-7.22-2.9-13.38-6.98-18.48-12.24s-9.05-11.56-11.85-18.91c-2.8-7.35-4.2-15.45-4.2-24.29s1.49-16.45,4.47-23.62c2.98-7.17,7.1-13.35,12.36-18.56,5.26-5.2,11.5-9.26,18.72-12.16,7.22-2.9,15.09-4.35,23.62-4.35s16.88,1.44,24.13,4.32c7.25,2.88,13.46,6.91,18.64,12.08,5.18,5.18,9.19,11.39,12.05,18.64,2.85,7.25,4.28,15.24,4.28,23.97,0,4.29-.37,8.55-1.1,12.79-.73,4.24-1.87,8.29-3.41,12.16-1.54,3.87-3.51,7.55-5.89,11.03-2.38,3.48-5.22,6.63-8.51,9.46l11.69,12.55-14.75,14.6-15.62-16.48ZM912.94,211.66l13.5,14.6c3.09-4.24,5.17-8.83,6.24-13.77,1.07-4.94,1.61-9.98,1.61-15.11s-.64-9.74-1.92-14.32c-1.28-4.58-3.26-8.6-5.92-12.08-2.67-3.48-6.04-6.25-10.12-8.32-4.08-2.07-8.92-3.1-14.52-3.1s-10.55,1.07-14.56,3.22c-4,2.15-7.26,5.02-9.77,8.63-2.51,3.61-4.33,7.78-5.45,12.52-1.12,4.74-1.69,9.69-1.69,14.87s.65,9.78,1.96,14.44,3.31,8.78,6,12.36c2.69,3.58,6.09,6.45,10.2,8.59,4.11,2.15,8.96,3.22,14.56,3.22.73,0,1.53-.03,2.39-.08.86-.05,1.74-.16,2.63-.31l-10.28-11.22,15.15-14.12Z"></path>
    </g>
    <g>
      <path d="M369.99,104.43l36.97-53.42h-33.23v-10.54h50.63v5.25l-36.07,53.42h35.03v10.54h-53.32v-5.25Z"></path>
      <path d="M427.71,84.48c0-3.97.76-7.59,2.29-10.85,1.53-3.26,3.58-6.05,6.17-8.37,2.58-2.32,5.58-4.11,9-5.39,3.42-1.28,7.04-1.91,10.85-1.91s7.42.64,10.73,1.91c3.31,1.28,6.18,3.07,8.63,5.39s4.36,5.09,5.74,8.32c1.39,3.23,2.08,6.78,2.08,10.66s-.73,7.58-2.17,10.83c-1.45,3.25-3.43,6.02-5.93,8.32-2.51,2.3-5.44,4.08-8.82,5.34-3.37,1.26-6.97,1.89-10.78,1.89s-7.46-.64-10.85-1.91c-3.39-1.28-6.33-3.06-8.84-5.37-2.51-2.3-4.48-5.05-5.93-8.25-1.45-3.2-2.17-6.74-2.17-10.61ZM455.84,101.3c2.52,0,4.69-.47,6.5-1.42,1.81-.95,3.3-2.2,4.47-3.76,1.17-1.56,2.03-3.36,2.58-5.41.55-2.05.83-4.18.83-6.38,0-2.33-.3-4.53-.9-6.59-.6-2.06-1.51-3.88-2.72-5.44-1.21-1.56-2.73-2.79-4.56-3.69-1.83-.9-3.99-1.35-6.48-1.35s-4.74.47-6.55,1.42c-1.81.95-3.29,2.21-4.42,3.81-1.13,1.59-1.97,3.44-2.5,5.53-.54,2.1-.8,4.31-.8,6.64s.3,4.37.9,6.38,1.5,3.78,2.72,5.29c1.21,1.51,2.73,2.72,4.54,3.62,1.81.9,3.95,1.35,6.41,1.35Z"></path>
      <path d="M492.05,36.12h12.1v30.96c.82-1.58,1.83-2.94,3.05-4.09,1.21-1.15,2.55-2.1,4.02-2.84,1.46-.74,3.04-1.29,4.73-1.65,1.69-.36,3.4-.54,5.13-.54,3.03,0,5.67.5,7.94,1.51,2.27,1.01,4.16,2.4,5.67,4.18,1.51,1.78,2.65,3.89,3.4,6.33.76,2.44,1.13,5.11,1.13,8.01v31.67h-12.2v-30.49c0-3.66-.92-6.45-2.77-8.37s-4.53-2.88-8.06-2.88c-3.91,0-6.89,1.09-8.96,3.29s-3.1,5.1-3.1,8.72v29.73h-12.1V36.12Z"></path>
      <path d="M547.08,84.48c0-3.97.76-7.59,2.29-10.85,1.53-3.26,3.58-6.05,6.17-8.37,2.58-2.32,5.58-4.11,9-5.39,3.42-1.28,7.04-1.91,10.85-1.91s7.42.64,10.73,1.91c3.31,1.28,6.18,3.07,8.63,5.39s4.36,5.09,5.74,8.32c1.39,3.23,2.08,6.78,2.08,10.66s-.73,7.58-2.17,10.83c-1.45,3.25-3.43,6.02-5.93,8.32-2.51,2.3-5.44,4.08-8.82,5.34-3.37,1.26-6.97,1.89-10.78,1.89s-7.46-.64-10.85-1.91c-3.39-1.28-6.33-3.06-8.84-5.37-2.51-2.3-4.48-5.05-5.93-8.25-1.45-3.2-2.17-6.74-2.17-10.61ZM575.2,101.3c2.52,0,4.69-.47,6.5-1.42,1.81-.95,3.3-2.2,4.47-3.76,1.17-1.56,2.03-3.36,2.58-5.41.55-2.05.83-4.18.83-6.38,0-2.33-.3-4.53-.9-6.59-.6-2.06-1.51-3.88-2.72-5.44-1.21-1.56-2.73-2.79-4.56-3.69-1.83-.9-3.99-1.35-6.48-1.35s-4.74.47-6.55,1.42c-1.81.95-3.29,2.21-4.42,3.81-1.13,1.59-1.97,3.44-2.5,5.53-.54,2.1-.8,4.31-.8,6.64s.3,4.37.9,6.38,1.5,3.78,2.72,5.29c1.21,1.51,2.73,2.72,4.54,3.62,1.81.9,3.95,1.35,6.41,1.35Z"></path>
    </g>
  </g>
  <g>
    <path class="st0" d="M249.58,109.2c-4.69,0-8.5-3.8-8.5-8.5,0-21.56-8.4-41.83-23.64-57.07s-35.51-23.64-57.07-23.64-41.83,8.4-57.07,23.64-23.64,35.51-23.64,57.07c0,4.69-3.8,8.5-8.5,8.5s-8.5-3.8-8.5-8.5c0-13.19,2.58-25.98,7.68-38.03,4.92-11.64,11.97-22.08,20.94-31.05,8.97-8.97,19.42-16.01,31.05-20.94,12.05-5.1,24.85-7.68,38.03-7.68s25.98,2.58,38.03,7.68c11.64,4.92,22.08,11.97,31.05,20.94,8.97,8.97,16.01,19.42,20.94,31.05,5.1,12.05,7.68,24.85,7.68,38.03,0,4.69-3.8,8.5-8.5,8.5Z"></path>
    <path class="st0" d="M183.03,92.21h-14.15v-20.62h14.14c1.56,0,2.83,1.27,2.83,2.83v3.38c0,4.69,3.8,8.5,8.5,8.5s8.5-3.8,8.5-8.5v-3.38c0-10.93-8.89-19.82-19.82-19.82h-14.14v-8.98c0-4.69-3.8-8.5-8.5-8.5s-8.5,3.8-8.5,8.5v8.98h-14.17c-10.93,0-19.82,8.89-19.82,19.82v14.96c0,10.93,8.89,19.82,19.82,19.82h14.17v20.62h-14.16c-1.56,0-2.83-1.27-2.83-2.83v-3.38c0-4.69-3.8-8.5-8.5-8.5s-8.5,3.8-8.5,8.5v3.38c0,10.93,8.89,19.82,19.82,19.82h14.16v8.64c0,4.69,3.8,8.5,8.5,8.5s8.5-3.8,8.5-8.5v-8.64h14.15c10.93,0,19.82-8.89,19.82-19.82v-14.96c0-10.93-8.89-19.82-19.82-19.82ZM137.72,92.21c-1.56,0-2.83-1.27-2.83-2.83v-14.96c0-1.56,1.27-2.83,2.83-2.83h14.17v20.62h-14.17ZM185.86,126.99c0,1.56-1.27,2.83-2.83,2.83h-14.15v-20.62h14.15c1.56,0,2.83,1.27,2.83,2.83v14.96Z"></path>
    <path class="st1" d="M305.38,101.11s0-.1,0-.15c0-.09,0-.18,0-.27,0-.06,0-.11,0-.17,0-.08,0-.17,0-.25,0-.06,0-.12-.01-.18,0-.08-.01-.17-.02-.25,0-.06-.01-.11-.02-.17-.01-.09-.02-.18-.04-.27,0-.05-.01-.1-.02-.15-.02-.11-.04-.22-.06-.33,0-.03-.01-.06-.02-.08-.25-1.12-.73-2.2-1.44-3.16,0,0-.01-.02-.02-.03-.08-.1-.16-.21-.24-.31-.02-.02-.03-.04-.05-.06-.07-.09-.15-.18-.23-.26-.01-.01-.02-.03-.04-.04-.02-.02-.03-.03-.05-.05-.07-.07-.14-.14-.21-.21-.04-.04-.08-.08-.12-.12-.06-.06-.12-.12-.19-.17-.05-.04-.1-.09-.15-.13-.03-.02-.05-.05-.08-.07-.03-.03-.07-.05-.1-.08-.05-.04-.1-.08-.16-.13-.07-.05-.13-.1-.2-.15-.05-.03-.09-.07-.14-.1-.08-.06-.16-.11-.24-.16-.04-.02-.07-.05-.11-.07-.1-.06-.19-.12-.29-.18-.02-.01-.04-.03-.07-.04-.11-.06-.23-.13-.34-.18,0,0-.02,0-.03-.01-.93-.47-1.92-.76-2.93-.86h0c-.14-.01-.28-.03-.42-.03-.04,0-.08,0-.12,0-.1,0-.2,0-.31,0-.02,0-.03,0-.05,0h-64.44c-4.69,0-8.5,3.8-8.5,8.5s3.8,8.5,8.5,8.5h46.11l-87.77,103.67-19.6-23.22c-2.7-3.19-6.64-5.03-10.82-5.03h0c-4.18,0-8.12,1.83-10.82,5.02l-34.48,40.81-9-10.63c-2.7-3.18-6.63-5.01-10.81-5.01h0c-4.17,0-8.11,1.83-10.81,5.02l-36.38,43.04c-.56-1.56-.93-3.19-1.08-4.86l-12.93-139.53c-.22-2.41.55-4.72,2.18-6.51s3.86-2.77,6.28-2.77h45.78c4.69,0,8.5-3.8,8.5-8.5s-3.8-8.5-8.5-8.5h-45.78c-7.15,0-14.02,3.03-18.84,8.32-4.82,5.29-7.2,12.4-6.54,19.52l12.93,139.53c.83,8.96,4.88,17.25,11.43,23.41.05.05.1.09.15.14.09.09.19.18.28.26,6.8,6.2,15.61,9.61,24.8,9.61h187.31c9.2,0,18.01-3.41,24.8-9.61,6.8-6.2,11.01-14.65,11.86-23.81l5.53-59.66c.43-4.67-3-8.81-7.68-9.24-4.67-.43-8.81,3-9.24,7.68l-5.53,59.66c-.46,4.93-2.72,9.48-6.38,12.82-3.66,3.34-8.4,5.17-13.36,5.17H66.73c-2.26,0-4.47-.39-6.56-1.12l35.1-41.53,9,10.63c2.7,3.18,6.63,5.01,10.81,5.01h0c4.17,0,8.11-1.83,10.81-5.02l34.48-40.8,19.6,23.22c2.69,3.19,6.63,5.02,10.81,5.03h.01c4.17,0,8.11-1.83,10.81-5.01l84.34-99.62-3.43,37.02c-.43,4.67,3,8.81,7.68,9.24.27.02.53.04.79.04,4.34,0,8.04-3.31,8.45-7.71l5.92-63.88s0-.05,0-.08c0-.1.02-.2.02-.31Z"></path>
  </g>
</svg>