<svg width="158" height="50" viewBox="0 0 158 50" fill="none" xmlns="http://www.w3.org/2000/svg">
<path d="M62.0066 37.3479C62.7966 39.5608 64.7464 40.7094 67.0996 40.7094C68.8813 40.7094 70.747 39.7635 70.747 37.7365C70.747 35.5912 68.6291 35.2027 66.2928 34.7804C63.3008 34.2398 60.0064 33.5979 60.0064 29.1385C60.0064 25.4054 63.3345 23.5135 66.6625 23.5135C69.7553 23.5135 72.4783 24.7804 73.6717 27.804L70.9319 29.054C70.1083 27.3479 68.5787 26.3175 66.6121 26.3175C65.0489 26.3175 63.4689 26.9763 63.4689 28.8682C63.4689 30.9628 65.4187 31.3344 67.7719 31.7567C70.7974 32.2973 74.2936 32.9054 74.2936 37.4493C74.2936 41.3851 70.6462 43.4628 67.0828 43.4628C63.6202 43.4628 60.124 42.2128 59.0819 38.6148L62.0066 37.3479Z" fill="black"/>
<path d="M85.2528 41.4527C84.177 42.8885 82.6138 43.4459 80.8657 43.4459C78.21 43.4459 76.1257 42.0946 76.1257 39.3074C76.1257 35.3716 80.2606 34.7466 83.5551 34.7466H85.2191V34.527C85.2191 32.5 84.7485 31.2162 82.4625 31.2162C81.0842 31.2162 79.8236 31.9256 79.3193 33.2432L76.6972 32.1114C77.6385 29.6114 80.2774 28.6993 82.7987 28.6993C86.1436 28.6993 88.564 30.3209 88.564 33.9189V43.1925H85.2359V41.4527H85.2528ZM83.5383 36.8412C81.9751 36.8412 79.5042 37.027 79.5042 39.1723C79.5042 40.5405 80.4959 41.0473 81.7566 41.0473C83.4711 41.0473 85.2359 40.152 85.2359 38.2263V36.8412H83.5383Z" fill="black"/>
<path d="M92.2451 23.2432L95.6236 21.7736V43.1925H92.2451V23.2432Z" fill="black"/>
<path d="M112.029 40.1014C110.852 42.6014 108.314 43.4628 105.726 43.4628C101.271 43.4628 98.4642 40.473 98.4642 36.0473C98.4642 31.8919 101.322 28.6824 105.574 28.6824C110.146 28.6824 112.365 31.3682 112.365 36.8412H101.91C101.91 39.2399 103.288 40.9966 105.86 40.9966C107.39 40.9966 108.65 40.3716 109.39 38.9358L112.029 40.1014ZM109.003 34.6115C108.902 32.4662 107.608 31.1486 105.608 31.1486C103.49 31.1486 102.246 32.652 101.96 34.6115H109.003Z" fill="black"/>
<path d="M116.634 38.9527C117.155 40.3378 118.601 41.0135 120.13 41.0135C121.223 41.0135 122.584 40.6757 122.584 39.3243C122.584 37.9054 121.055 37.5676 119.307 37.1959C117.038 36.723 114.5 36.1655 114.5 32.973C114.5 30.0507 117.206 28.6655 119.761 28.6655C121.996 28.6655 124.568 29.5101 125.492 31.7567L122.988 32.8378C122.433 31.5709 121.055 31.098 119.895 31.098C118.769 31.098 117.693 31.554 117.693 32.7027C117.693 34.0034 119.071 34.2736 120.786 34.6115C123.089 35.0676 125.845 35.5912 125.845 38.902C125.845 42.2466 123.055 43.429 120.114 43.429C117.626 43.429 114.937 42.5844 114.063 40.0338L116.634 38.9527Z" fill="black"/>
<path d="M128.77 23.7838H132.501V43.1925H128.77V23.7838Z" fill="black"/>
<path d="M149.411 42.804C148.184 43.2432 146.89 43.4459 145.545 43.4459C139.645 43.4459 135.678 39.2905 135.678 33.3783C135.678 27.652 139.88 23.4966 145.696 23.4966C151.495 23.4966 155.428 27.652 155.428 33.4628C155.428 36.5033 154.353 39.2905 152.083 41.25L154.235 43.5641L152.083 45.6756L149.411 42.804ZM147.545 36.3513L149.797 38.7837C151.109 37.2804 151.562 35.304 151.562 33.3277C151.562 29.6452 149.579 26.4527 145.461 26.4527C141.326 26.4527 139.578 29.6959 139.578 33.5641C139.578 37.2128 141.713 40.5405 145.646 40.5405C146.15 40.5405 146.654 40.4898 147.142 40.3547L145.326 38.4121L147.545 36.3513Z" fill="black"/>
<path d="M60.5443 17.6351L66.7634 8.61484H61.183V6.84119H69.6881V7.71956L63.6202 16.7398H69.5032V18.5135H60.5443V17.6351Z" fill="black"/>
<path d="M74.9996 9.7973C77.5881 9.7973 79.5715 11.6216 79.5715 14.2399C79.5715 16.9257 77.4872 18.6993 74.9155 18.6993C72.327 18.6993 70.2428 16.8919 70.2428 14.2905C70.2428 11.5878 72.4447 9.7973 74.9996 9.7973ZM77.3864 14.2399C77.3864 12.6689 76.5964 11.3514 74.9155 11.3514C73.2011 11.3514 72.5119 12.7196 72.5119 14.2905C72.5119 15.8108 73.3187 17.0946 74.9659 17.0946C76.6636 17.1115 77.3864 15.7432 77.3864 14.2399Z" fill="black"/>
<path d="M81.0506 6.09796H83.0845V11.3344C83.6391 10.2703 84.7485 9.79729 85.9251 9.79729C87.9589 9.79729 88.9842 11.2331 88.9842 13.1757V18.5304H86.9336V13.3784C86.9336 12.1453 86.2949 11.4696 85.1183 11.4696C83.8072 11.4696 83.0845 12.2804 83.0845 13.4966V18.5135H81.0506V6.09796Z" fill="black"/>
<path d="M95.0689 9.7973C97.6574 9.7973 99.6408 11.6216 99.6408 14.2399C99.6408 16.9257 97.5566 18.6993 94.9849 18.6993C92.3964 18.6993 90.3121 16.8919 90.3121 14.2905C90.3121 11.5878 92.514 9.7973 95.0689 9.7973ZM97.4557 14.2399C97.4557 12.6689 96.6657 11.3514 94.9849 11.3514C93.2704 11.3514 92.5813 12.7196 92.5813 14.2905C92.5813 15.8108 93.3881 17.0946 95.0353 17.0946C96.733 17.1115 97.4557 15.7432 97.4557 14.2399Z" fill="black"/>
<path d="M49.2826 47.027L43.534 41.2669C45.2989 39.2568 46.7277 37.0102 47.7698 34.527C49.0304 31.5034 49.686 28.3108 49.686 25C49.686 21.6892 49.0472 18.4797 47.7698 15.473C46.5428 12.5507 44.7779 9.93245 42.5424 7.68583C40.3068 5.43921 37.7015 3.66556 34.7936 2.43245C31.7849 1.14867 28.6081 0.506775 25.3136 0.506775C22.0192 0.506775 18.8255 1.14867 15.8168 2.43245C12.9258 3.66556 10.3204 5.43921 8.06809 7.68583C5.81575 9.93245 4.08448 12.5507 2.85745 15.473C1.58001 18.4797 0.941284 21.6892 0.941284 25C0.941284 28.3108 1.58001 31.5203 2.85745 34.527C4.08448 37.4493 5.84937 40.0676 8.0849 42.3142C10.3204 44.5608 12.9258 46.3345 15.8336 47.5676C18.8255 48.8514 22.0192 49.4933 25.3136 49.4933L48.2741 49.4764C48.8455 49.4764 49.3666 49.1216 49.6019 48.5811C49.8204 48.0574 49.7028 47.4324 49.2826 47.027ZM25.3136 46.6216C22.4058 46.6216 19.5987 46.0473 16.943 44.9156C14.3881 43.8345 12.0853 42.2635 10.1019 40.2872C8.11852 38.3108 6.57214 35.9966 5.49639 33.4122C4.37022 30.7433 3.79873 27.9223 3.79873 25C3.79873 22.0777 4.37022 19.2568 5.49639 16.5879C6.57214 14.0203 8.13533 11.7061 10.1019 9.71286C12.0853 7.71961 14.3713 6.16556 16.943 5.08448C19.5987 3.95272 22.4058 3.3784 25.3136 3.3784C28.2215 3.3784 31.0285 3.95272 33.6843 5.08448C36.2392 6.16556 38.5419 7.7365 40.5253 9.71286C42.5087 11.7061 44.0551 14.0034 45.1309 16.5879C46.257 19.2568 46.8285 22.0777 46.8285 25C46.8285 27.9223 46.257 30.7433 45.1477 33.3953C44.2568 35.5237 43.0298 37.4831 41.517 39.223L28.7762 26.4358H30.6755C31.4655 26.4358 32.1043 25.7939 32.1043 25C32.1043 24.2061 31.4655 23.5642 30.6755 23.5642H25.3472C25.3472 23.5642 25.3472 23.5642 25.3304 23.5642C24.9606 23.5642 24.5909 23.6993 24.3051 23.9865C23.9689 24.3243 23.8345 24.8142 23.9017 25.2534V30.3547C23.9017 31.1487 24.5404 31.7906 25.3304 31.7906C26.1204 31.7906 26.7592 31.1487 26.7592 30.3547V28.4797L44.8283 46.6047L25.3136 46.6216Z" fill="#E42527"/>
<path d="M25.3136 34.6622C20.0189 34.6622 15.6992 30.321 15.6992 25C15.6992 19.6791 20.0189 15.3379 25.3136 15.3379C30.6083 15.3379 34.9281 19.6791 34.9281 25C34.9281 25.8446 34.8272 26.6723 34.6087 27.4662C34.407 28.2264 34.8609 29.0203 35.6341 29.223C36.3904 29.4257 37.1804 28.9696 37.3821 28.1926C37.6511 27.1453 37.7855 26.0811 37.7855 24.9831C37.7855 21.6385 36.4913 18.4797 34.1381 16.1149C31.7849 13.75 28.6585 12.4493 25.3136 12.4493C21.9687 12.4493 18.8424 13.75 16.4892 16.1149C14.136 18.4797 12.8585 21.6554 12.8585 25C12.8585 28.3446 14.1528 31.5034 16.506 33.8683C18.8592 36.2331 21.9855 37.5338 25.3304 37.5338C26.4566 37.5338 27.566 37.3818 28.6417 37.0946C29.3981 36.8919 29.8519 36.098 29.6502 35.321C29.4485 34.5608 28.6585 34.1047 27.8853 34.3075C27.0449 34.5439 26.1877 34.6622 25.3136 34.6622Z" fill="#E42527"/>
</svg>
