<?xml version="1.0" encoding="UTF-8"?>
<svg id="Layer_1" data-name="Layer 1" xmlns="http://www.w3.org/2000/svg" version="1.1" viewBox="0 0 1300 296">
  <g>
    <g>
      <path d="M358.15,221.07c1.2,3.3,2.8,6.17,4.79,8.63,1.99,2.46,4.29,4.53,6.91,6.2,2.62,1.68,5.49,2.93,8.63,3.77s6.46,1.25,9.97,1.25c2.67,0,5.3-.35,7.89-1.06,2.59-.71,4.9-1.78,6.94-3.22,2.04-1.44,3.7-3.27,4.98-5.49,1.28-2.22,1.92-4.83,1.92-7.81,0-3.19-.73-5.78-2.2-7.77-1.47-1.99-3.41-3.6-5.85-4.83s-5.25-2.2-8.44-2.9c-3.19-.71-6.54-1.37-10.04-2-4.45-.78-8.89-1.74-13.34-2.86-4.45-1.12-8.45-2.84-12.01-5.14-3.56-2.3-6.45-5.47-8.67-9.5-2.22-4.03-3.33-9.34-3.33-15.93,0-5.49,1.14-10.32,3.41-14.48,2.28-4.16,5.27-7.64,8.98-10.44,3.71-2.8,7.94-4.89,12.67-6.28,4.73-1.39,9.59-2.08,14.56-2.08,4.6,0,9.02.48,13.26,1.45,4.24.97,8.17,2.49,11.81,4.55,3.64,2.07,6.88,4.7,9.73,7.89,2.85,3.19,5.17,7.04,6.95,11.54l-16.32,7.38c-2.46-5.07-5.89-9.05-10.28-11.93-4.39-2.88-9.52-4.32-15.38-4.32-2.35,0-4.64.26-6.87.79-2.22.52-4.21,1.39-5.96,2.59-1.75,1.2-3.17,2.76-4.24,4.67-1.07,1.91-1.61,4.28-1.61,7.1,0,3.09.68,5.6,2.04,7.53,1.36,1.94,3.2,3.51,5.53,4.71,2.33,1.2,5.04,2.16,8.12,2.86,3.09.71,6.38,1.37,9.89,2,3.03.52,6.08,1.1,9.14,1.73s6.03,1.45,8.91,2.47c2.88,1.02,5.57,2.29,8.08,3.81,2.51,1.52,4.71,3.43,6.59,5.73,1.88,2.3,3.36,5.09,4.43,8.36,1.07,3.27,1.61,7.13,1.61,11.58,0,5.81-1.24,10.93-3.73,15.38-2.49,4.45-5.74,8.17-9.77,11.18-4.03,3.01-8.62,5.27-13.77,6.79-5.15,1.52-10.37,2.28-15.66,2.28s-10.27-.5-15.26-1.49c-5-.99-9.64-2.62-13.93-4.87-4.29-2.25-8.04-5.2-11.26-8.87-3.22-3.66-5.61-8.16-7.18-13.5l17.34-7.46Z" fill="#000" stroke-width="0"></path>
      <path d="M523.41,237.39c-1.73,3.72-3.94,6.84-6.63,9.38-2.69,2.54-5.68,4.58-8.95,6.12-3.27,1.54-6.78,2.66-10.52,3.33-3.74.68-7.55,1.02-11.42,1.02-6.64,0-12.63-1.06-17.97-3.18-5.34-2.12-9.88-5.1-13.62-8.95-3.74-3.84-6.62-8.46-8.63-13.85-2.01-5.39-3.02-11.35-3.02-17.89,0-6.17,1.02-11.91,3.06-17.22,2.04-5.31,4.92-9.91,8.63-13.81,3.71-3.9,8.16-6.96,13.34-9.18,5.18-2.22,10.93-3.33,17.26-3.33,13.6,0,23.74,3.99,30.41,11.97,6.67,7.98,10,20.08,10,36.29h-62.23c0,3.56.51,6.84,1.53,9.85,1.02,3.01,2.52,5.6,4.51,7.77,1.99,2.17,4.45,3.87,7.38,5.1,2.93,1.23,6.3,1.84,10.12,1.84,4.6,0,8.71-.97,12.32-2.9,3.61-1.93,6.51-5.05,8.71-9.34l15.69,6.98ZM505.37,204.91c-.31-6.38-2.26-11.39-5.85-15.03-3.58-3.64-8.36-5.45-14.32-5.45-3.14,0-5.96.52-8.47,1.57-2.51,1.05-4.67,2.49-6.47,4.32-1.8,1.83-3.28,3.99-4.43,6.47-1.15,2.49-1.94,5.19-2.35,8.12h41.9Z" fill="#000" stroke-width="0"></path>
      <path d="M541.54,171.63h20.09v15.77c2.83-5.81,6.53-10.1,11.1-12.87,4.58-2.77,10.08-4.16,16.52-4.16v18.6c-4.08,0-7.81.37-11.18,1.1-3.38.73-6.28,2-8.71,3.81s-4.33,4.2-5.69,7.18c-1.36,2.98-2.04,6.72-2.04,11.22v43.4h-20.09v-84.04Z" fill="#000" stroke-width="0"></path>
      <path d="M597.02,171.63h21.5l21.74,63.64,21.5-63.64h19.62l-30.29,84.04h-23.54l-30.53-84.04Z" fill="#000" stroke-width="0"></path>
      <path d="M692.05,147.46c0-1.67.31-3.2.94-4.59.63-1.39,1.49-2.59,2.59-3.61,1.1-1.02,2.37-1.8,3.81-2.35,1.44-.55,2.97-.82,4.59-.82s3.14.29,4.55.86c1.41.58,2.65,1.37,3.73,2.39,1.07,1.02,1.91,2.22,2.51,3.61.6,1.39.9,2.92.9,4.59s-.3,3.14-.9,4.55-1.41,2.62-2.43,3.61c-1.02,1-2.24,1.78-3.65,2.35-1.41.58-2.96.86-4.63.86s-3.17-.29-4.63-.86c-1.46-.58-2.75-1.37-3.85-2.39-1.1-1.02-1.96-2.24-2.59-3.65-.63-1.41-.94-2.93-.94-4.55ZM693.86,171.79h20.09v83.89h-20.09v-83.89Z" fill="#000" stroke-width="0"></path>
      <path d="M812.51,231.9c-1.41,4.39-3.4,8.19-5.96,11.38-2.56,3.19-5.54,5.82-8.95,7.89-3.4,2.07-7.14,3.6-11.22,4.59-4.08.99-8.32,1.49-12.71,1.49-6.64,0-12.61-1.07-17.89-3.22-5.29-2.14-9.76-5.14-13.42-8.99-3.66-3.85-6.46-8.46-8.4-13.85-1.94-5.39-2.9-11.33-2.9-17.81s1.06-12.01,3.18-17.34,5.09-9.94,8.91-13.81c3.82-3.87,8.36-6.91,13.62-9.1s11.05-3.3,17.38-3.3c4.24,0,8.3.46,12.2,1.37,3.9.92,7.49,2.33,10.79,4.24,3.3,1.91,6.21,4.35,8.75,7.34,2.54,2.98,4.59,6.54,6.16,10.67l-16.24,7.14c-1.67-4.76-4.43-8.42-8.28-10.99-3.84-2.56-8.31-3.85-13.38-3.85-4.08,0-7.55.81-10.4,2.43-2.85,1.62-5.17,3.78-6.95,6.47-1.78,2.69-3.07,5.75-3.88,9.18-.81,3.43-1.22,6.95-1.22,10.55s.42,7.25,1.26,10.59c.84,3.35,2.17,6.28,4,8.79,1.83,2.51,4.18,4.51,7.06,6,2.88,1.49,6.36,2.24,10.44,2.24,5.81,0,10.62-1.49,14.44-4.47,3.82-2.98,6.59-7.11,8.32-12.4l15.3,6.75Z" fill="#000" stroke-width="0"></path>
      <path d="M903.53,237.39c-1.73,3.72-3.94,6.84-6.63,9.38-2.69,2.54-5.68,4.58-8.95,6.12-3.27,1.54-6.78,2.66-10.52,3.33-3.74.68-7.55,1.02-11.42,1.02-6.64,0-12.63-1.06-17.97-3.18-5.34-2.12-9.88-5.1-13.62-8.95-3.74-3.84-6.62-8.46-8.63-13.85-2.01-5.39-3.02-11.35-3.02-17.89,0-6.17,1.02-11.91,3.06-17.22,2.04-5.31,4.92-9.91,8.63-13.81,3.71-3.9,8.16-6.96,13.34-9.18,5.18-2.22,10.93-3.33,17.26-3.33,13.6,0,23.74,3.99,30.41,11.97,6.67,7.98,10,20.08,10,36.29h-62.23c0,3.56.51,6.84,1.53,9.85,1.02,3.01,2.52,5.6,4.51,7.77,1.99,2.17,4.45,3.87,7.38,5.1,2.93,1.23,6.3,1.84,10.12,1.84,4.6,0,8.71-.97,12.32-2.9,3.61-1.93,6.51-5.05,8.71-9.34l15.69,6.98ZM885.49,204.91c-.31-6.38-2.26-11.39-5.85-15.03-3.58-3.64-8.36-5.45-14.32-5.45-3.14,0-5.96.52-8.47,1.57-2.51,1.05-4.67,2.49-6.47,4.32-1.8,1.83-3.28,3.99-4.43,6.47-1.15,2.49-1.94,5.19-2.35,8.12h41.9Z" fill="#000" stroke-width="0"></path>
      <path d="M957.76,140.79h39.94c6.07,0,11.72.64,16.95,1.92,5.23,1.28,9.78,3.36,13.65,6.24,3.87,2.88,6.92,6.62,9.14,11.22,2.22,4.6,3.33,10.2,3.33,16.79,0,7.27-1.32,13.21-3.96,17.81-2.64,4.6-6.17,8.2-10.59,10.79-4.42,2.59-9.5,4.37-15.22,5.34-5.73.97-11.65,1.45-17.77,1.45h-13.18v43.32h-22.29v-114.88ZM997.54,196.35c6.85,0,12.15-1.52,15.89-4.55,3.74-3.03,5.61-8.03,5.61-14.99,0-3.61-.51-6.64-1.53-9.1-1.02-2.46-2.47-4.43-4.35-5.92-1.88-1.49-4.15-2.55-6.79-3.18-2.64-.63-5.58-.94-8.83-.94h-17.5v38.69h17.5Z" fill="#000" stroke-width="0"></path>
      <path d="M1056.32,137.58l20.09-8.71v126.81h-20.09v-118.1Z" fill="#000" stroke-width="0"></path>
      <path d="M1155.35,242.49c-1.31,2.56-2.94,4.77-4.9,6.63-1.96,1.86-4.15,3.39-6.55,4.59-2.41,1.2-4.98,2.09-7.73,2.67-2.75.58-5.58.86-8.51.86-4.81,0-9.06-.76-12.75-2.28s-6.78-3.67-9.26-6.47c-2.49-2.8-4.36-6.15-5.61-10.04-1.26-3.9-1.88-8.23-1.88-12.99v-53.83h20.09v51.4c0,5.76,1.36,10.28,4.08,13.58,2.72,3.3,7.01,4.94,12.87,4.94,3.14,0,5.95-.48,8.44-1.45,2.48-.97,4.6-2.33,6.36-4.08s3.09-3.87,4-6.36c.92-2.48,1.37-5.22,1.37-8.2v-49.83h20.01v84.04h-20.01v-13.18Z" fill="#000" stroke-width="0"></path>
      <path d="M1206.28,230.64c.79,2.04,1.88,3.83,3.3,5.38,1.41,1.54,3.03,2.81,4.87,3.81,1.83.99,3.83,1.74,6,2.24,2.17.5,4.38.75,6.63.75,1.62,0,3.29-.14,5.02-.43,1.73-.29,3.3-.81,4.71-1.57,1.41-.76,2.58-1.78,3.49-3.06.92-1.28,1.37-2.92,1.37-4.9,0-2.09-.52-3.82-1.57-5.18-1.05-1.36-2.47-2.5-4.28-3.41-1.8-.92-3.87-1.67-6.2-2.28-2.33-.6-4.8-1.16-7.42-1.69-3.35-.73-6.74-1.56-10.16-2.47-3.43-.92-6.5-2.25-9.22-4-2.72-1.75-4.94-4.09-6.67-7.02-1.73-2.93-2.59-6.75-2.59-11.46,0-4.34.91-8.11,2.75-11.3,1.83-3.19,4.22-5.83,7.18-7.93,2.96-2.09,6.3-3.66,10.04-4.71,3.74-1.05,7.52-1.57,11.34-1.57,3.35,0,6.75.33,10.2.98,3.45.65,6.71,1.71,9.77,3.18,3.06,1.46,5.83,3.36,8.32,5.69,2.48,2.33,4.41,5.14,5.77,8.44l-14.91,6.43c-.84-1.88-1.94-3.46-3.3-4.75-1.36-1.28-2.88-2.34-4.55-3.18-1.67-.84-3.43-1.44-5.26-1.8-1.83-.37-3.61-.55-5.34-.55s-3.3.17-4.87.51c-1.57.34-2.97.89-4.2,1.65-1.23.76-2.21,1.74-2.94,2.94-.73,1.2-1.1,2.67-1.1,4.39,0,1.94.48,3.52,1.45,4.75.97,1.23,2.28,2.25,3.92,3.06,1.65.81,3.6,1.48,5.85,2,2.25.52,4.63,1.02,7.14,1.49,3.45.68,6.96,1.46,10.51,2.35,3.56.89,6.79,2.22,9.69,4s5.27,4.17,7.1,7.18c1.83,3.01,2.75,6.97,2.75,11.89s-.96,9.09-2.86,12.52c-1.91,3.43-4.45,6.19-7.61,8.28-3.17,2.09-6.79,3.61-10.87,4.55-4.08.94-8.32,1.41-12.71,1.41-3.71,0-7.43-.34-11.14-1.02-3.71-.68-7.19-1.8-10.44-3.37-3.24-1.57-6.13-3.64-8.67-6.2-2.54-2.56-4.46-5.73-5.77-9.5l15.46-6.51Z" fill="#000" stroke-width="0"></path>
    </g>
    <g>
      <path d="M349.44,104.42l36.97-53.42h-33.23v-10.54h50.63v5.25l-36.07,53.42h35.03v10.54h-53.32v-5.25Z" fill="#000" stroke-width="0"></path>
      <path d="M407.16,84.47c0-3.97.76-7.59,2.29-10.85,1.53-3.26,3.58-6.05,6.17-8.37,2.58-2.32,5.58-4.11,9-5.39,3.42-1.28,7.04-1.91,10.85-1.91s7.42.64,10.73,1.91c3.31,1.28,6.18,3.07,8.63,5.39s4.36,5.09,5.74,8.32c1.39,3.23,2.08,6.78,2.08,10.66s-.73,7.58-2.17,10.83c-1.45,3.25-3.43,6.02-5.93,8.32-2.51,2.3-5.44,4.08-8.82,5.34-3.37,1.26-6.97,1.89-10.78,1.89s-7.46-.64-10.85-1.91c-3.39-1.28-6.33-3.06-8.84-5.37-2.51-2.3-4.48-5.05-5.93-8.25-1.45-3.2-2.17-6.74-2.17-10.61ZM435.29,101.3c2.52,0,4.69-.47,6.5-1.42,1.81-.95,3.3-2.2,4.47-3.76,1.17-1.56,2.03-3.36,2.58-5.41.55-2.05.83-4.18.83-6.38,0-2.33-.3-4.53-.9-6.59-.6-2.06-1.51-3.88-2.72-5.44-1.21-1.56-2.73-2.79-4.56-3.69-1.83-.9-3.99-1.35-6.48-1.35s-4.74.47-6.55,1.42c-1.81.95-3.29,2.21-4.42,3.81-1.13,1.59-1.97,3.44-2.5,5.53-.54,2.1-.8,4.31-.8,6.64s.3,4.37.9,6.38,1.5,3.78,2.72,5.29c1.21,1.51,2.73,2.72,4.54,3.62,1.81.9,3.95,1.35,6.41,1.35Z" fill="#000" stroke-width="0"></path>
      <path d="M471.5,36.11h12.1v30.96c.82-1.58,1.83-2.94,3.05-4.09,1.21-1.15,2.55-2.1,4.02-2.84,1.46-.74,3.04-1.29,4.73-1.65,1.69-.36,3.4-.54,5.13-.54,3.03,0,5.67.5,7.94,1.51,2.27,1.01,4.16,2.4,5.67,4.18,1.51,1.78,2.65,3.89,3.4,6.33.76,2.44,1.13,5.11,1.13,8.01v31.67h-12.2v-30.49c0-3.66-.92-6.45-2.77-8.37s-4.53-2.88-8.06-2.88c-3.91,0-6.89,1.09-8.96,3.29s-3.1,5.1-3.1,8.72v29.73h-12.1V36.11Z" fill="#000" stroke-width="0"></path>
      <path d="M526.53,84.47c0-3.97.76-7.59,2.29-10.85,1.53-3.26,3.58-6.05,6.17-8.37,2.58-2.32,5.58-4.11,9-5.39,3.42-1.28,7.04-1.91,10.85-1.91s7.42.64,10.73,1.91c3.31,1.28,6.18,3.07,8.63,5.39s4.36,5.09,5.74,8.32c1.39,3.23,2.08,6.78,2.08,10.66s-.73,7.58-2.17,10.83c-1.45,3.25-3.43,6.02-5.93,8.32-2.51,2.3-5.44,4.08-8.82,5.34-3.37,1.26-6.97,1.89-10.78,1.89s-7.46-.64-10.85-1.91c-3.39-1.28-6.33-3.06-8.84-5.37-2.51-2.3-4.48-5.05-5.93-8.25-1.45-3.2-2.17-6.74-2.17-10.61ZM554.65,101.3c2.52,0,4.69-.47,6.5-1.42,1.81-.95,3.3-2.2,4.47-3.76,1.17-1.56,2.03-3.36,2.58-5.41.55-2.05.83-4.18.83-6.38,0-2.33-.3-4.53-.9-6.59-.6-2.06-1.51-3.88-2.72-5.44-1.21-1.56-2.73-2.79-4.56-3.69-1.83-.9-3.99-1.35-6.48-1.35s-4.74.47-6.55,1.42c-1.81.95-3.29,2.21-4.42,3.81-1.13,1.59-1.97,3.44-2.5,5.53-.54,2.1-.8,4.31-.8,6.64s.3,4.37.9,6.38,1.5,3.78,2.72,5.29c1.21,1.51,2.73,2.72,4.54,3.62,1.81.9,3.95,1.35,6.41,1.35Z" fill="#000" stroke-width="0"></path>
    </g>
  </g>
  <path d="M284.83,78.25c0-.06,0-.11,0-.17,0-.11-.01-.23-.03-.34,0-.05,0-.1-.01-.15-.02-.15-.05-.29-.08-.44-.01-.06-.03-.11-.04-.17-.03-.12-.06-.24-.1-.35-.01-.04-.02-.08-.04-.12-.05-.15-.11-.3-.17-.45-.02-.04-.04-.08-.05-.12-.14-.31-.31-.6-.51-.88-.02-.03-.05-.07-.07-.1-.1-.13-.19-.25-.3-.37-.03-.03-.06-.06-.08-.09-.08-.09-.17-.18-.26-.26-.04-.04-.08-.08-.12-.12-.11-.1-.22-.2-.34-.29-.04-.03-.08-.06-.12-.09-.09-.07-.19-.13-.28-.19-.05-.03-.1-.06-.14-.09-.02-.01-.04-.03-.07-.04L161.33,3.76c-1.75-1.01-3.91-1.01-5.66,0L35,73.43s-.04.03-.06.04c-.05.03-.1.06-.15.09-.09.06-.18.12-.27.19-.04.03-.09.06-.13.09-.12.09-.23.19-.34.28-.04.04-.08.08-.13.12-.09.08-.17.17-.25.26-.03.03-.06.06-.09.09-.11.12-.2.24-.3.37-.03.03-.05.07-.08.11-.2.28-.37.57-.51.88-.02.04-.04.08-.05.12-.06.15-.12.29-.17.45-.01.04-.02.08-.04.12-.04.12-.07.23-.1.35-.01.06-.03.11-.04.17-.03.14-.06.29-.08.44,0,.05,0,.1-.01.15-.01.11-.02.23-.03.34,0,.06,0,.11,0,.17,0,.03,0,.05,0,.08v139.34c0,2.02,1.08,3.89,2.83,4.91l120.67,69.67c.88.51,1.85.76,2.83.76s1.96-.25,2.83-.76l120.67-69.67c1.75-1.01,2.83-2.88,2.83-4.91V78.33s0-.05,0-.08ZM158.5,15.21l109.34,63.13-61.18,35.32-45.26-26.13c-1.75-1.01-3.91-1.01-5.66,0l-45.33,26.17-61.25-35.36L158.5,15.21ZM121.74,120.24l36.83-21.26,36.76,21.22-36.83,21.26-36.76-21.22ZM158.5,280.79l-115-66.4v-126.25l64.1,37.01s.03.02.04.03l48.05,27.74s.03.02.04.02l45.27,26.14v41.36l-42.5,24.54-42.42-24.49v-32.96l11.76-6.79,27.83,16.07c1.75,1.01,3.91,1.01,5.67,0l17.08-9.86c2.71-1.56,3.64-5.03,2.07-7.74-1.56-2.71-5.03-3.64-7.74-2.07l-14.25,8.23-27.83-16.07c-1.75-1.01-3.91-1.01-5.66,0l-17.42,10.06c-1.75,1.01-2.83,2.88-2.83,4.91v39.5c0,2.02,1.08,3.89,2.83,4.91l48.09,27.76c.88.51,1.85.76,2.83.76s1.96-.25,2.83-.76l48.16-27.81c1.75-1.01,2.83-2.88,2.83-4.91v-47.9c0-2.02-1.08-3.89-2.83-4.91l-39.66-22.9,103.67-59.86v126.25l-115,66.4Z" fill="#089949" stroke-width="0"></path>
</svg>