<svg width="142" height="50" viewBox="0 0 142 50" fill="none" xmlns="http://www.w3.org/2000/svg">
<path d="M66.0875 37.3429C66.8837 39.5574 68.8463 40.696 71.2079 40.696C72.9981 40.696 74.883 39.7551 74.883 37.7264C74.883 35.5794 72.7598 35.1943 70.3999 34.7703C67.3891 34.2264 64.086 33.5912 64.086 29.1233C64.086 25.3987 67.4297 23.5034 70.7853 23.5034C73.889 23.5034 76.6361 24.7753 77.8431 27.799L75.0842 29.0456C74.2609 27.3362 72.7091 26.3007 70.7464 26.3007C69.1675 26.3007 67.5886 26.9628 67.5886 28.8598C67.5886 30.9544 69.5513 31.326 71.9129 31.75C74.9642 32.2939 78.4668 32.9037 78.4668 37.4375C78.4668 41.375 74.7917 43.4561 71.2096 43.4561C67.7205 43.4561 64.2178 42.2095 63.1579 38.6047L66.0875 37.3429Z" fill="black"/>
<path d="M81.3305 22.5625H84.7267V31.2449C85.6429 29.4814 87.5126 28.6858 89.4752 28.6858C92.8714 28.6858 94.5686 31.0726 94.5686 34.3057V43.1875H91.1454V34.6368C91.1454 32.5963 90.0838 31.4814 88.1076 31.4814C85.932 31.4814 84.725 32.8209 84.725 34.848V43.1858H81.3288V22.5625H81.3305Z" fill="black"/>
<path d="M110.86 40.0997C109.68 42.6047 107.132 43.4527 104.519 43.4527C100.034 43.4527 97.2091 40.4561 97.2091 36.0422C97.2091 31.8801 100.088 28.6858 104.36 28.6858C108.95 28.6858 111.193 31.3632 111.193 36.8378H100.673C100.673 39.2365 102.066 40.9865 104.652 40.9865C106.191 40.9865 107.465 40.3632 108.207 38.9189L110.86 40.0997ZM107.808 34.6115C107.702 32.4645 106.402 31.152 104.399 31.152C102.264 31.152 101.016 32.6503 100.724 34.6115H107.808Z" fill="black"/>
<path d="M126.618 40.0997C125.438 42.6047 122.891 43.4527 120.277 43.4527C115.793 43.4527 112.968 40.4561 112.968 36.0422C112.968 31.8801 115.847 28.6858 120.118 28.6858C124.708 28.6858 126.951 31.3632 126.951 36.8378H116.432C116.432 39.2365 117.825 40.9865 120.411 40.9865C121.949 40.9865 123.224 40.3632 123.966 38.9189L126.618 40.0997ZM123.567 34.6115C123.461 32.4645 122.161 31.152 120.157 31.152C118.022 31.152 116.775 32.6503 116.482 34.6115H123.567Z" fill="black"/>
<path d="M136.873 43.0828C136.143 43.2956 135.387 43.4274 134.538 43.4274C131.832 43.4274 130.228 42.0219 130.228 39.1993V31.4848H128.317V28.9932H130.228V26.0642L133.624 24.5929V28.9932H136.754V31.4848H133.624V38.8953C133.624 40.0084 134.102 40.6976 135.348 40.6976C135.826 40.6976 136.356 40.5912 136.874 40.4189V43.0828H136.873Z" fill="black"/>
<path d="M64.6151 17.6402L70.8648 8.61656H65.2473V6.83615H73.8062V7.72298L67.7087 16.7466H73.6304V18.527H64.6168V17.6402H64.6151Z" fill="black"/>
<path d="M79.1599 9.79053C81.7565 9.79053 83.7547 11.6115 83.7547 14.2297C83.7547 16.9206 81.6534 18.6858 79.072 18.6858C76.467 18.6858 74.3725 16.8817 74.3725 14.2703C74.3725 11.5861 76.5853 9.79053 79.1599 9.79053ZM81.557 14.2449C81.557 12.6723 80.7574 11.3632 79.0805 11.3632C77.3545 11.3632 76.6665 12.7365 76.6665 14.3024C76.6665 15.8192 77.4728 17.1132 79.1278 17.1132C80.8369 17.1115 81.557 15.7382 81.557 14.2449Z" fill="black"/>
<path d="M85.249 6.10135H87.2945V11.3311C87.8456 10.2686 88.9732 9.79054 90.1548 9.79054C92.2003 9.79054 93.223 11.228 93.223 13.1757V18.5253H91.1606V13.375C91.1606 12.1453 90.5216 11.4747 89.3298 11.4747C88.0197 11.4747 87.2928 12.2804 87.2928 13.5034V18.5253H85.2473V6.10135H85.249Z" fill="black"/>
<path d="M99.3375 9.79053C101.934 9.79053 103.932 11.6115 103.932 14.2297C103.932 16.9206 101.831 18.6858 99.2496 18.6858C96.6445 18.6858 94.55 16.8817 94.55 14.2703C94.55 11.5861 96.7646 9.79053 99.3375 9.79053ZM101.735 14.2449C101.735 12.6723 100.935 11.3632 99.258 11.3632C97.532 11.3632 96.844 12.7365 96.844 14.3024C96.844 15.8192 97.6504 17.1132 99.3053 17.1132C101.016 17.1115 101.735 15.7382 101.735 14.2449Z" fill="black"/>
<path d="M32.6651 42.1757H8.97643C6.60131 42.1757 4.6691 40.2432 4.6691 37.8716V4.82939C4.6691 2.45608 6.603 0.523651 8.97643 0.523651H42.0962C44.4714 0.523651 46.4036 2.45608 46.4036 4.8277V28.4459C46.4036 29.2365 45.7612 29.8784 44.9701 29.8784C44.1789 29.8784 43.5365 29.2365 43.5365 28.4459V4.82939C43.5365 4.03885 42.8941 3.39696 42.103 3.39696H8.97643C8.18529 3.39696 7.54291 4.03885 7.54291 4.82939V37.8716C7.54291 38.6622 8.18529 39.3041 8.97643 39.3041H32.6701C33.4613 39.3041 34.1037 39.9459 34.1037 40.7365C34.1037 41.527 33.4613 42.1757 32.6651 42.1757Z" fill="#089949"/>
<path d="M20.4514 42.1757C19.6602 42.1757 19.0179 41.5338 19.0179 40.7433V7.69089C19.0179 6.90035 19.6602 6.25845 20.4514 6.25845C21.2425 6.25845 21.8849 6.90035 21.8849 7.69089V40.7416C21.8917 41.5321 21.2476 42.1757 20.4514 42.1757Z" fill="#089949"/>
<path d="M44.97 17.723H11.8942C11.103 17.723 10.4607 17.0811 10.4607 16.2906C10.4607 15.5 11.103 14.8581 11.8942 14.8581H44.97C45.7612 14.8581 46.4036 15.5 46.4036 16.2906C46.4036 17.0811 45.7663 17.723 44.97 17.723Z" fill="#089949"/>
<path d="M40.5038 49.4764C40.3787 49.4764 40.2536 49.4612 40.1336 49.4291C39.64 49.2956 39.2512 48.9122 39.1159 48.4122L34.817 32.3784C34.6835 31.8851 34.8272 31.3531 35.1873 30.9933C35.5524 30.6284 36.0798 30.4899 36.5735 30.6233L52.6245 34.9189C53.1181 35.0524 53.507 35.4358 53.6422 35.9358C53.7757 36.4291 53.632 36.9612 53.272 37.321L41.5232 49.0608C41.2476 49.3277 40.8774 49.4764 40.5038 49.4764ZM38.2352 34.0355L41.2476 45.272L49.4802 37.0456L38.2352 34.0355Z" fill="#089949"/>
</svg>
