<svg width="142" height="50" viewBox="0 0 142 50" fill="none" xmlns="http://www.w3.org/2000/svg">
<path d="M66.0875 37.3429C66.8837 39.5574 68.8463 40.6959 71.2079 40.6959C72.9981 40.6959 74.883 39.755 74.883 37.7263C74.883 35.5794 72.7598 35.1942 70.3999 34.7702C67.3891 34.2263 64.086 33.5912 64.086 29.1233C64.086 25.3986 67.4297 23.5034 70.7853 23.5034C73.889 23.5034 76.6361 24.7753 77.8431 27.799L75.0842 29.0456C74.2609 27.3361 72.7091 26.3007 70.7464 26.3007C69.1675 26.3007 67.5886 26.9628 67.5886 28.8598C67.5886 30.9544 69.5513 31.326 71.9129 31.75C74.9642 32.2939 78.4668 32.9037 78.4668 37.4375C78.4668 41.375 74.7917 43.4561 71.2096 43.4561C67.7205 43.4561 64.2178 42.2094 63.1579 38.6047L66.0875 37.3429Z" fill="black"/>
<path d="M81.3305 22.5625H84.7267V31.2449C85.6429 29.4814 87.5126 28.6858 89.4752 28.6858C92.8714 28.6858 94.5686 31.0726 94.5686 34.3057V43.1875H91.1454V34.6368C91.1454 32.5963 90.0838 31.4814 88.1076 31.4814C85.932 31.4814 84.725 32.8209 84.725 34.848V43.1858H81.3288V22.5625H81.3305Z" fill="black"/>
<path d="M104.717 28.6875C109.027 28.6875 112.344 31.7095 112.344 36.0574C112.344 40.5253 108.855 43.4544 104.569 43.4544C100.245 43.4544 96.7696 40.4578 96.7696 36.1233C96.7713 31.6689 100.445 28.6875 104.717 28.6875ZM108.698 36.0845C108.698 33.473 107.371 31.299 104.585 31.299C101.719 31.299 100.578 33.5794 100.578 36.1774C100.578 38.6959 101.919 40.8429 104.664 40.8429C107.502 40.8429 108.698 38.5625 108.698 36.0845Z" fill="black"/>
<path d="M113.274 28.9916H116.883L119.801 39.1723L122.838 28.9916H125.665L128.53 39.1723L131.502 28.9916H134.819L130.268 43.1892H126.82L124.14 33.7112L121.222 43.1892H117.747L113.274 28.9916Z" fill="black"/>
<path d="M64.6151 17.6402L70.8648 8.61659H65.2473V6.83618H73.8062V7.72301L67.7087 16.7467H73.6304V18.5271H64.6168V17.6402H64.6151Z" fill="black"/>
<path d="M79.1599 9.79059C81.7565 9.79059 83.7547 11.6115 83.7547 14.2298C83.7547 16.9207 81.6534 18.6859 79.072 18.6859C76.467 18.6859 74.3725 16.8818 74.3725 14.2703C74.3725 11.5862 76.5853 9.79059 79.1599 9.79059ZM81.557 14.245C81.557 12.6723 80.7574 11.3632 79.0805 11.3632C77.3545 11.3632 76.6665 12.7365 76.6665 14.3024C76.6665 15.8193 77.4728 17.1132 79.1278 17.1132C80.8369 17.1115 81.557 15.7382 81.557 14.245Z" fill="black"/>
<path d="M85.249 6.10138H87.2945V11.3311C87.8456 10.2686 88.9732 9.79057 90.1548 9.79057C92.2003 9.79057 93.223 11.2281 93.223 13.1757V18.5254H91.1606V13.375C91.1606 12.1453 90.5216 11.4747 89.3298 11.4747C88.0197 11.4747 87.2928 12.2804 87.2928 13.5034V18.5254H85.2473V6.10138H85.249Z" fill="black"/>
<path d="M99.3375 9.79059C101.934 9.79059 103.932 11.6115 103.932 14.2298C103.932 16.9207 101.831 18.6859 99.2496 18.6859C96.6445 18.6859 94.55 16.8818 94.55 14.2703C94.55 11.5862 96.7646 9.79059 99.3375 9.79059ZM101.735 14.245C101.735 12.6723 100.935 11.3632 99.258 11.3632C97.532 11.3632 96.844 12.7365 96.844 14.3024C96.844 15.8193 97.6504 17.1132 99.3053 17.1132C101.016 17.1115 101.735 15.7382 101.735 14.245Z" fill="black"/>
<path d="M43.692 44.6132C42.8958 44.6132 42.2534 43.9713 42.2534 43.1757C42.2534 42.3801 42.8958 41.7382 43.692 41.7382C44.4832 41.7382 45.1256 41.0963 45.1256 40.3057V12.5372C45.1256 11.7416 45.768 11.0997 46.5642 11.0997C47.3604 11.0997 48.0028 11.7416 48.0028 12.5372V40.3041C48.0044 42.6824 46.0705 44.6132 43.692 44.6132Z" fill="#E42527"/>
<path d="M11.8739 38.8379C11.0777 38.8379 10.4353 38.196 10.4353 37.4004V9.68583C10.4353 7.30914 12.3692 5.37671 14.7477 5.37671C15.5439 5.37671 16.1863 6.0186 16.1863 6.81421C16.1863 7.60982 15.5439 8.25171 14.7477 8.25171C13.9566 8.25171 13.3142 8.8936 13.3142 9.68414V37.3987C13.3125 38.196 12.6701 38.8379 11.8739 38.8379Z" fill="#E42527"/>
<path d="M52.2543 8.25684H6.10769C5.31148 8.25684 4.6691 7.61494 4.6691 6.81934C4.6691 6.02373 5.31148 5.38184 6.10769 5.38184H52.2526C53.0488 5.38184 53.6912 6.02373 53.6912 6.81934C53.6912 7.61494 53.0505 8.25684 52.2543 8.25684Z" fill="#E42527"/>
<path d="M52.2543 44.6234H6.10769C5.31148 44.6234 4.6691 43.9815 4.6691 43.1859C4.6691 42.3902 5.31148 41.7484 6.10769 41.7484H52.2526C53.0488 41.7484 53.6912 42.3902 53.6912 43.1859C53.6912 43.9815 53.0505 44.6234 52.2543 44.6234Z" fill="#E42527"/>
<path d="M24.3598 34.7686C24.1096 34.7686 23.8611 34.7061 23.6396 34.5761C23.1934 34.3176 22.9195 33.8429 22.9195 33.3294V16.7517C22.9195 16.2382 23.1934 15.7636 23.6396 15.5051C24.0859 15.2467 24.6319 15.2467 25.0782 15.5051L39.454 23.7973C39.9003 24.0558 40.1742 24.5304 40.1742 25.044C40.1742 25.5575 39.9003 26.0321 39.454 26.2906L25.0782 34.5777C24.8585 34.7061 24.61 34.7686 24.3598 34.7686ZM25.7984 19.2433V30.8429L35.8567 25.044L25.7984 19.2433Z" fill="#E42527"/>
</svg>
