<svg width="123" height="50" viewBox="0 0 123 50" fill="none" xmlns="http://www.w3.org/2000/svg">
<path d="M11.0636 37.6115H3.88017C2.2876 37.6115 1 36.3277 1 34.7399V5.87162C1 4.28378 2.2876 3 3.88017 3H38.6116C40.2041 3 41.4917 4.28378 41.4917 5.87162V13.0338C41.4917 13.8277 40.8479 14.4696 40.0517 14.4696C39.2554 14.4696 38.6116 13.8277 38.6116 13.0338V5.87162H3.88017V34.7399H11.0806C11.8769 34.7399 12.5207 35.3818 12.5207 36.1757C12.5037 36.9696 11.8599 37.6115 11.0636 37.6115Z" fill="#089949"/>
<path d="M16.5868 20.3818C17.2511 20.3818 17.7897 19.8448 17.7897 19.1824C17.7897 18.5201 17.2511 17.9831 16.5868 17.9831C15.9224 17.9831 15.3839 18.5201 15.3839 19.1824C15.3839 19.8448 15.9224 20.3818 16.5868 20.3818Z" fill="#E42527"/>
<path d="M20.1955 20.3818C20.8598 20.3818 21.3983 19.8448 21.3983 19.1824C21.3983 18.5201 20.8598 17.9831 20.1955 17.9831C19.5311 17.9831 18.9926 18.5201 18.9926 19.1824C18.9926 19.8448 19.5311 20.3818 20.1955 20.3818Z" fill="#F9B21D"/>
<path d="M23.7872 20.3818C24.4515 20.3818 24.9901 19.8448 24.9901 19.1824C24.9901 18.5201 24.4515 17.9831 23.7872 17.9831C23.1228 17.9831 22.5843 18.5201 22.5843 19.1824C22.5843 19.8448 23.1228 20.3818 23.7872 20.3818Z" fill="#089949"/>
<path d="M47.7264 46.2094H28.5479C27.9041 46.2094 27.3112 45.9561 26.8537 45.5169L23.6516 42.3412C22.8554 41.5473 22.7198 40.2973 23.3297 39.3513L23.3806 39.2838C23.9397 38.4054 24.1091 37.3243 23.8211 36.2939L23.8041 36.2432C23.5331 35.2297 22.8384 34.3682 21.9235 33.8953L21.8558 33.8615C20.8562 33.3547 20.3479 32.1892 20.6359 31.125L21.6694 27.1385C21.9574 26.0574 22.974 25.3142 24.1091 25.3649H24.1938C25.2273 25.4155 26.2607 25.0101 27.0062 24.2669L27.0401 24.2331C27.8025 23.473 28.2091 22.4594 28.1413 21.4122V21.3277C28.0905 20.2128 28.8359 19.1824 29.9202 18.8953L33.9016 17.8311C34.9859 17.5439 36.138 18.0507 36.6632 19.0473L36.6971 19.1149C37.1715 20.0439 38.0355 20.7196 39.069 20.9899L39.1198 21.0067C40.1364 21.277 41.2376 21.1081 42.1186 20.5507L42.8471 20.0946C43.5078 19.6723 44.4058 19.8581 44.8293 20.5169C45.2529 21.1757 45.0665 22.0709 44.4058 22.4932L43.6773 22.9493C42.1186 23.9459 40.1872 24.25 38.3744 23.7601H38.3574H38.3405C36.6293 23.304 35.1723 22.1892 34.2913 20.6858L31.0554 21.5642C31.0554 23.304 30.3607 24.9932 29.107 26.2432L29.0731 26.277C27.8364 27.527 26.1421 28.2196 24.3971 28.2196L23.5331 31.4628C25.0409 32.3243 26.1591 33.777 26.6165 35.4831L26.6335 35.5169C27.1078 37.223 26.8707 39.0473 25.9897 40.5507L28.7851 43.3209H47.2521V14.4696H12.5207V43.3378H21.1273C21.9235 43.3378 22.5674 43.9797 22.5674 44.7736C22.5674 45.5676 21.9235 46.2094 21.1273 46.2094H12.0293C10.7078 46.2094 9.62355 45.1284 9.62355 43.8108V13.9966C9.64049 12.6622 10.7078 11.598 12.0293 11.598H47.7264C49.0479 11.598 50.1322 12.679 50.1322 13.9966V43.8277C50.1322 45.1284 49.0479 46.2094 47.7264 46.2094Z" fill="#226DB4"/>
<path d="M35.85 38.6588C35.3756 38.6588 34.8843 38.5912 34.393 38.473C31.3773 37.679 29.5814 34.5878 30.3946 31.5811C31.1909 28.5743 34.2913 26.7838 37.307 27.5946C40.3227 28.4054 42.1186 31.4797 41.3054 34.4865C40.6446 36.9865 38.3574 38.6588 35.85 38.6588ZM35.8669 30.2635C34.6471 30.2635 33.512 31.0743 33.1901 32.3074C32.8004 33.777 33.6814 35.2973 35.1554 35.6858C36.6293 36.0743 38.1541 35.1959 38.5438 33.7263C38.9335 32.2567 38.0525 30.7365 36.5785 30.348C36.3413 30.2973 36.0872 30.2635 35.8669 30.2635Z" fill="#226DB4"/>
<path d="M62.0802 34.25C62.8764 36.4629 64.8417 37.6115 67.2136 37.6115C69.0095 37.6115 70.8901 36.6656 70.8901 34.6385C70.8901 32.4933 68.7554 32.1047 66.4004 31.6824C63.3847 31.1419 60.0641 30.5 60.0641 26.0406C60.0641 22.3075 63.4186 20.4156 66.7731 20.4156C69.8905 20.4156 72.6351 21.6825 73.838 24.7061L71.0764 25.9561C70.2463 24.25 68.7045 23.2196 66.7223 23.2196C65.1467 23.2196 63.5541 23.8784 63.5541 25.7703C63.5541 27.8649 65.5194 28.2365 67.8913 28.6588C70.9409 29.1993 74.4649 29.8074 74.4649 34.3514C74.4649 38.2872 70.7884 40.3649 67.1967 40.3649C63.7066 40.3649 60.1826 39.1149 59.1322 35.5169L62.0802 34.25Z" fill="black"/>
<path d="M79.1748 19.8919C80.276 19.8919 81.157 20.7027 81.157 21.8345C81.157 22.9493 80.3099 23.7601 79.1917 23.7601C78.0905 23.7601 77.1587 22.9324 77.1587 21.8176C77.1417 20.6858 78.0736 19.8919 79.1748 19.8919ZM77.4467 25.9223H80.8521V40.0946H77.4467V25.9223Z" fill="black"/>
<path d="M91.9153 39.9933C91.1868 40.2129 90.4244 40.3311 89.5773 40.3311C86.8665 40.3311 85.257 38.9291 85.257 36.1081V28.3885H83.3426V25.8885H85.257V22.9662L88.6624 21.4966V25.9054H91.7967V28.4054H88.6624V35.821C88.6624 36.9358 89.1368 37.6284 90.3905 37.6284C90.8649 37.6284 91.407 37.527 91.9153 37.3581V39.9933Z" fill="black"/>
<path d="M107.214 37.0034C106.028 39.5034 103.47 40.3649 100.861 40.3649C96.3711 40.3649 93.5417 37.375 93.5417 32.9493C93.5417 28.7939 96.4219 25.5845 100.708 25.5845C105.317 25.5845 107.553 28.2703 107.553 33.7433H97.0149C97.0149 36.1419 98.4041 37.8987 100.996 37.8987C102.538 37.8987 103.809 37.2737 104.554 35.8379L107.214 37.0034ZM104.148 31.5135C104.046 29.3683 102.741 28.0507 100.725 28.0507C98.5905 28.0507 97.3368 29.5541 97.0488 31.5135H104.148Z" fill="black"/>
<path d="M111.856 35.8547C112.381 37.2399 113.838 37.9155 115.38 37.9155C116.481 37.9155 117.854 37.5777 117.854 36.2264C117.854 34.8074 116.312 34.4696 114.55 34.098C112.263 33.625 109.705 33.0676 109.705 29.875C109.705 26.9527 112.432 25.5676 115.007 25.5676C117.261 25.5676 119.853 26.4122 120.785 28.6588L118.26 29.7399C117.701 28.473 116.312 28 115.143 28C114.008 28 112.924 28.4561 112.924 29.6047C112.924 30.9054 114.313 31.1757 116.041 31.5135C118.362 31.9696 121.141 32.4932 121.141 35.8041C121.141 39.1486 118.328 40.3311 115.363 40.3311C112.856 40.3311 110.145 39.4865 109.264 36.9358L111.856 35.8547Z" fill="black"/>
<path d="M60.6062 14.5372L66.8748 5.5169H61.25V3.74326H69.8227V4.62163L63.7066 13.6419H69.6364V15.4156H60.6062V14.5372Z" fill="black"/>
<path d="M75.1934 6.69931C77.8025 6.69931 79.8017 8.52364 79.8017 11.1419C79.8017 13.8277 77.7008 15.6013 75.1087 15.6013C72.4996 15.6013 70.3988 13.7939 70.3988 11.1926C70.3818 8.48985 72.6012 6.69931 75.1934 6.69931ZM77.5822 11.1419C77.5822 9.57093 76.786 8.25336 75.0917 8.25336C73.3636 8.25336 72.669 9.62161 72.669 11.1926C72.669 12.7128 73.4822 13.9966 75.1426 13.9966C76.8707 14.0135 77.5822 12.6453 77.5822 11.1419Z" fill="black"/>
<path d="M81.2926 3H83.3426V8.23649C83.9017 7.1723 85.0198 6.69932 86.2058 6.69932C88.2558 6.69932 89.2893 8.13514 89.2893 10.0777V15.4324H87.2223V10.2804C87.2223 9.0473 86.5785 8.37162 85.3926 8.37162C84.0711 8.37162 83.3426 9.18243 83.3426 10.3986V15.4155H81.2926V3Z" fill="black"/>
<path d="M95.4054 6.69931C98.0145 6.69931 100.014 8.52364 100.014 11.1419C100.014 13.8277 97.9128 15.6013 95.3207 15.6013C92.7116 15.6013 90.6107 13.7939 90.6107 11.1926C90.6107 8.48985 92.8302 6.69931 95.4054 6.69931ZM97.8112 11.1419C97.8112 9.57093 97.0149 8.25336 95.3207 8.25336C93.5926 8.25336 92.8979 9.62161 92.8979 11.1926C92.8979 12.7128 93.7112 13.9966 95.3715 13.9966C97.0826 14.0135 97.8112 12.6453 97.8112 11.1419Z" fill="black"/>
</svg>
