<?xml version="1.0" encoding="UTF-8"?><svg xmlns="http://www.w3.org/2000/svg" viewBox="0 0 983.48 296"><defs></defs><g id="text"><path d="m308.68,221.07c4.71,13.11,16.32,19.85,30.29,19.85,10.59,0,21.74-5.57,21.74-17.58,0-12.71-12.56-14.99-26.53-17.5-17.81-3.22-37.35-6.98-37.35-33.43,0-22.05,19.78-33.27,39.63-33.27,18.36,0,34.61,7.53,41.75,25.43l-16.32,7.38c-4.87-10.12-14.05-16.25-25.66-16.25-9.34,0-18.68,3.92-18.68,15.15,0,12.4,11.61,14.6,25.58,17.11,18.05,3.22,38.77,6.83,38.77,33.67,0,23.31-21.74,35.63-42.93,35.63s-41.36-7.38-47.63-28.72l17.34-7.46Z"></path><path d="m409.36,136.08c6.51,0,11.69,4.79,11.69,11.46s-5.02,11.38-11.61,11.38-12.01-4.87-12.01-11.46,5.42-11.38,11.93-11.38Zm-10.12,35.71h20.09v83.89h-20.09v-83.89Z"></path><path d="m483.67,255.05c-4.32,1.26-8.79,2.04-13.81,2.04-16.01,0-25.5-8.32-25.5-25.03v-45.67h-11.3v-14.75h11.3v-17.34l20.09-8.71v26.05h18.52v14.75h-18.52v43.87c0,6.59,2.83,10.67,10.2,10.67,2.83,0,5.96-.63,9.02-1.65v15.77Z"></path><path d="m572.97,237.39c-6.98,14.83-22.05,19.85-37.51,19.85-26.53,0-43.24-17.74-43.24-43.87,0-24.64,17.03-43.55,42.3-43.55,27.15,0,40.42,15.85,40.42,48.26h-62.23c0,14.2,8.24,24.56,23.54,24.56,9.1,0,16.64-3.69,21.03-12.24l15.7,6.98Zm-18.05-32.49c-.63-12.71-8.32-20.48-20.17-20.48-12.63,0-20.01,8.87-21.74,20.48h41.91Z"></path><path d="m616.21,247.13l43.79-40.96c8.95-8.4,17.74-19.85,17.74-32.88,0-10.83-6.04-17.11-16.64-17.11-13.58,0-20.4,10.52-23.54,21.74l-17.11-7.38c5.02-20.56,19.93-31.39,40.89-31.39s38.45,11.3,38.45,33.43c0,17.26-10.28,31.63-22.37,42.14l-27.39,23.94h50.54v17.03h-84.36v-8.55Z"></path><path d="m708.1,223.03l51.17-82.24h28.02v74.4h15.38v16.24h-15.38v24.25h-21.66v-24.25h-57.52v-8.4Zm57.92-7.85v-57.84l-34.53,57.84h34.53Z"></path><path d="m838.36,212.6l-27.39-40.96h23.23l17.5,27,17.26-27h20.95l-27.23,39.55,30.13,44.5h-23.39l-19.46-30.21-20.09,30.21h-20.95l29.43-43.08Z"></path><path d="m949.95,158.6h-55.64v-17.81h81.54v8.79l-42.38,106.1h-22.92l39.4-97.08Z"></path><path d="m299.84,104.43l36.97-53.42h-33.23v-10.54h50.63v5.25l-36.07,53.42h35.03v10.54h-53.32v-5.25Z"></path><path d="m385.78,57.96c15.36,0,27.18,10.78,27.18,26.28s-12.43,26.38-27.7,26.38-27.8-10.68-27.8-26.14,13.09-26.52,28.32-26.52Zm14.18,26.38c0-9.31-4.73-17.06-14.65-17.06s-14.28,8.13-14.28,17.4,4.77,16.64,14.56,16.64,14.37-8.13,14.37-16.97Z"></path><path d="m421.24,36.12h12.1v30.96c3.26-6.29,9.93-9.12,16.92-9.12,12.1,0,18.15,8.51,18.15,20.04v31.67h-12.2v-30.49c0-7.28-3.78-11.25-10.83-11.25-7.75,0-12.05,4.77-12.05,12.01v29.73h-12.1V36.12Z"></path><path d="m504.01,57.96c15.36,0,27.18,10.78,27.18,26.28s-12.43,26.38-27.7,26.38-27.8-10.68-27.8-26.14,13.09-26.52,28.32-26.52Zm14.18,26.38c0-9.31-4.73-17.06-14.65-17.06s-14.28,8.13-14.28,17.4,4.77,16.64,14.56,16.64,14.37-8.13,14.37-16.97Z"></path></g><g id="logo"><path class="cls-3" d="m228.7,127.26h-58.1c-4.7,0-8.51-3.81-8.51-8.51s3.81-8.51,8.51-8.51h37.56L121.36,23.44,20.02,124.77c-3.32,3.32-8.71,3.32-12.03,0s-3.32-8.71,0-12.03L115.34,5.39c3.19-3.19,8.84-3.19,12.03,0l107.35,107.35c2.43,2.43,3.16,6.09,1.84,9.27-1.32,3.18-4.42,5.25-7.86,5.25Z"></path><path class="cls-1" d="m121.36,293c-2.26,0-4.42-.9-6.02-2.49L7.99,183.16c-2.43-2.43-3.16-6.09-1.84-9.27,1.32-3.18,4.42-5.25,7.86-5.25h58.14c4.7,0,8.51,3.81,8.51,8.51s-3.81,8.51-8.51,8.51h-37.6l86.81,86.81,101.33-101.33c3.32-3.32,8.71-3.32,12.03,0,3.32,3.32,3.32,8.71,0,12.03l-107.35,107.35c-1.6,1.6-3.76,2.49-6.02,2.49Z"></path><path class="cls-2" d="m121.36,234.61c-2.26,0-4.42-.9-6.02-2.49L7.99,124.77c-3.32-3.32-3.32-8.71,0-12.03,3.32-3.32,8.71-3.32,12.03,0l101.33,101.33,48.08-48.08c3.32-3.32,8.71-3.32,12.03,0,3.32,3.32,3.32,8.71,0,12.03l-54.1,54.1c-1.6,1.6-3.76,2.49-6.02,2.49Z"></path><path class="cls-2" d="m228.7,185.65c-2.18,0-4.35-.83-6.02-2.49l-101.33-101.33-48.09,48.09c-3.32,3.32-8.71,3.32-12.03,0-3.32-3.32-3.32-8.71,0-12.03l54.1-54.1c3.19-3.19,8.84-3.19,12.03,0l107.35,107.35c3.32,3.32,3.32,8.71,0,12.03-1.66,1.66-3.84,2.49-6.02,2.49Z"></path></g></svg>