<?xml version="1.0" encoding="UTF-8"?>
<svg xmlns="http://www.w3.org/2000/svg" version="1.1" viewBox="0 0 688 296">
  <defs>
    
  </defs>
  
  <g>
    <g id="Layer_1">
      <g>
        <path d="M357.2,104.4l37-53.5h-33.3v-10.6h50.7v5.3l-36.1,53.5h35.1v10.6h-53.4v-5.3h0Z"></path>
        <path d="M415,84.4c0-4,.8-7.6,2.3-10.9s3.6-6.1,6.2-8.4c2.6-2.3,5.6-4.1,9-5.4,3.4-1.3,7-1.9,10.9-1.9s7.4.6,10.8,1.9c3.3,1.3,6.2,3.1,8.6,5.4s4.4,5.1,5.8,8.3c1.4,3.2,2.1,6.8,2.1,10.7s-.7,7.6-2.2,10.8c-1.5,3.3-3.4,6-5.9,8.3s-5.5,4.1-8.8,5.4c-3.4,1.3-7,1.9-10.8,1.9s-7.5-.6-10.9-1.9-6.3-3.1-8.9-5.4c-2.5-2.3-4.5-5.1-5.9-8.3s-2.3-6.6-2.3-10.5ZM443.2,101.3c2.5,0,4.7-.5,6.5-1.4s3.3-2.2,4.5-3.8c1.2-1.6,2-3.4,2.6-5.4.6-2.1.8-4.2.8-6.4s-.3-4.5-.9-6.6-1.5-3.9-2.7-5.4c-1.2-1.6-2.7-2.8-4.6-3.7-1.8-.9-4-1.4-6.5-1.4s-4.7.5-6.6,1.4c-1.8.9-3.3,2.2-4.4,3.8s-2,3.4-2.5,5.5-.8,4.3-.8,6.7.3,4.4.9,6.4,1.5,3.8,2.7,5.3,2.7,2.7,4.5,3.6c1.9.9,4,1.4,6.5,1.4Z"></path>
        <path d="M479.5,36h12.1v31c.8-1.6,1.8-2.9,3.1-4.1,1.2-1.2,2.6-2.1,4-2.8,1.5-.7,3-1.3,4.7-1.7s3.4-.5,5.1-.5c3,0,5.7.5,8,1.5s4.2,2.4,5.7,4.2,2.7,3.9,3.4,6.3c.8,2.4,1.1,5.1,1.1,8v31.7h-12.2v-30.5c0-3.7-.9-6.5-2.8-8.4-1.8-1.9-4.5-2.9-8.1-2.9s-6.9,1.1-9,3.3c-2.1,2.2-3.1,5.1-3.1,8.7v29.8h-12.1V36h.1Z"></path>
        <path d="M534.6,84.4c0-4,.8-7.6,2.3-10.9s3.6-6.1,6.2-8.4c2.6-2.3,5.6-4.1,9-5.4,3.4-1.3,7-1.9,10.9-1.9s7.4.6,10.8,1.9c3.3,1.3,6.2,3.1,8.6,5.4,2.4,2.3,4.4,5.1,5.8,8.3,1.4,3.2,2.1,6.8,2.1,10.7s-.7,7.6-2.2,10.8c-1.5,3.3-3.4,6-5.9,8.3s-5.5,4.1-8.8,5.4c-3.4,1.3-7,1.9-10.8,1.9s-7.5-.6-10.9-1.9-6.3-3.1-8.9-5.4c-2.5-2.3-4.5-5.1-5.9-8.3s-2.3-6.6-2.3-10.5ZM562.8,101.3c2.5,0,4.7-.5,6.5-1.4s3.3-2.2,4.5-3.8c1.2-1.6,2-3.4,2.6-5.4.6-2.1.8-4.2.8-6.4s-.3-4.5-.9-6.6c-.6-2.1-1.5-3.9-2.7-5.4-1.2-1.6-2.7-2.8-4.6-3.7-1.8-.9-4-1.4-6.5-1.4s-4.7.5-6.6,1.4c-1.8.9-3.3,2.2-4.4,3.8s-2,3.4-2.5,5.5-.8,4.3-.8,6.7.3,4.4.9,6.4,1.5,3.8,2.7,5.3,2.7,2.7,4.5,3.6c1.9.9,4,1.4,6.5,1.4Z"></path>
      </g>
      <g>
        <path d="M365.8,221.6c1.2,3.3,2.8,6.2,4.8,8.6,2,2.5,4.3,4.5,6.9,6.2s5.5,2.9,8.6,3.8c3.1.8,6.5,1.3,10,1.3s5.3-.4,7.9-1.1c2.6-.7,4.9-1.8,7-3.2s3.7-3.3,5-5.5,1.9-4.8,1.9-7.8-.7-5.8-2.2-7.8-3.4-3.6-5.9-4.8c-2.4-1.2-5.3-2.2-8.5-2.9s-6.6-1.4-10.1-2c-4.5-.8-8.9-1.7-13.4-2.9-4.5-1.1-8.5-2.8-12-5.1-3.6-2.3-6.5-5.5-8.7-9.5s-3.3-9.4-3.3-16,1.1-10.3,3.4-14.5,5.3-7.7,9-10.5,8-4.9,12.7-6.3c4.7-1.4,9.6-2.1,14.6-2.1s9,.5,13.3,1.5c4.2,1,8.2,2.5,11.8,4.6,3.6,2.1,6.9,4.7,9.7,7.9,2.9,3.2,5.2,7,7,11.6l-16.4,7.4c-2.5-5.1-5.9-9.1-10.3-11.9-4.4-2.9-9.5-4.3-15.4-4.3s-4.7.3-6.9.8c-2.2.5-4.2,1.4-6,2.6-1.8,1.2-3.2,2.8-4.2,4.7-1.1,1.9-1.6,4.3-1.6,7.1s.7,5.6,2,7.5c1.4,1.9,3.2,3.5,5.5,4.7s5,2.2,8.1,2.9,6.4,1.4,9.9,2c3,.5,6.1,1.1,9.2,1.7,3.1.6,6,1.5,8.9,2.5s5.6,2.3,8.1,3.8,4.7,3.4,6.6,5.7,3.4,5.1,4.4,8.4c1.1,3.3,1.6,7.1,1.6,11.6s-1.2,11-3.7,15.4c-2.5,4.5-5.8,8.2-9.8,11.2s-8.6,5.3-13.8,6.8c-5.2,1.5-10.4,2.3-15.7,2.3s-10.3-.5-15.3-1.5-9.7-2.6-14-4.9c-4.3-2.3-8.1-5.2-11.3-8.9-3.2-3.7-5.6-8.2-7.2-13.5l17.8-7.6Z"></path>
        <path d="M447.9,214.3c0-6.6,1.3-12.6,3.8-18s6-10.1,10.3-13.9c4.3-3.9,9.3-6.8,15-9,5.7-2.1,11.7-3.2,18-3.2s12.3,1.1,17.8,3.2c5.5,2.1,10.3,5.1,14.3,9,4.1,3.9,7.2,8.5,9.6,13.8,2.3,5.4,3.5,11.3,3.5,17.7s-1.2,12.6-3.6,18c-2.4,5.4-5.7,10-9.9,13.8s-9.1,6.8-14.7,8.9c-5.6,2.1-11.6,3.1-17.9,3.1s-12.4-1.1-18-3.2c-5.6-2.1-10.5-5.1-14.7-8.9-4.2-3.8-7.5-8.4-9.9-13.7-2.4-5.2-3.6-11.1-3.6-17.6ZM494.7,242.3c4.2,0,7.8-.8,10.8-2.4,3-1.6,5.5-3.7,7.4-6.2,1.9-2.6,3.4-5.6,4.3-9,.9-3.4,1.4-6.9,1.4-10.6s-.5-7.5-1.5-11c-1-3.4-2.5-6.4-4.5-9s-4.5-4.6-7.6-6.1c-3-1.5-6.6-2.2-10.8-2.2s-7.9.8-10.9,2.4c-3,1.6-5.5,3.7-7.4,6.3s-3.3,5.7-4.2,9.2c-.9,3.5-1.3,7.2-1.3,11s.5,7.3,1.5,10.6c1,3.4,2.5,6.3,4.5,8.8s4.5,4.5,7.5,6c3.1,1.5,6.7,2.2,10.8,2.2Z"></path>
        <path d="M555.4,137.9l20.1-8.7v127h-20.1v-118.3Z"></path>
        <path d="M589.9,214.3c0-6.6,1.3-12.6,3.8-18s6-10.1,10.3-13.9c4.3-3.9,9.3-6.8,15-9,5.7-2.1,11.7-3.2,18-3.2s12.3,1.1,17.8,3.2c5.5,2.1,10.3,5.1,14.3,9,4.1,3.9,7.2,8.5,9.6,13.8,2.3,5.4,3.5,11.3,3.5,17.7s-1.2,12.6-3.6,18c-2.4,5.4-5.7,10-9.9,13.8s-9.1,6.8-14.7,8.9c-5.6,2.1-11.6,3.1-17.9,3.1s-12.4-1.1-18-3.2c-5.6-2.1-10.5-5.1-14.7-8.9-4.2-3.8-7.5-8.4-9.9-13.7-2.4-5.2-3.6-11.1-3.6-17.6ZM636.7,242.3c4.2,0,7.8-.8,10.8-2.4,3-1.6,5.5-3.7,7.4-6.2,1.9-2.6,3.4-5.6,4.3-9,.9-3.4,1.4-6.9,1.4-10.6s-.5-7.5-1.5-11c-1-3.4-2.5-6.4-4.5-9s-4.5-4.6-7.6-6.1c-3-1.5-6.6-2.2-10.8-2.2s-7.9.8-10.9,2.4c-3,1.6-5.5,3.7-7.4,6.3s-3.3,5.7-4.2,9.2-1.3,7.2-1.3,11,.5,7.3,1.5,10.6c1,3.4,2.5,6.3,4.5,8.8s4.5,4.5,7.5,6c3.2,1.5,6.7,2.2,10.8,2.2Z"></path>
      </g>
      <g>
        <path class="cls-4" d="M188.7,287.2c-3.7,0-7.1-2.4-8.2-6.1-1.3-4.5,1.2-9.3,5.8-10.6,13-3.9,25.2-9.7,36.3-17.5,11-7.7,20.7-17,28.7-27.6,8.2-10.8,14.5-22.7,18.9-35.5,4.5-13.2,6.8-27,6.8-41.1s-3.9-36.5-11.6-53.2c-2-4.3-.1-9.4,4.2-11.3,4.3-2,9.4,0,11.3,4.2,8.8,19,13.2,39.3,13.2,60.4s-2.6,31.7-7.7,46.6c-5,14.5-12.2,28-21.4,40.3-9.2,12.1-20.1,22.7-32.6,31.3-12.6,8.8-26.5,15.5-41.2,19.9-.9,0-1.7.2-2.5.2Z"></path>
        <path class="cls-2" d="M150,292.7c-19.4,0-38.3-3.8-56.1-11.3-17.2-7.3-32.6-17.6-45.8-30.9-13.2-13.2-23.6-28.6-30.9-45.8-7.5-17.7-11.3-36.6-11.3-56s1.5-23.9,4.4-35.4c1.2-4.6,5.8-7.4,10.4-6.2,4.6,1.2,7.4,5.8,6.2,10.4-2.6,10.1-3.9,20.6-3.9,31.2,0,17.1,3.4,33.8,10,49.4,6.4,15.1,15.6,28.7,27.2,40.4s25.2,20.8,40.4,27.2c15.7,6.6,32.3,10,49.4,10s24.5-1.8,36.2-5.2c4.5-1.3,9.3,1.2,10.6,5.8,1.3,4.5-1.2,9.3-5.8,10.6-13.2,3.8-27,5.8-41,5.8Z"></path>
        <path class="cls-1" d="M18.6,123.9c-.7,0-1.4,0-2.1-.3-4.6-1.2-7.4-5.8-6.2-10.4,6.3-25.1,19.4-48.1,37.8-66.5,13.2-13.2,28.6-23.6,45.8-30.9,17.8-7.4,36.7-11.2,56.1-11.2s51.3,7,73.5,20.1c4.1,2.4,5.4,7.7,3,11.7-2.4,4.1-7.7,5.4-11.7,3-19.5-11.6-41.9-17.7-64.7-17.7s-33.8,3.4-49.4,10c-15.2,6.3-28.8,15.5-40.5,27.2-16.2,16.2-27.7,36.4-33.3,58.6-1,3.8-4.5,6.4-8.3,6.4Z"></path>
        <path class="cls-3" d="M250.6,18.7l5.7,15.4c2.9,8,9.2,14.2,17.2,17.2l15.4,5.7c2.7,1,2.7,4.8,0,5.8l-15.4,5.7c-8,2.9-14.2,9.2-17.2,17.2l-5.7,15.4c-1,2.7-4.8,2.7-5.8,0l-5.7-15.4c-2.9-8-9.2-14.2-17.2-17.2l-15.4-5.7c-2.7-1-2.7-4.8,0-5.8l15.4-5.7c8-2.9,14.2-9.2,17.2-17.2l5.7-15.4c1-2.7,4.8-2.7,5.8,0Z"></path>
        <path class="cls-3" d="M196.2,210.9h-37.5l1.3-131.6c0-3.9-2.6-7.4-6.4-8.4-3.8-1-7.8.7-9.7,4.1-.2.3-15.8,27.9-42.4,39.7-4.3,1.9-6.2,7-4.3,11.3,1.9,4.3,7,6.2,11.3,4.3,14.3-6.4,25.7-16.2,34.1-25.3l-1,105.7h-37.8c-4.7,0-8.5,3.8-8.5,8.5s3.8,8.5,8.5,8.5h92.3c4.7,0,8.5-3.8,8.5-8.5s-3.7-8.3-8.4-8.3Z"></path>
      </g>
    </g>
  </g>
</svg>