<svg width="148" height="51" viewBox="0 0 148 51" fill="none" xmlns="http://www.w3.org/2000/svg">
<path d="M25.3984 10.5676C22.7684 10.5676 20.6239 8.41892 20.6239 5.78378C20.6239 3.14865 22.7667 1 25.3984 1C28.0301 1 30.1728 3.14865 30.1728 5.78378C30.1728 8.41892 28.0284 10.5676 25.3984 10.5676ZM25.3984 3.86993C24.343 3.86993 23.4882 4.72635 23.4882 5.78378C23.4882 6.84122 24.343 7.69764 25.3984 7.69764C26.4538 7.69764 27.3085 6.84122 27.3085 5.78378C27.3085 4.72635 26.4538 3.86993 25.3984 3.86993Z" fill="#E42527"/>
<path d="M25.3984 10.5676C22.7684 10.5676 20.6239 8.41892 20.6239 5.78378C20.6239 3.14865 22.7667 1 25.3984 1C28.0301 1 30.1728 3.14865 30.1728 5.78378C30.1728 8.41892 28.0284 10.5676 25.3984 10.5676ZM25.3984 3.86993C24.343 3.86993 23.4882 4.72635 23.4882 5.78378C23.4882 6.84122 24.343 7.69764 25.3984 7.69764C26.4538 7.69764 27.3085 6.84122 27.3085 5.78378C27.3085 4.72635 26.4538 3.86993 25.3984 3.86993Z" fill="#E42527"/>
<path d="M45.0122 24.9713C42.3771 24.9713 40.2276 22.8226 40.2276 20.1773C40.2276 17.5321 42.372 15.3834 45.0122 15.3834C47.6472 15.3834 49.7968 17.5321 49.7968 20.1773C49.7968 22.8226 47.6523 24.9713 45.0122 24.9713ZM45.0122 18.2601C43.9568 18.2601 43.0936 19.1216 43.0936 20.1824C43.0936 21.2432 43.9534 22.1047 45.0122 22.1047C46.0675 22.1047 46.9307 21.2432 46.9307 20.1824C46.9307 19.1216 46.0709 18.2601 45.0122 18.2601Z" fill="#089949"/>
<path d="M45.0122 24.9713C42.3771 24.9713 40.2276 22.8226 40.2276 20.1773C40.2276 17.5321 42.372 15.3834 45.0122 15.3834C47.6472 15.3834 49.7968 17.5321 49.7968 20.1773C49.7968 22.8226 47.6523 24.9713 45.0122 24.9713ZM45.0122 18.2601C43.9568 18.2601 43.0936 19.1216 43.0936 20.1824C43.0936 21.2432 43.9534 22.1047 45.0122 22.1047C46.0675 22.1047 46.9307 21.2432 46.9307 20.1824C46.9307 19.1216 46.0709 18.2601 45.0122 18.2601Z" fill="#089949"/>
<path d="M37.4913 47.6858C34.8563 47.6858 32.7068 45.5372 32.7068 42.8919C32.7068 40.2517 34.8512 38.098 37.4913 38.098C40.1264 38.098 42.2759 40.2466 42.2759 42.8919C42.2759 45.5372 40.1315 47.6858 37.4913 47.6858ZM37.4913 40.973C36.436 40.973 35.5728 41.8344 35.5728 42.8953C35.5728 43.9527 36.4326 44.8176 37.4913 44.8176C38.5467 44.8176 39.4099 43.9561 39.4099 42.8953C39.4099 41.8344 38.5518 40.973 37.4913 40.973Z" fill="#226DB4"/>
<path d="M13.4133 47.7855C10.7782 47.7855 8.62871 45.6368 8.62871 42.9915C8.62871 40.3513 10.7732 38.1976 13.4133 38.1976C16.0534 38.1976 18.1979 40.3463 18.1979 42.9915C18.1928 45.6385 16.05 47.7855 13.4133 47.7855ZM13.4133 41.0743C12.3579 41.0743 11.4947 41.9358 11.4947 42.9966C11.4947 44.054 12.3546 44.9189 13.4133 44.9189C14.4737 44.9189 15.3319 44.0574 15.3319 42.9966C15.3285 41.9358 14.4687 41.0743 13.4133 41.0743Z" fill="#F9B21D"/>
<path d="M13.4133 47.7855C10.7782 47.7855 8.62871 45.6368 8.62871 42.9915C8.62871 40.3513 10.7732 38.1976 13.4133 38.1976C16.0534 38.1976 18.1979 40.3463 18.1979 42.9915C18.1928 45.6385 16.05 47.7855 13.4133 47.7855ZM13.4133 41.0743C12.3579 41.0743 11.4947 41.9358 11.4947 42.9966C11.4947 44.054 12.3546 44.9189 13.4133 44.9189C14.4737 44.9189 15.3319 44.0574 15.3319 42.9966C15.3285 41.9358 14.4687 41.0743 13.4133 41.0743Z" fill="#F9B21D"/>
<path d="M5.78459 24.9476C3.14447 24.9476 1 22.799 1 20.1588C1 17.5186 3.14447 15.3649 5.78459 15.3649C8.42471 15.3649 10.5692 17.5135 10.5692 20.1588C10.5692 22.8041 8.41965 24.9476 5.78459 24.9476ZM5.78459 18.2365C4.72922 18.2365 3.86603 19.098 3.86603 20.1588C3.86603 21.2196 4.72584 22.0811 5.78459 22.0811C6.84334 22.0811 7.70315 21.2196 7.70315 20.1588C7.70315 19.098 6.83996 18.2365 5.78459 18.2365Z" fill="#226DB4"/>
<path d="M5.78459 24.9476C3.14447 24.9476 1 22.799 1 20.1588C1 17.5186 3.14447 15.3649 5.78459 15.3649C8.42471 15.3649 10.5692 17.5135 10.5692 20.1588C10.5692 22.8041 8.41965 24.9476 5.78459 24.9476ZM5.78459 18.2365C4.72922 18.2365 3.86603 19.098 3.86603 20.1588C3.86603 21.2196 4.72584 22.0811 5.78459 22.0811C6.84334 22.0811 7.70315 21.2196 7.70315 20.1588C7.70315 19.098 6.83996 18.2365 5.78459 18.2365Z" fill="#226DB4"/>
<path d="M9.61327 30.1723C9.20697 30.1723 8.80235 30 8.51912 29.6655C8.00829 29.0574 8.08416 28.1537 8.69108 27.6419L14.4299 22.7821L10.9839 8.7348C10.7934 7.96453 11.2655 7.18919 12.0342 6.99832C12.803 6.80744 13.5768 7.28041 13.7673 8.05068L17.4241 22.9578C17.5522 23.4882 17.3718 24.0439 16.9554 24.397L10.5355 29.8328C10.2674 30.0574 9.93865 30.1723 9.61327 30.1723Z" fill="#226DB4"/>
<path d="M22.7717 43.5338C22.2087 43.5338 21.6742 43.1993 21.4449 42.6385L18.6177 35.7027L4.21839 34.6402C3.43107 34.5828 2.83932 33.8936 2.89664 33.1047C2.95396 32.3159 3.64181 31.723 4.42913 31.7804L19.7169 32.9054C20.2614 32.9442 20.7335 33.2888 20.9392 33.7956L24.1002 41.5591C24.4003 42.2905 24.048 43.1334 23.318 43.429C23.1342 43.4949 22.9488 43.5338 22.7717 43.5338Z" fill="#F9B21D"/>
<path d="M22.7717 43.5338C22.2087 43.5338 21.6742 43.1993 21.4449 42.6385L18.6177 35.7027L4.21839 34.6402C3.43107 34.5828 2.83932 33.8936 2.89664 33.1047C2.95396 32.3159 3.64181 31.723 4.42913 31.7804L19.7169 32.9054C20.2614 32.9442 20.7335 33.2888 20.9392 33.7956L24.1002 41.5591C24.4003 42.2905 24.048 43.1334 23.318 43.429C23.1342 43.4949 22.9488 43.5338 22.7717 43.5338Z" fill="#F9B21D"/>
<path d="M25.3984 49.9865C25.2163 49.9865 25.0359 49.9527 24.8589 49.8818C24.1289 49.5811 23.7748 48.7432 24.0766 48.0118L29.8626 33.7939C30.0683 33.2872 30.5404 32.9426 31.0849 32.9037L39.4065 32.2922C40.1938 32.2348 40.8817 32.8277 40.939 33.6166C40.9963 34.4054 40.4046 35.0946 39.6173 35.152L32.1791 35.6976L26.7269 49.0929C26.4959 49.652 25.9615 49.9865 25.3984 49.9865Z" fill="#226DB4"/>
<path d="M25.3984 49.9865C25.2163 49.9865 25.0359 49.9527 24.8589 49.8818C24.1289 49.5811 23.7748 48.7432 24.0766 48.0118L29.8626 33.7939C30.0683 33.2872 30.5404 32.9426 31.0849 32.9037L39.4065 32.2922C40.1938 32.2348 40.8817 32.8277 40.939 33.6166C40.9963 34.4054 40.4046 35.0946 39.6173 35.152L32.1791 35.6976L26.7269 49.0929C26.4959 49.652 25.9615 49.9865 25.3984 49.9865Z" fill="#226DB4"/>
<path d="M46.4722 34.6452C46.1468 34.6452 45.818 34.5354 45.55 34.3057L33.838 24.3986C33.4233 24.0439 33.2412 23.4898 33.3693 22.9594L35.3705 14.8023C35.561 14.0321 36.3348 13.5642 37.1036 13.75C37.8724 13.9408 38.3394 14.7162 38.1539 15.4865L36.3635 22.777L47.3927 32.1098C47.9996 32.6216 48.0704 33.5253 47.5646 34.1334C47.2848 34.4729 46.8785 34.6452 46.4722 34.6452Z" fill="#089949"/>
<path d="M46.4722 34.6452C46.1468 34.6452 45.818 34.5354 45.55 34.3057L33.838 24.3986C33.4233 24.0439 33.2412 23.4898 33.3693 22.9594L35.3705 14.8023C35.561 14.0321 36.3348 13.5642 37.1036 13.75C37.8724 13.9408 38.3394 14.7162 38.1539 15.4865L36.3635 22.777L47.3927 32.1098C47.9996 32.6216 48.0704 33.5253 47.5646 34.1334C47.2848 34.4729 46.8785 34.6452 46.4722 34.6452Z" fill="#089949"/>
<path d="M25.3984 17.9155C25.1354 17.9155 24.8724 17.8446 24.6448 17.701L17.5488 13.2939C16.8761 12.8784 16.6705 11.9933 17.0852 11.3176C17.4999 10.6436 18.3833 10.4375 19.0577 10.853L25.3984 14.7905L37.6684 7.17062C38.341 6.75507 39.2244 6.95947 39.6409 7.63514C40.0556 8.30913 39.8516 9.19426 39.1772 9.61149L26.152 17.701C25.9227 17.8446 25.6597 17.9155 25.3984 17.9155Z" fill="#E42527"/>
<path d="M25.3984 17.9155C25.1354 17.9155 24.8724 17.8446 24.6448 17.701L17.5488 13.2939C16.8761 12.8784 16.6705 11.9933 17.0852 11.3176C17.4999 10.6436 18.3833 10.4375 19.0577 10.853L25.3984 14.7905L37.6684 7.17062C38.341 6.75507 39.2244 6.95947 39.6409 7.63514C40.0556 8.30913 39.8516 9.19426 39.1772 9.61149L26.152 17.701C25.9227 17.8446 25.6597 17.9155 25.3984 17.9155Z" fill="#E42527"/>
<path d="M61.7235 32.2415C61.9258 32.799 62.1955 33.2838 62.531 33.6993C62.8665 34.1149 63.2543 34.4645 63.696 34.7466C64.1377 35.0304 64.6215 35.2415 65.1509 35.3834C65.6803 35.5253 66.24 35.5946 66.8317 35.5946C67.2819 35.5946 67.7253 35.5355 68.1619 35.4155C68.5986 35.2956 68.988 35.1149 69.3319 34.8716C69.6759 34.6284 69.9557 34.3192 70.1715 33.9442C70.3873 33.5692 70.4952 33.1284 70.4952 32.625C70.4952 32.0861 70.3721 31.6486 70.1243 31.3125C69.8765 30.9763 69.5494 30.7044 69.1381 30.4966C68.7267 30.2888 68.253 30.125 67.7152 30.0067C67.1774 29.8868 66.6126 29.7753 66.0225 29.6689C65.2723 29.5372 64.5237 29.375 63.7735 29.1858C63.0233 28.9966 62.3489 28.7061 61.7488 28.3176C61.1486 27.929 60.6613 27.3936 60.2871 26.7128C59.9128 26.0321 59.7257 25.1351 59.7257 24.022C59.7257 23.0946 59.9179 22.2787 60.3006 21.576C60.6849 20.8733 61.189 20.2855 61.8145 19.8125C62.44 19.3395 63.1531 18.9865 63.9505 18.7517C64.748 18.5169 65.5673 18.4003 66.4052 18.4003C67.1807 18.4003 67.9259 18.4814 68.6407 18.6453C69.3555 18.8091 70.0181 19.0659 70.6318 19.4138C71.2454 19.7635 71.7917 20.2078 72.2722 20.7466C72.7526 21.2855 73.1438 21.9358 73.4439 22.6959L70.6925 23.9426C70.2777 23.0861 69.6995 22.4138 68.9594 21.9274C68.2192 21.4409 67.3544 21.1976 66.3664 21.1976C65.9703 21.1976 65.5842 21.2415 65.2082 21.3311C64.834 21.4189 64.4985 21.5659 64.2034 21.7686C63.9084 21.9713 63.669 22.2348 63.4886 22.5574C63.3082 22.8801 63.2172 23.2804 63.2172 23.7567C63.2172 24.2787 63.3318 24.7027 63.5611 25.0287C63.7904 25.3564 64.1006 25.6216 64.4934 25.8243C64.8862 26.027 65.3431 26.1892 65.8624 26.3074C66.3833 26.4274 66.938 26.5388 67.5297 26.6453C68.0405 26.7331 68.5547 26.8311 69.0706 26.9375C69.5865 27.0439 70.0872 27.1824 70.5728 27.3547C71.0583 27.527 71.5118 27.7415 71.935 27.9983C72.3581 28.2551 72.729 28.5777 73.046 28.9662C73.3629 29.3547 73.6124 29.826 73.7928 30.3784C73.9732 30.9307 74.0643 31.5828 74.0643 32.3344C74.0643 33.3159 73.8552 34.1807 73.4354 34.9324C73.0156 35.6841 72.4677 36.3125 71.7883 36.8209C71.1089 37.3294 70.3351 37.7111 69.4668 37.9679C68.5986 38.2247 67.7185 38.353 66.8267 38.353C65.9534 38.353 65.0953 38.2686 64.254 38.1013C63.4111 37.9341 62.6288 37.6588 61.9055 37.2787C61.1823 36.8986 60.5501 36.4003 60.0072 35.7804C59.4644 35.1622 59.0614 34.402 58.7967 33.5L61.7235 32.2415Z" fill="black"/>
<path d="M86.3562 35.8615C86.1353 36.2939 85.8605 36.6672 85.5301 36.9814C85.1997 37.2956 84.8304 37.5541 84.4258 37.7568C84.0195 37.9595 83.5862 38.1098 83.1226 38.2078C82.659 38.3058 82.1819 38.3531 81.6879 38.3531C80.877 38.3531 80.1605 38.2247 79.5384 37.9679C78.9163 37.7112 78.3954 37.348 77.9773 36.875C77.5575 36.402 77.2422 35.8362 77.0315 35.1791C76.819 34.5203 76.7145 33.7889 76.7145 32.9848V23.8919H80.1015V32.5743C80.1015 33.5473 80.3308 34.3108 80.7893 34.8683C81.2479 35.4257 81.9712 35.7027 82.9591 35.7027C83.4885 35.7027 83.9622 35.6216 84.382 35.4578C84.8001 35.2939 85.1575 35.0642 85.4542 34.7686C85.7493 34.473 85.9752 34.1149 86.1286 33.6943C86.2837 33.2754 86.3596 32.8125 86.3596 32.3091V23.8919H89.733V38.0879H86.3596V35.8615H86.3562Z" fill="black"/>
<path d="M93.4471 23.8919H96.8341V26.5557C97.3112 25.5743 97.935 24.8496 98.7054 24.3817C99.4776 23.9138 100.405 23.679 101.491 23.679V26.8209C100.803 26.8209 100.174 26.8834 99.6057 27.0067C99.0358 27.13 98.5469 27.3446 98.1373 27.6503C97.7276 27.956 97.4073 28.3598 97.178 28.8631C96.9487 29.3665 96.8341 29.9983 96.8341 30.7584V38.0895H93.4471V23.8919Z" fill="black"/>
<path d="M102.8 23.8919H106.425L110.09 34.6419L113.715 23.8919H117.023L111.916 38.0879H107.948L102.8 23.8919Z" fill="black"/>
<path d="M131.232 34.9983C130.94 35.6267 130.567 36.1537 130.114 36.5827C129.66 37.0118 129.156 37.3564 128.605 37.6165C128.054 37.8767 127.462 38.0659 126.831 38.179C126.201 38.2939 125.558 38.3513 124.906 38.3513C123.787 38.3513 122.777 38.1723 121.876 37.8142C120.976 37.4561 120.211 36.9527 119.58 36.3023C118.95 35.6537 118.464 34.8733 118.125 33.9628C117.786 33.0523 117.616 32.0456 117.616 30.9408C117.616 29.8986 117.788 28.929 118.132 28.0321C118.476 27.1351 118.962 26.3581 119.587 25.6993C120.212 25.0405 120.963 24.5236 121.836 24.1486C122.709 23.7736 123.679 23.5861 124.746 23.5861C127.039 23.5861 128.748 24.2601 129.873 25.6081C130.997 26.9561 131.559 29 131.559 31.7381H121.067C121.067 32.3395 121.153 32.8936 121.325 33.402C121.497 33.9104 121.75 34.3479 122.085 34.7145C122.421 35.0811 122.836 35.3682 123.33 35.576C123.824 35.7838 124.392 35.8868 125.036 35.8868C125.811 35.8868 126.504 35.7229 127.113 35.3969C127.721 35.0709 128.21 34.5439 128.581 33.8192L131.232 34.9983ZM128.188 29.5118C128.136 28.4341 127.807 27.5878 127.202 26.9729C126.599 26.3581 125.793 26.0523 124.788 26.0523C124.259 26.0523 123.783 26.1402 123.36 26.3175C122.937 26.4949 122.573 26.7381 122.269 27.0473C121.966 27.3564 121.716 27.7213 121.522 28.1402C121.329 28.5608 121.195 29.0169 121.126 29.5118H128.188Z" fill="black"/>
<path d="M138.336 36.6436L132.779 23.8919H136.404L140.121 32.9578L143.587 23.8919H146.882L139.09 42.9527H135.768L138.336 36.6436Z" fill="black"/>
<path d="M60.2551 12.5389L66.4878 3.51521H60.8856V1.7348H69.4213V2.62163L63.3402 11.6453H69.246V13.4257H60.2567V12.5389H60.2551Z" fill="black"/>
<path d="M69.9861 9.16894C69.9861 8.49833 70.1142 7.88684 70.3721 7.33617C70.6301 6.78549 70.9757 6.31421 71.4123 5.92232C71.8473 5.53043 72.3531 5.22806 72.9297 5.01184C73.5062 4.79563 74.1165 4.68921 74.7589 4.68921C75.4062 4.68921 76.0098 4.79732 76.5678 5.01184C77.1259 5.22806 77.6097 5.53043 78.0228 5.92232C78.4358 6.31421 78.7578 6.78211 78.9905 7.32772C79.2248 7.87333 79.3411 8.47299 79.3411 9.1284C79.3411 9.79901 79.2181 10.4088 78.9753 10.9578C78.7308 11.5068 78.397 11.9747 77.9756 12.3632C77.5524 12.7517 77.0584 13.0524 76.4886 13.2652C75.9204 13.4781 75.3135 13.5845 74.6712 13.5845C74.0238 13.5845 73.4135 13.4764 72.842 13.2618C72.2705 13.0456 71.7748 12.745 71.3517 12.3547C70.9285 11.9662 70.5964 11.5017 70.3519 10.9612C70.1075 10.4206 69.9861 9.82266 69.9861 9.16894ZM74.7285 12.0102C75.1534 12.0102 75.5192 11.9308 75.8243 11.7703C76.1295 11.6098 76.3807 11.3987 76.5779 11.1352C76.7752 10.8716 76.9202 10.5676 77.0129 10.2213C77.1056 9.87502 77.1528 9.51522 77.1528 9.1436C77.1528 8.75002 77.1023 8.3784 77.0011 8.03043C76.9 7.68245 76.7465 7.37502 76.5425 7.11151C76.3385 6.84799 76.0823 6.64022 75.7738 6.4882C75.4653 6.33617 75.1011 6.26016 74.6813 6.26016C74.2514 6.26016 73.8822 6.33955 73.577 6.50002C73.2719 6.66049 73.0224 6.87333 72.8319 7.1436C72.6414 7.41218 72.4997 7.72468 72.4104 8.07772C72.3194 8.43245 72.2755 8.80576 72.2755 9.19935C72.2755 9.57772 72.3261 9.93752 72.4273 10.277C72.5284 10.6166 72.6801 10.9156 72.8858 11.1706C73.0898 11.4257 73.3461 11.6301 73.6512 11.7821C73.953 11.9358 74.3138 12.0102 74.7285 12.0102Z" fill="black"/>
<path d="M80.8332 1H82.8731V6.22973C83.0113 5.96284 83.1816 5.73311 83.3873 5.53885C83.5913 5.34459 83.8172 5.18412 84.065 5.05912C84.3112 4.93412 84.5775 4.84122 84.8625 4.78041C85.1474 4.71959 85.4357 4.68919 85.7273 4.68919C86.2382 4.68919 86.6832 4.77365 87.0659 4.94426C87.4486 5.11487 87.7673 5.34966 88.0219 5.65034C88.2764 5.95101 88.4686 6.30743 88.5951 6.7196C88.7232 7.13176 88.7856 7.58277 88.7856 8.07264V13.4223H86.7288V8.27365C86.7288 7.65541 86.5737 7.18412 86.2618 6.8598C85.9499 6.53547 85.4981 6.37331 84.9029 6.37331C84.2437 6.37331 83.7413 6.55743 83.3924 6.92905C83.0434 7.30068 82.8697 7.79054 82.8697 8.40203V13.424H80.8298V1H80.8332Z" fill="black"/>
<path d="M90.109 9.16894C90.109 8.49833 90.2371 7.88684 90.4951 7.33617C90.753 6.78549 91.0986 6.31421 91.5353 5.92232C91.9702 5.53043 92.476 5.22806 93.0526 5.01184C93.6292 4.79563 94.2395 4.68921 94.8818 4.68921C95.5292 4.68921 96.1327 4.79732 96.6908 5.01184C97.2488 5.22806 97.7326 5.53043 98.1457 5.92232C98.5587 6.31421 98.8807 6.78211 99.1134 7.32772C99.3477 7.87333 99.4641 8.47299 99.4641 9.1284C99.4641 9.79901 99.341 10.4088 99.0982 10.9578C98.8538 11.5068 98.52 11.9747 98.0985 12.3632C97.6753 12.7517 97.1814 13.0524 96.6115 13.2652C96.0434 13.4781 95.4364 13.5845 94.7941 13.5845C94.1467 13.5845 93.5364 13.4764 92.9649 13.2618C92.3934 13.0456 91.8977 12.745 91.4746 12.3547C91.0514 11.9662 90.7193 11.5017 90.4748 10.9612C90.2321 10.4206 90.109 9.82266 90.109 9.16894ZM94.8514 12.0102C95.2763 12.0102 95.6421 11.9308 95.9473 11.7703C96.2524 11.6098 96.5036 11.3987 96.7009 11.1352C96.8981 10.8716 97.0431 10.5676 97.1358 10.2213C97.2286 9.87502 97.2758 9.51522 97.2758 9.1436C97.2758 8.75002 97.2252 8.3784 97.124 8.03043C97.0229 7.68245 96.8695 7.37502 96.6655 7.11151C96.4615 6.84799 96.2052 6.64022 95.8967 6.4882C95.5882 6.33617 95.224 6.26016 94.8042 6.26016C94.3743 6.26016 94.0051 6.33955 93.7 6.50002C93.3948 6.66049 93.1453 6.87333 92.9548 7.1436C92.7643 7.41218 92.6227 7.72468 92.5333 8.07772C92.4423 8.43245 92.3985 8.80576 92.3985 9.19935C92.3985 9.57772 92.449 9.93752 92.5502 10.277C92.6513 10.6166 92.8031 10.9156 93.0087 11.1706C93.2127 11.4257 93.469 11.6301 93.7742 11.7821C94.0759 11.9358 94.4367 12.0102 94.8514 12.0102Z" fill="black"/>
</svg>
