<?xml version="1.0" encoding="UTF-8"?>
<svg id="Layer_1" data-name="Layer 1" xmlns="http://www.w3.org/2000/svg" viewBox="0 0 1024 536">
  <defs>
    
  </defs>
  <path class="cls-2" d="M260.05,310.71c-1.32-.38-2.67.47-2.92,1.83-1.45,7.96-8.42,14-16.8,14h-48.37c-9.44,0-17.09-7.65-17.09-17.09v-37.63c0-9.44,7.65-17.09,17.09-17.09h48.36c8.21,0,15.07,5.8,16.71,13.52.28,1.34,1.63,2.16,2.94,1.76,8.53-2.6,35.09-11.11,35.09-11.11-12.85-30.96-44.5-47.9-76.34-47.9-47.61,0-81.5,32.13-81.5,80.04,0,50.53,29.79,80.33,80.33,80.33,34.76,0,63.78-15.89,77.51-49.77,0,0-26.43-8.4-35.01-10.89Z"></path>
  <g>
    <g>
      <g>
        <path class="cls-1" d="M383.02,158.82v-2.61c0-11.97-6-18.06-17.53-18.06-5.18,0-9.43,1.39-12.85,4.11-4.94,3.94-11.61,4.92-17.4,2.39l-17.4-7.59c10.88-20.24,28.07-26.33,50.05-26.33,27.85,0,53.87,10.88,53.87,43.08v73.77h-24.59c-7.33,0-13.27-5.94-13.27-13.27h0c-7.62,11.53-18.62,15.88-31.89,15.88-21.54,0-38.52-11.1-38.52-34.16,0-37.64,42.56-37.21,69.54-37.21ZM365.49,203.87c9.79,0,17.53-5.44,17.53-16.1v-6.96h-8.39c-8.92,0-22.63.22-22.63,12.4,0,8.27,6.31,10.66,13.49,10.66Z"></path>
        <path class="cls-1" d="M462.26,62.64c11.53,0,21.54,8.27,21.54,20.24s-10.01,20.02-21.54,20.02-21.32-8.05-21.32-20.02,9.79-20.24,21.32-20.24ZM481.84,130.65v80.07c0,9.32-7.55,16.87-16.87,16.87h-22.08v-113.81h22.08c9.32,0,16.87,7.55,16.87,16.87Z"></path>
        <path class="cls-1" d="M699.5,110.73c36.12,0,57.88,23.07,57.88,58.75v10.23h-80.08c1.09,14.36,11.32,23.72,25.68,23.72,6.63,0,13.47-1.53,18.91-5.13,4.7-3.11,10.7-3.46,15.87-1.23l17.22,7.44c-10.44,18.28-33.51,25.68-53.31,25.68-36.99,0-63.76-21.32-63.76-59.84,0-35.69,26.55-59.62,61.58-59.62ZM719.52,157.74c-.44-12.62-6.53-21.32-20.02-21.32s-20.02,9.36-21.76,21.32h41.78Z"></path>
        <path class="cls-1" d="M772.77,227.59v-96.94c0-9.32,7.55-16.87,16.87-16.87h22.08v22.63c7.18-17.19,18.5-24.15,36.77-24.15v36.34c-17.84,0-36.77,2.83-36.77,25.02v37.1c0,9.32-7.55,16.87-16.87,16.87h-22.08Z"></path>
        <path class="cls-1" d="M583.63,161.43v51.21l29.72-12.95c5.61-2.44,9.23-7.98,9.23-14.1v-32c0-24.15-11.1-42.87-37.21-42.87-15.67,0-34.79,6.96-42.18,21.32v-18.28h-22.08c-9.32,0-16.87,7.55-16.87,16.87v96.94h22.08c9.32,0,16.87-7.55,16.87-16.87v-46.89c0-12.62,9.54-21.54,23.04-21.54,12.4,0,17.41,7.4,17.41,19.15Z"></path>
        <path class="cls-1" d="M271.74,208.87v-35.25c0-22.2,18.93-25.02,36.77-25.02v-36.34c-18.28,0-29.59,6.96-36.77,24.15v-22.63h-22.08c-9.32,0-16.87,7.55-16.87,16.87v65.46c13.7,1.71,27.03,6.02,38.95,12.75Z"></path>
        <path class="cls-1" d="M156.4,215.04c9.78-7.44,21.27-12.97,34.08-16.26,3.46-.95,7.01-1.74,10.67-2.33v-98.39h23.31c9.32,0,16.87-7.55,16.87-16.87v-17.45h-108.25c-9.32,0-16.87,7.55-16.87,16.87v17.45h40.18v116.98Z"></path>
      </g>
      <g>
        <path class="cls-2" d="M481.84,255.99v18.28c7.4-14.36,24.68-21.32,40.35-21.32,26.11,0,37.21,18.71,37.21,42.87v73.98h-22.08c-9.32,0-16.87-7.55-16.87-16.87v-49.28c0-11.75-5-19.15-17.41-19.15-13.49,0-21.2,8.92-21.2,21.54v46.89c0,9.32-7.55,16.87-16.87,16.87h-22.08v-96.94c0-9.32,7.55-16.87,16.87-16.87h22.08Z"></path>
        <path class="cls-2" d="M659.48,369.8v-96.94c0-9.32,7.55-16.87,16.87-16.87h22.08v22.63c7.18-17.19,18.5-24.15,36.77-24.15v36.34c-17.84,0-36.77,2.83-36.77,25.02v37.1c0,9.32-7.55,16.87-16.87,16.87h-22.08Z"></path>
        <path class="cls-2" d="M812.41,301.04v-2.61c0-11.97-7.83-18.06-19.37-18.06-5.18,0-9.43,1.39-12.85,4.11-4.94,3.94-11.61,4.92-17.4,2.39l-17.4-7.59c10.88-20.24,28.07-26.33,50.05-26.33,27.85,0,55.71,10.88,55.71,43.09v73.77h-24.59c-7.33,0-13.27-5.94-13.27-13.27h0c-7.62,11.53-20.45,15.88-33.73,15.88-21.54,0-38.52-11.1-38.52-34.16,0-37.65,44.39-37.21,71.37-37.21ZM793.04,346.08c9.79,0,19.37-5.44,19.37-16.1v-6.96h-10.23c-8.92,0-22.63.22-22.63,12.4,0,8.27,6.31,10.66,13.49,10.66Z"></path>
        <path class="cls-2" d="M869.05,369.8v-144.5c0-6.73,4-12.81,10.17-15.48l28.56-12.36v155.47c0,9.32-7.55,16.87-16.87,16.87h-21.86Z"></path>
        <path class="cls-2" d="M569.96,255.99h13.71v-12.67c0-6.71,3.98-12.78,10.13-15.47l28.82-12.56v40.69h22.41v26.55h-22.41v47c0,8.05,3.92,11.97,11.53,11.97,3.92,0,7.62-.65,11.1-1.96v19.88c0,6.01-4.34,11.18-10.28,12.11-3.7.58-7.45.87-11.27.87-26.33,0-40.04-12.4-40.04-39.17v-50.7h-13.71v-26.55Z"></path>
        <path class="cls-2" d="M260.05,311.75c-1.32-.38-2.67.47-2.92,1.83-1.45,7.96-8.42,14-16.8,14h-48.37c-9.44,0-17.09-7.65-17.09-17.09v-37.63c0-9.44,7.65-17.09,17.09-17.09h48.36c8.21,0,15.07,5.8,16.71,13.52.28,1.34,1.63,2.16,2.94,1.76,8.53-2.6,35.09-11.11,35.09-11.11-12.85-30.96-44.5-47.9-76.34-47.9-47.61,0-81.5,32.13-81.5,80.04,0,50.53,29.79,80.33,80.33,80.33,34.76,0,63.78-15.89,77.51-49.77,0,0-26.43-8.4-35.01-10.89Z"></path>
        <path class="cls-2" d="M368.04,252.95c36.12,0,57.88,23.07,57.88,58.75v10.23h-80.08c1.09,14.36,11.32,23.72,25.68,23.72,6.63,0,13.47-1.53,18.91-5.13,4.7-3.11,10.7-3.46,15.87-1.23l17.22,7.44c-10.44,18.28-33.51,25.68-53.31,25.68-36.99,0-63.76-21.32-63.76-59.84,0-35.69,26.55-59.62,61.58-59.62ZM388.06,299.95c-.44-12.62-6.53-21.32-20.02-21.32s-20.02,9.36-21.76,21.32h41.78Z"></path>
      </g>
    </g>
    <g>
      <path d="M546.38,394.57h10v25.7c.29-.47.61-.92.96-1.37.35-.44.72-.87,1.11-1.27.39-.4.8-.78,1.23-1.13s.88-.68,1.37-1c.48-.31.97-.6,1.46-.86.49-.26,1.01-.5,1.54-.72.53-.22,1.07-.41,1.6-.57.53-.16,1.08-.29,1.64-.41.56-.12,1.12-.2,1.68-.25.56-.05,1.11-.08,1.66-.08,1.28,0,2.49.1,3.63.29,1.15.2,2.23.48,3.24.86,1.02.38,1.97.83,2.85,1.37.88.53,1.71,1.14,2.46,1.82.75.68,1.45,1.41,2.09,2.21.64.79,1.21,1.65,1.72,2.56.51.91.95,1.86,1.33,2.85.38.99.69,2.01.94,3.07.25,1.05.44,2.14.57,3.26.13,1.12.2,2.25.2,3.4s-.07,2.33-.2,3.48c-.13,1.15-.33,2.25-.59,3.32-.26,1.07-.59,2.1-.98,3.11-.39,1-.84,1.96-1.35,2.87-.51.91-1.08,1.76-1.72,2.56-.64.79-1.33,1.53-2.09,2.21-.76.68-1.57,1.28-2.44,1.82-.87.53-1.8.98-2.77,1.35s-2.02.64-3.12.84c-1.11.2-2.26.29-3.46.29-.6,0-1.19-.03-1.78-.08-.59-.05-1.17-.12-1.74-.21-.57-.09-1.15-.21-1.72-.35-.57-.14-1.13-.31-1.66-.51-.53-.2-1.06-.42-1.58-.66-.52-.25-1.02-.52-1.48-.82-.47-.3-.92-.62-1.37-.98-.44-.35-.86-.73-1.25-1.13-.39-.4-.76-.83-1.09-1.29-.34-.46-.64-.94-.9-1.46v6.72h-10v-60.78ZM568.1,448.32c.88,0,1.71-.06,2.46-.2.75-.13,1.45-.31,2.09-.55.64-.23,1.22-.53,1.76-.88.53-.35,1.02-.75,1.45-1.19.43-.44.81-.92,1.15-1.45.34-.52.64-1.07.9-1.66.26-.59.48-1.2.66-1.86.18-.65.33-1.33.45-2.03s.2-1.43.25-2.17c.05-.74.08-1.5.08-2.29,0-.7-.03-1.41-.1-2.11-.07-.7-.17-1.39-.31-2.05-.14-.66-.33-1.31-.55-1.93-.22-.62-.48-1.22-.78-1.78-.3-.56-.64-1.09-1.02-1.6-.38-.51-.8-.98-1.27-1.41s-.98-.81-1.52-1.15c-.55-.34-1.14-.62-1.78-.86-.64-.23-1.32-.42-2.05-.55-.73-.13-1.51-.2-2.34-.2s-1.62.07-2.34.2c-.73.13-1.41.31-2.05.55-.64.23-1.23.53-1.78.88s-1.05.75-1.5,1.19c-.46.44-.87.92-1.23,1.45-.37.52-.7,1.07-1,1.66-.3.59-.55,1.2-.76,1.84-.21.64-.38,1.3-.53,1.99-.14.69-.25,1.4-.31,2.13-.07.73-.1,1.46-.1,2.19,0,.78.04,1.54.12,2.29s.2,1.46.35,2.17.34,1.37.57,2.01c.22.64.49,1.24.8,1.8.31.56.67,1.09,1.07,1.58.4.5.85.95,1.33,1.37.48.42,1,.79,1.56,1.11.56.33,1.17.6,1.82.82.65.22,1.35.39,2.09.51s1.53.18,2.36.18Z"></path>
      <path d="M609.63,451.09l-16.41-37.58h10.7l10.98,26.72,10.23-26.72h9.73l-23.01,56.17h-9.8l7.58-18.59Z"></path>
      <path d="M654.63,451.01l30.55-44.14h-27.46v-8.71h41.84v4.34l-29.8,44.14h28.95v8.71h-44.06v-4.34Z"></path>
      <path d="M702.32,434.53c0-1.3.1-2.56.31-3.79.21-1.22.51-2.4.92-3.52.4-1.12.88-2.19,1.45-3.2.56-1.02,1.2-1.97,1.93-2.87.73-.9,1.52-1.73,2.38-2.5.86-.77,1.77-1.47,2.73-2.11.96-.64,1.99-1.2,3.07-1.68,1.08-.48,2.19-.89,3.34-1.23,1.15-.34,2.33-.59,3.55-.76,1.22-.17,2.46-.25,3.71-.25s2.51.08,3.71.25c1.2.17,2.36.42,3.5.76,1.13.34,2.21.76,3.24,1.25,1.03.5,2,1.06,2.93,1.7.92.64,1.79,1.33,2.6,2.09.81.76,1.55,1.58,2.23,2.48.68.9,1.28,1.85,1.8,2.85.52,1,.96,2.06,1.33,3.16.36,1.11.64,2.26.84,3.46.2,1.2.29,2.44.29,3.71s-.1,2.6-.29,3.81-.48,2.38-.86,3.5c-.38,1.12-.85,2.19-1.41,3.2-.56,1.02-1.19,1.97-1.88,2.85-.69.89-1.45,1.71-2.29,2.48-.83.77-1.73,1.46-2.68,2.09-.95.62-1.95,1.18-2.99,1.66-1.04.48-2.14.89-3.28,1.21-1.15.33-2.32.57-3.54.74-1.21.17-2.44.25-3.69.25s-2.52-.08-3.73-.25c-1.21-.17-2.39-.42-3.54-.76-1.15-.34-2.25-.75-3.3-1.23-1.05-.48-2.06-1.04-3.01-1.68-.95-.64-1.84-1.33-2.68-2.09-.83-.75-1.6-1.58-2.3-2.46-.7-.88-1.33-1.83-1.88-2.83-.55-1-1.01-2.05-1.39-3.14-.38-1.09-.66-2.24-.86-3.44-.2-1.2-.29-2.43-.29-3.71ZM725.56,448.43c.83,0,1.62-.06,2.36-.2.74-.13,1.44-.32,2.09-.57.65-.25,1.25-.55,1.8-.9s1.05-.74,1.52-1.17.9-.9,1.29-1.43c.39-.52.74-1.07,1.04-1.66.3-.59.56-1.2.78-1.86.22-.65.41-1.31.57-1.99.16-.68.27-1.37.33-2.09.06-.72.1-1.44.1-2.17,0-.78-.04-1.54-.12-2.27-.08-.73-.2-1.45-.35-2.15s-.35-1.38-.59-2.03c-.23-.65-.51-1.27-.84-1.86-.33-.59-.69-1.13-1.09-1.64-.4-.51-.85-.98-1.33-1.41-.48-.43-1-.81-1.56-1.15-.56-.34-1.17-.62-1.82-.86-.65-.23-1.35-.42-2.09-.55-.74-.13-1.52-.2-2.32-.2s-1.62.07-2.36.2c-.74.13-1.44.32-2.09.57-.65.25-1.26.55-1.82.9-.56.35-1.07.75-1.52,1.19-.46.44-.88.93-1.27,1.46-.39.53-.73,1.1-1.02,1.7-.29.6-.54,1.22-.76,1.88-.22.65-.4,1.33-.55,2.05-.14.72-.25,1.45-.31,2.19-.07.74-.1,1.49-.1,2.25s.04,1.46.12,2.19c.08.73.2,1.43.35,2.11.16.68.36,1.33.61,1.95.25.62.53,1.22.84,1.8.31.57.67,1.11,1.07,1.62.4.51.85.97,1.33,1.39.48.42,1,.79,1.56,1.13.56.34,1.16.62,1.8.86.64.23,1.32.41,2.05.53.73.12,1.5.18,2.3.18Z"></path>
      <path d="M755.49,394.57h10v25.59c.26-.52.55-1.01.88-1.46.33-.46.68-.89,1.05-1.31.38-.42.77-.8,1.19-1.15.42-.35.85-.68,1.31-.98.46-.3.92-.57,1.41-.82.48-.25.98-.47,1.5-.66.52-.2,1.05-.36,1.58-.51.53-.14,1.08-.26,1.64-.35.56-.09,1.13-.16,1.7-.21.57-.05,1.15-.08,1.72-.08.99,0,1.94.07,2.85.21.91.14,1.76.35,2.56.61.79.26,1.54.58,2.25.96.7.38,1.35.81,1.95,1.31.6.5,1.15,1.04,1.64,1.62.49.59.94,1.22,1.35,1.89.4.68.75,1.4,1.05,2.17.3.77.55,1.57.74,2.4.2.83.34,1.7.45,2.6.1.9.16,1.83.16,2.79v26.17h-10.08v-25.2c0-.6-.03-1.17-.1-1.72-.07-.55-.16-1.07-.27-1.56-.12-.49-.27-.96-.45-1.39-.18-.43-.4-.83-.64-1.21-.25-.38-.52-.72-.82-1.04-.3-.31-.63-.59-1-.84-.37-.25-.76-.47-1.17-.66-.42-.2-.86-.36-1.33-.49-.47-.13-.97-.23-1.5-.29-.53-.06-1.09-.1-1.66-.1-.65,0-1.26.04-1.84.12-.57.08-1.13.19-1.66.33-.53.14-1.03.33-1.48.55-.46.22-.89.48-1.29.76-.4.29-.78.61-1.11.96-.34.35-.64.73-.92,1.13-.27.4-.51.83-.72,1.29-.21.46-.38.94-.53,1.45-.14.51-.25,1.04-.31,1.6-.07.56-.1,1.14-.1,1.74v24.57h-10v-60.78Z"></path>
      <path d="M800.95,434.53c0-1.3.1-2.56.31-3.79.21-1.22.51-2.4.92-3.52.4-1.12.88-2.19,1.45-3.2.56-1.02,1.2-1.97,1.93-2.87.73-.9,1.52-1.73,2.38-2.5.86-.77,1.77-1.47,2.73-2.11.96-.64,1.99-1.2,3.07-1.68,1.08-.48,2.19-.89,3.34-1.23,1.15-.34,2.33-.59,3.55-.76,1.22-.17,2.46-.25,3.71-.25s2.51.08,3.71.25c1.2.17,2.36.42,3.5.76,1.13.34,2.21.76,3.24,1.25,1.03.5,2,1.06,2.93,1.7.92.64,1.79,1.33,2.6,2.09.81.76,1.55,1.58,2.23,2.48.68.9,1.28,1.85,1.8,2.85.52,1,.96,2.06,1.33,3.16.36,1.11.64,2.26.84,3.46.2,1.2.29,2.44.29,3.71s-.1,2.6-.29,3.81-.48,2.38-.86,3.5c-.38,1.12-.85,2.19-1.41,3.2-.56,1.02-1.19,1.97-1.88,2.85-.69.89-1.45,1.71-2.29,2.48-.83.77-1.73,1.46-2.68,2.09-.95.62-1.95,1.18-2.99,1.66-1.04.48-2.14.89-3.28,1.21-1.15.33-2.32.57-3.54.74-1.21.17-2.44.25-3.69.25s-2.52-.08-3.73-.25c-1.21-.17-2.39-.42-3.54-.76-1.15-.34-2.25-.75-3.3-1.23-1.05-.48-2.06-1.04-3.01-1.68-.95-.64-1.84-1.33-2.68-2.09-.83-.75-1.6-1.58-2.3-2.46-.7-.88-1.33-1.83-1.88-2.83-.55-1-1.01-2.05-1.39-3.14-.38-1.09-.66-2.24-.86-3.44-.2-1.2-.29-2.43-.29-3.71ZM824.2,448.43c.83,0,1.62-.06,2.36-.2.74-.13,1.44-.32,2.09-.57.65-.25,1.25-.55,1.8-.9s1.05-.74,1.52-1.17.9-.9,1.29-1.43c.39-.52.74-1.07,1.04-1.66.3-.59.56-1.2.78-1.86.22-.65.41-1.31.57-1.99.16-.68.27-1.37.33-2.09.06-.72.1-1.44.1-2.17,0-.78-.04-1.54-.12-2.27-.08-.73-.2-1.45-.35-2.15s-.35-1.38-.59-2.03c-.23-.65-.51-1.27-.84-1.86-.33-.59-.69-1.13-1.09-1.64-.4-.51-.85-.98-1.33-1.41-.48-.43-1-.81-1.56-1.15-.56-.34-1.17-.62-1.82-.86-.65-.23-1.35-.42-2.09-.55-.74-.13-1.52-.2-2.32-.2s-1.62.07-2.36.2c-.74.13-1.44.32-2.09.57-.65.25-1.26.55-1.82.9-.56.35-1.07.75-1.52,1.19-.46.44-.88.93-1.27,1.46-.39.53-.73,1.1-1.02,1.7-.29.6-.54,1.22-.76,1.88-.22.65-.4,1.33-.55,2.05-.14.72-.25,1.45-.31,2.19-.07.74-.1,1.49-.1,2.25s.04,1.46.12,2.19c.08.73.2,1.43.35,2.11.16.68.36,1.33.61,1.95.25.62.53,1.22.84,1.8.31.57.67,1.11,1.07,1.62.4.51.85.97,1.33,1.39.48.42,1,.79,1.56,1.13.56.34,1.16.62,1.8.86.64.23,1.32.41,2.05.53.73.12,1.5.18,2.3.18Z"></path>
    </g>
  </g>
</svg>