<svg xmlns="http://www.w3.org/2000/svg" xmlns:xlink="http://www.w3.org/1999/xlink" width="261.474" height="111.513" viewBox="0 0 261.474 111.513">
  <defs>
    <linearGradient id="linear-gradient" x1="0.61" y1="0.601" x2="0.806" y2="0.75" gradientUnits="objectBoundingBox">
      <stop offset="0" stop-color="#ff3500"></stop>
      <stop offset="1" stop-color="#a93f25"></stop>
    </linearGradient>
    <linearGradient id="linear-gradient-2" x1="0.5" y1="0.722" x2="0.435" y2="0.896" gradientUnits="objectBoundingBox">
      <stop offset="0" stop-color="#00c900"></stop>
      <stop offset="1" stop-color="#0d870d"></stop>
    </linearGradient>
    <linearGradient id="linear-gradient-3" x1="0.221" y1="0.5" x2="0.036" y2="0.555" gradientUnits="objectBoundingBox">
      <stop offset="0" stop-color="#007eff"></stop>
      <stop offset="1" stop-color="#0e58a6"></stop>
    </linearGradient>
    <linearGradient id="linear-gradient-4" x1="0.5" y1="0.226" x2="0.369" y2="0.053" gradientUnits="objectBoundingBox">
      <stop offset="0" stop-color="#00a4ee"></stop>
      <stop offset="1" stop-color="#0d77a8"></stop>
    </linearGradient>
    <linearGradient id="linear-gradient-5" x1="0.698" y1="0.413" x2="0.881" y2="0.24" gradientUnits="objectBoundingBox">
      <stop offset="0" stop-color="#ffd800"></stop>
      <stop offset="1" stop-color="#a08f3a"></stop>
    </linearGradient>
  </defs>
  <g id="Group_30318" data-name="Group 30318" transform="translate(2531 -2703)">
    <g id="Group_30317" data-name="Group 30317" transform="translate(-461 257)">
      <path id="Path_110943" data-name="Path 110943" d="M64.58.018a68.17,68.17,0,0,0,4.273,14.25A68.369,68.369,0,0,0,82.484,34.99c.355.366.71.733,1.077,1.1a68.483,68.483,0,0,0,18.8,13.345A68.691,68.691,0,0,1,114.34,33.317a67.745,67.745,0,0,1,15.739-11.753A34.206,34.206,0,0,1,100.388.018Z" transform="translate(-2093.835 2445.992)" fill="url(#linear-gradient)"></path>
      <path id="Path_110944" data-name="Path 110944" d="M132.019,45.922a68.441,68.441,0,0,0-11.982,16.117q-1.494,2.783-2.738,5.716a68.092,68.092,0,0,0-4.788,17.469,68.415,68.415,0,0,1,35.041,17.847,34.143,34.143,0,0,1,11.271-34.846L147.758,34.169a68.211,68.211,0,0,0-15.739,11.753" transform="translate(-2111.526 2433.388)" fill="url(#linear-gradient-2)"></path>
      <path id="Path_110945" data-name="Path 110945" d="M69.871,114.447a69.265,69.265,0,0,1,.619,9.267,68.243,68.243,0,0,1-5.407,26.735c-.4.974-.836,1.936-1.283,2.876a34.078,34.078,0,0,1,36.839,0l28.947-21.031a68.41,68.41,0,0,0-47.378-18.947,69.124,69.124,0,0,0-12.337,1.1" transform="translate(-2093.547 2404.166)" fill="url(#linear-gradient-3)"></path>
      <path id="Path_110946" data-name="Path 110946" d="M35.757,79.71A68.3,68.3,0,0,1,9.021,85.117a69.021,69.021,0,0,1-9-.585A34.046,34.046,0,0,1,12.389,110.8a34.188,34.188,0,0,1-1.076,8.58l28.958,21.042c.458-.951.882-1.913,1.294-2.875a68.29,68.29,0,0,0,5.407-26.736,71.127,71.127,0,0,0-.63-9.29,67.97,67.97,0,0,0-4.789-17.469q-1.237-2.939-2.738-5.727c-1.008.481-2.028.951-3.059,1.386" transform="translate(-2070.006 2417.092)" fill="url(#linear-gradient-4)"></path>
      <path id="Path_110947" data-name="Path 110947" d="M40.745,0a34.171,34.171,0,0,1-29.68,21.547L0,55.613A69.151,69.151,0,0,0,9,56.2a68.259,68.259,0,0,0,26.736-5.407c1.031-.436,2.05-.894,3.059-1.386A68.044,68.044,0,0,0,57.561,36.071c.367-.366.722-.733,1.076-1.1A68.484,68.484,0,0,1,45.018,14.249,67.952,67.952,0,0,1,40.745,0Z" transform="translate(-2070 2446)" fill="url(#linear-gradient-5)"></path>
    </g>
    <path id="Path_110985" data-name="Path 110985" d="M13.77-42.891v25.547q0,.879.044,1.7t.146,1.6q.1.776.264,1.479a9.226,9.226,0,0,0,.41,1.333,7.114,7.114,0,0,0,.6,1.187,6.318,6.318,0,0,0,.806,1.025,5.073,5.073,0,0,0,1.04.82,7.114,7.114,0,0,0,1.289.6,8.568,8.568,0,0,0,1.567.381,12.567,12.567,0,0,0,1.89.132,12.785,12.785,0,0,0,1.919-.132,8.486,8.486,0,0,0,1.6-.4,6.87,6.87,0,0,0,1.318-.63A5.2,5.2,0,0,0,27.7-9.1a6.549,6.549,0,0,0,.806-1.055,8.34,8.34,0,0,0,.615-1.216,8.393,8.393,0,0,0,.425-1.377q.161-.732.264-1.538t.146-1.655Q30-16.787,30-17.7v-25.2h9.785v25.781a28.6,28.6,0,0,1-.19,3.384,21.473,21.473,0,0,1-.571,3.018,17.838,17.838,0,0,1-.937,2.666,14.02,14.02,0,0,1-1.3,2.314,12.822,12.822,0,0,1-1.67,1.948,14.552,14.552,0,0,1-2.007,1.6A14.328,14.328,0,0,1,30.776-.937a18.965,18.965,0,0,1-2.666.894,21.57,21.57,0,0,1-3,.542A29.99,29.99,0,0,1,21.8.674,29.592,29.592,0,0,1,18.5.5a22.679,22.679,0,0,1-2.974-.527,17.953,17.953,0,0,1-2.651-.879,14.478,14.478,0,0,1-2.314-1.23A14.092,14.092,0,0,1,8.584-3.706,12.415,12.415,0,0,1,6.943-5.625,14.693,14.693,0,0,1,5.654-7.9,16.085,16.085,0,0,1,4.731-10.5a22.169,22.169,0,0,1-.557-2.944,26.976,26.976,0,0,1-.19-3.281V-42.891Zm33.952-.322,8.643-3.779V0H47.722ZM82.143-3.779a8.4,8.4,0,0,1-.688.923q-.366.425-.762.806a7.661,7.661,0,0,1-.82.688,10.41,10.41,0,0,1-.879.571q-.454.264-.923.483A8.282,8.282,0,0,1,77.1.073a9.041,9.041,0,0,1-1.011.264q-.513.1-1.04.19a9.676,9.676,0,0,1-1.069.117q-.542.029-1.1.029A17.513,17.513,0,0,1,71.113.586a12.948,12.948,0,0,1-1.67-.278A13.025,13.025,0,0,1,67.89-.161,9.585,9.585,0,0,1,66.5-.806a9.4,9.4,0,0,1-1.23-.835,7.494,7.494,0,0,1-1.055-1.025,7.98,7.98,0,0,1-.835-1.2,8.612,8.612,0,0,1-.63-1.392,8.88,8.88,0,0,1-.4-1.6,11.651,11.651,0,0,1-.132-1.787,10.626,10.626,0,0,1,.22-2.227,9.12,9.12,0,0,1,.615-1.89,8.007,8.007,0,0,1,.952-1.582,8.368,8.368,0,0,1,1.26-1.3,9.746,9.746,0,0,1,1.523-1.04,14.482,14.482,0,0,1,1.714-.806,14.234,14.234,0,0,1,1.86-.586q.967-.234,1.978-.381t2.036-.22q1.025-.073,2.051-.073h5.625q0-1.055-.059-1.992a10.845,10.845,0,0,0-.234-1.714,5.245,5.245,0,0,0-.527-1.406,3.236,3.236,0,0,0-.937-1.055,4.412,4.412,0,0,0-1.465-.659,8.274,8.274,0,0,0-2.109-.234,7.7,7.7,0,0,0-.82.044q-.41.044-.806.117a7.752,7.752,0,0,0-.791.19,6.412,6.412,0,0,0-.762.278q-.366.161-.7.352a5.524,5.524,0,0,0-.659.439,6.267,6.267,0,0,0-.6.527,5.04,5.04,0,0,0-.513.6,4.976,4.976,0,0,0-.425.7,7.126,7.126,0,0,0-.337.791l-6.65-2.9A10.735,10.735,0,0,1,64.4-26.25a9.026,9.026,0,0,1,.967-1.362,10.084,10.084,0,0,1,1.172-1.157,11.892,11.892,0,0,1,1.333-.967,11.657,11.657,0,0,1,1.465-.776,16.049,16.049,0,0,1,1.582-.6q.82-.264,1.655-.454t1.7-.308q.864-.117,1.729-.176t1.714-.059q1.143,0,2.212.1a18.8,18.8,0,0,1,2.051.308,13.9,13.9,0,0,1,1.875.527,12.563,12.563,0,0,1,1.685.747,9.484,9.484,0,0,1,1.479.981,8.928,8.928,0,0,1,1.26,1.245,8.78,8.78,0,0,1,1.011,1.523,10.383,10.383,0,0,1,.732,1.787,13.7,13.7,0,0,1,.454,2.065,16.58,16.58,0,0,1,.161,2.373V0h-8.5Zm-3.428-9.844q-.469,0-.981.015t-1.04.044q-.527.029-1.069.1t-1.069.19a8.089,8.089,0,0,0-1.011.293,5.524,5.524,0,0,0-.908.425,4.549,4.549,0,0,0-.776.571,3.339,3.339,0,0,0-.6.732,3.758,3.758,0,0,0-.4.923,4.213,4.213,0,0,0-.146,1.157,4.914,4.914,0,0,0,.059.776,3.739,3.739,0,0,0,.176.688,3.251,3.251,0,0,0,.278.586,2.6,2.6,0,0,0,.381.483,3.59,3.59,0,0,0,.469.4,4.746,4.746,0,0,0,.527.322,3.686,3.686,0,0,0,.6.249,4.993,4.993,0,0,0,.659.161q.337.059.7.088t.747.029a8.9,8.9,0,0,0,1.011-.059q.513-.059,1-.161a8.091,8.091,0,0,0,.952-.264,6.64,6.64,0,0,0,.894-.381,5.416,5.416,0,0,0,.791-.5,5.85,5.85,0,0,0,.688-.615,5.351,5.351,0,0,0,.586-.732,4.371,4.371,0,0,0,.439-.85,5.964,5.964,0,0,0,.278-.952,5.378,5.378,0,0,0,.1-1.084v-2.637Zm37.263,9.844a8.4,8.4,0,0,1-.688.923q-.366.425-.762.806a7.661,7.661,0,0,1-.82.688,10.41,10.41,0,0,1-.879.571q-.454.264-.923.483a8.282,8.282,0,0,1-.967.381,9.041,9.041,0,0,1-1.011.264q-.513.1-1.04.19a9.676,9.676,0,0,1-1.069.117q-.542.029-1.1.029a17.513,17.513,0,0,1-1.772-.088,12.948,12.948,0,0,1-1.67-.278,13.025,13.025,0,0,1-1.553-.469,9.585,9.585,0,0,1-1.392-.645,9.4,9.4,0,0,1-1.23-.835,7.494,7.494,0,0,1-1.055-1.025,7.98,7.98,0,0,1-.835-1.2,8.612,8.612,0,0,1-.63-1.392,8.88,8.88,0,0,1-.4-1.6,11.651,11.651,0,0,1-.132-1.787,10.626,10.626,0,0,1,.22-2.227,9.12,9.12,0,0,1,.615-1.89,8.007,8.007,0,0,1,.952-1.582,8.368,8.368,0,0,1,1.26-1.3,9.746,9.746,0,0,1,1.523-1.04,14.482,14.482,0,0,1,1.714-.806,14.234,14.234,0,0,1,1.86-.586q.967-.234,1.978-.381t2.036-.22q1.025-.073,2.051-.073h5.625q0-1.055-.059-1.992a10.845,10.845,0,0,0-.234-1.714,5.245,5.245,0,0,0-.527-1.406,3.236,3.236,0,0,0-.937-1.055,4.412,4.412,0,0,0-1.465-.659,8.274,8.274,0,0,0-2.109-.234,7.7,7.7,0,0,0-.82.044q-.41.044-.806.117a7.752,7.752,0,0,0-.791.19,6.412,6.412,0,0,0-.762.278q-.366.161-.7.352a5.524,5.524,0,0,0-.659.439,6.267,6.267,0,0,0-.6.527,5.04,5.04,0,0,0-.513.6,4.976,4.976,0,0,0-.425.7,7.126,7.126,0,0,0-.337.791l-6.65-2.9a10.735,10.735,0,0,1,.747-1.582,9.026,9.026,0,0,1,.967-1.362,10.084,10.084,0,0,1,1.172-1.157,11.892,11.892,0,0,1,1.333-.967,11.657,11.657,0,0,1,1.465-.776,16.049,16.049,0,0,1,1.582-.6q.82-.264,1.655-.454t1.7-.308q.864-.117,1.729-.176t1.714-.059q1.143,0,2.212.1a18.8,18.8,0,0,1,2.051.308,13.9,13.9,0,0,1,1.875.527,12.563,12.563,0,0,1,1.685.747,9.484,9.484,0,0,1,1.479.981,8.928,8.928,0,0,1,1.26,1.245,8.78,8.78,0,0,1,1.011,1.523,10.383,10.383,0,0,1,.732,1.787,13.7,13.7,0,0,1,.454,2.065,16.58,16.58,0,0,1,.161,2.373V0h-8.5Zm-3.428-9.844q-.469,0-.981.015t-1.04.044q-.527.029-1.069.1t-1.069.19a8.089,8.089,0,0,0-1.011.293,5.524,5.524,0,0,0-.908.425,4.549,4.549,0,0,0-.776.571,3.339,3.339,0,0,0-.6.732,3.758,3.758,0,0,0-.4.923,4.213,4.213,0,0,0-.146,1.157,4.914,4.914,0,0,0,.059.776,3.739,3.739,0,0,0,.176.688,3.251,3.251,0,0,0,.278.586,2.6,2.6,0,0,0,.381.483,3.59,3.59,0,0,0,.469.4,4.746,4.746,0,0,0,.527.322,3.686,3.686,0,0,0,.6.249,4.993,4.993,0,0,0,.659.161q.337.059.7.088t.747.029a8.9,8.9,0,0,0,1.011-.059q.513-.059,1-.161a8.091,8.091,0,0,0,.952-.264A6.64,6.64,0,0,0,113-6.255a5.416,5.416,0,0,0,.791-.5,5.85,5.85,0,0,0,.688-.615,5.351,5.351,0,0,0,.586-.732,4.371,4.371,0,0,0,.439-.85,5.964,5.964,0,0,0,.278-.952,5.378,5.378,0,0,0,.1-1.084v-2.637Z" transform="translate(-2394 2781)"></path>
  </g>
</svg>