<svg width="675" height="256" viewBox="0 0 675 256" fill="none" xmlns="http://www.w3.org/2000/svg">
<path d="M138.219 252.62L0.356445 1.08318C6.10073 0.36106 11.9599 0 17.8191 0C100.996 0 168.434 70.647 168.434 157.782C168.434 179.446 164.298 200.026 156.831 218.801L138.334 252.62H138.219Z" fill="#FF1368"></path>
<mask id="mask0_7192_3936" style="mask-type:luminance" maskUnits="userSpaceOnUse" x="0" y="0" width="169" height="253">
<path d="M138.219 252.62L0.356445 1.08318C6.10073 0.36106 11.9599 0 17.8191 0C100.996 0 168.434 70.647 168.434 157.782C168.434 179.446 164.298 200.026 156.831 218.801L138.334 252.62H138.219Z" fill="white"></path>
</mask>
<g mask="url(#mask0_7192_3936)">
<path d="M99.0415 134.678C148.532 134.678 188.652 92.6486 188.652 40.8028C188.652 -11.043 148.532 -53.0723 99.0415 -53.0723C49.5508 -53.0723 9.43066 -11.043 9.43066 40.8028C9.43066 92.6486 49.5508 134.678 99.0415 134.678Z" fill="#FF4F1E"></path>
<path d="M7.83254 157.543C57.3233 157.543 97.4434 115.514 97.4434 63.668C97.4434 11.8223 57.3233 -30.207 7.83254 -30.207C-41.6582 -30.207 -81.7783 11.8223 -81.7783 63.668C-81.7783 115.514 -41.6582 157.543 7.83254 157.543Z" fill="#FF5E00"></path>
<path d="M25.6327 64.6317C59.9589 64.6317 87.7858 35.4806 87.7858 -0.479065C87.7858 -36.4388 59.9589 -65.5898 25.6327 -65.5898C-8.69358 -65.5898 -36.5205 -36.4388 -36.5205 -0.479065C-36.5205 35.4806 -8.69358 64.6317 25.6327 64.6317Z" fill="#FF7700"></path>
</g>
<g style="mix-blend-mode:multiply" opacity="0.45">
<path d="M126.162 48.1387C119.613 58.0076 111.226 72.9313 105.482 92.5488C102.84 101.696 98.9336 117.943 98.9336 138.523C98.9336 149.837 100.082 166.205 105.597 184.98C109.733 199.181 115.132 210.615 119.728 218.678C118.234 214.827 116.281 209.652 114.443 203.394C109.158 185.1 108.01 168.973 108.01 157.78C108.01 137.2 111.801 120.832 114.558 111.565C120.992 89.6603 130.642 73.4127 138.225 63.0624C136.386 60.535 134.433 58.0076 132.365 55.3598C130.297 52.7121 128.115 50.305 126.162 48.1387Z" fill="#840475"></path>
</g>
<path d="M138.223 252.62L276.086 1.08318C270.341 0.36106 264.482 0 258.623 0C175.446 0 108.008 70.647 108.008 157.782C108.008 179.325 112.144 199.906 119.611 218.681" fill="#238BE7"></path>
<mask id="mask1_7192_3936" style="mask-type:luminance" maskUnits="userSpaceOnUse" x="108" y="0" width="169" height="253">
<path d="M138.225 252.62L276.088 1.08318C270.343 0.36106 264.484 0 258.625 0C175.448 0 108.01 70.647 108.01 157.782C108.01 179.325 112.146 199.906 119.613 218.681" fill="white"></path>
</mask>
<g mask="url(#mask1_7192_3936)">
<path d="M133.977 208.332C183.468 208.332 223.588 166.303 223.588 114.457C223.588 62.6113 183.468 20.582 133.977 20.582C84.4864 20.582 44.3662 62.6113 44.3662 114.457C44.3662 166.303 84.4864 208.332 133.977 208.332Z" fill="#6359E0"></path>
<path d="M186.816 279.338C236.307 279.338 276.427 237.309 276.427 185.463C276.427 133.617 236.307 91.5879 186.816 91.5879C137.325 91.5879 97.2051 133.617 97.2051 185.463C97.2051 237.309 137.325 279.338 186.816 279.338Z" fill="#6E49B8"></path>
<path d="M130.755 265.016C165.081 265.016 192.908 235.865 192.908 199.906C192.908 163.946 165.081 134.795 130.755 134.795C96.4285 134.795 68.6016 163.946 68.6016 199.906C68.6016 235.865 96.4285 265.016 130.755 265.016Z" fill="#A40588"></path>
</g>
<path d="M412.075 19.1379L381.114 120.508L349.828 18.9686C348.212 14.0567 343.927 10.7539 338.996 10.7539H320.079L365.835 152.52H396.15L442.148 10.8386H422.908C417.977 10.8386 413.611 14.1414 412.156 19.0532L412.075 19.1379Z" fill="#2A1F31"></path>
<path d="M510.381 55.8032C506.743 52.6697 502.539 50.3832 497.608 48.8588C492.677 47.3345 487.26 46.5723 481.44 46.5723C476.994 46.5723 472.628 46.9957 468.182 47.8426C463.817 48.6894 459.694 50.1291 455.894 52.1616C452.095 54.1941 448.619 56.7347 445.628 59.8682C442.636 63.0016 440.292 66.8972 438.594 71.4703L448.214 75.7893C452.58 77.7371 457.754 76.7209 460.906 72.9947C462.281 71.3856 463.897 69.9459 465.757 68.7603C469.799 66.2197 474.245 64.9494 479.015 64.9494C483.057 64.9494 486.29 65.5422 488.796 66.6431C491.302 67.7441 493.242 69.3531 494.698 71.4703C496.072 73.5875 497.042 76.1281 497.608 79.0921C498.093 82.0562 498.416 85.4437 498.416 89.0852V90.6943H486.775C482.976 90.6943 479.015 90.8637 474.973 91.2024C470.931 91.5412 466.969 92.134 463.089 92.9808C459.209 93.8277 455.571 95.098 452.095 96.6224C448.619 98.1468 445.628 100.179 443.121 102.635C440.535 105.091 438.514 108.055 437.058 111.612C435.523 115.169 434.795 119.319 434.795 124.061C434.795 129.142 435.684 133.631 437.382 137.357C439.079 141.168 441.424 144.301 444.415 146.757C447.406 149.298 450.882 151.161 454.924 152.347C458.966 153.532 463.332 154.21 467.939 154.21C474.083 154.21 479.823 153.109 485.078 150.822C490.332 148.536 494.859 144.809 498.659 139.559V152.262H521.941V84.4274C521.941 77.8218 520.971 72.1478 518.95 67.3206C516.929 62.4935 514.099 58.5132 510.542 55.4644L510.381 55.8032ZM498.335 116.27C498.335 119.742 497.608 122.791 496.234 125.416C494.778 128.041 492.919 130.159 490.656 131.852C488.311 133.546 485.724 134.816 482.814 135.663C479.904 136.51 476.994 136.933 473.922 136.933C471.739 136.933 469.637 136.679 467.697 136.171C465.757 135.663 464.14 134.901 462.685 133.8C461.23 132.699 460.098 131.259 459.29 129.566C458.481 127.872 458.077 125.755 458.077 123.214C458.077 119.234 459.047 116.185 460.906 113.899C462.847 111.612 465.191 109.918 468.101 108.733C470.931 107.547 474.083 106.87 477.317 106.531C480.631 106.277 483.622 106.107 486.29 106.107H498.255V116.185L498.335 116.27Z" fill="#2A1F31"></path>
<path d="M622.498 58.3438C619.669 54.7022 616.112 51.8229 611.746 49.7057C607.381 47.6732 602.288 46.5723 596.387 46.5723C592.911 46.5723 589.515 46.911 586.201 47.6732C582.886 48.4354 579.734 49.5363 576.904 51.1454C573.994 52.6697 571.326 54.6175 568.982 56.9888C566.557 59.2753 564.536 62.07 563 65.2881V48.8588H550.631C544.406 48.8588 539.313 54.1941 539.313 60.715V152.601H563V91.7105C563 84.2581 565.102 78.2453 569.224 73.7568C573.347 69.2684 579.168 67.0666 586.686 67.0666C594.204 67.0666 598.893 69.0991 602.126 73.0794C605.36 77.1443 606.977 82.8184 606.977 90.1015V152.601H630.986V87.7302C630.986 81.8868 630.34 76.3822 628.965 71.3856C627.591 66.3891 625.489 62.07 622.66 58.3438H622.498Z" fill="#2A1F31"></path>
<path d="M673.673 13.4616C672.946 11.7679 671.976 10.2435 670.682 8.97319C669.389 7.70288 667.934 6.77132 666.317 6.00914C664.619 5.33164 662.841 4.9082 660.981 4.9082C659.122 4.9082 657.263 5.24695 655.565 5.92445C653.867 6.60195 652.412 7.53351 651.119 8.80381C649.825 10.0741 648.774 11.5138 648.047 13.2922C647.319 14.986 646.915 16.8491 646.915 18.9663C646.915 21.0835 647.319 22.8619 648.047 24.5556C648.774 26.3341 649.825 27.7737 651.119 29.0441C652.412 30.3144 653.948 31.3306 655.646 32.0081C657.343 32.6856 659.203 33.109 661.062 33.109C662.921 33.109 664.862 32.7703 666.478 32.0081C668.176 31.3306 669.55 30.3144 670.763 29.1287C671.976 27.8584 672.946 26.4187 673.592 24.6403C674.32 22.8619 674.643 20.9988 674.643 19.051C674.643 17.1032 674.32 15.0707 673.592 13.3769L673.673 13.4616Z" fill="#2A1F31"></path>
<path d="M648.778 60.8907V152.607H672.465V49.1191H660.096C653.871 49.1191 648.778 54.4544 648.778 60.9753V60.8907Z" fill="#2A1F31"></path>
<path d="M615.834 243.397C604.13 243.397 596.591 234.744 596.591 223.148C596.591 211.874 604.741 203.438 616.265 203.438C627.933 203.438 635.545 212.09 635.545 223.363C635.545 235.031 627.359 243.397 615.834 243.397ZM616.086 237.293C624.379 237.293 627.754 230.687 627.754 223.471C627.754 215.967 624.092 209.541 615.942 209.541C607.649 209.541 604.382 216.147 604.382 223.435C604.382 231.154 608.044 237.293 616.086 237.293Z" fill="#2A1F31"></path>
<path d="M554.082 242.681V186.135H561.729V210.297C564.027 205.522 569.017 203.44 574.259 203.44C583.594 203.44 588.189 209.974 588.189 218.985V242.681H580.542V219.201C580.542 213.169 577.562 209.866 571.746 209.866C565.391 209.866 561.729 213.779 561.729 219.703V242.681H554.082Z" fill="#2A1F31"></path>
<path d="M525.074 243.397C513.37 243.397 505.83 234.744 505.83 223.148C505.83 211.874 513.98 203.438 525.504 203.438C537.173 203.438 544.784 212.09 544.784 223.363C544.784 235.031 536.598 243.397 525.074 243.397ZM525.325 237.293C533.618 237.293 536.993 230.687 536.993 223.471C536.993 215.967 533.331 209.541 525.181 209.541C516.888 209.541 513.621 216.147 513.621 223.435C513.621 231.154 517.283 237.293 525.325 237.293Z" fill="#2A1F31"></path>
<path d="M461.131 242.68V239.377L490.247 196.653H463.788V190.119H500.839V193.422L472.404 235.93H500.264V242.68H461.131Z" fill="#2A1F31"></path>
<path d="M414.782 256.001L421.927 238.696L406.92 204.23H415.141L425.876 230.331L435.893 204.23H443.468L422.358 256.001H414.782Z" fill="#2A1F31"></path>
<path d="M365.739 242.679V186.098H373.386V210.583C375.935 206.131 381.68 203.438 386.67 203.438C398.41 203.438 404.119 212.809 404.119 223.328C404.119 234.206 398.015 243.397 386.993 243.397C381.5 243.397 375.971 241.136 373.386 236.432V242.679H365.739ZM385.09 237.222C393.707 237.222 396.328 230.58 396.328 223.185C396.328 216.255 392.881 209.614 385.126 209.614C376.653 209.614 373.063 216.112 373.063 223.544C373.063 231.406 377.048 237.222 385.09 237.222Z" fill="#2A1F31"></path>
</svg>