<svg width="125" height="50" viewBox="0 0 125 50" fill="none" xmlns="http://www.w3.org/2000/svg">
<path d="M59.3496 23.7838H63.2622L68.3435 39.4088L73.374 23.7838H76.9309L70.2913 43.1925H65.9384L59.3496 23.7838Z" fill="black"/>
<path d="M85.2812 41.4527C84.1972 42.8885 82.622 43.4459 80.8605 43.4459C78.1843 43.4459 76.084 42.0946 76.084 39.3074C76.084 35.3716 80.2507 34.7466 83.5705 34.7466H85.2473V34.527C85.2473 32.5 84.7731 31.2162 82.4695 31.2162C81.0807 31.2162 79.8103 31.9256 79.3022 33.2432L76.6599 32.1114C77.6084 29.6114 80.2676 28.6993 82.8083 28.6993C86.1789 28.6993 88.6179 30.3209 88.6179 33.9189V43.1925H85.2643V41.4527H85.2812ZM83.5366 36.8412C81.9614 36.8412 79.4716 37.027 79.4716 39.1723C79.4716 40.5405 80.4709 41.0473 81.7412 41.0473C83.4689 41.0473 85.2473 40.152 85.2473 38.2263V36.8412H83.5366Z" fill="black"/>
<path d="M101.762 40.9628C100.864 42.6858 99.0346 43.4628 97.0698 43.4628C93.8008 43.4628 92.0732 41.3175 92.0732 38.0912V29.0033H95.4777V37.6689C95.4777 39.6114 96.3754 40.7939 98.3571 40.7939C100.491 40.7939 101.778 39.4256 101.778 37.3986V28.9865H105.166V43.1756H101.778V40.9628H101.762Z" fill="black"/>
<path d="M108.977 23.2432L112.381 21.7736V43.1925H108.977V23.2432Z" fill="black"/>
<path d="M123.408 43.0912C122.68 43.3108 121.917 43.429 121.07 43.429C118.36 43.429 116.751 42.027 116.751 39.206V31.4864H114.837V28.9864H116.751V26.0641L120.156 24.5945V29.0033H123.289V31.5033H120.156V38.9189C120.156 40.0337 120.63 40.7263 121.883 40.7263C122.358 40.7263 122.9 40.6249 123.408 40.456V43.0912Z" fill="black"/>
<path d="M60.9756 17.6351L67.2426 8.61484H61.6193V6.84119H70.1897V7.71956L64.0752 16.7398H70.0034V18.5135H60.9756V17.6351Z" fill="black"/>
<path d="M75.559 9.7973C78.1674 9.7973 80.166 11.6216 80.166 14.2399C80.166 16.9257 78.0658 18.6993 75.4743 18.6993C72.8659 18.6993 70.7656 16.8919 70.7656 14.2905C70.7656 11.5878 72.9845 9.7973 75.559 9.7973ZM77.9641 14.2399C77.9641 12.6689 77.1681 11.3514 75.4743 11.3514C73.7467 11.3514 73.0522 12.7196 73.0522 14.2905C73.0522 15.8108 73.8652 17.0946 75.5251 17.0946C77.2358 17.1115 77.9641 15.7432 77.9641 14.2399Z" fill="black"/>
<path d="M81.6566 6.09796H83.706V11.3344C84.265 10.2703 85.3828 9.79729 86.5685 9.79729C88.6179 9.79729 89.6511 11.2331 89.6511 13.1757V18.5304H87.5847V13.3784C87.5847 12.1453 86.9411 11.4696 85.7555 11.4696C84.4343 11.4696 83.706 12.2804 83.706 13.4966V18.5135H81.6566V6.09796Z" fill="black"/>
<path d="M95.7656 9.7973C98.374 9.7973 100.373 11.6216 100.373 14.2399C100.373 16.9257 98.2724 18.6993 95.6809 18.6993C93.0725 18.6993 90.9722 16.8919 90.9722 14.2905C90.9722 11.5878 93.1911 9.7973 95.7656 9.7973ZM98.1707 14.2399C98.1707 12.6689 97.3747 11.3514 95.6809 11.3514C93.9533 11.3514 93.2588 12.7196 93.2588 14.2905C93.2588 15.8108 94.0718 17.0946 95.7317 17.0946C97.4594 17.1115 98.1707 15.7432 98.1707 14.2399Z" fill="black"/>
<path d="M41.3618 49.4933H36.5515C34.6884 49.4933 33.1809 47.9899 33.1809 46.1318V44.1554C33.1809 43.8852 32.9607 43.6825 32.7066 43.6825H18.2588C17.9878 43.6825 17.7846 43.902 17.7846 44.1554V46.1318C17.7846 47.9899 16.2771 49.4933 14.414 49.4933H9.56979C7.70665 49.4933 6.1992 47.9899 6.1992 46.1318V43.5304C3.16735 42.8716 0.897705 40.1689 0.897705 36.9595V7.22975C0.914643 3.53042 3.92955 0.506775 7.65584 0.506775H43.2927C47.002 0.506775 50.0339 3.53042 50.0339 7.22975V36.9595C50.0339 40.1689 47.7642 42.8716 44.7324 43.5304V46.1318C44.7324 47.9899 43.2249 49.4933 41.3618 49.4933ZM18.2419 40.7939H32.6897C34.5529 40.7939 36.0603 42.2973 36.0603 44.1554V46.1318C36.0603 46.402 36.2805 46.6047 36.5346 46.6047H41.3449C41.6159 46.6047 41.8191 46.3852 41.8191 46.1318V42.2466C41.8191 41.4527 42.4627 40.8108 43.2588 40.8108C45.376 40.8108 47.1037 39.0879 47.1037 36.9764V7.24664C47.1037 5.13515 45.376 3.41218 43.2588 3.41218H7.65584C5.53863 3.41218 3.81098 5.13515 3.81098 7.24664V36.9764C3.81098 39.0879 5.53863 40.8108 7.65584 40.8108C8.45191 40.8108 9.09554 41.4527 9.09554 42.2466V46.1318C9.09554 46.402 9.31573 46.6047 9.56979 46.6047H14.397C14.668 46.6047 14.8713 46.3852 14.8713 46.1318V44.1554C14.8713 42.3142 16.3787 40.7939 18.2419 40.7939Z" fill="#226DB4"/>
<path d="M29.9458 19.9324C29.7087 19.1723 28.8787 18.7669 28.1334 19.0034L22.4424 20.8277V14.9155C22.4424 14.1216 21.7988 13.4797 21.0027 13.4797C20.2066 13.4797 19.563 14.1216 19.563 14.9155V20.8277L13.8889 19.0034C13.1267 18.75 12.3137 19.1723 12.0765 19.9324C11.8394 20.6926 12.2459 21.5034 13.0081 21.7399L18.6822 23.5642L15.1592 28.3953C14.6849 29.0372 14.8374 29.9493 15.481 30.4054C15.7351 30.5912 16.04 30.6757 16.3279 30.6757C16.7683 30.6757 17.2087 30.473 17.4966 30.0845L21.0196 25.2534L24.5427 30.0845C24.8306 30.473 25.271 30.6757 25.7114 30.6757C25.9993 30.6757 26.3042 30.5912 26.5582 30.4054C27.2019 29.9324 27.3374 29.0372 26.8801 28.3953L23.374 23.5811L29.0481 21.7568C29.7595 21.5034 30.1829 20.6926 29.9458 19.9324Z" fill="#E42527"/>
<path d="M37.5 30.6588C36.7039 30.6588 36.0603 30.0169 36.0603 29.223V14.9494C36.0603 14.1554 36.7039 13.5135 37.5 13.5135C38.2961 13.5135 38.9397 14.1554 38.9397 14.9494V29.223C38.9397 30.0169 38.2961 30.6588 37.5 30.6588Z" fill="#226DB4"/>
</svg>
