<?xml version="1.0" encoding="UTF-8"?>
<svg id="Layer_1" xmlns="http://www.w3.org/2000/svg" version="1.1" viewBox="0 0 829.3 296">
  
  <defs>
    
  </defs>
  <g>
    <g>
      <path d="M350.8,140.8h22.6l21.7,84,23.5-84h18.7l23.9,84.5,21.8-84.5h20.8l-30.4,114.9h-22.1l-24-83.3-24.6,83.3h-21.3l-30.6-114.9Z"></path>
      <path d="M553.6,245.4c-.6.8-1.3,1.6-2,2.4-.7.8-1.4,1.5-2.2,2.1-.7.7-1.5,1.3-2.3,1.8-.8.5-1.6,1.1-2.5,1.5-.8.5-1.7.9-2.6,1.3-.9.4-1.8.7-2.7,1-.9.3-1.9.6-2.8.8-1,.2-1.9.4-2.9.5-1,.1-2,.2-3,.3-1,0-2.1.1-3.1.1-1.6,0-3.1,0-4.6-.2s-3-.4-4.4-.7c-1.4-.3-2.7-.7-4-1.2-1.3-.5-2.5-1.1-3.7-1.7-1.2-.7-2.2-1.4-3.3-2.2-1-.8-2-1.7-2.8-2.7-.9-1-1.6-2-2.3-3.2-.7-1.2-1.2-2.4-1.7-3.7-.5-1.3-.8-2.7-1.1-4.2-.2-1.5-.4-3-.4-4.7,0-2.4.2-4.5.7-6.4.5-1.9,1.1-3.7,2-5.3.9-1.6,1.9-3.1,3.1-4.4,1.2-1.3,2.6-2.4,4.1-3.5,1.5-1,3.1-1.9,4.8-2.7,1.7-.8,3.5-1.4,5.4-2,1.9-.5,3.8-1,5.8-1.4,2-.4,4-.7,6.1-.9,2-.2,4.1-.4,6.1-.4,2,0,4-.1,6-.1h9.9v-1.3c0-1.2,0-2.4,0-3.5,0-1.1-.2-2.2-.3-3.2s-.4-2-.6-2.9c-.2-.9-.5-1.8-.9-2.6-.3-.8-.8-1.5-1.3-2.2-.5-.7-1.1-1.3-1.7-1.9-.6-.6-1.3-1.1-2.1-1.5-.8-.4-1.6-.8-2.6-1.1-1-.3-2-.5-3.2-.7-1.2-.2-2.4-.2-3.8-.2s-1.6,0-2.4.1c-.8,0-1.6.2-2.4.4-.8.2-1.5.4-2.3.6s-1.5.5-2.2.9c-.7.3-1.4.7-2,1.1s-1.3.8-1.9,1.3c-.6.5-1.2,1-1.7,1.6-.5.5-1.1,1.1-1.5,1.8s-.9,1.3-1.3,2c-.4.7-.7,1.5-1,2.2l-15.6-6.7c.6-1.5,1.2-2.9,2-4.2.8-1.3,1.6-2.5,2.5-3.6.9-1.1,1.9-2.2,3-3.1,1.1-.9,2.2-1.8,3.4-2.6,1.2-.8,2.5-1.5,3.8-2.2,1.3-.6,2.7-1.2,4-1.7,1.4-.5,2.8-.9,4.2-1.3,1.4-.4,2.9-.7,4.4-.9s3-.4,4.5-.5c1.5-.1,3-.2,4.5-.2s3.9,0,5.8.3c1.9.2,3.7.5,5.4.9,1.8.4,3.4.9,5,1.5,1.6.6,3.1,1.3,4.5,2.1,1.4.8,2.7,1.7,4,2.7,1.2,1,2.3,2.1,3.3,3.3,1,1.2,1.9,2.6,2.7,4,.8,1.5,1.5,3,2,4.7.5,1.7,1,3.5,1.3,5.3.3,1.9.4,3.9.4,6v54.9h-19.8v-10.3ZM543.4,218.1c-.9,0-1.9,0-2.9,0-1,0-2.1,0-3.1.2-1,0-2.1.2-3.2.4-1.1.2-2.2.4-3.2.6-1,.3-2.1.6-3,.9-1,.4-1.9.8-2.7,1.3-.9.5-1.6,1.1-2.4,1.8-.7.7-1.3,1.4-1.8,2.3s-.9,1.8-1.2,2.9c-.3,1-.4,2.2-.4,3.5s0,1.5.2,2.3c.1.7.3,1.4.5,2s.5,1.2.8,1.7c.3.5.7,1,1.1,1.4.4.4.8.8,1.3,1.2.5.4,1,.7,1.6.9.5.3,1.1.5,1.8.7s1.3.4,1.9.5c.7.1,1.3.2,2.1.3.7,0,1.5,0,2.2,0,1,0,2.1,0,3.1-.2,1-.1,2-.3,3-.5,1-.2,2-.5,2.9-.8.9-.3,1.9-.7,2.7-1.2.9-.4,1.7-.9,2.5-1.5.8-.5,1.5-1.2,2.2-1.8.7-.7,1.3-1.4,1.8-2.2.5-.8,1-1.6,1.4-2.5.4-.9.7-1.8.9-2.9.2-1,.3-2.1.3-3.3v-8.2h-10.1Z"></path>
      <path d="M595.1,137.6l20.1-8.7v126.8h-20.1v-118.1Z"></path>
      <path d="M638.4,137.6l20.1-8.7v126.8h-20.1v-118.1Z"></path>
      <path d="M756.2,237.4c-.7,1.5-1.5,2.9-2.3,4.2-.9,1.3-1.8,2.5-2.8,3.6-1,1.1-2.1,2.1-3.2,3.1-1.1.9-2.3,1.8-3.5,2.6-1.2.8-2.5,1.5-3.8,2.1-1.3.6-2.7,1.2-4.1,1.6-1.4.5-2.8.9-4.3,1.3-1.5.3-2.9.6-4.4.8s-3,.4-4.5.5c-1.5.1-3.1.2-4.6.2-2.7,0-5.2-.2-7.7-.5-2.4-.3-4.8-.9-7-1.5-2.2-.7-4.4-1.5-6.4-2.5-2-1-3.9-2.1-5.6-3.4-1.8-1.3-3.4-2.7-4.9-4.2-1.5-1.5-2.9-3.2-4.1-5-1.2-1.8-2.3-3.7-3.3-5.7s-1.7-4.1-2.4-6.4c-.6-2.2-1.1-4.6-1.5-7-.3-2.4-.5-5-.5-7.6s.2-4.9.5-7.2c.3-2.4.8-4.6,1.5-6.8.6-2.2,1.4-4.3,2.4-6.3,1-2,2.1-3.9,3.3-5.7,1.2-1.8,2.6-3.5,4-5,1.5-1.6,3.1-3,4.8-4.3s3.6-2.5,5.5-3.5c2-1,4-1.9,6.2-2.6s4.4-1.2,6.8-1.6c2.4-.4,4.8-.5,7.3-.5s5.3.2,7.7.5c2.4.3,4.7.8,6.9,1.4s4.2,1.4,6.1,2.4c1.9,1,3.6,2.1,5.3,3.4,1.6,1.3,3.1,2.7,4.4,4.3,1.3,1.6,2.5,3.4,3.6,5.3,1.1,1.9,2,4,2.8,6.3.8,2.2,1.5,4.7,2,7.3.5,2.6,1,5.3,1.2,8.2s.4,6,.4,9.2h-62.2c0,1.4,0,2.8.2,4.1.2,1.3.4,2.6.7,3.9.3,1.3.7,2.4,1.2,3.6.5,1.1,1,2.2,1.7,3.2.7,1,1.4,2,2.2,2.8.8.9,1.6,1.7,2.6,2.4.9.7,2,1.4,3.1,1.9,1.1.5,2.3,1,3.5,1.4,1.3.4,2.6.7,4,.9,1.4.2,2.8.3,4.4.3,2.3,0,4.5-.2,6.5-.7,2-.5,4-1.2,5.8-2.2,1.8-1,3.4-2.3,4.9-3.8,1.5-1.5,2.7-3.4,3.8-5.5l15.7,7ZM738.1,204.9c0-1.3-.2-2.5-.4-3.6-.2-1.2-.5-2.3-.8-3.4-.3-1.1-.7-2.1-1.2-3-.4-.9-1-1.8-1.6-2.7-.6-.8-1.2-1.6-1.9-2.3-.7-.7-1.4-1.3-2.2-1.9-.8-.6-1.7-1.1-2.6-1.5-.9-.4-1.9-.8-2.9-1.1-1-.3-2-.5-3.1-.7-1.1-.2-2.2-.2-3.5-.2s-2.5,0-3.6.3c-1.2.2-2.3.4-3.3.7-1.1.3-2.1.7-3,1.2-.9.5-1.8,1-2.7,1.6-.8.6-1.6,1.3-2.4,2-.7.7-1.4,1.5-2,2.4-.6.8-1.2,1.7-1.7,2.7-.5.9-1,1.9-1.4,3-.4,1-.7,2.1-1,3.2-.3,1.1-.5,2.2-.7,3.4h41.9Z"></path>
      <path d="M816.8,255.1c-2.1.6-4.4,1.1-6.6,1.5-2.3.4-4.7.5-7.2.5s-5.2-.2-7.5-.7-4.4-1.2-6.3-2.1c-1.9-.9-3.6-2.1-5-3.5-1.5-1.4-2.7-3-3.7-4.9-1-1.9-1.8-3.9-2.3-6.3-.5-2.3-.8-4.9-.8-7.7v-45.7h-11.3v-14.8h11.3v-17.3l20.1-8.7v26.1h18.5v14.8h-18.5v43.9c0,.7,0,1.3,0,1.9,0,.6.1,1.2.3,1.7.1.5.3,1.1.5,1.6.2.5.4,1,.7,1.4.3.4.5.8.9,1.2.3.4.7.7,1.1,1,.4.3.8.5,1.3.8.5.2,1,.4,1.6.6.5.2,1.2.3,1.8.4.7,0,1.3.1,2.1.1h.8c.3,0,.6,0,.9,0,.3,0,.6,0,.9-.1.3,0,.6-.1.9-.2.3,0,.6-.1.9-.2.3,0,.6-.1.9-.2.3,0,.6-.1.9-.2.3,0,.6-.2.9-.2.3,0,.6-.2.9-.3.3-.1.6-.2.9-.3v15.8Z"></path>
    </g>
    <g>
      <path d="M360.1,104.4l37-53.4h-33.2v-10.5h50.6v5.2l-36.1,53.4h35v10.5h-53.3v-5.2Z"></path>
      <path d="M417.8,84.5c0-1.6.1-3.1.4-4.6.3-1.5.6-2.9,1.1-4.3.5-1.4,1.1-2.6,1.7-3.9.7-1.2,1.5-2.4,2.3-3.5.9-1.1,1.8-2.1,2.9-3s2.1-1.8,3.3-2.6,2.4-1.4,3.7-2c1.3-.6,2.7-1.1,4-1.5,1.4-.4,2.8-.7,4.3-.9,1.5-.2,3-.3,4.5-.3s3,.1,4.5.3c1.4.2,2.9.5,4.2.9,1.4.4,2.7.9,3.9,1.5s2.4,1.3,3.5,2.1c1.1.8,2.2,1.6,3.1,2.5,1,.9,1.9,1.9,2.7,3,.8,1.1,1.5,2.2,2.2,3.5.6,1.2,1.2,2.5,1.6,3.8.4,1.3.8,2.7,1,4.2.2,1.5.4,2.9.4,4.5s-.1,3.1-.4,4.6c-.2,1.5-.6,2.9-1,4.2-.5,1.4-1,2.6-1.7,3.9-.7,1.2-1.4,2.4-2.3,3.5-.8,1.1-1.8,2.1-2.8,3-1,.9-2.1,1.8-3.2,2.5-1.2.8-2.4,1.4-3.6,2-1.3.6-2.6,1.1-4,1.5s-2.8.7-4.3.9c-1.5.2-3,.3-4.5.3s-3-.1-4.5-.3c-1.5-.2-2.9-.5-4.3-.9s-2.7-.9-4-1.5-2.5-1.3-3.6-2c-1.2-.8-2.2-1.6-3.2-2.5-1-.9-1.9-1.9-2.8-3s-1.6-2.2-2.3-3.4c-.7-1.2-1.2-2.5-1.7-3.8-.5-1.3-.8-2.7-1-4.2-.2-1.4-.4-2.9-.4-4.5ZM446,101.3c1,0,2,0,2.9-.2.9-.2,1.7-.4,2.5-.7.8-.3,1.5-.7,2.2-1.1.7-.4,1.3-.9,1.8-1.4.6-.5,1.1-1.1,1.6-1.7s.9-1.3,1.3-2,.7-1.5.9-2.2c.3-.8.5-1.6.7-2.4.2-.8.3-1.7.4-2.5,0-.9.1-1.7.1-2.6s0-1.9-.1-2.7c0-.9-.2-1.7-.4-2.6-.2-.9-.4-1.7-.7-2.5-.3-.8-.6-1.5-1-2.2-.4-.7-.8-1.4-1.3-2-.5-.6-1-1.2-1.6-1.7-.6-.5-1.2-1-1.9-1.4-.7-.4-1.4-.8-2.2-1-.8-.3-1.6-.5-2.5-.7-.9-.2-1.8-.2-2.8-.2s-2,0-2.9.2c-.9.2-1.7.4-2.5.7-.8.3-1.5.7-2.2,1.1-.7.4-1.3.9-1.8,1.4s-1.1,1.1-1.5,1.8c-.5.6-.9,1.3-1.2,2.1-.3.7-.7,1.5-.9,2.3-.3.8-.5,1.6-.7,2.5-.2.9-.3,1.7-.4,2.6,0,.9-.1,1.8-.1,2.7s0,1.8.1,2.6c0,.9.2,1.7.4,2.6.2.8.4,1.6.7,2.4.3.8.6,1.5,1,2.2.4.7.8,1.3,1.3,2,.5.6,1,1.2,1.6,1.7.6.5,1.2,1,1.9,1.4.7.4,1.4.8,2.2,1,.8.3,1.6.5,2.5.6.9.1,1.8.2,2.8.2Z"></path>
      <path d="M482.2,36.1h12.1v31c.3-.6.7-1.2,1.1-1.8.4-.6.8-1.1,1.3-1.6.5-.5.9-1,1.4-1.4.5-.4,1-.8,1.6-1.2.6-.4,1.1-.7,1.7-1,.6-.3,1.2-.6,1.8-.8.6-.2,1.3-.4,1.9-.6.6-.2,1.3-.3,2-.4.7-.1,1.4-.2,2.1-.3s1.4,0,2.1,0c1.2,0,2.3,0,3.5.3,1.1.2,2.1.4,3.1.7,1,.3,1.9.7,2.7,1.2.9.5,1.6,1,2.4,1.6s1.4,1.3,2,2c.6.7,1.1,1.5,1.6,2.3.5.8.9,1.7,1.3,2.6.4.9.7,1.9.9,2.9.2,1,.4,2.1.5,3.1.1,1.1.2,2.2.2,3.4v31.7h-12.2v-30.5c0-.7,0-1.4-.1-2.1,0-.7-.2-1.3-.3-1.9-.1-.6-.3-1.2-.5-1.7-.2-.5-.5-1-.8-1.5-.3-.5-.6-.9-1-1.3-.4-.4-.8-.7-1.2-1s-.9-.6-1.4-.8-1-.4-1.6-.6c-.6-.2-1.2-.3-1.8-.4-.6,0-1.3-.1-2-.1s-1.5,0-2.2.1-1.4.2-2,.4c-.6.2-1.2.4-1.8.7-.6.3-1.1.6-1.6.9-.5.3-.9.7-1.3,1.2-.4.4-.8.9-1.1,1.4-.3.5-.6,1-.9,1.6-.3.6-.5,1.1-.6,1.7-.2.6-.3,1.3-.4,1.9,0,.7-.1,1.4-.1,2.1v29.7h-12.1V36.1Z"></path>
      <path d="M537.2,84.5c0-1.6.1-3.1.4-4.6.3-1.5.6-2.9,1.1-4.3.5-1.4,1.1-2.6,1.7-3.9.7-1.2,1.5-2.4,2.3-3.5.9-1.1,1.8-2.1,2.9-3s2.1-1.8,3.3-2.6,2.4-1.4,3.7-2c1.3-.6,2.7-1.1,4-1.5,1.4-.4,2.8-.7,4.3-.9,1.5-.2,3-.3,4.5-.3s3,.1,4.5.3c1.4.2,2.9.5,4.2.9,1.4.4,2.7.9,3.9,1.5s2.4,1.3,3.5,2.1c1.1.8,2.2,1.6,3.1,2.5,1,.9,1.9,1.9,2.7,3,.8,1.1,1.5,2.2,2.2,3.5.6,1.2,1.2,2.5,1.6,3.8.4,1.3.8,2.7,1,4.2.2,1.5.4,2.9.4,4.5s-.1,3.1-.4,4.6c-.2,1.5-.6,2.9-1,4.2-.5,1.4-1,2.6-1.7,3.9-.7,1.2-1.4,2.4-2.3,3.5-.8,1.1-1.8,2.1-2.8,3-1,.9-2.1,1.8-3.2,2.5-1.2.8-2.4,1.4-3.6,2-1.3.6-2.6,1.1-4,1.5s-2.8.7-4.3.9c-1.5.2-3,.3-4.5.3s-3-.1-4.5-.3c-1.5-.2-2.9-.5-4.3-.9s-2.7-.9-4-1.5-2.5-1.3-3.6-2c-1.2-.8-2.2-1.6-3.2-2.5-1-.9-1.9-1.9-2.8-3s-1.6-2.2-2.3-3.4c-.7-1.2-1.2-2.5-1.7-3.8-.5-1.3-.8-2.7-1-4.2-.2-1.4-.4-2.9-.4-4.5ZM565.3,101.3c1,0,2,0,2.9-.2.9-.2,1.7-.4,2.5-.7.8-.3,1.5-.7,2.2-1.1.7-.4,1.3-.9,1.8-1.4.6-.5,1.1-1.1,1.6-1.7s.9-1.3,1.3-2,.7-1.5.9-2.2c.3-.8.5-1.6.7-2.4.2-.8.3-1.7.4-2.5,0-.9.1-1.7.1-2.6s0-1.9-.1-2.7c0-.9-.2-1.7-.4-2.6-.2-.9-.4-1.7-.7-2.5-.3-.8-.6-1.5-1-2.2-.4-.7-.8-1.4-1.3-2-.5-.6-1-1.2-1.6-1.7-.6-.5-1.2-1-1.9-1.4-.7-.4-1.4-.8-2.2-1-.8-.3-1.6-.5-2.5-.7-.9-.2-1.8-.2-2.8-.2s-2,0-2.9.2c-.9.2-1.7.4-2.5.7-.8.3-1.5.7-2.2,1.1-.7.4-1.3.9-1.8,1.4s-1.1,1.1-1.5,1.8c-.5.6-.9,1.3-1.2,2.1-.3.7-.7,1.5-.9,2.3-.3.8-.5,1.6-.7,2.5-.2.9-.3,1.7-.4,2.6,0,.9-.1,1.8-.1,2.7s0,1.8.1,2.6c0,.9.2,1.7.4,2.6.2.8.4,1.6.7,2.4.3.8.6,1.5,1,2.2.4.7.8,1.3,1.3,2,.5.6,1,1.2,1.6,1.7.6.5,1.2,1,1.9,1.4.7.4,1.4.8,2.2,1,.8.3,1.6.5,2.5.6.9.1,1.8.2,2.8.2Z"></path>
    </g>
  </g>
  <g>
    <g>
      <path class="st1" d="M238.8,71.1"></path>
      <path class="st2" d="M253,62.8h-8.6v-8.3c0-23.5-19.1-42.6-42.6-42.6H39.3c-9,0-17.5,3.5-23.9,9.9-6.4,6.4-10,14.8-10,23.9v1.2c0,.3,0,.6,0,.9v120.1c0,4.7,3.8,8.5,8.5,8.5s8.5-3.8,8.5-8.5v-92.6c5.1,3,10.9,4.5,16.9,4.5h213.7c14.1,0,25.5,11.5,25.5,25.5v25.8h-25.7c-23.4,0-42.4,19-42.4,42.4s19,42.4,42.4,42.4h25.7v25.4c0,6.8-2.7,13.3-7.5,18.1s-11.2,7.5-18,7.5H64.8c-4.7,0-8.5,3.7-8.5,8.5s3.8,8.5,8.5,8.5h188.1c11.4,0,22-4.4,30.1-12.4,8-8,12.5-18.7,12.5-30.1V105.4c0-23.5-19.1-42.6-42.6-42.6h0ZM227.4,62.8H39.3c-4.5,0-8.8-1.8-12-5-3.2-3.2-4.9-7.5-4.9-12,0-9.3,7.6-16.8,16.9-16.8h162.6c14.1,0,25.5,11.5,25.5,25.5v8.3h0ZM278.5,199.1h-25.7c-14,0-25.4-11.4-25.4-25.4s11.4-25.4,25.4-25.4h25.7v50.8h0Z"></path>
      <path class="st0" d="M123.8,163.3c-2-8.7-8.1-16.4-17.8-22.1-10.8-6.4-25.3-9.9-41.1-9.9s-30.4,3.5-41.1,9.9c-9.7,5.8-15.8,13.5-17.8,22.1-.5,1-.7,2.2-.7,3.4v80.9c0,11.2,6.7,21,18.9,27.5,10.6,5.6,24.7,8.7,40.7,8.7s30.2-3,40.7-8.7c12.2-6.5,18.9-16.3,18.9-27.5v-80.9c0-1.2-.3-2.4-.7-3.4ZM107.5,204.6v5.2c0,10.9-18.3,19.1-42.6,19.1s-42.6-8.2-42.6-19.1v-12.7c.5.3,1,.6,1.5.9,10.8,6.4,25.3,9.9,41.1,9.9s30.4-3.5,41.1-9.9c.5-.3,1-.6,1.5-.9v7.5h0ZM64.9,148.3c26.3,0,42.6,11,42.6,21.3s-16.3,21.3-42.6,21.3-42.6-11-42.6-21.3,16.3-21.3,42.6-21.3h0ZM64.9,266.7c-24.3,0-42.6-8.2-42.6-19.1v-11.4c.6.3,1.2.7,1.8,1,10.6,5.6,24.7,8.7,40.7,8.7s30.2-3,40.7-8.7c.6-.3,1.2-.7,1.8-1v11.4c0,10.9-18.3,19.1-42.6,19.1h0Z"></path>
    </g>
    <circle class="st2" cx="253" cy="173.4" r="8.5"></circle>
  </g>
</svg>