<svg width="194" height="50" viewBox="0 0 194 50" fill="none" xmlns="http://www.w3.org/2000/svg">
<path d="M54.1443 23.7838H57.9634L61.6305 37.9729L65.6018 23.7838H68.7619L72.8007 38.0574L76.4847 23.7838H79.9997L74.8624 43.1925H71.1277L67.072 29.1216L62.9148 43.1925H59.3153L54.1443 23.7838Z" fill="black"/>
<path d="M88.297 28.6824C92.6063 28.6824 95.9185 31.7061 95.9185 36.0473C95.9185 40.5068 92.4373 43.4459 88.145 43.4459C83.8188 43.4459 80.3545 40.4561 80.3545 36.1149C80.3545 31.6723 84.0216 28.6824 88.297 28.6824ZM92.2683 36.0811C92.2683 33.4628 90.9502 31.3007 88.1619 31.3007C85.289 31.3007 84.1568 33.5811 84.1568 36.1824C84.1568 38.6993 85.4918 40.8446 88.2464 40.8446C91.0854 40.8446 92.2683 38.5642 92.2683 36.0811Z" fill="black"/>
<path d="M98.4026 28.9865H101.799V31.6554C102.763 29.7128 104.3 28.7838 106.463 28.7838V31.9256C103.726 31.9256 101.799 32.8209 101.799 35.8615V43.1925H98.4026V28.9865Z" fill="black"/>
<path d="M109.15 22.5676H112.547V35.1858L117.684 29.0034H121.419L115.775 35.5068L121.841 43.1926H117.921L112.53 36.2669V43.1926H109.133V22.5676H109.15Z" fill="black"/>
<path d="M123.954 28.9865H127.351V31.2838C128.331 29.6284 130.325 28.6824 132.217 28.6824C136.56 28.6824 138.656 32.1622 138.656 36.0473C138.656 40.0338 136.425 43.4628 132.319 43.4628C130.325 43.4628 128.314 42.6689 127.367 40.9628V48.0574H123.971V28.9865H123.954ZM135.141 35.9628C135.141 33.5642 133.941 31.3345 131.17 31.3345C128.364 31.3345 127.232 33.5811 127.232 36.1318C127.232 38.7669 128.449 40.7939 131.271 40.7939C134.279 40.8108 135.141 38.5811 135.141 35.9628Z" fill="black"/>
<path d="M141.529 23.2432L144.925 21.7736V43.1925H141.529V23.2432Z" fill="black"/>
<path d="M156.873 41.4527C155.791 42.8885 154.22 43.4459 152.462 43.4459C149.792 43.4459 147.697 42.0946 147.697 39.3074C147.697 35.3716 151.854 34.7466 155.166 34.7466H156.839V34.527C156.839 32.5 156.366 31.2162 154.068 31.2162C152.682 31.2162 151.415 31.9256 150.908 33.2432L148.271 32.1114C149.218 29.6114 151.871 28.6993 154.406 28.6993C157.769 28.6993 160.202 30.3209 160.202 33.9189V43.1925H156.856V41.4527H156.873ZM155.149 36.8412C153.578 36.8412 151.094 37.027 151.094 39.1723C151.094 40.5405 152.091 41.0473 153.358 41.0473C155.082 41.0473 156.856 40.152 156.856 38.2263V36.8412H155.149Z" fill="black"/>
<path d="M176.611 39.1723C175.665 42.1453 173.012 43.4459 170.054 43.4459C165.542 43.4459 162.855 40.4223 162.855 36.0304C162.855 31.8074 165.863 28.6655 170.139 28.6655C173.012 28.6655 175.496 29.8649 176.543 32.652L173.806 33.8513C173.231 32.2635 171.862 31.3513 170.139 31.3513C167.367 31.3513 166.353 33.75 166.353 36.1824C166.353 38.6824 167.452 40.8446 170.206 40.8446C172.15 40.8446 173.468 39.7635 174.059 37.9899L176.611 39.1723Z" fill="black"/>
<path d="M191.989 40.1014C190.806 42.6014 188.254 43.4628 185.652 43.4628C181.174 43.4628 178.352 40.473 178.352 36.0473C178.352 31.8919 181.224 28.6824 185.5 28.6824C190.096 28.6824 192.327 31.3682 192.327 36.8412H181.816C181.816 39.2399 183.202 40.9966 185.787 40.9966C187.325 40.9966 188.592 40.3716 189.336 38.9358L191.989 40.1014ZM188.947 34.6115C188.846 32.4662 187.545 31.1486 185.534 31.1486C183.404 31.1486 182.154 32.652 181.867 34.6115H188.947Z" fill="black"/>
<path d="M55.7328 17.6351L61.9854 8.61484H56.3749V6.84119H64.9258V7.71956L58.8253 16.7398H64.7399V18.5135H55.7328V17.6351Z" fill="black"/>
<path d="M70.2659 9.7973C72.8683 9.7973 74.8624 11.6216 74.8624 14.2399C74.8624 16.9257 72.7669 18.6993 70.1814 18.6993C67.5789 18.6993 65.4835 16.8919 65.4835 14.2905C65.4835 11.5878 67.6972 9.7973 70.2659 9.7973ZM72.6655 14.2399C72.6655 12.6689 71.8713 11.3514 70.1814 11.3514C68.4577 11.3514 67.7648 12.7196 67.7648 14.2905C67.7648 15.8108 68.576 17.0946 70.2321 17.0946C71.9389 17.1115 72.6655 15.7432 72.6655 14.2399Z" fill="black"/>
<path d="M76.3495 6.09796H78.3943V11.3344C78.9519 10.2703 80.0673 9.79729 81.2502 9.79729C83.295 9.79729 84.3258 11.2331 84.3258 13.1757V18.5304H82.2641V13.3784C82.2641 12.1453 81.622 11.4696 80.439 11.4696C79.1209 11.4696 78.3943 12.2804 78.3943 13.4966V18.5135H76.3495V6.09796Z" fill="black"/>
<path d="M90.4432 9.7973C93.0456 9.7973 95.0397 11.6216 95.0397 14.2399C95.0397 16.9257 92.9443 18.6993 90.3587 18.6993C87.7563 18.6993 85.6608 16.8919 85.6608 14.2905C85.6439 11.5878 87.8577 9.7973 90.4432 9.7973ZM92.826 14.2399C92.826 12.6689 92.0317 11.3514 90.3418 11.3514C88.6181 11.3514 87.9253 12.7196 87.9253 14.2905C87.9253 15.8108 88.7364 17.0946 90.3925 17.0946C92.1162 17.1115 92.826 15.7432 92.826 14.2399Z" fill="black"/>
<path d="M44.816 13.2263C44.816 12.9054 44.6301 12.5676 44.3428 12.3986L23.9458 0.641887C23.6416 0.472968 23.2868 0.472968 22.9826 0.641887L2.58553 12.3986C2.31515 12.5676 2.09547 12.8716 2.11236 13.2263V36.7568C2.11236 37.0946 2.29825 37.4155 2.58553 37.5845L22.9826 49.3581C23.2361 49.5101 23.6078 49.5439 23.9458 49.3581L44.3428 37.6013C44.647 37.4324 44.816 37.1115 44.816 36.7736V13.2263ZM23.4557 2.56756L41.9263 13.2263L31.6179 19.1723L25.585 15.7095C26.2948 15.1013 26.751 14.2061 26.751 13.1926C26.751 11.3682 25.2639 9.89864 23.4557 9.89864C21.6476 9.89864 20.1604 11.3851 20.1604 13.1926C20.1604 14.2061 20.6167 15.1182 21.3434 15.7263L15.3273 19.2061L4.98519 13.2432L23.4557 2.56756ZM12.4714 29.6115C12.708 29.4763 12.9615 29.4088 13.215 29.4088C13.7388 29.4088 14.2289 29.679 14.5162 30.152C14.9218 30.8615 14.6852 31.7905 13.9754 32.1959C13.2657 32.6013 12.3362 32.3649 11.9307 31.6554C11.7279 31.3176 11.6772 30.9122 11.7786 30.5236C11.88 30.1351 12.1334 29.8142 12.4714 29.6115ZM23.4388 14.679C22.6108 14.679 21.9348 14.0034 21.9348 13.1757C21.9348 12.348 22.6108 11.6723 23.4388 11.6723C24.2669 11.6723 24.9429 12.348 24.9429 13.1757C24.9429 14.0034 24.2669 14.679 23.4388 14.679ZM23.4557 16.6892L29.6915 20.2872L23.4557 23.8851L17.22 20.2872L23.4557 16.6892ZM24.419 25.5574L30.6547 21.9595V29.1554L24.419 32.7534V25.5574ZM4.02195 14.8986L14.3303 20.8446V27.8041C14.2458 27.7703 14.1444 27.7534 14.0599 27.7196C13.1981 27.5 12.3193 27.6013 11.5589 28.0574C10.7984 28.4966 10.2408 29.2061 10.0211 30.0676C9.80139 30.9122 9.90278 31.8074 10.3591 32.5676C10.7984 33.3277 11.5082 33.8851 12.37 34.1047C12.6573 34.1892 12.9446 34.223 13.2319 34.223C13.8064 34.223 14.381 34.0709 14.888 33.7838C15.7667 33.277 16.3244 32.4324 16.4765 31.5034L19.4338 33.2095C19.5859 33.2939 19.7549 33.3446 19.907 33.3446C20.2449 33.3446 20.566 33.1757 20.735 32.8716C21.0054 32.4155 20.8364 31.8243 20.3801 31.5541L16.2399 29.1723V21.9595L22.4756 25.5574V46.875L4.02195 36.2162V14.8986ZM24.419 46.875V34.9662L32.0911 30.5405C32.3953 30.3716 32.5643 30.0507 32.5643 29.7128V20.8446L42.8726 14.8986V36.2162L24.419 46.875Z" fill="#E42527"/>
</svg>
