<svg width="222" height="50" viewBox="0 0 222 50" fill="none" xmlns="http://www.w3.org/2000/svg">
<path d="M66.9821 23.7786H71.2998L75.4456 39.8092L79.9353 23.7786H83.4888L88.0549 39.9046L92.2198 23.7786H96.1936L90.3857 45.7061H86.1635L81.5783 29.8092L76.8785 45.7061H72.8091L66.9821 23.7786Z" fill="black"/>
<path d="M105.574 29.313C110.446 29.313 114.191 32.729 114.191 37.6336C114.191 42.6718 110.255 45.9924 105.402 45.9924C100.511 45.9924 96.5948 42.6145 96.5948 37.7099C96.5948 32.6909 100.76 29.313 105.574 29.313ZM110.083 37.6718C110.083 34.7137 108.593 32.271 105.44 32.271C102.193 32.271 100.913 34.8473 100.913 37.7863C100.913 40.6298 102.422 43.0534 105.536 43.0534C108.727 43.0534 110.083 40.4771 110.083 37.6718Z" fill="black"/>
<path d="M116.999 29.6565H120.839V32.6718C121.928 30.4771 123.667 29.4275 126.112 29.4275V32.9771C123.017 32.9771 120.839 33.9886 120.839 37.4237V45.7061H116.999V29.6565Z" fill="black"/>
<path d="M129.169 22.4046H133.009V36.6603L138.817 29.6756H143.039L136.658 37.0229L143.517 45.7061H139.084L132.99 37.8817V45.7061H129.15V22.4046H129.169Z" fill="black"/>
<path d="M146.039 23.7786H153.432C160.597 23.7786 164.953 27.5 164.953 34.8092C164.953 41.9466 160.367 45.7061 153.394 45.7061H146.039V23.7786ZM153.298 42.4046C158.419 42.4046 160.52 39.4466 160.52 34.6374C160.52 29.6947 158.285 27.0993 153.241 27.0993H150.299V42.4046H153.298Z" fill="black"/>
<path d="M168.181 29.6565H172.021V32.6718C173.11 30.4771 174.849 29.4275 177.294 29.4275V32.9771C174.199 32.9771 172.021 33.9886 172.021 37.4237V45.7061H168.181V29.6565Z" fill="black"/>
<path d="M182.376 22.8817C183.618 22.8817 184.612 23.7977 184.612 25.0763C184.612 26.3359 183.656 27.2519 182.395 27.2519C181.154 27.2519 180.103 26.3168 180.103 25.0573C180.084 23.7786 181.134 22.8817 182.376 22.8817ZM180.447 29.6947H184.287V45.7061H180.447V29.6947Z" fill="black"/>
<path d="M186.981 29.6565H191.088L195.234 41.7939L199.341 29.6565H203.086L197.297 45.687H192.808L186.981 29.6565Z" fill="black"/>
<path d="M219.211 42.2137C217.873 45.0382 214.988 46.0115 212.046 46.0115C206.983 46.0115 203.793 42.6336 203.793 37.6336C203.793 32.9389 207.041 29.313 211.874 29.313C217.071 29.313 219.593 32.3473 219.593 38.5305H207.709C207.709 41.2405 209.276 43.2252 212.199 43.2252C213.938 43.2252 215.371 42.5191 216.211 40.897L219.211 42.2137ZM215.753 36.0115C215.638 33.5878 214.167 32.0992 211.893 32.0992C209.486 32.0992 208.072 33.7977 207.748 36.0115H215.753Z" fill="black"/>
<path d="M68.7589 16.8321L75.8277 6.64122H69.4849V4.63741H79.152V5.62977L72.2551 15.8206H78.9418V17.8244H68.7589V16.8321Z" fill="black"/>
<path d="M85.2083 7.9771C88.1504 7.9771 90.4048 10.0382 90.4048 12.9962C90.4048 16.0305 88.0358 18.0343 85.1127 18.0343C82.1706 18.0343 79.8015 15.9924 79.8015 13.0534C79.7824 10 82.2852 7.9771 85.2083 7.9771ZM87.9021 13.0153C87.9021 11.2405 87.0041 9.75191 85.0936 9.75191C83.1449 9.75191 82.3616 11.2977 82.3616 13.0725C82.3616 14.7901 83.2787 16.2405 85.1509 16.2405C87.0997 16.2405 87.9021 14.6947 87.9021 13.0153Z" fill="black"/>
<path d="M92.0861 3.79771H94.3978V9.71375C95.0282 8.51146 96.2892 7.9771 97.6265 7.9771C99.9382 7.9771 101.104 9.59924 101.104 11.7939V17.8435H98.7728V12.0229C98.7728 10.6298 98.0468 9.86642 96.7095 9.86642C95.2193 9.86642 94.3978 10.7824 94.3978 12.1565V17.8244H92.0861V3.79771Z" fill="black"/>
<path d="M108.001 7.9771C110.943 7.9771 113.197 10.0382 113.197 12.9962C113.197 16.0305 110.828 18.0343 107.905 18.0343C104.963 18.0343 102.594 15.9924 102.594 13.0534C102.594 10 105.097 7.9771 108.001 7.9771ZM110.713 13.0153C110.713 11.2405 109.815 9.75191 107.905 9.75191C105.956 9.75191 105.173 11.2977 105.173 13.0725C105.173 14.7901 106.09 16.2405 107.962 16.2405C109.892 16.2405 110.713 14.6947 110.713 13.0153Z" fill="black"/>
<path d="M49.9596 7.32824H29.3262C28.6384 7.32824 27.9697 7.09923 27.4157 6.69847L22.7349 3.2061C21.6269 2.38549 20.2513 1.92748 18.8757 1.92748H7.47006C3.91653 1.90839 1.01257 4.80916 1.01257 8.35878V41.9466C1.01257 45.4962 3.91653 48.3969 7.47006 48.3969H10.6988C11.5967 48.3969 12.3227 47.6718 12.3227 46.7748C12.3227 45.8779 11.5967 45.1527 10.6988 45.1527H7.47006C5.7124 45.1527 4.26042 43.7214 4.26042 41.9466V8.35878C4.26042 6.60305 5.6933 5.15267 7.47006 5.15267H18.8948C19.5826 5.15267 20.2513 5.38168 20.8053 5.78244L25.4861 9.27481C26.5942 10.0954 27.9697 10.5534 29.3453 10.5534H49.9787C51.7363 10.5534 53.1883 11.9847 53.1883 13.7595V23.1107C53.0737 20.2863 50.7429 18.0153 47.8771 18.0153C44.9541 18.0153 42.5659 20.4008 42.5659 23.3206C42.5659 24.7328 43.12 26.0114 44.0179 26.9656L42.8716 27.3855C42.5468 27.5 42.222 27.6527 41.9164 27.8244C41.9164 27.7481 41.9164 27.6718 41.9164 27.5954C41.9164 24.771 39.6047 22.4618 36.7771 22.4618C33.9496 22.4618 31.6379 24.771 31.6379 27.5954C31.6379 28.9122 32.1346 30.1145 32.9561 31.0305L32.1537 31.3168C31.7525 31.4695 31.3704 31.6412 31.0074 31.8511C31.0074 31.813 31.0074 31.7939 31.0074 31.7557C31.0074 29.084 28.8294 26.8893 26.1356 26.8893C23.4609 26.8893 21.2639 29.0649 21.2639 31.7557C21.2639 32.9389 21.6842 34.0267 22.3911 34.8664L20.9964 35.3817C19.4107 35.9733 18.0542 37.0038 17.099 38.3969C16.1246 39.7901 15.6279 41.4122 15.6279 43.1107V46.7748C15.6279 47.6718 16.3539 48.3969 17.2518 48.3969H49.9787C53.5322 48.3969 56.4361 45.4962 56.4361 41.9656V13.7595C56.417 10.2099 53.5131 7.32824 49.9596 7.32824ZM47.8771 21.2595C49.0043 21.2595 49.9405 22.1756 49.9405 23.3206C49.9405 24.4466 49.0234 25.3817 47.8771 25.3817C46.7499 25.3817 45.8138 24.4656 45.8138 23.3206C45.8138 22.1756 46.7308 21.2595 47.8771 21.2595ZM36.7771 25.7061C37.8279 25.7061 38.6685 26.5458 38.6685 27.5954C38.6685 28.645 37.8279 29.4847 36.7771 29.4847C35.7263 29.4847 34.8857 28.645 34.8857 27.5954C34.8857 26.5458 35.7263 25.7061 36.7771 25.7061ZM33.2809 34.3511L38.0954 32.5763C37.9234 33.2252 37.8279 33.9122 37.8279 34.5992V45.1527H30.0139V39.0267C30.0331 36.9656 31.3322 35.0763 33.2809 34.3511ZM26.1356 30.1336C27.0336 30.1336 27.7596 30.8588 27.7596 31.7557C27.7596 32.6527 27.0336 33.3779 26.1356 33.3779C25.2377 33.3779 24.5117 32.6527 24.5117 31.7557C24.5117 30.8588 25.2377 30.1336 26.1356 30.1336ZM22.1236 38.416L27.1482 36.5649C26.8998 37.3664 26.7661 38.187 26.7661 39.0267V45.1527H18.8757V43.1107C18.8757 41.0305 20.1749 39.1412 22.1236 38.416ZM49.9596 45.1527H41.0757V34.5992C41.0757 32.7481 42.2411 31.0687 43.9988 30.4198L49.6539 28.3206C49.7303 28.2824 49.8067 28.2443 49.8831 28.2061C51.7554 27.4427 53.0737 25.6298 53.1692 23.5114V41.9275C53.1692 43.7214 51.7363 45.1527 49.9596 45.1527Z" fill="#226DB4"/>
</svg>
