<svg width="149" height="50" viewBox="0 0 149 50" fill="none" xmlns="http://www.w3.org/2000/svg">
<path d="M63.1371 23.7821H66.9636L70.6311 37.9797L74.6033 23.7821H77.7661L81.8196 38.0591L85.5141 23.7821H89.036L83.8938 43.1892H80.1468L76.0814 29.125L71.923 43.1892H68.3199L63.1371 23.7821Z" fill="black"/>
<path d="M91.0526 28.9916H94.4541V31.6554C95.4108 29.7061 96.9651 28.7787 99.1307 28.7787V31.9206C96.381 31.9206 94.4541 32.8226 94.4541 35.8581V43.1892H91.0526V28.9916Z" fill="black"/>
<path d="M103.636 22.9865C104.739 22.9865 105.616 23.7956 105.616 24.9223C105.616 26.0355 104.766 26.8446 103.65 26.8446C102.548 26.8446 101.616 26.022 101.616 24.9088C101.616 23.7821 102.532 22.9865 103.636 22.9865ZM101.921 29.0186H105.323V43.1892H101.921V29.0186Z" fill="black"/>
<path d="M116.377 43.0828C115.646 43.2956 114.889 43.4274 114.039 43.4274C111.328 43.4274 109.722 42.0219 109.722 39.1993V31.4848H107.808V28.9932H109.722V26.0642L113.123 24.5929V28.9932H116.259V31.4848H113.121V38.8953C113.121 40.0084 113.601 40.6976 114.849 40.6976C115.328 40.6976 115.858 40.5912 116.377 40.4189V43.0828Z" fill="black"/>
<path d="M131.658 40.0996C130.477 42.6047 127.925 43.4527 125.307 43.4527C120.815 43.4527 117.986 40.4561 117.986 36.0422C117.986 31.88 120.869 28.6858 125.148 28.6858C129.745 28.6858 131.992 31.3632 131.992 36.8378H121.455C121.455 39.2365 122.85 40.9865 125.441 40.9865C126.982 40.9865 128.259 40.3632 129.002 38.9189L131.658 40.0996ZM128.602 34.6115C128.496 32.4645 127.194 31.152 125.187 31.152C123.049 31.152 121.799 32.6503 121.506 34.6115H128.602Z" fill="black"/>
<path d="M134.726 28.9916H138.128V31.6554C139.085 29.7061 140.639 28.7787 142.805 28.7787V31.9206C140.055 31.9206 138.128 32.8226 138.128 35.8581V43.1892H134.726V28.9916Z" fill="black"/>
<path d="M64.7185 17.6402L70.9782 8.61656H65.3517V6.83615H73.9243V7.72298L67.817 16.7466H73.7482V18.527H64.7202V17.6402H64.7185Z" fill="black"/>
<path d="M79.2866 9.79053C81.8873 9.79053 83.8887 11.6115 83.8887 14.2297C83.8887 16.9206 81.784 18.6858 79.1986 18.6858C76.5894 18.6858 74.4915 16.8817 74.4915 14.2703C74.4915 11.5861 76.7079 9.79053 79.2866 9.79053ZM81.6875 14.2449C81.6875 12.6723 80.8867 11.3632 79.207 11.3632C77.4783 11.3632 76.7892 12.7365 76.7892 14.3024C76.7892 15.8192 77.5968 17.1132 79.2544 17.1132C80.9662 17.1115 81.6875 15.7382 81.6875 14.2449Z" fill="black"/>
<path d="M85.3855 6.10135H87.4342V11.3311C87.9862 10.2686 89.1155 9.79054 90.2991 9.79054C92.3478 9.79054 93.3722 11.228 93.3722 13.1757V18.5253H91.3065V13.375C91.3065 12.1453 90.6665 11.4747 89.4728 11.4747C88.1606 11.4747 87.4325 12.2804 87.4325 13.5034V18.5253H85.3838V6.10135H85.3855Z" fill="black"/>
<path d="M99.4964 9.79053C102.097 9.79053 104.098 11.6115 104.098 14.2297C104.098 16.9206 101.994 18.6858 99.4084 18.6858C96.7992 18.6858 94.7013 16.8817 94.7013 14.2703C94.7013 11.5861 96.9194 9.79053 99.4964 9.79053ZM101.897 14.2449C101.897 12.6723 101.096 11.3632 99.4168 11.3632C97.6881 11.3632 96.999 12.7365 96.999 14.3024C96.999 15.8192 97.8066 17.1132 99.4643 17.1132C101.178 17.1115 101.897 15.7382 101.897 14.2449Z" fill="black"/>
<path d="M20.1353 17.7618H14.7815C13.9823 17.7618 13.3372 17.1182 13.3372 16.3209C13.3372 15.5236 13.9823 14.8801 14.7815 14.8801H20.1353C20.9345 14.8801 21.5796 15.5236 21.5796 16.3209C21.5796 17.1182 20.9345 17.7618 20.1353 17.7618Z" fill="#226DB4"/>
<path d="M42.8646 46.6098H8.99927C6.61696 46.6098 4.67657 44.674 4.67657 42.2973V7.70441C4.67657 5.32772 6.61696 3.39191 8.99927 3.39191H45.7278C46.5269 3.39191 47.1721 4.03549 47.1721 4.83279C47.1721 5.63008 46.5269 6.27366 45.7278 6.27366H8.99927C8.21025 6.27366 7.56514 6.91724 7.56514 7.70441V42.2956C7.56514 43.0828 8.21025 43.7264 8.99927 43.7264H42.8646C43.6536 43.7264 44.2987 43.0828 44.2987 42.2956V27.7129C44.2987 26.9156 44.9438 26.272 45.743 26.272C46.5422 26.272 47.1873 26.9156 47.1873 27.7129V42.2956C47.1873 44.674 45.2469 46.6098 42.8646 46.6098Z" fill="#226DB4"/>
<path d="M14.7341 26.5034C13.9349 26.5034 13.2898 25.8598 13.2898 25.0625C13.2898 24.2652 13.9349 23.6216 14.7341 23.6216L28.4353 23.6064C29.2345 23.6064 29.8796 24.25 29.8796 25.0473C29.8796 25.8446 29.2345 26.4882 28.4353 26.4882L14.7341 26.5034Z" fill="#226DB4"/>
<path d="M14.7341 35.0912C13.9349 35.0912 13.2898 34.4477 13.2898 33.6504C13.2898 32.8531 13.9349 32.2095 14.7341 32.2095L28.4353 32.1943C29.2345 32.1943 29.8796 32.8379 29.8796 33.6352C29.8796 34.4325 29.2345 35.076 28.4353 35.076L14.7341 35.0912Z" fill="#226DB4"/>
<path d="M52.3396 26.5659C52.0992 26.5659 51.8588 26.5085 51.642 26.3885L43.6265 21.9882C43.6214 21.9882 43.6164 21.9831 43.6113 21.9831L35.7922 17.5878C35.3401 17.3328 35.0607 16.8581 35.0556 16.3395C35.0556 15.821 35.3299 15.3412 35.7786 15.0862L43.7891 10.4949L51.6031 5.90372C52.0501 5.64021 52.6038 5.64021 53.0525 5.89359C53.4995 6.14866 53.7788 6.62839 53.7788 7.1419V25.1301C53.7788 25.6385 53.5096 26.1098 53.0711 26.3699C52.8493 26.4983 52.5953 26.5659 52.3396 26.5659ZM45.0268 19.4662L50.8954 22.6892V9.65879L45.252 12.973C45.2469 12.978 45.2418 12.978 45.2367 12.9831L39.4207 16.3159L45.0268 19.4662Z" fill="#226DB4"/>
</svg>
