<svg width="775" height="160" viewBox="0 0 775 160" fill="none" xmlns="http://www.w3.org/2000/svg">
<path d="M186.47 33.99C186.47 75.36 165.39 111.9 133.41 133.44H48.0801C48.0801 133.44 48.1501 133.41 48.1801 133.4C68.7501 124.69 86.2901 110.17 98.7301 91.92C110.12 75.22 117.24 55.39 118.51 34H186.46L186.47 33.99Z" fill="white"></path>
<path d="M109.53 33.99C108.59 48.48 104.74 62.19 98.56 74.54C85.12 101.4 60.65 121.82 31.13 129.82C23.56 131.87 15.66 133.11 7.52 133.43H0V82.13C0.82 55.58 22.56 34.21 49.26 33.98H109.53V33.99Z" fill="white"></path>
<path d="M258.97 159.96C249.68 159.96 242.28 158.83 236.79 156.56C231.29 154.29 227.27 151.15 224.72 147.12C222.17 143.1 220.55 138.54 219.88 133.44H238.92C239.83 136.16 241.67 138.65 244.45 140.92C247.23 143.19 252.07 144.32 258.98 144.32C267.48 144.32 273.71 142.28 277.68 138.2C281.65 134.12 283.63 128.28 283.63 120.69V107.94C280.8 112.7 276.94 116.61 272.07 119.67C267.19 122.73 261.36 124.26 254.56 124.26C246.97 124.26 240.31 122.56 234.59 119.16C228.87 115.76 224.42 110.72 221.25 104.03C218.08 97.34 216.49 89.01 216.49 79.04V75.64C216.49 66.35 218.08 58.47 221.25 52.01C224.42 45.55 228.87 40.62 234.59 37.22C240.31 33.82 246.92 32.12 254.39 32.12C261.86 32.12 268.3 33.82 273.68 37.22C279.06 40.62 282.83 44.59 284.99 49.12V33.99H302.33V119.84C302.33 132.53 298.7 142.39 291.45 149.42C284.2 156.45 273.37 159.96 258.98 159.96H258.97ZM258.8 107.94C263.22 107.94 267.3 107 271.04 105.13C274.78 103.26 277.81 100.48 280.13 96.8C282.45 93.12 283.62 88.56 283.62 83.12V71.22C283.62 66.35 282.46 62.24 280.13 58.9C277.81 55.56 274.75 52.98 270.95 51.16C267.15 49.35 263.1 48.44 258.79 48.44C251.65 48.44 245.98 50.68 241.79 55.15C237.6 59.63 235.5 66.45 235.5 75.63V79.03C235.5 88.66 237.65 95.89 241.96 100.7C246.27 105.52 251.88 107.93 258.79 107.93L258.8 107.94Z" fill="white"></path>
<path d="M361.37 125.96C353.09 125.96 345.62 124.23 338.93 120.78C332.24 117.32 326.95 112.17 323.04 105.31C319.13 98.45 317.17 89.98 317.17 79.89V76.49C317.17 66.97 319.13 58.9 323.04 52.26C326.95 45.63 332.25 40.62 338.93 37.22C345.62 33.82 353.1 32.12 361.37 32.12C369.64 32.12 377.26 33.82 383.9 37.22C390.53 40.62 395.8 45.64 399.71 52.26C403.62 58.89 405.58 66.97 405.58 76.49V79.89C405.58 89.98 403.62 98.45 399.71 105.31C395.8 112.17 390.53 117.32 383.9 120.78C377.27 124.24 369.76 125.96 361.37 125.96ZM361.37 109.64C365.67 109.64 369.75 108.62 373.61 106.58C377.46 104.54 380.58 101.34 382.96 96.97C385.34 92.61 386.53 86.91 386.53 79.89V76.49C386.53 70.03 385.34 64.73 382.96 60.59C380.58 56.45 377.46 53.39 373.61 51.41C369.75 49.43 365.67 48.44 361.37 48.44C357.07 48.44 352.98 49.43 349.13 51.41C345.28 53.39 342.16 56.45 339.78 60.59C337.4 64.73 336.21 70.03 336.21 76.49V79.89C336.21 86.92 337.4 92.61 339.78 96.97C342.16 101.33 345.28 104.54 349.13 106.58C352.98 108.62 357.06 109.64 361.37 109.64Z" fill="white"></path>
<path d="M454 125.96C447.43 125.96 441.76 125.22 437 123.75C432.24 122.28 428.3 120.26 425.18 117.71C422.06 115.16 419.68 112.24 418.04 108.96C416.4 105.67 415.35 102.22 414.89 98.59H433.59C434.38 101.76 436.31 104.4 439.37 106.5C442.43 108.6 447.3 109.64 453.99 109.64C461.47 109.64 466.74 108.62 469.8 106.58C472.86 104.54 474.39 101.88 474.39 98.59C474.39 96.66 473.68 94.85 472.27 93.15C470.85 91.45 468.47 89.95 465.13 88.65C461.79 87.35 457.17 86.35 451.27 85.67C446.17 84.99 441.52 84 437.33 82.7C433.14 81.4 429.57 79.67 426.62 77.51C423.67 75.36 421.41 72.72 419.82 69.61C418.23 66.49 417.44 62.84 417.44 58.64C417.44 53.77 418.77 49.35 421.44 45.38C424.1 41.41 428.15 38.21 433.6 35.78C439.04 33.34 445.84 32.12 454 32.12C462.16 32.12 468.42 33.4 473.46 35.95C478.5 38.5 482.33 41.84 484.93 45.98C487.54 50.12 489.12 54.62 489.69 59.5H470.99C470.08 55.99 468.24 53.27 465.46 51.34C462.68 49.41 458.86 48.45 453.99 48.45C447.3 48.45 442.66 49.47 440.05 51.51C437.44 53.55 436.14 55.93 436.14 58.65C436.14 61.6 437.59 64.12 440.47 66.22C443.36 68.32 449.11 69.82 457.72 70.72C463.05 71.4 467.86 72.42 472.17 73.78C476.48 75.14 480.19 76.92 483.3 79.13C486.42 81.34 488.83 84.03 490.53 87.21C492.23 90.38 493.08 94.18 493.08 98.6C493.08 103.7 491.63 108.32 488.75 112.46C485.86 116.6 481.53 119.88 475.75 122.32C469.97 124.76 462.72 125.98 453.99 125.98L454 125.96Z" fill="white"></path>
<path d="M507.37 124.09V33.99H524.71V49.12C526.86 44.59 530.38 40.62 535.25 37.22C540.12 33.82 546.41 32.12 554.12 32.12C565.11 32.12 573.39 35.09 578.94 41.04C584.49 46.99 587.27 55.69 587.27 67.13V124.08H568.57V71.38C568.57 63.79 566.98 58.06 563.81 54.21C560.64 50.36 555.42 48.43 548.17 48.43C542.96 48.43 538.73 49.53 535.5 51.74C532.27 53.95 529.89 56.78 528.36 60.24C526.83 63.7 526.07 67.41 526.07 71.37V124.07H507.37V124.09Z" fill="white"></path>
<path d="M631.79 125.96C625.33 125.96 619.8 124.74 615.21 122.3C610.62 119.86 607.13 116.49 604.75 112.19C602.37 107.88 601.18 103.07 601.18 97.74C601.18 88.79 603.84 82.13 609.17 77.76C614.5 73.4 622.32 71.22 632.63 71.22H660.68V66.29C660.68 59.49 659.18 54.82 656.17 52.26C653.17 49.71 648.44 48.44 641.98 48.44C636.2 48.44 631.95 49.35 629.23 51.16C626.51 52.97 624.92 55.47 624.47 58.64H606.28C606.62 53.43 608.26 48.84 611.21 44.87C614.16 40.9 618.32 37.79 623.71 35.52C629.09 33.25 635.47 32.12 642.83 32.12C650.19 32.12 656.63 33.25 662.12 35.52C667.62 37.79 671.87 41.33 674.87 46.14C677.87 50.96 679.37 57.33 679.37 65.26V101.13C679.37 105.89 679.43 110.06 679.54 113.63C679.65 117.2 679.94 120.69 680.39 124.09H663.39C663.05 121.48 662.8 119.27 662.63 117.46C662.46 115.65 662.37 113.38 662.37 110.66C660.22 114.85 656.51 118.45 651.24 121.45C645.97 124.45 639.48 125.95 631.78 125.95L631.79 125.96ZM636.89 109.64C641.2 109.64 645.14 108.9 648.71 107.43C652.28 105.96 655.17 103.75 657.38 100.8C659.59 97.85 660.7 94.28 660.7 90.09V85.16H636.05C631.29 85.16 627.47 86.18 624.58 88.22C621.69 90.26 620.25 93.26 620.25 97.23C620.25 100.97 621.58 103.97 624.24 106.24C626.9 108.51 631.13 109.64 636.91 109.64H636.89Z" fill="white"></path>
<path d="M708.05 23.79C704.54 23.79 701.67 22.69 699.47 20.47C697.26 18.26 696.15 15.4 696.15 11.89C696.15 8.38 697.26 5.51 699.47 3.31C701.68 1.11 704.54 0 708.05 0C711.56 0 714.43 1.1 716.63 3.31C718.83 5.52 719.94 8.38 719.94 11.89C719.94 15.4 718.84 18.27 716.63 20.47C714.42 22.68 711.56 23.79 708.05 23.79ZM698.7 124.09V33.99H717.4V124.09H698.7Z" fill="white"></path>
<path d="M765.521 124.94C759.061 124.94 753.76 124 749.63 122.13C745.49 120.26 742.431 117.14 740.451 112.78C738.471 108.42 737.48 102.61 737.48 95.36V5.09H756.18V94C756.18 99.55 757.091 103.38 758.901 105.47C760.711 107.57 764.06 108.62 768.93 108.62C770.18 108.62 771.25 108.59 772.16 108.54C773.07 108.48 773.97 108.4 774.88 108.29V124.44C774.31 124.55 773.43 124.67 772.24 124.78C771.05 124.89 769.86 124.95 768.67 124.95H765.521V124.94Z" fill="white"></path>
</svg>