<svg width="808" height="431" viewBox="0 0 808 431" fill="none" xmlns="http://www.w3.org/2000/svg">
<path d="M807.89 0.0100098C807.87 179.25 716.54 337.59 578 430.89H208.31C208.45 430.84 208.6 430.77 208.74 430.7C297.87 392.96 373.85 330.05 427.77 250.96C477.11 178.6 507.98 92.67 513.49 0.0100098H807.89Z" fill="white"></path>
<path d="M474.56 0.0100098C470.5 62.8 453.83 122.21 427.04 175.72C368.81 292.09 262.78 380.56 134.89 415.24H134.87C102.07 424.14 67.83 429.51 32.57 430.89H0V208.61C3.55 93.6 97.77 0.98 213.42 0H474.56V0.0100098Z" fill="white"></path>
</svg>