<svg width="1024" height="1024" viewBox="0 0 1024 1024" fill="none" xmlns="http://www.w3.org/2000/svg">
<g clip-path="url(#clip0_986_2)">
<path d="M512 1024C794.77 1024 1024 794.77 1024 512C1024 229.23 794.77 0 512 0C229.23 0 0 229.23 0 512C0 794.77 229.23 1024 512 1024Z" fill="white"></path>
<path d="M915.95 296.56C915.93 475.8 824.6 634.14 686.06 727.44H316.37C316.51 727.39 316.66 727.32 316.8 727.25C405.93 689.51 481.91 626.6 535.83 547.51C585.17 475.15 616.04 389.22 621.55 296.56H915.95Z" fill="#111D52"></path>
<path d="M582.62 296.56C578.56 359.35 561.89 418.76 535.1 472.27C476.87 588.64 370.84 677.11 242.95 711.79H242.93C210.13 720.69 175.89 726.06 140.63 727.44H108.06V505.16C111.61 390.15 205.83 297.53 321.48 296.55H582.62V296.56Z" fill="#111D52"></path>
</g>
<defs>
<clipPath id="clip0_986_2">
<rect width="1024" height="1024" fill="white"></rect>
</clipPath>
</defs>
</svg>