<svg width="393" height="242" viewBox="0 0 393 242" fill="none" xmlns="http://www.w3.org/2000/svg">
<path d="M392.6 0C392.6 38.82 372.82 73.11 342.81 93.32H262.74C262.74 93.32 262.8 93.29 262.83 93.28C282.13 85.11 298.59 71.48 310.27 54.35C320.96 38.68 327.64 20.07 328.83 0H392.59L392.6 0Z" fill="#111D52"></path>
<path d="M320.41 0C319.53 13.6 315.92 26.47 310.12 38.05C297.51 63.25 274.55 82.41 246.84 89.93C239.74 91.86 232.32 93.02 224.68 93.32H217.63V45.18C218.4 20.27 238.8 0.21 263.85 0L320.41 0Z" fill="#111D52"></path>
<path d="M42.48 127.84C33.19 127.84 25.79 126.71 20.3 124.44C14.8 122.17 10.78 119.03 8.23 115C5.68 110.98 4.06 106.42 3.39 101.32H22.43C23.34 104.04 25.18 106.53 27.96 108.8C30.74 111.07 35.58 112.2 42.49 112.2C50.99 112.2 57.22 110.16 61.19 106.08C65.16 102 67.14 96.16 67.14 88.57V75.82C64.31 80.58 60.45 84.49 55.58 87.55C50.7 90.61 44.87 92.14 38.07 92.14C30.48 92.14 23.82 90.44 18.1 87.04C12.38 83.64 7.93 78.6 4.76 71.91C1.59 65.22 0 56.89 0 46.92V43.52C0 34.23 1.59 26.35 4.76 19.89C7.93 13.43 12.38 8.5 18.1 5.1C23.81 1.7 30.41 0 37.89 0C45.37 0 51.8 1.7 57.18 5.1C62.56 8.5 66.33 12.47 68.49 17V1.87H85.83V87.72C85.83 100.41 82.2 110.27 74.95 117.3C67.7 124.33 56.87 127.84 42.48 127.84ZM42.31 75.82C46.73 75.82 50.81 74.88 54.55 73.01C58.29 71.14 61.32 68.36 63.64 64.68C65.96 61 67.13 56.44 67.13 51V39.1C67.13 34.23 65.97 30.12 63.64 26.78C61.32 23.44 58.26 20.86 54.46 19.04C50.66 17.23 46.61 16.32 42.3 16.32C35.16 16.32 29.49 18.56 25.3 23.03C21.11 27.51 19.01 34.33 19.01 43.51V46.91C19.01 56.54 21.16 63.77 25.47 68.58C29.78 73.4 35.39 75.81 42.3 75.81L42.31 75.82Z" fill="#111D52"></path>
<path d="M144.89 93.84C136.61 93.84 129.14 92.11 122.45 88.66C115.76 85.2 110.47 80.05 106.56 73.19C102.65 66.33 100.69 57.86 100.69 47.77V44.37C100.69 34.85 102.65 26.78 106.56 20.14C110.47 13.51 115.77 8.5 122.45 5.1C129.14 1.7 136.62 0 144.89 0C153.16 0 160.78 1.7 167.42 5.1C174.05 8.5 179.32 13.52 183.23 20.14C187.14 26.77 189.1 34.85 189.1 44.37V47.77C189.1 57.86 187.14 66.33 183.23 73.19C179.32 80.05 174.05 85.2 167.42 88.66C160.79 92.12 153.28 93.84 144.89 93.84ZM144.89 77.52C149.19 77.52 153.27 76.5 157.13 74.46C160.98 72.42 164.1 69.22 166.48 64.85C168.86 60.49 170.05 54.79 170.05 47.77V44.37C170.05 37.91 168.86 32.61 166.48 28.47C164.1 24.33 160.98 21.27 157.13 19.29C153.27 17.31 149.19 16.32 144.89 16.32C140.59 16.32 136.5 17.31 132.65 19.29C128.8 21.27 125.68 24.33 123.3 28.47C120.92 32.61 119.73 37.91 119.73 44.37V47.77C119.73 54.8 120.92 60.49 123.3 64.85C125.68 69.21 128.8 72.42 132.65 74.46C136.5 76.5 140.58 77.52 144.89 77.52Z" fill="#111D52"></path>
<path d="M41.1701 241.91C34.6001 241.91 28.9301 241.17 24.1701 239.7C19.4101 238.23 15.4701 236.21 12.3501 233.66C9.23006 231.11 6.85006 228.19 5.21006 224.91C3.57006 221.62 2.52006 218.17 2.06006 214.54H20.7601C21.5501 217.71 23.4801 220.35 26.5401 222.45C29.6001 224.55 34.4701 225.59 41.1601 225.59C48.6401 225.59 53.9101 224.57 56.9701 222.53C60.0301 220.49 61.5601 217.83 61.5601 214.54C61.5601 212.61 60.8501 210.8 59.4401 209.1C58.0201 207.4 55.6401 205.9 52.3001 204.6C48.9601 203.3 44.3401 202.3 38.4401 201.62C33.3401 200.94 28.6901 199.95 24.5001 198.65C20.3101 197.35 16.7401 195.62 13.7901 193.46C10.8401 191.31 8.58006 188.67 6.99006 185.56C5.40006 182.44 4.61006 178.79 4.61006 174.59C4.61006 169.72 5.94006 165.3 8.61006 161.33C11.2701 157.36 15.3201 154.16 20.7701 151.73C26.2101 149.29 33.0101 148.07 41.1701 148.07C49.3301 148.07 55.5901 149.35 60.6301 151.9C65.6701 154.45 69.5001 157.79 72.1001 161.93C74.7101 166.07 76.2901 170.57 76.8601 175.45H58.1601C57.2501 171.94 55.4101 169.22 52.6301 167.29C49.8501 165.36 46.0301 164.4 41.1601 164.4C34.4701 164.4 29.8301 165.42 27.2201 167.46C24.6101 169.5 23.3101 171.88 23.3101 174.6C23.3101 177.55 24.7601 180.07 27.6401 182.17C30.5301 184.27 36.2801 185.77 44.8901 186.67C50.2201 187.35 55.0301 188.37 59.3401 189.73C63.6501 191.09 67.3601 192.87 70.4701 195.08C73.5901 197.29 76.0001 199.98 77.7001 203.16C79.4001 206.33 80.2501 210.13 80.2501 214.55C80.2501 219.65 78.8001 224.27 75.9201 228.41C73.0301 232.55 68.7001 235.83 62.9201 238.27C57.1401 240.71 49.8901 241.93 41.1601 241.93L41.1701 241.91Z" fill="#111D52"></path>
<path d="M94.5303 240.04V149.94H111.87V165.07C114.02 160.54 117.54 156.57 122.41 153.17C127.28 149.77 133.57 148.07 141.28 148.07C152.27 148.07 160.55 151.04 166.1 156.99C171.65 162.94 174.43 171.64 174.43 183.08V240.03H155.73V187.33C155.73 179.74 154.14 174.01 150.97 170.16C147.8 166.31 142.58 164.38 135.33 164.38C130.12 164.38 125.89 165.48 122.66 167.69C119.43 169.9 117.05 172.73 115.52 176.19C113.99 179.65 113.23 183.36 113.23 187.32V240.02H94.5303V240.04Z" fill="#111D52"></path>
<path d="M218.96 241.91C212.5 241.91 206.97 240.69 202.38 238.25C197.79 235.81 194.3 232.44 191.92 228.14C189.54 223.83 188.35 219.02 188.35 213.69C188.35 204.74 191.01 198.08 196.34 193.71C201.67 189.35 209.49 187.17 219.8 187.17H247.85V182.24C247.85 175.44 246.35 170.77 243.34 168.21C240.34 165.66 235.61 164.39 229.15 164.39C223.37 164.39 219.12 165.3 216.4 167.11C213.68 168.92 212.09 171.42 211.64 174.59H193.45C193.79 169.38 195.43 164.79 198.38 160.82C201.33 156.85 205.49 153.74 210.88 151.47C216.26 149.2 222.64 148.07 230 148.07C237.36 148.07 243.8 149.2 249.29 151.47C254.79 153.74 259.04 157.28 262.04 162.09C265.04 166.91 266.54 173.28 266.54 181.21V217.08C266.54 221.84 266.6 226.01 266.71 229.58C266.82 233.15 267.11 236.64 267.56 240.04H250.56C250.22 237.43 249.97 235.22 249.8 233.41C249.63 231.6 249.54 229.33 249.54 226.61C247.39 230.8 243.68 234.4 238.41 237.4C233.14 240.4 226.65 241.9 218.95 241.9L218.96 241.91ZM224.05 225.59C228.36 225.59 232.3 224.85 235.87 223.38C239.44 221.91 242.33 219.7 244.54 216.75C246.75 213.8 247.86 210.23 247.86 206.04V201.11H223.21C218.45 201.11 214.63 202.13 211.74 204.17C208.85 206.21 207.41 209.21 207.41 213.18C207.41 216.92 208.74 219.92 211.4 222.19C214.06 224.46 218.29 225.59 224.07 225.59H224.05Z" fill="#111D52"></path>
<path d="M295.22 139.74C291.71 139.74 288.84 138.64 286.64 136.42C284.43 134.21 283.32 131.35 283.32 127.84C283.32 124.33 284.43 121.46 286.64 119.26C288.85 117.06 291.71 115.95 295.22 115.95C298.73 115.95 301.6 117.05 303.8 119.26C306 121.47 307.11 124.33 307.11 127.84C307.11 131.35 306.01 134.22 303.8 136.42C301.59 138.63 298.73 139.74 295.22 139.74ZM285.87 240.04V149.94H304.57V240.04H285.87Z" fill="#111D52"></path>
<path d="M352.69 240.89C346.23 240.89 340.93 239.95 336.8 238.08C332.66 236.21 329.6 233.09 327.62 228.73C325.64 224.37 324.65 218.56 324.65 211.31V121.04H343.35V209.95C343.35 215.5 344.26 219.33 346.07 221.42C347.88 223.52 351.23 224.57 356.1 224.57C357.35 224.57 358.42 224.54 359.33 224.49C360.24 224.43 361.14 224.35 362.05 224.24V240.39C361.48 240.5 360.6 240.62 359.41 240.73C358.22 240.84 357.03 240.9 355.84 240.9H352.69V240.89Z" fill="#111D52"></path>
</svg>