<svg width="74" height="74" viewBox="0 0 74 74" fill="none" xmlns="http://www.w3.org/2000/svg">
<path d="M64.58 73.1699H8.73001C3.98001 73.1699 0.140015 69.33 0.140015 64.58V31.7H73.17V64.58C73.17 69.33 69.33 73.1699 64.58 73.1699Z" fill="#226DB4"/>
<path d="M73.17 31.7H0.140015V8.73001C0.140015 3.98001 3.99001 0.140015 8.73001 0.140015H64.58C69.33 0.140015 73.17 3.99001 73.17 8.73001V31.69V31.7Z" fill="#F3F3F3"/>
<path d="M34.06 22.0901C33.69 22.0901 33.31 22.0101 32.95 21.8501L25.23 18.4101C23.85 17.7901 23.23 16.1801 23.84 14.7901L27.28 7.07005C27.9 5.69005 29.51 5.07005 30.9 5.68005L38.62 9.12005C40 9.74005 40.62 11.3501 40.01 12.7401L36.57 20.4601C36.11 21.4801 35.11 22.0901 34.06 22.0901ZM33.59 20.4101C34.17 20.6701 34.86 20.4101 35.11 19.8201L38.55 12.1001C38.81 11.5201 38.55 10.8301 37.96 10.5801L30.24 7.14005C29.66 6.88005 28.97 7.14005 28.72 7.73005L25.28 15.4501C25.02 16.0301 25.28 16.7201 25.87 16.9701L33.59 20.4101Z" fill="#089949"/>
<path d="M58.2599 22.09H49.8099C48.2999 22.09 47.0699 20.86 47.0699 19.36V10.91C47.0699 9.40004 48.2999 8.17004 49.8099 8.17004H58.2599C59.7699 8.17004 60.9999 9.40004 60.9999 10.91V19.36C60.9999 20.86 59.7699 22.09 58.2599 22.09ZM49.8099 9.75004C49.1699 9.75004 48.6599 10.27 48.6599 10.9V19.35C48.6599 19.99 49.1799 20.5 49.8099 20.5H58.2599C58.8999 20.5 59.4099 19.98 59.4099 19.35V10.9C59.4099 10.26 58.8899 9.75004 58.2599 9.75004H49.8099Z" fill="#F9B21D"/>
<path d="M26.62 12.4501L25.48 15.0001C25.48 15.0001 25.45 15.0501 25.44 15.0801L25.88 17.8201C25.98 18.4501 25.55 19.0401 24.92 19.1401L16.58 20.4901C16.27 20.5401 15.97 20.4701 15.72 20.2901C15.47 20.1101 15.3 19.8401 15.25 19.5401L13.9 11.2001C13.85 10.8901 13.92 10.5901 14.1 10.3401C14.28 10.0901 14.55 9.93006 14.85 9.88006L23.2 8.53006C23.26 8.53006 23.32 8.52006 23.39 8.52006C23.95 8.52006 24.44 8.93006 24.53 9.49006L24.97 12.2501L26.14 9.61006L26.08 9.24006C25.84 7.75006 24.43 6.73006 22.94 6.97006L14.6 8.32006C13.88 8.43006 13.25 8.83006 12.82 9.42006C12.39 10.0101 12.22 10.7401 12.34 11.4601L13.69 19.8001C13.8 20.5201 14.2 21.1501 14.79 21.5801C15.26 21.9201 15.81 22.1001 16.39 22.1001C16.54 22.1001 16.68 22.0901 16.83 22.0601L25.17 20.7101C26.66 20.4701 27.68 19.0601 27.44 17.5701L26.61 12.4601L26.62 12.4501Z" fill="#E42527"/>
<path d="M36.63 16.44L37.85 13.7L37.51 11.15C37.47 10.84 37.55 10.54 37.73 10.29C37.92 10.05 38.19 9.88999 38.5 9.84999L46.87 8.70999C46.87 8.70999 46.98 8.69999 47.03 8.69999C47.28 8.69999 47.52 8.77999 47.72 8.93999C47.76 8.96999 47.79 8.99999 47.83 9.02999C48.2 8.63999 48.69 8.35999 49.23 8.23999C49.07 8.02999 48.89 7.83999 48.68 7.67999C48.1 7.23999 47.38 7.04999 46.65 7.13999L38.28 8.27999C37.56 8.37999 36.91 8.74999 36.47 9.32999C36.03 9.90999 35.84 10.63 35.93 11.36L36.62 16.44H36.63Z" fill="#226DB4"/>
<path d="M50.87 17.85L49.77 9.75C49.15 9.77 48.65 10.28 48.65 10.9V13.28L49.3 18.06C49.34 18.37 49.26 18.67 49.08 18.92C48.9 19.17 48.62 19.32 48.31 19.36L39.94 20.5C39.63 20.54 39.33 20.46 39.08 20.28C38.84 20.09 38.68 19.82 38.64 19.51L38.25 16.67L37.03 19.41L37.07 19.72C37.17 20.44 37.54 21.09 38.12 21.53C38.6 21.9 39.18 22.09 39.77 22.09C39.89 22.09 40.02 22.09 40.14 22.06L48.51 20.92C49.23 20.82 49.88 20.45 50.32 19.87C50.76 19.29 50.95 18.57 50.86 17.84" fill="#226DB4"/>
<path d="M27.25 26.1L28.45 24.34H27.46C27.4 24.34 27.36 24.3 27.36 24.24V24C27.36 23.94 27.4 23.9 27.46 23.9H29.08C29.14 23.9 29.18 23.94 29.18 24V24.09C29.18 24.09 29.18 24.13 29.17 24.15L28 25.91H29.05C29.11 25.91 29.15 25.95 29.15 26.01V26.25C29.15 26.31 29.11 26.35 29.05 26.35H27.35C27.29 26.35 27.25 26.31 27.25 26.25V26.16C27.25 26.16 27.25 26.11 27.26 26.1" fill="black"/>
<path d="M32.29 25.11C32.29 24.39 32.82 23.86 33.54 23.86C34.26 23.86 34.79 24.37 34.79 25.11C34.79 25.85 34.27 26.37 33.53 26.37C32.79 26.37 32.28 25.85 32.28 25.1M34.22 25.12C34.22 24.68 34 24.3 33.53 24.3C33.06 24.3 32.86 24.69 32.86 25.13C32.86 25.57 33.09 25.93 33.55 25.93C34.03 25.93 34.22 25.53 34.22 25.11" fill="black"/>
<path d="M38.22 23.91H38.58C38.64 23.91 38.68 23.95 38.68 24.01V24.9H39.69V24.01C39.69 23.95 39.73 23.91 39.79 23.91H40.15C40.21 23.91 40.25 23.95 40.25 24.01V26.25C40.25 26.31 40.21 26.35 40.15 26.35H39.79C39.73 26.35 39.69 26.31 39.69 26.25V25.34H38.68V26.25C38.68 26.31 38.64 26.35 38.58 26.35H38.22C38.16 26.35 38.12 26.31 38.12 26.25V24.01C38.12 23.95 38.17 23.91 38.22 23.91Z" fill="black"/>
<path d="M43.5699 25.11C43.5699 24.39 44.0999 23.86 44.8199 23.86C45.5399 23.86 46.0699 24.37 46.0699 25.11C46.0699 25.85 45.5499 26.37 44.8099 26.37C44.0699 26.37 43.5599 25.85 43.5599 25.1M45.4999 25.12C45.4999 24.68 45.2799 24.3 44.8099 24.3C44.3399 24.3 44.1399 24.69 44.1399 25.13C44.1399 25.57 44.3699 25.93 44.8299 25.93C45.3099 25.93 45.4999 25.53 45.4999 25.11" fill="black"/>
<path d="M10.11 48.49L13.16 43.98H10.44V42.89H15V43.43L12.01 47.93H14.9V49.02H10.11V48.49Z" fill="white"/>
<path d="M17.8 44.4301C19.2 44.4301 20.13 45.3901 20.13 46.7801C20.13 48.1701 19.13 49.1301 17.75 49.1301C16.37 49.1301 15.4 48.1801 15.4 46.8001C15.4 45.4201 16.41 44.4301 17.8 44.4301ZM18.88 46.7901C18.88 46.0401 18.59 45.3801 17.77 45.3801C16.95 45.3801 16.68 46.0701 16.68 46.7801C16.68 47.5301 16.97 48.1801 17.79 48.1801C18.61 48.1801 18.88 47.4801 18.88 46.7901Z" fill="white"/>
<path d="M20.98 42.5H22.23V45.25C22.52 44.7 23.13 44.43 23.75 44.43C24.79 44.43 25.28 45.17 25.28 46.17V49.03H24.03V46.35C24.03 45.78 23.74 45.45 23.17 45.45C22.54 45.45 22.22 45.84 22.22 46.44V49.03H20.97V42.49L20.98 42.5Z" fill="white"/>
<path d="M28.4599 44.4301C29.8599 44.4301 30.7899 45.3901 30.7899 46.7801C30.7899 48.1701 29.7899 49.1301 28.4099 49.1301C27.0299 49.1301 26.0599 48.1801 26.0599 46.8001C26.0599 45.3801 27.0799 44.4301 28.4599 44.4301ZM29.5399 46.7901C29.5399 46.0401 29.2499 45.3801 28.4299 45.3801C27.6099 45.3801 27.3399 46.0701 27.3399 46.7801C27.3399 47.5301 27.6299 48.1801 28.4499 48.1801C29.2699 48.1801 29.5399 47.4801 29.5399 46.7901Z" fill="white"/>
<path d="M11.74 51.53H12.46L14.14 56.34H13.56L13.12 55.02H11.09L10.65 56.34H10.1L11.75 51.53H11.74ZM12.96 54.56L12.1 52.07L11.24 54.56H12.96Z" fill="white"/>
<path d="M17.38 55.7799C17.17 56.2099 16.76 56.3999 16.3 56.3999C15.45 56.3999 14.98 55.8999 14.98 55.0499V52.8199H15.54V55.0199C15.54 55.6199 15.86 55.9199 16.46 55.9199C17.06 55.9199 17.4 55.5299 17.4 54.9599V52.8299H17.96V56.3499H17.4V55.7799H17.38Z" fill="white"/>
<path d="M20.6 56.3201C20.44 56.3701 20.28 56.3901 20.12 56.3901C19.51 56.3901 19.18 56.0901 19.18 55.4701V53.3001H18.67V52.8301H19.18V52.1701L19.74 51.9301V52.8301H20.56V53.3001H19.74V55.4101C19.74 55.7101 19.85 55.9301 20.2 55.9301C20.32 55.9301 20.46 55.9001 20.61 55.8501V56.3201H20.6Z" fill="white"/>
<path d="M21.41 51.23H21.97V53.38C22.19 52.95 22.61 52.76 23.09 52.76C23.96 52.76 24.41 53.38 24.41 54.21V56.34H23.85V54.18C23.85 53.58 23.54 53.25 22.97 53.25C22.35 53.25 21.97 53.62 21.97 54.21V56.34H21.41V51.23Z" fill="white"/>
<path d="M25.22 54.59C25.22 53.54 25.94 52.76 26.98 52.76C28.02 52.76 28.72 53.57 28.72 54.57C28.72 55.57 27.99 56.4 26.95 56.4C25.91 56.4 25.22 55.6 25.22 54.6M28.14 54.58C28.14 53.85 27.74 53.23 26.95 53.23C26.16 53.23 25.8 53.87 25.8 54.59C25.8 55.35 26.19 55.94 26.96 55.94C27.77 55.94 28.14 55.29 28.14 54.58Z" fill="white"/>
<path d="M29.5699 52.82H30.1299V53.45C30.3799 52.98 30.7599 52.77 31.2899 52.76V53.28C30.5199 53.31 30.1299 53.6 30.1299 54.4V56.33H29.5699V52.81V52.82Z" fill="white"/>
<path d="M32.35 51.4399C32.56 51.4399 32.72 51.5999 32.72 51.8099C32.72 52.0199 32.56 52.1799 32.35 52.1799C32.14 52.1799 31.98 52.0199 31.98 51.8099C31.98 51.5999 32.15 51.4399 32.35 51.4399ZM32.09 52.8299H32.65V56.3499H32.09V52.8299Z" fill="white"/>
<path d="M33.91 55.29C34.04 55.69 34.38 55.93 34.8 55.93C35.19 55.93 35.59 55.8 35.59 55.38C35.59 54.96 35.18 54.86 34.73 54.75C34.19 54.62 33.61 54.48 33.61 53.75C33.61 53.13 34.2 52.75 34.78 52.75C35.32 52.75 35.77 53.06 36.03 53.55L35.6 53.74C35.44 53.4 35.12 53.22 34.76 53.22C34.44 53.22 34.12 53.37 34.12 53.73C34.12 54.14 34.52 54.22 34.97 54.32C35.51 54.43 36.12 54.56 36.12 55.3C36.12 56.04 35.49 56.4 34.82 56.4C34.15 56.4 33.67 56.08 33.47 55.48L33.91 55.29Z" fill="white"/>
<path d="M39.8601 55.54C39.5401 56.1 39.0401 56.41 38.3901 56.41C37.3201 56.41 36.6901 55.59 36.6901 54.6C36.6901 53.61 37.3201 52.77 38.3401 52.77C39.5201 52.77 39.9201 53.65 39.9201 54.7H37.2701C37.2701 55.4 37.6601 55.94 38.3901 55.94C38.8001 55.94 39.1601 55.68 39.3401 55.32L39.8601 55.54ZM39.3301 54.24C39.3101 53.62 38.9601 53.22 38.3301 53.22C37.7401 53.22 37.3501 53.67 37.2901 54.24H39.3401H39.3301Z" fill="white"/>
<path d="M43.33 55.73C43.07 56.14 42.53 56.4 42.06 56.4C40.99 56.4 40.47 55.59 40.47 54.6C40.47 53.61 41.07 52.76 42.1 52.76C42.59 52.76 43.07 52.96 43.33 53.39V51.23H43.89V56.34H43.33V55.74V55.73ZM43.36 54.55C43.36 53.81 43 53.23 42.2 53.23C41.35 53.23 41.05 53.88 41.05 54.63C41.05 55.3 41.39 55.94 42.14 55.94C42.97 55.94 43.36 55.32 43.36 54.56" fill="white"/>
<path d="M10.4401 58.26H11.9401C12.8701 58.26 13.6201 58.67 13.6201 59.72C13.6201 61 12.5001 61.12 11.4401 61.12H11.0301V63.07H10.4401V58.25V58.26ZM11.9801 60.65C12.6501 60.65 13.0401 60.36 13.0401 59.68C13.0401 59 12.6301 58.73 11.9801 58.73H11.0201V60.65H11.9801Z" fill="white"/>
<path d="M16.39 62.63C16.14 62.97 15.71 63.13 15.28 63.13C14.66 63.13 14.12 62.78 14.12 62.1C14.12 61.02 15.47 61 16.26 61H16.38V60.98C16.38 60.38 16.24 59.96 15.55 59.96C15.16 59.96 14.79 60.2 14.67 60.57L14.19 60.36C14.44 59.77 14.97 59.49 15.59 59.49C16.38 59.49 16.94 59.97 16.94 60.76V63.07H16.39V62.63ZM15.91 61.4C15.45 61.4 14.69 61.48 14.69 62.09C14.69 62.52 14.95 62.68 15.33 62.68C15.85 62.68 16.4 62.39 16.4 61.83V61.39H15.91V61.4Z" fill="white"/>
<path d="M18.03 59.55H18.59V60.18C18.84 59.71 19.22 59.5 19.75 59.49V60.01C18.98 60.04 18.59 60.33 18.59 61.13V63.06H18.03V59.54V59.55Z" fill="white"/>
<path d="M22.1 63.05C21.94 63.1 21.78 63.12 21.62 63.12C21.01 63.12 20.68 62.82 20.68 62.2V60.03H20.17V59.56H20.68V58.9L21.24 58.66V59.56H22.06V60.03H21.24V62.14C21.24 62.44 21.35 62.66 21.7 62.66C21.82 62.66 21.96 62.63 22.11 62.58V63.05H22.1Z" fill="white"/>
<path d="M22.92 59.55H23.48V60.11C23.7 59.67 24.15 59.49 24.63 59.49C25.51 59.49 25.92 60.11 25.92 60.94V63.07H25.36V60.91C25.36 60.32 25.07 59.98 24.49 59.98C23.88 59.98 23.48 60.35 23.48 60.94V63.07H22.92V59.55Z" fill="white"/>
<path d="M29.89 62.27C29.57 62.83 29.07 63.14 28.42 63.14C27.35 63.14 26.72 62.32 26.72 61.33C26.72 60.34 27.35 59.5 28.37 59.5C29.55 59.5 29.95 60.38 29.95 61.43H27.3C27.3 62.13 27.69 62.67 28.42 62.67C28.83 62.67 29.19 62.41 29.36 62.05L29.88 62.27H29.89ZM29.37 60.97C29.35 60.35 29 59.95 28.37 59.95C27.78 59.95 27.39 60.4 27.33 60.97H29.38H29.37Z" fill="white"/>
<path d="M30.78 59.55H31.34V60.18C31.59 59.71 31.97 59.5 32.5 59.49V60.01C31.73 60.04 31.34 60.33 31.34 61.13V63.06H30.78V59.54V59.55Z" fill="white"/>
<path d="M64.58 73.32H8.73C3.91 73.32 0 69.4 0 64.58V8.73C0 3.92 3.91 0 8.73 0H64.58C69.4 0 73.31 3.92 73.31 8.73V64.58C73.31 69.4 69.39 73.32 64.58 73.32ZM8.73 0.29C4.07 0.29 0.279999 4.08 0.279999 8.74V64.59C0.279999 69.25 4.07 73.04 8.73 73.04H64.58C69.24 73.04 73.03 69.25 73.03 64.59V8.73C73.03 4.07 69.24 0.28 64.58 0.28H8.73V0.29Z" fill="white"/>
</svg>
