<svg width="118" height="33" viewBox="0 0 118 33" fill="none" xmlns="http://www.w3.org/2000/svg">
<path d="M66.4 32.5H5.9C2.6 32.5 0 29.9 0 26.6V5.9C0 2.6 2.6 0 5.9 0H66.4V32.5Z" fill="#F3F3F3"></path>
<path d="M111.2 32.5H66.2998V0H111.2C114.5 0 117.1 2.6 117.1 5.9V26.6C117.1 29.9 114.5 32.5 111.2 32.5Z" fill="#236EB4"></path>
<path d="M30.4998 22.6C30.0998 22.6 29.6998 22.6 29.3998 22.4L21.4998 18.9C20.0998 18.3 19.3998 16.6 20.0998 15.2L23.5998 7.29998C24.1998 5.89998 25.8998 5.19998 27.2998 5.89998L35.2998 9.39998C36.6998 9.99998 37.3998 11.7 36.6998 13.1L33.1998 21.1C32.6998 22.1 31.6998 22.8 30.5998 22.8M29.9998 20.9C30.5998 21.2 31.2998 20.9 31.5998 20.3L35.0998 12.4C35.3998 11.8 35.0998 11.1 34.4998 10.8L26.4998 7.29998C25.8998 6.99998 25.1998 7.29998 24.8998 7.89998L21.3998 15.8C21.0998 16.4 21.3998 17.1 21.9998 17.4L29.9998 20.9Z" fill="#0B9949"></path>
<path d="M55.3999 22.6H46.6999C45.0999 22.6 43.8999 21.3 43.8999 19.8V11.1C43.8999 9.50005 45.1999 8.30005 46.6999 8.30005H55.3999C56.9999 8.30005 58.1999 9.60005 58.1999 11.1V19.8C58.1999 21.4 56.8999 22.6 55.3999 22.6ZM46.6999 9.90005C45.9999 9.90005 45.4999 10.4 45.4999 11.1V19.8C45.4999 20.5 45.9999 21 46.6999 21H55.3999C56.0999 21 56.5999 20.5 56.5999 19.8V11.1C56.5999 10.4 56.0999 9.90005 55.3999 9.90005H46.6999Z" fill="#F7B21C"></path>
<path d="M22.7998 12.7L21.5998 15.3L22.0998 18.1C22.1998 18.7 21.7998 19.4 21.0998 19.5L12.4998 20.9C12.1998 20.9 11.8998 20.9 11.5998 20.7C11.2998 20.5 11.1998 20.2 11.0998 19.9L9.6998 11.3C9.6998 11 9.6998 10.7 9.8998 10.4C10.0998 10.1 10.3998 9.99996 10.6998 9.89996L19.2998 8.49996C19.2998 8.49996 19.3998 8.49996 19.4998 8.49996C20.0998 8.49996 20.5998 8.89996 20.6998 9.49996L21.1998 12.4L22.3998 9.69996V9.29996C22.0998 7.79996 20.5998 6.69996 19.0998 6.99996L10.4998 8.39996C9.7998 8.49996 9.0998 8.89996 8.6998 9.49996C8.2998 10.1 8.0998 10.9 8.1998 11.6L9.5998 20.2C9.6998 21 10.0998 21.6 10.6998 22C11.1998 22.4 11.7998 22.5 12.2998 22.5C12.7998 22.5 12.5998 22.5 12.7998 22.5L21.3998 21.1C22.8998 20.9 23.9998 19.4 23.6998 17.9L22.7998 12.6V12.7Z" fill="#E32828"></path>
<path d="M33.1 16.8L34.4 14L34.1 11.4C34.1 11.1 34.1 10.8 34.3 10.5C34.5 10.2 34.8 10.1 35.1 9.99998L43.7 8.79998C43.7 8.79998 43.8 8.79998 43.9 8.79998C44.2 8.79998 44.4 8.79998 44.6 8.99998C44.6 8.99998 44.6 8.99998 44.7 9.09998C45.1 8.69998 45.6 8.39998 46.2 8.29998C46 8.09998 45.9 7.89998 45.6 7.69998C45 7.19998 44.3 7.09998 43.5 7.09998L34.9 8.29998C34.2 8.39998 33.5 8.79998 33 9.39998C32.5 9.99998 32.3 10.7 32.5 11.5L33.2 16.7L33.1 16.8Z" fill="#236EB4"></path>
<path d="M47.8 18.2L46.7 9.90002C46.1 9.90002 45.5 10.5 45.5 11.1V13.5L46.2 18.4C46.2 18.7 46.2 19 46 19.3C45.8 19.5 45.5 19.7 45.2 19.8L36.6 21C36.3 21 36 21 35.7 20.8C35.5 20.6 35.3 20.3 35.2 20L34.8 17.1L33.5 19.9V20.2C33.6 20.9 34 21.6 34.6 22.1C35.1 22.5 35.7 22.7 36.3 22.7C36.9 22.7 36.6 22.7 36.7 22.7L45.3 21.5C46.1 21.4 46.7 21 47.2 20.4C47.7 19.8 47.9 19.1 47.7 18.3" fill="#236EB4"></path>
<path d="M23.5 26.7L24.7 24.9H23.7C23.7 24.9 23.6 24.9 23.6 24.8V24.6C23.6 24.6 23.6 24.5 23.7 24.5H25.4C25.4 24.5 25.5 24.5 25.5 24.6C25.5 24.7 25.5 24.7 25.5 24.8L24.3 26.6H25.4C25.4 26.6 25.5 26.6 25.5 26.7V26.9C25.5 26.9 25.5 27 25.4 27H23.6C23.6 27 23.5 27 23.5 26.9C23.5 26.8 23.5 26.8 23.5 26.7Z" fill="#010101"></path>
<path d="M28.7002 25.7C28.7002 24.9 29.2002 24.4 30.0002 24.4C30.8002 24.4 31.3002 24.9 31.3002 25.7C31.3002 26.5 30.8002 27 30.0002 27C29.2002 27 28.7002 26.5 28.7002 25.7ZM30.6002 25.7C30.6002 25.2 30.4002 24.9 29.9002 24.9C29.4002 24.9 29.2002 25.3 29.2002 25.8C29.2002 26.3 29.4002 26.6 29.9002 26.6C30.4002 26.6 30.6002 26.2 30.6002 25.8" fill="#010101"></path>
<path d="M34.7998 24.5H35.1998C35.1998 24.5 35.1998 24.5 35.1998 24.6V25.5H36.1998V24.6V24.5H36.5998C36.5998 24.5 36.5998 24.5 36.5998 24.6V26.9V27H36.1998C36.1998 27 36.1998 27 36.1998 26.9V26H35.1998V26.9V27H34.7998C34.7998 27 34.7998 27 34.7998 26.9V24.6V24.5Z" fill="#010101"></path>
<path d="M40.2998 25.7C40.2998 24.9 40.7998 24.4 41.5998 24.4C42.3998 24.4 42.8998 24.9 42.8998 25.7C42.8998 26.5 42.3998 27 41.5998 27C40.7998 27 40.2998 26.5 40.2998 25.7ZM42.2998 25.7C42.2998 25.2 42.0998 24.9 41.5998 24.9C41.0998 24.9 40.8998 25.3 40.8998 25.8C40.8998 26.3 41.0998 26.6 41.5998 26.6C42.0998 26.6 42.2998 26.2 42.2998 25.8" fill="#010101"></path>
<path d="M74.2002 11.5L77.3002 6.79995H74.5002V5.69995H79.2002V6.29995L76.1002 10.9H79.1002V12H74.2002V11.5Z" fill="white"></path>
<path d="M82.1001 7.30005C83.5001 7.30005 84.5001 8.30005 84.5001 9.70005C84.5001 11.1 83.5001 12.1 82.0001 12.1C80.5001 12.1 79.6001 11.1 79.6001 9.70005C79.6001 8.30005 80.6001 7.30005 82.1001 7.30005ZM83.2001 9.70005C83.2001 8.90005 82.9001 8.30005 82.1001 8.30005C81.3001 8.30005 81.0001 9.00005 81.0001 9.70005C81.0001 10.4 81.3001 11.1 82.1001 11.1C82.9001 11.1 83.2001 10.4 83.2001 9.70005Z" fill="white"></path>
<path d="M85.3999 5.30005H86.6999V8.10005C86.9999 7.50005 87.5999 7.30005 88.2999 7.30005C89.3999 7.30005 89.8999 8.10005 89.8999 9.10005V12H88.5999V9.20005C88.5999 8.60005 88.2999 8.30005 87.6999 8.30005C87.0999 8.30005 86.6999 8.70005 86.6999 9.30005V12H85.3999V5.30005Z" fill="white"></path>
<path d="M93.1001 7.30005C94.5001 7.30005 95.5001 8.30005 95.5001 9.70005C95.5001 11.1 94.5001 12.1 93.0001 12.1C91.5001 12.1 90.6001 11.1 90.6001 9.70005C90.6001 8.30005 91.6001 7.30005 93.1001 7.30005ZM94.2001 9.70005C94.2001 8.90005 93.9001 8.30005 93.1001 8.30005C92.3001 8.30005 92.0001 9.00005 92.0001 9.70005C92.0001 10.4 92.3001 11.1 93.1001 11.1C93.9001 11.1 94.2001 10.4 94.2001 9.70005Z" fill="white"></path>
<path d="M75.9001 14.6H76.7001L78.4001 19.6H77.8001L77.3001 18.2H75.2001L74.7001 19.6H74.1001L75.8001 14.6H75.9001ZM77.1001 17.7L76.2001 15.1L75.3001 17.7H77.1001Z" fill="white"></path>
<path d="M81.7002 19C81.5002 19.4 81.1002 19.6 80.6002 19.6C79.7002 19.6 79.2002 19.1 79.2002 18.2V15.9H79.8002V18.2C79.8002 18.8 80.1002 19.1 80.7002 19.1C81.3002 19.1 81.7002 18.7 81.7002 18.1V15.9H82.3002V19.5H81.7002V18.9V19Z" fill="white"></path>
<path d="M85 19.5C84.8 19.5 84.7 19.5 84.5 19.5C83.9 19.5 83.5 19.2 83.5 18.5V16.3H83V15.8H83.5V15.1L84.1 14.9V15.8H84.9V16.3H84.1V18.5C84.1 18.8 84.2 19 84.6 19C85 19 84.9 19 85 19V19.5Z" fill="white"></path>
<path d="M85.7998 14.3H86.3998V16.5C86.5998 16.1 87.0998 15.9 87.5998 15.9C88.4998 15.9 88.9998 16.5 88.9998 17.4V19.6H88.3998V17.4C88.3998 16.8 88.0998 16.4 87.4998 16.4C86.8998 16.4 86.4998 16.8 86.4998 17.4V19.6H85.8998V14.3H85.7998Z" fill="white"></path>
<path d="M89.7998 17.8C89.7998 16.7 90.4998 15.9 91.5998 15.9C92.6998 15.9 93.3998 16.7 93.3998 17.8C93.3998 18.9 92.5998 19.7 91.5998 19.7C90.5998 19.7 89.7998 18.9 89.7998 17.8ZM92.7998 17.7C92.7998 16.9 92.3998 16.3 91.5998 16.3C90.7998 16.3 90.3998 17 90.3998 17.7C90.3998 18.4 90.7998 19.1 91.5998 19.1C92.3998 19.1 92.7998 18.4 92.7998 17.7Z" fill="white"></path>
<path d="M94.2002 15.9H94.8002V16.5C95.1002 16 95.5002 15.8 96.0002 15.8V16.3C95.2002 16.3 94.8002 16.6 94.8002 17.5V19.5H94.2002V15.9Z" fill="white"></path>
<path d="M97.1002 14.5C97.3002 14.5 97.5002 14.7 97.5002 14.9C97.5002 15.1 97.3002 15.3 97.1002 15.3C96.9002 15.3 96.7002 15.1 96.7002 14.9C96.7002 14.7 96.9002 14.5 97.1002 14.5ZM96.8002 15.9H97.4002V19.5H96.8002V15.9Z" fill="white"></path>
<path d="M98.1001 19.3L100.4 16.4H98.3001V15.9H101.1V16.2L99.0001 19.1H101.1V19.6H98.1001V19.3Z" fill="white"></path>
<path d="M104.9 18.7C104.6 19.3 104.1 19.6 103.4 19.6C102.3 19.6 101.6 18.8 101.6 17.7C101.6 16.6 102.3 15.8 103.3 15.8C104.3 15.8 104.9 16.7 104.9 17.8H102.2C102.2 18.5 102.6 19.1 103.4 19.1C104.2 19.1 104.2 18.8 104.4 18.5L104.9 18.7ZM104.3 17.4C104.3 16.8 103.9 16.4 103.3 16.4C102.7 16.4 102.3 16.9 102.2 17.4H104.3Z" fill="white"></path>
<path d="M108.5 18.9C108.2 19.3 107.7 19.6 107.2 19.6C106.1 19.6 105.6 18.8 105.6 17.7C105.6 16.6 106.2 15.8 107.3 15.8C108.4 15.8 108.3 16 108.6 16.4V14.2H109.2V19.5H108.6V18.9H108.5ZM108.5 17.7C108.5 16.9 108.1 16.3 107.3 16.3C106.5 16.3 106.1 17 106.1 17.7C106.1 18.4 106.4 19.1 107.2 19.1C108 19.1 108.4 18.5 108.4 17.7" fill="white"></path>
<path d="M74.5 21.5H76.1C77.1 21.5 77.8 21.9 77.8 23C77.8 24.1 76.6 24.5 75.6 24.5H75.2V26.5H74.6V21.5H74.5ZM76.1 24C76.8 24 77.2 23.7 77.2 23C77.2 22.3 76.8 22 76.1 22H75.1V24H76.1Z" fill="white"></path>
<path d="M80.6999 26C80.3999 26.4 79.9999 26.5 79.5999 26.5C78.9999 26.5 78.3999 26.1 78.3999 25.4C78.3999 24.3 79.7999 24.2999 80.5999 24.2999H80.6999C80.6999 23.6999 80.5999 23.2 79.7999 23.2C78.9999 23.2 78.9999 23.3999 78.8999 23.7999L78.3999 23.6C78.6999 23 79.1999 22.7 79.7999 22.7C80.3999 22.7 81.1999 23.2 81.1999 24V26.4H80.5999V25.9L80.6999 26ZM80.1999 24.7999C79.6999 24.7999 78.8999 24.8 78.8999 25.5C78.8999 26.2 79.1999 26.1 79.5999 26.1C79.9999 26.1 80.6999 25.8 80.6999 25.2V24.7H80.1999V24.7999Z" fill="white"></path>
<path d="M82.2998 22.9H82.8998V23.5C83.1998 23 83.5998 22.8 84.0998 22.8V23.3C83.2998 23.3 82.8998 23.6 82.8998 24.5V26.5H82.2998V22.9Z" fill="white"></path>
<path d="M86.5 26.5C86.3 26.5 86.2 26.5 86 26.5C85.4 26.5 85 26.2 85 25.5V23.3H84.5V22.8H85V22.1L85.6 21.9V22.8H86.4V23.3H85.6V25.5C85.6 25.8 85.7 26 86.1 26C86.5 26 86.4 26 86.5 26V26.5Z" fill="white"></path>
<path d="M87.3999 22.9H87.9999V23.5C88.1999 23 88.6999 22.9 89.1999 22.9C90.0999 22.9 90.4999 23.5 90.4999 24.4V26.6H89.8999V24.4C89.8999 23.8 89.5999 23.4 88.9999 23.4C88.3999 23.4 87.9999 23.8 87.9999 24.4V26.6H87.3999V23V22.9Z" fill="white"></path>
<path d="M94.5998 25.7001C94.2998 26.3001 93.7998 26.6 93.0998 26.6C91.9998 26.6 91.2998 25.8001 91.2998 24.7001C91.2998 23.6001 91.9998 22.8 92.9998 22.8C93.9998 22.8 94.5998 23.7 94.5998 24.8H91.8998C91.8998 25.5 92.2998 26.1 93.0998 26.1C93.8998 26.1 93.8998 25.8 94.0998 25.5L94.5998 25.7001ZM93.9998 24.3C93.9998 23.7 93.5998 23.3 92.9998 23.3C92.3998 23.3 91.9998 23.8 91.8998 24.3H93.9998Z" fill="white"></path>
<path d="M95.5 22.9H96.1V23.5C96.4 23 96.8 22.8 97.3 22.8V23.3C96.5 23.3 96.1 23.6 96.1 24.5V26.5H95.5V22.9Z" fill="white"></path>
</svg>