<svg width="118" height="33" viewBox="0 0 118 33" fill="none" xmlns="http://www.w3.org/2000/svg">
<path d="M66.26 32.47H6.02001C2.77001 32.47 0.140015 29.84 0.140015 26.59V6.02001C0.140015 2.77001 2.77001 0.140015 6.02001 0.140015H66.26V32.46V32.47Z" fill="#F3F3F3"/>
<path d="M111.17 32.47H66.27V0.150024H111.17C114.42 0.150024 117.05 2.78003 117.05 6.03003V26.6C117.05 29.85 114.42 32.48 111.17 32.48" fill="#282828"/>
<path d="M30.54 22.64C30.16 22.64 29.77 22.56 29.4 22.4L21.48 18.87C20.06 18.24 19.42 16.58 20.05 15.16L23.58 7.23997C24.21 5.81997 25.87 5.17997 27.29 5.80997L35.21 9.33996C36.63 9.96996 37.27 11.63 36.64 13.05L33.11 20.97C32.64 22.02 31.61 22.64 30.54 22.64ZM30.06 20.91C30.66 21.17 31.36 20.91 31.62 20.31L35.15 12.39C35.42 11.79 35.15 11.09 34.55 10.83L26.63 7.29997C26.03 7.03997 25.33 7.29997 25.07 7.89997L21.54 15.82C21.28 16.42 21.54 17.12 22.14 17.38L30.06 20.91Z" fill="black"/>
<path d="M55.38 22.64H46.71C45.16 22.64 43.9 21.38 43.9 19.83V11.15C43.9 9.59997 45.16 8.33997 46.71 8.33997H55.38C56.93 8.33997 58.19 9.59997 58.19 11.15V19.82C58.19 21.37 56.93 22.63 55.38 22.63M46.7 9.96997C46.05 9.96997 45.52 10.5 45.52 11.15V19.82C45.52 20.47 46.05 21 46.7 21H55.37C56.02 21 56.55 20.47 56.55 19.82V11.16C56.55 10.51 56.02 9.97997 55.37 9.97997H46.7V9.96997Z" fill="black"/>
<path d="M22.91 12.75L21.74 15.37C21.74 15.37 21.71 15.42 21.7 15.45L22.16 18.26C22.26 18.91 21.82 19.52 21.18 19.62L12.62 21C12.3 21.05 12 20.98 11.74 20.79C11.48 20.61 11.31 20.33 11.26 20.02L9.88001 11.46C9.83001 11.14 9.90001 10.84 10.09 10.58C10.27 10.32 10.55 10.15 10.86 10.1L19.42 8.72001C19.49 8.72001 19.54 8.71001 19.61 8.71001C20.18 8.71001 20.69 9.13001 20.78 9.71001L21.24 12.55L22.44 9.84001L22.38 9.46001C22.13 7.93001 20.68 6.89001 19.16 7.13001L10.6 8.51001C9.86001 8.63001 9.21001 9.03001 8.77001 9.64001C8.33001 10.25 8.15001 10.99 8.28001 11.73L9.66001 20.29C9.78001 21.03 10.18 21.68 10.79 22.12C11.27 22.47 11.84 22.65 12.43 22.65C12.58 22.65 12.73 22.64 12.89 22.61L21.45 21.23C22.98 20.98 24.02 19.54 23.78 18L22.93 12.75H22.91Z" fill="black"/>
<path d="M33.1801 16.84L34.4401 14.03L34.0901 11.41C34.0501 11.09 34.1301 10.79 34.3201 10.53C34.5101 10.28 34.7901 10.12 35.1101 10.07L43.7001 8.90001C43.7501 8.90001 43.8101 8.89001 43.8601 8.89001C44.1201 8.89001 44.3701 8.97001 44.5701 9.13001C44.6101 9.16001 44.6401 9.19001 44.6801 9.23001C45.0601 8.83001 45.5601 8.54001 46.1201 8.42001C45.9601 8.21001 45.7701 8.01001 45.5501 7.85001C44.9501 7.39001 44.2101 7.20001 43.4701 7.30001L34.8801 8.47001C34.1401 8.57001 33.4801 8.95001 33.0201 9.55001C32.5601 10.15 32.3701 10.89 32.4701 11.63L33.1801 16.85V16.84Z" fill="black"/>
<path d="M47.8 18.29L46.67 9.97998C46.04 9.99998 45.52 10.52 45.52 11.16V13.6L46.19 18.51C46.23 18.83 46.15 19.13 45.96 19.39C45.77 19.64 45.49 19.8 45.17 19.85L36.58 21.02C36.26 21.06 35.96 20.98 35.7 20.79C35.45 20.6 35.29 20.32 35.24 20L34.84 17.08L33.58 19.89L33.62 20.21C33.72 20.95 34.1 21.61 34.7 22.07C35.19 22.44 35.79 22.64 36.4 22.64C36.52 22.64 36.66 22.64 36.78 22.61L45.37 21.44C46.11 21.34 46.77 20.96 47.23 20.36C47.69 19.76 47.88 19.02 47.78 18.28" fill="black"/>
<path d="M111.17 32.61H6.02C2.7 32.61 0 29.91 0 26.59V6.02C0 2.7 2.7 0 6.02 0H111.16C114.48 0 117.18 2.7 117.18 6.02V26.59C117.18 29.91 114.48 32.61 111.16 32.61M6.02 0.290001C2.86 0.290001 0.29 2.86 0.29 6.02V26.59C0.29 29.75 2.86 32.32 6.02 32.32H111.16C114.32 32.32 116.89 29.75 116.89 26.59V6.02C116.89 2.86 114.32 0.290001 111.16 0.290001H6.02Z" fill="white"/>
</svg>
