<svg id="Layer_1" data-name="Layer 1" xmlns="http://www.w3.org/2000/svg" viewBox="0 0 1024 1024" fill="#5e35b1"><defs></defs><title>C_logo</title><g class="cls-1"><path class="cls-2" d="M497.27,1023.5a30,30,0,0,1-15-4l-417-240.75a30,30,0,0,1-15-26V271.25a30,30,0,0,1,15-26l417-240.75a30,30,0,0,1,30,0L943.44,253.45a60,60,0,0,1,0,103.92l-88.9,51.36L943.41,460a60,60,0,0,1,0,103.93L854.76,615.1l89,51.36a60,60,0,0,1,0,103.92l-431.45,249.1A30,30,0,0,1,497.27,1023.5Zm-387-288.07,387,223.43L913.72,718.42l-119-68.69-282.48,163a30,30,0,0,1-30,0L184.89,641a30,30,0,0,1,0-52l133.62-77.15L184.89,434.77a30,30,0,0,1,0-52l297.38-171.7a30,30,0,0,1,30,0l282.29,163,118.88-68.68L497.27,65.14l-387,223.43ZM259.89,615,497.28,752.1l237.45-137L616,546.54,512.28,606.46a30,30,0,0,1-30,0L378.51,546.55Zm654,103.29h0ZM676,511.88l118.76,68.58L913.41,512h0L794.57,443.38ZM394.93,486.75l102.34,59.09,103.24-59.65.91-.52,133.16-76.93-237.31-137L259.89,408.79l132.28,76.37A30.32,30.32,0,0,1,394.93,486.75Zm518.61,25.33Zm0-.18Zm0-206.57Z"></path></g></svg>