<svg width="50" height="50" viewBox="0 0 50 50" fill="none" xmlns="http://www.w3.org/2000/svg">
<g clip-path="url(#clip0_1110_3210)">
<path d="M17.5986 50C16.893 50.0019 16.194 49.8639 15.5421 49.5938C14.8902 49.3238 14.2983 48.9271 13.8007 48.4268L1.57319 36.1992C1.07439 35.7005 0.678722 35.1083 0.408771 34.4567C0.13882 33.805 -0.00012207 33.1065 -0.00012207 32.4011C-0.00012207 31.6958 0.13882 30.9973 0.408771 30.3456C0.678722 29.6939 1.07439 29.1018 1.57319 28.603L13.8007 16.3755C14.8088 15.3697 16.1748 14.8048 17.5988 14.8048C19.0229 14.8048 20.3888 15.3697 21.3969 16.3755L25.9921 20.9707C26.1282 21.1068 26.2361 21.2682 26.3097 21.446C26.3833 21.6237 26.4212 21.8142 26.4212 22.0066C26.4212 22.199 26.3833 22.3895 26.3097 22.5672C26.2361 22.745 26.1282 22.9065 25.9921 23.0425C25.8561 23.1785 25.6946 23.2864 25.5169 23.3601C25.3391 23.4337 25.1486 23.4716 24.9563 23.4716C24.7639 23.4716 24.5734 23.4337 24.3956 23.3601C24.2179 23.2864 24.0564 23.1785 23.9204 23.0425L19.3251 18.4473C18.8673 17.9894 18.2463 17.7322 17.5988 17.7322C16.9513 17.7322 16.3304 17.9894 15.8725 18.4473L3.64497 30.6748C3.18713 31.1327 2.92992 31.7536 2.92992 32.4011C2.92992 33.0486 3.18713 33.6696 3.64497 34.1275L15.8725 46.3555C16.3304 46.8133 16.9513 47.0705 17.5988 47.0705C18.2463 47.0705 18.8673 46.8133 19.3251 46.3555L23.9204 41.7603C24.1958 41.4892 24.5672 41.338 24.9536 41.3395C25.34 41.341 25.7102 41.4952 25.9835 41.7684C26.2568 42.0416 26.411 42.4118 26.4126 42.7982C26.4143 43.1846 26.2631 43.5561 25.9921 43.8316L21.3969 48.4268C20.8993 48.9271 20.3073 49.3238 19.6554 49.5939C19.0034 49.8639 18.3043 50.002 17.5986 50Z" fill="#226DB4"/>
<path d="M32.4013 50C31.6956 50.002 30.9965 49.8639 30.3445 49.5939C29.6926 49.3238 29.1006 48.9272 28.603 48.4268L16.3754 36.1992C15.8766 35.7005 15.481 35.1083 15.211 34.4567C14.9411 33.805 14.8021 33.1065 14.8021 32.4011C14.8021 31.6958 14.9411 30.9973 15.211 30.3456C15.481 29.6939 15.8766 29.1018 16.3754 28.603L28.603 16.3755C29.1017 15.8767 29.6939 15.481 30.3455 15.2111C30.9972 14.9411 31.6957 14.8022 32.4011 14.8022C33.1065 14.8022 33.8049 14.9411 34.4566 15.2111C35.1083 15.481 35.7004 15.8767 36.1992 16.3755L48.4267 28.603C48.9255 29.1018 49.3212 29.6939 49.5911 30.3456C49.8611 30.9973 50 31.6958 50 32.4011C50 33.1065 49.8611 33.805 49.5911 34.4567C49.3212 35.1083 48.9255 35.7005 48.4267 36.1992L36.1992 48.4268C35.7016 48.9271 35.1097 49.3238 34.4578 49.5938C33.8059 49.8639 33.1069 50.0019 32.4013 50ZM32.4013 17.7319C32.0805 17.731 31.7627 17.7938 31.4663 17.9166C31.17 18.0393 30.9009 18.2197 30.6748 18.4473L18.4472 30.6748C17.9894 31.1327 17.7322 31.7536 17.7322 32.4011C17.7322 33.0486 17.9894 33.6696 18.4472 34.1275L30.6748 46.3555C31.1326 46.8133 31.7536 47.0705 32.4011 47.0705C33.0486 47.0705 33.6695 46.8133 34.1274 46.3555L46.3554 34.1275C46.8133 33.6696 47.0705 33.0486 47.0705 32.4011C47.0705 31.7536 46.8133 31.1327 46.3554 30.6748L34.1274 18.4473C33.9013 18.2198 33.6323 18.0394 33.3361 17.9166C33.0398 17.7938 32.722 17.7311 32.4013 17.7319Z" fill="#089949"/>
<path d="M25 12.8564C21.4556 12.8564 18.5718 9.97266 18.5718 6.42822C18.5718 2.88379 21.4556 0 25 0C28.5444 0 31.4282 2.88379 31.4282 6.42822C31.4282 9.97266 28.5444 12.8564 25 12.8564ZM25 2.92969C24.3081 2.92969 23.6316 3.13487 23.0563 3.5193C22.481 3.90372 22.0326 4.45012 21.7678 5.08939C21.503 5.72867 21.4337 6.4321 21.5687 7.11075C21.7037 7.7894 22.0369 8.41278 22.5262 8.90206C23.0154 9.39134 23.6388 9.72454 24.3175 9.85953C24.9961 9.99453 25.6996 9.92524 26.3388 9.66045C26.9781 9.39565 27.5245 8.94724 27.9089 8.3719C28.2933 7.79657 28.4985 7.12017 28.4985 6.42822C28.4975 5.50067 28.1286 4.61141 27.4727 3.95553C26.8168 3.29965 25.9276 2.93072 25 2.92969Z" fill="#089949"/>
</g>
<defs>
<clipPath id="clip0_1110_3210">
<rect width="50" height="50" fill="white"/>
</clipPath>
</defs>
</svg>
