<?xml version="1.0" encoding="utf-8"?>

<svg version="1.1" id="Layer_1" xmlns="http://www.w3.org/2000/svg" xmlns:xlink="http://www.w3.org/1999/xlink" x="0px" y="0px" viewBox="0 0 1024 1024" style="enable-background:new 0 0 1024 1024;" xml:space="preserve">

<g class="st0">
&#x9;<path class="st1" d="M899.6,1022h-87.5c-21.4,0-42.1-7.6-58.4-21.5c-16.3-13.9-27.1-33.1-30.5-54.2l-9.7-60.3H310.4l-9.7,60.3&#xA;&#x9;&#x9;c-3.4,21.1-14.2,40.4-30.5,54.2c-16.3,13.9-37,21.5-58.4,21.5h-87.5c-26.4,0-51.4-11.5-68.5-31.6c-17.1-20.1-24.6-46.6-20.4-72.6&#xA;&#x9;&#x9;L73.7,680h-7c-13.5,0-26.3-5.9-35-16.2c-8.8-10.3-12.5-23.8-10.4-37.1l18.2-113.4c3.6-22.4,22.7-38.7,45.4-38.7h21.8l63.7-396.8&#xA;&#x9;&#x9;c3.4-21.1,14.2-40.4,30.5-54.2C217,9.6,237.8,2,259.1,2H816c16.6,0,30,13.4,30,30s-13.4,30-30,30H259.1&#xA;&#x9;&#x9;c-14.8,0-27.3,10.6-29.6,25.2l-67.7,422.1c-2.3,14.5-14.9,25.2-29.6,25.2H96.8L83.1,620h25.8c8.8,0,17.1,3.9,22.8,10.5&#xA;&#x9;&#x9;s8.2,15.5,6.8,24.2L94.8,927.2c-1.4,8.8,1,17.4,6.8,24.2s13.9,10.5,22.8,10.5h87.5c14.8,0,27.3-10.6,29.6-25.2l11.6-72&#xA;&#x9;&#x9;c3.6-22.4,22.7-38.7,45.4-38.7h427.1c22.7,0,41.8,16.3,45.4,38.7l11.6,72c2.3,14.6,14.8,25.2,29.6,25.2h87.5&#xA;&#x9;&#x9;c8.9,0,17-3.7,22.8-10.5c5.8-6.8,8.2-15.4,6.8-24.2l-43.7-272.5c-1.4-8.7,1.1-17.5,6.8-24.2c5.7-6.7,14-10.5,22.8-10.5h25.8&#xA;&#x9;&#x9;l-13.7-85.4h-35.4c-14.7,0-27.3-10.7-29.6-25.2L823.5,268H409.5l-56.5,352h317.8l-23.7-146H512c-16.6,0-30-13.4-30-30&#xA;&#x9;&#x9;s13.4-30,30-30h147.1c22.7,0,41.8,16.3,45.4,38.6l28.2,174c2.2,13.3-1.6,26.9-10.4,37.2c-8.8,10.3-21.5,16.2-35,16.2H336.6&#xA;&#x9;&#x9;c-13.5,0-26.3-5.9-35-16.2c-8.8-10.3-12.5-23.8-10.4-37.1l61-380c3.6-22.4,22.7-38.7,45.4-38.7h437.8c22.7,0,41.8,16.3,45.4,38.7&#xA;&#x9;&#x9;l36.6,227.9h21.8c22.7,0,41.8,16.3,45.4,38.7l18.2,113.4c2.1,13.3-1.7,26.9-10.4,37.1s-21.5,16.2-35,16.2h-7l38.1,237.7&#xA;&#x9;&#x9;c4.2,26.1-3.2,52.5-20.4,72.6S926,1022,899.6,1022z M659.1,474L659.1,474L659.1,474z"></path>
</g>
</svg>