<svg width="49" height="49" viewBox="0 0 49 49" fill="none" xmlns="http://www.w3.org/2000/svg">
<path d="M47.6461 11.875C46.8539 10 45.7079 8.31084 44.2753 6.85814C42.8258 5.40543 41.1404 4.27368 39.2697 3.47976C38.6461 3.20949 38.0056 2.98989 37.3652 2.82098V1.46962C37.3652 0.675705 36.7247 0.0338135 35.9326 0.0338135C35.1404 0.0338135 34.5 0.675705 34.5 1.46962V2.29733C34.0449 2.26354 33.5899 2.22976 33.1348 2.22976H18.691C17.8989 2.22976 17.2584 2.87165 17.2584 3.66557C17.2584 4.45949 17.8989 5.10138 18.691 5.10138H33.1348C33.5899 5.10138 34.0449 5.11827 34.5 5.16895V5.91219C34.5 6.70611 35.1404 7.348 35.9326 7.348C36.7247 7.348 37.3652 6.70611 37.3652 5.91219V5.81084C39.1854 6.43584 40.8539 7.48314 42.2528 8.88516C44.6966 11.3345 46.0281 14.5777 46.0281 18.0237V33.1757C46.0281 36.6217 44.6798 39.8818 42.2528 42.3142C39.809 44.7635 36.573 46.1149 33.118 46.1149H29.6124C28.8202 46.1149 28.1798 46.7568 28.1798 47.5507C28.1798 48.3446 28.8202 48.9865 29.6124 48.9865H33.118C35.2416 48.9865 37.3146 48.5642 39.2528 47.7365C41.1236 46.9426 42.809 45.7939 44.2584 44.3581C45.7079 42.9054 46.8371 41.2162 47.6292 39.3412C48.4551 37.3987 48.8764 35.321 48.8764 33.1926V18.0406C48.8764 15.8953 48.4719 13.8345 47.6461 11.875Z" fill="#226DB4"/>
<path d="M31.5169 33.1757C31.5169 31.0473 31.0955 28.9696 30.2697 27.027C29.4775 25.152 28.3315 23.4628 26.8989 22.0101C25.4663 20.5574 23.764 19.4257 21.8933 18.6318C19.9551 17.8041 17.882 17.3818 15.7584 17.3818C13.6348 17.3818 11.5618 17.8041 9.6236 18.6318C7.75281 19.4257 6.06742 20.5743 4.61798 22.0101C3.97753 22.652 3.38764 23.3615 2.86517 24.0878V18.0236C2.86517 15.0169 3.92697 12.0946 5.83146 9.78041C7.33146 7.95608 9.32022 6.58784 11.5112 5.8277V5.89527C11.5112 6.68919 12.1517 7.33108 12.9438 7.33108C13.736 7.33108 14.3764 6.68919 14.3764 5.89527V3.96959V3.9527V1.43581C14.3764 0.641892 13.736 0 12.9438 0C12.1517 0 11.5112 0.641892 11.5112 1.43581V2.80405C8.44382 3.66554 5.67977 5.47297 3.6236 7.93919C2.47753 9.32432 1.58427 10.8784 0.960674 12.5676C0.320225 14.3243 0 16.1486 0 18.0236V33.1757C0 35.3041 0.421348 37.3818 1.24719 39.3243C2.03933 41.1993 3.18539 42.8885 4.61798 44.3412C6.06742 45.7939 7.75281 46.9257 9.6236 47.7196C11.5618 48.5473 13.6348 48.9696 15.7584 48.9696C15.8427 48.9696 15.9101 48.9696 15.9944 48.9527C18.0337 48.9189 20.0225 48.5135 21.8933 47.7196C23.764 46.9257 25.4494 45.777 26.8989 44.3412C28.3483 42.8885 29.4775 41.1993 30.2697 39.3243C31.0955 37.3818 31.5169 35.3041 31.5169 33.1757ZM24.8764 42.3142C22.4326 44.7635 19.1966 46.098 15.7584 46.098C12.3202 46.098 9.06742 44.7466 6.64045 42.3142C4.19663 39.8649 2.86517 36.6216 2.86517 33.1757C2.86517 29.7297 4.21348 26.4696 6.64045 24.0372C9.06742 21.6047 12.3202 20.2534 15.7584 20.2534C19.1966 20.2534 22.4494 21.6047 24.8764 24.0372C27.3202 26.4865 28.6517 29.7297 28.6517 33.1757C28.6517 36.6216 27.3202 39.8649 24.8764 42.3142Z" fill="#226DB4"/>
<path d="M15.7584 34.6284C15.3708 34.6284 15 34.4764 14.7135 34.1723L10.0786 29.223C9.5393 28.6487 9.57301 27.7365 10.146 27.196C10.7191 26.6554 11.6292 26.6892 12.1685 27.2635L15.8258 31.1655L29.0056 18.8682C29.5786 18.3277 30.4887 18.3615 31.0281 18.9358C31.5674 19.5101 31.5337 20.4223 30.9606 20.9628L16.7359 34.2399C16.4663 34.4932 16.1123 34.6284 15.7584 34.6284Z" fill="#089949"/>
</svg>
