<svg width="50" height="47" viewBox="0 0 50 47" fill="none" xmlns="http://www.w3.org/2000/svg">
<path d="M48.9756 30.6481L44.1899 3.56361C43.8805 1.81024 42.5513 0.445372 40.8044 0.0889526C39.0576 -0.267466 37.3006 0.465642 36.3248 1.9572C35.8902 2.62274 36.0779 3.51125 36.7442 3.94537C37.4105 4.37949 38.3 4.19199 38.7346 3.52645C39.2301 2.76801 40.0029 2.85753 40.2278 2.90314C40.4527 2.94875 41.1985 3.16834 41.3557 4.06193L46.1397 31.1464C46.2412 31.7207 45.9858 32.1278 45.8252 32.3204C45.6645 32.5129 45.306 32.8339 44.7226 32.8339H16.9149C16.1201 32.8339 15.4758 33.4775 15.4758 34.2714C15.4758 35.0653 16.1201 35.7089 16.9149 35.7089H20.62L18.0005 42.9386C17.7959 43.5062 17.2514 43.8862 16.6477 43.8862H15.4775C14.7791 43.8862 14.1838 43.3879 14.0604 42.7004L9.03116 14.3778L31.3497 3.85247C32.0684 3.51463 32.3745 2.65821 32.0363 1.9403C31.6981 1.2224 30.8407 0.916655 30.122 1.25449L2.47325 14.2933C0.71962 15.121 -0.271339 17.0315 0.0651811 18.9403L2.39715 32.1531C2.76073 34.2173 4.54817 35.7156 6.64677 35.7156H9.89868L11.2278 43.2038C11.5948 45.2646 13.3806 46.7613 15.4775 46.7613H16.6477C18.4588 46.7613 20.089 45.6177 20.7062 43.9183L23.6808 35.7106H44.726C46.0044 35.7106 47.2102 35.1498 48.032 34.17C48.8539 33.1886 49.1971 31.9048 48.9756 30.6481ZM6.64677 32.8406C5.94668 32.8406 5.35143 32.3406 5.22967 31.6531L2.8977 18.4403C2.78609 17.8035 3.11585 17.1667 3.70095 16.8913L6.33393 15.6498L9.38798 32.8406H6.64677Z" fill="#E42527"/>
<path d="M23.7789 22.8474C23.1261 22.8474 22.4632 22.6987 21.8426 22.3879L15.217 19.0653C14.5068 18.7089 14.221 17.8457 14.5761 17.1362C14.9329 16.4268 15.7971 16.1413 16.5073 16.496L23.1329 19.8187C23.7873 20.1464 24.5821 19.9318 24.9829 19.3203L36.3248 1.95548C36.7594 1.28994 37.6506 1.10413 38.3152 1.53656C38.9815 1.97068 39.1675 2.86088 38.7346 3.52473L27.3943 20.8879C26.5725 22.1497 25.196 22.8474 23.7789 22.8474Z" fill="#226DB4"/>
<path d="M23.7789 22.8474C23.1261 22.8474 22.4632 22.6987 21.8426 22.3879L15.217 19.0653C14.5068 18.7089 14.221 17.8457 14.5761 17.1362C14.9329 16.4268 15.7971 16.1413 16.5073 16.496L23.1329 19.8187C23.7873 20.1464 24.5821 19.9318 24.9829 19.3203L36.3248 1.95548C36.7594 1.28994 37.6506 1.10413 38.3152 1.53656C38.9815 1.97068 39.1675 2.86088 38.7346 3.52473L27.3943 20.8879C26.5725 22.1497 25.196 22.8474 23.7789 22.8474Z" fill="#226DB4"/>
</svg>
