<?xml version="1.0" encoding="UTF-8"?>
<svg id="Layer_1" data-name="Layer 1" xmlns="http://www.w3.org/2000/svg" viewBox="0 0 1024 1024" fill="#1565c0">
  <defs>
    
  </defs>
  <path class="cls-1" d="M977.71,412.22v-71.11c0-60.44-32.51-116.75-84.85-146.97L596.85,23.24c-52.34-30.22-117.37-30.22-169.7,0L131.14,194.13c-52.34,30.22-84.85,86.53-84.85,146.97v341.8c0,60.44,32.51,116.75,84.85,146.97l296,170.9c26.17,15.11,55.51,22.66,84.85,22.66s58.68-7.55,84.85-22.66l296-170.9c52.34-30.22,84.85-86.53,84.85-146.97v-71.1c0-40.07-18.26-75.96-46.89-99.79,28.63-23.83,46.89-59.72,46.89-99.79ZM917.71,412.22c0,38.48-31.31,69.79-69.79,69.79h-64.94c-64.37,0-124.88-25.07-170.39-70.58-45.52-45.52-70.58-106.03-70.58-170.4,0-2.59-.33-5.11-.95-7.51-3.33-12.94-15.08-22.5-29.06-22.5-16.57,0-30,13.43-30,30,0,64.37-25.07,124.88-70.58,170.4s-106.03,70.58-170.4,70.58c-16.57,0-30,13.43-30,30s13.43,30,30,30c64.37,0,124.88,25.07,170.4,70.58s70.58,106.03,70.58,170.4c0,16.57,13.43,30,30,30,4.66,0,9.07-1.06,13.01-2.96,10.06-4.84,16.99-15.13,16.99-27.04,0-64.37,25.07-124.88,70.58-170.39s106.03-70.58,170.39-70.58h64.94c38.48,0,69.79,31.31,69.79,69.79v71.1c0,39.07-21.02,75.47-54.85,95.01l-296,170.9c-33.83,19.53-75.87,19.53-109.7,0l-296-170.9c-33.83-19.53-54.85-55.94-54.85-95.01v-341.8c0-39.07,21.02-75.47,54.85-95.01L457.15,75.2c16.92-9.77,35.88-14.65,54.85-14.65s37.94,4.88,54.85,14.65l296,170.9c33.83,19.53,54.85,55.94,54.85,95.01v71.11ZM512,651.69c-14.49-29.84-34.01-57.38-58.16-81.53-24.15-24.15-51.68-43.67-81.53-58.16,29.84-14.49,57.38-34.01,81.53-58.16,24.15-24.15,43.67-51.68,58.16-81.53,14.49,29.84,34.01,57.38,58.16,81.53,24.14,24.14,51.65,43.67,81.47,58.15-29.82,14.49-57.34,34.02-81.47,58.16s-43.67,51.68-58.16,81.53Z"></path>
</svg>