<?xml version="1.0" encoding="utf-8"?>

<svg version="1.1" id="Layer_1" xmlns="http://www.w3.org/2000/svg" xmlns:xlink="http://www.w3.org/1999/xlink" x="0px" y="0px" viewBox="0 0 1024 1024" style="enable-background:new 0 0 1024 1024;" xml:space="preserve">

<g>
&#x9;<g>
&#x9;&#x9;<path class="st0" d="M451.61,963.11c-58.74,0-113.97-22.88-155.5-64.41L64.91,667.5C23.38,625.97,0.5,570.74,0.5,512&#xA;&#x9;&#x9;&#x9;c0-58.74,22.88-113.97,64.41-155.5l231.2-231.2c41.54-41.54,96.76-64.41,155.5-64.41c58.74,0,113.97,22.88,155.5,64.41&#xA;&#x9;&#x9;&#x9;l219.33,219.33l27.71-27.71c18.74-18.74,43.64-29.05,70.13-29.05c0.06,0,0.13,0,0.19,0c26.56,0.05,51.5,10.46,70.21,29.31&#xA;&#x9;&#x9;&#x9;c18.57,18.71,28.79,43.52,28.79,69.88c0,26.36-10.23,51.17-28.79,69.88c-18.71,18.85-43.65,29.26-70.21,29.31&#xA;&#x9;&#x9;&#x9;c-0.06,0-0.13,0-0.19,0c-26.49,0-51.39-10.31-70.13-29.05l-27.71-27.71L743.93,512l82.52,82.52l27.78-27.78&#xA;&#x9;&#x9;&#x9;c18.73-18.73,43.63-29.04,70.11-29.04c0.05,0,0.09,0,0.14,0c26.54,0.04,51.46,10.42,70.17,29.24&#xA;&#x9;&#x9;&#x9;c18.58,18.68,28.82,43.48,28.85,69.83c0.02,26.35-10.18,51.16-28.72,69.88l-0.13,0.13c-18.66,18.84-43.6,29.27-70.17,29.33&#xA;&#x9;&#x9;&#x9;c-0.08,0-0.16,0-0.24,0c-26.49,0-51.38-10.31-70.11-29.04l-27.69-27.69L607.11,898.7C565.58,940.24,510.35,963.11,451.61,963.11z&#xA;&#x9;&#x9;&#x9; M451.61,120.89c-42.71,0-82.87,16.63-113.08,46.84l-231.2,231.2C77.13,429.13,60.5,469.29,60.5,512s16.63,82.87,46.84,113.08&#xA;&#x9;&#x9;&#x9;l231.2,231.2c30.2,30.2,70.36,46.84,113.08,46.84c42.71,0,82.87-16.63,113.08-46.84l219.33-219.33l-82.52-82.52L536.44,719.49&#xA;&#x9;&#x9;&#x9;c-22.66,22.66-52.78,35.14-84.82,35.14c-32.04,0-62.17-12.48-84.82-35.14L244.12,596.82c-46.77-46.77-46.77-122.88,0-169.65&#xA;&#x9;&#x9;&#x9;l122.67-122.67c46.77-46.77,122.88-46.77,169.65,0L701.5,469.57l82.52-82.52L564.69,167.73&#xA;&#x9;&#x9;&#x9;C534.48,137.52,494.33,120.89,451.61,120.89z M451.61,329.4c-15.35,0-30.71,5.84-42.4,17.53L286.55,469.6&#xA;&#x9;&#x9;&#x9;c-23.38,23.38-23.38,61.42,0,84.8l122.67,122.67c11.32,11.33,26.38,17.56,42.4,17.56c16.02,0,31.07-6.24,42.4-17.56L659.07,512&#xA;&#x9;&#x9;&#x9;L494.01,346.94C482.32,335.25,466.97,329.4,451.61,329.4z M868.87,636.94l27.69,27.69c7.4,7.4,17.23,11.47,27.69,11.47&#xA;&#x9;&#x9;&#x9;c0.03,0,0.06,0,0.09,0c10.49-0.02,20.34-4.14,27.73-11.6l0.13-0.13c15.04-15.18,15.02-39.94-0.09-55.13&#xA;&#x9;&#x9;&#x9;c-7.39-7.43-17.23-11.53-27.71-11.55c-0.02,0-0.04,0-0.06,0c-10.46,0-20.29,4.07-27.69,11.47L868.87,636.94z M868.87,387.06&#xA;&#x9;&#x9;&#x9;l27.71,27.71c7.42,7.42,17.25,11.51,27.79,11.48c10.5-0.02,20.35-4.13,27.74-11.58c15.11-15.22,15.11-39.99,0-55.22&#xA;&#x9;&#x9;&#x9;c-7.39-7.45-17.25-11.56-27.74-11.58c-0.02,0-0.05,0-0.08,0c-10.47,0-20.31,4.07-27.71,11.48L868.87,387.06z"></path>
&#x9;</g>
</g>
</svg>