<?xml version="1.0" encoding="UTF-8"?>
<svg id="Layer_1" xmlns="http://www.w3.org/2000/svg" xmlns:xlink="http://www.w3.org/1999/xlink" version="1.1" viewBox="0 0 1024 1024">
  
  <defs>
    
  </defs>
  <path class="st1" d="M993.5,379.9c16.6,0,30-13.4,30-30v-161.5c0-67.3-52.7-123.1-120-127L135.2,16.9c-34.9-2-69.5,10.6-94.8,34.5C14.7,75.7.5,108.5.5,143.9v568.9c0,35.1,14,67.8,39.5,92.1,23.9,22.8,54.9,35.1,87.7,35.1s4.3,0,6.4-.2l255.9-12.5-96.6,132.3c-9.8,13.4-6.8,32.1,6.5,41.9,5.3,3.9,11.5,5.8,17.7,5.8,9.3,0,18.4-4.3,24.3-12.3l125.3-171.5,159-7.8,118.5,178.2c5.8,8.7,15.3,13.4,25,13.4s11.5-1.6,16.6-5c13.8-9.2,17.5-27.8,8.4-41.6l-98.7-148.4,206.5-10.1c67.9-3.3,121.1-59.1,121.1-127v-144.9c0-16.6-13.4-30-30-30s-30,13.4-30,30v144.9c0,35.9-28.1,65.4-64.1,67.1l-259,12.7h-.3l-508.9,24.9c-18.6.9-36.3-5.7-49.8-18.5-13.4-12.8-20.8-30.1-20.8-48.6V143.9c0-18.7,7.5-36,21.1-48.8,13.6-12.9,31.5-19.4,50.2-18.3l768,44.5c35.6,2.1,63.5,31.5,63.5,67.1v161.6c0,16.5,13.4,29.9,30,29.9Z"></path>
  <g>
    <path class="st0" d="M769.6,379.9h-511c-16.6,0-30-13.4-30-30s13.4-30,30-30h511c16.6,0,30,13.4,30,30s-13.5,30-30,30Z"></path>
    <path class="st1" d="M769.6,379.9h-511c-16.6,0-30-13.4-30-30s13.4-30,30-30h511c16.6,0,30,13.4,30,30s-13.5,30-30,30Z"></path>
  </g>
  <g>
    <path class="st0" d="M359.7,560.8h-101.1c-16.6,0-30-13.4-30-30s13.4-30,30-30h101.1c16.6,0,30,13.4,30,30s-13.4,30-30,30Z"></path>
    <path class="st1" d="M359.7,560.8h-101.1c-16.6,0-30-13.4-30-30s13.4-30,30-30h101.1c16.6,0,30,13.4,30,30s-13.4,30-30,30Z"></path>
  </g>
  <g>
    <path class="st0" d="M649.4,560.8h-169.8c-16.6,0-30-13.4-30-30s13.4-30,30-30h169.8c16.6,0,30,13.4,30,30s-13.5,30-30,30Z"></path>
    <path class="st1" d="M649.4,560.8h-169.8c-16.6,0-30-13.4-30-30s13.4-30,30-30h169.8c16.6,0,30,13.4,30,30s-13.5,30-30,30Z"></path>
  </g>
</svg>