<svg xmlns="http://www.w3.org/2000/svg" viewBox="0 0 1024 1024"><path d="M512 771.92a30 30 0 0 0-30 30v160.53a451.33 451.33 0 0 1-324.78-729.82A452.47 452.47 0 0 1 346 91.92a50 50 0 1 0-19.5-56.81 511.77 511.77 0 0 0-13.59 948.1A508.34 508.34 0 0 0 512 1023.42a30 30 0 0 0 30-30v-191.5a30 30 0 0 0-30-30zm471.29-459.11A511.1 511.1 0 0 0 512 .42a30 30 0 0 0-30 30v191.5a30 30 0 0 0 60 0V61.39a451.32 451.32 0 0 1 324.6 730 452.37 452.37 0 0 1-189 140.64 50 50 0 0 0-78 41.4 50.27 50.27 0 0 0 1 9.95l.55 2.72a32.25 32.25 0 0 0 1.18 3.6 50 50 0 0 0 94.85-.87 512 512 0 0 0 286.11-676.02z" fill="#226db4"></path><path d="M512 831.92a320 320 0 1 1 226.27-93.73A317.89 317.89 0 0 1 512 831.92zm0-580a260 260 0 1 0 183.85 76.15A258.33 258.33 0 0 0 512 251.92zm0 410.45a150.07 150.07 0 0 1-106.43-44A30.01 30.01 0 0 1 448 575.92a90.63 90.63 0 0 0 128 0 30 30 0 1 1 42.42 42.42A150.07 150.07 0 0 1 512 662.37z" fill="#e42527"></path></svg>