<svg width="50" height="50" viewBox="0 0 50 50" fill="none" xmlns="http://www.w3.org/2000/svg">
<g clip-path="url(#clip0_1110_3196)">
<path d="M6.83591 33.4766C6.33787 33.4766 5.84959 33.2227 5.57615 32.7588C3.71091 29.624 2.749 26.0303 2.79294 22.3633C2.80271 21.5625 3.45701 20.918 4.25779 20.918C4.26267 20.918 4.27244 20.918 4.27732 20.918C5.08787 20.9277 5.7324 21.5918 5.72263 22.4023C5.68357 25.5273 6.50388 28.5889 8.0908 31.2598C8.50584 31.9531 8.27634 32.8516 7.58298 33.2666C7.34861 33.4131 7.08982 33.4766 6.83591 33.4766Z" fill="#226DB4"/>
<path d="M32.0264 8.30566C31.7724 8.30566 31.5137 8.2373 31.2793 8.10058C28.6084 6.5039 25.5371 5.68359 22.4072 5.72265C22.4023 5.72265 22.3926 5.72265 22.3877 5.72265C21.5869 5.72265 20.9326 5.07812 20.9228 4.27734C20.9131 3.46679 21.5576 2.80273 22.3682 2.79296C26.04 2.74413 29.6435 3.71093 32.7783 5.58105C33.4717 5.99609 33.7012 6.89452 33.2861 7.58788C33.0127 8.05175 32.5244 8.30566 32.0264 8.30566Z" fill="#226DB4"/>
<path d="M31.6016 40.1172C31.0889 40.1172 30.5908 39.8486 30.3223 39.3701C29.9268 38.6621 30.1758 37.7734 30.8838 37.3779C32.2315 36.6211 33.4717 35.6787 34.5752 34.5801C35.6787 33.4765 36.6162 32.2363 37.3731 30.8935C37.7686 30.1904 38.6621 29.9365 39.3653 30.332C40.0684 30.7275 40.3223 31.6211 39.9268 32.3242C39.043 33.9013 37.9395 35.3564 36.6455 36.6504C35.3516 37.9443 33.8965 39.0478 32.3145 39.9365C32.0899 40.0586 31.8457 40.1172 31.6016 40.1172Z" fill="#226DB4"/>
<path d="M40.3613 27.4756C37.9004 27.4756 35.4395 26.5381 33.5693 24.668C31.7529 22.8516 30.7568 20.4395 30.7568 17.876C30.7568 15.3076 31.7578 12.8955 33.5693 11.084C37.3145 7.33887 43.4131 7.33887 47.1582 11.084C48.9746 12.9004 49.9707 15.3125 49.9707 17.876C49.9707 20.4443 48.9697 22.8564 47.1582 24.668C45.2832 26.5381 42.8223 27.4756 40.3613 27.4756ZM40.3613 11.1963C38.6523 11.1963 36.9385 11.8457 35.6396 13.1494C34.3799 14.4092 33.6816 16.0889 33.6816 17.8711C33.6816 19.6533 34.375 21.333 35.6396 22.5928C38.2422 25.1953 42.4805 25.1953 45.083 22.5928C46.3428 21.333 47.041 19.6533 47.041 17.8711C47.041 16.0889 46.3477 14.4092 45.083 13.1494C43.7842 11.8457 42.0752 11.1963 40.3613 11.1963Z" fill="#F9B21D"/>
<path d="M9.63867 19.248C7.07031 19.248 4.6582 18.2471 2.84668 16.4355C-0.898437 12.6904 -0.898437 6.5918 2.84668 2.84668C6.5918 -0.898437 12.6904 -0.898437 16.4355 2.84668C18.252 4.66309 19.248 7.07519 19.248 9.63867C19.248 12.207 18.2471 14.6191 16.4355 16.4307C14.6191 18.2471 12.2021 19.248 9.63867 19.248ZM9.63867 2.96387C7.92969 2.96387 6.21582 3.61328 4.91699 4.91699C2.31445 7.51953 2.31445 11.7578 4.91699 14.3604C6.17676 15.6201 7.85644 16.3184 9.63867 16.3184C11.4209 16.3184 13.1006 15.625 14.3604 14.3604C15.6201 13.1006 16.3184 11.4209 16.3184 9.63867C16.3184 7.85644 15.625 6.17676 14.3604 4.91699C13.0566 3.61328 11.3477 2.96387 9.63867 2.96387Z" fill="#226DB4"/>
<path d="M17.8711 49.9707C15.3027 49.9707 12.8906 48.9697 11.0791 47.1582C7.33398 43.4131 7.33398 37.3145 11.0791 33.5693C12.8955 31.7529 15.3076 30.7568 17.8711 30.7568C20.4395 30.7568 22.8516 31.7578 24.6631 33.5693C28.4082 37.3145 28.4082 43.4131 24.6631 47.1582C22.8516 48.9697 20.4346 49.9707 17.8711 49.9707ZM17.8711 33.6816C16.0889 33.6816 14.4092 34.375 13.1494 35.6396C10.5469 38.2422 10.5469 42.4805 13.1494 45.083C14.4092 46.3428 16.0889 47.041 17.8711 47.041C19.6533 47.041 21.333 46.3477 22.5928 45.083C25.1953 42.4805 25.1953 38.2422 22.5928 35.6396C21.333 34.3799 19.6533 33.6816 17.8711 33.6816Z" fill="#E42527"/>
</g>
<defs>
<clipPath id="clip0_1110_3196">
<rect width="50" height="50" fill="white"/>
</clipPath>
</defs>
</svg>
