<?xml version="1.0" encoding="utf-8"?>

<svg version="1.1" id="Layer_1" xmlns="http://www.w3.org/2000/svg" xmlns:xlink="http://www.w3.org/1999/xlink" x="0px" y="0px" width="44px" height="44px" viewBox="0 0 44 44" style="enable-background:new 0 0 44 44;" xml:space="preserve">

<path class="st0" d="M40.729,11.621c-0.008-0.257-0.143-0.552-0.421-0.708L22.42,0.586c-0.261-0.152-0.581-0.152-0.842,0&#xA;&#x9;L3.686,10.913c-0.227,0.135-0.425,0.4-0.421,0.729V32.3c0,0.303,0.16,0.581,0.421,0.729l17.892,10.332&#xA;&#x9;c0.215,0.122,0.539,0.173,0.842,0l17.892-10.327c0.261-0.152,0.421-0.43,0.421-0.729V11.646&#xA;&#x9;C40.733,11.637,40.729,11.629,40.729,11.621z M27.26,24.029c-0.008-0.004-0.013-0.008-0.021-0.008&#xA;&#x9;c-0.013-0.008-0.029-0.017-0.042-0.021c-0.013-0.004-0.025-0.008-0.038-0.017c-0.013-0.004-0.025-0.008-0.038-0.013&#xA;&#x9;c-0.013-0.004-0.029-0.008-0.042-0.013c-0.013-0.004-0.021-0.008-0.034-0.008c-0.017-0.004-0.029-0.008-0.046-0.008&#xA;&#x9;c-0.013,0-0.021-0.004-0.034-0.004c-0.017,0-0.029-0.004-0.046-0.004c-0.013,0-0.025,0-0.038-0.004c-0.013,0-0.029,0-0.042,0&#xA;&#x9;c-0.013,0-0.029,0-0.042,0c-0.013,0-0.025,0-0.034,0.004c-0.017,0-0.034,0.004-0.046,0.004c-0.008,0-0.021,0.004-0.034,0.004&#xA;&#x9;c-0.017,0.004-0.034,0.008-0.046,0.008c-0.013,0.004-0.021,0.004-0.034,0.008c-0.013,0.004-0.029,0.008-0.042,0.013&#xA;&#x9;s-0.025,0.008-0.038,0.013c-0.013,0.004-0.025,0.008-0.038,0.017c-0.013,0.008-0.029,0.013-0.042,0.021&#xA;&#x9;c-0.008,0.004-0.013,0.008-0.021,0.008l-7.038,4.052l0,0l0,0c-0.708,0.413-1.487,0.396-2.384-0.055&#xA;&#x9;c-0.211-0.105-0.4-0.223-0.569-0.337l6.057-5.02l16.565-9.557V30.81L27.26,24.029z M21.999,2.287l16.211,9.359l-9.076,5.239&#xA;&#x9;c-0.042-0.038-0.093-0.076-0.143-0.105l-6.57-3.799c-0.261-0.152-0.581-0.152-0.842,0l-6.655,3.841&#xA;&#x9;c-0.021,0.013-0.038,0.025-0.059,0.038l-9.072-5.214L21.999,2.287z M4.95,13.103l13.625,7.834c0.131,0.076,0.278,0.114,0.421,0.114&#xA;&#x9;c0.291,0,0.577-0.152,0.733-0.421c0.232-0.404,0.093-0.918-0.312-1.15l-2.864-1.647l5.446-3.15l5.471,3.163l-5.892,3.399&#xA;&#x9;c-0.042,0.025-0.08,0.051-0.118,0.08l-6.886,5.711c-0.008,0.004-0.013,0.013-0.021,0.017c-0.008,0.004-0.013,0.013-0.021,0.017&#xA;&#x9;c-0.004,0.004-0.008,0.008-0.008,0.013c-0.013,0.008-0.021,0.021-0.034,0.034c-0.008,0.008-0.017,0.021-0.025,0.029&#xA;&#x9;c-0.008,0.013-0.021,0.025-0.029,0.034c-0.008,0.008-0.017,0.021-0.021,0.034c-0.008,0.013-0.017,0.025-0.021,0.038&#xA;&#x9;c-0.008,0.013-0.013,0.021-0.021,0.034c-0.004,0.013-0.013,0.025-0.017,0.038c-0.004,0.013-0.013,0.025-0.017,0.038&#xA;&#x9;c-0.004,0.013-0.008,0.025-0.013,0.038c-0.004,0.013-0.008,0.025-0.013,0.042c-0.004,0.013-0.008,0.025-0.008,0.038&#xA;&#x9;c-0.004,0.013-0.008,0.029-0.008,0.042c-0.004,0.013-0.004,0.025-0.008,0.038c0,0.013-0.004,0.029-0.004,0.042s0,0.025-0.004,0.042&#xA;&#x9;c0,0.013,0,0.025,0,0.042c0,0.013,0,0.029,0,0.042c0,0.013,0,0.025,0,0.038c0,0.013,0.004,0.029,0.004,0.042&#xA;&#x9;s0.004,0.025,0.004,0.038c0.004,0.013,0.004,0.029,0.008,0.042c0.004,0.013,0.004,0.025,0.008,0.038&#xA;&#x9;c0.004,0.013,0.008,0.025,0.013,0.038c0.004,0.013,0.008,0.025,0.013,0.038c0.004,0.013,0.008,0.025,0.017,0.038&#xA;&#x9;c0.004,0.013,0.013,0.025,0.017,0.038c0.004,0.013,0.013,0.021,0.021,0.034c0.008,0.013,0.017,0.025,0.025,0.038&#xA;&#x9;c0.008,0.013,0.017,0.021,0.021,0.034c0.008,0.013,0.017,0.025,0.029,0.038c0.004,0.004,0.004,0.008,0.008,0.013&#xA;&#x9;c0.013,0.013,0.021,0.025,0.034,0.038l0,0c0.029,0.029,0.699,0.733,1.693,1.242c0.72,0.371,1.432,0.552,2.119,0.552&#xA;&#x9;c0.665,0,1.31-0.173,1.908-0.522l0,0l6.621-3.812l11.393,6.558l-4.317,2.489c-0.025-0.021-7.337-4.25-7.337-4.25&#xA;&#x9;c-0.404-0.232-0.918-0.097-1.15,0.307c-0.232,0.404-0.097,0.918,0.307,1.15l6.503,3.761l-4.258,2.46&#xA;&#x9;c-0.017-0.008-7.409-4.258-7.409-4.258c-0.404-0.232-0.918-0.093-1.15,0.312c-0.232,0.404-0.093,0.918,0.312,1.15l6.562,3.77&#xA;&#x9;l-4.3,2.481L4.95,31.816V13.103z"></path>
</svg>