<?xml version="1.0" encoding="UTF-8"?>
<svg id="Layer_1" xmlns="http://www.w3.org/2000/svg" version="1.1" viewBox="0 0 1024 1024">
  
  <defs>
    
  </defs>
  <path class="st3" d="M30.5,1023.5c-6.8,0-13.6-2.3-19.2-7-12.7-10.6-14.3-29.5-3.7-42.2l290.9-346.7c11.4-13.6,28.2-21.4,45.9-21.4s34.5,7.8,45.9,21.4l97.1,115.8s0,0,0,0l173.3-206.6c10.6-12.7,29.5-14.3,42.2-3.7,12.7,10.6,14.3,29.5,3.7,42.2l-173.4,206.6c-11.4,13.6-28.2,21.4-45.9,21.4s-34.5-7.8-45.9-21.4l-97.1-115.8s0,0,0,0L53.5,1012.8c-5.9,7.1-14.4,10.7-23,10.7Z"></path>
  <path class="st1" d="M30.5,1023.5c-16.6,0-30-13.4-30-30V414.2c0-66.2,53.8-120,120-120h470.9c16.6,0,30,13.4,30,30s-13.4,30-30,30H120.5c-33.1,0-60,26.9-60,60v579.3c0,16.6-13.4,30-30,30Z"></path>
  <path class="st2" d="M838.7,250.3c-68.9,0-124.9-56-124.9-124.9S769.8.5,838.7.5s124.9,56,124.9,124.9-56,124.9-124.9,124.9ZM838.7,60.5c-35.8,0-64.9,29.1-64.9,64.9s29.1,64.9,64.9,64.9,64.9-29.1,64.9-64.9-29.1-64.9-64.9-64.9Z"></path>
  <path class="st2" d="M993.5,726.6c-16.6,0-30-13.4-30-30v-282.4c0-33.1-26.9-60-60-60h-129.7c-33.1,0-60,26.9-60,60v19.9c0,16.6-13.4,30-30,30s-30-13.4-30-30v-19.9c0-66.2,53.8-120,120-120h129.7c66.2,0,120,53.8,120,120v282.4c0,16.6-13.4,30-30,30Z"></path>
  <path class="st0" d="M903.5,1023.5H170.5c-16.6,0-30-13.4-30-30s13.4-30,30-30h733c33.1,0,60-26.9,60-60v-206.9c0-16.6,13.4-30,30-30s30,13.4,30,30v206.9c0,66.2-53.8,120-120,120Z"></path>
</svg>