<?xml version="1.0" encoding="utf-8"?>

<svg version="1.1" id="Layer_1" xmlns="http://www.w3.org/2000/svg" xmlns:xlink="http://www.w3.org/1999/xlink" x="0px" y="0px" viewBox="0 0 1024 1024" style="enable-background:new 0 0 1024 1024;" xml:space="preserve">

<path class="st0" d="M904.24,303.54h-30.5c-16.57,0-30,13.43-30,30s13.43,30,30,30h30.5c33.08,0,60,26.92,60,60v360&#xA;&#x9;c0,33.08-26.92,60-60,60h-61c-33.08,0-60-26.92-60-60v-664c0-66.17-53.83-120-120-120h-61c-52.27,0-96.83,33.6-113.25,80.33&#xA;&#x9;c-19.1-12.83-42.06-20.33-66.75-20.33h-61c-66.17,0-120,53.83-120,120v544c0,33.08-26.92,60-60,60h-61c-33.08,0-60-26.92-60-60v-300&#xA;&#x9;c0-33.08,26.92-60,60-60h31.21c16.57,0,30-13.43,30-30s-13.43-30-30-30h-31.21c-66.17,0-120,53.83-120,120v300&#xA;&#x9;c0,66.17,53.83,120,120,120h61c66.17,0,120-53.83,120-120v-544c0-33.08,26.92-60,60-60h61c33.08,0,60,26.92,60,60l0,724&#xA;&#x9;c0,33.08-26.92,60-60,60h-61c-33.08,0-60-26.92-60-60c0-16.57-13.43-30-30-30s-30,13.43-30,30c0,66.17,53.83,120,120,120h61&#xA;&#x9;c66.17,0,120-53.83,120-120v-784c0-33.08,26.92-60,60-60h61c33.08,0,60,26.92,60,60v664c0,66.17,53.83,120,120,120h61&#xA;&#x9;c66.17,0,120-53.83,120-120v-360C1024.24,357.37,970.41,303.54,904.24,303.54z"></path>
</svg>