<svg width="49" height="43" viewBox="0 0 49 43" fill="none" xmlns="http://www.w3.org/2000/svg">
<path d="M3.84908 36.1149C3.34262 36.1149 2.83616 36.0135 2.36347 35.8108C1.68819 35.5236 1.09732 35.0676 0.692159 34.4764C0.236347 33.8345 0 33.0743 0 32.2804V7.88851C0 7.09459 0.236347 6.31757 0.692159 5.69257C1.11421 5.10135 1.68819 4.64527 2.36347 4.35811C3.03875 4.07095 3.78155 3.98649 4.49059 4.12162C5.26716 4.25676 5.95932 4.62838 6.5333 5.18581L16.3586 15.0169C16.9157 15.5743 16.9157 16.4865 16.3586 17.0439C15.8015 17.6014 14.8899 17.6014 14.3327 17.0439L4.50747 7.19595C4.10231 6.79054 3.64649 6.90878 3.46079 6.99324C3.27509 7.06081 2.86993 7.2973 2.86993 7.87162V32.2804C2.86993 32.8547 3.27509 33.0912 3.46079 33.1588C3.64649 33.2264 4.10231 33.3615 4.50747 32.9561L36.3299 1.11486C37.8155 -0.371622 40.2465 -0.371622 41.7321 1.11486L42.4749 1.85811C43.032 2.41554 43.032 3.3277 42.4749 3.88513C41.9178 4.44257 41.0062 4.44257 40.4491 3.88513L39.7063 3.14189C39.3349 2.77027 38.7271 2.77027 38.3557 3.14189L6.5333 34.9831C5.95932 35.5574 5.26716 35.9291 4.49059 36.0473C4.27113 36.098 4.06854 36.1149 3.84908 36.1149Z" fill="#226DB4"/>
<path d="M9.92668 42.1959C8.94753 42.1959 7.96838 41.8243 7.22557 41.0811L6.48277 40.3378C5.92567 39.7804 5.92567 38.8682 6.48277 38.3108C7.03987 37.7534 7.9515 37.7534 8.5086 38.3108L9.2514 39.054C9.62281 39.4257 10.2306 39.4257 10.602 39.054L42.4244 7.19594C42.9984 6.62161 43.6905 6.24999 44.4671 6.13175C45.1761 6.01351 45.9189 6.09796 46.5942 6.36823C47.2695 6.6554 47.8604 7.11148 48.2655 7.70269C48.7213 8.34459 48.9577 9.10472 48.9577 9.89864V34.3074C48.9577 35.1013 48.7213 35.8784 48.2655 36.5034C47.8435 37.0946 47.2695 37.5507 46.5942 37.8378C45.9189 38.125 45.1761 38.2095 44.4671 38.0743C43.6905 37.9392 42.9984 37.5676 42.4244 37.0101L32.5822 27.179C32.0251 26.6216 32.0251 25.7095 32.5822 25.152C33.1393 24.5946 34.0509 24.5946 34.608 25.152L44.4502 35C44.8554 35.4054 45.3112 35.2872 45.4969 35.2027C45.6826 35.1351 46.0878 34.8986 46.0878 34.3243V9.91553C46.0878 9.34121 45.6826 9.10472 45.4969 9.03715C45.3112 8.96959 44.8554 8.83445 44.4502 9.23986L12.6278 41.0811C11.885 41.8243 10.9058 42.1959 9.92668 42.1959Z" fill="#226DB4"/>
</svg>
