<?xml version="1.0" encoding="utf-8"?>

<svg version="1.1" id="Layer_1" xmlns="http://www.w3.org/2000/svg" xmlns:xlink="http://www.w3.org/1999/xlink" x="0px" y="0px" viewBox="0 0 1024 1024" style="enable-background:new 0 0 1024 1024;" xml:space="preserve">

<g class="st0">
&#x9;<path class="st1" d="M80.7,825.73c-10.52,0-21.02-2.09-30.94-6.19c-14.18-5.88-26.29-15.52-35-27.88&#xA;&#x9;&#x9;C5.35,778.3,0.37,762.38,0.37,745.62v-509.7c0-16.76,4.97-32.67,14.38-46.03c8.71-12.37,20.82-22.01,35-27.88&#xA;&#x9;&#x9;c14.18-5.88,29.56-7.62,44.47-5.03c16.1,2.79,30.87,10.53,42.72,22.37l205.27,205.27c11.72,11.72,11.72,30.71,0,42.43&#xA;&#x9;&#x9;c-11.72,11.72-30.71,11.72-42.43,0L94.52,221.78c-8.53-8.53-18.08-5.87-21.8-4.34c-3.71,1.54-12.35,6.42-12.35,18.48v509.7&#xA;&#x9;&#x9;c0,12.06,8.63,16.94,12.35,18.48c3.71,1.54,13.27,4.19,21.8-4.34L759.6,94.68c31.14-31.14,81.85-31.18,113.04-0.1l15.57,15.51&#xA;&#x9;&#x9;c11.74,11.7,11.77,30.69,0.07,42.43c-11.7,11.74-30.69,11.77-42.43,0.07l-15.57-15.51c-7.8-7.77-20.47-7.76-28.26,0.02&#xA;&#x9;&#x9;L136.94,802.19c-11.85,11.85-26.62,19.59-42.72,22.38C89.74,825.34,85.22,825.73,80.7,825.73z"></path>
</g>
<g class="st0">
&#x9;<path class="st1" d="M207.8,952.7c-20.45,0-40.89-7.76-56.47-23.29l-15.42-15.36c-11.74-11.7-11.77-30.69-0.07-42.43&#xA;&#x9;&#x9;c11.7-11.74,30.69-11.77,42.43-0.07l15.42,15.36c7.8,7.77,20.48,7.76,28.26-0.02l665.11-665.11&#xA;&#x9;&#x9;c11.85-11.85,26.62-19.59,42.72-22.37c14.91-2.58,30.28-0.84,44.47,5.03c14.18,5.88,26.29,15.52,35,27.88&#xA;&#x9;&#x9;c9.41,13.35,14.38,29.27,14.38,46.03v509.7c0,16.76-4.97,32.67-14.38,46.03c-8.71,12.37-20.82,22.01-35,27.88&#xA;&#x9;&#x9;s-29.56,7.61-44.47,5.03c-16.1-2.79-30.87-10.53-42.72-22.38L681.31,638.87c-11.72-11.72-11.72-30.71,0-42.43&#xA;&#x9;&#x9;c11.71-11.72,30.71-11.72,42.43,0l205.75,205.75c8.53,8.53,18.08,5.87,21.8,4.33c3.71-1.54,12.35-6.42,12.35-18.48v-509.7&#xA;&#x9;&#x9;c0-12.06-8.63-16.94-12.35-18.48c-3.71-1.54-13.27-4.19-21.79,4.34L264.37,929.32C248.79,944.91,228.3,952.7,207.8,952.7z"></path>
</g>
</svg>