<svg width="49" height="44" viewBox="0 0 49 44" fill="none" xmlns="http://www.w3.org/2000/svg">
<path d="M27.4747 33.3716H27.166C26.3758 33.3716 25.74 32.7297 25.74 31.9358C25.74 31.1402 26.3775 30.5 27.166 30.5H27.4747C30.3619 30.5 32.7055 28.1402 32.7055 25.2331V18.0507C32.7055 15.1486 30.3619 12.7838 27.4747 12.7838H27.166C26.3758 12.7838 25.74 12.1419 25.74 11.348C25.74 10.5524 26.3775 9.91216 27.166 9.91216H27.4747C31.9305 9.91216 35.5592 13.5659 35.5592 18.0524V25.2348C35.5592 29.7179 31.9355 33.3716 27.4747 33.3716Z" fill="#089949"/>
<path d="M27.4747 33.3716H27.166C26.3758 33.3716 25.74 32.7297 25.74 31.9358C25.74 31.1402 26.3775 30.5 27.166 30.5H27.4747C30.3619 30.5 32.7055 28.1402 32.7055 25.2331V18.0507C32.7055 15.1486 30.3619 12.7838 27.4747 12.7838H27.166C26.3758 12.7838 25.74 12.1419 25.74 11.348C25.74 10.5524 26.3775 9.91216 27.166 9.91216H27.4747C31.9305 9.91216 35.5592 13.5659 35.5592 18.0524V25.2348C35.5592 29.7179 31.9355 33.3716 27.4747 33.3716Z" fill="#089949"/>
<path d="M21.4637 33.3716H15.2111C14.421 33.3716 13.7852 32.7297 13.7852 31.9358V11.3463C13.7852 10.5507 14.4227 9.91047 15.2111 9.91047H21.4637C22.2538 9.91047 22.8897 10.5524 22.8897 11.3463C22.8897 12.1419 22.2522 12.7821 21.4637 12.7821H16.6371V30.4983H21.4637C22.2538 30.4983 22.8897 31.1402 22.8897 31.9341C22.8897 32.7297 22.2538 33.3716 21.4637 33.3716Z" fill="#089949"/>
<path d="M21.4637 33.3716H15.2111C14.421 33.3716 13.7852 32.7297 13.7852 31.9358V11.3463C13.7852 10.5507 14.4227 9.91047 15.2111 9.91047H21.4637C22.2538 9.91047 22.8897 10.5524 22.8897 11.3463C22.8897 12.1419 22.2522 12.7821 21.4637 12.7821H16.6371V30.4983H21.4637C22.2538 30.4983 22.8897 31.1402 22.8897 31.9341C22.8897 32.7297 22.2538 33.3716 21.4637 33.3716Z" fill="#089949"/>
<path d="M47.2288 20.2044C45.6837 20.2044 44.4238 18.9358 44.4238 17.3801V9.57601C44.4238 4.29561 40.1576 0 34.9133 0H27.1677C26.3775 0 25.7417 0.641892 25.7417 1.43581C25.7417 2.22973 26.3792 2.87162 27.1677 2.87162H34.9133C38.584 2.87162 41.5702 5.87838 41.5702 9.57432V17.3784C41.5702 19.0693 42.3033 20.5861 43.4676 21.6301C42.2932 22.674 41.5467 24.2061 41.5467 25.9054V33.7095C41.5467 37.4054 38.5605 40.4122 34.8898 40.4122H27.1677C26.3775 40.4122 25.7417 41.054 25.7417 41.848C25.7417 42.6436 26.3792 43.2838 27.1677 43.2838H34.8848C40.1291 43.2838 44.3953 38.9882 44.3953 33.7078V25.8986C44.3953 24.3429 45.6552 23.0743 47.2003 23.0743H47.2238C48.0139 23.0743 48.6498 22.4324 48.6498 21.6385C48.6498 20.8463 48.0173 20.2044 47.2288 20.2044Z" fill="#226DB4"/>
<path d="M21.4821 40.4107H13.7415C10.0708 40.4107 7.08464 37.4039 7.08464 33.708V25.9039C7.08464 24.213 6.35151 22.6961 5.18724 21.6522C6.36158 20.6083 7.10812 19.0762 7.10812 17.3769V9.57621C7.10812 5.88026 10.0943 2.8735 13.765 2.8735H21.4636C22.2538 2.8735 22.8896 2.23161 22.8896 1.43769C22.8896 0.643773 22.2521 0.00188065 21.4636 0.00188065H13.765C8.52069 0.00188065 4.25447 4.29749 4.25447 9.57789V17.3819C4.25447 18.9377 2.99457 20.2063 1.44947 20.2063H1.42599C0.635822 20.2063 0 20.8482 0 21.6421C0 22.436 0.6375 23.0779 1.42599 23.0779C2.97109 23.0779 4.23099 24.3465 4.23099 25.9022V33.7063C4.23099 38.9867 8.4972 43.2823 13.7415 43.2823H21.4837C22.2739 43.2823 22.9097 42.6404 22.9097 41.8465C22.9097 41.0526 22.2722 40.4107 21.4821 40.4107Z" fill="#226DB4"/>
</svg>
