<svg width="40" height="49" viewBox="0 0 40 49" fill="none" xmlns="http://www.w3.org/2000/svg">
<path d="M1.4415 48.9696C1.17015 48.9696 0.881847 48.8851 0.64442 48.7331C0.169566 48.4291 -0.067861 47.8716 0.0169343 47.3142L4.13799 22.0946C4.35846 20.7432 5.05378 19.527 6.08828 18.6487C7.12278 17.7703 8.46255 17.2804 9.81927 17.2804H26.7953L27.745 11.4865H26.1509C25.4386 11.4865 24.7772 11.1824 24.3193 10.6419C23.8614 10.1014 23.6579 9.40879 23.7766 8.71622L24.862 2.01014C25.0485 0.844595 26.0491 0 27.2362 0H33.562C35.2579 0 36.852 0.743243 37.9544 2.02703C39.0567 3.31081 39.5316 5 39.2602 6.6723L36.7164 22.2804C36.5976 22.9561 36.2076 23.5642 35.614 23.9358L21.4023 32.6689C20.5374 33.1926 19.4351 33.1419 18.638 32.5L12.024 27.2466C11.3965 26.7568 11.2947 25.8446 11.8035 25.2365C12.2953 24.6115 13.2111 24.5101 13.8216 25.0169L20.1813 30.0676L33.9181 21.5878L36.428 6.19933C36.5637 5.37162 36.3263 4.52703 35.7836 3.88514C35.2409 3.24324 34.4438 2.87162 33.5959 2.87162H27.6772L26.7444 8.61487H28.3216C29.0339 8.61487 29.6953 8.91892 30.1532 9.45946C30.6111 10 30.8146 10.6926 30.6959 11.3851L29.5935 18.125C29.407 19.2905 28.4064 20.1351 27.2193 20.1351H9.81927C8.39471 20.1351 7.20758 21.1487 6.97015 22.5507L3.35787 44.6622L8.42863 41.5372C8.80173 41.3007 9.24267 41.1824 9.70056 41.1824H28.2707C29.6953 41.1824 30.8824 40.1689 31.1199 38.7669L32.2731 31.6892C32.4088 30.9122 33.138 30.3716 33.9181 30.5068C34.6982 30.6419 35.2409 31.3682 35.1052 32.1453L33.952 39.223C33.7316 40.5743 33.0362 41.7905 32.0017 42.6689C30.9672 43.5473 29.6275 44.0372 28.2707 44.0372H9.81927L2.18769 48.75C1.96723 48.902 1.69588 48.9696 1.4415 48.9696Z" fill="#089949"/>
</svg>
