<?xml version="1.0" encoding="UTF-8"?>
<svg id="Layer_1" data-name="Layer 1" xmlns="http://www.w3.org/2000/svg" viewBox="0 0 1024 1024" fill="#37474f">
  <defs>
    
  </defs>
  <path class="cls-2" d="m362.15,987.76h-135.06c-13.3,0-25.69-7.16-32.34-18.67L5.22,640.82c-6.65-11.52-6.65-25.83,0-37.34,6.65-11.52,19.04-18.67,32.34-18.67h230.35c13.3,0,25.69,7.15,32.34,18.67l63.57,110.11h232.77l39.71-68.78h-146.81c-20.59,0-37.34-16.75-37.34-37.34v-190.99c0-20.59,16.75-37.34,37.34-37.34h146.78l-39.68-68.72h-232.77l-63.54,110.05c-6.65,11.52-19.04,18.67-32.34,18.67H37.59c-13.3,0-25.69-7.15-32.34-18.67-6.65-11.52-6.65-25.83,0-37.34L194.75,54.91c6.65-11.52,19.04-18.67,32.34-18.67h136.1c16.57,0,30,13.43,30,30s-13.43,30-30,30h-123.02L76.84,379.13h178.03l63.54-110.05c6.65-11.52,19.04-18.67,32.34-18.67h258.94c13.3,0,25.69,7.16,32.34,18.67l65.84,114.03c6.65,11.52,6.65,25.83,0,37.34-6.65,11.52-19.04,18.67-32.34,18.67h-163.36v145.68h163.4c13.3,0,25.69,7.15,32.34,18.67,6.65,11.52,6.65,25.83,0,37.34l-65.87,114.1c-6.65,11.52-19.04,18.67-32.34,18.67h-258.94c-13.3,0-25.69-7.15-32.34-18.67l-63.57-110.11H76.8l163.36,282.96h121.98c16.57,0,30,13.43,30,30s-13.43,30-30,30Z"></path>
  <path class="cls-1" d="m733.33,987.76h-243.84c-20.59,0-37.34-16.75-37.34-37.34v-86.89c0-16.57,13.43-30,30-30s30,13.43,30,30v64.23h208.1l240.04-415.76-240.04-415.76h-208.1v64.82c0,16.57-13.43,30-30,30s-30-13.43-30-30v-87.48c0-20.59,16.75-37.34,37.34-37.34h243.84c13.3,0,25.69,7.15,32.34,18.67l253.12,438.42c6.65,11.52,6.65,25.83,0,37.34l-253.12,438.42c-6.65,11.52-19.04,18.67-32.34,18.67Z"></path>
</svg>