<?xml version="1.0" encoding="utf-8"?>

<svg version="1.1" id="Layer_1" xmlns="http://www.w3.org/2000/svg" xmlns:xlink="http://www.w3.org/1999/xlink" x="0px" y="0px" viewBox="0 0 1024 1024" style="enable-background:new 0 0 1024 1024;" xml:space="preserve">

<g>
&#x9;<g class="st2">
&#x9;&#x9;<g>
&#x9;&#x9;&#x9;<path class="st3" d="M806.42,949.56H118.77C53.72,949.56,0.8,896.64,0.8,831.6V192.4c0-65.05,52.92-117.96,117.96-117.96h328.8&#xA;&#x9;&#x9;&#x9;&#x9;c19.27,0,37.74,7.13,52.01,20.07l62.66,56.83c3.21,2.91,7.37,4.52,11.7,4.52h232.48c65.04,0,117.96,52.92,117.96,117.96v8.96&#xA;&#x9;&#x9;&#x9;&#x9;c0,16.57-13.43,30-30,30s-30-13.43-30-30v-8.96c0-31.96-26-57.96-57.96-57.96H573.94c-19.27,0-37.74-7.13-52.01-20.07&#xA;&#x9;&#x9;&#x9;&#x9;l-62.66-56.83c-3.21-2.91-7.37-4.52-11.7-4.52h-328.8c-31.96,0-57.96,26-57.96,57.96v639.2c0,31.96,26,57.96,57.96,57.96h687.66&#xA;&#x9;&#x9;&#x9;&#x9;c16.57,0,30,13.43,30,30S822.99,949.56,806.42,949.56z"></path>
&#x9;&#x9;</g>
&#x9;&#x9;<g>
&#x9;&#x9;&#x9;<path class="st3" d="M821.03,949.56H136.29c-35.1,0-68.12-15.46-90.6-42.42c-22.48-26.96-31.75-62.22-25.45-96.74l84.17-460.86&#xA;&#x9;&#x9;&#x9;&#x9;c10.24-56.07,59.04-96.77,116.04-96.77h684.75c35.1,0,68.12,15.46,90.6,42.42c22.48,26.96,31.75,62.22,25.45,96.74l-84.17,460.86&#xA;&#x9;&#x9;&#x9;&#x9;C926.84,908.86,878.03,949.56,821.03,949.56z M220.46,312.78c-28.01,0-51.99,20-57.02,47.55L79.27,821.18&#xA;&#x9;&#x9;&#x9;&#x9;c-3.1,16.96,1.46,34.29,12.5,47.54c11.04,13.25,27.27,20.84,44.52,20.84h684.75c28.01,0,51.99-20,57.02-47.55l84.17-460.86&#xA;&#x9;&#x9;&#x9;&#x9;c3.1-16.97-1.46-34.29-12.5-47.54c-11.04-13.25-27.27-20.84-44.52-20.84H220.46z"></path>
&#x9;&#x9;</g>
&#x9;</g>
&#x9;<g class="st2">
&#x9;&#x9;<path class="st4" d="M535.81,560.4c-46.34,0-84.05-37.7-84.05-84.05s37.7-84.05,84.05-84.05s84.05,37.7,84.05,84.05&#xA;&#x9;&#x9;&#x9;S582.15,560.4,535.81,560.4z M535.81,452.31c-13.26,0-24.05,10.79-24.05,24.05s10.79,24.05,24.05,24.05s24.05-10.79,24.05-24.05&#xA;&#x9;&#x9;&#x9;S549.06,452.31,535.81,452.31z"></path>
&#x9;</g>
</g>
</svg>