<?xml version="1.0" encoding="utf-8"?>

<svg version="1.1" id="Layer_1" xmlns="http://www.w3.org/2000/svg" xmlns:xlink="http://www.w3.org/1999/xlink" x="0px" y="0px" viewBox="0 0 1024 1024" style="enable-background:new 0 0 1024 1024;" xml:space="preserve">

<g>
&#x9;<g>
&#x9;&#x9;<path class="st0" d="M818.89,799.04H673.01c-16.57,0-30-13.43-30-30s13.43-30,30-30h128.56l157.76-273.25L801.57,192.53H517.84&#xA;&#x9;&#x9;&#x9;L408.42,689.61c-3.56,16.18-19.57,26.4-35.75,22.85c-16.18-3.56-26.41-19.57-22.85-35.75l114.6-520.63&#xA;&#x9;&#x9;&#x9;c3.03-13.75,15.22-23.55,29.3-23.55h325.17c10.72,0,20.62,5.72,25.98,15l175.08,303.25c5.36,9.28,5.36,20.72,0,30L844.87,784.04&#xA;&#x9;&#x9;&#x9;C839.51,793.32,829.61,799.04,818.89,799.04z"></path>
&#x9;</g>
&#x9;<g>
&#x9;&#x9;<path class="st0" d="M531.23,891.18H206.06c-10.72,0-20.62-5.72-25.98-15L5,572.93c-5.36-9.28-5.36-20.72,0-30l175.08-303.25&#xA;&#x9;&#x9;&#x9;c5.36-9.28,15.26-15,25.98-15h145.88c16.57,0,30,13.43,30,30s-13.43,30-30,30H223.38L65.62,557.93l157.76,273.25h283.73&#xA;&#x9;&#x9;&#x9;l109.41-497.04c3.56-16.18,19.57-26.41,35.75-22.85c16.18,3.56,26.41,19.57,22.85,35.75L560.53,867.63&#xA;&#x9;&#x9;&#x9;C557.5,881.39,545.31,891.18,531.23,891.18z"></path>
&#x9;</g>
</g>
</svg>