<svg xmlns="http://www.w3.org/2000/svg" viewBox="0 0 1024 1024" fill="#226db4"><path d="M953.5 580.45a70.08 70.08 0 0 0 70-70V169.61C1023.5 76.36 947.64.5 854.39.5H152.5C68.69.5.5 68.69.5 152.5v719c0 83.81 68.19 152 152 152h841a30 30 0 0 0 0-60H879.29c-73.89 0-134-60.11-134-134v-249zm10-410.84v340.84a10 10 0 0 1-10 10H745.29V169.61a109.11 109.11 0 1 1 218.21 0zm-811 793.89a92.1 92.1 0 0 1-92-92v-719a92.1 92.1 0 0 1 92-92h572.8a168.33 168.33 0 0 0-40 109.11V829.5a193.31 193.31 0 0 0 53.84 134zm58.87-562.87h139.86a30 30 0 0 0 30-30V230.77a30 30 0 0 0-30-30H211.37a30 30 0 0 0-30 30v139.86a30 30 0 0 0 30 30zm30-139.86h79.86v79.86h-79.86zm293.04 259.68h-323a30 30 0 0 0 0 60h323a30 30 0 1 0 0-60zm0 179.8h-323a30 30 0 0 0 0 60h323a30 30 0 0 0 0-60z"></path></svg>