<?xml version="1.0" encoding="utf-8"?>

<svg version="1.1" id="Layer_1" xmlns="http://www.w3.org/2000/svg" xmlns:xlink="http://www.w3.org/1999/xlink" x="0px" y="0px" viewBox="0 0 1024 1024" style="enable-background:new 0 0 1024 1024;" xml:space="preserve">

<path class="st0" d="M852.9,262l-26-71.5c-8.9-24.5-27.9-43.4-51.1-52.7l-28.1-77.3c-12.9-35.4-46.9-59.2-84.6-59.2H361.7&#xA;&#x9;c-37.7,0-71.7,23.8-84.6,59.2L249,137.8c-23.3,9.4-42.2,28.3-51.1,52.7l-26,71.5c-45.7,4.2-81.7,42.8-81.7,89.6v267.5&#xA;&#x9;c0,60.5,16.6,119.8,48.1,171.5c31.5,51.7,76.5,93.7,130.2,121.5l197.2,102c12.9,6.7,27.1,10,41.4,10c13.9,0,27.7-3.2,40.4-9.6&#xA;&#x9;l205.4-103.2c54.7-27.5,100.6-69.6,132.7-121.7c32.1-52.1,49.1-112,49.1-173.2v-265C934.6,304.8,898.7,266.2,852.9,262z&#xA;&#x9; M254.3,211.1c4.3-11.8,15.6-19.7,28.2-19.7h459.9c12.6,0,23.9,7.9,28.2,19.7l18.4,50.5H235.9L254.3,211.1z M361.7,61.3h301.4&#xA;&#x9;c12.6,0,23.9,7.9,28.2,19.7l18.3,50.3H315.2L333.5,81C337.8,69.2,349.2,61.3,361.7,61.3z M874.6,616.6c0,50.1-13.9,99.1-40.2,141.7&#xA;&#x9;s-63.8,77-108.6,99.5L520.5,961.1c-8.6,4.3-18.8,4.2-27.3-0.2l-197.2-102c-44-22.8-80.8-57.1-106.6-99.4&#xA;&#x9;c-25.7-42.3-39.3-90.8-39.3-140.3V351.6c0-16.5,13.5-30,30-30h12.6c0.2,0,0.4,0,0.6,0h638.2c0.1,0,0.1,0,0.2,0c0.1,0,0.3,0,0.4,0&#xA;&#x9;h12.5c16.5,0,30,13.5,30,30V616.6z"></path>
<g>
&#x9;<path class="st1" d="M633.6,561.9H391.3c-33.1,0-60-26.9-60-60v-30c0-16.6,13.4-30,30-30s30,13.4,30,30v30l242.3,0v-30&#xA;&#x9;&#x9;c0-16.6,13.4-30,30-30s30,13.4,30,30v30C693.6,534.9,666.6,561.9,633.6,561.9z"></path>
</g>
</svg>