<svg xmlns="http://www.w3.org/2000/svg" viewBox="0 0 1024 1024"><path d="M166.39,891.72H150.76a90.1,90.1,0,0,1-90-90V376.29a90.1,90.1,0,0,1,90-90H749.63a30,30,0,0,0,0-60H150.76c-82.71,0-150,67.29-150,150V801.72c0,82.71,67.29,150,150,150h15.63a30,30,0,1,0,0-60Z" fill="#226db4"></path><path d="M1022.23 192.26l-26-97.7a30 30 0 0 0-36.71-21.27l-97.69 26a30 30 0 0 0 15.43 58l28-7.45-291.54 506.33-67-116.07a59.56 59.56 0 0 0-103.16 0L257.49 862.38a59.56 59.56 0 0 0 51.57 89.33h521.16c82.71 0 150-67.29 150-150V376.2a30 30 0 0 0-60 0v425.52a90.11 90.11 0 0 1-90 90H309.83l185.3-320.94 67 116.07a58.93 58.93 0 0 0 51.57 29.78h0a58.94 58.94 0 0 0 51.58-29.84L957 180.29l7.29 27.4a30 30 0 0 0 29 22.29 30.42 30.42 0 0 0 7.74-1 30 30 0 0 0 21.2-36.72z" fill="#e42527"></path></svg>