<svg width="49" height="48" viewBox="0 0 49 48" fill="none" xmlns="http://www.w3.org/2000/svg">
<path d="M40.4447 47.3851C36.6739 47.3851 33.0094 46.0406 29.8448 43.4949C29.5409 43.25 29.1001 43.2737 28.8232 43.549L26.0487 46.3243C24.6386 47.7314 22.3556 47.7314 20.9455 46.3243L18.2673 43.6453C17.9684 43.3463 17.4837 43.3463 17.1848 43.6453L14.4745 46.3514C13.0965 47.7281 10.8641 47.728 9.48782 46.3497C9.44391 46.3041 9.4 46.2585 9.35779 46.2112C-0.911072 34.7686 -2.93073 18.1233 4.30357 4.55406C5.79805 1.74832 8.71947 -0.0033735 11.8976 4.87798e-06H38.5179C41.213 4.87798e-06 43.7528 1.78717 45.6695 5.03379C47.4071 7.97467 48.5723 12.0085 48.9539 16.3919C49.1633 18.7618 47.4139 20.853 45.0446 21.0625C44.918 21.0743 44.793 21.0794 44.6664 21.0794H30.8412C30.8749 21.8851 30.9374 22.6841 31.0219 23.4662C31.0219 23.4865 31.0252 23.5051 31.0269 23.5253C31.189 25.9037 31.6365 28.2534 32.3627 30.5237C33.055 32.6672 33.9804 34.6368 35.1152 36.3851C36.2314 38.103 37.5216 39.5591 38.9485 40.7145C40.3754 41.8699 41.9138 42.6976 43.5147 43.1723C44.5938 43.4916 45.2084 44.625 44.8893 45.7027C44.6714 46.4409 44.0568 46.9916 43.3002 47.1301C42.358 47.299 41.4022 47.3851 40.4447 47.3851ZM11.8976 2.86994C9.77827 2.86825 7.83122 4.03548 6.8349 5.90541C0.161241 18.4088 2.02385 33.7534 11.494 44.2956C11.7354 44.5659 12.1509 44.5878 12.4211 44.3463C12.4295 44.3378 12.4396 44.3294 12.4481 44.321L15.1533 41.6149C16.5735 40.1976 18.8735 40.1976 20.2937 41.6149L22.9736 44.2956C23.2624 44.5845 23.7301 44.5845 24.0206 44.2956L26.7951 41.5203C28.1055 40.2044 30.1978 40.0929 31.6433 41.2585C33.9821 43.1402 36.6283 44.2365 39.3538 44.4679C38.5787 44.0169 37.8407 43.5068 37.145 42.9426C35.4833 41.598 33.9889 39.9172 32.7088 37.946C30.1133 33.9527 28.5429 29.0456 28.1663 23.7534C28.016 22.3868 27.94 21.0135 27.9417 19.6402C27.9417 14.5574 28.9465 9.75676 30.7719 6.12163C31.4119 4.84798 32.1313 3.75845 32.9132 2.86825L11.8976 2.86994ZM30.8412 18.2078H44.6681C45.4618 18.2061 46.1034 17.5625 46.1034 16.7686C46.1034 16.7264 46.1018 16.6841 46.0984 16.6419C45.7539 12.6774 44.7255 9.07264 43.2023 6.49494C41.8226 4.15879 40.1593 2.87163 38.5213 2.87163C37.6347 2.87163 36.7482 3.23987 35.8869 3.96453C34.9615 4.74494 34.0801 5.93751 33.3387 7.41386C31.8763 10.3193 31.005 14.1081 30.8412 18.2078Z" fill="#E42527"/>
<path d="M20.7681 21.0777H10.1295C9.33748 21.0777 8.69409 20.4358 8.69409 19.6419C8.69409 18.8497 9.33579 18.2061 10.1295 18.2061H20.7681C21.5601 18.2061 22.2035 18.848 22.2035 19.6419C22.2035 20.4342 21.5601 21.0777 20.7681 21.0777Z" fill="#E42527"/>
<path d="M15.5704 28.255H10.4317C9.63972 28.255 8.99634 27.6132 8.99634 26.8192C8.99634 26.0253 9.63804 25.3834 10.4317 25.3834H15.5704C16.3624 25.3834 17.0057 26.0253 17.0057 26.8192C17.0057 27.6132 16.3624 28.255 15.5704 28.255Z" fill="#E42527"/>
<path d="M21.437 13.9037H11.4215C10.6295 13.9037 9.98608 13.2618 9.98608 12.4679C9.98608 11.674 10.6278 11.0321 11.4215 11.0321H21.4387C22.2307 11.0321 22.8741 11.674 22.8741 12.4679C22.8741 13.2618 22.2307 13.9037 21.437 13.9037Z" fill="#E42527"/>
</svg>
