<svg xmlns="http://www.w3.org/2000/svg" viewBox="0 0 1024 1024"><path d="M947.63 248.88L522.06 3.18c-6.18-3.57-13.8-3.57-19.98 0L76.44 249c-6.18 3.57-9.99 10.16-9.99 17.3l-.07 491.52c0 7.14 3.81 13.73 9.99 17.3l425.57 245.7c3.09 1.78 6.54 2.68 9.99 2.68a19.91 19.91 0 0 0 9.99-2.68L947.56 775a20 20 0 0 0 9.99-17.3l.07-491.52c0-7.14-3.81-13.73-9.99-17.3zM512.07 43.54l385.69 222.68-215.39 124.45-160.36-92.58c-6.18-3.57-13.8-3.57-19.98 0l-160.27 92.56-215.38-124.36L512.07 43.54zM106.4 300.89l225.42 130.15c.06.03.11.07.17.1l160.03 92.39v445.43L106.34 746.29l.06-445.4zm713.59 501.65l-.13-278.06 5.61 6.61c3.95 4.65 9.58 7.05 15.24 7.05a19.9 19.9 0 0 0 12.92-4.75c8.41-7.14 9.44-19.75 2.3-28.16l-39.28-46.26c-.91-1.39-1.98-2.69-3.26-3.86-8.16-7.42-20.8-6.83-28.22 1.34l-44.03 48.41c-7.42 8.16-6.83 20.8 1.34 28.22a19.92 19.92 0 0 0 13.44 5.2c5.43 0 10.84-2.2 14.78-6.53l9.22-10.14.14 304.01-101.65 58.7.16-114.66 5.38 6.33c3.95 4.65 9.58 7.05 15.24 7.05a19.9 19.9 0 0 0 12.92-4.75c8.41-7.14 9.44-19.75 2.3-28.16l-39.28-46.26c-.91-1.38-1.98-2.69-3.26-3.85-8.16-7.42-20.8-6.83-28.22 1.34l-44.03 48.41c-7.42 8.16-6.83 20.8 1.34 28.22a19.92 19.92 0 0 0 13.44 5.2c5.43 0 10.84-2.2 14.78-6.53l9.46-10.4-.2 141.17L532 968.9V511.83c0-.23-.03-.45-.03-.68l-.04-.77a19.97 19.97 0 0 0-12.09-16.94l-138.1-79.73 130.31-75.26 130.41 75.29-70.68 40.84c-9.55 5.52-12.82 17.74-7.3 27.29 3.7 6.41 10.41 9.99 17.32 9.99 3.39 0 6.83-.86 9.98-2.68L917.7 300.87l-.06 445.3-97.65 56.37z" fill="#089949"></path></svg>