<?xml version="1.0" encoding="UTF-8"?>
<svg id="Layer_1" data-name="Layer 1" xmlns="http://www.w3.org/2000/svg" viewBox="0 0 1024 1024" fill="#37474f">
  <defs>
    
  </defs>
  <path class="cls-2" d="M512,1024c-5.76,0-11.53-1.66-16.54-4.97l-286.21-189.18c-53.35-35.27-97.56-83.68-127.85-140.01-30.29-56.33-46.3-119.91-46.3-183.86V182.56c0-12.83,8.16-24.25,20.31-28.39L502.31,1.61c6.28-2.14,13.1-2.14,19.38,0l446.91,152.56c15.68,5.35,24.05,22.4,18.7,38.08-5.35,15.68-22.4,24.05-38.08,18.7L512,61.7,95.09,204.01v301.97c0,54.07,13.54,107.82,39.14,155.45,25.61,47.62,62.99,88.55,108.09,118.37l269.67,178.24,269.67-178.24c45.11-29.81,82.48-70.75,108.09-118.37,25.61-47.62,39.14-101.37,39.14-155.45v-162.78c-119.51,34.9-216.71,82.36-279.39,117.59-75.13,42.23-118.36,76.53-118.79,76.87-10.96,8.75-26.54,8.75-37.48-.01-1.21-.97-125.36-99.07-322.49-169.85-15.59-5.6-23.7-22.78-18.1-38.37,5.6-15.59,22.78-23.7,38.37-18.1,164.1,58.93,278.08,134.47,320.99,165.43,20.32-14.62,56.62-39.26,106.72-67.49,72.48-40.85,189.03-97.34,332.65-134.48,8.98-2.32,18.54-.36,25.88,5.32s11.63,14.44,11.63,23.72v202.15c0,63.96-16.01,127.53-46.3,183.86-30.29,56.33-74.5,104.74-127.85,140.01l-286.21,189.18c-5.02,3.31-10.78,4.97-16.54,4.97Z"></path>
  <path class="cls-1" d="M511.94,405.43c-7.59,0-15.17-2.89-20.99-8.7-.11-.11-18.75-18.07-57.58-42.68-35.87-22.73-96.79-55.94-183.34-85.08-15.7-5.29-24.15-22.3-18.86-38s22.3-24.14,38-18.86c130.11,43.8,208.25,96.69,242.83,123.89,34.59-27.2,112.72-80.08,242.82-123.88,15.7-5.29,32.72,3.16,38,18.86,5.29,15.7-3.16,32.72-18.86,38-167.04,56.23-240.19,127.05-240.91,127.75-5.88,5.79-13.51,8.7-21.12,8.7Z"></path>
</svg>