<?xml version="1.0" encoding="utf-8"?>

<svg version="1.1" id="Layer_1" xmlns="http://www.w3.org/2000/svg" xmlns:xlink="http://www.w3.org/1999/xlink" x="0px" y="0px" viewBox="0 0 1024 1024" style="enable-background:new 0 0 1024 1024;" xml:space="preserve">

<g>
&#x9;<path class="st0" d="M702.9,321.1c-51-51-118.8-79.1-190.9-79.1s-139.9,28.1-190.9,79.1S242,439.9,242,512&#xA;&#x9;&#x9;c0,61.9,20.7,120.7,58.9,168.3L203.1,778c-11.7,11.7-11.7,30.7,0,42.4c5.9,5.9,13.5,8.8,21.2,8.8s15.4-2.9,21.2-8.8l97.7-97.7&#xA;&#x9;&#x9;C391,761.1,449.9,782,512,782c72.1,0,139.9-28.1,190.9-79.1S782,584.1,782,512S753.9,372.1,702.9,321.1z M512,722&#xA;&#x9;&#x9;c-115.8,0-210-94.2-210-210s94.2-210,210-210s210,94.2,210,210S627.8,722,512,722z"></path>
&#x9;<g>
&#x9;&#x9;<g>
&#x9;&#x9;&#x9;<path class="st1" d="M429.1,541.7c-16.6,0-30-13.4-30-30v-82.5c0-16.6,13.4-30,30-30h82.5c16.6,0,30,13.4,30,30s-13.4,30-30,30&#xA;&#x9;&#x9;&#x9;&#x9;h-52.5v52.5C459.1,528.2,445.7,541.7,429.1,541.7z"></path>
&#x9;&#x9;</g>
&#x9;&#x9;<g>
&#x9;&#x9;&#x9;<path class="st1" d="M594.9,624.9h-82.5c-16.6,0-30-13.4-30-30s13.4-30,30-30h52.5v-52.5c0-16.6,13.4-30,30-30s30,13.4,30,30&#xA;&#x9;&#x9;&#x9;&#x9;v82.5C624.9,611.4,611.4,624.9,594.9,624.9z"></path>
&#x9;&#x9;</g>
&#x9;</g>
&#x9;<g>
&#x9;&#x9;<path class="st1" d="M512,1023.5c-5.2,0-10.4-1.3-15-4l-167-96.4c-80.5-46.5-147.5-113.5-194-194S65,557,65,464.1V271.2&#xA;&#x9;&#x9;&#x9;c0-10.7,5.7-20.6,15-26L497,4.5c9.3-5.4,20.7-5.4,30,0l417,240.8c9.3,5.4,15,15.3,15,26v192.8c0,92.9-24.6,184.5-71,265&#xA;&#x9;&#x9;&#x9;s-113.5,147.5-194,194l-167,96.4C522.4,1022.2,517.2,1023.5,512,1023.5z M125,288.6v175.5c0,82.4,21.8,163.6,63,235&#xA;&#x9;&#x9;&#x9;s100.7,130.8,172,172l152,87.8l152-87.8c71.3-41.2,130.8-100.7,172-172c41.2-71.4,63-152.6,63-235V288.6L512,65.1L125,288.6z"></path>
&#x9;</g>
</g>
</svg>