<svg id="Layer_1" data-name="Layer 1" xmlns="http://www.w3.org/2000/svg" viewBox="0 0 1024 1024" fill="#37474f"><defs></defs><title>Jeeves</title><g class="cls-1"><path class="cls-2" d="M512,1023.49c-38.94,0-77.88-1.21-116.54-3.63l-19.58-1.22c-68.66-4.29-132.38-24.83-189.38-61.06A403.16,403.16,0,0,1,1.08,640.71c-3.66-67.43,9.64-133,39.53-195a1876.52,1876.52,0,0,1,139.94-242l30.15-44.15c35.1-51.38,80.5-91.53,135-119.31a367.71,367.71,0,0,1,332.7,0C732.8,68.06,778.2,108.21,813.3,159.59l30.15,44.15a1876.52,1876.52,0,0,1,139.94,242c29.89,62,43.19,127.57,39.53,195A403.16,403.16,0,0,1,837.5,957.58c-57,36.23-120.72,56.77-189.38,61.06l-19.58,1.22C589.88,1022.28,550.94,1023.49,512,1023.49Zm0-963A307.27,307.27,0,0,0,372.92,93.73c-45.4,23.16-83.31,56.7-112.67,99.7L230.1,237.58A1816.48,1816.48,0,0,0,94.65,471.78C69.21,524.51,57.88,580.25,61,637.46A343.2,343.2,0,0,0,218.69,907c48.35,30.73,102.49,48.16,160.93,51.81L399.2,960a1814.27,1814.27,0,0,0,225.6,0l19.58-1.22C702.82,955.11,757,937.68,805.31,907A343.2,343.2,0,0,0,963,637.46c3.11-57.21-8.22-113-33.66-165.68A1816.48,1816.48,0,0,0,793.9,237.58l-30.15-44.15c-29.36-43-67.27-76.54-112.67-99.7A307.27,307.27,0,0,0,512,60.5Z"></path><path class="cls-3" d="M512,748.61c-17.06,0-34.13-.53-51.08-1.59l-21.37-1.34A179.75,179.75,0,0,1,288.66,487.81l5.64-11.7a822.62,822.62,0,0,1,61.33-106l12.94-18.95a173.46,173.46,0,0,1,286.86,0l12.94,18.95a822.62,822.62,0,0,1,61.33,106l5.64,11.7A179.74,179.74,0,0,1,584.45,745.68L563.08,747C546.13,748.08,529.06,748.61,512,748.61Zm0-413.22A112.14,112.14,0,0,0,418.12,385L405.18,403.9a763.38,763.38,0,0,0-56.84,98.28l-5.65,11.71c-17.65,36.59-16,77.69,4.51,112.75s55.54,56.63,96.09,59.16l21.37,1.33a759.14,759.14,0,0,0,94.68,0l21.37-1.33c40.55-2.53,75.57-24.09,96.09-59.16s22.16-76.16,4.51-112.75l-5.65-11.71a763.38,763.38,0,0,0-56.84-98.28L605.88,385A112.14,112.14,0,0,0,512,335.39Z"></path></g></svg>