<svg width="50" height="49" viewBox="0 0 50 49" fill="none" xmlns="http://www.w3.org/2000/svg">
<path d="M44.8874 14.0498C44.6499 14.0498 44.3955 13.9823 44.1749 13.864L25.3276 3.03632C24.8866 2.78294 24.3267 2.78294 23.8687 3.03632L11.4169 10.1985C10.7383 10.587 9.85619 10.3505 9.46602 9.67483C9.07584 8.99916 9.31334 8.12078 9.99191 7.73226L22.4607 0.570101C23.8008 -0.190034 25.4464 -0.190034 26.7866 0.570101L45.6339 11.3978C46.3124 11.7863 46.5499 12.6647 46.1598 13.3404C45.8544 13.7965 45.3794 14.0498 44.8874 14.0498Z" fill="#226DB4"/>
<path d="M24.5982 48.5937C23.8518 48.5937 23.1053 48.4079 22.4437 48.0194L5.03838 38.0194C3.6982 37.2593 2.88391 35.8235 2.88391 34.2863V20.3167C2.88391 19.5228 3.52855 18.8978 4.30891 18.8978C5.08927 18.8978 5.73391 19.5397 5.73391 20.3167V34.2863C5.73391 34.81 6.00534 35.2829 6.46338 35.5363L23.8687 45.5363C24.3098 45.7897 24.8696 45.7897 25.3277 45.5363L42.733 35.5363C43.1741 35.2829 43.4625 34.7931 43.4625 34.2863V26.1275C43.4625 25.3336 44.1071 24.7086 44.8875 24.7086C45.6678 24.7086 46.3125 25.3505 46.3125 26.1275V34.2863C46.3125 35.8235 45.4812 37.2424 44.158 38.0194L26.7527 48.0194C26.0911 48.391 25.3446 48.5937 24.5982 48.5937Z" fill="#226DB4"/>
<path d="M48.7554 11.364C48.467 11.0938 48.0938 10.9417 47.7036 10.9586C42.9705 11.1275 38.4241 12.2593 34.183 14.337C30.5696 16.1106 27.3634 18.4586 24.5982 21.3809C21.85 18.4755 18.6268 16.1106 15.0134 14.337C10.7723 12.2593 6.22589 11.1275 1.49286 10.9586C1.10268 10.9417 0.7125 11.0938 0.441071 11.364C0.152679 11.6343 0 12.0059 0 12.3944V19.8775C0 20.6039 0.559821 21.2289 1.28929 21.3133C5.81875 21.8032 10.0937 23.2728 13.9616 25.6546C17.6937 27.9519 20.9509 31.0938 23.3937 34.7424C23.4446 34.81 23.4955 34.8775 23.5634 34.9451L23.5804 34.962C23.5973 34.9789 23.6312 35.0127 23.6652 35.0296C23.6821 35.0465 23.6821 35.0465 23.6991 35.0633C23.7161 35.0802 23.75 35.0971 23.767 35.114C23.7839 35.1309 23.8009 35.1309 23.8179 35.1478C23.8348 35.1647 23.8687 35.1816 23.8857 35.1985C23.9027 35.2154 23.9196 35.2154 23.9536 35.2323C23.9705 35.2492 24.0045 35.2492 24.0214 35.2661C24.0384 35.2829 24.0723 35.2829 24.0893 35.2998C24.1062 35.2998 24.1402 35.3167 24.1571 35.3167C24.1911 35.3336 24.225 35.3336 24.2589 35.3505C24.2759 35.3505 24.3098 35.3674 24.3268 35.3674C24.3777 35.3674 24.4116 35.3843 24.4625 35.3843C24.4625 35.3843 24.4625 35.3843 24.4795 35.3843C24.5304 35.3843 24.5643 35.3843 24.6152 35.3843C24.717 35.3843 24.8018 35.3674 24.9036 35.3505C24.9375 35.3505 24.9714 35.3336 25.0054 35.3167C25.0223 35.3167 25.0223 35.3167 25.0393 35.2998C25.175 35.2492 25.3107 35.1985 25.4295 35.114C25.4464 35.0971 25.4634 35.0802 25.4804 35.0633C25.4973 35.0465 25.5143 35.0296 25.5312 35.0296C25.5482 35.0127 25.5821 34.9958 25.5991 34.9789C25.6161 34.962 25.633 34.962 25.633 34.9451C25.633 34.9451 25.633 34.9451 25.65 34.9282C25.667 34.9113 25.7009 34.8775 25.7179 34.8438C25.7179 34.8438 25.7179 34.8438 25.7348 34.8269C25.7687 34.7931 25.7857 34.7593 25.8196 34.7255C28.2455 31.0769 31.5196 27.935 35.2518 25.6377C39.1366 23.2559 43.3946 21.7863 47.9241 21.2965C48.6536 21.212 49.2134 20.6039 49.2134 19.8606V12.3944C49.1964 12.0059 49.0438 11.6343 48.7554 11.364ZM21.1884 27.614C19.458 25.9417 17.5411 24.4552 15.4884 23.2052C13.4187 21.9215 11.1964 20.8742 8.88929 20.0802C6.93839 19.4046 4.93661 18.9147 2.88393 18.6106V13.9147C6.66696 14.2356 10.3143 15.2323 13.7411 16.9046C17.3375 18.6613 20.4929 21.06 23.1562 24.0498V29.6917C22.5286 28.9823 21.867 28.2897 21.1884 27.614ZM46.3125 18.6106C44.2768 18.9147 42.258 19.4046 40.3071 20.0802C38.017 20.8742 35.7946 21.9215 33.708 23.2052C31.6554 24.4721 29.7384 25.9586 28.008 27.614C27.3295 28.2728 26.6679 28.9654 26.0402 29.6917V24.0667C28.7036 21.0769 31.8589 18.6782 35.4554 16.9215C38.8821 15.2492 42.5125 14.2356 46.3125 13.9316V18.6106Z" fill="#E42527"/>
</svg>
