<svg width="49" height="49" viewBox="0 0 49 49" fill="none" xmlns="http://www.w3.org/2000/svg">
<path d="M39.7039 36.2601C38.912 36.2601 38.2717 35.6166 38.2717 34.8226C38.2717 34.4426 38.4234 34.076 38.6913 33.8074L44.602 27.8818C46.4639 26.0101 46.4639 22.9814 44.602 21.1098L39.5556 16.0507C39.008 15.4764 39.0299 14.5676 39.6011 14.0186C40.1555 13.4882 41.0266 13.4882 41.5809 14.0186L46.6273 19.0777C49.6063 22.0659 49.6063 26.9257 46.6273 29.9139L40.7166 35.8395C40.4487 36.1098 40.0847 36.2618 39.7039 36.2601Z" fill="#089949"/>
<path d="M8.31198 35.4105C7.93118 35.4105 7.56724 35.2602 7.29933 34.9899L2.23612 29.9139C-0.744529 26.9257 -0.744529 22.0659 2.23106 19.0794L8.14854 13.1403C8.70288 12.5744 9.61106 12.5659 10.1755 13.1234C10.74 13.6791 10.7484 14.5896 10.1924 15.1555C10.1873 15.1605 10.1823 15.1673 10.1755 15.1723L4.25972 21.1098C2.39955 22.9815 2.39955 26.0085 4.25972 27.8801L9.32294 32.9561C9.88233 33.5169 9.88233 34.4274 9.32294 34.9882C9.05335 35.2568 8.6894 35.4088 8.31029 35.4088L8.31198 35.4105Z" fill="#089949"/>
<path d="M24.4318 29.973C21.4141 29.973 18.9692 27.5203 18.9692 24.495C18.9692 21.4696 21.4158 19.0186 24.4335 19.0186C27.4512 19.0186 29.896 21.4713 29.896 24.4967C29.8926 27.5203 27.4478 29.9713 24.4318 29.973ZM24.4318 21.8919C22.9979 21.8919 21.8353 23.0592 21.8353 24.4967C21.8353 25.9342 22.9996 27.0997 24.4335 27.0997C25.8673 27.0997 27.03 25.9342 27.03 24.4967C27.0283 23.0592 25.8657 21.8936 24.4318 21.8919Z" fill="#F9B21D"/>
<path d="M24.4318 37.1588C21.9465 37.1622 19.5152 36.4291 17.4427 35.0507C16.7839 34.6115 16.6036 33.7196 17.0417 33.0592C17.4798 32.3987 18.3694 32.2179 19.0282 32.6571C20.6289 33.723 22.5093 34.2889 24.4318 34.2855C29.8303 34.2855 34.2196 29.8835 34.2196 24.473V12.4865C34.2229 11.3429 33.7697 10.245 32.9609 9.43923L27.8118 4.27538C26.9188 3.37504 25.7022 2.86997 24.4352 2.87335C23.1681 2.86997 21.9516 3.37504 21.0569 4.27707L14.243 11.1115C13.6836 11.6723 12.7754 11.674 12.216 11.1132C11.6566 10.5524 11.655 9.64193 12.2144 9.08112L19.0282 2.24497C20.457 0.802407 22.4031 -0.00502559 24.4318 4.19804e-05C26.4605 -0.00671478 28.4082 0.802407 29.8387 2.24497L34.9896 7.40883C36.3375 8.75342 37.0924 10.5828 37.0873 12.4882V24.5085C37.0671 31.5 31.4074 37.1588 24.4318 37.1588Z" fill="#E42527"/>
<path d="M24.4317 48.9933C22.4031 48.9983 20.4586 48.1909 19.0281 46.7483L13.8773 41.5828C12.5294 40.2399 11.7745 38.4105 11.7796 36.5068V24.4865C11.7998 17.4798 17.4814 11.8159 24.4705 11.8362C26.9524 11.8429 29.377 12.5811 31.4427 13.9595C32.1066 14.3919 32.2936 15.2821 31.8623 15.9477C31.4309 16.6132 30.543 16.8007 29.8791 16.3683C29.8707 16.3632 29.8623 16.3564 29.8521 16.3514C28.2481 15.2771 26.361 14.7044 24.43 14.7078C19.0315 14.7078 14.6423 19.1098 14.6423 24.5203V36.5051C14.6389 37.6487 15.0921 38.745 15.9009 39.5524L21.0534 44.7179C22.9186 46.5862 25.9414 46.5862 27.8066 44.7179L34.6373 37.87C35.1967 37.3091 36.1049 37.3091 36.6643 37.87C37.2237 38.4308 37.2237 39.3412 36.6643 39.9021L29.8336 46.75C28.4065 48.1909 26.4604 49 24.4317 48.9933Z" fill="#E42527"/>
</svg>
