<?xml version="1.0" encoding="UTF-8"?>
<svg id="Layer_1" data-name="Layer 1" xmlns="http://www.w3.org/2000/svg" version="1.1" viewBox="0 0 1024 1024" fill="#0288d1">
  <defs>
    
  </defs>
  <path class="cls-1" d="M410.3,1024c-69.3,0-134.5-27-183.5-76-46.8-46.8-73.8-109-75.9-175.2-2.1-65.8,20.5-129.3,63.6-178.8,10.9-12.5,29.8-13.8,42.3-2.9,12.5,10.9,13.8,29.8,2.9,42.3-33.2,38-50.5,86.8-48.9,137.4,1.6,50.8,22.4,98.7,58.3,134.7,77.8,77.8,204.4,77.8,282.2,0l203.4-203.4c36-36,56.7-83.8,58.3-134.6,1.6-50.6-15.7-99.4-48.9-137.4-10.9-12.5-9.6-31.4,2.9-42.3,12.5-10.9,31.4-9.6,42.3,2.9,43.2,49.5,65.8,113,63.6,178.8-2.1,66.1-29.1,128.3-75.9,175.2l-203.4,203.4c-49,49-114.2,76-183.5,76Z"></path>
  <path class="cls-1" d="M237.1,643.7c-8.4,0-16.7-3.5-22.6-10.3-43.2-49.5-65.8-113-63.6-178.8,2.1-66.1,29.1-128.3,75.9-175.2l203.4-203.4C479.2,27,544.4,0,613.7,0s134.5,27,183.5,76c46.8,46.8,73.8,109,75.9,175.2,2.1,65.8-20.5,129.3-63.7,178.8-10.9,12.5-29.9,13.8-42.3,2.9-12.5-10.9-13.8-29.9-2.9-42.3,33.2-38,50.5-86.8,48.9-137.5-1.6-50.8-22.4-98.7-58.3-134.7-37.7-37.7-87.8-58.4-141.1-58.4s-103.4,20.8-141.1,58.4l-203.4,203.4c-36,36-56.7,83.8-58.3,134.7-1.6,50.6,15.7,99.4,48.9,137.4,10.9,12.5,9.6,31.4-2.9,42.3-5.7,5-12.7,7.4-19.7,7.4Z"></path>
  <path class="cls-1" d="M536.1,682c-7,0-14-1.4-20.7-4.1-20.3-8.4-33.3-28-33.3-49.9v-217.5l-212.8,212.8c-1.4,1.4-5.3,5.6-9.9,10.6-11.2,12.2-30.2,13.1-42.4,1.9-12.2-11.2-13.1-30.2-1.9-42.4,3.9-4.3,9.1-9.9,11.8-12.6l223.1-223.1c15.5-15.5,38.6-20.1,58.9-11.7,20.3,8.4,33.3,28,33.3,49.9v217.5l212.8-212.8c3.2-3.3,6.4-6.6,9.4-10.1,10.9-12.5,29.9-13.8,42.3-2.9,12.5,10.9,13.8,29.9,2.9,42.3-3.9,4.5-8,8.9-12.2,13.1l-223.1,223.1c-10.4,10.4-24.1,15.8-38.1,15.8Z"></path>
  <path class="cls-1" d="M237.1,643.7c-8.4,0-16.7-3.5-22.6-10.3-43.2-49.5-65.8-113-63.6-178.8,2.1-66.1,29.1-128.3,75.9-175.2l203.4-203.4C479.2,27,544.4,0,613.7,0s134.5,27,183.5,76c46.8,46.8,73.8,109,75.9,175.2,2.1,65.8-20.5,129.3-63.7,178.8-10.9,12.5-29.9,13.8-42.3,2.9-12.5-10.9-13.8-29.9-2.9-42.3,33.2-38,50.5-86.8,48.9-137.5-1.6-50.8-22.4-98.7-58.3-134.7-37.7-37.7-87.8-58.4-141.1-58.4s-103.4,20.8-141.1,58.4l-203.4,203.4c-36,36-56.7,83.8-58.3,134.7-1.6,50.6,15.7,99.4,48.9,137.4,10.9,12.5,9.6,31.4-2.9,42.3-5.7,5-12.7,7.4-19.7,7.4Z"></path>
  <path class="cls-1" d="M671.9,857.5c-7.7,0-15.4-2.9-21.2-8.8-11.7-11.7-11.7-30.7,0-42.4l104.2-104.2c36-36,56.7-83.8,58.3-134.6,1.6-50.6-15.7-99.4-48.9-137.4-10.9-12.5-9.6-31.4,2.9-42.3,12.5-10.9,31.4-9.6,42.3,2.9,43.2,49.5,65.8,113,63.6,178.8-2.1,66.1-29.1,128.3-75.9,175.2l-104.2,104.2c-5.9,5.9-13.5,8.8-21.2,8.8Z"></path>
</svg>