<?xml version="1.0" encoding="utf-8"?>

<svg version="1.1" id="Layer_1" xmlns="http://www.w3.org/2000/svg" xmlns:xlink="http://www.w3.org/1999/xlink" x="0px" y="0px" viewBox="0 0 1024 1024" style="enable-background:new 0 0 1024 1024;" xml:space="preserve">

<g>
&#x9;<path class="st0" d="M693.7,0.05H330.3c-115.79,0-210,94.21-210,210v468.83c0,115.79,94.21,210,210,210h152.58&#xA;&#x9;&#x9;c16.57,0,30-13.43,30-30s-13.43-30-30-30H330.3c-82.71,0-150-67.29-150-150V210.05c0-82.71,67.29-150,150-150H693.7&#xA;&#x9;&#x9;c82.71,0,150,67.29,150,150v330.41c-36.93-36.85-87.87-59.66-144.04-59.66c-112.51,0-204.04,91.53-204.04,204.04&#xA;&#x9;&#x9;c0,112.51,91.53,204.04,204.04,204.04c0.49,0,0.97-0.02,1.46-0.02c0.24,0.01,0.49,0.02,0.73,0.02c20.7,0,37.54,16.84,37.54,37.54&#xA;&#x9;&#x9;s-16.84,37.54-37.54,37.54c-16.57,0-30,13.43-30,30s13.43,30,30,30c53.78,0,97.54-43.76,97.54-97.54&#xA;&#x9;&#x9;c0-20.41-6.31-39.37-17.07-55.05c71.44-31.78,121.37-103.43,121.37-186.52V210.05C903.7,94.25,809.5,0.05,693.7,0.05z&#xA;&#x9;&#x9; M699.67,828.88c-79.42,0-144.04-64.62-144.04-144.04c0-79.42,64.62-144.04,144.04-144.04c79.42,0,144.04,64.62,144.04,144.04&#xA;&#x9;&#x9;C843.7,764.26,779.09,828.88,699.67,828.88z"></path>
&#x9;<g>
&#x9;&#x9;<g>
&#x9;&#x9;&#x9;<path class="st1" d="M641.35,241.18h-311c-16.57,0-30-13.43-30-30s13.43-30,30-30h311c16.57,0,30,13.43,30,30&#xA;&#x9;&#x9;&#x9;&#x9;S657.92,241.18,641.35,241.18z"></path>
&#x9;&#x9;</g>
&#x9;&#x9;<g>
&#x9;&#x9;&#x9;<path class="st1" d="M641.35,360.66h-311c-16.57,0-30-13.43-30-30s13.43-30,30-30h311c16.57,0,30,13.43,30,30&#xA;&#x9;&#x9;&#x9;&#x9;S657.92,360.66,641.35,360.66z"></path>
&#x9;&#x9;</g>
&#x9;&#x9;<g>
&#x9;&#x9;&#x9;<path class="st1" d="M525.63,480.14H330.35c-16.57,0-30-13.43-30-30s13.43-30,30-30h195.28c16.57,0,30,13.43,30,30&#xA;&#x9;&#x9;&#x9;&#x9;S542.2,480.14,525.63,480.14z"></path>
&#x9;&#x9;</g>
&#x9;</g>
</g>
</svg>