<svg width="49" height="49" viewBox="0 0 49 49" fill="none" xmlns="http://www.w3.org/2000/svg">
<path d="M38.787 33.0405C37.9944 33.0405 37.3536 32.3986 37.3536 31.6047V23.8007C37.3536 22.9899 36.6959 22.3311 35.8864 22.3311H13.019C12.2095 22.3311 11.5518 22.9899 11.5518 23.8007V25.4392C11.5518 26.2331 10.911 26.875 10.1184 26.875C9.32576 26.875 8.68494 26.2331 8.68494 25.4392V23.8007C8.68494 21.4189 10.6243 19.4595 13.019 19.4595H35.8864C38.2642 19.4595 40.2204 21.402 40.2204 23.8007V31.6047C40.2204 32.3986 39.5796 33.0405 38.787 33.0405Z" fill="#F9B21D"/>
<path d="M44.5713 48.9696H4.33402C1.95621 48.9696 0 47.027 0 44.6284V33.1757C0 32.3818 0.640828 31.7399 1.43343 31.7399C2.22604 31.7399 2.86686 32.3818 2.86686 33.1757V44.6284C2.86686 45.4392 3.52456 46.098 4.33402 46.098H44.5713C45.3808 46.098 46.0385 45.4392 46.0385 44.6284V20.3378C46.0385 19.8818 45.8361 19.4764 45.482 19.1892L25.3633 3.19257C24.8237 2.77027 24.0817 2.77027 23.542 3.19257L3.42337 19.1892C3.06923 19.4595 2.86686 19.8818 2.86686 20.3378V25.2534C2.86686 25.7939 3.17041 26.2838 3.6426 26.5541L23.7612 37.2804C24.1997 37.5169 24.7056 37.5169 25.1441 37.2804L38.1124 30.3547C38.8038 29.9831 39.6808 30.2534 40.0518 30.9459C40.4228 31.6385 40.153 32.5169 39.4615 32.8885L26.4932 39.8142C25.2115 40.4899 23.6938 40.4899 22.429 39.8142L2.29349 29.071C0.876923 28.3108 0 26.8412 0 25.2365V20.3209C0 18.9865 0.607101 17.7534 1.6358 16.9257L21.7544 0.945946C22.5133 0.337838 23.4746 0 24.4527 0C25.4308 0 26.3751 0.337838 27.1509 0.945946L47.2695 16.9426C48.3151 17.7703 48.9053 19.0034 48.9053 20.3378V44.6453C48.9053 47.027 46.966 48.9696 44.5713 48.9696Z" fill="#226DB4"/>
</svg>
