<?xml version="1.0" encoding="utf-8"?>

<svg version="1.1" id="Layer_1" xmlns="http://www.w3.org/2000/svg" xmlns:xlink="http://www.w3.org/1999/xlink" x="0px" y="0px" viewBox="0 0 1024 1024" style="enable-background:new 0 0 1024 1024;" xml:space="preserve">

<g>
&#x9;<path class="st0" d="M512,1023.58c-15.56,0-31.12-4.01-45-12.02L101.87,800.75c-27.76-16.03-45-45.89-45-77.94V301.19&#xA;&#x9;&#x9;c0-32.05,17.24-61.92,45-77.94L467,12.44c27.76-16.03,62.24-16.03,90,0l365.13,210.81c27.76,16.03,45,45.89,45,77.94v421.62&#xA;&#x9;&#x9;c0,32.05-17.24,61.92-45,77.94L557,1011.56C543.12,1019.57,527.56,1023.58,512,1023.58z M512,60.4c-5.19,0-10.37,1.34-15,4.01&#xA;&#x9;&#x9;L131.87,275.21c-9.25,5.34-15,15.3-15,25.98v421.62c0,10.68,5.75,20.64,15,25.98L497,959.6c9.25,5.34,20.75,5.34,30,0&#xA;&#x9;&#x9;l365.13-210.81c9.25-5.34,15-15.3,15-25.98V301.19c0-10.68-5.75-20.64-15-25.98L527,64.4C522.37,61.73,517.19,60.4,512,60.4z"></path>
&#x9;<path class="st0" d="M512.03,532.79c-15.46,0-30.92-3.98-44.71-11.93L192.5,362.28c-14.35-8.28-19.27-26.63-10.99-40.98&#xA;&#x9;&#x9;c8.28-14.35,26.63-19.27,40.98-10.99l274.83,158.57c9.07,5.23,20.34,5.24,29.42,0.01L914.7,245.52&#xA;&#x9;&#x9;c14.36-8.27,32.7-3.33,40.97,11.03c8.27,14.36,3.33,32.7-11.03,40.97L556.67,520.9C542.9,528.83,527.46,532.79,512.03,532.79z"></path>
&#x9;<path class="st0" d="M536.11,390.44c-5.09,0-10.25-1.3-14.97-4.02L335.8,279.41c-14.35-8.28-19.27-26.63-10.98-40.98&#xA;&#x9;&#x9;c8.28-14.35,26.63-19.26,40.98-10.98l185.34,107.01c14.35,8.28,19.26,26.63,10.98,40.98C556.57,385.06,546.48,390.44,536.11,390.44&#xA;&#x9;&#x9;z"></path>
&#x9;<path class="st0" d="M585.88,253.97c-5.09,0-10.25-1.3-14.97-4.02l-92.12-53.18c-14.35-8.28-19.27-26.63-10.98-40.98&#xA;&#x9;&#x9;c8.28-14.35,26.63-19.26,40.98-10.98l92.12,53.18c14.35,8.28,19.26,26.63,10.98,40.98C606.33,248.59,596.25,253.97,585.88,253.97z"></path>
&#x9;<path class="st0" d="M930.79,780.14c-8.43,0-16.8-3.53-22.74-10.42L631.87,449.26c-10.82-12.55-9.41-31.49,3.14-42.31&#xA;&#x9;&#x9;c12.55-10.82,31.49-9.41,42.31,3.14L953.5,730.55c10.82,12.55,9.41,31.49-3.14,42.31C944.69,777.75,937.72,780.14,930.79,780.14z"></path>
&#x9;<path class="st0" d="M92.58,778.58c-6.93,0-13.9-2.39-19.56-7.27C60.47,760.5,59.05,741.55,69.87,729l275.36-319.74&#xA;&#x9;&#x9;c10.81-12.55,29.75-13.97,42.31-3.16c12.55,10.81,13.97,29.75,3.16,42.31L115.33,768.15C109.4,775.04,101.01,778.58,92.58,778.58z"></path>
</g>
</svg>