<?xml version="1.0" encoding="utf-8"?>

<svg version="1.1" id="Layer_1" xmlns="http://www.w3.org/2000/svg" xmlns:xlink="http://www.w3.org/1999/xlink" x="0px" y="0px" viewBox="0 0 1024 1024" style="enable-background:new 0 0 1024 1024;" xml:space="preserve">

<g>
&#x9;<g class="st0">
&#x9;&#x9;<path class="st1" d="M644.29,1024H379.71c-7.96,0-15.59-3.16-21.21-8.79s-8.79-13.26-8.79-21.21l0.01-319.83&#xA;&#x9;&#x9;&#x9;c0-16.57,13.43-30,30-30c0,0,0,0,0,0c16.57,0,30,13.43,30,30L409.71,964h204.58V674.69c0-0.17,0-0.35,0-0.52&#xA;&#x9;&#x9;&#x9;c0-16.57,13.43-30,30-30s30.01,13.43,30.01,30V994C674.29,1010.57,660.86,1024,644.29,1024z"></path>
&#x9;</g>
&#x9;<g class="st0">
&#x9;&#x9;<path class="st2" d="M753.5,1024h-483c-82.71,0-150-67.29-150-150V590.88c0-16.57,13.43-30,30-30s30,13.43,30,30V874&#xA;&#x9;&#x9;&#x9;c0,49.63,40.37,90,90,90h483c49.63,0,90-40.37,90-90V470.88c0-16.57,13.43-30,30-30c48.75,0,88.63-38.73,90.44-87.02L907.6,128.2&#xA;&#x9;&#x9;&#x9;C897.57,88.04,861.66,60,820.28,60H203.72c-41.39,0-77.29,28.04-87.32,68.2L60.06,353.86c1.81,48.3,41.68,87.02,90.44,87.02&#xA;&#x9;&#x9;&#x9;c49.9,0,90.5-40.58,90.5-90.46c0-16.57,13.43-30,30-30s30,13.43,30,30c0,49.88,40.6,90.46,90.5,90.46s90.5-40.58,90.5-90.46&#xA;&#x9;&#x9;&#x9;c0-16.57,13.43-30,30-30s30,13.43,30,30c0,49.88,40.6,90.46,90.5,90.46s90.5-40.58,90.5-90.46c0-16.57,13.43-30,30-30&#xA;&#x9;&#x9;&#x9;s30,13.43,30,30c0,82.96-67.51,150.46-150.5,150.46c-49.24,0-93.03-23.76-120.5-60.41c-27.47,36.65-71.26,60.41-120.5,60.41&#xA;&#x9;&#x9;&#x9;s-93.03-23.76-120.5-60.41c-27.47,36.65-71.26,60.41-120.5,60.41C67.51,500.88,0,433.39,0,350.43c0-2.45,0.3-4.89,0.89-7.27&#xA;&#x9;&#x9;&#x9;l57.3-229.5C74.9,46.74,134.75,0,203.72,0h616.55c68.98,0,128.82,46.74,145.53,113.67l57.3,229.5c0.59,2.38,0.89,4.82,0.89,7.27&#xA;&#x9;&#x9;&#x9;c0,72.69-51.84,133.51-120.5,147.45V874C903.5,956.71,836.21,1024,753.5,1024z"></path>
&#x9;</g>
&#x9;<g class="st0">
&#x9;&#x9;<path class="st1" d="M512,740.2c-51.99,0-103.01-13.9-147.55-40.2c-14.27-8.42-19-26.82-10.58-41.09&#xA;&#x9;&#x9;&#x9;c8.42-14.27,26.82-19,41.09-10.58c35.31,20.85,75.78,31.87,117.04,31.87c41.26,0,81.73-11.02,117.04-31.87&#xA;&#x9;&#x9;&#x9;c14.27-8.43,32.66-3.69,41.09,10.58c8.42,14.27,3.69,32.66-10.58,41.09C615.01,726.3,563.99,740.2,512,740.2z"></path>
&#x9;</g>
</g>
</svg>