<svg xmlns="http://www.w3.org/2000/svg" viewBox="0 0 1024 1024"><path d="M956.35 267a20 20 0 0 0-10-17.3L522 4.68a20 20 0 0 0-20 0l-424.37 245a20 20 0 0 0-10 17.3V757a20 20 0 0 0 10 17.3l424.37 245a20 20 0 0 0 20 0l424.37-245 .24-.15.4-.25 1-.68.34-.24 1.26-1 .06-.05q.55-.51 1.08-1l.32-.35q.4-.43.78-.9l.3-.36.88-1.23.29-.47.52-.89.31-.58.5-1.05.25-.59q.24-.62.45-1.23l.16-.54.33-1.25c0-.12 0-.23.08-.35l.27-1.66a.69.69 0 0 1 0-.13 1.62 1.62 0 0 0 0-.22c.06-.52.09-1 .1-1.57v-.35-.13zM532 730.86l287.8 32.92a20 20 0 0 0 6 .91c.46 0 .92 0 1.38-.07L874 770 532 967.43zm0-207.7l273.8-158.31V722L532 690.65zm-40 162.92l-71.23-8.15v-90.5L492 546.26zm353.72 40.46V341.76l70.65-40.85v433.71zM512 45l383.85 221.65-214.73 124.14L522 298.74a20 20 0 0 0-20 0l-158.49 92.07-215-124.36zM107.6 300.52l225 130.12a18.06 18.06 0 0 0 1.65.95l93.07 53.83a20 20 0 1 0 20-34.58l-63.94-37L512 339.11l129.2 74.75-136.36 78.85a20 20 0 0 0-5.48 3.16l-108.53 62.75a20 20 0 0 0-10 17.29v119.84a20 20 0 0 0 17.71 19.85L492 726.29v241.14L107.6 745.48z" fill="#e42527"></path></svg>