<?xml version="1.0" encoding="utf-8"?>

<svg version="1.2" baseProfile="tiny" id="Layer_1" xmlns="http://www.w3.org/2000/svg" xmlns:xlink="http://www.w3.org/1999/xlink" x="0px" y="0px" viewBox="0 0 1024 1024" overflow="visible" xml:space="preserve">
<g>
&#x9;<g>
&#x9;&#x9;<path fill="#226DB4" d="M60.4,385.8c-10.4,0-20.5-5.4-26-15l-22-38c-16.3-28.2-16.3-61.8,0-90c16.3-28.2,45.4-45,77.9-45h679.2&#xA;&#x9;&#x9;&#x9;c16.6,0,30,13.4,30,30c0,16.6-13.4,30-30,30H90.4c-15.6,0-23.4,10.5-26,15s-7.8,16.5,0,30l22,38c8.3,14.3,3.4,32.7-11,41&#xA;&#x9;&#x9;&#x9;C70.7,384.5,65.5,385.8,60.4,385.8z"></path>
&#x9;</g>
&#x9;<g>
&#x9;&#x9;<path fill="#E42527" d="M442.8,938.1c-50.6,0-95.9-26.2-121.2-70L116.4,512.8c-16.3-28.2-16.3-61.8,0-90&#xA;&#x9;&#x9;&#x9;c16.3-28.2,45.4-45,77.9-45h471.2c16.6,0,30,13.4,30,30s-13.4,30-30,30H194.3c-15.6,0-23.4,10.5-26,15c-2.6,4.5-7.8,16.5,0,30&#xA;&#x9;&#x9;&#x9;l205.1,355.3c14.5,25,40.4,40,69.3,40s54.8-15,69.3-40l90-155.9c8.3-14.3,26.6-19.3,41-11c14.3,8.3,19.3,26.6,11,41l-90,155.9&#xA;&#x9;&#x9;&#x9;C538.7,911.9,493.4,938.1,442.8,938.1z"></path>
&#x9;</g>
&#x9;<path fill="#089949" d="M1022.6,220.2l-30.1-112.1c0,0,0,0,0,0l0,0c0,0,0,0,0,0c-0.1-0.5-0.3-0.9-0.4-1.4c0-0.1-0.1-0.2-0.1-0.3&#xA;&#x9;&#x9;c-0.1-0.4-0.2-0.7-0.4-1.1c0-0.1-0.1-0.2-0.1-0.3c-0.1-0.4-0.3-0.7-0.4-1.1c0-0.1-0.1-0.1-0.1-0.2c-0.2-0.4-0.4-0.8-0.5-1.2&#xA;&#x9;&#x9;c0,0,0,0,0,0c-2.1-4.3-5.3-8.1-9.4-11c0,0,0,0,0,0c-0.4-0.3-0.8-0.6-1.2-0.8c-0.1-0.1-0.3-0.2-0.4-0.3c-0.3-0.2-0.6-0.4-0.9-0.5&#xA;&#x9;&#x9;c-0.4-0.2-0.7-0.4-1.1-0.6c-0.1,0-0.2-0.1-0.2-0.1c-5.4-2.8-11.4-3.8-17-3.1c0,0,0,0-0.1,0c-0.4,0.1-0.9,0.1-1.3,0.2&#xA;&#x9;&#x9;c-0.1,0-0.1,0-0.2,0c-0.4,0.1-0.8,0.2-1.2,0.2c-0.1,0-0.1,0-0.2,0c-0.5,0.1-1,0.2-1.4,0.3c0,0,0,0,0,0L843,117.2&#xA;&#x9;&#x9;c-16,4.3-25.5,20.7-21.2,36.8c4.3,16,20.7,25.5,36.8,21.2l42.8-11.5L696.8,518c-14.2,24.7-40.8,40-69.3,40H383.8&#xA;&#x9;&#x9;c-16.6,0-30,13.4-30,30s13.4,30,30,30h243.8c49.9,0,96.3-26.8,121.2-70l204.6-354.3l11.3,42.2c3.6,13.4,15.7,22.2,29,22.2&#xA;&#x9;&#x9;c2.6,0,5.2-0.3,7.8-1C1017.5,252.7,1026.9,236.2,1022.6,220.2z"></path>
</g>
</svg>