<svg width="65" height="40" viewBox="0 0 65 40" fill="none" xmlns="http://www.w3.org/2000/svg">
<mask id="mask0_1104_1535" style="mask-type:luminance" maskUnits="userSpaceOnUse" x="0" y="0" width="65" height="40">
<path d="M64.4037 0H0V39.7057H64.4037V0Z" fill="white"/>
</mask>
<g mask="url(#mask0_1104_1535)">
<path d="M40.6641 23.0385C41.3063 22.2194 42.4924 22.0752 43.3128 22.7164C44.1333 23.3575 44.2778 24.5413 43.6356 25.3603L35.1196 36.2193C35.1183 36.2207 35.117 36.2225 35.1157 36.2243C31.917 40.2743 26.0552 40.9957 21.9684 37.8639L21.8721 37.7893L21.8343 37.7589C21.0495 37.1086 20.9231 35.9486 21.558 35.1443C22.1929 34.34 23.3524 34.1914 24.1692 34.8011L24.2078 34.8307L24.2655 34.8757C26.7175 36.7546 30.2337 36.3214 32.1521 33.8921L40.6641 23.0385Z" fill="#226DB4"/>
<path d="M38.51 1.07075C39.8289 0.59507 41.2461 0.420463 42.6379 0.55782C45.4424 0.833748 48.0117 2.37357 49.571 4.71993L62.934 24.823L63.001 24.9248C65.795 29.2456 64.596 35.0186 60.2903 37.8707C55.9849 40.7221 50.19 39.5818 47.2872 35.3329L47.2192 35.2321L40.5774 25.2414L40.5513 25.2005C40.0088 24.3383 40.2518 23.1968 41.1066 22.6307C41.9746 22.0556 43.1457 22.292 43.7217 23.1587L50.3635 33.1493C52.0906 35.7471 55.6006 36.4561 58.2036 34.7321C60.8069 33.0075 61.5168 29.5036 59.7897 26.9056L46.4267 6.80246L46.4263 6.80225C45.4953 5.401 43.9453 4.47132 42.2673 4.30632L42.2665 4.30628C41.4318 4.22389 40.5799 4.32925 39.7927 4.61318L39.7924 4.61336C39.0968 4.86418 38.7236 5.19371 38.134 6.04246C36.5983 8.25175 34.9976 10.4492 33.4619 12.6066C31.3235 15.6119 29.1851 18.6174 27.0459 21.6222C25.1541 24.2799 23.2607 26.9412 21.3679 29.6001C20.9601 30.1729 20.5522 30.7457 20.1443 31.3189C19.7365 31.8918 19.3285 32.465 18.9205 33.0379C18.3169 33.8857 17.1389 34.0846 16.2895 33.4821C15.4401 32.8796 15.2409 31.7039 15.8446 30.8561C16.2524 30.2832 16.6602 29.7103 17.068 29.1372C17.4759 28.5642 17.8838 27.9911 18.2917 27.4181C20.1851 24.7585 22.0766 22.0999 23.9698 19.4404C26.1086 16.436 28.247 13.4308 30.3854 10.4256C31.9554 8.21993 33.512 6.08428 35.0332 3.89539C35.8734 2.68632 36.8098 1.68382 38.51 1.07075Z" fill="#E42527"/>
<path d="M20.3955 0.229362C21.573 -0.0797454 23.2332 -0.29371 25.0837 0.142576C26.9647 0.58604 28.9169 1.67322 30.6723 3.76818C31.3409 4.56604 31.2348 5.75386 30.4355 6.42118C29.6361 7.0885 28.4462 6.98265 27.7776 6.18479C26.5236 4.68818 25.2721 4.0574 24.2162 3.80843C23.1303 3.5524 22.1204 3.67129 21.3546 3.8724L21.3535 3.87265C20.8673 4.00004 20.4332 4.30404 20.1362 4.73358L4.72501 27.0706C4.7196 27.0785 4.71409 27.0863 4.70858 27.094C2.92686 29.5946 3.49445 33.0557 5.96875 34.86L6.03305 34.9061L6.10278 34.9561C7.67992 36.0754 9.63826 36.2679 11.3295 35.6357C12.3054 35.2707 13.3927 35.7646 13.7582 36.7386C14.1238 37.7129 13.629 38.7982 12.6531 39.1632L12.587 39.1875C9.78613 40.2107 6.536 39.8854 3.9161 38.0261C3.91416 38.0246 3.91223 38.0232 3.9103 38.0218L3.84035 37.9718C-0.377256 34.9775 -1.36691 29.1412 1.62149 24.9278L17.0293 2.59561L17.0304 2.594C17.829 1.43904 19.0175 0.590397 20.3955 0.229362Z" fill="#226DB4"/>
</g>
</svg>
