<?xml version="1.0" encoding="utf-8"?>

<svg version="1.1" id="Layer_1" xmlns="http://www.w3.org/2000/svg" xmlns:xlink="http://www.w3.org/1999/xlink" x="0px" y="0px" viewBox="0 0 1024 1024" style="enable-background:new 0 0 1024 1024;" xml:space="preserve">

<g>
&#x9;<g class="st2">
&#x9;&#x9;<path class="st1" d="M473.71,951.61c-7.23,0-14.27-2.62-19.78-7.44c-6.5-5.7-10.22-13.92-10.22-22.56V740.14&#xA;&#x9;&#x9;&#x9;c0-16.57,13.43-30,30-30s30,13.43,30,30v145.28c52.52-13.11,100.07-40.04,139.02-78.99c70.25-70.25,101.21-170.57,82.83-268.35&#xA;&#x9;&#x9;&#x9;c-3.06-16.28,7.66-31.97,23.94-35.03c16.28-3.06,31.97,7.66,35.03,23.94c22.05,117.27-15.1,237.59-99.37,321.86&#xA;&#x9;&#x9;&#x9;c-28.52,28.52-61.21,51.85-97.16,69.34c-34.76,16.91-71.89,28.06-110.36,33.14C476.33,951.52,475.02,951.61,473.71,951.61z"></path>
&#x9;</g>
&#x9;<g class="st2">
&#x9;&#x9;<path class="st1" d="M283.79,580.77h-181.3c-8.64,0-16.85-3.72-22.55-10.21c-5.7-6.49-8.32-15.12-7.2-23.68&#xA;&#x9;&#x9;&#x9;c5.05-38.54,16.19-75.74,33.11-110.56c17.5-36.02,40.86-68.77,69.42-97.33c84.38-84.38,204.84-121.5,322.23-99.3&#xA;&#x9;&#x9;&#x9;c16.28,3.08,26.98,18.77,23.9,35.05c-3.08,16.28-18.78,26.98-35.05,23.9c-97.88-18.51-198.32,12.43-268.66,82.77&#xA;&#x9;&#x9;&#x9;c-39.04,39.04-66,86.7-79.07,139.36h145.16c16.57,0,30,13.43,30,30S300.36,580.77,283.79,580.77z"></path>
&#x9;</g>
&#x9;<g class="st2">
&#x9;&#x9;<path class="st0" d="M396.32,815.83c-7.77,0-15.45-3.01-21.22-8.79l-158-158c-9.48-9.48-11.52-24.1-4.99-35.81&#xA;&#x9;&#x9;&#x9;c38.44-68.98,88.13-146.29,139.94-217.67c54.48-75.08,108.15-139.63,155.2-186.68c82.38-82.38,180.64-147.2,276.69-182.53&#xA;&#x9;&#x9;&#x9;C880.33-9.1,957.11-7.94,994.59,29.55c37.48,37.48,38.65,114.27,3.19,210.66c-35.33,96.04-100.15,194.31-182.53,276.69&#xA;&#x9;&#x9;&#x9;c-47.05,47.05-111.6,100.72-186.68,155.2C557.2,723.91,479.89,773.6,410.91,812.04C406.33,814.59,401.31,815.83,396.32,815.83z&#xA;&#x9;&#x9;&#x9; M275.66,622.76l125.73,125.73c135.95-78.16,286.19-188.76,371.45-274.02c39.65-39.65,74.89-83.17,104.74-129.34&#xA;&#x9;&#x9;&#x9;c26.85-41.53,48.94-84.97,63.9-125.63c29.23-79.47,26.03-132.18,10.69-147.52c-15.34-15.34-68.05-18.54-147.52,10.69&#xA;&#x9;&#x9;&#x9;c-40.66,14.96-84.1,37.05-125.63,63.9c-46.17,29.85-89.69,65.09-129.34,104.74C464.42,336.56,353.82,486.8,275.66,622.76z"></path>
&#x9;</g>
&#x9;<g class="st2">
&#x9;&#x9;<path class="st0" d="M290.38,855.91c-7.73,0-15.41-2.97-21.22-8.79l-91.25-91.25c-10.47-10.47-11.73-27.01-2.98-38.95l61.59-84.01&#xA;&#x9;&#x9;&#x9;c5.18-7.06,13.18-11.51,21.91-12.17c8.73-0.67,17.31,2.51,23.5,8.7l112.78,112.78c6.15,6.15,9.32,14.65,8.71,23.32&#xA;&#x9;&#x9;&#x9;c-0.61,8.67-4.95,16.65-11.9,21.87l-83.12,62.48C303.03,853.92,296.69,855.91,290.38,855.91z M238.53,731.64l54.64,54.64&#xA;&#x9;&#x9;&#x9;l34.68-26.07l-63.62-63.62L238.53,731.64z"></path>
&#x9;</g>
&#x9;<g class="st2">
&#x9;&#x9;<path class="st3" d="M31.63,1022.51c-7.68,0-15.36-2.93-21.21-8.79c-11.72-11.71-11.72-30.71,0-42.43l122.93-122.93&#xA;&#x9;&#x9;&#x9;c11.72-11.72,30.71-11.72,42.43,0c11.72,11.72,11.72,30.71,0,42.43L52.85,1013.72C46.99,1019.58,39.31,1022.51,31.63,1022.51z"></path>
&#x9;</g>
&#x9;<g class="st2">
&#x9;&#x9;<path class="st3" d="M183.59,1023.44c-7.68,0-15.36-2.93-21.21-8.79c-11.72-11.72-11.72-30.71,0-42.43l58.21-58.21&#xA;&#x9;&#x9;&#x9;c11.72-11.72,30.71-11.72,42.43,0c11.72,11.72,11.72,30.71,0,42.43l-58.21,58.21C198.95,1020.51,191.27,1023.44,183.59,1023.44z"></path>
&#x9;</g>
&#x9;<g class="st2">
&#x9;&#x9;<path class="st3" d="M30.42,870.82c-7.68,0-15.35-2.93-21.21-8.79c-11.72-11.71-11.72-30.71,0-42.43l57.93-57.93&#xA;&#x9;&#x9;&#x9;c11.72-11.72,30.71-11.72,42.43,0c11.72,11.72,11.72,30.71,0,42.43l-57.93,57.93C45.77,867.89,38.09,870.82,30.42,870.82z"></path>
&#x9;</g>
&#x9;<g class="st2">
&#x9;&#x9;<path class="st1" d="M748.8,365.62c-49.63,0-90-40.37-90-90s40.37-90,90-90s90,40.37,90,90S798.43,365.62,748.8,365.62z&#xA;&#x9;&#x9;&#x9; M748.8,245.62c-16.54,0-30,13.46-30,30s13.46,30,30,30s30-13.46,30-30S765.34,245.62,748.8,245.62z"></path>
&#x9;</g>
</g>
</svg>