<svg width="49" height="45" viewBox="0 0 49 45" fill="none" xmlns="http://www.w3.org/2000/svg">
<path d="M5.47105 40.0721C4.27162 40.0721 3.23414 39.1633 3.10087 37.9336V37.9285L0.0137411 8.55017C-0.0537371 7.91334 0.128454 7.28666 0.535011 6.79003C0.936506 6.29679 1.50501 5.98598 2.13593 5.91841H2.14099L15.7024 4.49274C16.4902 4.41165 17.1937 4.98091 17.2797 5.76976C17.3658 6.55861 16.7922 7.26301 16.0044 7.34915L2.91362 8.72753L5.89953 37.1532L8.08245 36.9235C8.87026 36.8424 9.57372 37.4117 9.65976 38.2005C9.74073 38.9894 9.17223 39.6938 8.38442 39.7799L5.73252 40.0569C5.64311 40.0671 5.55708 40.0721 5.47105 40.0721Z" fill="#E42527"/>
<path d="M42.4374 38.1532C42.3226 38.1532 42.2079 38.1431 42.0932 38.1295L39.4514 37.7562C38.667 37.6464 38.1238 36.9184 38.2335 36.1346C38.3431 35.3491 39.0702 34.8052 39.8529 34.915L42.0224 35.2208L45.9935 6.90995L17.7201 2.9336L16.4683 11.8576C16.3587 12.6431 15.6316 13.187 14.8489 13.0772C14.0644 12.9674 13.5212 12.2393 13.6309 11.4556L14.9501 2.0586C15.0361 1.42685 15.3651 0.867724 15.8813 0.479211C16.3924 0.0957646 17.0183 -0.0663974 17.6492 0.0248189L46.8673 4.13293C47.4982 4.21908 48.0566 4.54847 48.4446 5.06536C48.8276 5.57718 48.9895 6.20387 48.8984 6.83563L44.794 36.0941C44.708 36.7258 44.379 37.285 43.8628 37.6735C43.4445 37.991 42.9485 38.1532 42.4374 38.1532Z" fill="#226DB4"/>
<path d="M38.6906 44.5502H9.18914C7.86994 44.5502 6.80042 43.4775 6.80042 42.1583V12.6127C6.80042 11.2917 7.86994 10.2208 9.18914 10.2208H38.6957C40.0149 10.2208 41.0844 11.2917 41.0844 12.6127V42.1583C41.0844 42.1633 41.0844 42.1684 41.0844 42.1718C41.0709 43.4843 39.9997 44.5502 38.6906 44.5502ZM9.66655 41.6802H38.2183V13.0907H9.66655V41.6802Z" fill="#F9B21D"/>
<path d="M32.5501 20.2782H15.3482C14.5554 20.2782 13.9143 19.6363 13.9143 18.8424C13.9143 18.0484 14.5554 17.4066 15.3482 17.4066H32.5501C33.343 17.4066 33.984 18.0484 33.984 18.8424C33.984 19.6363 33.343 20.2782 32.5501 20.2782Z" fill="#226DB4"/>
<path d="M32.5501 25.9707H15.3482C14.5554 25.9707 13.9143 25.3289 13.9143 24.5349C13.9143 23.741 14.5554 23.0991 15.3482 23.0991H32.5501C33.343 23.0991 33.984 23.741 33.984 24.5349C33.984 25.3289 33.343 25.9707 32.5501 25.9707Z" fill="#226DB4"/>
<path d="M32.5501 31.665H15.3482C14.5554 31.665 13.9143 31.0231 13.9143 30.2292C13.9143 29.4353 14.5554 28.7934 15.3482 28.7934H32.5501C33.343 28.7934 33.984 29.4353 33.984 30.2292C33.984 31.0231 33.343 31.665 32.5501 31.665Z" fill="#226DB4"/>
<path d="M23.9247 37.3593H15.3668C14.5739 37.3593 13.9329 36.7174 13.9329 35.9235C13.9329 35.1296 14.5739 34.4877 15.3668 34.4877H23.9247C24.7176 34.4877 25.3586 35.1296 25.3586 35.9235C25.3586 36.7174 24.7193 37.3593 23.9247 37.3593Z" fill="#226DB4"/>
</svg>
