<?xml version="1.0" encoding="utf-8"?>

<svg version="1.1" id="Layer_1" xmlns="http://www.w3.org/2000/svg" xmlns:xlink="http://www.w3.org/1999/xlink" x="0px" y="0px" viewBox="0 0 1024 1024" style="enable-background:new 0 0 1024 1024;" xml:space="preserve">

<g>
&#x9;<g class="st0">
&#x9;&#x9;<path class="st1" d="M569.5,1023.3c-15.7,0-31.3-4.2-45.5-12.5L101.5,763c-28-16.4-44.6-45.7-44.5-78.2&#xA;&#x9;&#x9;&#x9;c0.2-32.5,17.2-61.5,45.4-77.6l515.2-294.1l0.4-0.2c14.3-8.3,32.7-3.4,41,10.9c8.3,14.3,3.4,32.7-10.9,41l-0.5,0.3&#xA;&#x9;&#x9;&#x9;c-0.1,0-0.1,0.1-0.2,0.1L132.2,659.3c-13.6,7.7-15.1,20.7-15.1,25.9s1.4,18.2,14.8,26.1l422.4,247.8c13.5,7.9,25.5,2.8,30,0.2&#xA;&#x9;&#x9;&#x9;c4.5-2.6,15.1-10.3,15.2-25.9l1.5-247.5c0.1-16.5,13.5-29.8,30-29.8c0.1,0,0.1,0,0.2,0c16.6,0.1,29.9,13.6,29.8,30.2l-1.5,247.5&#xA;&#x9;&#x9;&#x9;c-0.2,32.6-17.2,61.6-45.5,77.7C600,1019.4,584.7,1023.3,569.5,1023.3z"></path>
&#x9;</g>
&#x9;<g>
&#x9;&#x9;<path class="st2" d="M631,715.8c-0.1,0-0.1,0-0.2,0c-16.6-0.1-29.9-13.6-29.8-30.2l1.4-229.7c0.1-16.5,13.5-29.8,30-29.8&#xA;&#x9;&#x9;&#x9;c0.1,0,0.1,0,0.2,0c16.6,0.1,29.9,13.6,29.8,30.2L661,686C660.9,702.5,647.5,715.8,631,715.8z"></path>
&#x9;</g>
&#x9;<g class="st0">
&#x9;&#x9;<path class="st3" d="M874.2,848.9c-15.6,0-31.3-4.2-45.5-12.5L428.6,601.9c-14.3-8.4-19.1-26.8-10.7-41.1&#xA;&#x9;&#x9;&#x9;c8.4-14.3,26.8-19.1,41.1-10.7l400.1,234.5c13.5,7.9,25.5,2.8,30,0.2c4.5-2.6,15.1-10.3,15.2-25.9l3.1-489.8&#xA;&#x9;&#x9;&#x9;c0.1-15.6-10.3-23.4-14.8-26.1c-4.5-2.6-16.4-7.9-30-0.2L653.9,361.5c-14.4,8.2-32.7,3.2-40.9-11.2c-8.2-14.4-3.2-32.7,11.2-40.9&#xA;&#x9;&#x9;&#x9;l208.6-118.7c28.3-16.1,61.9-15.9,90,0.6c28.1,16.4,44.7,45.7,44.5,78.2l-3.1,489.8c-0.2,32.5-17.2,61.6-45.5,77.7&#xA;&#x9;&#x9;&#x9;C904.8,844.9,889.5,848.9,874.2,848.9z"></path>
&#x9;</g>
&#x9;<g>
&#x9;&#x9;<path class="st2" d="M631.9,564.1c-0.1,0-0.1,0-0.2,0c-16.6-0.1-29.9-13.6-29.8-30.2l2.8-442.2c0.1-15.6-10.4-23.5-14.9-26.1&#xA;&#x9;&#x9;&#x9;s-16.4-7.9-30-0.2L135,307.8c-13.6,7.7-15.1,20.7-15.1,25.9c0,5.2,1.4,18.2,14.8,26.1l101,59.1c14.3,8.4,19.1,26.7,10.7,41&#xA;&#x9;&#x9;&#x9;c-8.4,14.3-26.7,19.1-41,10.7l-101-59.1c-28.1-16.4-44.7-45.7-44.5-78.2c0.2-32.5,17.2-61.6,45.4-77.7L530,13.3&#xA;&#x9;&#x9;&#x9;c28.3-16.1,61.9-16,90,0.5c28.1,16.4,44.8,45.7,44.6,78.2l-2.8,442.2C661.7,550.8,648.3,564.1,631.9,564.1z"></path>
&#x9;</g>
</g>
</svg>