<?xml version="1.0" encoding="utf-8"?>

<svg version="1.1" id="Layer_1" xmlns="http://www.w3.org/2000/svg" xmlns:xlink="http://www.w3.org/1999/xlink" x="0px" y="0px" viewBox="0 0 1024 1024" style="enable-background:new 0 0 1024 1024;" xml:space="preserve">

<g>
&#x9;<g class="st0">
&#x9;&#x9;<path class="st1" d="M765.3,885c-10.4,0-20.5-5.4-26-15c-8.3-14.3-3.4-32.7,11-41L896,744.8c5.9-3.4,9.6-9.8,9.6-16.7V295.9&#xA;&#x9;&#x9;&#x9;c0-6.9-3.7-13.3-9.6-16.7L521.6,63c-5.9-3.4-13.3-3.4-19.3,0l-91.9,53.1c-5.9,3.4-9.6,9.8-9.6,16.7V546c0,6.9,3.7,13.3,9.6,16.7&#xA;&#x9;&#x9;&#x9;L556.5,647c14.3,8.3,19.3,26.6,11,41c-8.3,14.3-26.6,19.3-41,11l-146.1-84.4c-24.4-14.1-39.6-40.4-39.6-68.7V132.8&#xA;&#x9;&#x9;&#x9;c0-28.2,15.2-54.5,39.6-68.7L472.4,11c24.4-14.1,54.8-14.1,79.3,0L926,227.2c24.4,14.1,39.6,40.4,39.6,68.7v432.3&#xA;&#x9;&#x9;&#x9;c0,28.2-15.2,54.5-39.6,68.7l-145.7,84.1C775.5,883.7,770.4,885,765.3,885z"></path>
&#x9;</g>
&#x9;<g class="st0">
&#x9;&#x9;<path class="st2" d="M512,1023.5c-13.7,0-27.4-3.5-39.6-10.6L98,796.8c-24.4-14.1-39.6-40.4-39.6-68.7V295.9&#xA;&#x9;&#x9;&#x9;c0-28.2,15.2-54.5,39.6-68.7l145.7-84.1c14.3-8.3,32.7-3.4,41,11c8.3,14.3,3.4,32.7-11,41L128,279.2c-5.9,3.4-9.6,9.8-9.6,16.7&#xA;&#x9;&#x9;&#x9;v432.3c0,6.9,3.7,13.3,9.6,16.7L502.4,961c5.9,3.4,13.3,3.4,19.3,0l91.9-53.1c5.9-3.4,9.6-9.8,9.6-16.7V478&#xA;&#x9;&#x9;&#x9;c0-6.9-3.7-13.3-9.6-16.7l-145.4-83.9c-14.3-8.3-19.3-26.6-11-41c8.3-14.3,26.6-19.3,41-11l145.4,83.9&#xA;&#x9;&#x9;&#x9;c24.5,14.1,39.6,40.4,39.6,68.7v413.2c0,28.2-15.2,54.5-39.6,68.7l-91.9,53.1C539.4,1020,525.7,1023.5,512,1023.5z"></path>
&#x9;</g>
</g>
</svg>