<svg width="49" height="42" viewBox="0 0 49 42" fill="none" xmlns="http://www.w3.org/2000/svg">
<path d="M41.0019 36.476C40.8003 36.476 40.5986 36.4591 40.3969 36.4253L35.9433 35.8003C35.1702 35.682 34.6156 34.9557 34.7333 34.1787C34.8509 33.4016 35.5736 32.8442 36.3467 32.9624L40.8003 33.5874C41.5733 33.7057 42.296 33.1482 42.4136 32.3712L45.8589 7.69217C45.9093 7.32055 45.8084 6.93203 45.59 6.62798C45.3547 6.32393 45.0354 6.12122 44.6488 6.07055L22.0615 2.89487C21.2885 2.77663 20.5658 3.33406 20.4482 4.11109L20.028 7.08406C19.9104 7.86109 19.1877 8.41852 18.4146 8.30028C17.6416 8.18203 17.087 7.45568 17.2046 6.67865L17.6248 3.70568C17.9609 1.35771 20.1288 -0.280804 22.4649 0.0401416L45.0522 3.23271C46.1782 3.38474 47.1865 3.97595 47.8756 4.90501C48.5646 5.81717 48.8503 6.94893 48.6991 8.09757L45.2538 32.7766C44.9345 34.9219 43.1027 36.476 41.0019 36.476Z" fill="#089949"/>
<path d="M5.30589 41.155C4.60004 41.155 3.99502 40.6313 3.89419 39.9219L0.0456074 12.405C-0.122453 11.2732 0.180056 10.1415 0.852296 9.22932C1.54134 8.31715 2.5497 7.72594 3.67571 7.55702L26.263 4.36445C28.599 4.02661 30.767 5.68202 31.1031 8.02999L34.3131 30.9523C34.4307 31.7293 33.8761 32.4557 33.103 32.5739C32.33 32.6922 31.6073 32.1347 31.4897 31.3577L28.2797 8.4185C28.1621 7.64148 27.4394 7.08405 26.6663 7.20229L4.07905 10.3949C3.70932 10.4455 3.3732 10.6482 3.13792 10.9523C2.90263 11.2563 2.8186 11.628 2.86902 12.0165L6.7176 39.5334C6.83524 40.3104 6.28064 41.0367 5.50756 41.155C5.44034 41.155 5.37312 41.155 5.30589 41.155Z" fill="#E42527"/>
<path d="M42.7497 13.9421C42.7497 11.5773 40.8338 9.6347 38.4642 9.6347C36.0945 9.6347 34.1786 11.5604 34.1786 13.9421C34.1786 15.4286 34.9181 16.7293 36.0609 17.5063L32.9182 29.7023C32.1283 29.7698 31.4056 30.057 30.7838 30.4962L20.5826 23.6043C20.6666 23.2665 20.717 22.8948 20.717 22.5401C20.717 20.1752 18.8011 18.2327 16.4315 18.2327C14.0618 18.2327 12.1459 20.1584 12.1459 22.5401C12.1459 23.5198 12.4821 24.432 13.0198 25.1584L4.07904 38.9421C3.64209 39.6009 3.84376 40.4962 4.49919 40.9354C4.73448 41.0874 5.00337 41.1719 5.27227 41.1719C5.74284 41.1719 6.1966 40.9354 6.4655 40.5131L15.4063 26.7293C15.7256 26.8138 16.0617 26.8475 16.4147 26.8475C17.3726 26.8475 18.2465 26.5266 18.9692 26.003L29.1368 32.878C29.036 33.2327 28.9856 33.6212 28.9856 34.0097C28.9856 36.3746 30.9014 38.3171 33.2711 38.3171C35.6239 38.3171 37.5566 36.3915 37.5566 34.0097C37.5566 32.5232 36.8004 31.2057 35.6576 30.4455L38.8003 18.2665C41.0187 18.0469 42.7497 16.1888 42.7497 13.9421ZM38.4642 12.5232C39.254 12.5232 39.8927 13.1651 39.8927 13.959C39.8927 14.7529 39.254 15.3948 38.4642 15.3948C37.6743 15.3948 37.0356 14.7529 37.0356 13.959C37.0356 13.1651 37.6743 12.5232 38.4642 12.5232ZM15.0198 22.5401C15.0198 21.7462 15.6584 21.1043 16.4483 21.1043C17.2382 21.1043 17.8768 21.7462 17.8768 22.5401C17.8768 22.8104 17.8096 23.0638 17.6751 23.2665C17.6583 23.2834 17.6415 23.3171 17.6247 23.334C17.6079 23.3509 17.5911 23.3847 17.5743 23.4016C17.3054 23.7394 16.902 23.9759 16.4483 23.9759C15.6584 23.959 15.0198 23.334 15.0198 22.5401ZM33.3047 35.4117C32.5148 35.4117 31.8762 34.7698 31.8762 33.9759C31.8762 33.182 32.5148 32.5401 33.3047 32.5401C34.0946 32.5401 34.7332 33.182 34.7332 33.9759C34.7332 34.7698 34.0946 35.4117 33.3047 35.4117Z" fill="#226DB4"/>
</svg>
