<svg xmlns="http://www.w3.org/2000/svg" viewBox="0 0 1024 1024" fill="#e42527"><path d="M957.55 757.7l.07-491.53c0-7.14-3.81-13.73-9.99-17.3L522.06 3.16c-5.33-3.02-13.05-4.04-19.98 0L76.43 248.99a20 20 0 0 0-9.99 17.3l-.07 491.53c.26 6.16 2.36 12.69 10.05 17.34l425.52 245.67c6.18 3.57 13.8 3.57 19.98 0L947.57 775a19.97 19.97 0 0 0 9.98-17.3zM492.09 55.07l-.03 247.64-161.26 93.13a20 20 0 0 0-9.99 17.3l-.02 185.56-214.45 124.43.06-445.31L492.09 55.07zM360.74 575.52l.02-150.85 131.29-75.82-.02 150.5-131.29 76.17zm151.19 404.94l-121.78-70.31c21.22-27.84 51.13-47.57 85.54-56.15 39.13-9.76 79.91-4.02 114.85 16.15 17.6 10.16 32.65 23.25 44.86 39.01l-123.47 71.3zm158.3-91.43a195.54 195.54 0 0 0-59.72-53.49c-43.95-25.37-95.26-32.59-144.49-20.31-44.97 11.21-83.84 37.59-110.69 74.81l-229.1-132.27L511.04 534.5l341.87 197.38c9.55 5.52 21.77 2.24 27.29-7.31s2.24-21.77-7.31-27.29L531.98 500.46l.06-445.4L917.67 277.7l-.06 468.47-247.38 142.86zm-122.7-251.44c-33.39-19.28-76.23-7.8-95.51 25.59s-7.8 76.23 25.59 95.51 76.23 7.8 95.51-25.59 7.8-76.24-25.59-95.51zm-49.94 86.5c-14.31-8.26-19.23-26.62-10.97-40.93s26.62-19.23 40.93-10.97 19.23 26.62 10.97 40.93-26.62 19.23-40.93 10.97z"></path></svg>