<svg width="49" height="49" viewBox="0 0 49 49" fill="none" xmlns="http://www.w3.org/2000/svg">
<path d="M24.2252 17.4113C21.7419 17.4113 19.7316 15.4012 19.7316 12.9181C19.7316 10.435 21.7419 8.42483 24.2252 8.42483C26.7086 8.42483 28.7189 10.435 28.7189 12.9181C28.7189 15.3843 26.7086 17.4113 24.2252 17.4113ZM24.2252 11.2796C23.3299 11.2796 22.6035 12.0059 22.6035 12.9012C22.6035 13.7965 23.3299 14.5228 24.2252 14.5228C25.1206 14.5228 25.847 13.7965 25.847 12.9012C25.847 12.0059 25.1206 11.2796 24.2252 11.2796Z" fill="#226DB4"/>
<path d="M14.5283 48.9823C13.7681 48.9823 13.0248 48.7796 12.366 48.4079L2.16236 42.5127C0.827778 41.7356 0 40.3167 0 38.7796V27.0059C0 25.4687 0.827778 24.0498 2.16236 23.2728L10.4401 18.5093C11.1328 18.1039 12.0112 18.3404 12.3998 19.0329C12.8052 19.7255 12.5687 20.6039 11.8761 20.9924L3.5983 25.7559C3.15907 26.0093 2.87188 26.4823 2.87188 27.0059V38.7796C2.87188 39.2863 3.14218 39.7593 3.5983 40.0296L13.8019 45.9248C14.2412 46.1782 14.7986 46.1782 15.2379 45.9248L23.4988 41.1444C24.1914 40.739 25.0698 40.9755 25.4584 41.6681C25.8638 42.3606 25.6273 43.239 24.9347 43.6275L16.6738 48.391C16.015 48.7796 15.2717 48.9823 14.5283 48.9823Z" fill="#E42527"/>
<path d="M33.9219 48.9823C33.1617 48.9823 32.4184 48.7796 31.7596 48.4079L23.4818 43.6275C22.7892 43.2221 22.5527 42.3606 22.9581 41.6681C23.3636 40.9755 24.2251 40.739 24.9177 41.1444L33.1955 45.9248C33.6348 46.1782 34.1922 46.1782 34.6315 45.9248L44.8351 40.0296C45.2743 39.7762 45.5615 39.3032 45.5615 38.7796V27.0059C45.5615 26.4992 45.2912 26.0262 44.8351 25.7559L36.5742 20.9924C35.8816 20.587 35.6451 19.7255 36.0505 19.0329C36.456 18.3404 37.3175 18.1039 38.0102 18.5093L46.271 23.2728C47.6056 24.0498 48.4334 25.4687 48.4334 27.0059V38.7796C48.4334 40.3167 47.6056 41.7356 46.271 42.5127L36.0674 48.4079C35.4255 48.7796 34.6821 48.9823 33.9219 48.9823Z" fill="#F9B21D"/>
<path d="M11.1497 21.1951C10.3557 21.1951 9.71375 20.5532 9.71375 19.7593V10.1985C9.71375 8.66132 10.5415 7.2424 11.8761 6.46537L22.0797 0.570101C23.4143 -0.190034 25.053 -0.190034 26.3876 0.570101L36.5912 6.46537C37.9258 7.2424 38.7535 8.66132 38.7535 10.1985V19.7593C38.7535 20.5532 38.1116 21.1951 37.3176 21.1951C36.5236 21.1951 35.8817 20.5532 35.8817 19.7593V10.1985C35.8817 9.69172 35.6114 9.21875 35.1552 8.94848L24.9516 3.05321C24.5124 2.79983 23.9549 2.79983 23.5157 3.05321L13.312 8.94848C12.8728 9.20186 12.5856 9.67483 12.5856 10.1985V19.7593C12.5856 20.5363 11.9437 21.1951 11.1497 21.1951Z" fill="#089949"/>
<path d="M20.8464 30.6546C20.593 30.6546 20.3565 30.587 20.12 30.4687L11.8591 25.7052C10.5246 24.9282 9.69678 23.5093 9.69678 21.9721V19.7593C9.69678 18.9654 10.3387 18.3235 11.1327 18.3235C11.9267 18.3235 12.5687 18.9654 12.5687 19.7593V21.9552C12.5687 22.462 12.839 22.935 13.2951 23.2052L21.556 27.9856C22.2486 28.391 22.4851 29.2525 22.0797 29.9451C21.8431 30.3843 21.3701 30.6715 20.8464 30.6546Z" fill="#226DB4"/>
<path d="M27.6038 30.6715C26.8098 30.6715 26.1678 30.0296 26.1678 29.2356C26.1678 28.7289 26.4381 28.239 26.8943 27.9856L35.172 23.2052C35.6113 22.9519 35.8985 22.4789 35.8985 21.9552V19.7424C35.8985 18.9485 36.5404 18.3066 37.3344 18.3066C38.1284 18.3066 38.7703 18.9485 38.7703 19.7424V21.9721C38.7703 23.5093 37.9426 24.9282 36.608 25.7052L28.3302 30.4687C28.0937 30.6039 27.8572 30.6715 27.6038 30.6715Z" fill="#226DB4"/>
<path d="M24.2251 24.8438C23.4311 24.8438 22.7892 24.2019 22.7892 23.4079C22.7892 22.9012 23.0595 22.4113 23.5156 22.1579L31.7765 17.3944C33.1111 16.6343 34.7497 16.6343 36.0843 17.3944L38.0271 18.5093C38.7197 18.9147 38.9562 19.7762 38.5507 20.4687C38.1453 21.1613 37.2837 21.3978 36.5911 20.9924L34.6484 19.8775C34.2091 19.6242 33.6517 19.6242 33.2124 19.8775L24.9515 24.641C24.715 24.7762 24.4785 24.8438 24.2251 24.8438Z" fill="#226DB4"/>
<path d="M24.2082 43.8133C23.9548 43.8133 23.7183 43.7458 23.4818 43.6275L21.5559 42.5127C20.2213 41.7356 19.4104 40.3167 19.3936 38.7796V29.2188C19.3936 28.4248 20.0355 27.7829 20.8295 27.7829C21.6235 27.7829 22.2654 28.4248 22.2654 29.2188V38.7796C22.2654 39.2863 22.5357 39.7593 22.9919 40.0296L24.9177 41.1444C25.6103 41.5498 25.8468 42.4113 25.4414 43.1039C25.2049 43.5431 24.7319 43.8133 24.2082 43.8133Z" fill="#226DB4"/>
<path d="M24.2251 43.8302C23.4311 43.8302 22.7892 43.1883 22.7892 42.3944C22.7892 41.8877 23.0595 41.3978 23.5156 41.1444L25.4583 40.0296C25.8976 39.7762 26.1848 39.3032 26.1848 38.7796V29.2188C26.1848 28.4248 26.8267 27.7829 27.6207 27.7829C28.4147 27.7829 29.0566 28.4248 29.0566 29.2188V38.7796C29.0566 40.3167 28.2289 41.7356 26.8943 42.5127L24.9515 43.6275C24.715 43.7627 24.4785 43.8302 24.2251 43.8302Z" fill="#226DB4"/>
<path d="M24.2251 24.8438C23.9717 24.8438 23.7352 24.7762 23.4987 24.6579L15.2378 19.8775C14.7986 19.6242 14.2411 19.6242 13.8019 19.8775L11.876 20.9924C11.1834 21.3978 10.3049 21.1613 9.91636 20.4687C9.51092 19.7762 9.74743 18.8978 10.4401 18.5093L12.3659 17.3944C13.7005 16.6343 15.3392 16.6343 16.6737 17.3944L24.9346 22.1748C25.6272 22.5802 25.8638 23.4417 25.4583 24.1343C25.2218 24.5566 24.7319 24.8438 24.2251 24.8438Z" fill="#226DB4"/>
</svg>
