<?xml version="1.0" encoding="utf-8"?>

<svg version="1.1" id="Layer_1" xmlns="http://www.w3.org/2000/svg" xmlns:xlink="http://www.w3.org/1999/xlink" x="0px" y="0px" viewBox="0 0 1024 1024" style="enable-background:new 0 0 1024 1024;" xml:space="preserve">

<title>Phone bridge_final</title>
<g class="st0">
&#x9;<path class="st1" d="M512,1023.5L512,1023.5c-69.1,0.2-135.4-27.3-184.1-76.3L76.8,696.1c-101.7-101.7-101.7-266.5,0-368.2&#xA;&#x9;&#x9;c0,0,0,0,0,0l51.9-52c11.7-11.7,30.7-11.7,42.4,0c11.7,11.7,11.7,30.7,0,42.4l-51.9,52c-78.1,78.1-78.1,205.2,0,283.4l251.1,251.1&#xA;&#x9;&#x9;c78.1,78.1,205.2,78.1,283.4,0l83.1-83.1c11.8-11.8,11.8-30.8,0-42.6l-77.1-77.1c-5.6-5.7-13.3-8.8-21.3-8.8h-0.1&#xA;&#x9;&#x9;c-8,0-15.7,3.2-21.3,8.9l-41.2,41.5c-16.8,17.1-39.8,26.7-63.8,26.6h-0.2c-23.9,0.1-46.8-9.4-63.7-26.3L312.8,608.6&#xA;&#x9;&#x9;c-14.8-14.8-23.8-33.2-26.1-53.2c-4-37.8,15.7-74.1,49.5-91.4c18-9,38.4-11.5,58.8-7.2l246.8,51.9c20.4,4.3,30.1-10.5,32.6-15.1&#xA;&#x9;&#x9;s9.6-20.9-5.1-35.6L534.2,322.4c-5.6-5.7-13.3-8.9-21.2-8.9l0,0c-8,0-15.7,3.2-21.3,8.8l-42.2,42.1c-35.2,35.2-92.2,35.2-127.4,0&#xA;&#x9;&#x9;l-77.3-77.3c-35.2-35.2-35.2-92.2,0-127.4c0,0,0,0,0,0l83.1-83.1c48.7-49,115-76.4,184.1-76.3l0,0c69.1-0.2,135.4,27.3,184.1,76.3&#xA;&#x9;&#x9;l251.1,251.1c101.7,101.7,101.7,266.5,0,368.2c0,0,0,0,0,0l-51.4,51.5c-11.7,11.7-30.7,11.7-42.4,0s-11.7-30.7,0-42.4l51.5-51.5&#xA;&#x9;&#x9;c78.1-78.1,78.1-205.2,0-283.4L653.7,119.2c-78.1-78.1-205.2-78.1-283.4,0l-83.1,83.1c-11.7,11.8-11.7,30.8,0,42.6l77.3,77.3&#xA;&#x9;&#x9;c11.8,11.7,30.8,11.7,42.6,0l42.1-42.1c16.9-17,39.8-26.5,63.7-26.4h0.1c23.9-0.1,46.9,9.5,63.7,26.5l135.1,135.6&#xA;&#x9;&#x9;c14.5,14.3,23.7,33,26,53.2c4,37.8-15.7,74.1-49.5,91.3c-18,9-38.3,11.5-58.8,7.2l-246.8-51.9c-20.4-4.3-30.2,10.5-32.7,15.1&#xA;&#x9;&#x9;s-9.5,20.9,5.2,35.6l135.4,135.3c5.6,5.7,13.3,8.8,21.3,8.8h0.1c8,0,15.7-3.2,21.3-8.9l41.2-41.5c16.8-17.1,39.8-26.7,63.8-26.7&#xA;&#x9;&#x9;h0.2c23.9-0.1,46.8,9.4,63.7,26.4l77.1,77.1c35.2,35.2,35.2,92.2,0,127.4c0,0,0,0,0,0l-83.1,83.1&#xA;&#x9;&#x9;C647.4,996.2,581.1,1023.7,512,1023.5z"></path>
</g>
</svg>