<?xml version="1.0" encoding="UTF-8"?><svg id="Layer_1" xmlns="http://www.w3.org/2000/svg" viewBox="0 0 1024 1024" fill="#069949"><path d="m1022.48,273.56c-2.06-7.69-7.09-14.24-13.98-18.22l-310.44-179.23c-6.89-3.98-15.08-5.06-22.76-3-7.69,2.06-14.24,7.09-18.22,13.98l-86.92,150.55-129.25-74.62c-14.35-8.29-32.7-3.37-40.98,10.98l-86.93,150.56-129.22-74.61c-14.35-8.29-32.7-3.37-40.98,10.98L28.56,458.8c-57.69,99.91-23.33,228.13,76.58,285.82l305.83,176.57c.42.24.85.48,1.28.7,1.1.66,2.21,1.32,3.33,1.96,32.24,18.61,68.02,28.12,104.28,28.12,18.17,0,36.47-2.39,54.49-7.22,53.98-14.46,99.1-49.09,127.05-97.49l318.08-550.93c3.98-6.89,5.06-15.08,3-22.76Zm-585.59-43.58l129.25,74.62s0,0,0,0h0s129.62,74.84,129.62,74.84l-173.85,301.11-103.64-59.84,86.92-150.55c8.28-14.35,3.37-32.7-10.98-40.98l-129.25-74.62,71.93-124.58Zm-118.79,566.81c.16.59.32,1.17.48,1.76l-183.43-105.9c-71.26-41.14-95.77-132.59-54.62-203.85l99.23-171.88,258.48,149.23-99.23,171.88c-27.94,48.4-35.37,104.79-20.9,158.77Zm331.34,20.46c-41.14,71.26-132.59,95.77-203.85,54.62-69.7-40.24-94.66-128.61-57.22-199.14l129.53,74.78c4.73,2.73,9.88,4.02,14.97,4.02,10.37,0,20.45-5.38,26.01-15l203.85-353.08c3.98-6.89,5.06-15.08,3-22.76-2.06-7.69-7.09-14.24-13.98-18.22l-129.62-74.84,71.92-124.57,258.48,149.23-303.08,524.95Z" style="fill:#089949;"></path></svg>