<svg xmlns="http://www.w3.org/2000/svg" viewBox="0 0 1024 1024"><path d="M715.75 844.54a29.89 29.89 0 0 1-21.21-8.79c-11.72-11.72-11.72-30.71 0-42.43l260.11-260.11c5.67-5.67 8.79-13.2 8.79-21.21s-3.12-15.55-8.79-21.21l-76.35-76.35c-11.72-11.72-11.72-30.71 0-42.43 11.71-11.72 30.71-11.72 42.43 0l76.35 76.35c17 17 26.36 39.6 26.36 63.64s-9.36 46.64-26.36 63.64L736.96 835.75c-5.85 5.86-13.53 8.79-21.21 8.79z" fill="#f9b21d" opacity=".9"></path><path d="M814.66 338.37c-7.68 0-15.36-2.93-21.21-8.79L533.21 69.35c-5.67-5.67-13.2-8.79-21.21-8.79s-15.55 3.12-21.21 8.79l-76.54 76.54c-11.72 11.72-30.71 11.72-42.43 0s-11.72-30.71 0-42.43l76.54-76.54c17-17 39.6-26.36 63.64-26.36s46.64 9.36 63.64 26.36l260.23 260.23c11.72 11.72 11.72 30.71 0 42.43a29.89 29.89 0 0 1-21.21 8.79z" fill="#e42527" opacity=".9"></path><path d="M124.81 661.1c-7.68 0-15.36-2.93-21.21-8.79l-76.68-76.67C9.92 558.64.56 536.04.56 512s9.36-46.64 26.36-63.64l260.25-260.25c11.72-11.72 30.71-11.72 42.43 0s11.72 30.71 0 42.43L69.35 490.79c-5.67 5.67-8.79 13.2-8.79 21.21s3.12 15.55 8.79 21.21l76.68 76.67c11.72 11.72 11.72 30.71 0 42.43-5.86 5.86-13.54 8.79-21.22 8.79z" fill="#009849" opacity=".9"></path><path d="M512 1023.44c-24.04 0-46.64-9.36-63.64-26.36L188.17 736.89c-11.72-11.72-11.72-30.71 0-42.43s30.71-11.72 42.43 0l260.19 260.19c5.67 5.67 13.2 8.79 21.21 8.79s15.55-3.12 21.21-8.79l76.16-76.16c11.71-11.72 30.71-11.72 42.43 0 11.72 11.71 11.72 30.71 0 42.43l-76.16 76.16c-17 16.99-39.6 26.36-63.64 26.36z" fill="#226db4" opacity=".9"></path><path d="M729.65 660.59c-7.68 0-15.36-2.93-21.21-8.79l-118.6-118.6c-11.72-11.72-11.72-30.71 0-42.43L878.3 202.3c11.71-11.72 30.71-11.72 42.43 0s11.72 30.71 0 42.43L653.47 511.98l97.39 97.39c11.72 11.72 11.72 30.71 0 42.43-5.85 5.86-13.53 8.79-21.21 8.79z" fill="#e42527" opacity=".9"></path><path d="M512.06 443c-7.96 0-15.59-3.16-21.21-8.79L202.3 145.67c-11.72-11.72-11.72-30.71 0-42.43s30.71-11.72 42.43 0l267.33 267.33 97.5-97.5c11.71-11.71 30.71-11.71 42.43 0 11.72 11.72 11.72 30.71 0 42.43L533.27 434.21c-5.62 5.63-13.25 8.79-21.21 8.79z" fill="#009849" opacity=".9"></path><path d="M800.29 929.08c-7.68 0-15.36-2.93-21.21-8.79L512.12 653.34l-97.87 97.87c-11.72 11.72-30.71 11.72-42.43 0s-11.72-30.71 0-42.43L490.91 589.7c5.63-5.63 13.26-8.79 21.21-8.79 7.96 0 15.59 3.16 21.21 8.79L821.5 877.87c11.72 11.72 11.72 30.71 0 42.43-5.85 5.85-13.53 8.78-21.21 8.78z" fill="#f9b21d" opacity=".9"></path><path d="M124.23 830.83c-7.68 0-15.36-2.93-21.21-8.79-11.72-11.72-11.72-30.71 0-42.43l267.7-267.7-97.94-97.94c-11.72-11.72-11.72-30.71 0-42.43s30.71-11.72 42.43 0l119.15 119.15c5.63 5.63 8.79 13.26 8.79 21.21 0 7.96-3.16 15.59-8.79 21.21L145.44 822.04a29.91 29.91 0 0 1-21.21 8.79z" fill="#226db4" opacity=".9"></path></svg>