<?xml version="1.0" encoding="UTF-8"?>
<svg id="Layer_1" data-name="Layer 1" xmlns="http://www.w3.org/2000/svg" viewBox="0 0 1024 1024" fill="#3949ab">
  <defs>
    
  </defs>
  <path class="cls-1" d="m958.04,265.74c0-.2-.01-.4-.02-.6-.02-.4-.05-.8-.09-1.19-.02-.18-.03-.35-.05-.53-.07-.52-.16-1.04-.27-1.55-.04-.2-.09-.39-.14-.59-.1-.42-.22-.83-.35-1.24-.04-.14-.08-.28-.13-.42-.18-.54-.39-1.06-.61-1.57-.06-.14-.12-.28-.19-.41-.51-1.09-1.11-2.13-1.8-3.12-.09-.13-.18-.25-.27-.37-.33-.45-.68-.89-1.05-1.31-.1-.12-.21-.22-.31-.33-.29-.31-.58-.61-.89-.9-.15-.14-.3-.29-.45-.43-.38-.35-.78-.68-1.19-1-.15-.12-.31-.22-.46-.33-.31-.22-.63-.44-.95-.65-.18-.11-.36-.23-.54-.34-.08-.04-.15-.09-.22-.14L522,2.72c-6.19-3.57-13.81-3.57-20,0L75.95,248.7c-6.19,3.57-10,10.17-10,17.32v491.96c0,7.15,3.81,13.75,10,17.32l426.05,245.98c.08.05.16.08.24.13.18.1.36.2.55.29.35.18.7.35,1.06.51.17.07.33.16.5.23.48.2.97.38,1.47.54.2.06.39.12.59.18.41.12.82.22,1.23.32.15.03.29.07.44.1.55.11,1.11.19,1.66.25.15.02.31.03.46.05.6.05,1.2.09,1.79.09s1.2-.04,1.79-.09c.15-.01.31-.03.46-.05.56-.06,1.11-.14,1.66-.25.15-.03.3-.07.45-.1.41-.09.82-.2,1.23-.32.2-.06.4-.11.59-.18.49-.16.98-.34,1.47-.54.17-.07.34-.15.5-.23.36-.16.71-.33,1.06-.51.18-.1.37-.19.55-.29.08-.04.16-.08.24-.13l426.05-245.98c6.19-3.57,10-10.17,10-17.32v-491.96c0-.09,0-.19,0-.28Zm-426.04,257.81l129.79-74.93v150.15l-129.79,74.93v-150.15Zm-20-34.64l-261.57-151.02,156.29-90.3,95.28,55.01c3.09,1.79,6.55,2.68,10,2.68s6.91-.89,10-2.68l214.76-123.99c1.59-.92,2.99-2.03,4.22-3.28l157.08,90.69-386.05,222.89ZM105.95,277.57L512,43.13l189.71,109.53-189.71,109.53-95.28-55.01c-.16-.09-.32-.16-.48-.24-.36-.19-.71-.38-1.08-.55-.28-.13-.56-.25-.85-.36-.3-.13-.61-.25-.92-.36-.34-.12-.68-.22-1.02-.33-.27-.08-.54-.16-.81-.23-.37-.09-.73-.17-1.1-.24-.27-.05-.53-.1-.8-.14-.36-.05-.72-.1-1.08-.13-.29-.03-.58-.05-.88-.07-.33-.02-.66-.02-.99-.02-.33,0-.67,0-1,.02-.29.01-.58.04-.87.07-.37.03-.73.08-1.1.13-.26.04-.52.09-.79.14-.37.07-.74.15-1.11.24-.27.07-.53.14-.8.22-.34.1-.69.21-1.03.33-.31.11-.61.23-.91.36-.28.12-.57.23-.85.36-.37.17-.72.36-1.08.55-.16.09-.32.15-.48.24l-186.27,107.62-40.18-23.2c-9.57-5.52-21.8-2.25-27.32,7.32-5.52,9.57-2.25,21.8,7.32,27.32l50.25,29.01s.09.05.14.08l291.36,168.22v445.77l-386.05-222.89v-468.87Zm426.05,691.75v-249.43l159.79-92.25c6.19-3.57,10-10.17,10-17.32v-184.8l216.26-124.86v445.77l-386.05,222.89Z"></path>
  <path class="cls-1" d="m781.08,243.29c-5.52-9.57-17.75-12.84-27.32-7.32l-241.76,139.58-118.09-68.18c-9.57-5.52-21.8-2.25-27.32,7.32-5.52,9.57-2.25,21.8,7.32,27.32l128.09,73.95c3.09,1.79,6.55,2.68,10,2.68s6.91-.89,10-2.68l251.76-145.35c9.57-5.52,12.84-17.75,7.32-27.32Z"></path>
</svg>