<?xml version="1.0" encoding="utf-8"?>

<svg version="1.1" id="Layer_1" xmlns="http://www.w3.org/2000/svg" xmlns:xlink="http://www.w3.org/1999/xlink" x="0px" y="0px" viewBox="0 0 1080 1080" style="enable-background:new 0 0 1080 1080;" xml:space="preserve">

<g id="a">
</g>
<g id="b">
&#x9;<g id="c">
&#x9;&#x9;<g>
&#x9;&#x9;&#x9;<path class="st0" d="M540,968.3c-236.1,0-428.3-192.1-428.3-428.3S303.9,111.7,540,111.7S968.3,303.9,968.3,540&#xA;&#x9;&#x9;&#x9;&#x9;c0,50.1-40.6,90.8-90.8,90.8s-90.8-40.6-90.8-90.8c0-136-110.7-246.7-246.7-246.7S293.3,404,293.3,540S403.9,786.7,540,786.7&#xA;&#x9;&#x9;&#x9;&#x9;c50.1,0,90.8,40.6,90.8,90.8S590.1,968.3,540,968.3L540,968.3z"></path>
&#x9;&#x9;&#x9;<path class="st1" d="M849.4,946.3c-23.2,0-46.5-8.9-64.2-26.6L572.5,707.1c-35.5-35.5-35.5-92.9,0-128.4&#xA;&#x9;&#x9;&#x9;&#x9;c35.4-35.5,92.9-35.4,128.4,0l212.6,212.7c35.5,35.5,35.5,92.9,0,128.4C895.8,937.5,872.6,946.3,849.4,946.3z"></path>
&#x9;&#x9;</g>
&#x9;&#x9;<rect class="st2" width="1080" height="1080"></rect>
&#x9;</g>
</g>
</svg>