<?xml version="1.0" encoding="UTF-8"?>
<svg id="Layer_1" data-name="Layer 1" xmlns="http://www.w3.org/2000/svg" viewBox="0 0 1024 1024" fill="#37474f">
  <defs>
    
  </defs>
  <path class="cls-1" d="M963.86,1014.53c-12.96,0-25.8-4.25-36.57-12.54l-211.25-162.73c-3.5-2.69-7.85-4.18-12.27-4.18H150.25C67.4,835.07,0,767.67,0,684.82V159.73C0,76.88,67.4,9.48,150.25,9.48h723.49c40.14,0,77.87,15.63,106.25,44.01,28.38,28.38,44.01,66.12,44,106.25l-.03,329.95c0,25.33-13.1,48.02-35.04,60.69-21.94,12.67-48.14,12.67-70.08,0l-471.22-272.06c-13.59-7.85-25.6-2.62-30.12,0-4.53,2.61-15.06,10.39-15.06,26.09v229.77c0,15.7,10.53,23.47,15.06,26.09,4.53,2.61,16.53,7.85,30.13,0l179.62-103.7c14.35-8.29,32.7-3.37,40.98,10.98,8.28,14.35,3.37,32.7-10.98,40.98l-179.62,103.7c-28.22,16.29-61.91,16.29-90.13,0-28.22-16.29-45.06-45.47-45.06-78.05v-229.77c0-32.58,16.85-61.76,45.06-78.05,28.22-16.29,61.91-16.29,90.12,0l471.22,272.06c4.39,2.53,8.2,1.09,10.08,0,1.88-1.09,5.04-3.67,5.04-8.73l.03-329.95c0-24.11-9.38-46.77-26.43-63.82-17.05-17.05-39.71-26.44-63.82-26.44H150.25c-49.76,0-90.25,40.49-90.25,90.25v525.09c0,49.76,40.49,90.25,90.25,90.25h553.52c17.59,0,34.95,5.91,48.88,16.65l211.25,162.73s.02.02.03.02c.02-.01.05-.02.07-.03,0-.01,0-.03,0-.04v-188.83c0-16.57,13.43-30,30-30s30,13.43,30,30v188.83c0,23.06-12.85,43.71-33.55,53.89-8.49,4.18-17.57,6.23-26.59,6.23ZM964.09,954.58h0,0Z"></path>
</svg>