<svg width="47" height="46" viewBox="0 0 47 46" fill="none" xmlns="http://www.w3.org/2000/svg">
<path d="M43.6564 45.625C43.0662 45.625 42.4929 45.4392 42.0039 45.0507L32.4261 37.6689C32.2744 37.5507 32.072 37.4831 31.8697 37.4831H6.81235C3.05207 37.4831 0 34.4257 0 30.6588V6.82432C0 3.05743 3.05207 0 6.81235 0H39.5926C41.4137 0 43.1168 0.70946 44.3983 1.99324C45.6798 3.27703 46.3881 5 46.3881 6.80743V21.7737C46.3881 22.9223 45.7979 23.9527 44.803 24.527C43.8081 25.1014 42.6278 25.1014 41.6329 24.527L20.2853 12.1791C19.6614 11.8243 19.1218 12.0608 18.9194 12.1791C18.7171 12.2973 18.245 12.652 18.245 13.3615V23.7838C18.245 24.4932 18.7171 24.848 18.9194 24.9662C19.1218 25.0845 19.6614 25.3209 20.2853 24.9662L28.4298 20.2534C29.0874 19.8818 29.9136 20.1014 30.2846 20.7432C30.6556 21.402 30.4364 22.2297 29.7956 22.6014L21.6511 27.3142C20.3696 28.0574 18.852 28.0574 17.5705 27.3142C16.2889 26.5709 15.5301 25.2534 15.5301 23.7669V13.3446C15.5301 11.8581 16.2889 10.5405 17.5705 9.7973C18.852 9.05405 20.3696 9.05405 21.6511 9.7973L42.9987 22.1453C43.2011 22.2635 43.3697 22.1959 43.454 22.1453C43.5383 22.0946 43.6901 21.9764 43.6901 21.7568V6.79054C43.6901 5.69257 43.2685 4.66216 42.4929 3.90203C41.7172 3.125 40.6886 2.7027 39.6094 2.7027H6.81235C4.55281 2.7027 2.73169 4.54392 2.73169 6.79054V30.625C2.73169 32.8885 4.56967 34.7128 6.81235 34.7128H31.8865C32.679 34.7128 33.4716 34.9831 34.0955 35.473L43.6732 42.8547V34.2905C43.6732 33.5304 44.2803 32.9223 45.0391 32.9223C45.7979 32.9223 46.4049 33.5304 46.4049 34.2905V42.8547C46.4049 43.902 45.8147 44.8311 44.8873 45.3041C44.4995 45.4899 44.0948 45.5912 43.6901 45.5912L43.6564 45.625Z" fill="#226DB4"/>
</svg>
