<?xml version="1.0" encoding="utf-8"?>

<svg version="1.1" id="Layer_1" xmlns="http://www.w3.org/2000/svg" xmlns:xlink="http://www.w3.org/1999/xlink" x="0px" y="0px" viewBox="0 0 1024 1024" style="enable-background:new 0 0 1024 1024;" xml:space="preserve">

<path class="st2" d="M922.27,237.98c-0.26-0.51-0.53-1.01-0.81-1.51c-0.29-0.51-0.6-1-0.92-1.48c-5.14-8.32-12.3-15.41-21.02-20.45&#xA;&#x9;L542,8.13c-18.51-10.68-41.5-10.68-60,0L124.49,214.54c-8.72,5.04-15.89,12.13-21.03,20.45c-0.32,0.48-0.62,0.97-0.92,1.48&#xA;&#x9;c-0.29,0.5-0.56,1-0.81,1.51c-4.67,8.63-7.25,18.41-7.25,28.52v412.82c0,21.37,11.5,41.28,30,51.96l492.84,284.54&#xA;&#x9;c9.39,5.42,19.7,8.13,30,8.13s20.61-2.71,30-8.13c18.79-10.85,30-30.27,30-51.96V842.24l192.18-110.96c18.5-10.68,30-30.59,30-51.96&#xA;&#x9;V266.5C929.51,256.39,926.94,246.61,922.27,237.98z M154.49,301.1L497,498.85c4.64,2.68,9.82,4.02,15,4.02s10.36-1.34,15-4.02&#xA;&#x9;L869.51,301.1v154.45L512,661.96L154.49,455.54V301.1z M512,60.09l327.47,189.07L512,438.22L184.53,249.16L512,60.09z&#xA;&#x9; M677.33,790.28c-18.5,10.68-30,30.59-30,51.96v121.62L154.49,679.32v-154.5L497,722.58c4.64,2.68,9.82,4.02,15,4.02&#xA;&#x9;s10.36-1.34,15-4.02l342.51-197.75v154.49L677.33,790.28z"></path>
</svg>