<svg width="42" height="49" viewBox="0 0 42 49" fill="none" xmlns="http://www.w3.org/2000/svg">
<path d="M20.5191 48.9865C20.1482 48.9865 19.7773 48.8513 19.5075 48.5642L13.5895 42.6351C13.3197 42.3649 13.168 41.9932 13.168 41.6216C13.168 41.25 13.3197 40.8784 13.5895 40.6081L19.5075 34.6791C20.0639 34.1216 20.9744 34.1216 21.5308 34.6791L27.4488 40.6081C27.7185 40.8784 27.8703 41.25 27.8703 41.6216C27.8703 41.9932 27.7185 42.3649 27.4488 42.6351L21.5308 48.5642C21.261 48.8513 20.8901 48.9865 20.5191 48.9865ZM16.6244 41.6216L20.5191 45.5236L24.4139 41.6216L20.5191 37.7196L16.6244 41.6216Z" fill="#E42527"/>
<path d="M32.1698 37.348C31.7988 37.348 31.4279 37.2128 31.1581 36.9257L25.257 31.0135C24.9872 30.7432 24.8355 30.3716 24.8355 30C24.8355 29.6284 24.9872 29.2568 25.257 28.9865L27.0948 27.1622C28.8483 25.4054 29.8093 23.0743 29.8093 20.5912C29.8093 18.1081 28.8483 15.777 27.0948 14.0203L27.0779 14.0034C23.4698 10.3885 17.5855 10.3885 13.9773 14.0034C12.5442 15.4392 11.6337 17.2635 11.3471 19.2736C11.0773 21.2162 11.4314 23.2263 12.3419 24.9493C12.7128 25.6419 12.4599 26.5203 11.7517 26.8919C11.0605 27.2635 10.1837 27.0101 9.81279 26.3007C8.6157 24.0541 8.1436 21.402 8.49767 18.8682C8.8686 16.2331 10.0488 13.8514 11.9372 11.9764C14.2302 9.67905 17.282 8.41216 20.5192 8.41216C23.7564 8.41216 26.8081 9.67905 29.1012 11.9764L29.118 11.9932C31.411 14.2905 32.6756 17.348 32.6756 20.5912C32.6756 23.8345 31.411 26.8919 29.118 29.1892L28.3087 30L32.1866 33.8851L33.0128 33.0574C36.3512 29.7128 38.1721 25.2872 38.1721 20.5574C38.1721 15.8277 36.3343 11.402 32.9959 8.05743C29.6576 4.71284 25.2401 2.88851 20.5192 2.88851C15.7983 2.88851 11.3808 4.72973 8.04244 8.05743C4.70407 11.3851 2.88314 15.8277 2.88314 20.5574C2.88314 25.2872 4.72093 29.7128 8.04244 33.0574L8.8686 33.8851L13.7581 28.9865C14.3145 28.4291 15.225 28.4291 15.7814 28.9865C16.3378 29.5439 16.3378 30.4561 15.7814 31.0135L9.88023 36.9257C9.32384 37.4831 8.41337 37.4831 7.85698 36.9257L6.00233 35.0845C4.04651 33.125 2.52907 30.8446 1.50058 28.2939C0.505814 25.8277 0 23.2263 0 20.5574C0 17.8885 0.505814 15.2872 1.50058 12.8209C2.52907 10.2703 4.04651 7.98986 6.00233 6.03041C7.95814 4.07095 10.268 2.53378 12.814 1.50338C15.2587 0.506757 17.8552 0 20.5192 0C23.1831 0 25.7796 0.506757 28.2413 1.50338C30.7872 2.53378 33.0634 4.05405 35.0192 6.01351C36.975 7.97297 38.4924 10.2703 39.5209 12.8209C40.5157 15.2872 41.0215 17.8885 41.0215 20.5574C41.0215 23.2263 40.5157 25.8277 39.5209 28.2939C38.4924 30.8446 36.975 33.125 35.0192 35.0845L33.1645 36.9426C32.8948 37.1959 32.5238 37.348 32.1698 37.348Z" fill="#E42527"/>
</svg>
