<?xml version="1.0" encoding="utf-8"?>

<svg version="1.1" id="Layer_1" xmlns="http://www.w3.org/2000/svg" xmlns:xlink="http://www.w3.org/1999/xlink" x="0px" y="0px" viewBox="0 0 1024 1024" style="enable-background:new 0 0 1024 1024;" xml:space="preserve">

<g>
&#x9;<g>
&#x9;&#x9;<path class="st0" d="M495.24,1023.75C495.24,1023.75,495.24,1023.75,495.24,1023.75c-22.5,0-43.75-10.91-56.87-29.19&#xA;&#x9;&#x9;&#x9;L174.88,627.32C125.83,559.6,99.9,479.48,99.9,395.61c0-53.85,10.64-106.06,31.63-155.2c20.27-47.44,49.25-89.94,86.13-126.32&#xA;&#x9;&#x9;&#x9;c36.87-36.36,79.75-64.73,127.44-84.33C394.55,9.46,446.96-0.45,500.89,0.29c52.82,0.73,104.02,11.78,152.18,32.84&#xA;&#x9;&#x9;&#x9;c46.49,20.32,88.19,49.07,123.95,85.45c35.75,36.37,63.79,78.56,83.33,125.39c20.24,48.51,30.43,99.89,30.29,152.72&#xA;&#x9;&#x9;&#x9;c-0.22,83.11-25.94,162.58-74.38,229.81l-15.02,20.93c-9.66,13.46-28.4,16.54-41.86,6.88s-16.54-28.4-6.88-41.86l15.05-20.98&#xA;&#x9;&#x9;&#x9;c41.1-57.05,62.91-124.44,63.09-194.94c0.23-88.63-34-172.41-96.41-235.88C671.82,97.15,588.66,61.51,500.05,60.28&#xA;&#x9;&#x9;&#x9;c-1.6-0.02-3.22-0.03-4.82-0.03c-88.74,0-172.18,34.18-235.44,96.57c-31.31,30.87-55.9,66.93-73.08,107.17&#xA;&#x9;&#x9;&#x9;c-17.79,41.64-26.81,85.93-26.81,131.63c0,71.16,21.99,139.13,63.6,196.55c0.03,0.04,0.06,0.08,0.08,0.12l263.53,367.3&#xA;&#x9;&#x9;&#x9;c2.6,3.62,6.2,4.17,8.12,4.17c1.91,0,5.52-0.54,8.12-4.17L680.6,712.61c9.66-13.46,28.4-16.54,41.86-6.88&#xA;&#x9;&#x9;&#x9;c13.46,9.66,16.54,28.4,6.88,41.86L552.1,994.57C538.99,1012.84,517.73,1023.75,495.24,1023.75z"></path>
&#x9;</g>
&#x9;<g>
&#x9;&#x9;<path class="st1" d="M894.12,1023.75c-9.34,0-18.54-4.35-24.4-12.52L586.58,616.52c-7.5-10.45-7.5-24.52,0-34.97l55.93-77.96&#xA;&#x9;&#x9;&#x9;c0.06-0.08,0.11-0.16,0.17-0.24c23-31.41,35.16-68.67,35.16-107.74c0-100.67-81.91-182.58-182.58-182.58&#xA;&#x9;&#x9;&#x9;c-100.67,0-182.58,81.9-182.58,182.58c0,38.95,12.09,76.1,34.95,107.45c0.05,0.06,0.09,0.13,0.14,0.19l171.87,239.58&#xA;&#x9;&#x9;&#x9;c9.66,13.46,6.57,32.21-6.89,41.86c-13.46,9.66-32.21,6.57-41.86-6.89l-171.8-239.48c-30.36-41.67-46.4-91.01-46.4-142.72&#xA;&#x9;&#x9;&#x9;c0-64.8,25.23-125.71,71.05-171.53c45.82-45.82,106.73-71.05,171.53-71.05s125.71,25.23,171.53,71.05s71.05,106.73,71.05,171.53&#xA;&#x9;&#x9;&#x9;c0,51.86-16.14,101.33-46.67,143.08l-43.3,60.35l270.59,377.23c9.66,13.46,6.57,32.21-6.89,41.86&#xA;&#x9;&#x9;&#x9;C906.29,1021.93,900.18,1023.75,894.12,1023.75z"></path>
&#x9;</g>
</g>
</svg>