<?xml version="1.0" encoding="UTF-8"?>
<svg id="Layer_1" xmlns="http://www.w3.org/2000/svg" version="1.1" viewBox="0 0 1024 1024">
  
  <defs>
    
  </defs>
  <path class="st0" d="M824.06,375c-16.57,0-30-13.43-30-30,0-76.13-29.64-147.7-83.47-201.53-53.83-53.83-125.4-83.47-201.53-83.47s-147.7,29.65-201.53,83.47-83.47,125.4-83.47,201.53c0,16.57-13.43,30-30,30s-30-13.43-30-30c0-46.56,9.13-91.75,27.12-134.3,17.38-41.09,42.25-77.98,73.92-109.65,31.67-31.67,68.57-56.55,109.65-73.92C417.31,9.13,462.5,0,509.06,0s91.75,9.13,134.3,27.12c41.09,17.38,77.98,42.25,109.65,73.92,31.67,31.67,56.55,68.57,73.92,109.65,18,42.55,27.12,87.74,27.12,134.3,0,16.57-13.43,30-30,30Z"></path>
  <path class="st0" d="M589.06,315h-49.97v-72.82h49.93c5.51,0,10,4.49,10,10v11.95c0,16.57,13.43,30,30,30s30-13.43,30-30v-11.95c0-38.6-31.4-70-70-70h-49.93v-31.71c0-16.57-13.43-30-30-30s-30,13.43-30,30v31.71h-50.03c-38.6,0-70,31.4-70,70v52.82c0,38.6,31.4,70,70,70h50.03v72.82h-49.99c-5.51,0-10-4.49-10-10v-11.95c0-16.57-13.43-30-30-30s-30,13.43-30,30v11.95c0,38.6,31.4,70,70,70h49.99v30.5c0,16.57,13.43,30,30,30s30-13.43,30-30v-30.5h49.97c38.6,0,70-31.4,70-70v-52.82c0-38.6-31.4-70-70-70ZM429.06,315c-5.51,0-10-4.49-10-10v-52.82c0-5.51,4.49-10,10-10h50.03v72.82h-50.03ZM599.06,437.82c0,5.51-4.49,10-10,10h-49.97v-72.82h49.97c5.51,0,10,4.49,10,10v52.82Z"></path>
  <path class="st1" d="M1021.05,346.46c0-.2.02-.41.02-.61,0-.3.01-.59.01-.89,0-.22,0-.43,0-.65,0-.29-.02-.58-.03-.87-.01-.21-.02-.43-.04-.64-.02-.3-.05-.6-.08-.9-.02-.19-.04-.39-.06-.58-.04-.34-.09-.68-.15-1.02-.02-.14-.04-.29-.07-.43-.08-.44-.16-.89-.26-1.33,0-.04-.01-.08-.02-.11-1.22-5.45-3.96-10.6-8.17-14.76-.02-.02-.03-.03-.05-.05-.34-.34-.7-.67-1.06-1-.04-.03-.07-.07-.11-.1-.16-.15-.32-.3-.49-.44-.2-.17-.4-.32-.6-.48-.03-.03-.06-.05-.1-.08-5.6-4.47-12.33-6.61-19.02-6.54h-227.2c-16.57,0-30,13.43-30,30s13.43,30,30,30h162.82l-309.92,366.07-69.21-82.01c-9.52-11.28-23.45-17.74-38.21-17.74s-28.67,6.46-38.18,17.73l-121.77,144.09-31.78-37.53c-9.52-11.24-23.43-17.68-38.16-17.68h-.03c-14.73,0-28.64,6.47-38.15,17.72l-128.46,151.98c-1.97-5.49-3.27-11.24-3.81-17.16l-45.65-492.69c-.79-8.51,1.95-16.67,7.7-22.98,5.75-6.31,13.63-9.79,22.16-9.79h161.65c16.57,0,30-13.43,30-30s-13.43-30-30-30H92.91c-25.25,0-49.49,10.7-66.51,29.37-17.02,18.67-25.44,43.79-23.11,68.94l45.65,492.69c2.93,31.68,17.26,60.97,40.41,82.72.12.12.25.23.38.35.36.34.71.67,1.08,1.01,24,21.88,55.1,33.93,87.58,33.93h661.41c32.47,0,63.58-12.05,87.58-33.93,24-21.88,38.87-51.73,41.87-84.07l19.52-210.65c1.53-16.5-10.61-31.11-27.1-32.64-16.5-1.52-31.11,10.61-32.64,27.1l-19.52,210.65c-1.62,17.41-9.62,33.49-22.54,45.27-12.92,11.78-29.67,18.27-47.15,18.27H178.39c-7.98,0-15.8-1.37-23.18-3.95l123.95-146.64,31.77,37.52c9.52,11.24,23.42,17.69,38.16,17.69h0c14.74,0,28.65-6.45,38.19-17.72l121.76-144.08,69.19,81.98c9.51,11.27,23.42,17.75,38.17,17.76h.05c14.73,0,28.64-6.45,38.17-17.7l297.82-351.78-12.11,130.72c-1.53,16.5,10.61,31.11,27.1,32.64.94.09,1.88.13,2.8.13,15.32,0,28.4-11.68,29.84-27.23l20.9-225.57c.01-.12.01-.23.02-.35.03-.32.05-.64.06-.96Z"></path>
</svg>