<?xml version="1.0" encoding="UTF-8"?>
<svg id="Layer_1" data-name="Layer 1" xmlns="http://www.w3.org/2000/svg" viewBox="0 0 1024 1024" fill="#673ab7">
  <defs>
    
  </defs>
  <path class="cls-2" d="m920.58,409.51c.18-.21.34-.43.51-.65.13-.17.26-.33.39-.5.18-.25.36-.5.53-.75.1-.15.21-.29.31-.44.17-.26.34-.53.51-.79.09-.15.19-.3.28-.45.16-.26.31-.53.46-.79.09-.16.19-.33.27-.49.13-.25.26-.5.39-.76.09-.19.19-.38.28-.57.11-.23.21-.46.32-.7.1-.22.2-.44.29-.67.09-.21.16-.41.25-.62.1-.26.2-.51.29-.77.06-.18.12-.36.18-.55.1-.29.19-.57.28-.87.05-.16.09-.32.14-.48.09-.31.17-.62.25-.94.04-.15.07-.3.1-.45.08-.33.15-.65.21-.98.03-.15.05-.3.08-.45.06-.33.12-.65.17-.98.03-.18.04-.35.07-.53.04-.3.08-.61.11-.92.02-.24.04-.47.05-.71.02-.25.04-.5.05-.75.02-.44.03-.88.03-1.31,0-.06,0-.11,0-.17v-80.85c0-16.57-13.44-30.01-30.01-30.01s-30.01,13.44-30.01,30.01v8.41L575.71,26.37C558.7,9.36,536.1,0,512.05,0s-46.65,9.36-63.66,26.37L55.68,419.08c-20.67,20.67-26.8,51.48-15.61,78.49,11.19,27.01,37.3,44.46,66.54,44.46h222.68c16.57,0,30.01-13.44,30.01-30.01s-13.43-30.01-30.01-30.01H106.6c-6.98,0-9.94-4.64-11.09-7.41-1.15-2.77-2.33-8.15,2.6-13.08L490.83,68.81c5.67-5.67,13.2-8.79,21.22-8.79s15.55,3.12,21.22,8.79l291.67,291.67h-8.41c-16.57,0-30.01,13.44-30.01,30.01s13.44,30.01,30.01,30.01h80.83c.51,0,1.01-.01,1.52-.04.19,0,.38-.03.57-.04.3-.02.59-.04.89-.07.27-.03.54-.06.8-.1.21-.03.43-.05.64-.08.3-.04.6-.1.89-.15.18-.03.36-.06.54-.1.3-.06.6-.13.9-.2.18-.04.35-.08.53-.12.29-.07.58-.15.87-.23.18-.05.37-.1.55-.16.27-.08.54-.17.8-.26.2-.07.41-.13.61-.21.24-.09.47-.18.71-.27.23-.09.46-.18.68-.27.21-.09.41-.18.61-.27.25-.11.5-.22.75-.34.17-.08.35-.17.52-.26.27-.13.54-.27.8-.41.15-.08.3-.17.45-.25.28-.16.56-.31.83-.48.14-.08.27-.17.4-.25.28-.17.56-.35.83-.53.14-.09.27-.19.41-.28.26-.18.52-.36.78-.56.16-.12.31-.24.47-.36.23-.18.46-.35.68-.54.21-.17.41-.35.61-.53.17-.14.33-.28.5-.43.74-.67,1.44-1.37,2.11-2.11.14-.15.27-.31.4-.46.19-.21.37-.43.55-.65Z"></path>
  <circle class="cls-1" cx="452.15" cy="451.2" r="30.01"></circle>
  <circle class="cls-1" cx="572.67" cy="451.31" r="30.01"></circle>
  <path class="cls-1" d="m983.94,526.47c-11.19-27.01-37.3-44.46-66.54-44.46h-222.28c-16.57,0-30.01,13.44-30.01,30.01v92.12c0,16.59-13.49,30.08-30.08,30.08h-245.37c-16.58,0-30.08-13.49-30.08-30.08v-214.81c0-16.59,13.49-30.08,30.08-30.08h245.37c16.59,0,30.08,13.49,30.08,30.08v1.85c0,16.57,13.43,30.01,30.01,30.01s30.01-13.44,30.01-30.01v-1.85c0-49.68-40.42-90.09-90.09-90.09h-245.37c-49.68,0-90.09,40.42-90.09,90.09v214.81c0,49.68,40.42,90.09,90.09,90.09h245.37c49.68,0,90.09-40.42,90.09-90.09v-62.12h192.27c6.98,0,9.94,4.64,11.09,7.41,1.15,2.77,2.33,8.15-2.6,13.08l-392.72,392.72c-11.7,11.7-30.74,11.7-42.44,0l-291.01-291.01h8.41c16.57,0,30.01-13.44,30.01-30.01s-13.44-30.01-30.01-30.01h-80.83c-.51,0-1.01.01-1.52.04-.19,0-.38.03-.57.04-.3.02-.59.04-.89.07-.27.03-.54.06-.8.1-.21.03-.43.05-.64.08-.3.04-.59.1-.89.15-.18.03-.37.06-.55.1-.3.06-.6.13-.9.2-.18.04-.35.08-.53.12-.29.07-.58.15-.87.23-.18.05-.37.1-.55.16-.27.08-.54.17-.8.26-.2.07-.41.13-.61.21-.24.09-.47.18-.71.27-.23.09-.46.18-.68.27-.21.09-.41.18-.61.27-.25.11-.5.22-.75.34-.17.08-.34.17-.52.26-.27.13-.54.27-.81.41-.15.08-.29.16-.44.25-.28.16-.56.32-.84.48-.13.08-.26.16-.39.25-.28.18-.56.35-.84.54-.13.09-.26.18-.39.27-.27.19-.54.37-.8.57-.15.11-.29.23-.44.34-.24.18-.47.36-.71.56-.19.16-.38.32-.57.49-.18.16-.36.31-.54.47-.37.33-.73.67-1.08,1.02h0s0,0,0,0c-.35.35-.69.71-1.02,1.07-.16.18-.31.36-.46.53-.17.19-.33.38-.49.57-.19.23-.37.47-.55.7-.12.15-.23.3-.35.45-.19.26-.38.52-.56.79-.09.13-.19.27-.28.4-.18.27-.36.55-.53.83-.08.14-.17.27-.25.41-.16.27-.32.55-.48.83-.08.15-.17.3-.25.45-.14.26-.27.53-.41.8-.09.18-.18.35-.26.53-.12.24-.23.49-.33.74-.09.21-.18.41-.27.62-.09.22-.18.44-.26.67-.09.24-.19.48-.27.73-.07.2-.13.39-.2.59-.09.27-.18.55-.27.82-.05.18-.1.35-.15.53-.08.3-.17.59-.24.89-.04.17-.08.34-.12.5-.07.31-.14.62-.2.93-.03.17-.06.34-.09.52-.05.31-.11.61-.16.92-.03.2-.05.4-.08.61-.04.28-.07.56-.1.84-.03.28-.04.56-.06.83-.01.21-.03.42-.04.63-.02.5-.04,1-.04,1.5v80.84c0,16.57,13.44,30.01,30.01,30.01s30.01-13.44,30.01-30.01v-8.41l291.01,291.01c17.55,17.55,40.6,26.32,63.66,26.32s46.11-8.77,63.66-26.32l392.72-392.72c20.67-20.67,26.8-51.48,15.61-78.49Z"></path>
</svg>