<?xml version="1.0" encoding="UTF-8"?>
<svg id="Layer_1" data-name="Layer 1" xmlns="http://www.w3.org/2000/svg" version="1.1" viewBox="0 0 1024 1024">
  <path d="M958.03,265.74c0-.2-.02-.39-.03-.59-.02-.4-.05-.8-.09-1.19-.02-.18-.03-.35-.05-.53-.07-.52-.16-1.04-.27-1.55-.04-.2-.09-.39-.14-.59-.1-.42-.22-.83-.35-1.24-.04-.14-.08-.28-.13-.42-.18-.53-.39-1.06-.61-1.57-.06-.14-.12-.28-.19-.41-.51-1.09-1.11-2.14-1.8-3.12-.09-.12-.17-.25-.26-.37-.34-.45-.69-.9-1.06-1.32-.09-.11-.2-.21-.29-.31-.29-.32-.6-.63-.91-.93-.14-.14-.29-.27-.43-.41-.39-.35-.79-.69-1.21-1.01-.14-.11-.28-.2-.42-.3-.33-.24-.66-.46-1-.68-.17-.11-.34-.21-.51-.32-.08-.05-.16-.1-.24-.15L522,2.74c-6.19-3.57-13.81-3.57-20,0L75.97,248.71c-.08.05-.15.1-.23.14-.18.11-.35.22-.53.33-.33.21-.65.43-.97.66-.15.11-.3.21-.45.32-.42.32-.81.66-1.2,1-.15.14-.3.28-.45.42-.31.29-.6.6-.89.91-.1.11-.21.22-.31.33-.37.42-.72.86-1.05,1.32-.09.12-.18.25-.27.37-.69.98-1.29,2.03-1.8,3.12-.06.14-.13.28-.19.41-.22.52-.43,1.04-.61,1.57-.05.14-.08.28-.13.42-.13.41-.24.82-.35,1.24-.05.2-.1.39-.14.59-.11.51-.2,1.03-.27,1.55-.02.18-.03.35-.05.53-.04.4-.07.79-.09,1.2,0,.2-.02.4-.02.6v492.22c0,7.15,3.81,13.75,10,17.32l426.03,245.97c3.09,1.79,6.55,2.68,10,2.68s6.91-.89,10-2.68l426.03-245.97c6.19-3.57,10-10.18,10-17.32v-492.22h0ZM512,43.15l386.03,222.88-216,124.71-159.78-92.25c-6.19-3.57-13.81-3.57-20,0l-160.03,92.39-216.25-124.85L512,43.15ZM382.22,413.98l130.03-75.07,129.78,74.93-130.03,75.07-129.78-74.93ZM512,980.85l-406.03-234.42v-445.75l226.3,130.66,329.77,190.39v146.01l-150.04,86.63-149.78-86.48v-116.35l41.52-23.97,98.26,56.74c6.19,3.57,13.81,3.57,20,0l60.31-34.82c9.57-5.52,12.84-17.75,7.32-27.32s-17.76-12.84-27.32-7.32l-50.31,29.05-98.26-56.74c-6.19-3.57-13.81-3.57-20,0l-61.52,35.51c-6.19,3.57-10,10.18-10,17.32v139.45c0,7.15,3.81,13.75,10,17.32l169.78,98.03c3.09,1.79,6.55,2.68,10,2.68s6.91-.89,10-2.68l170.04-98.18c6.19-3.57,10-10.18,10-17.32v-169.11c0-7.15-3.81-13.75-10-17.32l-140.03-80.85,366.04-211.33v445.75l-406.03,234.42h-.02Z" fill="#089949" stroke-width="0"></path>
</svg>