<svg width="50" height="49" viewBox="0 0 50 49" fill="none" xmlns="http://www.w3.org/2000/svg">
<path d="M27.996 41.652H4.30733C1.93221 41.652 0 39.7196 0 37.348V4.30574C0 1.93243 1.9339 0 4.30733 0H37.4271C39.8023 0 41.7345 1.93243 41.7345 4.30405V27.9223C41.7345 28.7128 41.0921 29.3547 40.301 29.3547C39.5098 29.3547 38.8674 28.7128 38.8674 27.9223V4.30574C38.8674 3.5152 38.225 2.87331 37.4339 2.87331H4.30733C3.51619 2.87331 2.87381 3.5152 2.87381 4.30574V37.348C2.87381 38.1385 3.51619 38.7804 4.30733 38.7804H28.001C28.7922 38.7804 29.4346 39.4223 29.4346 40.2128C29.4346 41.0034 28.7922 41.652 27.996 41.652Z" fill="#089949"/>
<path d="M15.7823 41.652C14.9911 41.652 14.3488 41.0101 14.3488 40.2196V7.16723C14.3488 6.37669 14.9911 5.7348 15.7823 5.7348C16.5734 5.7348 17.2158 6.37669 17.2158 7.16723V40.2179C17.2226 41.0085 16.5785 41.652 15.7823 41.652Z" fill="#089949"/>
<path d="M40.301 17.1993H7.22515C6.43401 17.1993 5.79163 16.5574 5.79163 15.7669C5.79163 14.9764 6.43401 14.3345 7.22515 14.3345H40.301C41.0921 14.3345 41.7345 14.9764 41.7345 15.7669C41.7345 16.5574 41.0972 17.1993 40.301 17.1993Z" fill="#089949"/>
<path d="M35.8348 48.9527C35.7097 48.9527 35.5846 48.9375 35.4646 48.9054C34.9709 48.772 34.5821 48.3885 34.4469 47.8885L30.148 31.8547C30.0145 31.3615 30.1582 30.8294 30.5182 30.4696C30.8834 30.1047 31.4108 29.9662 31.9044 30.0997L47.9555 34.3953C48.4491 34.5287 48.8379 34.9122 48.9732 35.4122C49.1067 35.9054 48.963 36.4375 48.6029 36.7973L36.8541 48.5372C36.5786 48.8041 36.2084 48.9527 35.8348 48.9527ZM33.5662 33.5118L36.5786 44.7483L44.8112 36.522L33.5662 33.5118Z" fill="#089949"/>
</svg>
