<?xml version="1.0" encoding="utf-8"?>

<svg version="1.1" id="Layer_1" xmlns="http://www.w3.org/2000/svg" xmlns:xlink="http://www.w3.org/1999/xlink" x="0px" y="0px" viewBox="0 0 1024 1024" style="enable-background:new 0 0 1024 1024;" xml:space="preserve">

<g>
&#x9;<g>
&#x9;&#x9;<path class="st0" d="M512,394c-57.9,0-105-47.1-105-105s47.1-105,105-105s105,47.1,105,105S569.9,394,512,394z M512,244&#xA;&#x9;&#x9;&#x9;c-24.8,0-45,20.2-45,45s20.2,45,45,45s45-20.2,45-45S536.8,244,512,244z"></path>
&#x9;</g>
&#x9;<g>
&#x9;&#x9;<path class="st9" d="M512,1024c-22.5,0-45-5.8-65-17.4l-330.8-191c-40.1-23.2-65-66.3-65-112.6V321c0-46.3,24.9-89.5,65-112.6&#xA;&#x9;&#x9;&#x9;L447,17.4c40.1-23.2,89.9-23.2,130,0l330.8,191c40.1,23.2,65,66.3,65,112.6v104.5c0,46.3-24.9,89.5-65,112.6L527.1,758&#xA;&#x9;&#x9;&#x9;c-9.3,5.4-20.8,5.4-30,0L234.2,606.1c-38.6-22.3-62.6-63.9-62.6-108.5c0-45.3,23.4-85.9,62.7-108.5c39.2-22.6,86.1-22.6,125.3,0&#xA;&#x9;&#x9;&#x9;l152.5,88.2l294.8-170.2c14.4-8.3,32.7-3.4,41,11c8.3,14.4,3.4,32.7-11,41L527.1,538c-9.3,5.4-20.8,5.4-30.1,0l-167.5-96.9&#xA;&#x9;&#x9;&#x9;c-20.4-11.8-44.8-11.8-65.2,0c-20.4,11.8-32.6,32.9-32.6,56.5c0,23.2,12.5,44.9,32.6,56.5L512,697.3l365.8-211.2&#xA;&#x9;&#x9;&#x9;c21.6-12.5,35-35.7,35-60.6V321c0-24.9-13.4-48.1-35-60.6L547,69.4c-21.6-12.5-48.4-12.5-70,0l-330.8,191&#xA;&#x9;&#x9;&#x9;c-21.6,12.5-35,35.7-35,60.6v382c0,24.9,13.4,48.1,35,60.6l330.8,191c21.6,12.5,48.4,12.5,70,0l330.8-191&#xA;&#x9;&#x9;&#x9;c21.6-12.5,35-35.7,35-60.6v-90.5c0-16.6,13.4-30,30-30c16.6,0,30,13.4,30,30V703c0,46.3-24.9,89.5-65,112.6l-330.8,191&#xA;&#x9;&#x9;&#x9;C557,1018.2,534.5,1024,512,1024z"></path>
&#x9;</g>
</g>
</svg>