<?xml version="1.0" encoding="utf-8"?>

<svg version="1.1" id="Layer_1" xmlns="http://www.w3.org/2000/svg" xmlns:xlink="http://www.w3.org/1999/xlink" x="0px" y="0px" viewBox="0 0 1024 1024" style="enable-background:new 0 0 1024 1024;" xml:space="preserve">

<g>
&#x9;<g class="st2">
&#x9;&#x9;<path class="st3" d="M821.86,911.48c-8.55,0-17.04-3.64-22.98-10.69c-10.66-12.68-9.03-31.61,3.66-42.27&#xA;&#x9;&#x9;&#x9;C905.13,772.26,963.97,645.96,963.97,512c0-133.96-58.84-260.26-161.43-346.51c-12.68-10.66-14.32-29.59-3.66-42.27&#xA;&#x9;&#x9;&#x9;c10.66-12.68,29.59-14.32,42.27-3.66c116.18,97.69,182.81,240.72,182.81,392.44c0,151.71-66.63,294.75-182.82,392.44&#xA;&#x9;&#x9;&#x9;C835.53,909.17,828.68,911.48,821.86,911.48z"></path>
&#x9;</g>
&#x9;<g class="st2">
&#x9;&#x9;<path class="st3" d="M202.14,911.48c-6.82,0-13.67-2.31-19.29-7.04C66.67,806.75,0.03,663.71,0.03,512&#xA;&#x9;&#x9;&#x9;c0-151.71,66.63-294.75,182.81-392.44c12.68-10.66,31.61-9.03,42.27,3.66c10.66,12.68,9.03,31.61-3.66,42.27&#xA;&#x9;&#x9;&#x9;C118.87,251.74,60.03,378.04,60.03,512c0,133.96,58.84,260.26,161.43,346.52c12.68,10.66,14.32,29.59,3.66,42.27&#xA;&#x9;&#x9;&#x9;C219.19,907.84,210.69,911.48,202.14,911.48z"></path>
&#x9;</g>
&#x9;<g class="st2">
&#x9;&#x9;<path class="st3" d="M512.03,772c-69.45,0-134.74-27.04-183.85-76.15S252.03,581.45,252.03,512c0-69.45,27.04-134.74,76.15-183.85&#xA;&#x9;&#x9;&#x9;C377.29,279.04,442.59,252,512.03,252c69.45,0,134.74,27.04,183.85,76.15c49.11,49.11,76.15,114.4,76.15,183.85&#xA;&#x9;&#x9;&#x9;c0,69.45-27.04,134.74-76.15,183.85S581.48,772,512.03,772z M512.03,312c-110.28,0-200,89.72-200,200s89.72,200,200,200&#xA;&#x9;&#x9;&#x9;c110.28,0,200-89.72,200-200S622.31,312,512.03,312z"></path>
&#x9;</g>
</g>
</svg>