<?xml version="1.0" encoding="utf-8"?>

<svg version="1.1" id="Layer_1" xmlns="http://www.w3.org/2000/svg" xmlns:xlink="http://www.w3.org/1999/xlink" x="0px" y="0px" viewBox="0 0 1024 1024" style="enable-background:new 0 0 1024 1024;" xml:space="preserve">

<g class="st0">
&#x9;<g>
&#x9;&#x9;<path class="st1" d="M564.6,1023.7c-3.2,0-6.4-0.5-9.6-1.6c-10.8-3.6-18.6-13.1-20.2-24.4l-61.3-446.4L27.2,490.1&#xA;&#x9;&#x9;&#x9;c-11.3-1.5-20.7-9.4-24.4-20.2c-3.6-10.8-0.8-22.7,7.2-30.8l254.8-254.8c78.9-78.9,183.6-128.7,294.7-140L992,0&#xA;&#x9;&#x9;&#x9;c9-0.9,17.9,2.2,24.3,8.6c6.4,6.4,9.6,15.3,8.6,24.3l-44.5,433c-11.4,110.9-61.1,215.5-140,294.4l-254.6,254.6&#xA;&#x9;&#x9;&#x9;C580.1,1020.6,572.4,1023.7,564.6,1023.7z M95.2,438.9l409.1,56.2c13.3,1.8,23.8,12.3,25.6,25.6l56.2,409.1L798,717.9&#xA;&#x9;&#x9;&#x9;c69.2-69.2,112.8-160.9,122.8-258.1l40.7-396.3L565.7,104c-97.4,10-189.2,53.6-258.3,122.8c0,0,0,0,0,0L95.2,438.9z M286.1,205.6&#xA;&#x9;&#x9;&#x9;L286.1,205.6L286.1,205.6z"></path>
&#x9;</g>
&#x9;<g>
&#x9;&#x9;<path class="st2" d="M727.2,616.6c-14.8,0-27.6-10.9-29.7-25.9l-31.8-231.4l-231.8-31.8c-16.4-2.3-27.9-17.4-25.6-33.8&#xA;&#x9;&#x9;&#x9;c2.3-16.4,17.4-27.9,33.8-25.6L696.4,303c13.3,1.8,23.8,12.3,25.6,25.6l34.9,253.9c2.3,16.4-9.2,31.5-25.6,33.8&#xA;&#x9;&#x9;&#x9;C729.9,616.5,728.5,616.6,727.2,616.6z"></path>
&#x9;</g>
</g>
</svg>