<svg width="52" height="59" viewBox="0 0 52 59" fill="none" xmlns="http://www.w3.org/2000/svg">
<path d="M36.2815 13.8243H12.1006C11.1464 13.8243 10.3749 13.054 10.3749 12.1013C10.3749 11.1486 11.1464 10.3784 12.1006 10.3784H36.2815C37.2358 10.3784 38.0073 11.1486 38.0073 12.1013C38.0073 13.054 37.2358 13.8243 36.2815 13.8243Z" fill="#226DB4"/>
<path d="M29.3379 22.4392H12.1006C11.1464 22.4392 10.3749 21.6689 10.3749 20.7162C10.3749 19.7635 11.1464 18.9932 12.1006 18.9932H29.3379C30.2922 18.9932 31.0637 19.7635 31.0637 20.7162C31.0637 21.6689 30.2922 22.4392 29.3379 22.4392Z" fill="#226DB4"/>
<path d="M44.3621 58.7838H7.49182C3.3703 58.7838 0 55.4392 0 51.3041V7.47973C0 3.3446 3.35 0 7.49182 0H44.3621C48.4836 0 51.8539 3.3446 51.8539 7.47973V36.6689C51.8539 37.6216 51.0824 38.3919 50.1282 38.3919C49.1739 38.3919 48.4024 37.6216 48.4024 36.6689V7.47973C48.4024 5.25 46.5955 3.44595 44.3621 3.44595H7.49182C5.25849 3.44595 3.45152 5.25 3.45152 7.47973V51.3041C3.45152 53.5338 5.25849 55.3378 7.49182 55.3378H44.3621C46.5955 55.3378 48.4024 53.5338 48.4024 51.3041V45.2635C48.4024 44.3108 49.1739 43.5405 50.1282 43.5405C51.0824 43.5405 51.8539 44.3108 51.8539 45.2635V51.3041C51.8539 55.4392 48.4836 58.7838 44.3621 58.7838Z" fill="#226DB4"/>
<path d="M51.1636 35.2906C50.4124 34.7027 49.3161 34.8649 48.7476 35.6149C48.7273 35.6352 47.2452 37.5406 45.357 39.0811C44.5043 39.7703 42.3724 41.3108 41.1949 40.6216C39.8549 39.8311 38.7585 39.3649 37.6621 39.6689C36.5455 39.973 36.0379 40.8852 35.6521 41.5946C35.3273 42.1622 34.9821 42.8108 34.2512 43.5C34.2106 43.5406 34.17 43.5608 34.1497 43.5811C33.8046 43.196 33.3376 42.1419 33.1143 41.2297C32.9518 40.5406 32.3833 40.0338 31.693 39.9122C31.0027 39.8108 30.3124 40.1352 29.947 40.7433C28.7694 42.75 27.1452 45.2433 25.1149 46.6622C24.9118 46.8041 24.5261 47.027 24.2418 46.8446C24.0591 46.7433 23.917 46.4797 23.9576 46.1352C24.2418 44.027 26.0691 40.9054 29.1349 37.3379C31.5915 34.4797 33.967 32.3108 33.9873 32.2906C34.5964 31.7433 34.7385 30.8311 34.3121 30.1216C33.8858 29.4122 33.0127 29.1081 32.2412 29.3919C30.3937 30.0608 29.3379 30.5676 28.0182 31.2162C26.9015 31.7635 25.6427 32.3716 23.4906 33.2838C19.9782 34.7635 16.953 34.9865 15.7958 34.9054C15.7349 34.9054 15.6536 34.8852 15.5724 34.8852C14.6182 34.8852 13.8467 35.6554 13.8467 36.6081C13.8467 37.5 14.537 38.25 15.41 38.3311C15.5724 38.3514 19.5315 38.7162 24.8306 36.446C25.1149 36.3243 25.3788 36.2027 25.6427 36.1014C22.5973 39.8514 20.8715 43.0743 20.5264 45.6892C20.303 47.3514 21.0543 48.9527 22.4552 49.8041C23.0846 50.1892 23.7749 50.3716 24.4855 50.3716C25.3788 50.3716 26.2721 50.0676 27.1249 49.4797C28.7288 48.3649 30.0688 46.8243 31.1652 45.2635C31.7743 46.1554 32.4646 46.7027 33.2767 46.946C34.8197 47.4122 36.0582 46.5203 36.647 45.9527C37.7637 44.8987 38.3321 43.8649 38.6976 43.196C38.7179 43.1757 38.7179 43.1554 38.7382 43.1149C38.9209 43.196 39.1443 43.3176 39.4691 43.5203C40.3624 44.0473 41.8649 44.5338 43.9358 43.8243C45.0727 43.4392 46.2909 42.7297 47.5497 41.696C49.8033 39.8716 51.5088 37.6622 51.5291 37.6419C52.0773 36.9527 51.9352 35.8784 51.1636 35.2906Z" fill="#F7B21B"/>
</svg>
