<svg width="50" height="44" viewBox="0 0 50 44" fill="none" xmlns="http://www.w3.org/2000/svg">
<path d="M10.0636 34.6115H2.88017C1.2876 34.6115 0 33.3277 0 31.7399V2.87162C0 1.28378 1.2876 0 2.88017 0H37.6116C39.2041 0 40.4917 1.28378 40.4917 2.87162V10.0338C40.4917 10.8277 39.8479 11.4696 39.0517 11.4696C38.2554 11.4696 37.6116 10.8277 37.6116 10.0338V2.87162H2.88017V31.7399H10.0806C10.8769 31.7399 11.5207 32.3818 11.5207 33.1757C11.5037 33.9696 10.8599 34.6115 10.0636 34.6115Z" fill="#089949"/>
<path d="M15.5868 17.3818C16.2511 17.3818 16.7897 16.8448 16.7897 16.1824C16.7897 15.5201 16.2511 14.9831 15.5868 14.9831C14.9225 14.9831 14.3839 15.5201 14.3839 16.1824C14.3839 16.8448 14.9225 17.3818 15.5868 17.3818Z" fill="#E42527"/>
<path d="M19.1954 17.3818C19.8598 17.3818 20.3983 16.8448 20.3983 16.1824C20.3983 15.5201 19.8598 14.9831 19.1954 14.9831C18.5311 14.9831 17.9926 15.5201 17.9926 16.1824C17.9926 16.8448 18.5311 17.3818 19.1954 17.3818Z" fill="#F9B21D"/>
<path d="M22.7872 17.3818C23.4516 17.3818 23.9901 16.8448 23.9901 16.1824C23.9901 15.5201 23.4516 14.9831 22.7872 14.9831C22.1229 14.9831 21.5844 15.5201 21.5844 16.1824C21.5844 16.8448 22.1229 17.3818 22.7872 17.3818Z" fill="#089949"/>
<path d="M46.7264 43.2094H27.5479C26.9041 43.2094 26.3111 42.9561 25.8537 42.5169L22.6516 39.3412C21.8554 38.5473 21.7198 37.2973 22.3297 36.3513L22.3806 36.2838C22.9396 35.4054 23.1091 34.3243 22.8211 33.2939L22.8041 33.2432C22.533 32.2297 21.8384 31.3682 20.9235 30.8953L20.8558 30.8615C19.8562 30.3547 19.3479 29.1892 19.6359 28.125L20.6694 24.1385C20.9574 23.0574 21.9739 22.3142 23.1091 22.3649H23.1938C24.2273 22.4155 25.2607 22.0101 26.0062 21.2669L26.0401 21.2331C26.8025 20.473 27.2091 19.4594 27.1413 18.4122V18.3277C27.0905 17.2128 27.8359 16.1824 28.9202 15.8953L32.9016 14.8311C33.9859 14.5439 35.138 15.0507 35.6632 16.0473L35.6971 16.1149C36.1715 17.0439 37.0355 17.7196 38.069 17.9899L38.1198 18.0067C39.1363 18.277 40.2376 18.1081 41.1186 17.5507L41.8471 17.0946C42.5078 16.6723 43.4058 16.8581 43.8293 17.5169C44.2529 18.1757 44.0665 19.0709 43.4058 19.4932L42.6772 19.9493C41.1186 20.9459 39.1872 21.25 37.3744 20.7601H37.3574H37.3405C35.6293 20.304 34.1723 19.1892 33.2913 17.6858L30.0553 18.5642C30.0553 20.304 29.3607 21.9932 28.107 23.2432L28.0731 23.277C26.8363 24.527 25.1421 25.2196 23.3971 25.2196L22.533 28.4628C24.0409 29.3243 25.1591 30.777 25.6165 32.4831L25.6335 32.5169C26.1078 34.223 25.8706 36.0473 24.9896 37.5507L27.7851 40.3209H46.252V11.4696H11.5206V40.3378H20.1273C20.9235 40.3378 21.5673 40.9797 21.5673 41.7736C21.5673 42.5676 20.9235 43.2094 20.1273 43.2094H11.0293C9.70783 43.2094 8.62354 42.1284 8.62354 40.8108V10.9966C8.64048 9.66215 9.70783 8.59796 11.0293 8.59796H46.7264C48.0479 8.59796 49.1322 9.67904 49.1322 10.9966V40.8277C49.1322 42.1284 48.0479 43.2094 46.7264 43.2094Z" fill="#226DB4"/>
<path d="M34.8499 35.6588C34.3756 35.6588 33.8842 35.5912 33.3929 35.473C30.3772 34.679 28.5813 31.5878 29.3946 28.5811C30.1909 25.5743 33.2913 23.7838 36.307 24.5946C39.3227 25.4054 41.1185 28.4797 40.3053 31.4865C39.6446 33.9865 37.3574 35.6588 34.8499 35.6588ZM34.8669 27.2635C33.6471 27.2635 32.5119 28.0743 32.19 29.3074C31.8004 30.777 32.6814 32.2973 34.1553 32.6858C35.6293 33.0743 37.1541 32.1959 37.5437 30.7263C37.9334 29.2567 37.0524 27.7365 35.5785 27.348C35.3413 27.2973 35.0871 27.2635 34.8669 27.2635Z" fill="#226DB4"/>
</svg>
