<?xml version="1.0" encoding="utf-8"?>

<svg version="1.1" id="Layer_1" xmlns="http://www.w3.org/2000/svg" xmlns:xlink="http://www.w3.org/1999/xlink" x="0px" y="0px" viewBox="0 0 1024 1024" style="enable-background:new 0 0 1024 1024;" xml:space="preserve">

<g>
&#x9;<g>
&#x9;&#x9;<path class="st0" d="M647.7,997.9c-12.9,0-24.9-8.4-28.7-21.5c-4.7-15.9,4.3-32.6,20.2-37.3c45.5-13.5,88.3-34.2,127.4-61.4&#xA;&#x9;&#x9;&#x9;c38.5-26.9,72.5-59.5,100.9-97c28.7-37.9,51-79.8,66.3-124.5c15.8-46.3,23.9-94.8,23.9-144.2c0-65.2-13.8-128-40.9-186.7&#xA;&#x9;&#x9;&#x9;c-7-15-0.4-32.9,14.6-39.8c15-7,32.9-0.4,39.8,14.6c30.8,66.6,46.4,137.9,46.4,211.9c0,56-9.1,111.1-27.1,163.7&#xA;&#x9;&#x9;&#x9;c-17.4,50.8-42.7,98.4-75.2,141.3c-32.2,42.5-70.7,79.5-114.4,110c-44.3,30.9-93,54.4-144.6,69.7&#xA;&#x9;&#x9;&#x9;C653.4,997.5,650.5,997.9,647.7,997.9z"></path>
&#x9;</g>
&#x9;<g>
&#x9;&#x9;<path class="st1" d="M512,1017.6c-68.2,0-134.5-13.4-196.8-39.7c-60.2-25.5-114.3-61.9-160.7-108.3&#xA;&#x9;&#x9;&#x9;C108.1,823.1,71.6,769,46.2,708.8C19.8,646.5,6.4,580.2,6.4,512c0-42,5.2-83.8,15.4-124.2c4.1-16.1,20.4-25.8,36.4-21.7&#xA;&#x9;&#x9;&#x9;c16.1,4.1,25.8,20.4,21.7,36.4c-9,35.6-13.5,72.4-13.5,109.5c0,60.2,11.8,118.5,35,173.4c22.4,53.1,54.6,100.7,95.5,141.6&#xA;&#x9;&#x9;&#x9;s88.6,73.1,141.6,95.5c54.9,23.2,113.3,35,173.4,35c43.3,0,86-6.2,127.1-18.4c15.9-4.7,32.6,4.3,37.3,20.2&#xA;&#x9;&#x9;&#x9;c4.7,15.9-4.3,32.6-20.2,37.3C609.6,1010.6,561.1,1017.6,512,1017.6z"></path>
&#x9;</g>
&#x9;<g>
&#x9;&#x9;<path class="st2" d="M50.9,425.2c-2.4,0-4.9-0.3-7.4-0.9c-16.1-4.1-25.8-20.4-21.7-36.4C44,299.8,89.9,219.1,154.5,154.5&#xA;&#x9;&#x9;&#x9;C200.9,108.1,255,71.6,315.2,46.2C377.5,19.8,443.8,6.4,512,6.4c90.9,0,180,24.4,257.8,70.6c14.2,8.5,18.9,26.9,10.5,41.1&#xA;&#x9;&#x9;&#x9;c-8.5,14.2-26.9,18.9-41.1,10.5c-68.5-40.7-147-62.1-227.1-62.1c-60.2,0-118.5,11.8-173.4,35c-53.1,22.4-100.7,54.6-141.6,95.5&#xA;&#x9;&#x9;&#x9;c-56.9,56.9-97.4,128-117,205.6C76.5,416.1,64.3,425.2,50.9,425.2z"></path>
&#x9;</g>
&#x9;<path class="st3" d="M864.9,56l20,54c10.3,28,32.4,50,60.3,60.3l54,20c9.4,3.5,9.4,16.8,0,20.3l-54,20c-28,10.3-50,32.4-60.3,60.3&#xA;&#x9;&#x9;l-20,54c-3.5,9.4-16.8,9.4-20.3,0l-20-54c-10.3-28-32.4-50-60.3-60.3l-54-20c-9.4-3.5-9.4-16.8,0-20.3l54-20&#xA;&#x9;&#x9;c28-10.3,50-32.4,60.3-60.3l20-54C848.2,46.6,861.5,46.6,864.9,56z"></path>
&#x9;<path class="st3" d="M674,730.4H542.6l4.4-461.7c0.1-13.7-9.1-25.8-22.3-29.3c-13.3-3.5-27.2,2.4-33.9,14.5&#xA;&#x9;&#x9;c-0.5,1-55.4,97.8-148.7,139.5c-15.1,6.8-21.9,24.5-15.2,39.6c6.8,15.1,24.5,21.9,39.6,15.2c50.1-22.4,90.3-56.9,119.6-88.6&#xA;&#x9;&#x9;l-3.6,370.9H350c-16.5,0-29.9,13.4-29.9,29.9s13.4,29.9,29.9,29.9h324c16.5,0,29.9-13.4,29.9-29.9S690.5,730.4,674,730.4z"></path>
</g>
</svg>