<?xml version="1.0" encoding="utf-8"?>

<svg version="1.1" id="Layer_1" xmlns="http://www.w3.org/2000/svg" xmlns:xlink="http://www.w3.org/1999/xlink" x="0px" y="0px" viewBox="0 0 1024 1024" style="enable-background:new 0 0 1024 1024;" xml:space="preserve">

<g>
&#x9;<g>
&#x9;&#x9;<path class="st4" d="M440.22,1023.19H104.88c-19.96,0-37.97-11.84-45.89-30.15s-4.21-39.55,9.46-54.09L371.52,616.5&#xA;&#x9;&#x9;&#x9;c5.67-6.03,13.58-9.45,21.86-9.45h390.23c11.96,0,22.79,7.11,27.54,18.09s2.52,23.74-5.68,32.45l-328.82,349.84&#xA;&#x9;&#x9;&#x9;C467.24,1017.45,453.96,1023.19,440.22,1023.19z M128,963.19h307.89l278.35-296.14H406.35L128,963.19z"></path>
&#x9;</g>
&#x9;<g>
&#x9;&#x9;<path class="st2" d="M629.31,416.02H239.08c-11.96,0-22.79-7.11-27.54-18.09c-4.75-10.98-2.52-23.74,5.68-32.45L546.04,15.63&#xA;&#x9;&#x9;&#x9;c9.41-10.01,22.69-15.76,36.43-15.76h335.34c19.96,0,37.97,11.84,45.89,30.15c7.92,18.32,4.21,39.55-9.46,54.09L651.17,406.56&#xA;&#x9;&#x9;&#x9;C645.5,412.6,637.59,416.02,629.31,416.02z M308.45,356.02h307.89L894.69,59.88H586.8L308.45,356.02z M917.81,59.88L917.81,59.88&#xA;&#x9;&#x9;&#x9;L917.81,59.88z"></path>
&#x9;</g>
&#x9;<g>
&#x9;&#x9;<path class="st5" d="M393.38,667.04H49.39c-19.96,0-37.97-11.84-45.89-30.15c-7.92-18.32-4.21-39.55,9.46-54.09l204.27-217.32&#xA;&#x9;&#x9;&#x9;c5.67-6.03,13.58-9.45,21.86-9.45h390.23c11.96,0,22.79,7.11,27.54,18.09c4.75,10.98,2.52,23.74-5.68,32.45L415.24,657.59&#xA;&#x9;&#x9;&#x9;C409.57,663.62,401.65,667.04,393.38,667.04z M72.51,607.04H380.4l179.54-191.02H252.05L72.51,607.04z"></path>
&#x9;</g>
&#x9;<g>
&#x9;&#x9;<path class="st0" d="M783.61,667.05H393.38c-11.96,0-22.79-7.11-27.54-18.09s-2.52-23.74,5.68-32.45l235.94-251.02&#xA;&#x9;&#x9;&#x9;c5.67-6.03,13.58-9.45,21.86-9.45h343.99c19.96,0,37.97,11.84,45.89,30.15c7.92,18.32,4.21,39.55-9.46,54.09L805.47,657.59&#xA;&#x9;&#x9;&#x9;C799.8,663.63,791.89,667.05,783.61,667.05z M462.75,607.05h307.89l179.54-191.02H642.29L462.75,607.05z"></path>
&#x9;</g>
</g>
</svg>