<?xml version="1.0" encoding="UTF-8"?>
<svg id="Layer_1" data-name="Layer 1" xmlns="http://www.w3.org/2000/svg" viewBox="0 0 1024 1024">
  <defs>
    
  </defs>
  <path class="cls-1" d="M939.1,84.95C884.32,30.17,811.49,0,734.02,0h-444.04C212.51,0,139.68,30.17,84.9,84.95,30.12,139.73-.05,212.56-.05,290.03v443.94c0,77.47,30.17,150.3,84.95,205.08,54.78,54.78,127.61,84.95,205.08,84.95h444.04c77.47,0,150.3-30.17,205.08-84.95,54.78-54.78,84.95-127.61,84.95-205.08v-443.94c0-77.47-30.17-150.3-84.95-205.08ZM896.67,896.62c-43.45,43.45-101.21,67.37-162.65,67.37h-444.04c-61.44,0-119.2-23.93-162.65-67.37s-67.37-101.21-67.37-162.65v-184.6c7.6,9.85,15.86,19.29,24.8,28.24,54.65,54.76,127.36,84.99,204.72,85.14l163.16.31v181.13c0,12.88,8.22,24.33,20.43,28.44,3.14,1.06,6.37,1.57,9.57,1.57,9.2,0,18.12-4.25,23.9-11.86l319.65-421.1s.07-.1.11-.15c25.92,11.35,49.77,27.56,70.38,48.18,43.45,43.45,67.37,101.21,67.37,162.65v82.04c0,61.44-23.93,119.2-67.37,162.65ZM541.54,421.91h192.49c10.13,0,20.15.66,30.03,1.94l-251.41,331.21v-121.93c0-16.55-13.4-29.97-29.95-30l-193.11-.37c-9.73-.02-19.37-.64-28.87-1.84l250.81-331.32v122.32c0,16.57,13.43,30,30,30ZM939.1,446.85c-54.78-54.78-127.61-84.95-205.08-84.95h-162.48v-181.65c0-12.89-8.23-24.34-20.45-28.44-12.22-4.1-25.69.06-33.47,10.33l-319.23,421.69c-26.24-11.4-50.36-27.75-71.17-48.6-43.35-43.43-67.22-101.14-67.22-162.5v-82.71c0-.44-.01-.87-.03-1.3.34-60.95,24.22-118.21,67.36-161.35,43.45-43.45,101.21-67.37,162.65-67.37h444.04c61.44,0,119.2,23.93,162.65,67.37,43.45,43.45,67.37,101.21,67.37,162.65v185.2c-7.64-9.9-15.95-19.39-24.94-28.38Z"></path>
</svg>