<?xml version="1.0" encoding="utf-8"?>

<svg version="1.1" id="Layer_6" xmlns="http://www.w3.org/2000/svg" xmlns:xlink="http://www.w3.org/1999/xlink" x="0px" y="0px" viewBox="0 0 1024 1024" style="enable-background:new 0 0 1024 1024;" xml:space="preserve">

<rect x="-0.5" y="1288.8" class="st0" width="1024" height="1024"></rect>
<g>
&#x9;<path class="st0" d="M931.1,700.2c-16.6,0-30-13.4-30-30V288.8c0-5-2.7-9.6-7-12l-31-17.7L741.7,190c-0.3-0.1-0.5-0.3-0.8-0.4&#xA;&#x9;&#x9;l-122.2-69.6l-100-57c-4.6-2.6-10.2-2.6-14.8,0l-100,57l-121.6,69.2c-0.2,0.1-0.4,0.3-0.7,0.4l-31.8,18.1&#xA;&#x9;&#x9;c-8.6,5.7-13.7,15.1-13.7,25.5c0,9.8,4.6,18.9,12.5,24.7l6.3,3.6c3.7,1.6,7.7,2.4,11.8,2.4c4.5,0,8.8-0.9,12.7-2.7l5.4-3.1&#xA;&#x9;&#x9;c0,0,0.1,0,0.1-0.1l89.3-50.9L476,149c21.8-12.4,48.8-12.4,70.6,0l101.8,58l122.2,69.6c9.4,5.3,15.2,15.3,15.2,26.1v139.2&#xA;&#x9;&#x9;c0,10.7-5.7,20.6-14.9,25.9c-9.2,5.4-20.6,5.4-29.9,0.1L523.1,344c-3.7-1.6-7.7-2.4-11.8-2.4c-4.2,0-8.3,0.8-12,2.4l-5.7,3.2&#xA;&#x9;&#x9;c-8.1,5.7-12.9,15-12.9,24.9c0,10.5,5.3,20.1,14.1,25.8l2.6,1.5c-0.5-0.2-0.9-0.5-1.4-0.7c0,0,0,0,0,0c0.5,0.2,0.9,0.4,1.3,0.7&#xA;&#x9;&#x9;l0.5,0.3c2.3,1.3,4.4,2.9,6.3,4.8c-2-2-4.3-3.7-6.7-5c0.2,0.1,0.4,0.2,0.5,0.3l28.1,16l122.2,69.6L770,554.8&#xA;&#x9;&#x9;c9.4,5.1,15.7,15,15.7,26.4c0,16.6-13.4,30-30,30c-5.2,0-10.4-1.4-14.9-3.9l-122.2-69.6L496.4,468l-28-16c-0.1,0-0.2-0.1-0.2-0.1&#xA;&#x9;&#x9;l0,0l-3.2-1.8c-0.5-0.3-0.9-0.5-1.4-0.8c-26.9-16.7-43-45.5-43-77.1c0-29.7,14.5-57.4,38.8-74.3c1-0.7,2-1.4,3.1-2l0,0l7.1-4.1&#xA;&#x9;&#x9;c1.3-0.8,2.7-1.6,4.2-2.2c11.8-5.3,24.4-8.1,37.4-8.1c12.9,0,25.4,2.6,37,7.9c1.5,0.6,3,1.4,4.4,2.3l173.1,98.5v-70.2l-107.1-61&#xA;&#x9;&#x9;l-101.8-58c-3.4-2-7.7-2-11.2,0l-101.8,58L314.6,310l-6.3,3.6c-0.5,0.3-1.1,0.6-1.7,0.9c-12.3,6.1-26.1,9.3-39.9,9.3&#xA;&#x9;&#x9;c-13.4,0-26.2-2.8-38.2-8.4c-0.7-0.3-1.5-0.7-2.2-1.1l-8.8-5c-0.7-0.4-1.4-0.8-2.1-1.3c-24.7-16.9-39.4-44.8-39.4-74.8&#xA;&#x9;&#x9;c0-31.2,15.7-59.8,42.1-76.5c0.4-0.3,0.8-0.5,1.3-0.8l5.2-2.9l26.6-15.2c0.2-0.1,0.5-0.3,0.7-0.4l122.3-69.6l100-57&#xA;&#x9;&#x9;c22.9-13,51.3-13,74.2,0l100,57l121.5,69.2c0.3,0.1,0.5,0.3,0.8,0.4L892.8,207l31,17.7c23,13.1,37.3,37.7,37.3,64.2v381.4&#xA;&#x9;&#x9;C961.1,686.8,947.7,700.2,931.1,700.2z M504.2,404.6C504.2,404.6,504.2,404.6,504.2,404.6C504.2,404.6,504.2,404.6,504.2,404.6z&#xA;&#x9;&#x9; M504.1,404.6C504.1,404.6,504.2,404.6,504.1,404.6C504.2,404.6,504.1,404.6,504.1,404.6z M485.6,347.3&#xA;&#x9;&#x9;C485.6,347.3,485.5,347.3,485.6,347.3C485.5,347.3,485.6,347.3,485.6,347.3z M485.6,347.3C485.6,347.3,485.6,347.3,485.6,347.3&#xA;&#x9;&#x9;C485.6,347.3,485.6,347.3,485.6,347.3z M485.7,347.3C485.7,347.3,485.7,347.3,485.7,347.3C485.7,347.3,485.7,347.3,485.7,347.3z&#xA;&#x9;&#x9; M536.7,347.2C536.7,347.2,536.7,347.2,536.7,347.2C536.7,347.2,536.7,347.2,536.7,347.2z M536.7,347.2&#xA;&#x9;&#x9;C536.7,347.2,536.7,347.2,536.7,347.2C536.7,347.2,536.7,347.2,536.7,347.2z M536.6,347.2C536.6,347.2,536.6,347.2,536.6,347.2&#xA;&#x9;&#x9;C536.6,347.2,536.6,347.2,536.6,347.2z M506.6,338.7C506.6,338.7,506.6,338.7,506.6,338.7C506.6,338.7,506.6,338.7,506.6,338.7z&#xA;&#x9;&#x9; M506.6,338.7C506.6,338.7,506.6,338.7,506.6,338.7C506.6,338.7,506.6,338.7,506.6,338.7z M506.7,338.6&#xA;&#x9;&#x9;C506.6,338.6,506.6,338.6,506.7,338.6C506.6,338.6,506.6,338.6,506.7,338.6z M515.5,338.4C515.5,338.4,515.5,338.4,515.5,338.4&#xA;&#x9;&#x9;C515.5,338.4,515.5,338.4,515.5,338.4z M515.5,338.3C515.5,338.3,515.5,338.3,515.5,338.3C515.5,338.3,515.5,338.3,515.5,338.3z&#xA;&#x9;&#x9; M504,335.6C504,335.6,504,335.6,504,335.6C504,335.6,504,335.6,504,335.6z M504.1,335.5C504.1,335.5,504.1,335.5,504.1,335.5&#xA;&#x9;&#x9;C504.1,335.5,504.1,335.5,504.1,335.5z M504.1,335.4C504.1,335.5,504.1,335.5,504.1,335.4C504.1,335.5,504.1,335.5,504.1,335.4z"></path>
</g>
<g>
&#x9;<path class="st0" d="M512.8,1023c-12.8,0-25.7-3.3-37.1-9.8l-100-57l-121.5-69.2c-0.3-0.1-0.5-0.3-0.8-0.4L131.2,817l-31-17.7&#xA;&#x9;&#x9;c-23-13.1-37.3-37.7-37.3-64.2V366.3c0-16.6,13.4-30,30-30s30,13.4,30,30v368.9c0,5,2.7,9.6,7,12l31,17.7L282.3,834&#xA;&#x9;&#x9;c0.3,0.1,0.5,0.3,0.8,0.4l122.2,69.6l100,57c4.6,2.6,10.2,2.6,14.8,0l100-57l121.6-69.2c0.2-0.1,0.4-0.3,0.6-0.4l31.8-18.1&#xA;&#x9;&#x9;c8.6-5.7,13.7-15.1,13.7-25.5c0-9.8-4.6-18.9-12.5-24.7l-6.3-3.6c-3.7-1.6-7.7-2.4-11.8-2.4c-4.5,0-8.8,0.9-12.7,2.7l-5.4,3.1&#xA;&#x9;&#x9;c0,0-0.1,0-0.1,0.1L649.9,817L548,875c-21.8,12.4-48.8,12.4-70.6,0l-101.8-58l-122.2-69.6c-9.4-5.3-15.2-15.3-15.2-26.1V582.1&#xA;&#x9;&#x9;c0-10.7,5.7-20.6,14.9-25.9c9.2-5.4,20.6-5.4,29.9-0.1l217.8,124c3.7,1.6,7.7,2.4,11.8,2.4c4.2,0,8.2-0.8,12-2.4l5.7-3.2&#xA;&#x9;&#x9;c8.1-5.7,12.9-15,12.9-24.9c0-10.5-5.3-20.1-14.1-25.8l-2.6-1.5c0.5,0.2,0.9,0.5,1.4,0.7c0,0,0,0,0,0c-0.5-0.2-0.9-0.4-1.4-0.7&#xA;&#x9;&#x9;l-0.4-0.3c-2.3-1.3-4.4-2.9-6.3-4.8c2,2,4.3,3.7,6.7,5c-0.2-0.1-0.4-0.2-0.6-0.3l-28.1-16l-122.2-69.6L254,469.2&#xA;&#x9;&#x9;c-9.4-5.1-15.7-15-15.7-26.4c0-16.6,13.4-30,30-30c5.2,0,10.4,1.4,14.9,3.9l122.2,69.6L527.6,556l28,16c0.1,0,0.2,0.1,0.3,0.1l0,0&#xA;&#x9;&#x9;l3.2,1.8c0.5,0.3,0.9,0.5,1.4,0.8c26.9,16.7,43,45.5,43,77.1c0,29.7-14.5,57.4-38.8,74.3c-1,0.7-2,1.4-3.1,2l0,0l-7.1,4&#xA;&#x9;&#x9;c-1.4,0.9-2.8,1.6-4.3,2.2c-11.8,5.3-24.3,8-37.4,8c-13,0-25.4-2.7-37.1-7.9c-1.5-0.6-2.9-1.4-4.3-2.2l-173.1-98.6v70.2l107.1,61&#xA;&#x9;&#x9;l101.8,58c3.4,2,7.7,2,11.2,0l101.8-58l89.3-50.8l6.3-3.6c0.5-0.3,1.1-0.6,1.7-0.9c12.3-6.1,26.1-9.3,39.9-9.3&#xA;&#x9;&#x9;c13.4,0,26.2,2.8,38.2,8.4c0.7,0.3,1.5,0.7,2.2,1.1l8.8,5c0.7,0.4,1.4,0.8,2,1.3c24.7,16.9,39.4,44.8,39.4,74.8&#xA;&#x9;&#x9;c0,31.2-15.7,59.8-42.1,76.5c-0.4,0.3-0.8,0.5-1.3,0.8l-5.2,2.9l-26.6,15.2c-0.2,0.1-0.5,0.3-0.7,0.4l-122.3,69.6l-100,57&#xA;&#x9;&#x9;C538.4,1019.7,525.6,1023,512.8,1023z M519.9,688.6C519.9,688.6,519.9,688.6,519.9,688.6C519.9,688.6,519.9,688.6,519.9,688.6z&#xA;&#x9;&#x9; M519.9,688.6C519.9,688.6,519.9,688.6,519.9,688.6C519.9,688.6,519.9,688.6,519.9,688.6z M519.9,688.5L519.9,688.5&#xA;&#x9;&#x9;C519.9,688.5,519.9,688.5,519.9,688.5z M508.3,685.5C508.3,685.5,508.4,685.5,508.3,685.5C508.4,685.5,508.3,685.5,508.3,685.5z&#xA;&#x9;&#x9; M508.3,685.4C508.3,685.4,508.3,685.4,508.3,685.4C508.3,685.4,508.3,685.4,508.3,685.4z M487.4,676.8&#xA;&#x9;&#x9;C487.4,676.8,487.4,676.8,487.4,676.8C487.4,676.8,487.4,676.8,487.4,676.8z M487.3,676.8C487.3,676.8,487.3,676.8,487.3,676.8&#xA;&#x9;&#x9;C487.3,676.8,487.3,676.8,487.3,676.8z M487.2,676.8C487.3,676.8,487.3,676.8,487.2,676.8C487.3,676.8,487.3,676.8,487.2,676.8z&#xA;&#x9;&#x9; M537,673.6C537,673.6,537,673.6,537,673.6C537,673.6,537,673.6,537,673.6z M537.1,673.6C537.1,673.6,537.1,673.6,537.1,673.6&#xA;&#x9;&#x9;C537.1,673.6,537.1,673.6,537.1,673.6z M519.8,619.4C519.8,619.4,519.9,619.4,519.8,619.4C519.9,619.4,519.8,619.4,519.8,619.4z&#xA;&#x9;&#x9; M519.8,619.4C519.8,619.4,519.8,619.4,519.8,619.4C519.8,619.4,519.8,619.4,519.8,619.4z"></path>
</g>
<path class="st1" d="M-398.3,670.2V288.8c0-15.8-8.5-30.3-22.1-38.1l-31-17.7l-122.2-69.6h0L-696,93.9l-100-57&#xA;&#x9;c-13.8-7.9-30.7-7.9-44.5,0l-100,57l-122.3,69.6l0,0l-27.3,15.6l-5.2,2.9c-16.9,10.7-28.1,29.6-28.1,51.1c0,20.8,10.4,39.1,26.4,50&#xA;&#x9;l8.8,5c7.7,3.6,16.4,5.6,25.5,5.6c0,0,0,0,0.1,0c9.6,0,18.6-2.2,26.6-6.2l6.3-3.6l89.3-50.9l101.8-58c12.7-7.2,28.2-7.2,40.9,0&#xA;&#x9;l101.8,58l122.2,69.6v139.2L-696,372.3l-88.1-50.1l-8.6-4.9c0,0-0.1-0.1-0.1-0.1c-7.7-3.6-16.4-5.6-25.5-5.6c-9.2,0-17.9,2-25.7,5.7&#xA;&#x9;c0,0-0.1,0-0.1,0.1l-8,4.6c-0.1,0-0.1,0.1-0.2,0.1c-16,10.9-26.6,29.3-26.6,50.1c0,21.8,11.5,40.9,28.8,51.6c0,0,0,0,0.1,0l3.5,2&#xA;&#x9;c0,0,0.1,0.1,0.1,0.1l28.1,16l122.3,69.6l122.2,69.6h0"></path>
<path class="st1" d="M-1236.6,366.3v368.9c0,15.8,8.5,30.3,22.1,38.1l31,17.7l122.2,69.6h0l122.2,69.6l100,57&#xA;&#x9;c13.8,7.9,30.7,7.9,44.5,0l100-57l122.3-69.6l0,0l27.3-15.6l5.2-2.9c16.9-10.7,28.1-29.6,28.1-51.1c0-20.8-10.4-39.1-26.4-50l-8.8-5&#xA;&#x9;c-7.7-3.6-16.4-5.6-25.5-5.6c0,0,0,0-0.1,0c-9.6,0-18.6,2.2-26.6,6.2l-6.3,3.6l-89.3,50.9l-101.8,58c-12.7,7.2-28.2,7.2-40.9,0&#xA;&#x9;l-101.8-58l-122.2-69.6V582.1l122.2,69.6l88.1,50.1l8.6,4.9c0,0,0.1,0.1,0.1,0.1c7.7,3.6,16.4,5.6,25.5,5.6c9.2,0,17.9-2,25.7-5.7&#xA;&#x9;c0,0,0.1,0,0.1-0.1l8.1-4.6c0.1,0,0.1-0.1,0.2-0.1c16-10.9,26.6-29.3,26.6-50.1c0-21.8-11.5-40.9-28.8-51.6c0,0,0,0-0.1,0l-3.5-2&#xA;&#x9;c0,0-0.1-0.1-0.1-0.1l-28.1-16L-939,512.4l-122.2-69.6h0"></path>
<g>
&#x9;<g class="st2">
&#x9;&#x9;<path class="st3" d="M927.5,1989.5c-16.6,0-30-13.4-30-30v-381.4c0-5-2.7-9.6-7-12l-31-17.7L738,1479.3c-0.3-0.1-0.5-0.3-0.8-0.4&#xA;&#x9;&#x9;&#x9;L615,1409.2l-100-57c-4.6-2.6-10.2-2.6-14.8,0l-100,57l-121.6,69.2c-0.2,0.1-0.4,0.3-0.7,0.4l-31.8,18.1&#xA;&#x9;&#x9;&#x9;c-8.6,5.7-13.7,15.1-13.7,25.5c0,9.8,4.6,18.9,12.5,24.7l6.3,3.6c3.7,1.6,7.7,2.4,11.8,2.4c4.5,0,8.8-0.9,12.7-2.7l5.4-3.1&#xA;&#x9;&#x9;&#x9;c0,0,0.1,0,0.1-0.1l89.3-50.9l101.8-58c21.8-12.4,48.8-12.4,70.6,0l101.8,58l122.2,69.6c9.4,5.3,15.2,15.3,15.2,26.1v139.2&#xA;&#x9;&#x9;&#x9;c0,10.7-5.7,20.6-14.9,25.9c-9.2,5.4-20.6,5.4-29.9,0.1l-217.8-124c-3.7-1.6-7.7-2.4-11.8-2.4c-4.2,0-8.3,0.8-12,2.4l-5.7,3.2&#xA;&#x9;&#x9;&#x9;c-8.1,5.7-12.9,15-12.9,24.9c0,10.5,5.3,20.1,14.1,25.8l2.6,1.5c-0.5-0.2-0.9-0.5-1.4-0.7c0,0,0,0,0,0c0.5,0.2,0.9,0.4,1.3,0.7&#xA;&#x9;&#x9;&#x9;l0.5,0.3c2.3,1.3,4.4,2.9,6.3,4.8c-2-2-4.3-3.7-6.7-5c0.2,0.1,0.4,0.2,0.5,0.3l28.1,16l122.2,69.6l121.7,69.3&#xA;&#x9;&#x9;&#x9;c9.4,5.1,15.7,15,15.7,26.4c0,16.6-13.4,30-30,30c-5.2,0-10.4-1.4-14.9-3.9L615,1827l-122.3-69.6l-28-16c-0.1,0-0.2-0.1-0.2-0.1&#xA;&#x9;&#x9;&#x9;l0,0l-3.2-1.8c-0.5-0.3-0.9-0.5-1.4-0.8c-26.9-16.7-43-45.5-43-77.1c0-29.7,14.5-57.4,38.8-74.3c1-0.7,2-1.4,3.1-2l0,0l7.1-4.1&#xA;&#x9;&#x9;&#x9;c1.3-0.8,2.7-1.6,4.2-2.2c11.8-5.3,24.4-8.1,37.4-8.1c12.9,0,25.4,2.6,37,7.9c1.5,0.6,3,1.4,4.4,2.3l173.1,98.5v-70.2l-107.1-61&#xA;&#x9;&#x9;&#x9;l-101.8-58c-3.4-2-7.7-2-11.2,0l-101.8,58l-89.3,50.8l-6.3,3.6c-0.5,0.3-1.1,0.6-1.7,0.9c-12.3,6.1-26.1,9.3-39.9,9.3&#xA;&#x9;&#x9;&#x9;c-13.4,0-26.2-2.8-38.2-8.4c-0.7-0.3-1.5-0.7-2.2-1.1l-8.8-5c-0.7-0.4-1.4-0.8-2.1-1.3c-24.7-16.9-39.4-44.8-39.4-74.8&#xA;&#x9;&#x9;&#x9;c0-31.2,15.7-59.8,42.1-76.5c0.4-0.3,0.8-0.5,1.3-0.8l5.2-2.9l26.6-15.2c0.2-0.1,0.5-0.3,0.7-0.4l122.3-69.6l100-57&#xA;&#x9;&#x9;&#x9;c22.9-13,51.3-13,74.2,0l100,57l121.5,69.2c0.3,0.1,0.5,0.3,0.8,0.4l122.2,69.6l31,17.7c23,13.1,37.3,37.7,37.3,64.2v381.4&#xA;&#x9;&#x9;&#x9;C957.5,1976.1,944.1,1989.5,927.5,1989.5z M500.5,1693.9C500.6,1693.9,500.6,1693.9,500.5,1693.9&#xA;&#x9;&#x9;&#x9;C500.6,1693.9,500.6,1693.9,500.5,1693.9z M500.5,1693.9C500.5,1693.9,500.5,1693.9,500.5,1693.9&#xA;&#x9;&#x9;&#x9;C500.5,1693.9,500.5,1693.9,500.5,1693.9z M481.9,1636.6C481.9,1636.6,481.9,1636.6,481.9,1636.6&#xA;&#x9;&#x9;&#x9;C481.9,1636.6,481.9,1636.6,481.9,1636.6z M482,1636.6C482,1636.6,482,1636.6,482,1636.6C482,1636.6,482,1636.6,482,1636.6z&#xA;&#x9;&#x9;&#x9; M482,1636.6C482,1636.6,482,1636.6,482,1636.6C482,1636.6,482,1636.6,482,1636.6z M533.1,1636.5&#xA;&#x9;&#x9;&#x9;C533.1,1636.5,533.1,1636.5,533.1,1636.5C533.1,1636.5,533.1,1636.5,533.1,1636.5z M533,1636.5C533,1636.5,533,1636.5,533,1636.5&#xA;&#x9;&#x9;&#x9;C533,1636.5,533,1636.5,533,1636.5z M533,1636.5C533,1636.5,533,1636.5,533,1636.5C533,1636.5,533,1636.5,533,1636.5z M502.9,1628&#xA;&#x9;&#x9;&#x9;C502.9,1628,502.9,1628,502.9,1628C502.9,1628,502.9,1628,502.9,1628z M503,1628C503,1628,503,1628,503,1628&#xA;&#x9;&#x9;&#x9;C503,1628,503,1628,503,1628z M503,1627.9C503,1627.9,503,1627.9,503,1627.9C503,1627.9,503,1627.9,503,1627.9z M511.9,1627.7&#xA;&#x9;&#x9;&#x9;C511.9,1627.7,511.9,1627.7,511.9,1627.7C511.9,1627.7,511.9,1627.7,511.9,1627.7z M511.8,1627.6&#xA;&#x9;&#x9;&#x9;C511.8,1627.6,511.8,1627.6,511.8,1627.6C511.8,1627.6,511.8,1627.6,511.8,1627.6z M500.4,1624.9&#xA;&#x9;&#x9;&#x9;C500.4,1624.9,500.4,1624.9,500.4,1624.9C500.4,1624.9,500.4,1624.9,500.4,1624.9z M500.4,1624.8&#xA;&#x9;&#x9;&#x9;C500.4,1624.8,500.4,1624.8,500.4,1624.8C500.4,1624.8,500.4,1624.8,500.4,1624.8z M500.5,1624.7&#xA;&#x9;&#x9;&#x9;C500.5,1624.8,500.5,1624.8,500.5,1624.7C500.5,1624.8,500.5,1624.8,500.5,1624.7z"></path>
&#x9;</g>
&#x9;<g class="st2">
&#x9;&#x9;<path class="st3" d="M509.1,2312.3c-12.8,0-25.7-3.3-37.1-9.8l-100-57l-121.5-69.2c-0.3-0.1-0.5-0.3-0.8-0.4l-122.2-69.6l-31-17.7&#xA;&#x9;&#x9;&#x9;c-23-13.1-37.3-37.7-37.3-64.2v-368.9c0-16.6,13.4-30,30-30s30,13.4,30,30v368.9c0,5,2.7,9.6,7,12l31,17.7l121.5,69.2&#xA;&#x9;&#x9;&#x9;c0.3,0.1,0.5,0.3,0.8,0.4l122.2,69.6l100,57c4.6,2.6,10.2,2.6,14.8,0l100-57l121.6-69.2c0.2-0.1,0.4-0.3,0.6-0.4l31.8-18.1&#xA;&#x9;&#x9;&#x9;c8.6-5.7,13.7-15.1,13.7-25.5c0-9.8-4.6-18.9-12.5-24.7l-6.3-3.6c-3.7-1.6-7.7-2.4-11.8-2.4c-4.5,0-8.8,0.9-12.7,2.7l-5.4,3.1&#xA;&#x9;&#x9;&#x9;c0,0-0.1,0-0.1,0.1l-89.3,50.9l-101.8,58c-21.8,12.4-48.8,12.4-70.6,0l-101.8-58l-122.2-69.6c-9.4-5.3-15.2-15.3-15.2-26.1v-139.2&#xA;&#x9;&#x9;&#x9;c0-10.7,5.7-20.6,14.9-25.9c9.2-5.4,20.6-5.4,29.9-0.1l217.8,124c3.7,1.6,7.7,2.4,11.8,2.4c4.2,0,8.2-0.8,12-2.4l5.7-3.2&#xA;&#x9;&#x9;&#x9;c8.1-5.7,12.9-15,12.9-24.9c0-10.5-5.3-20.1-14.1-25.8l-2.6-1.5c0.5,0.2,0.9,0.5,1.4,0.7c0,0,0,0,0,0c-0.5-0.2-0.9-0.4-1.4-0.7&#xA;&#x9;&#x9;&#x9;l-0.4-0.3c-2.3-1.3-4.4-2.9-6.3-4.8c2,2,4.3,3.7,6.7,5c-0.2-0.1-0.4-0.2-0.6-0.3l-28.1-16L372,1827.8l-121.7-69.3&#xA;&#x9;&#x9;&#x9;c-9.4-5.1-15.7-15-15.7-26.4c0-16.6,13.4-30,30-30c5.2,0,10.4,1.4,14.9,3.9l122.2,69.6l122.3,69.6l28,16c0.1,0,0.2,0.1,0.3,0.1&#xA;&#x9;&#x9;&#x9;l0,0l3.2,1.8c0.5,0.3,0.9,0.5,1.4,0.8c26.9,16.7,43,45.5,43,77.1c0,29.7-14.5,57.4-38.8,74.3c-1,0.7-2,1.4-3.1,2l0,0l-7.1,4&#xA;&#x9;&#x9;&#x9;c-1.4,0.9-2.8,1.6-4.3,2.2c-11.8,5.3-24.3,8-37.4,8c-13,0-25.4-2.7-37.1-7.9c-1.5-0.6-2.9-1.4-4.3-2.2L294.6,1923v70.2l107.1,61&#xA;&#x9;&#x9;&#x9;l101.8,58c3.4,2,7.7,2,11.2,0l101.8-58l89.3-50.8l6.3-3.6c0.5-0.3,1.1-0.6,1.7-0.9c12.3-6.1,26.1-9.3,39.9-9.3&#xA;&#x9;&#x9;&#x9;c13.4,0,26.2,2.8,38.2,8.4c0.7,0.3,1.5,0.7,2.2,1.1l8.8,5c0.7,0.4,1.4,0.8,2,1.3c24.7,16.9,39.4,44.8,39.4,74.8&#xA;&#x9;&#x9;&#x9;c0,31.2-15.7,59.8-42.1,76.5c-0.4,0.3-0.8,0.5-1.3,0.8l-5.2,2.9l-26.6,15.2c-0.2,0.1-0.5,0.3-0.7,0.4l-122.3,69.6l-100,57&#xA;&#x9;&#x9;&#x9;C534.8,2309,521.9,2312.3,509.1,2312.3z M516.2,1977.9C516.2,1977.9,516.2,1977.9,516.2,1977.9&#xA;&#x9;&#x9;&#x9;C516.2,1977.9,516.2,1977.9,516.2,1977.9z M516.3,1977.9C516.3,1977.9,516.3,1977.9,516.3,1977.9&#xA;&#x9;&#x9;&#x9;C516.3,1977.9,516.3,1977.9,516.3,1977.9z M516.3,1977.8L516.3,1977.8C516.3,1977.8,516.3,1977.8,516.3,1977.8z M504.7,1974.8&#xA;&#x9;&#x9;&#x9;C504.7,1974.8,504.7,1974.8,504.7,1974.8C504.7,1974.8,504.7,1974.8,504.7,1974.8z M504.7,1974.7&#xA;&#x9;&#x9;&#x9;C504.7,1974.7,504.7,1974.7,504.7,1974.7C504.7,1974.7,504.7,1974.7,504.7,1974.7z M483.7,1966.1&#xA;&#x9;&#x9;&#x9;C483.7,1966.1,483.7,1966.1,483.7,1966.1C483.7,1966.1,483.7,1966.1,483.7,1966.1z M483.7,1966.1&#xA;&#x9;&#x9;&#x9;C483.7,1966.1,483.7,1966.1,483.7,1966.1C483.7,1966.1,483.7,1966.1,483.7,1966.1z M483.6,1966.1&#xA;&#x9;&#x9;&#x9;C483.6,1966.1,483.6,1966.1,483.6,1966.1C483.6,1966.1,483.6,1966.1,483.6,1966.1z M533.4,1962.9&#xA;&#x9;&#x9;&#x9;C533.4,1962.9,533.4,1962.9,533.4,1962.9C533.4,1962.9,533.4,1962.9,533.4,1962.9z M533.5,1962.9&#xA;&#x9;&#x9;&#x9;C533.5,1962.9,533.4,1962.9,533.5,1962.9C533.4,1962.9,533.5,1962.9,533.5,1962.9z M516.2,1908.7&#xA;&#x9;&#x9;&#x9;C516.2,1908.7,516.2,1908.7,516.2,1908.7C516.2,1908.7,516.2,1908.7,516.2,1908.7z M516.2,1908.7&#xA;&#x9;&#x9;&#x9;C516.2,1908.7,516.2,1908.7,516.2,1908.7C516.2,1908.7,516.2,1908.7,516.2,1908.7z"></path>
&#x9;</g>
</g>
</svg>