<svg width="49" height="49" viewBox="0 0 49 49" fill="none" xmlns="http://www.w3.org/2000/svg">
<path d="M24.3984 9.56757C21.7684 9.56757 19.6239 7.41892 19.6239 4.78378C19.6239 2.14865 21.7667 0 24.3984 0C27.0301 0 29.1728 2.14865 29.1728 4.78378C29.1728 7.41892 27.0284 9.56757 24.3984 9.56757ZM24.3984 2.86993C23.343 2.86993 22.4882 3.72635 22.4882 4.78378C22.4882 5.84122 23.343 6.69764 24.3984 6.69764C25.4538 6.69764 26.3085 5.84122 26.3085 4.78378C26.3085 3.72635 25.4538 2.86993 24.3984 2.86993Z" fill="#E42527"/>
<path d="M24.3984 9.56757C21.7684 9.56757 19.6239 7.41892 19.6239 4.78378C19.6239 2.14865 21.7667 0 24.3984 0C27.0301 0 29.1728 2.14865 29.1728 4.78378C29.1728 7.41892 27.0284 9.56757 24.3984 9.56757ZM24.3984 2.86993C23.343 2.86993 22.4882 3.72635 22.4882 4.78378C22.4882 5.84122 23.343 6.69764 24.3984 6.69764C25.4538 6.69764 26.3085 5.84122 26.3085 4.78378C26.3085 3.72635 25.4538 2.86993 24.3984 2.86993Z" fill="#E42527"/>
<path d="M44.0121 23.9713C41.3771 23.9713 39.2275 21.8226 39.2275 19.1773C39.2275 16.5321 41.372 14.3834 44.0121 14.3834C46.6472 14.3834 48.7967 16.5321 48.7967 19.1773C48.7967 21.8226 46.6523 23.9713 44.0121 23.9713ZM44.0121 17.2601C42.9568 17.2601 42.0936 18.1216 42.0936 19.1824C42.0936 20.2432 42.9534 21.1047 44.0121 21.1047C45.0675 21.1047 45.9307 20.2432 45.9307 19.1824C45.9307 18.1216 45.0709 17.2601 44.0121 17.2601Z" fill="#089949"/>
<path d="M44.0121 23.9713C41.3771 23.9713 39.2275 21.8226 39.2275 19.1773C39.2275 16.5321 41.372 14.3834 44.0121 14.3834C46.6472 14.3834 48.7967 16.5321 48.7967 19.1773C48.7967 21.8226 46.6523 23.9713 44.0121 23.9713ZM44.0121 17.2601C42.9568 17.2601 42.0936 18.1216 42.0936 19.1824C42.0936 20.2432 42.9534 21.1047 44.0121 21.1047C45.0675 21.1047 45.9307 20.2432 45.9307 19.1824C45.9307 18.1216 45.0709 17.2601 44.0121 17.2601Z" fill="#089949"/>
<path d="M36.4914 46.6858C33.8563 46.6858 31.7068 44.5372 31.7068 41.8919C31.7068 39.2517 33.8513 37.098 36.4914 37.098C39.1264 37.098 41.276 39.2466 41.276 41.8919C41.276 44.5372 39.1315 46.6858 36.4914 46.6858ZM36.4914 39.973C35.436 39.973 34.5728 40.8344 34.5728 41.8953C34.5728 42.9527 35.4326 43.8176 36.4914 43.8176C37.5468 43.8176 38.4099 42.9561 38.4099 41.8953C38.4099 40.8344 37.5518 39.973 36.4914 39.973Z" fill="#226DB4"/>
<path d="M12.4133 46.7855C9.77819 46.7855 7.62866 44.6368 7.62866 41.9915C7.62866 39.3513 9.77313 37.1976 12.4133 37.1976C15.0534 37.1976 17.1978 39.3463 17.1978 41.9915C17.1928 44.6385 15.05 46.7855 12.4133 46.7855ZM12.4133 40.0743C11.3579 40.0743 10.4947 40.9358 10.4947 41.9966C10.4947 43.054 11.3545 43.9189 12.4133 43.9189C13.4737 43.9189 14.3318 43.0574 14.3318 41.9966C14.3284 40.9358 13.4686 40.0743 12.4133 40.0743Z" fill="#F9B21D"/>
<path d="M12.4133 46.7855C9.77819 46.7855 7.62866 44.6368 7.62866 41.9915C7.62866 39.3513 9.77313 37.1976 12.4133 37.1976C15.0534 37.1976 17.1978 39.3463 17.1978 41.9915C17.1928 44.6385 15.05 46.7855 12.4133 46.7855ZM12.4133 40.0743C11.3579 40.0743 10.4947 40.9358 10.4947 41.9966C10.4947 43.054 11.3545 43.9189 12.4133 43.9189C13.4737 43.9189 14.3318 43.0574 14.3318 41.9966C14.3284 40.9358 13.4686 40.0743 12.4133 40.0743Z" fill="#F9B21D"/>
<path d="M4.78459 23.9476C2.14447 23.9476 0 21.799 0 19.1588C0 16.5186 2.14447 14.3649 4.78459 14.3649C7.42471 14.3649 9.56918 16.5135 9.56918 19.1588C9.56918 21.8041 7.41965 23.9476 4.78459 23.9476ZM4.78459 17.2365C3.72922 17.2365 2.86603 18.098 2.86603 19.1588C2.86603 20.2196 3.72584 21.0811 4.78459 21.0811C5.84334 21.0811 6.70315 20.2196 6.70315 19.1588C6.70315 18.098 5.83996 17.2365 4.78459 17.2365Z" fill="#226DB4"/>
<path d="M4.78459 23.9476C2.14447 23.9476 0 21.799 0 19.1588C0 16.5186 2.14447 14.3649 4.78459 14.3649C7.42471 14.3649 9.56918 16.5135 9.56918 19.1588C9.56918 21.8041 7.41965 23.9476 4.78459 23.9476ZM4.78459 17.2365C3.72922 17.2365 2.86603 18.098 2.86603 19.1588C2.86603 20.2196 3.72584 21.0811 4.78459 21.0811C5.84334 21.0811 6.70315 20.2196 6.70315 19.1588C6.70315 18.098 5.83996 17.2365 4.78459 17.2365Z" fill="#226DB4"/>
<path d="M8.61325 29.1723C8.20695 29.1723 7.80234 29 7.5191 28.6655C7.00828 28.0574 7.08414 27.1537 7.69107 26.6419L13.4299 21.7821L9.98389 7.7348C9.79339 6.96453 10.2654 6.18919 11.0342 5.99832C11.803 5.80744 12.5768 6.28041 12.7673 7.05068L16.424 21.9578C16.5522 22.4882 16.3718 23.0439 15.9554 23.397L9.53544 28.8328C9.26738 29.0574 8.93863 29.1723 8.61325 29.1723Z" fill="#226DB4"/>
<path d="M21.7718 42.5338C21.2087 42.5338 20.6742 42.1993 20.445 41.6385L17.6177 34.7027L3.21841 33.6402C2.43109 33.5828 1.83934 32.8936 1.89666 32.1047C1.95398 31.3159 2.64183 30.723 3.42914 30.7804L18.7169 31.9054C19.2614 31.9442 19.7335 32.2888 19.9392 32.7956L23.1002 40.5591C23.4003 41.2905 23.048 42.1334 22.318 42.429C22.1342 42.4949 21.9488 42.5338 21.7718 42.5338Z" fill="#F9B21D"/>
<path d="M21.7718 42.5338C21.2087 42.5338 20.6742 42.1993 20.445 41.6385L17.6177 34.7027L3.21841 33.6402C2.43109 33.5828 1.83934 32.8936 1.89666 32.1047C1.95398 31.3159 2.64183 30.723 3.42914 30.7804L18.7169 31.9054C19.2614 31.9442 19.7335 32.2888 19.9392 32.7956L23.1002 40.5591C23.4003 41.2905 23.048 42.1334 22.318 42.429C22.1342 42.4949 21.9488 42.5338 21.7718 42.5338Z" fill="#F9B21D"/>
<path d="M24.3983 48.9865C24.2163 48.9865 24.0359 48.9527 23.8588 48.8818C23.1288 48.5811 22.7748 47.7432 23.0766 47.0118L28.8626 32.7939C29.0683 32.2872 29.5403 31.9426 30.0849 31.9037L38.4065 31.2922C39.1938 31.2348 39.8817 31.8277 39.939 32.6166C39.9963 33.4054 39.4045 34.0946 38.6172 34.152L31.179 34.6976L25.7268 48.0929C25.4959 48.652 24.9614 48.9865 24.3983 48.9865Z" fill="#226DB4"/>
<path d="M24.3983 48.9865C24.2163 48.9865 24.0359 48.9527 23.8588 48.8818C23.1288 48.5811 22.7748 47.7432 23.0766 47.0118L28.8626 32.7939C29.0683 32.2872 29.5403 31.9426 30.0849 31.9037L38.4065 31.2922C39.1938 31.2348 39.8817 31.8277 39.939 32.6166C39.9963 33.4054 39.4045 34.0946 38.6172 34.152L31.179 34.6976L25.7268 48.0929C25.4959 48.652 24.9614 48.9865 24.3983 48.9865Z" fill="#226DB4"/>
<path d="M45.4721 33.6452C45.1467 33.6452 44.818 33.5354 44.5499 33.3057L32.8379 23.3986C32.4232 23.0439 32.2411 22.4898 32.3693 21.9594L34.3704 13.8023C34.5609 13.0321 35.3348 12.5642 36.1035 12.75C36.8723 12.9408 37.3393 13.7162 37.1539 14.4865L35.3634 21.777L46.3926 31.1098C46.9995 31.6216 47.0703 32.5253 46.5646 33.1334C46.2847 33.4729 45.8784 33.6452 45.4721 33.6452Z" fill="#089949"/>
<path d="M45.4721 33.6452C45.1467 33.6452 44.818 33.5354 44.5499 33.3057L32.8379 23.3986C32.4232 23.0439 32.2411 22.4898 32.3693 21.9594L34.3704 13.8023C34.5609 13.0321 35.3348 12.5642 36.1035 12.75C36.8723 12.9408 37.3393 13.7162 37.1539 14.4865L35.3634 21.777L46.3926 31.1098C46.9995 31.6216 47.0703 32.5253 46.5646 33.1334C46.2847 33.4729 45.8784 33.6452 45.4721 33.6452Z" fill="#089949"/>
<path d="M24.3983 16.9155C24.1353 16.9155 23.8723 16.8446 23.6447 16.701L16.5488 12.2939C15.8761 11.8784 15.6704 10.9933 16.0851 10.3176C16.4999 9.64359 17.3833 9.43751 18.0576 9.85305L24.3983 13.7905L36.6683 6.17062C37.341 5.75507 38.2244 5.95947 38.6408 6.63514C39.0555 7.30913 38.8516 8.19426 38.1772 8.61149L25.1519 16.701C24.9226 16.8446 24.6596 16.9155 24.3983 16.9155Z" fill="#E42527"/>
<path d="M24.3983 16.9155C24.1353 16.9155 23.8723 16.8446 23.6447 16.701L16.5488 12.2939C15.8761 11.8784 15.6704 10.9933 16.0851 10.3176C16.4999 9.64359 17.3833 9.43751 18.0576 9.85305L24.3983 13.7905L36.6683 6.17062C37.341 5.75507 38.2244 5.95947 38.6408 6.63514C39.0555 7.30913 38.8516 8.19426 38.1772 8.61149L25.1519 16.701C24.9226 16.8446 24.6596 16.9155 24.3983 16.9155Z" fill="#E42527"/>
</svg>
