<svg id="Layer_1" data-name="Layer 1" xmlns="http://www.w3.org/2000/svg" viewBox="0 0 1024 1024"><defs></defs><title>TeamInbox_Outlines</title><path class="cls-1" d="M734.84,743.6H431.32a30,30,0,0,1,0-60H734.84a70.08,70.08,0,0,0,70-70V249.41a30,30,0,1,1,60,0V613.6A130.14,130.14,0,0,1,734.84,743.6Z"></path><path class="cls-2" d="M713.6,622.4a30,30,0,0,1-30-30V289.16a70.08,70.08,0,0,0-70-70H249.91a30,30,0,0,1,0-60H613.6a130.14,130.14,0,0,1,130,130V592.4A30,30,0,0,1,713.6,622.4Z"></path><path class="cls-3" d="M189.16,803.84a30,30,0,0,1-30-30V410.4a130.14,130.14,0,0,1,130-130H593.48a30,30,0,0,1,0,60H289.16a70.08,70.08,0,0,0-70,70V773.84A30,30,0,0,1,189.16,803.84Z"></path><path class="cls-4" d="M775.34,864.84H410.4a130.14,130.14,0,0,1-130-130V431.73a30,30,0,0,1,60,0V734.84a70.08,70.08,0,0,0,70,70H775.34a30,30,0,0,1,0,60Z"></path><path class="cls-2" d="M451.5,219.11A109.59,109.59,0,1,1,529,32h0A109.56,109.56,0,0,1,451.5,219.11ZM451.5,60a49.57,49.57,0,1,0,35.08,14.51h0A49.41,49.41,0,0,0,451.5,60Z"></path><path class="cls-4" d="M572.5,1024.07A109.61,109.61,0,1,1,650,992,108.93,108.93,0,0,1,572.5,1024.07Zm0-159.21a49.57,49.57,0,1,0,35.08,14.51A49.45,49.45,0,0,0,572.5,864.86Z"></path><path class="cls-1" d="M914.45,561A109.61,109.61,0,1,1,992,528.9h0A108.9,108.9,0,0,1,914.45,561Zm0-159.22a49.61,49.61,0,1,0,35.08,84.69h0a49.61,49.61,0,0,0-35.08-84.69Z"></path><path class="cls-3" d="M109.55,682a109.6,109.6,0,1,1,77.51-32.1h0A108.92,108.92,0,0,1,109.55,682Zm56.29-53.32h0Zm-56.29-105.9a49.61,49.61,0,1,0,35.08,14.53A49.29,49.29,0,0,0,109.55,522.78Z"></path></svg>