<svg id="Layer_1" data-name="Layer 1" xmlns="http://www.w3.org/2000/svg" viewBox="0 0 1024 1024"><defs></defs><title>Thrive</title><path class="cls-1" d="M758.5,874.66a92.77,92.77,0,0,1-46.44-12.41L587.2,790.11a30,30,0,0,1,30-52L742.08,810.3a32.92,32.92,0,0,0,32.84,0l113.65-65.61A32.92,32.92,0,0,0,905,716.25V300.88a32.83,32.83,0,0,0-4.46-16.52,30,30,0,0,1,51.86-30.18,93,93,0,0,1,12.6,46.7V716.25a93.1,93.1,0,0,1-46.42,80.4L804.92,862.27A92.89,92.89,0,0,1,758.5,874.66Z"></path><path class="cls-1" d="M266.54,874.58a92.83,92.83,0,0,1-46.34-12.35L106.36,796.65a93.09,93.09,0,0,1-46.49-80.44V300.88a92.88,92.88,0,0,1,12.61-46.71,30,30,0,1,1,51.85,30.19,32.83,32.83,0,0,0-4.46,16.52V716.21a32.91,32.91,0,0,0,16.44,28.45l113.84,65.58a32.91,32.91,0,0,0,32.81,0l124.61-72a30,30,0,1,1,30,51.95L313,862.16A92.76,92.76,0,0,1,266.54,874.58Z"></path><path class="cls-2" d="M512.43,1023.34a50.27,50.27,0,0,1-25.14-6.72l-69.57-40.16a50.44,50.44,0,0,1-25.13-43.55l.14-603.44L282.48,392.85a30,30,0,0,1-29.94,0L83.43,295.31a30.07,30.07,0,0,1-11-41.14,93,93,0,0,1,33.81-33.69L466,12.79a93.11,93.11,0,0,1,92.83,0L918.57,220.48a93,93,0,0,1,32.79,32c.42.62.81,1.25,1.18,1.9a30,30,0,0,1-11,40.83L772.45,393.06a30,30,0,0,1-30,0L632.11,329.52V933A50.39,50.39,0,0,1,607,976.54l-69.42,40.08A50.31,50.31,0,0,1,512.43,1023.34Zm-59.84-96,59.84,34.55,59.69-34.46V312.69a50.26,50.26,0,0,1,75.36-43.56l109.92,63.33,117.42-68-346-199.74a32.9,32.9,0,0,0-32.83,0L150.08,264.48l117.47,67.74,109.87-63.15a50.27,50.27,0,0,1,75.32,43.59Z"></path></svg>