<?xml version="1.0" encoding="utf-8"?>

<svg version="1.1" id="Layer_1" xmlns="http://www.w3.org/2000/svg" xmlns:xlink="http://www.w3.org/1999/xlink" x="0px" y="0px" viewBox="0 0 1024 1024" style="enable-background:new 0 0 1024 1024;" xml:space="preserve">

<g>
&#x9;<g>
&#x9;&#x9;<path class="st0" d="M605.9,1024H418.1c-16.6,0-30-13.4-30-30V726.5L237,639.3c-9.3-5.4-15-15.3-15-26V393.1&#xA;&#x9;&#x9;&#x9;c0-8.4,3.5-16.4,9.7-22.1l166.1-152.1c12.2-11.2,31.2-10.4,42.4,1.9c11.2,12.2,10.4,31.2-1.9,42.4L282,406.3V596l151.1,87.2&#xA;&#x9;&#x9;&#x9;c9.3,5.4,15,15.3,15,26V964h127.8V709.2c0-10.7,5.7-20.6,15-26L742,596V406.3L585.6,263.1c-12.2-11.2-13.1-30.2-1.9-42.4&#xA;&#x9;&#x9;&#x9;c11.2-12.2,30.2-13.1,42.4-1.9L792.3,371c6.2,5.7,9.7,13.7,9.7,22.1v220.2c0,10.7-5.7,20.6-15,26l-151.1,87.2V994&#xA;&#x9;&#x9;&#x9;C635.9,1010.6,622.5,1024,605.9,1024z"></path>
&#x9;</g>
&#x9;<path class="st1" d="M844,211h-41.6v-61c0-82.7-67.3-150-150-150H371.7c-82.7,0-150,67.3-150,150v61H180C80.7,211,0,291.7,0,391&#xA;&#x9;&#x9;v453c0,99.3,80.7,180,180,180h664c99.3,0,180-80.7,180-180V391C1024,291.7,943.3,211,844,211z M281.7,150c0-49.6,40.4-90,90-90&#xA;&#x9;&#x9;h280.7c49.6,0,90,40.4,90,90v61H605.9c-16.6,0-30,13.4-30,30v241H448.1V241c0-16.6-13.4-30-30-30H281.7V150z M964,844&#xA;&#x9;&#x9;c0,66.2-53.8,120-120,120H180c-66.2,0-120-53.8-120-120V391c0-66.2,53.8-120,120-120h208.1v241c0,16.6,13.4,30,30,30h187.8&#xA;&#x9;&#x9;c16.6,0,30-13.4,30-30V271H844c66.2,0,120,53.8,120,120V844z"></path>
</g>
</svg>