<?xml version="1.0" encoding="utf-8"?>

<svg version="1.1" id="Layer_1" xmlns="http://www.w3.org/2000/svg" xmlns:xlink="http://www.w3.org/1999/xlink" x="0px" y="0px" viewBox="0 0 1024 1024" style="enable-background:new 0 0 1024 1024;" xml:space="preserve">

<g>
&#x9;<path class="st1" d="M713.9,568.32c-0.56-0.16-1.12-0.24-1.67-0.24c-2.84,0-5.38,2.04-5.92,5c-3.78,20.72-21.91,36.43-43.72,36.43&#xA;&#x9;&#x9;H536.75c-24.55,0-44.46-19.9-44.46-44.46v-97.92c0-24.55,19.91-44.46,44.46-44.46h125.84c21.37,0,39.21,15.08,43.48,35.18&#xA;&#x9;&#x9;c0.61,2.89,3.12,4.85,5.89,4.85c0.58,0,1.17-0.08,1.75-0.26c22.19-6.77,91.29-28.9,91.29-28.9&#xA;&#x9;&#x9;c-33.44-80.56-115.79-124.64-198.63-124.64c-123.88,0-212.04,83.6-212.04,208.24c0,131.48,77.52,209,209,209&#xA;&#x9;&#x9;c90.44,0,165.95-41.33,201.67-129.49C805,596.66,736.23,574.8,713.9,568.32z"></path>
&#x9;<g>
&#x9;&#x9;<g>
&#x9;&#x9;&#x9;<path class="st2" d="M435.77,684.71c-39.84-39.84-60.89-97.78-60.89-167.56c0-110.58,64.8-193.6,163.98-219.3H262.89&#xA;&#x9;&#x9;&#x9;&#x9;c-24.24,0-43.89,19.65-43.89,43.89v45.4h104.55l-0.3,328.28h72.45c19.17,0,35.43-12.33,41.37-29.49&#xA;&#x9;&#x9;&#x9;&#x9;C436.64,685.52,436.19,685.13,435.77,684.71z"></path>
&#x9;&#x9;</g>
&#x9;</g>
</g>
</svg>