<svg width="1024" height="1024" viewBox="0 0 1024 1024" fill="none" xmlns="http://www.w3.org/2000/svg">
<path d="M512 904.816L83.0879 122.554C100.959 120.308 119.188 119.186 137.417 119.186C396.194 119.186 606.004 338.892 606.004 609.877C606.004 677.249 593.136 741.252 569.904 799.641L512.358 904.816H512Z" fill="#FF1368"></path>
<mask id="mask0_7236_12650" style="mask-type:luminance" maskUnits="userSpaceOnUse" x="83" y="119" width="524" height="786">
<path d="M512 904.816L83.0879 122.554C100.959 120.308 119.188 119.186 137.417 119.186C396.194 119.186 606.004 338.892 606.004 609.877C606.004 677.249 593.136 741.252 569.904 799.641L512.358 904.816H512Z" fill="white"></path>
</mask>
<g mask="url(#mask0_7236_12650)">
<path d="M390.113 538.002C544.087 538.002 668.907 407.294 668.907 246.058C668.907 84.8213 544.087 -45.8867 390.113 -45.8867C236.14 -45.8867 111.32 84.8213 111.32 246.058C111.32 407.294 236.14 538.002 390.113 538.002Z" fill="#FF4F1E"></path>
<path d="M106.34 609.135C260.313 609.135 385.133 478.427 385.133 317.191C385.133 155.954 260.313 25.2461 106.34 25.2461C-47.6332 25.2461 -172.453 155.954 -172.453 317.191C-172.453 478.427 -47.6332 609.135 106.34 609.135Z" fill="#FF5E00"></path>
<path d="M161.732 320.181C268.527 320.181 355.1 229.523 355.1 117.691C355.1 5.85892 268.527 -84.7988 161.732 -84.7988C54.9381 -84.7988 -31.6357 5.85892 -31.6357 117.691C-31.6357 229.523 54.9381 320.181 161.732 320.181Z" fill="#FF7700"></path>
</g>
<g style="mix-blend-mode:multiply" opacity="0.45">
<path d="M474.487 268.904C454.113 299.596 428.021 346.008 410.15 407.016C401.929 435.462 389.776 485.991 389.776 549.994C389.776 585.177 393.351 636.08 410.507 694.469C423.375 738.635 440.174 774.193 454.471 799.27C449.824 787.293 443.748 771.198 438.029 751.735C421.587 694.844 418.013 644.689 418.013 609.88C418.013 545.877 429.808 494.974 438.386 466.154C458.402 398.034 488.426 347.505 512.016 315.316C506.298 307.456 500.221 299.596 493.788 291.362C487.354 283.127 480.563 275.641 474.487 268.904Z" fill="#840475"></path>
</g>
<path d="M512 904.816L940.913 122.554C923.041 120.308 904.813 119.186 886.584 119.186C627.807 119.186 417.997 338.892 417.997 609.877C417.997 676.874 430.864 740.878 454.097 799.266" fill="#238BE7"></path>
<mask id="mask1_7236_12650" style="mask-type:luminance" maskUnits="userSpaceOnUse" x="417" y="119" width="524" height="786">
<path d="M512 904.816L940.913 122.554C923.041 120.308 904.813 119.186 886.584 119.186C627.807 119.186 417.997 338.892 417.997 609.877C417.997 676.874 430.864 740.878 454.097 799.266" fill="white"></path>
</mask>
<g mask="url(#mask1_7236_12650)">
<path d="M498.799 767.086C652.772 767.086 777.592 636.378 777.592 475.142C777.592 313.905 652.772 183.197 498.799 183.197C344.826 183.197 220.006 313.905 220.006 475.142C220.006 636.378 344.826 767.086 498.799 767.086Z" fill="#6359E0"></path>
<path d="M663.18 987.897C817.153 987.897 941.973 857.189 941.973 695.952C941.973 534.716 817.153 404.008 663.18 404.008C509.207 404.008 384.387 534.716 384.387 695.952C384.387 857.189 509.207 987.897 663.18 987.897Z" fill="#6E49B8"></path>
<path d="M488.76 943.366C595.554 943.366 682.128 852.708 682.128 740.876C682.128 629.044 595.554 538.387 488.76 538.387C381.965 538.387 295.392 629.044 295.392 740.876C295.392 852.708 381.965 943.366 488.76 943.366Z" fill="#A40588"></path>
</g>
</svg>