<svg width="50" height="49" viewBox="0 0 50 49" fill="none" xmlns="http://www.w3.org/2000/svg">
<path d="M40.4641 48.9865H35.6538C33.7907 48.9865 32.2832 47.4831 32.2832 45.625V43.6486C32.2832 43.3784 32.063 43.1757 31.8089 43.1757H17.3611C17.0901 43.1757 16.8869 43.3953 16.8869 43.6486V45.625C16.8869 47.4831 15.3794 48.9865 13.5163 48.9865H8.67209C6.80894 48.9865 5.30149 47.4831 5.30149 45.625V43.0237C2.26965 42.3649 0 39.6622 0 36.4527V6.72297C0.0169377 3.02365 3.03184 0 6.75813 0H42.395C46.1043 0 49.1362 3.02365 49.1362 6.72297V36.4527C49.1362 39.6622 46.8665 42.3649 43.8347 43.0237V45.625C43.8347 47.4831 42.3272 48.9865 40.4641 48.9865ZM17.3442 40.2872H31.792C33.6551 40.2872 35.1626 41.7905 35.1626 43.6486V45.625C35.1626 45.8953 35.3828 46.098 35.6369 46.098H40.4472C40.7182 46.098 40.9214 45.8784 40.9214 45.625V41.7399C40.9214 40.9459 41.565 40.3041 42.3611 40.3041C44.4783 40.3041 46.206 38.5811 46.206 36.4696V6.73987C46.206 4.62838 44.4783 2.90541 42.3611 2.90541H6.75813C4.64092 2.90541 2.91328 4.62838 2.91328 6.73987V36.4696C2.91328 38.5811 4.64092 40.3041 6.75813 40.3041C7.5542 40.3041 8.19783 40.9459 8.19783 41.7399V45.625C8.19783 45.8953 8.41802 46.098 8.67209 46.098H13.4993C13.7703 46.098 13.9736 45.8784 13.9736 45.625V43.6486C13.9736 41.8074 15.481 40.2872 17.3442 40.2872Z" fill="#226DB4"/>
<path d="M29.048 19.4257C28.8109 18.6655 27.9809 18.2601 27.2357 18.4966L21.5446 20.3209V14.4088C21.5446 13.6149 20.901 12.973 20.1049 12.973C19.3089 12.973 18.6652 13.6149 18.6652 14.4088V20.3209L12.9911 18.4966C12.2289 18.2432 11.4159 18.6655 11.1788 19.4257C10.9416 20.1858 11.3481 20.9966 12.1103 21.2331L17.7845 23.0574L14.2614 27.8885C13.7872 28.5304 13.9396 29.4426 14.5832 29.8986C14.8373 30.0844 15.1422 30.1689 15.4301 30.1689C15.8705 30.1689 16.3109 29.9662 16.5988 29.5777L20.1219 24.7466L23.6449 29.5777C23.9328 29.9662 24.3732 30.1689 24.8136 30.1689C25.1015 30.1689 25.4064 30.0844 25.6605 29.8986C26.3041 29.4257 26.4396 28.5304 25.9823 27.8885L22.4762 23.0743L28.1503 21.25C28.8617 20.9966 29.2851 20.1858 29.048 19.4257Z" fill="#E42527"/>
<path d="M36.6023 30.152C35.8062 30.152 35.1626 29.5102 35.1626 28.7162V14.4426C35.1626 13.6487 35.8062 13.0068 36.6023 13.0068C37.3984 13.0068 38.042 13.6487 38.042 14.4426V28.7162C38.042 29.5102 37.3984 30.152 36.6023 30.152Z" fill="#226DB4"/>
</svg>
