<?xml version="1.0" encoding="UTF-8"?>
<svg id="Layer_1" xmlns="http://www.w3.org/2000/svg" version="1.1" viewBox="0 0 1024 1024">
  
  <defs>
    
  </defs>
  <g>
    <path class="st1" d="M823.4,241"></path>
    <path class="st2" d="M873.4,211.8h-30.2v-29.2c0-82.7-67.3-150-150-150H120.3c-31.8,0-61.8,12.3-84.3,34.8C13.4,89.8.9,119.7.7,151.5v4.1c-.1,1.1-.2,2.1-.2,3.2v423.3c0,16.6,13.4,30,30,30s30-13.4,30-30V255.9c18,10.4,38.4,15.9,59.7,15.9h753.1c49.6,0,90,40.4,90,90v90.9h-90.5c-82.5,0-149.6,67.1-149.6,149.6s67.1,149.6,149.6,149.6h90.5v89.4c0,24-9.4,46.7-26.4,63.7s-39.6,26.3-63.6,26.3h0l-662.9-.2h0c-16.6,0-30,13.4-30,30s13.4,30,30,30l662.9.2h0c40.1,0,77.7-15.6,106-43.9,28.3-28.3,44-66,44-106.1v-479.5c0-82.7-67.3-150-150-150h.1ZM783.3,211.8H120.3c-16,0-31-6.2-42.3-17.6s-17.4-26.4-17.3-42.4c.2-32.7,26.9-59.2,59.6-59.2h573c49.6,0,90,40.4,90,90v29.2h0ZM963.4,692h-90.5c-49.4,0-89.6-40.2-89.6-89.6s40.2-89.6,89.6-89.6h90.5v179.2h0Z"></path>
    <path class="st0" d="M418.2,565.9c-7-30.5-28.7-57.7-62.8-78-37.9-22.6-89.3-35-144.8-35s-107,12.4-144.8,35c-34.1,20.3-55.7,47.5-62.8,78-1.6,3.7-2.5,7.7-2.5,12v285.2c0,39.5,23.6,73.9,66.5,96.9,37.2,19.9,86.9,30.5,143.6,30.5s106.4-10.5,143.6-30.5c42.9-23,66.5-57.4,66.5-96.9v-285.2c0-4.3-.9-8.3-2.5-12ZM360.7,711.3v18.3c0,38.4-64.5,67.3-150.1,67.3s-150.1-28.9-150.1-67.3v-44.9c1.7,1.1,3.5,2.2,5.3,3.3,37.9,22.6,89.3,35,144.8,35s107-12.4,144.8-35c1.8-1.1,3.5-2.2,5.3-3.3v26.6h0ZM210.6,512.9c92.7,0,150.1,38.9,150.1,75s-57.4,75-150.1,75-150.1-38.9-150.1-75,57.4-75,150.1-75h0ZM210.6,930.4c-85.6,0-150.1-28.9-150.1-67.3v-40.2c2.1,1.2,4.3,2.5,6.5,3.7,37.2,19.9,86.9,30.5,143.6,30.5s106.4-10.5,143.6-30.5c2.2-1.2,4.4-2.4,6.5-3.7v40.2c0,38.4-64.5,67.3-150.1,67.3h0Z"></path>
  </g>
  <circle class="st2" cx="873.6" cy="601.6" r="30"></circle>
</svg>