<svg width="50" height="44" viewBox="0 0 50 44" fill="none" xmlns="http://www.w3.org/2000/svg">
<path d="M15.4588 14.3699H10.1049C9.30575 14.3699 8.66064 13.7263 8.66064 12.929C8.66064 12.1317 9.30575 11.4882 10.1049 11.4882H15.4588C16.258 11.4882 16.9031 12.1317 16.9031 12.929C16.9031 13.7263 16.258 14.3699 15.4588 14.3699Z" fill="#226DB4"/>
<path d="M38.188 43.2179H4.32269C1.94039 43.2179 0 41.2821 0 38.9054V4.3125C0 1.93581 1.94039 0 4.32269 0H41.0512C41.8504 0 42.4955 0.643581 42.4955 1.44088C42.4955 2.23818 41.8504 2.88176 41.0512 2.88176H4.32269C3.53367 2.88176 2.88857 3.52534 2.88857 4.3125V38.9037C2.88857 39.6909 3.53367 40.3345 4.32269 40.3345H38.188C38.977 40.3345 39.6221 39.6909 39.6221 38.9037V24.3209C39.6221 23.5236 40.2672 22.8801 41.0664 22.8801C41.8656 22.8801 42.5107 23.5236 42.5107 24.3209V38.9037C42.5107 41.2821 40.5703 43.2179 38.188 43.2179Z" fill="#226DB4"/>
<path d="M10.0574 23.1115C9.25826 23.1115 8.61316 22.4679 8.61316 21.6706C8.61316 20.8733 9.25826 20.2297 10.0574 20.2297L23.7587 20.2145C24.5579 20.2145 25.203 20.8581 25.203 21.6554C25.203 22.4527 24.5579 23.0963 23.7587 23.0963L10.0574 23.1115Z" fill="#226DB4"/>
<path d="M10.0574 31.6993C9.25826 31.6993 8.61316 31.0557 8.61316 30.2585C8.61316 29.4612 9.25826 28.8176 10.0574 28.8176L23.7587 28.8024C24.5579 28.8024 25.203 29.4459 25.203 30.2432C25.203 31.0405 24.5579 31.6841 23.7587 31.6841L10.0574 31.6993Z" fill="#226DB4"/>
<path d="M47.663 23.174C47.4226 23.174 47.1822 23.1165 46.9654 22.9966L38.9499 18.5963C38.9448 18.5963 38.9398 18.5912 38.9347 18.5912L31.1156 14.1959C30.6635 13.9409 30.3841 13.4662 30.379 12.9476C30.379 12.429 30.6533 11.9493 31.102 11.6942L39.1125 7.10303L46.9265 2.51182C47.3735 2.2483 47.9272 2.2483 48.3759 2.50168C48.8229 2.75675 49.1022 3.23648 49.1022 3.74999V21.7382C49.1022 22.2466 48.833 22.7179 48.3945 22.978C48.1727 23.1064 47.9187 23.174 47.663 23.174ZM40.3502 16.0743L46.2187 19.2973V6.26688L40.5754 9.58108C40.5703 9.58614 40.5652 9.58614 40.5601 9.59121L34.7441 12.924L40.3502 16.0743Z" fill="#226DB4"/>
</svg>
