<?xml version="1.0" encoding="utf-8"?>

<svg version="1.1" id="Layer_1" xmlns="http://www.w3.org/2000/svg" xmlns:xlink="http://www.w3.org/1999/xlink" x="0px" y="0px" viewBox="0 0 1024 1024" style="enable-background:new 0 0 1024 1024;" xml:space="preserve">

<path class="st0" d="M977.4,765.6L826.5,614.7c100.3-216.9,5.8-474-211.1-574.3C559,14.4,497.5,0.7,435.3,0.5h-2&#xA;&#x9;C194.2,0.6,0.4,194.5,0.5,433.6c0.1,174,104.3,331,264.5,398.7c53.1,22.5,110.3,34,167.9,34c4.5,0,9,0,13.5-0.2&#xA;&#x9;c17.9,21,49.4,23.4,70.3,5.5c21-17.9,23.4-49.4,5.5-70.3c-17.9-21-49.4-23.4-70.3-5.5c-3.6,3.1-6.7,6.6-9.3,10.5&#xA;&#x9;c-3.1,0.1-6.2,0.1-9.3,0.1H433C226.9,806.1,60.1,638.7,60.4,432.6c0.3-149.9,90.2-285.2,228.4-343.3c46.2-19.4,96-29.3,146.1-29&#xA;&#x9;c99.5,0.4,192.9,39.5,262.9,109.9s108.6,164,108.4,263.5c-0.1,60.2-14.7,119.7-42.7,173c-6.1,11.6-3.9,25.9,5.3,35.1l166,166&#xA;&#x9;c34.3,35.9,33.1,92.7-2.7,127c-34.8,33.3-89.5,33.3-124.3,0L492.6,619.4c-7-7-16.9-10.1-26.6-8.3c-9.7,1.8-19.5,2.7-29.3,2.9&#xA;&#x9;c-48.8,0.9-94.8-17.1-129.5-50.6c-34.7-33.6-53.9-78.9-54.5-127.7c-1.3-99.8,78.6-181.7,178.4-182.9c1.6,0,3.1,0,4.7,0&#xA;&#x9;c99.2,1.3,179.1,83.1,178.2,182.4c-0.2,20.2-3.7,40.2-10.5,59.1c-27.1,5.4-44.6,31.7-39.3,58.6c5.4,27.1,31.7,44.6,58.6,39.3&#xA;&#x9;c27.1-5.4,44.6-31.7,39.3-58.6c-0.9-4.5-2.4-8.9-4.5-13c10.5-27.1,16-55.8,16.3-84.8c1.2-132.2-105.2-241-237.2-242.7&#xA;&#x9;C304,191.2,194.9,297.3,192.9,429.9c0,2.2,0,4.4,0,6.6c0.8,64.8,26.7,125.2,72.7,169.9c45,43.8,104.5,67.6,167.6,67.6&#xA;&#x9;c1.5,0,3.1,0,4.6,0c7.7-0.1,15.4-0.6,23.1-1.5l305,305c57.2,59.6,152,61.5,211.7,4.2c59.6-57.2,61.5-152,4.2-211.7&#xA;&#x9;C980.2,768.3,978.8,766.9,977.4,765.6z"></path>
</svg>