<?xml version="1.0" encoding="UTF-8"?>
<svg id="Layer_1" xmlns="http://www.w3.org/2000/svg" version="1.1" viewBox="0 0 1024 1024">
  
  <defs>
    
  </defs>
  <path class="st1" d="M413.35,1023.04H106.99c-20.06,0-39.49-5.49-56.18-15.87-15.66-9.74-28.62-23.57-37.5-39.98C4.44,950.78-.02,932.36.41,913.92c.46-19.65,6.51-38.91,17.5-55.7l244.24-373.7c9.72-14.84,10.55-32.86,2.24-48.23-3.86-7.14-15.48-23.74-39.99-23.74H30.06c-16.57,0-30-13.43-30-30s13.43-30,30-30h194.34c39.4,0,74.08,20.64,92.77,55.21,18.68,34.56,16.83,76.56-4.81,109.61l-244.24,373.7c-9.52,14.54-10.27,32.32-2.02,47.59,8.25,15.27,23.54,24.38,40.89,24.38h306.36c13.6,0,26.13-6.82,33.53-18.23l64.87-100.2-62.99-23.02c-32.71-9.38-58.27-32.97-70.26-64.9-12.13-32.31-8.18-67.34,10.83-96.13l120.96-185.98c9.03-13.89,27.62-17.83,41.51-8.79,13.89,9.03,17.83,27.62,8.79,41.51l-121.02,186.08c-.05.07-.09.14-.14.21-8.33,12.58-10.06,27.89-4.76,42.01s16.69,24.51,31.24,28.49c.8.22,1.59.47,2.37.76l76.92,28.11,192.01-296.59c21.28-32.87,58.6-50,97.38-44.71,38.79,5.29,70.16,31.78,81.87,69.14l102.51,327.11c5.97,19.06,6.57,39.15,1.72,58.11-4.55,17.8-13.78,34.27-26.67,47.65-12.9,13.38-29.03,23.19-46.65,28.39-18.77,5.54-38.87,5.68-58.13.4-.8-.22-1.59-.47-2.37-.76l-317.31-115.96-72.3,111.68c-18.5,28.57-49.86,45.63-83.89,45.63h-.02ZM906.14,924.86c16.32,4.08,32.95-.68,44.68-12.85,11.99-12.43,16.06-29.69,10.9-46.17l-102.51-327.11c-4.75-15.16-16.98-25.48-32.72-27.63-15.74-2.14-30.29,4.53-38.92,17.87l-184.58,285.1,303.15,110.78h0Z"></path>
  <g>
    <path class="st2" d="M428.25,233.28c107.92-23.84,140.11-56.03,163.95-163.95,1.22-5.53,6.16-9.46,11.82-9.46h0c5.66,0,10.6,3.93,11.82,9.46,23.84,107.92,56.03,140.11,163.95,163.95,5.53,1.22,9.46,6.16,9.46,11.82h0c0,5.66-3.93,10.6-9.46,11.82-107.92,23.84-140.11,56.03-163.95,163.95-1.22,5.53-6.16,9.46-11.82,9.46h0c-5.66,0-10.6-3.93-11.82-9.46-23.84-107.92-56.03-140.11-163.95-163.95-5.53-1.22-9.46-6.16-9.46-11.82h0c0-5.66,3.93-10.6,9.46-11.82h0Z"></path>
    <path class="st0" d="M670.89,89.57c55.74-12.31,72.37-28.94,84.68-84.68C756.2,2.03,758.75,0,761.68,0h0c2.93,0,5.48,2.03,6.11,4.89,12.31,55.74,28.94,72.37,84.68,84.68,2.86.63,4.89,3.18,4.89,6.11h0c0,2.93-2.03,5.48-4.89,6.11-55.74,12.31-72.37,28.94-84.68,84.68-.63,2.86-3.18,4.89-6.11,4.89h0c-2.93,0-5.48-2.03-6.11-4.89-12.31-55.74-28.94-72.37-84.68-84.68-2.86-.63-4.89-3.18-4.89-6.11h0c0-2.93,2.03-5.48,4.89-6.11Z"></path>
  </g>
</svg>