<svg width="50" height="49" viewBox="0 0 50 49" fill="none" xmlns="http://www.w3.org/2000/svg">
<path d="M46.8816 36.6385L39.6397 29.4122C44.4524 19.0253 39.9173 6.71453 29.5097 1.91047C26.8011 0.665541 23.8505 0.0101351 20.866 0H20.7695C9.29541 0.00506757 -0.00507646 9.29054 2.07886e-06 20.7399C0.00508061 29.0726 5.00574 36.5895 12.693 39.8328C15.2407 40.9105 17.9865 41.4611 20.7509 41.4611C20.9676 41.4611 21.1826 41.4611 21.3993 41.451C22.2575 42.4561 23.7692 42.5709 24.7731 41.7145C25.7803 40.8581 25.8954 39.3497 25.0372 38.348C24.1789 37.3429 22.6672 37.228 21.6633 38.0845C21.4907 38.2331 21.3417 38.4003 21.2164 38.5878C21.0675 38.5929 20.9185 38.5929 20.7695 38.5929H20.7543C10.8647 38.5777 2.85922 30.5608 2.87445 20.6926C2.888 13.5135 7.20306 7.03378 13.8356 4.25169C16.0532 3.32264 18.4419 2.84797 20.8474 2.86318C25.6229 2.88176 30.1056 4.75507 33.4642 8.12669C36.8228 11.4983 38.6764 15.9797 38.6663 20.7449C38.6612 23.6284 37.9604 26.4764 36.6179 29.0287C36.3251 29.5845 36.43 30.2686 36.8719 30.7095L44.8384 38.6588C46.4838 40.3784 46.4263 43.098 44.708 44.7399C43.0372 46.3345 40.4133 46.3345 38.7424 44.7399L23.6152 29.6368C23.28 29.3024 22.8043 29.1537 22.3388 29.2399C21.8732 29.326 21.4026 29.3699 20.932 29.3784C18.5908 29.4223 16.3834 28.5591 14.7176 26.9561C13.0518 25.3463 12.1309 23.1774 12.1021 20.8412C12.0395 16.0625 15.8738 12.1402 20.6629 12.0828C20.739 12.0828 20.8118 12.0828 20.888 12.0828C25.6483 12.1453 29.4826 16.0625 29.4403 20.8176C29.4301 21.7855 29.2625 22.7432 28.9358 23.647C27.6357 23.9054 26.796 25.1655 27.05 26.4527C27.309 27.75 28.5718 28.5878 29.8618 28.3345C31.1619 28.076 32.0015 26.8159 31.7476 25.5287C31.7036 25.3125 31.6325 25.103 31.5309 24.9054C32.0354 23.6081 32.2995 22.2331 32.313 20.8446C32.3706 14.5135 27.265 9.30405 20.9303 9.22297C14.5619 9.13176 9.32588 14.2128 9.23108 20.5625C9.23108 20.6672 9.23108 20.7736 9.23108 20.8784C9.27002 23.9814 10.5126 26.8733 12.72 29.0135C14.8801 31.1115 17.7342 32.25 20.7627 32.25C20.8355 32.25 20.9117 32.25 20.9828 32.25C21.3519 32.2449 21.7226 32.2213 22.0916 32.1774L36.728 46.7821C39.4738 49.6368 44.0224 49.7264 46.8867 46.9831C49.7476 44.2432 49.8374 39.7044 47.0882 36.8463C47.0154 36.7669 46.9477 36.701 46.8816 36.6385Z" fill="#226DB4"/>
</svg>
