<svg width="49" height="44" viewBox="0 0 49 44" fill="none" xmlns="http://www.w3.org/2000/svg">
<path d="M44.6227 43.4037H17.3143C15.7568 43.4037 14.3612 42.5963 13.5833 41.2449C12.8054 39.8936 12.8088 38.2804 13.5901 36.9307L21.9836 22.4443C22.5033 21.5473 23.4314 21.0118 24.4658 21.0118C25.5002 21.0118 26.43 21.5473 26.9481 22.4443L30.9542 29.3581L35.7972 21.0017L25.7061 3.58784C25.3315 2.94257 24.7139 2.87162 24.4641 2.87162C24.2144 2.87162 23.5968 2.94088 23.2222 3.58784L3.07036 38.3733C2.69406 39.022 2.9438 39.5946 3.06868 39.8108C3.19355 40.027 3.5631 40.5304 4.31234 40.5304H9.44226C10.2354 40.5304 10.8766 41.174 10.8766 41.9662C10.8766 42.7584 10.2337 43.402 9.44226 43.402H4.31234C2.75481 43.402 1.35927 42.5946 0.58134 41.2432C-0.196584 39.8919 -0.193209 38.2787 0.58809 36.9291L20.7433 2.14696C21.5229 0.802365 22.915 0 24.4675 0C26.02 0 27.4122 0.802365 28.1918 2.14696L37.4594 18.1402L44.7779 5.51351C45.1762 4.8277 46.0537 4.59459 46.7388 4.99155C47.4239 5.3902 47.6584 6.26858 47.2602 6.95439L39.1165 21.0034L48.3469 36.9324C49.1282 38.2821 49.1316 39.8936 48.3537 41.2466C47.5758 42.598 46.1819 43.4054 44.6227 43.4054V43.4037ZM24.4675 23.8868L16.074 38.3733C15.6977 39.022 15.9475 39.5946 16.0723 39.8108C16.1972 40.027 16.5668 40.5304 17.316 40.5304H44.6244C45.3736 40.5304 45.7432 40.027 45.868 39.8108C45.9929 39.5946 46.241 39.022 45.8663 38.3733L37.4594 23.8666L33.4398 30.8024C32.9201 31.6993 31.992 32.2331 30.9575 32.2331C29.9231 32.2331 28.995 31.6976 28.4753 30.8007L24.4692 23.8868H24.4675Z" fill="white"/>
<path d="M47.4965 13.2348C46.862 13.2348 46.2815 12.8091 46.1111 12.1672L45.0024 7.98987L40.8293 9.09967C40.0631 9.30406 39.2768 8.84629 39.0743 8.0794C38.8701 7.31251 39.3274 6.52534 40.0935 6.32264L45.6537 4.8446C46.4199 4.64021 47.2062 5.09798 47.4087 5.86487L48.8853 11.4308C49.0894 12.1976 48.6321 12.9848 47.866 13.1875C47.7428 13.2196 47.618 13.2365 47.4965 13.2365V13.2348Z" fill="white"/>
</svg>
