<svg width="50" height="50" viewBox="0 0 50 50" fill="none" xmlns="http://www.w3.org/2000/svg">
<g clip-path="url(#clip0_1110_3269)">
<path d="M17.5987 49.9999C16.8931 50.0018 16.1941 49.8638 15.5422 49.5937C14.8903 49.3237 14.2984 48.927 13.8009 48.4266L1.57332 36.1991C1.07452 35.7003 0.678844 35.1082 0.408893 34.4565C0.138942 33.8049 0 33.1064 0 32.401C0 31.6956 0.138942 30.9972 0.408893 30.3455C0.678844 29.6938 1.07452 29.1017 1.57332 28.6029L13.8009 16.3754C14.809 15.3696 16.1749 14.8047 17.5989 14.8047C19.023 14.8047 20.3889 15.3696 21.397 16.3754L25.9923 20.9706C26.1283 21.1066 26.2362 21.2681 26.3098 21.4459C26.3834 21.6236 26.4213 21.8141 26.4213 22.0065C26.4213 22.1989 26.3834 22.3894 26.3098 22.5671C26.2362 22.7448 26.1283 22.9063 25.9923 23.0424C25.8562 23.1784 25.6947 23.2863 25.517 23.3599C25.3393 23.4336 25.1488 23.4714 24.9564 23.4714C24.764 23.4714 24.5735 23.4336 24.3958 23.3599C24.218 23.2863 24.0565 23.1784 23.9205 23.0424L19.3253 18.4472C18.8674 17.9893 18.2464 17.7321 17.5989 17.7321C16.9515 17.7321 16.3305 17.9893 15.8726 18.4472L3.64509 30.6747C3.18725 31.1325 2.93004 31.7535 2.93004 32.401C2.93004 33.0485 3.18725 33.6695 3.64509 34.1273L15.8726 46.3554C16.3305 46.8132 16.9515 47.0704 17.5989 47.0704C18.2464 47.0704 18.8674 46.8132 19.3253 46.3554L23.9205 41.7601C24.1959 41.4891 24.5673 41.3379 24.9537 41.3394C25.3402 41.3409 25.7103 41.4951 25.9836 41.7683C26.2569 42.0415 26.4112 42.4117 26.4128 42.7981C26.4144 43.1845 26.2632 43.5559 25.9923 43.8314L21.397 48.4266C20.8994 48.927 20.3075 49.3237 19.6555 49.5938C19.0035 49.8638 18.3044 50.0019 17.5987 49.9999Z" fill="white"/>
<path d="M32.4014 50.0001C31.6957 50.002 30.9967 49.864 30.3447 49.594C29.6927 49.3239 29.1007 48.9272 28.6031 48.4268L16.3756 36.1993C15.8768 35.7005 15.4811 35.1084 15.2111 34.4567C14.9412 33.805 14.8022 33.1066 14.8022 32.4012C14.8022 31.6958 14.9412 30.9973 15.2111 30.3457C15.4811 29.694 15.8768 29.1019 16.3756 28.6031L28.6031 16.3756C29.1019 15.8768 29.694 15.4811 30.3457 15.2111C30.9973 14.9412 31.6958 14.8022 32.4012 14.8022C33.1066 14.8022 33.805 14.9412 34.4567 15.2111C35.1084 15.4811 35.7005 15.8768 36.1993 16.3756L48.4268 28.6031C48.9256 29.1019 49.3213 29.694 49.5913 30.3457C49.8612 30.9973 50.0001 31.6958 50.0001 32.4012C50.0001 33.1066 49.8612 33.805 49.5913 34.4567C49.3213 35.1084 48.9256 35.7005 48.4268 36.1993L36.1993 48.4268C35.7017 48.9272 35.1099 49.3239 34.458 49.5939C33.8061 49.8639 33.1071 50.002 32.4014 50.0001ZM32.4014 17.732C32.0806 17.7311 31.7628 17.7938 31.4665 17.9166C31.1701 18.0394 30.901 18.2198 30.6749 18.4473L18.4473 30.6749C17.9895 31.1327 17.7323 31.7537 17.7323 32.4012C17.7323 33.0487 17.9895 33.6697 18.4473 34.1275L30.6749 46.3555C31.1327 46.8134 31.7537 47.0706 32.4012 47.0706C33.0487 47.0706 33.6697 46.8134 34.1275 46.3555L46.3555 34.1275C46.8134 33.6697 47.0706 33.0487 47.0706 32.4012C47.0706 31.7537 46.8134 31.1327 46.3555 30.6749L34.1275 18.4473C33.9014 18.2198 33.6325 18.0395 33.3362 17.9167C33.0399 17.7939 32.7222 17.7311 32.4014 17.732Z" fill="white"/>
<path d="M25 12.8564C21.4556 12.8564 18.5718 9.97266 18.5718 6.42822C18.5718 2.88379 21.4556 0 25 0C28.5444 0 31.4282 2.88379 31.4282 6.42822C31.4282 9.97266 28.5444 12.8564 25 12.8564ZM25 2.92969C24.3081 2.92969 23.6316 3.13487 23.0563 3.5193C22.481 3.90372 22.0326 4.45012 21.7678 5.08939C21.503 5.72867 21.4337 6.4321 21.5687 7.11075C21.7037 7.7894 22.0369 8.41278 22.5262 8.90206C23.0154 9.39134 23.6388 9.72454 24.3175 9.85953C24.9961 9.99453 25.6996 9.92524 26.3388 9.66045C26.9781 9.39565 27.5245 8.94724 27.9089 8.3719C28.2933 7.79657 28.4985 7.12017 28.4985 6.42822C28.4975 5.50067 28.1286 4.61141 27.4727 3.95553C26.8168 3.29965 25.9276 2.93072 25 2.92969Z" fill="white"/>
</g>
<defs>
<clipPath id="clip0_1110_3269">
<rect width="50" height="50" fill="white"/>
</clipPath>
</defs>
</svg>
