<svg width="44" height="49" viewBox="0 0 44 49" fill="none" xmlns="http://www.w3.org/2000/svg">
<path d="M41.3944 10.6715L23.9119 0.570101C22.5787 -0.190034 20.9419 -0.190034 19.6087 0.570101L2.14313 10.6715C0.81 11.4316 0 12.8674 0 14.4046V34.5904C0 36.1275 0.826875 37.5465 2.14313 38.3235L19.6087 48.4248C20.2669 48.8133 21.0094 48.9992 21.7519 48.9992C22.4944 48.9992 23.2369 48.8133 23.895 48.4248L31.2019 44.2019C32.535 43.4417 33.345 42.0059 33.345 40.4688V24.489C33.345 24.489 33.345 24.489 33.345 24.4721C33.345 24.4046 33.345 24.3539 33.3281 24.2863C33.3281 24.2356 33.3113 24.1681 33.2944 24.1174C33.2944 24.1005 33.2944 24.1005 33.2775 24.0836C33.2606 24.0329 33.2437 23.9992 33.2269 23.9485C33.2269 23.9316 33.2269 23.9316 33.21 23.9147C33.1931 23.864 33.1594 23.8133 33.1256 23.7627C33.0919 23.712 33.0581 23.6613 33.0244 23.6106L33.0075 23.5938C32.9738 23.56 32.94 23.5093 32.9063 23.4755L32.8894 23.4586C32.805 23.3742 32.7038 23.3066 32.6025 23.239L22.4269 17.3606C21.9881 17.1073 21.4312 17.1073 20.9925 17.3606L11.5425 22.8167L2.80125 17.766V14.3877C2.80125 13.8809 3.07125 13.4079 3.51 13.1377L20.9756 3.03632C21.4144 2.78294 21.9713 2.78294 22.41 3.03632L39.8756 13.1377C40.3144 13.391 40.5844 13.864 40.5844 14.3877V34.5735C40.5844 35.0802 40.3144 35.5532 39.8756 35.8235L36.4838 37.7829C35.7919 38.1715 35.5556 39.0498 35.9606 39.7424C36.3488 40.435 37.2263 40.6715 37.9181 40.266L41.31 38.3066C42.6431 37.5465 43.4531 36.1106 43.4531 34.5735V14.3877C43.5375 12.8674 42.7106 11.4316 41.3944 10.6715ZM21.7688 20.266L29.0756 24.489L21.7688 28.712L14.4619 24.489L21.7688 20.266ZM21.06 31.6005C21.2794 31.7356 21.5325 31.7863 21.7688 31.7863C22.005 31.7863 22.2581 31.7188 22.4775 31.6005L30.4931 26.9721V40.4519C30.4931 40.9586 30.2231 41.4316 29.7844 41.7019L22.4775 45.9248C22.0387 46.1782 21.4819 46.1782 21.0431 45.9248L3.5775 35.8235C3.13875 35.5701 2.86875 35.0971 2.86875 34.5735V21.0938L21.06 31.6005Z" fill="white"/>
</svg>
