<svg width="49" height="49" viewBox="0 0 49 49" fill="none" xmlns="http://www.w3.org/2000/svg">
<path d="M34.8371 48.9865H1.43483C0.644069 48.9865 0.00168576 48.3446 0.00168576 47.5507V35.3919C0.00168576 32.7365 1.68605 30.3716 4.1932 29.5101L41.212 16.7804C44.0935 15.7889 46.0307 13.0709 46.0307 10.0186C46.0307 6.07601 42.829 2.86993 38.8954 2.86993H2.86628V26.5473C2.86628 27.3395 2.22558 27.9831 1.43314 27.9831C0.640698 27.9831 0 27.3412 0 26.5473V1.43581C0 0.643581 0.640698 0 1.43314 0H38.8971C44.4121 0 48.897 4.49493 48.897 10.0186C48.897 14.2973 46.1825 18.1064 42.1427 19.4949L5.12389 32.2247C3.77337 32.6892 2.86628 33.9612 2.86628 35.3919V46.1149H34.8354C37.8265 46.1149 40.6371 44.9476 42.7514 42.8294C44.8657 40.7111 46.0307 37.8953 46.0307 34.8987C46.0307 32.7787 45.4339 30.7095 44.3059 28.9172C43.1898 27.1419 41.6066 25.723 39.7266 24.8091C39.0151 24.4628 38.7184 23.6047 39.064 22.8919C39.4097 22.1791 40.2662 21.8818 40.9777 22.228C43.3381 23.375 45.326 25.1588 46.7288 27.3885C48.1467 29.6402 48.8953 32.2382 48.8953 34.9003C48.8953 38.6622 47.4335 42.201 44.7763 44.8615C42.1242 47.5203 38.5919 48.9865 34.8371 48.9865Z" fill="white"/>
<path d="M16.1186 20.0828C12.9589 20.0828 10.3894 17.5084 10.3894 14.3429C10.3894 11.1774 12.9589 8.60303 16.1186 8.60303C19.2782 8.60303 21.8478 11.1774 21.8478 14.3429C21.8478 17.5084 19.2782 20.0828 16.1186 20.0828ZM16.1186 11.473C14.5388 11.473 13.254 12.7601 13.254 14.3429C13.254 15.9257 14.5388 17.2128 16.1186 17.2128C17.6984 17.2128 18.9832 15.9257 18.9832 14.3429C18.9832 12.7601 17.6984 11.473 16.1186 11.473Z" fill="white"/>
<path d="M30.4821 40.353C27.3225 40.353 24.7529 37.7787 24.7529 34.6132C24.7529 31.4476 27.3225 28.8733 30.4821 28.8733C33.6418 28.8733 36.2113 31.4476 36.2113 34.6132C36.2113 37.7787 33.6418 40.353 30.4821 40.353ZM30.4821 31.7415C28.9023 31.7415 27.6175 33.0287 27.6175 34.6115C27.6175 36.1942 28.9023 37.4814 30.4821 37.4814C32.0619 37.4814 33.3467 36.1942 33.3467 34.6115C33.3467 33.0287 32.0619 31.7415 30.4821 31.7415Z" fill="white"/>
</svg>
