<svg width="50" height="49" viewBox="0 0 50 49" fill="none" xmlns="http://www.w3.org/2000/svg">
<path d="M7.1529 35.8699C6.35551 35.8699 5.71387 35.228 5.71387 34.4341V6.21959C5.71217 2.79223 8.51067 0 11.9474 0H37.0662C40.503 0 43.2998 2.79223 43.2998 6.21959V16.7551C43.2998 17.5507 42.6564 18.1909 41.8607 18.1909C41.0633 18.1909 40.4217 17.549 40.4217 16.7551V6.21959C40.4217 4.37669 38.92 2.87162 37.0662 2.87162H11.9474C10.1004 2.87162 8.59194 4.36993 8.59194 6.21959V34.4341C8.59194 35.2297 7.9486 35.8699 7.1529 35.8699Z" fill="white"/>
<path d="M37.0663 43.2399H30.0167C29.2193 43.2399 28.5776 42.598 28.5776 41.8041C28.5776 41.0084 29.221 40.3682 30.0167 40.3682H37.0663C38.9133 40.3682 40.4217 38.8699 40.4217 37.0203V25.8007C40.4217 25.0051 41.0651 24.3649 41.8608 24.3649C42.6582 24.3649 43.2998 25.0068 43.2998 25.8007V37.0203C43.2998 40.4493 40.503 43.2399 37.0663 43.2399Z" fill="white"/>
<path d="M26.3259 11.4882H15.7821C14.9847 11.4882 14.343 10.8463 14.343 10.0524C14.343 9.25847 14.9864 8.61658 15.7821 8.61658H26.3259C27.1233 8.61658 27.765 9.25847 27.765 10.0524C27.765 10.8463 27.1216 11.4882 26.3259 11.4882Z" fill="white"/>
<path d="M23.4513 17.2196H15.7821C14.9847 17.2196 14.343 16.5778 14.343 15.7838C14.343 14.9882 14.9864 14.348 15.7821 14.348H23.4513C24.2487 14.348 24.8903 14.9899 24.8903 15.7838C24.8903 16.5778 24.2419 17.2196 23.4513 17.2196Z" fill="white"/>
<path d="M12.8447 48.9865C11.9576 48.9865 11.1162 48.5794 10.5694 47.8699C5.55477 41.3919 0.616337 37.6081 0.567241 37.5743C0.211714 37.3057 9.15384e-05 36.8851 9.15384e-05 36.4392C-0.00498741 35.9932 0.201557 35.5726 0.552004 35.299C0.643425 35.2263 2.846 33.527 6.33015 33.0726C8.36512 32.8091 10.4339 33.0101 12.4689 33.6807C14.5276 34.3564 16.5524 35.5101 18.5112 37.1182C22.7538 30.6774 28.2831 22.853 32.6442 18.4426C35.0194 16.0388 37.6114 14.8986 40.3523 15.0473C42.0555 15.1436 43.7451 15.7365 45.3771 16.8192C46.9363 17.853 48.0605 19.0743 48.7275 19.9172C49.0052 20.2719 49.1017 20.7314 48.9916 21.1672C48.8816 21.603 48.5701 21.9578 48.1519 22.1301C44.9268 23.4763 37.564 32.6503 28.9349 46.0828C27.7836 47.8733 25.8198 48.9459 23.6849 48.9459H19.9604C19.163 48.9459 18.5213 48.304 18.5213 47.5101C18.5213 46.7145 19.1647 46.0743 19.9604 46.0743H23.6849C24.8328 46.0743 25.8875 45.5 26.5071 44.5321C28.388 41.6064 32.1227 35.9274 36.0149 30.75C39.9257 25.5642 43.0018 22.1689 45.3551 20.4696C43.0797 18.2669 40.8873 17.9611 40.1966 17.9223C38.3207 17.8176 36.4669 18.674 34.6961 20.4645C27.9529 27.2838 18.2098 42.7078 15.3267 47.5726C14.8425 48.3919 13.9824 48.9189 13.0276 48.9763C12.965 48.9814 12.9074 48.9865 12.8447 48.9865ZM3.97521 36.6605C5.934 38.3598 9.35551 41.5929 12.8498 46.1081C13.7048 44.6723 15.1438 42.326 16.9333 39.5473C15.176 38.0574 13.3763 37.0051 11.5733 36.4105C9.95144 35.875 8.31433 35.7111 6.70769 35.9223C5.61741 36.0676 4.69135 36.3598 3.97521 36.6605Z" fill="white"/>
</svg>
