<svg width="50" height="50" viewBox="0 0 50 50" fill="none" xmlns="http://www.w3.org/2000/svg">
<g clip-path="url(#clip0_1110_3244)">
<path d="M23.0908 49.1504C22.8223 49.1504 22.5488 49.0771 22.3047 48.9209C21.6211 48.4863 21.4258 47.5781 21.8604 46.8994L28.6475 36.2988C28.916 35.8789 29.3799 35.625 29.8828 35.625H44.6289C45.9766 35.625 47.0703 34.5312 47.0703 33.1836V6.2207C47.0703 4.87305 45.9766 3.7793 44.6289 3.7793H29.1943C28.3838 3.7793 27.7295 3.125 27.7295 2.31445C27.7295 1.50391 28.3838 0.849609 29.1943 0.849609H44.6289C47.5928 0.849609 50 3.25684 50 6.2207V33.1787C50 36.1426 47.5928 38.5498 44.6289 38.5498H30.6787L24.3262 48.4766C24.0479 48.9111 23.5742 49.1504 23.0908 49.1504ZM16.3135 38.5498H5.37109C2.40723 38.5498 0 36.1426 0 33.1787V6.2207C0 3.25684 2.40723 0.849609 5.37109 0.849609H19.2432C20.0537 0.849609 20.708 1.50391 20.708 2.31445C20.708 3.125 20.0537 3.7793 19.2432 3.7793H5.37109C4.02344 3.7793 2.92969 4.87305 2.92969 6.2207V33.1787C2.92969 34.5264 4.02344 35.6201 5.37109 35.6201H16.3135C17.124 35.6201 17.7783 36.2744 17.7783 37.085C17.7783 37.8955 17.124 38.5498 16.3135 38.5498Z" fill="white"/>
<path d="M35.7373 22.4414C37.2205 22.4414 38.4229 21.239 38.4229 19.7559C38.4229 18.2727 37.2205 17.0703 35.7373 17.0703C34.2541 17.0703 33.0518 18.2727 33.0518 19.7559C33.0518 21.239 34.2541 22.4414 35.7373 22.4414Z" fill="white"/>
<path d="M27.6468 20.1861C27.8844 18.7221 26.8902 17.3426 25.4261 17.105C23.9621 16.8674 22.5826 17.8616 22.345 19.3257C22.1074 20.7897 23.1016 22.1692 24.5657 22.4068C26.0298 22.6444 27.4092 21.6502 27.6468 20.1861Z" fill="white"/>
<path d="M14.2529 22.4414C15.7361 22.4414 16.9385 21.239 16.9385 19.7559C16.9385 18.2727 15.7361 17.0703 14.2529 17.0703C12.7697 17.0703 11.5674 18.2727 11.5674 19.7559C11.5674 21.239 12.7697 22.4414 14.2529 22.4414Z" fill="white"/>
</g>
<defs>
<clipPath id="clip0_1110_3244">
<rect width="50" height="50" fill="white"/>
</clipPath>
</defs>
</svg>
