<svg width="51" height="59" viewBox="0 0 51 59" fill="none" xmlns="http://www.w3.org/2000/svg">
<path d="M50.9089 15.2331C50.8887 14.8885 50.7074 14.4831 50.3446 14.2601L26.0193 0.152027C25.6565 -0.0506757 25.2333 -0.0506757 24.8705 0.152027L0.565318 14.2601C0.263015 14.4426 -0.0191352 14.8074 0.00101838 15.2534V43.4899C0.00101838 43.8953 0.222707 44.2804 0.565318 44.4831L24.8907 58.6115C25.1728 58.7737 25.6162 58.8547 26.0394 58.6115L50.3647 44.5034C50.7275 44.3007 50.929 43.9155 50.929 43.5101V15.2736C50.9089 15.2534 50.9089 15.2331 50.9089 15.2331ZM32.6095 32.1993C32.5893 32.1993 32.5893 32.1791 32.5893 32.1791C32.5692 32.1588 32.549 32.1588 32.5289 32.1588C32.5087 32.1588 32.4885 32.1385 32.4684 32.1385C32.4482 32.1385 32.4281 32.1182 32.4079 32.1182C32.3878 32.1182 32.3676 32.098 32.3475 32.098C32.3273 32.098 32.3273 32.0777 32.3072 32.0777C32.287 32.0777 32.2669 32.0574 32.2467 32.0574C32.2265 32.0574 32.2265 32.0574 32.2064 32.0574C32.1862 32.0574 32.1661 32.0574 32.1459 32.0574C32.1258 32.0574 32.1056 32.0574 32.0855 32.0574C32.0653 32.0574 32.0452 32.0574 32.025 32.0574C32.0049 32.0574 31.9847 32.0574 31.9646 32.0574C31.9444 32.0574 31.9242 32.0574 31.9242 32.0574C31.9041 32.0574 31.8839 32.0574 31.8638 32.0574C31.8436 32.0574 31.8436 32.0574 31.8235 32.0574C31.8033 32.0574 31.7832 32.0777 31.763 32.0777C31.7429 32.0777 31.7429 32.0777 31.7227 32.098C31.7026 32.098 31.6824 32.1182 31.6622 32.1182C31.6421 32.1182 31.6219 32.1385 31.6018 32.1385C31.5816 32.1385 31.5615 32.1588 31.5413 32.1588C31.5212 32.1791 31.501 32.1791 31.4809 32.1791C31.4607 32.1791 31.4607 32.1993 31.4607 32.1993L21.8878 37.7331C20.9204 38.3007 19.8724 38.2804 18.6431 37.652C18.3609 37.5101 18.0989 37.348 17.8772 37.1858L26.0999 30.3142L48.6114 17.2399V41.4426L32.6095 32.1993ZM25.455 2.46284L47.4828 15.2736L35.1488 22.4291C35.0884 22.3682 35.0279 22.3277 34.9473 22.2872L26.0193 17.098C25.6565 16.8953 25.2333 16.8953 24.8705 17.098L15.8417 22.348C15.8216 22.3682 15.7812 22.3885 15.7611 22.4088L3.42712 15.2736L25.455 2.46284ZM2.27837 17.2601L20.7995 27.9628C20.9809 28.0642 21.1824 28.125 21.3638 28.125C21.7669 28.125 22.1498 27.9223 22.3513 27.5574C22.6738 27.0101 22.4722 26.3007 21.9281 25.9764L18.0586 23.7264L25.455 19.4291L32.8916 23.7466L24.8907 28.3885C24.8302 28.4291 24.7899 28.4493 24.7294 28.4899L15.3782 36.2939C15.358 36.2939 15.358 36.3142 15.358 36.3142C15.3379 36.3142 15.3379 36.3345 15.3379 36.3345L15.3177 36.3547C15.2976 36.375 15.2976 36.375 15.2774 36.3953C15.2573 36.4155 15.2573 36.4155 15.2371 36.4358C15.2169 36.4561 15.217 36.4764 15.1968 36.4764C15.1766 36.4966 15.1766 36.4966 15.1766 36.5169C15.1565 36.5372 15.1565 36.5574 15.1565 36.5777C15.1363 36.598 15.1363 36.598 15.1363 36.6182C15.1363 36.6385 15.1162 36.6588 15.1162 36.6791C15.1162 36.6993 15.096 36.7196 15.096 36.7399C15.096 36.7601 15.0759 36.7804 15.0759 36.8007C15.0759 36.8209 15.0557 36.8412 15.0557 36.8615C15.0557 36.8818 15.0356 36.902 15.0356 36.9223C15.0356 36.9426 15.0154 36.9628 15.0154 36.9831C15.0154 37.0034 15.0154 37.0237 14.9953 37.0439C14.9953 37.0642 14.9953 37.0845 14.9953 37.1047C14.9953 37.125 14.9953 37.1453 14.9953 37.1655C14.9953 37.1858 14.9953 37.2061 14.9953 37.2264C14.9953 37.2466 14.9953 37.2669 14.9953 37.2872C14.9953 37.3074 14.9953 37.3277 14.9953 37.348C14.9953 37.3682 14.9953 37.3885 14.9953 37.4088C14.9953 37.4291 14.9953 37.4493 14.9953 37.4696C14.9953 37.4899 14.9953 37.5101 15.0154 37.5304C15.0154 37.5507 15.0154 37.5709 15.0356 37.5912C15.0356 37.6115 15.0557 37.6318 15.0557 37.652C15.0557 37.6723 15.0759 37.6926 15.0759 37.7128C15.0759 37.7331 15.096 37.7534 15.096 37.7736C15.096 37.7939 15.1162 37.8142 15.1162 37.8345C15.1162 37.8547 15.1363 37.8547 15.1363 37.875C15.1565 37.8953 15.1565 37.9155 15.1766 37.9358C15.1968 37.9561 15.1968 37.9561 15.1968 37.9764C15.217 37.9966 15.2169 38.0169 15.2371 38.0372C15.2371 38.0372 15.2371 38.0574 15.2573 38.0574C15.2774 38.0777 15.2774 38.098 15.2976 38.1182C15.3379 38.1588 16.2448 39.1115 17.5951 39.8209C18.5826 40.3277 19.55 40.5709 20.477 40.5709C21.3839 40.5709 22.2505 40.3277 23.0768 39.8615L32.0855 34.652L47.5634 43.6115L41.6987 47.0169C41.6584 46.9966 31.7227 41.1993 31.7227 41.1993C31.1786 40.875 30.4732 41.0574 30.1507 41.625C29.8283 42.1723 30.0097 42.8818 30.574 43.2061L39.4214 48.3547L33.6373 51.7196C33.6171 51.6993 23.5605 45.902 23.5605 45.902C23.0164 45.5777 22.311 45.7804 21.9885 46.3277C21.6661 46.875 21.8676 47.5845 22.4118 47.9088L31.3398 53.0574L25.4953 56.4426L2.31868 42.9831V17.2601H2.27837Z" fill="white"/>
</svg>
