<svg width="50" height="31" viewBox="0 0 50 31" fill="none" xmlns="http://www.w3.org/2000/svg">
<path d="M33.6938 30.826C29.5933 30.826 25.7301 29.2432 22.8162 26.3699L14.2999 17.8834C13.3082 16.8953 12.7641 15.5811 12.7692 14.1841C12.7743 12.7872 13.3252 11.4764 14.3219 10.4949C16.3594 8.48817 19.6666 8.49831 21.6923 10.5169L29.4916 18.2889C30.4053 19.1993 31.8953 19.2027 32.8124 18.2973C33.2616 17.8547 33.5091 17.2652 33.5108 16.6351C33.5125 16.0068 33.2684 15.4138 32.8208 14.9696L24.3164 6.49493C21.9398 4.15203 18.7835 2.86149 15.4373 2.87162C12.0233 2.88007 8.83647 4.21622 6.46328 6.63344C4.08671 9.05405 2.81537 12.2618 2.88317 15.6655C3.01709 22.4409 8.66187 27.9544 15.4661 27.9544C16.6832 27.9544 17.8851 27.7821 19.0394 27.4426C19.8023 27.2179 20.6041 27.652 20.8278 28.4122C21.0533 29.1723 20.6176 29.9713 19.8548 30.1959C18.436 30.6132 16.9595 30.826 15.4661 30.826C7.10404 30.826 0.167576 24.0507 0.00314831 15.723C-0.079913 11.5422 1.483 7.60135 4.4037 4.62669C7.32271 1.65372 11.2385 0.0101349 15.4305 0.00168891C19.5243 -0.00844623 23.4214 1.57432 26.3455 4.45777L34.8584 12.9409C35.85 13.9307 36.3959 15.2449 36.3925 16.6436C36.3891 18.0422 35.8365 19.3547 34.8397 20.3378C32.7988 22.3497 29.4865 22.3412 27.4558 20.3176L19.6565 12.5456C18.7462 11.6385 17.263 11.6351 16.3476 12.5355C15.9001 12.9764 15.6526 13.5642 15.6509 14.1926C15.6492 14.8193 15.8933 15.4105 16.3374 15.853L24.8453 24.3328C27.2134 26.6672 30.3578 27.9561 33.6938 27.9561C40.6269 27.9561 46.2734 22.3361 46.2802 15.4274C46.2836 12.0794 44.9749 8.92736 42.595 6.55236C40.215 4.17736 37.0536 2.86993 33.6938 2.86993C32.6225 2.86993 31.5597 3.00338 30.5324 3.26858C30.3833 3.30743 30.2341 3.34797 30.0866 3.39189C29.3238 3.61824 28.522 3.18581 28.2949 2.42737C28.0677 1.66723 28.5017 0.868243 29.2628 0.641892C29.4441 0.587838 29.6272 0.537162 29.8103 0.489865C31.0715 0.165541 32.3784 0 33.6921 0C37.8215 0 41.7067 1.60642 44.6308 4.52365C47.5549 7.44088 49.1636 11.3142 49.1585 15.4291C49.15 23.9189 42.2102 30.8243 33.6921 30.8243L33.6938 30.826Z" fill="white"/>
</svg>
