<svg width="46" height="49" viewBox="0 0 46 49" fill="none" xmlns="http://www.w3.org/2000/svg">
<path d="M34.9453 48.9865H21.458C20.6657 48.9865 20.028 48.3446 20.028 47.5507C20.028 46.7568 20.6673 46.1149 21.458 46.1149H34.9453C39.4135 46.1149 43.0474 42.4662 43.0474 37.9797V11.0084C43.0474 6.52196 39.4135 2.87331 34.9453 2.87331H8.10032C6.78474 2.87331 5.71983 3.94595 5.71983 5.26351V13.0253C5.71983 13.8209 5.08054 14.4611 4.28984 14.4611C3.49915 14.4611 2.85986 13.8193 2.85986 13.0253V5.26182C2.86491 2.36149 5.21176 0.00506757 8.10032 0H34.9402C40.9916 0 45.8989 4.92736 45.904 11.0034V37.9764C45.9057 44.0591 40.9983 48.9865 34.9453 48.9865Z" fill="white"/>
<path d="M11.2194 48.9864H8.10032C5.20503 48.9814 2.85986 46.625 2.85986 43.7246V18.7753C2.85986 17.9797 3.49915 17.3395 4.28984 17.3395C5.08054 17.3395 5.71983 17.9814 5.71983 18.7753V43.7229C5.71983 45.0439 6.78811 46.1131 8.10032 46.1131H11.2194C12.0117 46.1131 12.6493 46.755 12.6493 47.5489C12.6493 48.3429 12.0117 48.9864 11.2194 48.9864Z" fill="white"/>
<path d="M7.14654 37.4324H1.42998C0.637603 37.4324 0 36.7905 0 35.9966C0 35.2027 0.639286 34.5608 1.42998 34.5608H7.14822C7.9406 34.5608 8.57821 35.2027 8.57821 35.9966C8.57821 36.7905 7.93892 37.4324 7.14654 37.4324Z" fill="white"/>
<path d="M7.14654 25.9443H1.42998C0.637603 25.9443 0 25.3024 0 24.5084C0 23.7128 0.639286 23.0726 1.42998 23.0726H7.14822C7.9406 23.0726 8.57821 23.7145 8.57821 24.5084C8.57821 25.3024 7.93892 25.9443 7.14654 25.9443Z" fill="white"/>
<path d="M7.14654 14.4611H1.42998C0.637603 14.4611 0 13.8192 0 13.0253C0 12.2297 0.639286 11.5895 1.42998 11.5895H7.14822C7.9406 11.5895 8.57821 12.2314 8.57821 13.0253C8.57821 13.8192 7.93892 14.4611 7.14654 14.4611Z" fill="white"/>
<path d="M21.4597 48.9864H19.552C16.6567 48.9814 14.3149 46.6249 14.3115 43.7246V34.1182C14.3115 31.2111 16.6584 28.8564 19.552 28.8513H31.4461V24.3986C31.441 22.0337 29.5333 20.1182 27.178 20.1131C26.0525 20.1131 24.9842 20.5726 24.1733 21.4104C23.3625 22.2381 22.9099 23.3547 22.9099 24.5135C22.9099 25.3091 22.2706 25.9493 21.4799 25.9493C20.6892 25.9493 20.05 25.3074 20.05 24.5135V24.2888C20.05 24.2263 20.055 24.1689 20.06 24.1064C20.1559 22.3395 20.8894 20.6689 22.1209 19.4037C23.4752 18.005 25.2685 17.2347 27.1763 17.2347C31.1062 17.2347 34.306 20.4425 34.306 24.3935V30.2837C34.306 31.0793 33.6667 31.7195 32.876 31.7195H19.5553C18.2398 31.7195 17.1749 32.7922 17.1749 34.1131V43.7195C17.1749 45.0405 18.2431 46.1097 19.5587 46.1097H21.4665C22.2589 46.1097 22.8965 46.7516 22.8965 47.5456C22.8948 48.3395 22.2504 48.9864 21.4597 48.9864Z" fill="white"/>
</svg>
