<svg width="49" height="43" viewBox="0 0 49 43" fill="none" xmlns="http://www.w3.org/2000/svg">
<path d="M10.0979 37.8328C9.60116 37.8328 9.11958 37.576 8.8526 37.1149L0.192632 22.1199C-0.0642105 21.6757 -0.0642105 21.1284 0.192632 20.6841L11.7252 0.717905C11.982 0.273649 12.4552 0 12.9688 0H36.0339C36.7115 0 37.3029 0.471284 37.4449 1.13514C37.5851 1.7973 37.2489 2.46453 36.6321 2.73987C36.5459 2.78041 34.5774 3.7348 32.3621 6.13176C31.0407 7.56081 29.8917 9.21791 28.942 11.0574C27.9941 12.8953 27.2455 14.9206 26.7099 17.0997L30.6707 17.0963C30.6707 17.0963 30.6707 17.0963 30.6724 17.0963C31.4648 17.0963 32.107 17.7382 32.1086 18.5304C32.1086 19.3226 31.4665 19.9662 30.674 19.9662L24.9323 19.9696C24.9323 19.9696 24.9323 19.9696 24.9306 19.9696C24.5031 19.9696 24.0975 19.7787 23.8255 19.4493C23.5534 19.1199 23.4402 18.6858 23.5196 18.2669C24.1161 15.1199 25.1012 12.2162 26.448 9.63345C27.5328 7.55237 28.8542 5.67568 30.375 4.05574C30.7839 3.61993 31.1877 3.22466 31.5764 2.86824H13.7968L3.09393 21.402L11.3416 35.6807C11.7387 36.3666 11.5021 37.2449 10.8161 37.6419C10.5897 37.772 10.343 37.8328 10.0979 37.8328Z" fill="white"/>
<path d="M36.034 42.8041H12.9689C12.2913 42.8041 11.6999 42.3328 11.558 41.6689C11.4177 41.0068 11.754 40.3395 12.3708 40.0642C12.4519 40.0253 14.4221 39.0709 16.6408 36.6723C17.9604 35.2432 19.1112 33.5861 20.0608 31.7483C21.0088 29.9105 21.7573 27.8851 22.2947 25.7078H18.3339C17.5414 25.7078 16.8976 25.0659 16.8976 24.272C16.8976 23.4797 17.5397 22.8361 18.3339 22.8361H24.0757C24.5032 22.8361 24.9087 23.027 25.1808 23.3564C25.4528 23.6858 25.566 24.1199 25.4849 24.5389C24.8884 27.6841 23.9033 30.5878 22.5566 33.1689C21.4717 35.25 20.1504 37.1267 18.6296 38.7466C18.2207 39.1824 17.8185 39.5777 17.4299 39.9324H35.2044L45.9089 21.402L37.6697 7.13513C37.2743 6.44932 37.5092 5.57094 38.1952 5.17398C38.8812 4.77703 39.7599 5.01351 40.157 5.69932L48.8119 20.6824C49.0688 21.1267 49.0688 21.674 48.8119 22.1182L37.2794 42.0845C37.0208 42.5304 36.5477 42.8041 36.034 42.8041Z" fill="white"/>
</svg>
