<svg width="44" height="49" viewBox="0 0 44 49" fill="none" xmlns="http://www.w3.org/2000/svg">
<path d="M37.6847 0H5.39322C2.42525 0 0.0169598 2.39865 0 5.35473V43.6149C0.0169598 46.5878 2.42525 48.9865 5.39322 48.9865H9.49749C10.2946 48.9865 10.9391 48.3446 10.9391 47.5507V36.723H21.5898C24.5578 36.723 26.9661 34.3243 26.9661 31.3682V26.3513C26.9661 25.5574 26.3216 24.9155 25.5245 24.9155H13.4322C10.4642 24.9155 8.0559 27.3142 8.0559 30.2703V35.1858V35.2703V46.1149H5.37626C4.00251 46.1149 2.88317 45 2.88317 43.6318V5.35473C2.88317 3.98649 4.00251 2.87162 5.37626 2.87162H37.6677C39.0415 2.87162 40.1608 3.98649 40.1608 5.35473V43.6149C40.1608 44.9831 39.0415 46.098 37.6677 46.098H15.2638C14.4667 46.098 13.8222 46.7399 13.8222 47.5338C13.8222 48.3277 14.4667 48.9696 15.2638 48.9696H37.6847C40.6526 48.9696 43.0609 46.5709 43.0609 43.6149V5.35473C43.0609 2.39865 40.6526 0 37.6847 0ZM10.9391 30.2872C10.9391 28.9189 12.0584 27.8041 13.4322 27.8041H24.0829V31.3682C24.0829 32.7365 22.9636 33.8513 21.5898 33.8513H10.9391V30.2872Z" fill="white"/>
<path d="M35.005 9.42568C35.005 8.63176 34.3606 7.98987 33.5634 7.98987H13.4322C10.4642 7.98987 8.05591 10.3885 8.05591 13.3446V18.3446C8.05591 19.1385 8.70038 19.7804 9.49749 19.7804H29.6288C32.5967 19.7804 35.005 17.3818 35.005 14.4257V9.42568ZM32.1219 14.4257C32.1219 15.7939 31.0025 16.9088 29.6288 16.9088H10.9391V13.3446C10.9391 11.9764 12.0584 10.8615 13.4322 10.8615H32.1219V14.4257Z" fill="white"/>
</svg>
