<svg width="49" height="49" viewBox="0 0 49 49" fill="none" xmlns="http://www.w3.org/2000/svg">
<path d="M12.5303 41.3315C11.8375 41.3315 11.2457 40.8315 11.1263 40.1456L4.96223 5.02909C4.85126 4.38551 4.38887 3.86018 3.76843 3.66761L1.01595 2.80781C0.260996 2.57977 -0.166084 1.77909 0.0609075 1.02065C0.287899 0.262203 1.08489 -0.166852 1.83985 0.061189C1.84825 0.0628782 1.85666 0.0662566 1.86507 0.0696349L4.61754 0.929432C6.26029 1.43957 7.47931 2.82977 7.77524 4.53247L13.9376 39.6473C14.0755 40.4277 13.556 41.171 12.7808 41.3095C12.6967 41.323 12.6127 41.3315 12.5303 41.3315Z" fill="white"/>
<path d="M19.3165 46.1051C18.5279 46.1051 17.889 45.4632 17.889 44.6709C17.889 43.975 18.3867 43.3787 19.0694 43.2588L44.3932 38.7723C45.3381 38.6118 45.9737 37.7115 45.814 36.7622C45.6542 35.8128 44.758 35.1743 43.8131 35.3348C43.8063 35.3365 43.7979 35.3365 43.7912 35.3382L22.0421 39.1912C19.5452 39.6338 17.1643 37.9581 16.7238 35.4513L12.8901 13.6017C12.4496 11.0932 14.1176 8.70134 16.6128 8.25877L38.3619 4.40573C40.8588 3.96316 43.2397 5.63884 43.6802 8.1456L47.2297 28.3703C47.3558 29.1524 46.8278 29.8888 46.0494 30.0155C45.286 30.1405 44.563 29.6304 44.4184 28.8669L40.8689 8.6456C40.7024 7.69796 39.8029 7.06451 38.8596 7.23174L17.1088 11.0831C16.1655 11.2503 15.535 12.154 15.7015 13.1017L19.5368 34.9513C19.7032 35.899 20.6028 36.5324 21.5461 36.3652C21.5461 36.3652 21.5461 36.3652 21.5478 36.3652L43.2969 32.5121C45.7854 32.0274 48.1948 33.6608 48.6774 36.1625C49.16 38.6625 47.534 41.0831 45.0439 41.5679C44.9934 41.578 44.9413 41.5865 44.8909 41.5949L19.567 46.0814C19.4847 46.0983 19.4006 46.1051 19.3165 46.1051Z" fill="white"/>
<path d="M25.0618 18.2064C24.2732 18.2064 23.6343 17.5646 23.6343 16.7723C23.6343 16.0764 24.132 15.4801 24.8146 15.3602L33.0721 13.8973C33.8489 13.7605 34.5887 14.2808 34.7249 15.0612C34.8611 15.8416 34.3432 16.5848 33.5664 16.7217L25.309 18.1845C25.2283 18.1997 25.1459 18.2064 25.0618 18.2064Z" fill="white"/>
<path d="M15.3297 48.8416C12.1771 48.8416 9.62134 46.2724 9.62134 43.1052C9.62134 39.9379 12.1788 37.3704 15.3314 37.3704C18.4841 37.3704 21.0398 39.9396 21.0398 43.1068C21.0398 45.8873 19.0541 48.2673 16.3285 48.7538C15.9989 48.8129 15.6643 48.8416 15.3297 48.8416ZM15.3466 40.269C15.1784 40.269 15.012 40.2842 14.8472 40.3129C13.3104 40.5883 12.2847 42.0629 12.5588 43.6068C12.8328 45.1508 14.3007 46.1812 15.8375 45.9058C17.3743 45.6305 18.4 44.1558 18.1259 42.6119C17.8872 41.2589 16.7169 40.2707 15.3466 40.269Z" fill="white"/>
</svg>
