<svg width="50" height="49" viewBox="0 0 50 49" fill="none" xmlns="http://www.w3.org/2000/svg">
<path d="M44.8874 14.0498C44.6499 14.0498 44.3955 13.9823 44.1749 13.864L25.3276 3.03632C24.8866 2.78294 24.3267 2.78294 23.8687 3.03632L11.4169 10.1985C10.7383 10.587 9.85619 10.3505 9.46602 9.67483C9.07584 8.99916 9.31334 8.12078 9.99191 7.73226L22.4607 0.570101C23.8008 -0.190034 25.4464 -0.190034 26.7866 0.570101L45.6339 11.3978C46.3124 11.7863 46.5499 12.6647 46.1598 13.3404C45.8544 13.7965 45.3794 14.0498 44.8874 14.0498Z" fill="white"/>
<path d="M24.5982 48.5936C23.8518 48.5936 23.1053 48.4078 22.4437 48.0193L5.03838 38.0193C3.6982 37.2592 2.88391 35.8234 2.88391 34.2862V20.3166C2.88391 19.5227 3.52855 18.8977 4.30891 18.8977C5.08927 18.8977 5.73391 19.5396 5.73391 20.3166V34.2862C5.73391 34.8099 6.00534 35.2828 6.46338 35.5362L23.8687 45.5362C24.3098 45.7896 24.8696 45.7896 25.3277 45.5362L42.733 35.5362C43.1741 35.2828 43.4625 34.793 43.4625 34.2862V26.1274C43.4625 25.3335 44.1071 24.7085 44.8875 24.7085C45.6678 24.7085 46.3125 25.3504 46.3125 26.1274V34.2862C46.3125 35.8234 45.4812 37.2423 44.158 38.0193L26.7527 48.0193C26.0911 48.3909 25.3446 48.5936 24.5982 48.5936Z" fill="white"/>
<path d="M48.7554 11.364C48.467 11.0937 48.0938 10.9417 47.7036 10.9585C42.9705 11.1275 38.4241 12.2592 34.183 14.3369C30.5696 16.1106 27.3634 18.4585 24.5982 21.3808C21.85 18.4754 18.6268 16.1106 15.0134 14.3369C10.7723 12.2592 6.22589 11.1275 1.49286 10.9585C1.10268 10.9417 0.7125 11.0937 0.441071 11.364C0.152679 11.6342 0 12.0058 0 12.3944V19.8775C0 20.6038 0.559821 21.2288 1.28929 21.3133C5.81875 21.8031 10.0937 23.2727 13.9616 25.6545C17.6937 27.9518 20.9509 31.0937 23.3937 34.7423C23.4446 34.8099 23.4955 34.8775 23.5634 34.945L23.5804 34.9619C23.5973 34.9788 23.6312 35.0126 23.6652 35.0295C23.6821 35.0464 23.6821 35.0464 23.6991 35.0633C23.7161 35.0802 23.75 35.0971 23.767 35.114C23.7839 35.1308 23.8009 35.1308 23.8179 35.1477C23.8348 35.1646 23.8687 35.1815 23.8857 35.1984C23.9027 35.2153 23.9196 35.2153 23.9536 35.2322C23.9705 35.2491 24.0045 35.2491 24.0214 35.266C24.0384 35.2829 24.0723 35.2829 24.0893 35.2998C24.1062 35.2998 24.1402 35.3167 24.1571 35.3167C24.1911 35.3336 24.225 35.3336 24.2589 35.3504C24.2759 35.3504 24.3098 35.3673 24.3268 35.3673C24.3777 35.3673 24.4116 35.3842 24.4625 35.3842C24.4625 35.3842 24.4625 35.3842 24.4795 35.3842C24.5304 35.3842 24.5643 35.3842 24.6152 35.3842C24.717 35.3842 24.8018 35.3673 24.9036 35.3504C24.9375 35.3504 24.9714 35.3336 25.0054 35.3167C25.0223 35.3167 25.0223 35.3167 25.0393 35.2998C25.175 35.2491 25.3107 35.1984 25.4295 35.114C25.4464 35.0971 25.4634 35.0802 25.4804 35.0633C25.4973 35.0464 25.5143 35.0295 25.5312 35.0295C25.5482 35.0126 25.5821 34.9957 25.5991 34.9788C25.6161 34.9619 25.633 34.9619 25.633 34.945C25.633 34.945 25.633 34.945 25.65 34.9281C25.667 34.9113 25.7009 34.8775 25.7179 34.8437C25.7179 34.8437 25.7179 34.8437 25.7348 34.8268C25.7687 34.793 25.7857 34.7592 25.8196 34.7254C28.2455 31.0768 31.5196 27.9349 35.2518 25.6376C39.1366 23.2558 43.3946 21.7863 47.9241 21.2964C48.6536 21.2119 49.2134 20.6038 49.2134 19.8606V12.3944C49.1964 12.0058 49.0438 11.6342 48.7554 11.364ZM21.1884 27.614C19.458 25.9417 17.5411 24.4552 15.4884 23.2052C13.4187 21.9214 11.1964 20.8741 8.88929 20.0802C6.93839 19.4045 4.93661 18.9146 2.88393 18.6106V13.9146C6.66696 14.2356 10.3143 15.2322 13.7411 16.9045C17.3375 18.6613 20.4929 21.0599 23.1562 24.0498V29.6917C22.5286 28.9822 21.867 28.2896 21.1884 27.614ZM46.3125 18.6106C44.2768 18.9146 42.258 19.4045 40.3071 20.0802C38.017 20.8741 35.7946 21.9214 33.708 23.2052C31.6554 24.4721 29.7384 25.9585 28.008 27.614C27.3295 28.2727 26.6679 28.9653 26.0402 29.6917V24.0667C28.7036 21.0768 31.8589 18.6781 35.4554 16.9214C38.8821 15.2491 42.5125 14.2356 46.3125 13.9315V18.6106Z" fill="white"/>
</svg>
