<svg width="49" height="41" viewBox="0 0 49 41" fill="none" xmlns="http://www.w3.org/2000/svg">
<path d="M2.88388 14.3583C2.38535 14.3583 1.90202 14.0998 1.63839 13.6404L0.585563 11.8211C-0.195188 10.4715 -0.195188 8.86336 0.585563 7.5137C1.36631 6.16404 2.76051 5.35999 4.31525 5.35999H36.8381C37.6324 5.35999 38.2745 6.00188 38.2745 6.7958C38.2745 7.58972 37.6324 8.23161 36.8381 8.23161H4.32032C3.57337 8.23161 3.1999 8.73499 3.07484 8.94951C2.94979 9.16404 2.70136 9.74005 3.07484 10.3853L4.12767 12.2046C4.52481 12.8887 4.28991 13.7705 3.60041 14.1674C3.37734 14.2958 3.12892 14.3583 2.88388 14.3583Z" fill="white"/>
<path d="M2.88388 14.3583C2.38535 14.3583 1.90202 14.0998 1.63839 13.6404L0.585563 11.8211C-0.195188 10.4715 -0.195188 8.86336 0.585563 7.5137C1.36631 6.16404 2.76051 5.35999 4.31525 5.35999H36.8381C37.6324 5.35999 38.2745 6.00188 38.2745 6.7958C38.2745 7.58972 37.6324 8.23161 36.8381 8.23161H4.32032C3.57337 8.23161 3.1999 8.73499 3.07484 8.94951C2.94979 9.16404 2.70136 9.74005 3.07484 10.3853L4.12767 12.2046C4.52481 12.8887 4.28991 13.7705 3.60041 14.1674C3.37734 14.2958 3.12892 14.3583 2.88388 14.3583Z" fill="white"/>
<path d="M21.196 40.7941C18.7726 40.7941 16.6045 39.5407 15.3928 37.4444L5.56579 20.4377C4.78504 19.088 4.78504 17.4799 5.56579 16.1303C6.34654 14.7806 7.73905 13.9749 9.29548 13.9749H31.8578C32.6521 13.9749 33.2943 14.6167 33.2943 15.4107C33.2943 16.2046 32.6521 16.8465 31.8578 16.8465H9.29548C8.54853 16.8465 8.17505 17.3499 8.05 17.5644C7.92494 17.7806 7.67652 18.3549 8.05 19.0002L17.8719 36.0053C18.5665 37.2012 19.8069 37.9191 21.1909 37.9191C22.575 37.9191 23.8154 37.2012 24.51 36.0053L28.8193 28.5441C29.2165 27.86 30.0935 27.6201 30.783 28.0171C31.4675 28.414 31.7074 29.2907 31.3103 29.9799L27.001 37.4411C25.7876 39.539 23.6177 40.7941 21.196 40.7941Z" fill="white"/>
<path d="M21.196 40.7941C18.7726 40.7941 16.6045 39.5407 15.3928 37.4444L5.56579 20.4377C4.78504 19.088 4.78504 17.4799 5.56579 16.1303C6.34654 14.7806 7.73905 13.9749 9.29548 13.9749H31.8578C32.6521 13.9749 33.2943 14.6167 33.2943 15.4107C33.2943 16.2046 32.6521 16.8465 31.8578 16.8465H9.29548C8.54853 16.8465 8.17505 17.3499 8.05 17.5644C7.92494 17.7806 7.67652 18.3549 8.05 19.0002L17.8719 36.0053C18.5665 37.2012 19.8069 37.9191 21.1909 37.9191C22.575 37.9191 23.8154 37.2012 24.51 36.0053L28.8193 28.5441C29.2165 27.86 30.0935 27.6201 30.783 28.0171C31.4675 28.414 31.7074 29.2907 31.3103 29.9799L27.001 37.4411C25.7876 39.539 23.6177 40.7941 21.196 40.7941Z" fill="white"/>
<path d="M48.9584 6.43262L47.5169 1.06776C47.5118 1.04411 47.5033 1.02384 47.4983 1.00019C47.4983 0.995125 47.4932 0.990057 47.4932 0.98499C47.4881 0.966409 47.4831 0.951206 47.4746 0.932625C47.4746 0.927558 47.4695 0.92249 47.4695 0.917422C47.4645 0.898841 47.456 0.883638 47.451 0.865057C47.451 0.85999 47.4459 0.85999 47.4459 0.854923C47.4357 0.836342 47.4273 0.816071 47.4222 0.79749C47.3208 0.591409 47.1687 0.408976 46.9727 0.270463C46.9541 0.25526 46.9338 0.241747 46.9152 0.231611C46.9102 0.226544 46.9 0.221476 46.8967 0.216409C46.8831 0.206274 46.8679 0.197828 46.8527 0.19276C46.8341 0.182625 46.8189 0.174179 46.8003 0.164044C46.7953 0.164044 46.7902 0.158976 46.7902 0.158976C46.5316 0.0255302 46.2443 -0.0234561 45.9756 0.0103277C45.9756 0.0103277 45.9756 0.0103277 45.9706 0.0103277C45.952 0.0153952 45.9266 0.0153952 45.908 0.0204627C45.903 0.0204627 45.903 0.0204627 45.8979 0.0204627C45.8793 0.0255303 45.859 0.0305981 45.8404 0.0305981C45.8354 0.0305981 45.8354 0.0305981 45.8303 0.0305981C45.8066 0.0356657 45.783 0.0407333 45.7627 0.0458008L40.3566 1.50019C39.5911 1.70627 39.1348 2.49175 39.3409 3.26202C39.5471 4.02722 40.3329 4.4833 41.1035 4.27722L43.1534 3.72654L33.3569 20.6843C32.6775 21.8667 31.4033 22.5982 30.0378 22.5982H18.3688C17.5745 22.5982 16.9324 23.2401 16.9324 24.034C16.9324 24.8279 17.5745 25.4698 18.3688 25.4698H30.0429C32.4325 25.4698 34.6547 24.1877 35.8462 22.1201L45.6427 5.16236L46.1835 7.18263C46.3559 7.82452 46.9355 8.24513 47.5726 8.24513C47.6977 8.24513 47.821 8.23161 47.9461 8.19783C48.715 7.98837 49.1645 7.19783 48.9584 6.43262Z" fill="white"/>
</svg>
