<svg width="52" height="59" viewBox="0 0 52 59" fill="none" xmlns="http://www.w3.org/2000/svg">
<path d="M51.2121 15.2534C51.2121 14.848 50.989 14.4628 50.6444 14.2601L26.1737 0.152027C25.8088 -0.0506757 25.383 -0.0506757 25.0181 0.152027L0.567671 14.2601C0.20274 14.4628 0 14.848 0 15.2534V43.4899C0 43.8953 0.223014 44.2804 0.567671 44.4831L25.0384 58.6115C25.4033 58.8142 25.829 58.8142 26.194 58.6115L50.6647 44.4831H50.6849L50.7052 44.4628C50.7255 44.4426 50.7458 44.4426 50.766 44.4223L50.7863 44.402C50.8066 44.3818 50.8268 44.3615 50.8674 44.3412C50.8877 44.3209 50.9079 44.3007 50.9282 44.2804L50.9485 44.2601C50.9688 44.2399 50.9688 44.2196 50.989 44.1993L51.0093 44.1791C51.0296 44.1588 51.0499 44.1385 51.0701 44.1182L51.0904 44.098C51.0904 44.098 51.1107 44.0574 51.1107 44.0372C51.1107 44.0169 51.131 44.0169 51.131 43.9966C51.1512 43.9764 51.1512 43.9561 51.1512 43.9358C51.1512 43.9155 51.1512 43.9155 51.1715 43.8953C51.1715 43.875 51.1918 43.8547 51.1918 43.8345C51.1918 43.8142 51.1918 43.8142 51.1918 43.7939C51.1918 43.7736 51.2121 43.7534 51.2121 43.7128V43.6926C51.2121 43.652 51.2323 43.6318 51.2323 43.5912C51.2323 43.5912 51.2323 43.5912 51.2323 43.5709C51.2323 43.5507 51.2323 43.5101 51.2323 43.4899V43.4696L51.2121 15.2534ZM26.7616 41.9899L43.3458 43.8953C43.4674 43.9358 43.5688 43.9561 43.6904 43.9561C43.7107 43.9561 43.7512 43.9561 43.7715 43.9561L46.4679 44.2601L26.7616 55.6318V41.9899ZM26.7616 30.0304L42.5348 20.9088V41.4831L26.7616 39.6791V30.0304ZM24.4504 39.4155L20.3348 38.9493V33.7399L24.4504 31.3682V39.4155ZM44.846 41.7466V19.5709L48.9008 17.2196V42.2128L44.846 41.7466ZM25.606 2.46284L47.7249 15.2331L35.3375 22.3885L26.1737 17.0777C25.8088 16.875 25.383 16.875 25.0181 17.0777L15.8745 22.3885L3.48712 15.2331L25.606 2.46284ZM2.29096 17.1993L15.2663 24.6993C15.3069 24.7196 15.3271 24.7399 15.3677 24.7601L20.7403 27.8615C21.2674 28.2061 21.9973 28.0642 22.3419 27.5169C22.6866 26.9899 22.5447 26.2601 21.9973 25.9155C21.9567 25.8953 21.9364 25.875 21.8959 25.8547L18.206 23.7264L25.6263 19.4291L33.0669 23.7466L25.2005 28.2872C25.0789 28.3277 24.9775 28.3885 24.8762 28.4696L18.6115 32.0777C18.2466 32.2804 18.0438 32.6655 18.0438 33.0709V39.9831C18.0438 40.5709 18.4899 41.0574 19.0575 41.1182L24.4504 41.7263V55.6318L2.29096 42.8412V17.1993Z" fill="white"/>
</svg>
