<svg width="65" height="40" viewBox="0 0 65 40" fill="none" xmlns="http://www.w3.org/2000/svg">
<mask id="mask0_1107_2901" style="mask-type:luminance" maskUnits="userSpaceOnUse" x="0" y="0" width="65" height="40">
<path d="M64.4037 0H0V39.7057H64.4037V0Z" fill="white"/>
</mask>
<g mask="url(#mask0_1107_2901)">
<path d="M40.6641 23.0386C41.3063 22.2195 42.4924 22.0753 43.3128 22.7165C44.1333 23.3576 44.2778 24.5414 43.6356 25.3604L35.1196 36.2194C35.1183 36.2208 35.117 36.2226 35.1157 36.2244C31.917 40.2744 26.0552 40.9958 21.9684 37.864L21.8721 37.7894L21.8343 37.759C21.0495 37.1087 20.9231 35.9487 21.558 35.1444C22.1929 34.3401 23.3524 34.1915 24.1692 34.8012L24.2078 34.8308L24.2655 34.8758C26.7175 36.7548 30.2337 36.3215 32.1521 33.8923L40.6641 23.0386Z" fill="white"/>
<path d="M38.51 1.07085C39.8289 0.595176 41.2461 0.420569 42.6379 0.557927C45.4424 0.833855 48.0117 2.37368 49.571 4.72003L62.934 24.8231L63.001 24.9249C65.795 29.2457 64.596 35.0187 60.2903 37.8708C55.9849 40.7222 50.19 39.5819 47.2872 35.333L47.2192 35.2322L40.5774 25.2415L40.5513 25.2006C40.0088 24.3384 40.2518 23.1969 41.1066 22.6308C41.9746 22.0557 43.1457 22.2921 43.7217 23.1588L50.3635 33.1494C52.0906 35.7472 55.6006 36.4562 58.2036 34.7322C60.8069 33.0076 61.5168 29.5037 59.7897 26.9057L46.4267 6.80257L46.4263 6.80236C45.4953 5.40111 43.9453 4.47143 42.2673 4.30643L42.2665 4.30639C41.4318 4.224 40.5799 4.32936 39.7927 4.61328L39.7924 4.61346C39.0968 4.86428 38.7236 5.19382 38.134 6.04257C36.5983 8.25186 34.9976 10.4494 33.4619 12.6067C31.3235 15.612 29.1851 18.6175 27.0459 21.6223C25.1541 24.28 23.2607 26.9413 21.3679 29.6002C20.9601 30.173 20.5522 30.7458 20.1443 31.319C19.7365 31.8919 19.3285 32.4651 18.9205 33.038C18.3169 33.8858 17.1389 34.0847 16.2895 33.4822C15.4401 32.8797 15.2409 31.704 15.8446 30.8562C16.2524 30.2833 16.6602 29.7104 17.068 29.1373C17.4759 28.5643 17.8838 27.9912 18.2917 27.4183C20.1851 24.7586 22.0766 22.1 23.9698 19.4405C26.1086 16.4361 28.247 13.4309 30.3854 10.4257C31.9554 8.22003 33.512 6.08439 35.0332 3.8955C35.8734 2.68643 36.8098 1.68393 38.51 1.07085Z" fill="white"/>
<path d="M20.3955 0.229408C21.573 -0.0796996 23.2332 -0.293664 25.0837 0.142622C26.9647 0.586086 28.9169 1.67326 30.6723 3.76823C31.3409 4.56609 31.2348 5.75391 30.4355 6.42123C29.6361 7.08855 28.4462 6.98269 27.7776 6.18484C26.5236 4.68823 25.2721 4.05744 24.2162 3.80848C23.1303 3.55244 22.1204 3.67134 21.3546 3.87244L21.3535 3.87269C20.8673 4.00009 20.4332 4.30409 20.1362 4.73362L4.72501 27.0707C4.7196 27.0785 4.71409 27.0863 4.70858 27.094C2.92686 29.5946 3.49445 33.0558 5.96875 34.86L6.03305 34.9061L6.10278 34.9561C7.67992 36.0754 9.63826 36.2679 11.3295 35.6358C12.3054 35.2708 13.3927 35.7647 13.7582 36.7386C14.1238 37.7129 13.629 38.7983 12.6531 39.1633L12.587 39.1875C9.78613 40.2108 6.536 39.8854 3.9161 38.0261C3.91416 38.0247 3.91223 38.0233 3.9103 38.0218L3.84035 37.9718C-0.377256 34.9775 -1.36691 29.1412 1.62149 24.9279L17.0293 2.59566L17.0304 2.59405C17.829 1.43909 19.0175 0.590443 20.3955 0.229408Z" fill="white"/>
</g>
</svg>
