<svg width="49" height="41" viewBox="0 0 49 41" fill="none" xmlns="http://www.w3.org/2000/svg">
<path d="M41.9557 13.5231H38.444L40.3595 10.4994C41.334 8.96228 41.6533 7.15485 41.2668 5.3812C40.8803 3.60755 39.8218 2.08728 38.2928 1.10755C35.1507 -0.902584 30.9669 0.0264709 28.9506 3.18525L24.3971 10.3643L19.8101 3.13458C17.8106 -0.0242053 13.61 -0.953259 10.4679 1.07377C8.9389 2.0535 7.88035 3.57377 7.49389 5.34742C7.10743 7.12107 7.42668 8.94539 8.40122 10.4657L10.3503 13.5231H6.77138C3.04124 13.5231 0 16.5805 0 20.3305C0 24.0805 3.04124 27.138 6.77138 27.138H10.3671L8.41802 30.1954C7.44348 31.7326 7.12424 33.54 7.51069 35.3136C7.89715 37.0873 8.9557 38.6076 10.4847 39.5873C11.6105 40.3136 12.8707 40.6515 14.1141 40.6515C16.3488 40.6515 18.5331 39.5366 19.8269 37.5096L24.3971 30.3305L28.9842 37.5603C30.278 39.5873 32.4623 40.7021 34.697 40.7021C35.9404 40.7021 37.2006 40.3643 38.3264 39.638C39.8554 38.6582 40.914 37.138 41.3004 35.3643C41.6869 33.5907 41.3676 31.7663 40.3931 30.2461L38.4104 27.138H41.9893C45.7195 27.138 48.7607 24.0805 48.7607 20.3305C48.7271 16.5805 45.6858 13.5231 41.9557 13.5231ZM17.4073 35.9555C16.248 37.7798 13.8284 38.3035 12.0137 37.1549C11.14 36.5974 10.5351 35.719 10.2999 34.6886C10.0815 33.6582 10.2663 32.6109 10.8208 31.7326L15.5927 24.2326H6.77138C4.62067 24.2326 2.87322 22.4758 2.87322 20.3136C2.87322 18.1515 4.62067 16.3947 6.77138 16.3947H15.5927L10.8208 8.91161C10.2663 8.03323 10.0815 6.98593 10.2999 5.95552C10.5183 4.92512 11.1232 4.06363 12.0137 3.48931C13.8284 2.32377 16.248 2.86431 17.4073 4.68863L23.1538 13.7089C23.1874 13.7596 23.221 13.8271 23.2546 13.8778L27.3544 20.3136L23.2378 26.7832C23.1874 26.8508 23.1538 26.9184 23.1202 26.9859L17.4073 35.9555ZM41.9557 24.2326H33.1512L37.9567 31.7832C38.5112 32.6616 38.696 33.7089 38.4776 34.7393C38.2592 35.7697 37.6543 36.6312 36.7637 37.2055C34.9491 38.3711 32.5295 37.8305 31.3702 36.0062L26.0774 27.6447L30.7317 20.3136L26.0942 13.0332L31.3702 4.73931C32.5295 2.91498 34.9491 2.39134 36.7637 3.53998C37.6375 4.09742 38.2424 4.97579 38.4776 6.0062C38.696 7.03661 38.5112 8.0839 37.9567 8.96228L33.2184 16.4116H41.9557C44.1064 16.4116 45.8539 18.1684 45.8539 20.3305C45.8539 22.4927 44.1064 24.2326 41.9557 24.2326Z" fill="white"/>
</svg>
