<svg width="52" height="59" viewBox="0 0 52 59" fill="none" xmlns="http://www.w3.org/2000/svg">
<path d="M25.5089 58.7736C25.1052 58.7736 24.7216 58.5709 24.5198 58.2061C24.1968 57.6588 24.3986 56.9493 24.9437 56.625L48.7232 42.8412V15.2534C48.7232 14.6047 49.248 14.098 49.8738 14.098C50.4996 14.098 51.0244 14.6047 51.0244 15.2534V43.4899C51.0244 43.8953 50.8024 44.2804 50.4592 44.4831L26.0943 58.6115C25.8924 58.7128 25.6906 58.7736 25.5089 58.7736Z" fill="white"/>
<path d="M25.5089 58.7736C25.307 58.7736 25.1254 58.7128 24.9437 58.6115L0.578767 44.5034C0.215413 44.3007 0.0135498 43.9155 0.0135498 43.5101V15.2736C0.0135498 14.625 0.518208 14.1182 1.16417 14.1182C1.81013 14.1182 2.31479 14.625 2.31479 15.2736V42.8615L26.0943 56.6453C26.6393 56.9696 26.821 57.679 26.5182 58.2263C26.276 58.5709 25.8924 58.7736 25.5089 58.7736Z" fill="white"/>
<path d="M49.8536 16.4088C49.6517 16.4088 49.47 16.348 49.2884 16.2466L25.5089 2.46284L1.72937 16.2466C1.18434 16.5709 0.477816 16.3682 0.154835 15.8209C-0.168146 15.2736 0.033717 14.5642 0.578748 14.2399L24.9235 0.152027C25.2868 -0.0506757 25.7107 -0.0506757 26.0741 0.152027L50.439 14.2601C50.984 14.5845 51.1657 15.2939 50.8629 15.8412C50.6409 16.2061 50.2573 16.4088 49.8536 16.4088Z" fill="white"/>
<path d="M25.5089 41.8277C25.1052 41.8277 24.7216 41.625 24.5198 41.2601C24.1968 40.7128 24.3986 40.0034 24.9437 39.6791L34.1083 34.3682V23.7263C34.1083 23.098 34.6331 22.5709 35.2589 22.5709C35.8847 22.5709 36.4095 23.098 36.4095 23.7263V35.0169C36.4095 35.4223 36.1875 35.8074 35.8443 36.0101L26.0943 41.6655C25.8924 41.7872 25.6906 41.8277 25.5089 41.8277Z" fill="white"/>
<path d="M25.5089 41.8277C25.307 41.8277 25.1253 41.7669 24.9436 41.6655L15.1936 36.0304C14.8303 35.8277 14.6284 35.4426 14.6284 35.0372V23.7466C14.6284 23.1182 15.1533 22.5912 15.779 22.5912C16.4048 22.5912 16.9297 23.1182 16.9297 23.7466V34.3682L26.0943 39.6791C26.6393 40.0034 26.821 40.7128 26.5182 41.2601C26.2759 41.625 25.8924 41.8277 25.5089 41.8277Z" fill="white"/>
<path d="M35.2387 24.8818C35.0368 24.8818 34.8552 24.8209 34.6735 24.7196L25.5089 19.4088L16.3241 24.7196C15.7791 25.0439 15.0725 24.8412 14.7496 24.2939C14.4266 23.7466 14.6284 23.0372 15.1735 22.7128L24.9235 17.0574C25.2868 16.8547 25.7107 16.8547 26.0741 17.0574L35.8241 22.7128C36.3691 23.0372 36.5508 23.7466 36.248 24.2939C36.026 24.6791 35.6424 24.8818 35.2387 24.8818Z" fill="white"/>
<path d="M25.5088 30.5372C25.307 30.5372 25.1253 30.4764 24.9436 30.375L0.578691 16.2669C0.0336598 15.9426 -0.148017 15.2331 0.154778 14.6858C0.477759 14.1385 1.18428 13.9561 1.72931 14.2601L26.0942 28.3682C26.6392 28.6926 26.8209 29.402 26.5181 29.9493C26.2759 30.3345 25.8924 30.5372 25.5088 30.5372Z" fill="white"/>
<path d="M25.5089 30.5372C25.1052 30.5372 24.7216 30.3345 24.5198 29.9696C24.1968 29.4223 24.3986 28.7128 24.9437 28.3885L49.3086 14.2804C49.8536 13.9561 50.5601 14.1588 50.8831 14.7061C51.2061 15.2534 51.0042 15.9628 50.4592 16.2872L26.0943 30.3953C25.8924 30.4764 25.6906 30.5372 25.5089 30.5372Z" fill="white"/>
<path d="M25.5089 58.7736C24.8831 58.7736 24.3583 58.2466 24.3583 57.6182V29.3818C24.3583 28.7534 24.8831 28.2264 25.5089 28.2264C26.1347 28.2264 26.6595 28.7534 26.6595 29.3818V57.6182C26.6393 58.2466 26.1347 58.7736 25.5089 58.7736Z" fill="white"/>
</svg>
