<svg width="49" height="42" viewBox="0 0 49 42" fill="none" xmlns="http://www.w3.org/2000/svg">
<path d="M41.0018 36.476C40.8001 36.476 40.5985 36.4591 40.3968 36.4253L35.9432 35.8003C35.1701 35.682 34.6155 34.9557 34.7332 34.1787C34.8508 33.4016 35.5735 32.8442 36.3465 32.9624L40.8001 33.5874C41.5732 33.7057 42.2959 33.1482 42.4135 32.3712L45.8587 7.69217C45.9092 7.32055 45.8083 6.93203 45.5898 6.62798C45.3546 6.32393 45.0352 6.12122 44.6487 6.07055L22.0614 2.89487C21.2883 2.77663 20.5657 3.33406 20.448 4.11109L20.0279 7.08406C19.9102 7.86109 19.1876 8.41852 18.4145 8.30028C17.6414 8.18203 17.0868 7.45568 17.2045 6.67865L17.6246 3.70568C17.9608 1.35771 20.1287 -0.280804 22.4648 0.0401416L45.0521 3.23271C46.1781 3.38474 47.1864 3.97595 47.8755 4.90501C48.5645 5.81717 48.8502 6.94893 48.699 8.09757L45.2537 32.7766C44.9344 34.9219 43.1026 36.476 41.0018 36.476Z" fill="white"/>
<path d="M5.30589 41.155C4.60004 41.155 3.99502 40.6313 3.89419 39.9219L0.0456074 12.405C-0.122453 11.2732 0.180056 10.1415 0.852296 9.22932C1.54134 8.31715 2.5497 7.72594 3.67571 7.55702L26.263 4.36445C28.599 4.02661 30.767 5.68202 31.1031 8.02999L34.3131 30.9523C34.4307 31.7293 33.8761 32.4557 33.103 32.5739C32.33 32.6922 31.6073 32.1347 31.4897 31.3577L28.2797 8.4185C28.1621 7.64148 27.4394 7.08405 26.6663 7.20229L4.07905 10.3949C3.70932 10.4455 3.3732 10.6482 3.13792 10.9523C2.90263 11.2563 2.8186 11.628 2.86902 12.0165L6.7176 39.5334C6.83524 40.3104 6.28064 41.0367 5.50756 41.155C5.44034 41.155 5.37312 41.155 5.30589 41.155Z" fill="white"/>
<path d="M42.7498 13.9422C42.7498 11.5773 40.8339 9.63477 38.4643 9.63477C36.0946 9.63477 34.1787 11.5604 34.1787 13.9422C34.1787 15.4287 34.9182 16.7294 36.061 17.5064L32.9183 29.7023C32.1284 29.7699 31.4058 30.0571 30.7839 30.4963L20.5827 23.6044C20.6667 23.2665 20.7171 22.8949 20.7171 22.5402C20.7171 20.1753 18.8012 18.2327 16.4316 18.2327C14.0619 18.2327 12.1461 20.1584 12.1461 22.5402C12.1461 23.5199 12.4822 24.4321 13.02 25.1584L4.07916 38.9422C3.64221 39.601 3.84388 40.4963 4.49932 40.9354C4.7346 41.0875 5.0035 41.1719 5.27239 41.1719C5.74296 41.1719 6.19672 40.9354 6.46562 40.5131L15.4064 26.7294C15.7257 26.8138 16.0619 26.8476 16.4148 26.8476C17.3727 26.8476 18.2466 26.5267 18.9693 26.003L29.1369 32.878C29.0361 33.2327 28.9857 33.6213 28.9857 34.0098C28.9857 36.3746 30.9016 38.3172 33.2712 38.3172C35.6241 38.3172 37.5568 36.3915 37.5568 34.0098C37.5568 32.5233 36.8005 31.2057 35.6577 30.4456L38.8004 18.2665C41.0188 18.0469 42.7498 16.1888 42.7498 13.9422ZM38.4643 12.5233C39.2542 12.5233 39.8928 13.1652 39.8928 13.9591C39.8928 14.753 39.2542 15.3949 38.4643 15.3949C37.6744 15.3949 37.0358 14.753 37.0358 13.9591C37.0358 13.1652 37.6744 12.5233 38.4643 12.5233ZM15.0199 22.5402C15.0199 21.7463 15.6585 21.1044 16.4484 21.1044C17.2383 21.1044 17.8769 21.7463 17.8769 22.5402C17.8769 22.8104 17.8097 23.0638 17.6752 23.2665C17.6584 23.2834 17.6416 23.3172 17.6248 23.3341C17.608 23.351 17.5912 23.3848 17.5744 23.4017C17.3055 23.7395 16.9022 23.976 16.4484 23.976C15.6585 23.9591 15.0199 23.3341 15.0199 22.5402ZM33.3048 35.4118C32.515 35.4118 31.8763 34.7699 31.8763 33.976C31.8763 33.1821 32.515 32.5402 33.3048 32.5402C34.0947 32.5402 34.7333 33.1821 34.7333 33.976C34.7333 34.7699 34.0947 35.4118 33.3048 35.4118Z" fill="white"/>
</svg>
