<svg width="52" height="59" viewBox="0 0 52 59" fill="none" xmlns="http://www.w3.org/2000/svg">
<path d="M51.0219 43.4902V15.2538C51.0219 14.8484 50.7997 14.4632 50.4563 14.2605L26.0765 0.152405C25.7735 -0.0300272 25.3291 -0.0705678 24.9252 0.152405L0.565563 14.2605C0.201987 14.4632 0 14.8484 0 15.2538V43.4902C0.0201987 43.8348 0.141391 44.22 0.565563 44.4835L24.9252 58.5916C25.2887 58.7943 25.7129 58.7943 26.0765 58.5916L50.4563 44.4632C50.7997 44.2808 51.0219 43.9159 51.0219 43.4902ZM24.3596 3.13214V17.3619L15.1288 22.7132C14.7652 22.9159 14.5632 23.3011 14.5632 23.7065V34.3686L2.28245 41.524V15.9429L24.3596 3.13214ZM16.8457 33.0308V24.3551L24.3596 19.997V28.6524L16.8457 33.0308ZM25.4907 56.3011L18.5222 52.2673C19.7341 50.6659 21.451 49.5308 23.4103 49.0443C25.6523 48.4767 27.9954 48.8213 29.995 49.9767C31.005 50.5646 31.8735 51.3146 32.5603 52.2267L25.4907 56.3011ZM34.5599 51.0511C33.651 49.8146 32.4795 48.7605 31.1464 47.97C28.6215 46.5105 25.6927 46.1051 22.8649 46.7943C20.2997 47.4429 18.0576 48.9632 16.5225 51.0916L3.41358 43.4902L25.4503 30.6592L45.0228 42.0105C45.5682 42.3348 46.2752 42.1321 46.5781 41.5848C46.9013 41.0375 46.6993 40.3281 46.154 40.024L26.6421 28.7132V3.11186L48.7192 15.9024V42.8213L34.5599 51.0511Z" fill="white"/>
<path d="M27.5308 36.5983C25.6119 35.4835 23.1679 36.1524 22.057 38.0781C20.9461 40.0038 21.6126 42.4565 23.5315 43.5713C25.4504 44.6862 27.8944 44.0173 29.0053 42.0916C30.0961 40.1659 29.4497 37.7132 27.5308 36.5983ZM24.6828 41.5646C23.8547 41.0983 23.5719 40.0443 24.0567 39.2132C24.5212 38.3821 25.5716 38.0983 26.3997 38.5848C27.2278 39.051 27.5106 40.1051 27.0259 40.9362C26.5411 41.7673 25.4908 42.0511 24.6828 41.5646Z" fill="white"/>
</svg>
