<svg width="49" height="49" viewBox="0 0 49 49" fill="none" xmlns="http://www.w3.org/2000/svg">
<path d="M24.2251 17.4113C21.7418 17.4113 19.7314 15.4012 19.7314 12.918C19.7314 10.4349 21.7418 8.4248 24.2251 8.4248C26.7084 8.4248 28.7187 10.4349 28.7187 12.918C28.7187 15.3843 26.7084 17.4113 24.2251 17.4113ZM24.2251 11.2795C23.3297 11.2795 22.6033 12.0059 22.6033 12.9012C22.6033 13.7964 23.3297 14.5228 24.2251 14.5228C25.1204 14.5228 25.8469 13.7964 25.8469 12.9012C25.8469 12.0059 25.1204 11.2795 24.2251 11.2795Z" fill="white"/>
<path d="M14.5283 48.9822C13.7681 48.9822 13.0248 48.7795 12.366 48.4079L2.16236 42.5126C0.827778 41.7356 0 40.3167 0 38.7795V27.0059C0 25.4687 0.827778 24.0498 2.16236 23.2728L10.4401 18.5092C11.1328 18.1038 12.0112 18.3403 12.3998 19.0329C12.8052 19.7255 12.5687 20.6038 11.8761 20.9923L3.5983 25.7559C3.15907 26.0092 2.87188 26.4822 2.87188 27.0059V38.7795C2.87188 39.2863 3.14218 39.7592 3.5983 40.0295L13.8019 45.9248C14.2412 46.1782 14.7986 46.1782 15.2379 45.9248L23.4988 41.1444C24.1914 40.739 25.0698 40.9755 25.4584 41.668C25.8638 42.3606 25.6273 43.239 24.9347 43.6275L16.6738 48.391C16.015 48.7795 15.2717 48.9822 14.5283 48.9822Z" fill="white"/>
<path d="M33.9219 48.9822C33.1617 48.9822 32.4184 48.7795 31.7596 48.4079L23.4818 43.6275C22.7892 43.2221 22.5527 42.3606 22.9581 41.668C23.3636 40.9755 24.2251 40.739 24.9177 41.1444L33.1955 45.9248C33.6348 46.1782 34.1922 46.1782 34.6315 45.9248L44.8351 40.0295C45.2743 39.7761 45.5615 39.3032 45.5615 38.7795V27.0059C45.5615 26.4991 45.2912 26.0261 44.8351 25.7559L36.5742 20.9923C35.8816 20.5869 35.6451 19.7255 36.0505 19.0329C36.456 18.3403 37.3175 18.1038 38.0102 18.5092L46.271 23.2728C47.6056 24.0498 48.4334 25.4687 48.4334 27.0059V38.7795C48.4334 40.3167 47.6056 41.7356 46.271 42.5126L36.0674 48.4079C35.4255 48.7795 34.6821 48.9822 33.9219 48.9822Z" fill="white"/>
<path d="M11.1496 21.1951C10.3556 21.1951 9.71362 20.5532 9.71362 19.7593V10.1985C9.71362 8.66132 10.5414 7.2424 11.876 6.46537L22.0796 0.570101C23.4142 -0.190034 25.0529 -0.190034 26.3874 0.570101L36.5911 6.46537C37.9256 7.2424 38.7534 8.66132 38.7534 10.1985V19.7593C38.7534 20.5532 38.1115 21.1951 37.3175 21.1951C36.5235 21.1951 35.8815 20.5532 35.8815 19.7593V10.1985C35.8815 9.69172 35.6112 9.21875 35.1551 8.94848L24.9515 3.05321C24.5123 2.79983 23.9548 2.79983 23.5156 3.05321L13.3119 8.94848C12.8727 9.20186 12.5855 9.67483 12.5855 10.1985V19.7593C12.5855 20.5363 11.9436 21.1951 11.1496 21.1951Z" fill="white"/>
<path d="M20.8464 30.6546C20.593 30.6546 20.3565 30.587 20.12 30.4688L11.8591 25.7052C10.5246 24.9282 9.69678 23.5093 9.69678 21.9721V19.7593C9.69678 18.9654 10.3387 18.3235 11.1327 18.3235C11.9267 18.3235 12.5687 18.9654 12.5687 19.7593V21.9552C12.5687 22.462 12.839 22.935 13.2951 23.2052L21.556 27.9856C22.2486 28.3911 22.4851 29.2525 22.0797 29.9451C21.8431 30.3843 21.3701 30.6715 20.8464 30.6546Z" fill="white"/>
<path d="M27.6039 30.6715C26.8099 30.6715 26.168 30.0296 26.168 29.2357C26.168 28.7289 26.4383 28.2391 26.8944 27.9857L35.1722 23.2053C35.6114 22.9519 35.8986 22.4789 35.8986 21.9553V19.7425C35.8986 18.9485 36.5405 18.3066 37.3345 18.3066C38.1285 18.3066 38.7705 18.9485 38.7705 19.7425V21.9722C38.7705 23.5093 37.9427 24.9283 36.6081 25.7053L28.3303 30.4688C28.0938 30.6039 27.8573 30.6715 27.6039 30.6715Z" fill="white"/>
<path d="M24.225 24.8438C23.431 24.8438 22.7891 24.2019 22.7891 23.408C22.7891 22.9012 23.0594 22.4113 23.5155 22.158L31.7764 17.3944C33.1109 16.6343 34.7496 16.6343 36.0842 17.3944L38.0269 18.5093C38.7196 18.9147 38.9561 19.7762 38.5506 20.4688C38.1452 21.1613 37.2836 21.3978 36.591 20.9924L34.6482 19.8776C34.209 19.6242 33.6515 19.6242 33.2123 19.8776L24.9514 24.6411C24.7149 24.7762 24.4784 24.8438 24.225 24.8438Z" fill="white"/>
<path d="M24.2082 43.8134C23.9548 43.8134 23.7183 43.7458 23.4818 43.6276L21.5559 42.5127C20.2213 41.7357 19.4104 40.3167 19.3936 38.7796V29.2188C19.3936 28.4249 20.0355 27.783 20.8295 27.783C21.6235 27.783 22.2654 28.4249 22.2654 29.2188V38.7796C22.2654 39.2863 22.5357 39.7593 22.9919 40.0296L24.9177 41.1444C25.6103 41.5499 25.8468 42.4113 25.4414 43.1039C25.2049 43.5431 24.7319 43.8134 24.2082 43.8134Z" fill="white"/>
<path d="M24.225 43.8303C23.431 43.8303 22.7891 43.1884 22.7891 42.3944C22.7891 41.8877 23.0594 41.3978 23.5155 41.1444L25.4582 40.0296C25.8975 39.7762 26.1846 39.3032 26.1846 38.7796V29.2188C26.1846 28.4249 26.8266 27.783 27.6206 27.783C28.4146 27.783 29.0565 28.4249 29.0565 29.2188V38.7796C29.0565 40.3167 28.2287 41.7357 26.8942 42.5127L24.9514 43.6276C24.7149 43.7627 24.4784 43.8303 24.225 43.8303Z" fill="white"/>
<path d="M24.2251 24.8438C23.9717 24.8438 23.7352 24.7762 23.4987 24.658L15.2378 19.8776C14.7986 19.6242 14.2411 19.6242 13.8019 19.8776L11.876 20.9924C11.1834 21.3978 10.3049 21.1613 9.91636 20.4688C9.51092 19.7762 9.74743 18.8978 10.4401 18.5093L12.3659 17.3944C13.7005 16.6343 15.3392 16.6343 16.6737 17.3944L24.9346 22.1748C25.6272 22.5803 25.8638 23.4417 25.4583 24.1343C25.2218 24.5566 24.7319 24.8438 24.2251 24.8438Z" fill="white"/>
</svg>
