<svg width="164" height="50" viewBox="0 0 164 50" fill="none" xmlns="http://www.w3.org/2000/svg">
<path d="M60.3259 23.782H67.0636C71.141 23.782 74.3311 25.4256 74.3311 29.8935C74.3311 34.8124 70.4528 35.8715 66.3079 35.8715H64.0845V43.1891H60.3242V23.782H60.3259ZM67.0383 33.1671C69.3545 33.1671 70.6653 32.2127 70.6653 29.8664C70.6653 27.5202 69.2365 26.6316 67.0383 26.6316H64.0862V33.1671H67.0383Z" fill="white"/>
<path d="M76.8328 28.9914H80.2219V31.6553C81.175 29.7059 82.7236 28.7786 84.8813 28.7786V31.9205C82.1416 31.9205 80.2219 32.8225 80.2219 35.858V43.189H76.8328V28.9914Z" fill="white"/>
<path d="M93.6199 28.6875C97.9216 28.6875 101.231 31.7095 101.231 36.0574C101.231 40.4054 97.7496 43.4544 93.4731 43.4544C89.1967 43.4544 85.6895 40.4578 85.6895 36.1233C85.6895 31.7889 89.3569 28.6875 93.6199 28.6875ZM97.591 36.0845C97.591 33.473 96.2667 31.299 93.4866 31.299C90.7065 31.299 89.4885 33.5794 89.4885 36.1774C89.4885 38.7753 90.8263 40.8429 93.5659 40.8429C96.3055 40.8429 97.591 38.5625 97.591 36.0845Z" fill="white"/>
<path d="M101.641 45.7079C102.912 45.642 103.64 45.0592 103.64 43.7332V29.0187H107.03V43.6538C107.03 47.2062 104.872 48.2923 101.641 48.2923V45.7079ZM105.309 22.9866C106.407 22.9866 107.281 23.7957 107.281 24.9089C107.281 26.022 106.421 26.8447 105.309 26.8447C104.197 26.8447 103.296 26.022 103.296 24.9089C103.296 23.7957 104.211 22.9866 105.309 22.9866Z" fill="white"/>
<path d="M123.378 40.0997C122.2 42.6047 119.658 43.4544 117.05 43.4544C112.575 43.4544 109.756 40.4578 109.756 36.0439C109.756 31.8818 112.629 28.6875 116.891 28.6875C121.472 28.6875 123.71 31.3649 123.71 36.8395H113.212C113.212 39.2399 114.602 40.9882 117.183 40.9882C118.718 40.9882 119.99 40.3649 120.731 38.9206L123.38 40.0997H123.378ZM120.333 34.6115C120.227 32.4645 118.929 31.152 116.93 31.152C114.8 31.152 113.555 32.6503 113.263 34.6115H120.333Z" fill="white"/>
<path d="M139.065 39.1723C138.125 42.1419 135.477 43.4544 132.511 43.4544C128.01 43.4544 125.323 40.4324 125.323 36.0439C125.323 31.6554 128.327 28.6875 132.59 28.6875C135.463 28.6875 137.938 29.8936 138.984 32.6774L136.243 33.8834C135.674 32.2922 134.296 31.3784 132.589 31.3784C129.822 31.3784 128.803 33.7787 128.803 36.2162C128.803 38.6537 129.901 40.8818 132.643 40.8818C134.59 40.8818 135.9 39.8074 136.482 38.0321L139.063 39.1723H139.065Z" fill="white"/>
<path d="M148.768 43.0826C148.04 43.2955 147.286 43.4272 146.439 43.4272C143.738 43.4272 142.137 42.0218 142.137 39.1992V31.4847H140.231V28.9931H142.137V26.0641L145.526 24.5928V28.9931H148.65V31.4847H145.526V38.8951C145.526 40.0083 146.004 40.6975 147.247 40.6975C147.724 40.6975 148.252 40.5911 148.768 40.4188V43.0826Z" fill="white"/>
<path d="M152.925 38.9611C153.455 40.353 154.897 41.0152 156.434 41.0152C157.532 41.0152 158.897 40.6706 158.897 39.3311C158.897 37.9121 157.362 37.5811 155.614 37.2094C153.337 36.7331 150.783 36.1757 150.783 32.9932C150.783 30.0777 153.497 28.6858 156.065 28.6858C158.315 28.6858 160.884 29.5338 161.81 31.7753L159.295 32.8615C158.738 31.6013 157.348 31.125 156.184 31.125C155.02 31.125 153.973 31.576 153.973 32.728C153.973 34.027 155.363 34.3057 157.07 34.6368C159.386 35.0878 162.141 35.6182 162.141 38.9324C162.141 42.2466 159.347 43.4527 156.395 43.4527C153.894 43.4527 151.206 42.6047 150.319 40.0591L152.927 38.9594L152.925 38.9611Z" fill="white"/>
<path d="M60.3311 17.6402L66.5678 8.61659H60.962V6.83618H69.5031V7.72301L63.4182 16.7467H69.3276V18.5271H60.3327V17.6402H60.3311Z" fill="white"/>
<path d="M74.8288 9.79053C77.4199 9.79053 79.4139 11.6115 79.4139 14.2297C79.4139 16.848 77.317 18.6858 74.741 18.6858C72.165 18.6858 70.0513 16.8817 70.0513 14.2703C70.0513 11.6588 72.2595 9.79053 74.8288 9.79053ZM77.2209 14.2466C77.2209 12.674 76.4229 11.3649 74.7495 11.3649C73.076 11.3649 72.3405 12.7382 72.3405 14.3024C72.3405 15.8665 73.1452 17.1132 74.7967 17.1132C76.4482 17.1132 77.2209 15.7399 77.2209 14.2466Z" fill="white"/>
<path d="M80.8091 6.10132H82.8503V11.331C83.4002 10.2685 84.5254 9.79051 85.7046 9.79051C87.7459 9.79051 88.7665 11.228 88.7665 13.1756V18.5253H86.7084V13.375C86.7084 12.1452 86.0707 11.4746 84.8814 11.4746C83.574 11.4746 82.8486 12.2821 82.8486 13.5033V18.5253H80.8074V6.10132H80.8091Z" fill="white"/>
<path d="M94.7738 9.79053C97.365 9.79053 99.359 11.6115 99.359 14.2297C99.359 16.848 97.2621 18.6858 94.6861 18.6858C92.1101 18.6858 89.9963 16.8817 89.9963 14.2703C89.9963 11.6588 92.2046 9.79053 94.7738 9.79053ZM97.1659 14.2466C97.1659 12.674 96.368 11.3649 94.6945 11.3649C93.0211 11.3649 92.2856 12.7382 92.2856 14.3024C92.2856 15.8665 93.0902 17.1132 94.7418 17.1132C96.3933 17.1132 97.1659 15.7399 97.1659 14.2466Z" fill="white"/>
<path d="M19.8419 44.8969C19.4758 44.8969 19.1081 44.7567 18.828 44.4763L9.66444 35.3006C9.10437 34.7398 9.10437 33.831 9.66444 33.2702C10.2245 32.7094 11.1321 32.7094 11.6922 33.2702L20.8558 42.4459C21.4158 43.0067 21.4158 43.9155 20.8558 44.4763C20.5757 44.7567 20.2097 44.8969 19.8419 44.8969Z" fill="white"/>
<path d="M19.8538 28.2314C19.4878 28.2314 19.1217 28.0912 18.8417 27.8125L9.66626 18.6469C9.10619 18.0878 9.1045 17.179 9.66457 16.6165C10.223 16.0557 11.1322 16.054 11.6923 16.6148L20.8677 25.7804C21.4278 26.3395 21.4295 27.2483 20.8694 27.8108C20.5894 28.0912 20.2216 28.2331 19.8538 28.2331V28.2314Z" fill="white"/>
<path d="M19.8419 36.5692C19.4758 36.5692 19.1081 36.429 18.828 36.1486L9.68299 26.9915C9.12292 26.4307 9.12292 25.5219 9.68299 24.9611C10.2431 24.4003 11.1507 24.4003 11.7107 24.9611L20.8558 34.1182C21.4158 34.679 21.4158 35.5878 20.8558 36.1486C20.5757 36.429 20.2097 36.5692 19.8419 36.5692Z" fill="white"/>
<path d="M30.5255 34.1993C30.1594 34.1993 29.7916 34.0591 29.5116 33.7787C28.9515 33.2179 28.9515 32.3091 29.5116 31.7483L47.4019 13.8344C47.9619 13.2736 48.8695 13.2736 49.4296 13.8344C49.9897 14.3952 49.9897 15.304 49.4296 15.8648L31.5393 33.7787C31.2593 34.0591 30.8932 34.1993 30.5255 34.1993Z" fill="white"/>
<path d="M30.5272 25.8699C30.1611 25.8699 29.7934 25.7297 29.5133 25.4492C28.9532 24.8884 28.9532 23.9796 29.5133 23.4188L42.2313 10.684L40.1007 8.5506L31.5427 17.1199C30.9827 17.6807 30.0751 17.6807 29.515 17.1199C28.9549 16.559 28.9549 15.6503 29.515 15.0894L39.0852 5.50668C39.6233 4.96783 40.5747 4.96783 41.1129 5.50668L45.2713 9.67053C45.8313 10.2313 45.8313 11.1401 45.2713 11.7009L31.5394 25.4509C31.2593 25.7313 30.8933 25.8715 30.5255 25.8715L30.5272 25.8699Z" fill="white"/>
<path d="M19.8538 28.2312C19.4878 28.2312 19.12 28.091 18.84 27.8106C18.2799 27.2498 18.2799 26.341 18.84 25.7802L29.5151 15.091C30.0752 14.5302 30.9827 14.5302 31.5428 15.091C32.1029 15.6518 32.1029 16.5606 31.5428 17.1214L20.8677 27.8106C20.5877 28.091 20.2216 28.2312 19.8538 28.2312Z" fill="white"/>
<path d="M19.8419 36.5692C19.4758 36.5692 19.108 36.429 18.828 36.1486C18.2679 35.5878 18.2679 34.679 18.828 34.1182L29.5132 23.4189C30.0733 22.8581 30.9809 22.8581 31.541 23.4189C32.1011 23.9797 32.1011 24.8885 31.541 25.4493L20.8557 36.1486C20.5757 36.429 20.2096 36.5692 19.8419 36.5692Z" fill="white"/>
<path d="M19.8419 44.8969C19.4758 44.8969 19.108 44.7567 18.828 44.4763C18.2679 43.9155 18.2679 43.0067 18.828 42.4459L29.5116 31.7482C30.0716 31.1874 30.9792 31.1874 31.5393 31.7482C32.0994 32.3091 32.0994 33.2178 31.5393 33.7787L20.8557 44.4763C20.5757 44.7567 20.2096 44.8969 19.8419 44.8969Z" fill="white"/>
<path d="M10.6784 35.7211C10.3123 35.7211 9.94456 35.5809 9.66453 35.3005L1.34779 26.9728C1.07956 26.7042 0.927734 26.3377 0.927734 25.9576C0.927734 25.5775 1.07956 25.211 1.34779 24.9424L9.66453 16.6147C10.2246 16.0539 11.1322 16.0539 11.6923 16.6147C12.2523 17.1755 12.2523 18.0843 11.6923 18.6451L4.38939 25.9576L11.6923 33.2701C12.2523 33.8309 12.2523 34.7397 11.6923 35.3005C11.4122 35.5809 11.0462 35.7211 10.6784 35.7211Z" fill="white"/>
</svg>
