<svg width="52" height="59" viewBox="0 0 52 59" fill="none" xmlns="http://www.w3.org/2000/svg">
<path d="M51.2855 15.2534C51.2855 15.2331 51.2855 15.2331 51.2855 15.2128C51.2855 15.1926 51.2855 15.1723 51.2855 15.152C51.2855 15.1318 51.2855 15.1318 51.2855 15.1115C51.2855 15.0912 51.2855 15.0507 51.2652 15.0304C51.2652 15.0101 51.2652 15.0101 51.2652 14.9899C51.2652 14.9696 51.2449 14.9493 51.2449 14.9088V14.8885C51.2245 14.848 51.2245 14.8277 51.2042 14.8074C51.2042 14.8074 51.2042 14.7872 51.1839 14.7872C51.1636 14.7264 51.123 14.6655 51.0824 14.6047C51.0824 14.6047 51.0824 14.5845 51.0621 14.5845C51.0418 14.5642 51.0215 14.5236 51.0012 14.5034L50.9809 14.4831C50.9606 14.4628 50.9403 14.4426 50.92 14.4223L50.8997 14.402C50.8794 14.3818 50.8591 14.3615 50.8388 14.3412L50.8185 14.3209C50.7982 14.3007 50.7779 14.3007 50.7576 14.2804L50.7373 14.2601C50.7373 14.2601 50.7373 14.2601 50.717 14.2601L26.2112 0.152027C25.8458 -0.0506757 25.4194 -0.0506757 25.0539 0.152027L0.568485 14.2601C0.20303 14.4628 0 14.848 0 15.2534V43.4899C0 43.8953 0.223333 44.2804 0.568485 44.4831L25.0742 58.6115C25.0742 58.6115 25.0742 58.6115 25.0945 58.6115C25.1148 58.6115 25.1148 58.6318 25.1352 58.6318C25.1555 58.652 25.1758 58.652 25.1961 58.652C25.1961 58.652 25.2164 58.652 25.2164 58.6723C25.2367 58.6926 25.2773 58.6926 25.2976 58.7128C25.3179 58.7128 25.3179 58.7128 25.3382 58.7331C25.3585 58.7331 25.3788 58.7534 25.3991 58.7534H25.4194C25.46 58.7534 25.4803 58.7737 25.5209 58.7737H25.5412C25.5818 58.7737 25.6021 58.7737 25.6427 58.7737C25.6833 58.7737 25.7036 58.7737 25.7442 58.7737H25.7645C25.8052 58.7737 25.8255 58.7736 25.8661 58.7534H25.8864C25.9067 58.7534 25.927 58.7331 25.9473 58.7331C25.9676 58.7331 25.9676 58.7331 25.9879 58.7128C26.0082 58.7128 26.0488 58.6926 26.0691 58.6723C26.0691 58.6723 26.0894 58.6723 26.0894 58.652C26.1097 58.652 26.13 58.6318 26.1503 58.6318C26.1706 58.6318 26.1706 58.6115 26.1909 58.6115C26.1909 58.6115 26.1909 58.6115 26.2112 58.6115L50.717 44.5034C51.0824 44.3007 51.2855 43.9155 51.2855 43.5101V15.2534ZM26.8 30.0507L34.2715 25.7534V34.3682L26.8 38.6655V30.0507ZM25.6427 28.0642L10.5982 19.3885L19.5924 14.1993L25.0742 17.3615C25.257 17.4628 25.46 17.5236 25.6427 17.5236C25.8458 17.5236 26.0488 17.4628 26.2112 17.3615L38.5555 10.2466C38.6367 10.1858 38.7179 10.125 38.7991 10.0642L47.8339 15.2736L25.6427 28.0642ZM2.29424 15.9223L25.6427 2.46284L36.5455 8.74662L25.6427 15.0304L20.1609 11.8682C20.1609 11.8682 20.1406 11.8682 20.1406 11.848C20.1203 11.8277 20.1 11.8277 20.0797 11.8074C20.0594 11.8074 20.0391 11.7872 20.0391 11.7872C20.0188 11.7872 19.9985 11.7669 19.9782 11.7669C19.9579 11.7669 19.9376 11.7466 19.9173 11.7466C19.897 11.7466 19.897 11.7466 19.8767 11.7264C19.8564 11.7264 19.8361 11.7264 19.8158 11.7061C19.7955 11.7061 19.7955 11.7061 19.7752 11.7061C19.7548 11.7061 19.7345 11.7061 19.7142 11.7061C19.6939 11.7061 19.6736 11.7061 19.6736 11.7061C19.6533 11.7061 19.633 11.7061 19.6127 11.7061C19.5924 11.7061 19.5721 11.7061 19.5518 11.7061C19.5315 11.7061 19.5112 11.7061 19.5112 11.7061C19.4909 11.7061 19.4706 11.7061 19.4503 11.7061C19.43 11.7061 19.43 11.7061 19.4097 11.7061C19.3894 11.7061 19.3691 11.7061 19.3488 11.7264C19.3285 11.7264 19.3285 11.7264 19.3082 11.7466C19.2879 11.7466 19.2676 11.7669 19.2473 11.7669C19.227 11.7669 19.2067 11.7872 19.2067 11.7872C19.1864 11.7872 19.1661 11.8074 19.1458 11.8074C19.1255 11.8074 19.1052 11.8277 19.0848 11.848C19.0848 11.848 19.0645 11.848 19.0645 11.8682L8.30394 18.0507L5.98939 16.7128C5.44121 16.4088 4.73061 16.5912 4.42606 17.1588C4.10121 17.7061 4.30424 18.4155 4.85242 18.7196L7.73545 20.3818L24.4855 30.0304V55.6318L2.29424 42.8412V15.9223ZM26.8 55.6318V41.3209L35.9973 36.0304C36.3627 35.8277 36.5658 35.4426 36.5658 35.0372V24.4358L49.0115 17.2601V42.8615L26.8 55.6318Z" fill="white"/>
<path d="M41.1137 13.9561C40.7888 13.4088 40.0985 13.2263 39.5503 13.5304L25.6427 21.5371L18.8615 17.625C18.3134 17.3007 17.6027 17.5034 17.2982 18.0507C16.9937 18.598 17.1764 19.3074 17.7246 19.6115L25.0946 23.848C25.2773 23.9493 25.4803 24.0101 25.663 24.0101C25.8458 24.0101 26.0691 23.9493 26.2315 23.848L40.7076 15.4966C41.2355 15.2128 41.4385 14.5034 41.1137 13.9561Z" fill="white"/>
</svg>
