<svg width="42" height="50" viewBox="0 0 42 50" fill="none" xmlns="http://www.w3.org/2000/svg">
<path d="M20.6241 50C22.2763 50 23.6157 48.6877 23.6157 47.069C23.6157 45.4502 22.2763 44.1379 20.6241 44.1379C18.9719 44.1379 17.6326 45.4502 17.6326 47.069C17.6326 48.6877 18.9719 50 20.6241 50Z" fill="white"/>
<path d="M4.20578 13.6724C5.85797 13.6724 7.19734 12.3601 7.19734 10.7413C7.19734 9.12257 5.85797 7.8103 4.20578 7.8103C2.5536 7.8103 1.21423 9.12257 1.21423 10.7413C1.21423 12.3601 2.5536 13.6724 4.20578 13.6724Z" fill="white"/>
<path d="M27.0119 32.7587C28.6641 32.7587 30.0035 31.4464 30.0035 29.8276C30.0035 28.2089 28.6641 26.8966 27.0119 26.8966C25.3597 26.8966 24.0204 28.2089 24.0204 29.8276C24.0204 31.4464 25.3597 32.7587 27.0119 32.7587Z" fill="white"/>
<path d="M15.5385 45.4138C15.2393 45.4138 14.9226 45.3275 14.6586 45.1379C11.9838 43.2241 8.18277 40.0517 5.15603 35.7758C1.74214 30.931 0 25.6896 0 20.2069C0 18.7241 0.158376 17.2586 0.492726 15.8275C0.6687 15.0344 1.47818 14.5344 2.28766 14.7069C3.09714 14.8793 3.60746 15.6724 3.43149 16.4655C3.14993 17.6896 3.00915 18.9482 3.00915 20.2069C3.00915 25.0862 4.57531 29.7586 7.63725 34.1034C10.4176 38.0344 13.9547 40.9827 16.4359 42.7586C17.1046 43.2413 17.2454 44.1551 16.7527 44.8103C16.4711 45.2069 15.996 45.4138 15.5385 45.4138Z" fill="white"/>
<path d="M28.8068 42.9655C28.5957 42.9655 28.3669 42.9138 28.1557 42.8276C23.8268 40.8103 19.2339 37.5517 15.8904 34.069C11.5262 29.569 9.22098 24.8276 9.22098 20.3621C9.22098 17.3793 10.4 14.5862 12.5645 12.4655C14.729 10.3448 17.5797 9.18965 20.6241 9.18965C23.6684 9.18965 26.5192 10.3448 28.6837 12.4655C30.8481 14.569 32.0272 17.3793 32.0272 20.3621C32.0272 21.931 31.7632 23.5345 31.2353 25.1034C30.9889 25.8793 30.1266 26.2931 29.3524 26.0345C28.5605 25.7931 28.1381 24.9483 28.4021 24.1897C28.8244 22.9138 29.0532 21.6207 29.0532 20.3621C29.0532 15.8276 25.2874 12.1379 20.6593 12.1379C16.0312 12.1379 12.2125 15.8103 12.2125 20.3448C12.2125 22.931 13.2332 27.0345 18.0549 32.0345C20.9408 35.0172 24.8122 37.8448 28.5429 39.7241C31.1825 37.3448 33.3118 34.7586 34.9131 32.0517C37.1128 28.2931 38.239 24.3103 38.239 20.1897C38.239 15.569 36.4089 11.2414 33.083 7.98276C29.7571 4.72414 25.3226 2.93103 20.6241 2.93103C16.3127 2.93103 12.1597 4.48276 8.93942 7.27586C8.32351 7.81034 7.37325 7.75862 6.82774 7.15517C6.28222 6.55172 6.33501 5.62069 6.95092 5.08621C10.7168 1.7931 15.5736 0 20.6241 0C23.4044 0 26.1144 0.534483 28.6485 1.58621C31.1121 2.60345 33.3118 4.06897 35.1947 5.91379C37.0776 7.75862 38.5734 9.93103 39.6116 12.3276C40.6851 14.8103 41.2306 17.4655 41.2306 20.1897C41.2306 24.8276 39.9812 29.3103 37.5175 33.5172C35.617 36.7586 33.0302 39.7931 29.7923 42.5862C29.5107 42.8448 29.1588 42.9655 28.8068 42.9655Z" fill="white"/>
</svg>
