<svg width="49" height="49" viewBox="0 0 49 49" fill="none" xmlns="http://www.w3.org/2000/svg">
<path d="M48.3413 46.5203L42.5928 40.7601C44.3577 38.75 45.7864 36.5034 46.8285 34.0203C48.0892 30.9966 48.7447 27.8041 48.7447 24.4932C48.7447 21.1824 48.106 17.973 46.8285 14.9662C45.6015 12.0439 43.8366 9.42568 41.6011 7.17905C39.3655 4.93243 36.7602 3.15878 33.8523 1.92568C30.8436 0.641892 27.6668 0 24.3723 0C21.0779 0 17.8843 0.641892 14.8755 1.92568C11.9845 3.15878 9.37915 4.93243 7.12681 7.17905C4.87447 9.42568 3.14319 12.0439 1.91617 14.9662C0.638723 17.973 0 21.1824 0 24.4932C0 27.8041 0.638723 31.0135 1.91617 34.0203C3.14319 36.9426 4.90809 39.5608 7.14362 41.8074C9.37915 44.0541 11.9845 45.8277 14.8923 47.0608C17.8843 48.3446 21.0779 48.9865 24.3723 48.9865L47.3328 48.9696C47.9043 48.9696 48.4253 48.6149 48.6606 48.0743C48.8792 47.5507 48.7615 46.9257 48.3413 46.5203ZM24.3723 46.1149C21.4645 46.1149 18.6574 45.5405 16.0017 44.4088C13.4468 43.3277 11.144 41.7568 9.16064 39.7804C7.17723 37.8041 5.63085 35.4899 4.55511 32.9054C3.42894 30.2365 2.85745 27.4155 2.85745 24.4932C2.85745 21.5709 3.42894 18.75 4.55511 16.0811C5.63085 13.5135 7.19404 11.1993 9.16064 9.20608C11.144 7.21284 13.43 5.65878 16.0017 4.5777C18.6574 3.44595 21.4645 2.87162 24.3723 2.87162C27.2802 2.87162 30.0872 3.44595 32.743 4.5777C35.2979 5.65878 37.6006 7.22973 39.584 9.20608C41.5674 11.1993 43.1138 13.4966 44.1896 16.0811C45.3157 18.75 45.8872 21.5709 45.8872 24.4932C45.8872 27.4155 45.3157 30.2365 44.2064 32.8885C43.3155 35.0169 42.0885 36.9763 40.5757 38.7162L27.8349 25.9291H29.7343C30.5243 25.9291 31.163 25.2872 31.163 24.4932C31.163 23.6993 30.5243 23.0574 29.7343 23.0574H24.406C24.406 23.0574 24.406 23.0574 24.3891 23.0574C24.0194 23.0574 23.6496 23.1926 23.3638 23.4797C23.0277 23.8176 22.8932 24.3074 22.9604 24.7466V29.848C22.9604 30.6419 23.5991 31.2838 24.3891 31.2838C25.1791 31.2838 25.8179 30.6419 25.8179 29.848V27.973L43.887 46.098L24.3723 46.1149Z" fill="white"/>
<path d="M24.3723 34.1555C19.0777 34.1555 14.7579 29.8142 14.7579 24.4933C14.7579 19.1724 19.0777 14.8311 24.3723 14.8311C29.667 14.8311 33.9868 19.1724 33.9868 24.4933C33.9868 25.3379 33.886 26.1656 33.6674 26.9595C33.4657 27.7197 33.9196 28.5136 34.6928 28.7163C35.4492 28.919 36.2392 28.4629 36.4409 27.6859C36.7098 26.6386 36.8443 25.5744 36.8443 24.4764C36.8443 21.1318 35.55 17.973 33.1968 15.6082C30.8436 13.2433 27.7172 11.9426 24.3723 11.9426C21.0275 11.9426 17.9011 13.2433 15.5479 15.6082C13.1947 17.973 11.9172 21.1487 11.9172 24.4933C11.9172 27.8379 13.2115 30.9967 15.5647 33.3615C17.9179 35.7264 21.0443 37.0271 24.3892 37.0271C25.5153 37.0271 26.6247 36.8751 27.7004 36.5879C28.4568 36.3852 28.9106 35.5913 28.7089 34.8143C28.5072 34.0541 27.7172 33.598 26.944 33.8007C26.1036 34.0372 25.2464 34.1555 24.3723 34.1555Z" fill="white"/>
</svg>
