<svg width="52" height="59" viewBox="0 0 52 59" fill="none" xmlns="http://www.w3.org/2000/svg">
<path d="M50.5455 14.2601L26.1226 0.152027C25.7584 -0.0506757 25.3334 -0.0506757 24.9692 0.152027L0.566563 14.2601C0.202344 14.4628 0 14.848 0 15.2534V43.4899C0 43.8953 0.222578 44.2804 0.566563 44.4831L24.9692 58.6115C25.1513 58.7128 25.3537 58.7737 25.5358 58.7737C25.7381 58.7737 25.9405 58.7128 26.1023 58.6115L50.5252 44.5034C50.8895 44.3007 51.0918 43.9155 51.0918 43.5101V15.2736C51.112 14.848 50.8895 14.4628 50.5455 14.2601ZM25.556 2.46284L47.6722 15.2534L35.309 22.4088L26.1023 17.098C25.7381 16.8953 25.3132 16.8953 24.949 17.098L15.7626 22.4088L3.43984 15.2534L25.556 2.46284ZM2.28648 17.2601L15.2162 24.7196L24.4027 30.0304V55.6318L2.28648 42.8412V17.2601ZM43.2206 46.0845V30.1115L43.5444 30.4966C43.767 30.7601 44.0907 30.902 44.4145 30.902C44.6775 30.902 44.9405 30.8209 45.1631 30.6385C45.6487 30.2331 45.7095 29.5034 45.3048 29.0169L43.0183 26.3412C42.9576 26.2601 42.8969 26.1791 42.8362 26.1182C42.3708 25.6926 41.6423 25.7331 41.2174 26.1993L38.6881 28.9764C38.2632 29.4426 38.3037 30.1723 38.7691 30.598C38.9916 30.8007 39.2547 30.902 39.538 30.902C39.8415 30.902 40.1652 30.7804 40.3878 30.5169L40.9139 29.9291V47.402L35.0864 50.7669V44.1791L35.3899 44.5439C35.6125 44.8074 35.9362 44.9493 36.26 44.9493C36.523 44.9493 36.7861 44.8682 37.0087 44.6858C37.4943 44.2804 37.555 43.5507 37.1503 43.0642L34.9043 40.4088C34.8436 40.3277 34.7829 40.2466 34.7222 40.1858C34.2568 39.7601 33.5284 39.8007 33.1034 40.2669L30.5741 43.0439C30.1492 43.5101 30.1897 44.2399 30.6551 44.6655C30.8777 44.8682 31.1407 44.9696 31.424 44.9696C31.7275 44.9696 32.0512 44.848 32.2738 44.5845L32.8202 43.9966L32.7999 52.1047L26.6891 55.6318V29.3818C26.6891 29.3615 26.6891 29.3615 26.6891 29.3412C26.6891 29.3209 26.6891 29.3209 26.6891 29.3007C26.6487 28.8547 26.3856 28.4899 26.0012 28.3277L18.0895 23.7466L25.556 19.4291L33.0427 23.7466L28.9959 26.098C28.4495 26.4223 28.2674 27.1115 28.5709 27.6588C28.7733 28.0236 29.178 28.2264 29.5624 28.2264C29.7648 28.2264 29.9469 28.1858 30.129 28.0642L48.8255 17.2399V42.8209L43.2206 46.0845Z" fill="white"/>
</svg>
