<svg width="50" height="40" viewBox="0 0 50 40" fill="none" xmlns="http://www.w3.org/2000/svg">
<path d="M39.0229 39.2364C38.2267 39.2364 37.5844 38.5945 37.5844 37.7989C37.5844 37.0033 38.2267 36.3614 39.0229 36.3614C39.8141 36.3614 40.4565 35.7195 40.4565 34.929V7.1604C40.4565 6.36479 41.0989 5.7229 41.8951 5.7229C42.6913 5.7229 43.3337 6.36479 43.3337 7.1604V34.9273C43.3353 37.3057 41.4014 39.2364 39.0229 39.2364Z" fill="white"/>
<path d="M7.20483 33.4612C6.40862 33.4612 5.76624 32.8193 5.76624 32.0237V4.30912C5.76624 1.93243 7.70014 0 10.0786 0C10.8749 0 11.5172 0.641892 11.5172 1.4375C11.5172 2.23311 10.8749 2.875 10.0786 2.875C9.2875 2.875 8.64512 3.51689 8.64512 4.30743V32.022C8.64343 32.8193 8.00104 33.4612 7.20483 33.4612Z" fill="white"/>
<path d="M47.5852 2.88013H1.4386C0.642381 2.88013 0 2.23823 0 1.44263C0 0.647019 0.642381 0.00512695 1.4386 0.00512695H47.5835C48.3797 0.00512695 49.0221 0.647019 49.0221 1.44263C49.0221 2.23823 48.3814 2.88013 47.5852 2.88013Z" fill="white"/>
<path d="M47.5852 39.2466H1.4386C0.642381 39.2466 0 38.6047 0 37.8091C0 37.0135 0.642381 36.3716 1.4386 36.3716H47.5835C48.3797 36.3716 49.0221 37.0135 49.0221 37.8091C49.0221 38.6047 48.3814 39.2466 47.5852 39.2466Z" fill="white"/>
<path d="M19.6907 29.3919C19.4405 29.3919 19.192 29.3294 18.9705 29.1993C18.5242 28.9409 18.2504 28.4662 18.2504 27.9527V11.375C18.2504 10.8615 18.5242 10.3869 18.9705 10.1284C19.4168 9.86996 19.9628 9.86996 20.4091 10.1284L34.7849 18.4206C35.2312 18.6791 35.5051 19.1537 35.5051 19.6673C35.5051 20.1808 35.2312 20.6554 34.7849 20.9139L20.4091 29.201C20.1893 29.3294 19.9408 29.3919 19.6907 29.3919ZM21.1292 13.8666V25.4662L31.1876 19.6673L21.1292 13.8666Z" fill="white"/>
</svg>
