<svg width="52" height="59" viewBox="0 0 52 59" fill="none" xmlns="http://www.w3.org/2000/svg">
<path d="M36.2815 13.8244H12.1006C11.1464 13.8244 10.3749 13.0541 10.3749 12.1014C10.3749 11.1487 11.1464 10.3784 12.1006 10.3784H36.2815C37.2358 10.3784 38.0073 11.1487 38.0073 12.1014C38.0073 13.0541 37.2358 13.8244 36.2815 13.8244Z" fill="white"/>
<path d="M29.3379 22.4392H12.1006C11.1464 22.4392 10.3749 21.669 10.3749 20.7163C10.3749 19.7636 11.1464 18.9933 12.1006 18.9933H29.3379C30.2922 18.9933 31.0637 19.7636 31.0637 20.7163C31.0637 21.669 30.2922 22.4392 29.3379 22.4392Z" fill="white"/>
<path d="M44.3621 58.7838H7.49182C3.3703 58.7838 0 55.4392 0 51.3041V7.47973C0 3.3446 3.35 0 7.49182 0H44.3621C48.4836 0 51.8539 3.3446 51.8539 7.47973V36.6689C51.8539 37.6216 51.0824 38.3919 50.1282 38.3919C49.1739 38.3919 48.4024 37.6216 48.4024 36.6689V7.47973C48.4024 5.25 46.5955 3.44595 44.3621 3.44595H7.49182C5.25849 3.44595 3.45152 5.25 3.45152 7.47973V51.3041C3.45152 53.5338 5.25849 55.3378 7.49182 55.3378H44.3621C46.5955 55.3378 48.4024 53.5338 48.4024 51.3041V45.2635C48.4024 44.3108 49.1739 43.5405 50.1282 43.5405C51.0824 43.5405 51.8539 44.3108 51.8539 45.2635V51.3041C51.8539 55.4392 48.4836 58.7838 44.3621 58.7838Z" fill="white"/>
<path d="M51.1636 35.2905C50.4124 34.7027 49.3161 34.8648 48.7476 35.6148C48.7273 35.6351 47.2452 37.5405 45.357 39.081C44.5043 39.7702 42.3724 41.3108 41.1949 40.6216C39.8549 39.831 38.7585 39.3648 37.6621 39.6689C36.5455 39.9729 36.0379 40.8851 35.6521 41.5945C35.3273 42.1621 34.9821 42.8108 34.2512 43.5C34.2106 43.5405 34.17 43.5608 34.1497 43.581C33.8046 43.1959 33.3376 42.1418 33.1143 41.2297C32.9518 40.5405 32.3833 40.0337 31.693 39.9121C31.0027 39.8108 30.3124 40.1351 29.947 40.7432C28.7694 42.75 27.1452 45.2432 25.1149 46.6621C24.9118 46.804 24.5261 47.027 24.2418 46.8446C24.0591 46.7432 23.917 46.4797 23.9576 46.1351C24.2418 44.027 26.0691 40.9054 29.1349 37.3378C31.5915 34.4797 33.967 32.3108 33.9873 32.2905C34.5964 31.7432 34.7385 30.831 34.3121 30.1216C33.8858 29.4121 33.0127 29.1081 32.2412 29.3918C30.3937 30.0608 29.3379 30.5675 28.0182 31.2162C26.9015 31.7635 25.6427 32.3716 23.4906 33.2837C19.9782 34.7635 16.953 34.9864 15.7958 34.9054C15.7349 34.9054 15.6536 34.8851 15.5724 34.8851C14.6182 34.8851 13.8467 35.6554 13.8467 36.6081C13.8467 37.5 14.537 38.25 15.41 38.331C15.5724 38.3513 19.5315 38.7162 24.8306 36.4459C25.1149 36.3243 25.3788 36.2027 25.6427 36.1013C22.5973 39.8513 20.8715 43.0743 20.5264 45.6891C20.303 47.3513 21.0543 48.9527 22.4552 49.804C23.0846 50.1891 23.7749 50.3716 24.4855 50.3716C25.3788 50.3716 26.2721 50.0675 27.1249 49.4797C28.7288 48.3648 30.0688 46.8243 31.1652 45.2635C31.7743 46.1554 32.4646 46.7027 33.2767 46.9459C34.8197 47.4121 36.0582 46.5202 36.647 45.9527C37.7637 44.8986 38.3321 43.8648 38.6976 43.1959C38.7179 43.1756 38.7179 43.1554 38.7382 43.1148C38.9209 43.1959 39.1443 43.3175 39.4691 43.5202C40.3624 44.0473 41.8649 44.5337 43.9358 43.8243C45.0727 43.4391 46.2909 42.7297 47.5497 41.6959C49.8033 39.8716 51.5088 37.6621 51.5291 37.6418C52.0773 36.9527 51.9352 35.8783 51.1636 35.2905Z" fill="white"/>
</svg>
