<svg width="50" height="44" viewBox="0 0 50 44" fill="none" xmlns="http://www.w3.org/2000/svg">
<path d="M10.0636 34.6115H2.88017C1.2876 34.6115 0 33.3277 0 31.7399V2.87162C0 1.28378 1.2876 0 2.88017 0H37.6116C39.2041 0 40.4917 1.28378 40.4917 2.87162V10.0338C40.4917 10.8277 39.8479 11.4696 39.0517 11.4696C38.2554 11.4696 37.6116 10.8277 37.6116 10.0338V2.87162H2.88017V31.7399H10.0806C10.8769 31.7399 11.5207 32.3818 11.5207 33.1757C11.5037 33.9696 10.8599 34.6115 10.0636 34.6115Z" fill="white"/>
<path d="M15.5867 17.3818C16.251 17.3818 16.7896 16.8448 16.7896 16.1825C16.7896 15.5201 16.251 14.9832 15.5867 14.9832C14.9223 14.9832 14.3838 15.5201 14.3838 16.1825C14.3838 16.8448 14.9223 17.3818 15.5867 17.3818Z" fill="white"/>
<path d="M19.1956 17.3818C19.8599 17.3818 20.3985 16.8448 20.3985 16.1825C20.3985 15.5201 19.8599 14.9832 19.1956 14.9832C18.5312 14.9832 17.9927 15.5201 17.9927 16.1825C17.9927 16.8448 18.5312 17.3818 19.1956 17.3818Z" fill="white"/>
<path d="M22.7871 17.3818C23.4515 17.3818 23.99 16.8448 23.99 16.1825C23.99 15.5201 23.4515 14.9832 22.7871 14.9832C22.1228 14.9832 21.5842 15.5201 21.5842 16.1825C21.5842 16.8448 22.1228 17.3818 22.7871 17.3818Z" fill="white"/>
<path d="M46.7264 43.2095H27.5479C26.9041 43.2095 26.3111 42.9561 25.8537 42.5169L22.6516 39.3413C21.8554 38.5473 21.7198 37.2973 22.3297 36.3514L22.3806 36.2838C22.9396 35.4055 23.1091 34.3244 22.8211 33.294L22.8041 33.2433C22.533 32.2298 21.8384 31.3683 20.9235 30.8953L20.8558 30.8615C19.8562 30.3548 19.3479 29.1892 19.6359 28.125L20.6694 24.1386C20.9574 23.0575 21.9739 22.3142 23.1091 22.3649H23.1938C24.2273 22.4156 25.2607 22.0102 26.0062 21.2669L26.0401 21.2332C26.8025 20.473 27.2091 19.4595 27.1413 18.4122V18.3278C27.0905 17.2129 27.8359 16.1825 28.9202 15.8953L32.9016 14.8311C33.9859 14.544 35.138 15.0507 35.6632 16.0473L35.6971 16.1149C36.1715 17.044 37.0355 17.7196 38.069 17.9899L38.1198 18.0068C39.1363 18.2771 40.2376 18.1082 41.1186 17.5507L41.8471 17.0946C42.5078 16.6723 43.4058 16.8582 43.8293 17.5169C44.2529 18.1757 44.0665 19.071 43.4058 19.4933L42.6772 19.9494C41.1186 20.946 39.1872 21.25 37.3744 20.7602H37.3574H37.3405C35.6293 20.3041 34.1723 19.1892 33.2913 17.6859L30.0553 18.5642C30.0553 20.3041 29.3607 21.9933 28.107 23.2433L28.0731 23.2771C26.8363 24.5271 25.1421 25.2196 23.3971 25.2196L22.533 28.4629C24.0409 29.3244 25.1591 30.7771 25.6165 32.4832L25.6335 32.5169C26.1078 34.223 25.8706 36.0473 24.9896 37.5507L27.7851 40.321H46.252V11.4696H11.5206V40.3379H20.1273C20.9235 40.3379 21.5673 40.9798 21.5673 41.7737C21.5673 42.5676 20.9235 43.2095 20.1273 43.2095H11.0293C9.70783 43.2095 8.62354 42.1284 8.62354 40.8109V10.9967C8.64048 9.66221 9.70783 8.59802 11.0293 8.59802H46.7264C48.0479 8.59802 49.1322 9.6791 49.1322 10.9967V40.8277C49.1322 42.1284 48.0479 43.2095 46.7264 43.2095Z" fill="white"/>
<path d="M34.8501 35.6587C34.3757 35.6587 33.8844 35.5912 33.393 35.4729C30.3773 34.679 28.5815 31.5878 29.3947 28.581C30.191 25.5743 33.2914 23.7837 36.3071 24.5946C39.3228 25.4054 41.1187 28.4797 40.3054 31.4864C39.6447 33.9864 37.3575 35.6587 34.8501 35.6587ZM34.867 27.2635C33.6472 27.2635 32.512 28.0743 32.1901 29.3074C31.8005 30.777 32.6815 32.2973 34.1554 32.6858C35.6294 33.0743 37.1542 32.1959 37.5439 30.7263C37.9335 29.2567 37.0525 27.7364 35.5786 27.3479C35.3414 27.2973 35.0873 27.2635 34.867 27.2635Z" fill="white"/>
</svg>
