<svg width="50" height="49" viewBox="0 0 50 49" fill="none" xmlns="http://www.w3.org/2000/svg">
<path d="M31.1478 37.3835C30.98 37.3835 30.8071 37.3548 30.6376 37.2872L22.9129 34.3582C22.1671 34.0761 21.7975 33.2467 22.0755 32.5034C22.3586 31.7602 23.1909 31.3919 23.9368 31.669L31.6665 34.598C32.4124 34.8801 32.7819 35.7095 32.5039 36.4528C32.2785 37.0322 31.731 37.3835 31.1478 37.3835Z" fill="white"/>
<path d="M31.1478 37.3835C30.98 37.3835 30.8071 37.3548 30.6376 37.2872L22.9129 34.3582C22.1671 34.0761 21.7975 33.2467 22.0755 32.5034C22.3586 31.7602 23.1909 31.3919 23.9368 31.669L31.6665 34.598C32.4124 34.8801 32.7819 35.7095 32.5039 36.4528C32.2785 37.0322 31.731 37.3835 31.1478 37.3835Z" fill="white"/>
<path d="M39.1523 48.9493C33.6347 48.9493 29.1477 44.478 29.1477 38.9797C29.1477 33.4814 33.6347 29.0101 39.1523 29.0101C44.6699 29.0101 49.1569 33.4814 49.1569 38.9797C49.1569 44.478 44.6699 48.9493 39.1523 48.9493ZM39.1523 31.8851C35.2281 31.8851 32.0328 35.0676 32.0328 38.9797C32.0328 42.8919 35.2264 46.0743 39.1523 46.0743C43.0765 46.0743 46.2718 42.8919 46.2718 38.9797C46.2718 35.0676 43.0816 31.8851 39.1523 31.8851Z" fill="white"/>
<path d="M39.1523 48.9493C33.6347 48.9493 29.1477 44.478 29.1477 38.9797C29.1477 33.4814 33.6347 29.0101 39.1523 29.0101C44.6699 29.0101 49.1569 33.4814 49.1569 38.9797C49.1569 44.478 44.6699 48.9493 39.1523 48.9493ZM39.1523 31.8851C35.2281 31.8851 32.0328 35.0676 32.0328 38.9797C32.0328 42.8919 35.2264 46.0743 39.1523 46.0743C43.0765 46.0743 46.2718 42.8919 46.2718 38.9797C46.2718 35.0676 43.0816 31.8851 39.1523 31.8851Z" fill="white"/>
<path d="M47.1567 43.451C46.9888 43.451 46.8159 43.4222 46.6464 43.3547L38.6421 40.3209C38.0844 40.1097 37.7131 39.5726 37.7131 38.978V30.5371C37.7131 29.7466 38.3573 29.0996 39.1557 29.0996C39.9541 29.0996 40.5982 29.7415 40.5982 30.5371V37.9898L47.6737 40.6739C48.4195 40.956 48.7891 41.7854 48.5111 42.5287C48.2873 43.1013 47.7381 43.451 47.1567 43.451Z" fill="white"/>
<path d="M47.1567 43.451C46.9888 43.451 46.8159 43.4222 46.6464 43.3547L38.6421 40.3209C38.0844 40.1097 37.7131 39.5726 37.7131 38.978V30.5371C37.7131 29.7466 38.3573 29.0996 39.1557 29.0996C39.9541 29.0996 40.5982 29.7415 40.5982 30.5371V37.9898L47.6737 40.6739C48.4195 40.956 48.7891 41.7854 48.5111 42.5287C48.2873 43.1013 47.7381 43.451 47.1567 43.451Z" fill="white"/>
<path d="M22.0045 23.7939C21.557 23.7939 21.1196 23.5878 20.8348 23.1993C20.3687 22.5574 20.5128 21.6605 21.1569 21.1959L28.073 16.2061C28.7171 15.7415 29.6173 15.8851 30.0834 16.527C30.5496 17.1689 30.4055 18.0659 29.7613 18.5304L22.8486 23.5203C22.5961 23.7027 22.2977 23.7939 22.0045 23.7939Z" fill="white"/>
<path d="M22.0045 23.7939C21.557 23.7939 21.1196 23.5878 20.8348 23.1993C20.3687 22.5574 20.5128 21.6605 21.1569 21.1959L28.073 16.2061C28.7171 15.7415 29.6173 15.8851 30.0834 16.527C30.5496 17.1689 30.4055 18.0659 29.7613 18.5304L22.8486 23.5203C22.5961 23.7027 22.2977 23.7939 22.0045 23.7939Z" fill="white"/>
<path d="M12.7982 41.75C9.37741 41.75 6.16516 40.4223 3.74622 38.0118C1.33237 35.6064 0 32.4037 0 28.9966C0 25.5895 1.33237 22.3868 3.75131 19.9763C6.17024 17.5659 9.3842 16.2382 12.8033 16.2382C16.2223 16.2382 19.4363 17.5659 21.8552 19.9763C24.2741 22.3868 25.6065 25.5895 25.6065 28.9966C25.6065 32.4037 24.2741 35.6064 21.8552 38.0169C19.4363 40.4257 16.2189 41.75 12.7982 41.75ZM12.7982 19.1115C7.32971 19.1115 2.88001 23.5456 2.88001 28.9949C2.88001 34.4442 7.32971 38.8784 12.7982 38.8784C18.2666 38.8784 22.7214 34.4442 22.7214 28.9949C22.7214 23.5456 18.2717 19.1115 12.7982 19.1115Z" fill="white"/>
<path d="M12.7982 41.75C9.37741 41.75 6.16516 40.4223 3.74622 38.0118C1.33237 35.6064 0 32.4037 0 28.9966C0 25.5895 1.33237 22.3868 3.75131 19.9763C6.17024 17.5659 9.3842 16.2382 12.8033 16.2382C16.2223 16.2382 19.4363 17.5659 21.8552 19.9763C24.2741 22.3868 25.6065 25.5895 25.6065 28.9966C25.6065 32.4037 24.2741 35.6064 21.8552 38.0169C19.4363 40.4257 16.2189 41.75 12.7982 41.75ZM12.7982 19.1115C7.32971 19.1115 2.88001 23.5456 2.88001 28.9949C2.88001 34.4442 7.32971 38.8784 12.7982 38.8784C18.2666 38.8784 22.7214 34.4442 22.7214 28.9949C22.7214 23.5456 18.2717 19.1115 12.7982 19.1115Z" fill="white"/>
<path d="M9.65202 32.6807C9.20451 32.6807 8.76208 32.4746 8.479 32.0811C8.01792 31.4392 8.16201 30.5371 8.81124 30.0777L11.3607 28.2567V23.603C11.3607 22.8125 12.0048 22.1655 12.8033 22.1655C13.6017 22.1655 14.2458 22.8074 14.2458 23.603V28.9949C14.2458 29.4594 14.0203 29.8919 13.644 30.1638L10.4928 32.4172C10.2351 32.5946 9.94019 32.6807 9.65202 32.6807Z" fill="white"/>
<path d="M9.65202 32.6807C9.20451 32.6807 8.76208 32.4746 8.479 32.0811C8.01792 31.4392 8.16201 30.5371 8.81124 30.0777L11.3607 28.2567V23.603C11.3607 22.8125 12.0048 22.1655 12.8033 22.1655C13.6017 22.1655 14.2458 22.8074 14.2458 23.603V28.9949C14.2458 29.4594 14.0203 29.8919 13.644 30.1638L10.4928 32.4172C10.2351 32.5946 9.94019 32.6807 9.65202 32.6807Z" fill="white"/>
<path d="M35.0501 21.924C30.0868 21.924 26.0457 17.8969 26.0457 12.951C26.0457 8.00505 30.0868 3.97803 35.0501 3.97803C40.0135 3.97803 44.0546 8.00505 44.0546 12.951C44.0546 17.8969 40.0185 21.924 35.0501 21.924ZM35.0501 6.84965C31.6735 6.84965 28.9274 9.58614 28.9274 12.951C28.9274 16.3159 31.6735 19.0524 35.0501 19.0524C38.4268 19.0524 41.1729 16.3108 41.1729 12.951C41.1729 9.5912 38.4268 6.84965 35.0501 6.84965Z" fill="white"/>
<path d="M35.0501 21.924C30.0868 21.924 26.0457 17.8969 26.0457 12.951C26.0457 8.00505 30.0868 3.97803 35.0501 3.97803C40.0135 3.97803 44.0546 8.00505 44.0546 12.951C44.0546 17.8969 40.0185 21.924 35.0501 21.924ZM35.0501 6.84965C31.6735 6.84965 28.9274 9.58614 28.9274 12.951C28.9274 16.3159 31.6735 19.0524 35.0501 19.0524C38.4268 19.0524 41.1729 16.3108 41.1729 12.951C41.1729 9.5912 38.4268 6.84965 35.0501 6.84965Z" fill="white"/>
<path d="M27.9779 11.7061C27.8101 11.7061 27.6372 11.6774 27.4677 11.6098L19.5074 8.59462C18.7616 8.31252 18.392 7.48313 18.67 6.73989C18.9531 5.99664 19.7854 5.6284 20.5313 5.90543L28.4916 8.92063C29.2374 9.20272 29.607 10.0321 29.329 10.7754C29.1086 11.3564 28.5611 11.7061 27.9779 11.7061Z" fill="white"/>
<path d="M27.9779 11.7061C27.8101 11.7061 27.6372 11.6774 27.4677 11.6098L19.5074 8.59462C18.7616 8.31252 18.392 7.48313 18.67 6.73989C18.9531 5.99664 19.7854 5.6284 20.5313 5.90543L28.4916 8.92063C29.2374 9.20272 29.607 10.0321 29.329 10.7754C29.1086 11.3564 28.5611 11.7061 27.9779 11.7061Z" fill="white"/>
<path d="M15.9866 11.4611C12.8168 11.4611 10.2334 8.89189 10.2334 5.72804C10.2334 2.56419 12.8168 0 15.9866 0C19.1565 0 21.7399 2.56926 21.7399 5.72804C21.7399 8.88682 19.1565 11.4611 15.9866 11.4611ZM15.9866 2.87162C14.4034 2.87162 13.1202 4.15203 13.1202 5.72804C13.1202 7.30405 14.4051 8.58446 15.9866 8.58446C17.5682 8.58446 18.8531 7.30405 18.8531 5.72804C18.8531 4.15203 17.5699 2.87162 15.9866 2.87162Z" fill="white"/>
<path d="M15.9866 11.4611C12.8168 11.4611 10.2334 8.89189 10.2334 5.72804C10.2334 2.56419 12.8168 0 15.9866 0C19.1565 0 21.7399 2.56926 21.7399 5.72804C21.7399 8.88682 19.1565 11.4611 15.9866 11.4611ZM15.9866 2.87162C14.4034 2.87162 13.1202 4.15203 13.1202 5.72804C13.1202 7.30405 14.4051 8.58446 15.9866 8.58446C17.5682 8.58446 18.8531 7.30405 18.8531 5.72804C18.8531 4.15203 17.5699 2.87162 15.9866 2.87162Z" fill="white"/>
</svg>
