<svg width="49" height="49" viewBox="0 0 49 49" fill="none" xmlns="http://www.w3.org/2000/svg">
<path d="M24.3983 9.56757C21.7682 9.56757 19.6238 7.41892 19.6238 4.78378C19.6238 2.14865 21.7666 0 24.3983 0C27.0299 0 29.1727 2.14865 29.1727 4.78378C29.1727 7.41892 27.0283 9.56757 24.3983 9.56757ZM24.3983 2.86993C23.3429 2.86993 22.4881 3.72635 22.4881 4.78378C22.4881 5.84122 23.3429 6.69764 24.3983 6.69764C25.4536 6.69764 26.3084 5.84122 26.3084 4.78378C26.3084 3.72635 25.4536 2.86993 24.3983 2.86993Z" fill="white"/>
<path d="M24.3983 9.56757C21.7682 9.56757 19.6238 7.41892 19.6238 4.78378C19.6238 2.14865 21.7666 0 24.3983 0C27.0299 0 29.1727 2.14865 29.1727 4.78378C29.1727 7.41892 27.0283 9.56757 24.3983 9.56757ZM24.3983 2.86993C23.3429 2.86993 22.4881 3.72635 22.4881 4.78378C22.4881 5.84122 23.3429 6.69764 24.3983 6.69764C25.4536 6.69764 26.3084 5.84122 26.3084 4.78378C26.3084 3.72635 25.4536 2.86993 24.3983 2.86993Z" fill="white"/>
<path d="M44.0121 23.9713C41.3771 23.9713 39.2275 21.8226 39.2275 19.1773C39.2275 16.5321 41.372 14.3834 44.0121 14.3834C46.6472 14.3834 48.7967 16.5321 48.7967 19.1773C48.7967 21.8226 46.6523 23.9713 44.0121 23.9713ZM44.0121 17.2601C42.9568 17.2601 42.0936 18.1216 42.0936 19.1824C42.0936 20.2432 42.9534 21.1047 44.0121 21.1047C45.0675 21.1047 45.9307 20.2432 45.9307 19.1824C45.9307 18.1216 45.0709 17.2601 44.0121 17.2601Z" fill="white"/>
<path d="M44.0121 23.9713C41.3771 23.9713 39.2275 21.8226 39.2275 19.1773C39.2275 16.5321 41.372 14.3834 44.0121 14.3834C46.6472 14.3834 48.7967 16.5321 48.7967 19.1773C48.7967 21.8226 46.6523 23.9713 44.0121 23.9713ZM44.0121 17.2601C42.9568 17.2601 42.0936 18.1216 42.0936 19.1824C42.0936 20.2432 42.9534 21.1047 44.0121 21.1047C45.0675 21.1047 45.9307 20.2432 45.9307 19.1824C45.9307 18.1216 45.0709 17.2601 44.0121 17.2601Z" fill="white"/>
<path d="M36.4914 46.6859C33.8563 46.6859 31.7068 44.5372 31.7068 41.8919C31.7068 39.2517 33.8513 37.098 36.4914 37.098C39.1264 37.098 41.276 39.2467 41.276 41.8919C41.276 44.5372 39.1315 46.6859 36.4914 46.6859ZM36.4914 39.973C35.436 39.973 34.5728 40.8345 34.5728 41.8953C34.5728 42.9528 35.4326 43.8176 36.4914 43.8176C37.5468 43.8176 38.4099 42.9561 38.4099 41.8953C38.4099 40.8345 37.5518 39.973 36.4914 39.973Z" fill="white"/>
<path d="M12.4133 46.7855C9.77819 46.7855 7.62866 44.6368 7.62866 41.9915C7.62866 39.3513 9.77313 37.1976 12.4133 37.1976C15.0534 37.1976 17.1978 39.3463 17.1978 41.9915C17.1928 44.6385 15.05 46.7855 12.4133 46.7855ZM12.4133 40.0743C11.3579 40.0743 10.4947 40.9358 10.4947 41.9966C10.4947 43.054 11.3545 43.9189 12.4133 43.9189C13.4737 43.9189 14.3318 43.0574 14.3318 41.9966C14.3284 40.9358 13.4686 40.0743 12.4133 40.0743Z" fill="white"/>
<path d="M12.4133 46.7855C9.77819 46.7855 7.62866 44.6368 7.62866 41.9915C7.62866 39.3513 9.77313 37.1976 12.4133 37.1976C15.0534 37.1976 17.1978 39.3463 17.1978 41.9915C17.1928 44.6385 15.05 46.7855 12.4133 46.7855ZM12.4133 40.0743C11.3579 40.0743 10.4947 40.9358 10.4947 41.9966C10.4947 43.054 11.3545 43.9189 12.4133 43.9189C13.4737 43.9189 14.3318 43.0574 14.3318 41.9966C14.3284 40.9358 13.4686 40.0743 12.4133 40.0743Z" fill="white"/>
<path d="M4.78459 23.9476C2.14447 23.9476 0 21.799 0 19.1588C0 16.5186 2.14447 14.3649 4.78459 14.3649C7.42471 14.3649 9.56918 16.5135 9.56918 19.1588C9.56918 21.8041 7.41965 23.9476 4.78459 23.9476ZM4.78459 17.2365C3.72922 17.2365 2.86603 18.098 2.86603 19.1588C2.86603 20.2196 3.72584 21.0811 4.78459 21.0811C5.84334 21.0811 6.70315 20.2196 6.70315 19.1588C6.70315 18.098 5.83996 17.2365 4.78459 17.2365Z" fill="white"/>
<path d="M4.78459 23.9476C2.14447 23.9476 0 21.799 0 19.1588C0 16.5186 2.14447 14.3649 4.78459 14.3649C7.42471 14.3649 9.56918 16.5135 9.56918 19.1588C9.56918 21.8041 7.41965 23.9476 4.78459 23.9476ZM4.78459 17.2365C3.72922 17.2365 2.86603 18.098 2.86603 19.1588C2.86603 20.2196 3.72584 21.0811 4.78459 21.0811C5.84334 21.0811 6.70315 20.2196 6.70315 19.1588C6.70315 18.098 5.83996 17.2365 4.78459 17.2365Z" fill="white"/>
<path d="M8.61338 29.1722C8.20707 29.1722 7.80246 28.9999 7.51923 28.6655C7.0084 28.0574 7.08426 27.1537 7.69119 26.6418L13.43 21.782L9.98402 7.73474C9.79351 6.96447 10.2656 6.18913 11.0343 5.99826C11.8031 5.80738 12.5769 6.28035 12.7674 7.05062L16.4242 21.9577C16.5523 22.4881 16.3719 23.0439 15.9555 23.3969L9.53556 28.8327C9.26751 29.0574 8.93876 29.1722 8.61338 29.1722Z" fill="white"/>
<path d="M21.7718 42.5338C21.2087 42.5338 20.6742 42.1994 20.445 41.6386L17.6177 34.7028L3.21841 33.6403C2.43109 33.5828 1.83934 32.8936 1.89666 32.1048C1.95398 31.3159 2.64183 30.723 3.42914 30.7805L18.7169 31.9055C19.2614 31.9443 19.7335 32.2889 19.9392 32.7957L23.1002 40.5592C23.4003 41.2906 23.048 42.1335 22.318 42.4291C22.1342 42.495 21.9488 42.5338 21.7718 42.5338Z" fill="white"/>
<path d="M21.7718 42.5338C21.2087 42.5338 20.6742 42.1994 20.445 41.6386L17.6177 34.7028L3.21841 33.6403C2.43109 33.5828 1.83934 32.8936 1.89666 32.1048C1.95398 31.3159 2.64183 30.723 3.42914 30.7805L18.7169 31.9055C19.2614 31.9443 19.7335 32.2889 19.9392 32.7957L23.1002 40.5592C23.4003 41.2906 23.048 42.1335 22.318 42.4291C22.1342 42.495 21.9488 42.5338 21.7718 42.5338Z" fill="white"/>
<path d="M24.3983 48.9864C24.2163 48.9864 24.0359 48.9526 23.8588 48.8817C23.1288 48.581 22.7748 47.7432 23.0766 47.0118L28.8626 32.7939C29.0683 32.2871 29.5403 31.9425 30.0849 31.9037L38.4065 31.2922C39.1938 31.2347 39.8817 31.8276 39.939 32.6165C39.9963 33.4053 39.4045 34.0945 38.6172 34.152L31.179 34.6976L25.7268 48.0928C25.4959 48.652 24.9614 48.9864 24.3983 48.9864Z" fill="white"/>
<path d="M24.3983 48.9864C24.2163 48.9864 24.0359 48.9526 23.8588 48.8817C23.1288 48.581 22.7748 47.7432 23.0766 47.0118L28.8626 32.7939C29.0683 32.2871 29.5403 31.9425 30.0849 31.9037L38.4065 31.2922C39.1938 31.2347 39.8817 31.8276 39.939 32.6165C39.9963 33.4053 39.4045 34.0945 38.6172 34.152L31.179 34.6976L25.7268 48.0928C25.4959 48.652 24.9614 48.9864 24.3983 48.9864Z" fill="white"/>
<path d="M45.4721 33.6453C45.1467 33.6453 44.818 33.5355 44.5499 33.3058L32.8379 23.3987C32.4232 23.044 32.2411 22.4899 32.3693 21.9595L34.3704 13.8024C34.5609 13.0321 35.3348 12.5642 36.1035 12.75C36.8723 12.9409 37.3393 13.7162 37.1539 14.4865L35.3634 21.7771L46.3926 31.1098C46.9995 31.6217 47.0703 32.5254 46.5646 33.1335C46.2847 33.473 45.8784 33.6453 45.4721 33.6453Z" fill="white"/>
<path d="M45.4721 33.6453C45.1467 33.6453 44.818 33.5355 44.5499 33.3058L32.8379 23.3987C32.4232 23.044 32.2411 22.4899 32.3693 21.9595L34.3704 13.8024C34.5609 13.0321 35.3348 12.5642 36.1035 12.75C36.8723 12.9409 37.3393 13.7162 37.1539 14.4865L35.3634 21.7771L46.3926 31.1098C46.9995 31.6217 47.0703 32.5254 46.5646 33.1335C46.2847 33.473 45.8784 33.6453 45.4721 33.6453Z" fill="white"/>
<path d="M24.3983 16.9155C24.1353 16.9155 23.8723 16.8445 23.6447 16.701L16.5488 12.2939C15.8761 11.8783 15.6704 10.9932 16.0851 10.3175C16.4999 9.64353 17.3833 9.43745 18.0576 9.85299L24.3983 13.7905L36.6683 6.17055C37.341 5.75501 38.2244 5.95941 38.6408 6.63508C39.0555 7.30907 38.8516 8.1942 38.1772 8.61143L25.1519 16.701C24.9226 16.8445 24.6596 16.9155 24.3983 16.9155Z" fill="white"/>
<path d="M24.3983 16.9155C24.1353 16.9155 23.8723 16.8445 23.6447 16.701L16.5488 12.2939C15.8761 11.8783 15.6704 10.9932 16.0851 10.3175C16.4999 9.64353 17.3833 9.43745 18.0576 9.85299L24.3983 13.7905L36.6683 6.17055C37.341 5.75501 38.2244 5.95941 38.6408 6.63508C39.0555 7.30907 38.8516 8.1942 38.1772 8.61143L25.1519 16.701C24.9226 16.8445 24.6596 16.9155 24.3983 16.9155Z" fill="white"/>
</svg>
