<svg width="43" height="49" viewBox="0 0 43 49" fill="none" xmlns="http://www.w3.org/2000/svg">
<path d="M42.7046 12.7111C42.7046 12.3902 42.5187 12.0524 42.2314 11.8834L21.8344 0.126689C21.5302 -0.0422297 21.1753 -0.0422297 20.8711 0.126689L0.474085 11.8834C0.203701 12.0524 -0.015985 12.3564 0.000913952 12.7111V36.2416C0.000913952 36.5794 0.186802 36.9003 0.474085 37.0693L20.8711 48.8429C21.1246 48.9949 21.4964 49.0287 21.8344 48.8429L42.2314 37.0861C42.5356 36.9172 42.7046 36.5963 42.7046 36.2584V12.7111ZM21.3443 2.05236L39.8148 12.7111L29.5065 18.6571L23.4736 15.1943C24.1833 14.5861 24.6396 13.6909 24.6396 12.6774C24.6396 10.853 23.1525 9.38345 21.3443 9.38345C19.5361 9.38345 18.049 10.8699 18.049 12.6774C18.049 13.6909 18.5053 14.603 19.2319 15.2111L13.2159 18.6909L2.87374 12.728L21.3443 2.05236ZM10.36 29.0963C10.5966 28.9611 10.85 28.8936 11.1035 28.8936C11.6274 28.8936 12.1175 29.1639 12.4047 29.6368C12.8103 30.3463 12.5737 31.2753 11.864 31.6807C11.1542 32.0861 10.2248 31.8497 9.81921 31.1402C9.61642 30.8024 9.56572 30.397 9.66712 30.0084C9.76851 29.6199 10.022 29.299 10.36 29.0963ZM21.3274 14.1639C20.4993 14.1639 19.8234 13.4882 19.8234 12.6605C19.8234 11.8328 20.4993 11.1571 21.3274 11.1571C22.1554 11.1571 22.8314 11.8328 22.8314 12.6605C22.8314 13.4882 22.1554 14.1639 21.3274 14.1639ZM21.3443 16.174L27.58 19.772L21.3443 23.3699L15.1086 19.772L21.3443 16.174ZM22.3075 25.0422L28.5432 21.4443V28.6402L22.3075 32.2382V25.0422ZM1.9105 14.3834L12.2189 20.3294V27.2889C12.1344 27.2551 12.033 27.2382 11.9485 27.2044C11.0866 26.9848 10.2079 27.0861 9.44743 27.5422C8.68698 27.9814 8.12931 28.6909 7.90962 29.5524C7.68994 30.397 7.79133 31.2922 8.2476 32.0524C8.68698 32.8125 9.39673 33.3699 10.2586 33.5895C10.5459 33.674 10.8331 33.7078 11.1204 33.7078C11.695 33.7078 12.2696 33.5557 12.7765 33.2686C13.6553 32.7618 14.2129 31.9172 14.365 30.9882L17.3223 32.6943C17.4744 32.7787 17.6434 32.8294 17.7955 32.8294C18.1335 32.8294 18.4546 32.6605 18.6236 32.3564C18.8939 31.9003 18.725 31.3091 18.2687 31.0389L14.1284 28.6571V21.4443L20.3642 25.0422V46.3598L1.9105 35.701V14.3834ZM22.3075 46.3598V34.451L29.9797 30.0253C30.2838 29.8564 30.4528 29.5355 30.4528 29.1976V20.3294L40.7612 14.3834V35.701L22.3075 46.3598Z" fill="white"/>
</svg>
