<svg width="56" height="47" viewBox="0 0 56 47" fill="none" xmlns="http://www.w3.org/2000/svg">
<path d="M48.947 5.40086H28.3136C27.6258 5.40086 26.9571 5.17185 26.4031 4.77109L21.7224 1.27872C20.6143 0.458109 19.2387 9.36283e-05 17.8632 9.36283e-05H6.45749C2.90396 -0.0189903 0 2.88177 0 6.43139V40.0192C0 43.5688 2.90396 46.4696 6.45749 46.4696H9.68623C10.5842 46.4696 11.3102 45.7444 11.3102 44.8474C11.3102 43.9505 10.5842 43.2253 9.68623 43.2253H6.45749C4.69983 43.2253 3.24785 41.794 3.24785 40.0192V6.43139C3.24785 4.67567 4.68072 3.22528 6.45749 3.22528H17.8823C18.5701 3.22528 19.2387 3.45429 19.7928 3.85506L24.4735 7.34742C25.5816 8.16803 26.9571 8.62605 28.3327 8.62605H48.9661C50.7238 8.62605 52.1757 10.0573 52.1757 11.8322V21.1833C52.0611 18.3589 49.7303 16.0879 46.8645 16.0879C43.9415 16.0879 41.5534 18.4734 41.5534 21.3932C41.5534 22.8054 42.1074 24.0841 43.0053 25.0383L41.859 25.4581C41.5342 25.5726 41.2095 25.7253 40.9038 25.897C40.9038 25.8207 40.9038 25.7444 40.9038 25.668C40.9038 22.8436 38.5921 20.5344 35.7645 20.5344C32.937 20.5344 30.6253 22.8436 30.6253 25.668C30.6253 26.9848 31.122 28.1871 31.9435 29.1032L31.1411 29.3894C30.7399 29.5421 30.3578 29.7138 29.9948 29.9238C29.9948 29.8856 29.9948 29.8665 29.9948 29.8283C29.9948 27.1566 27.8169 24.9619 25.1231 24.9619C22.4484 24.9619 20.2513 27.1375 20.2513 29.8283C20.2513 31.0115 20.6716 32.0993 21.3785 32.939L19.9838 33.4543C18.3981 34.0459 17.0417 35.0764 16.0864 36.4696C15.112 37.8627 14.6153 39.4848 14.6153 41.1833V44.8474C14.6153 45.7444 15.3413 46.4696 16.2392 46.4696H48.9661C52.5196 46.4696 55.4236 43.5688 55.4236 40.0383V11.8322C55.4045 8.28254 52.5005 5.40086 48.947 5.40086ZM46.8645 19.3322C47.9917 19.3322 48.9279 20.2482 48.9279 21.3932C48.9279 22.5192 48.0108 23.4543 46.8645 23.4543C45.7373 23.4543 44.8012 22.5383 44.8012 21.3932C44.8012 20.2482 45.7182 19.3322 46.8645 19.3322ZM35.7645 23.7787C36.8153 23.7787 37.6559 24.6184 37.6559 25.668C37.6559 26.7177 36.8153 27.5573 35.7645 27.5573C34.7138 27.5573 33.8731 26.7177 33.8731 25.668C33.8731 24.6184 34.7138 23.7787 35.7645 23.7787ZM32.2683 32.4238L37.0828 30.649C36.9108 31.2978 36.8153 31.9848 36.8153 32.6719V43.2253H29.0014V37.0993C29.0205 35.0383 30.3196 33.149 32.2683 32.4238ZM25.1231 28.2062C26.021 28.2062 26.747 28.9314 26.747 29.8283C26.747 30.7253 26.021 31.4505 25.1231 31.4505C24.2251 31.4505 23.4991 30.7253 23.4991 29.8283C23.4991 28.9314 24.2251 28.2062 25.1231 28.2062ZM21.111 36.4886L26.1356 34.6375C25.8873 35.439 25.7535 36.2596 25.7535 37.0993V43.2253H17.8632V41.1833C17.8632 39.1031 19.1623 37.2138 21.111 36.4886ZM48.947 43.2253H40.0632V32.6719C40.0632 30.8207 41.2286 29.1413 42.9862 28.4925L48.6413 26.3932C48.7177 26.3551 48.7941 26.3169 48.8706 26.2787C50.7429 25.5154 52.0611 23.7024 52.1566 21.5841V40.0001C52.1566 41.794 50.7238 43.2253 48.947 43.2253Z" fill="white"/>
</svg>
