<svg width="50" height="44" viewBox="0 0 50 44" fill="none" xmlns="http://www.w3.org/2000/svg">
<path d="M15.4588 14.37H10.1049C9.30575 14.37 8.66064 13.7265 8.66064 12.9292C8.66064 12.1319 9.30575 11.4883 10.1049 11.4883H15.4588C16.258 11.4883 16.9031 12.1319 16.9031 12.9292C16.9031 13.7265 16.258 14.37 15.4588 14.37Z" fill="white"/>
<path d="M38.188 43.2179H4.32269C1.94039 43.2179 0 41.2821 0 38.9054V4.3125C0 1.93581 1.94039 0 4.32269 0H41.0512C41.8504 0 42.4955 0.643581 42.4955 1.44088C42.4955 2.23818 41.8504 2.88176 41.0512 2.88176H4.32269C3.53367 2.88176 2.88857 3.52534 2.88857 4.3125V38.9037C2.88857 39.6909 3.53367 40.3345 4.32269 40.3345H38.188C38.977 40.3345 39.6221 39.6909 39.6221 38.9037V24.3209C39.6221 23.5236 40.2672 22.8801 41.0664 22.8801C41.8656 22.8801 42.5107 23.5236 42.5107 24.3209V38.9037C42.5107 41.2821 40.5703 43.2179 38.188 43.2179Z" fill="white"/>
<path d="M10.0574 23.1116C9.25826 23.1116 8.61316 22.468 8.61316 21.6707C8.61316 20.8734 9.25826 20.2298 10.0574 20.2298L23.7587 20.2146C24.5579 20.2146 25.203 20.8582 25.203 21.6555C25.203 22.4528 24.5579 23.0964 23.7587 23.0964L10.0574 23.1116Z" fill="white"/>
<path d="M10.0574 31.6992C9.25826 31.6992 8.61316 31.0556 8.61316 30.2583C8.61316 29.461 9.25826 28.8174 10.0574 28.8174L23.7587 28.8022C24.5579 28.8022 25.203 29.4458 25.203 30.2431C25.203 31.0404 24.5579 31.684 23.7587 31.684L10.0574 31.6992Z" fill="white"/>
<path d="M47.663 23.1741C47.4226 23.1741 47.1822 23.1166 46.9654 22.9967L38.9499 18.5964C38.9448 18.5964 38.9398 18.5913 38.9347 18.5913L31.1156 14.196C30.6635 13.941 30.3841 13.4663 30.379 12.9477C30.379 12.4291 30.6533 11.9494 31.102 11.6943L39.1125 7.10313L46.9265 2.51191C47.3735 2.2484 47.9272 2.2484 48.3759 2.50177C48.8229 2.75684 49.1022 3.23657 49.1022 3.75008V21.7383C49.1022 22.2467 48.833 22.718 48.3945 22.9781C48.1727 23.1065 47.9187 23.1741 47.663 23.1741ZM40.3502 16.0744L46.2187 19.2974V6.26698L40.5754 9.58117C40.5703 9.58623 40.5652 9.58623 40.5601 9.5913L34.7441 12.9241L40.3502 16.0744Z" fill="white"/>
</svg>
