<svg width="49" height="49" viewBox="0 0 49 49" fill="none" xmlns="http://www.w3.org/2000/svg">
<path d="M19.6889 48.973H5.09368C4.13715 48.973 3.21255 48.7095 2.4174 48.2128C1.671 47.7466 1.05404 47.0845 0.630406 46.299C0.206773 45.5135 -0.00504323 44.6318 0.0151298 43.7483C0.0369839 42.8074 0.324449 41.8851 0.848947 41.0828L12.4854 23.1926C12.9477 22.4831 12.9881 21.6199 12.5913 20.8834C12.4081 20.5422 11.8533 19.7466 10.6866 19.7466H1.42892C0.638812 19.7466 0 19.103 0 18.3108C0 17.5186 0.640493 16.875 1.42892 16.875H10.6866C12.5644 16.875 14.2169 17.8632 15.1062 19.5186C15.9955 21.1723 15.9081 23.1841 14.8776 24.7652L3.24113 42.6554C2.78724 43.3513 2.75193 44.2027 3.14531 44.9341C3.53868 45.6655 4.26659 46.1013 5.09368 46.1013H19.6889C20.3361 46.1013 20.9345 45.7753 21.2859 45.228L24.3757 40.4324L21.375 39.3311C19.8166 38.8818 18.5995 37.7534 18.0279 36.2247C17.4496 34.6791 17.6379 33.0017 18.544 31.6233L24.3068 22.7196C24.7371 22.0541 25.6231 21.8666 26.2837 22.299C26.9461 22.7314 27.1327 23.6216 26.7023 24.2855L20.9362 33.1926L20.9295 33.2027C20.5328 33.8041 20.4504 34.5372 20.7025 35.2128C20.9547 35.8885 21.4977 36.3851 22.1903 36.576C22.229 36.5861 22.266 36.598 22.3029 36.6115L25.9677 37.9578L35.1145 23.7601C36.1282 22.1875 37.9068 21.3666 39.7543 21.6199C41.6018 21.8733 43.0963 23.1419 43.6544 24.9291L48.5379 40.5878C48.822 41.5 48.8506 42.4611 48.6203 43.3699C48.4034 44.2213 47.9647 45.0101 47.3494 45.6503C46.7358 46.2905 45.9659 46.7601 45.127 47.0101C44.2327 47.2753 43.2745 47.2821 42.3583 47.0287C42.3196 47.0186 42.2826 47.0068 42.2456 46.9932L27.1293 41.4426L23.6848 46.7888C22.8039 48.1571 21.3094 48.973 19.6889 48.973ZM43.1652 44.2736C43.9418 44.4696 44.7353 44.2416 45.2934 43.6588C45.865 43.0642 46.0583 42.2382 45.8129 41.4493L40.9293 25.7905C40.7024 25.0642 40.1207 24.5709 39.371 24.4679C38.6212 24.3649 37.9286 24.6841 37.5167 25.3226L28.723 38.9713L43.1652 44.2736Z" fill="white"/>
<path d="M20.3983 11.1673C25.539 10.0254 27.0739 8.48482 28.2086 3.31928C28.2674 3.05408 28.5011 2.86658 28.7718 2.86658C29.0424 2.86658 29.2761 3.05408 29.3349 3.31928C30.4713 8.48482 32.0045 10.027 37.1452 11.1673C37.4092 11.2264 37.5958 11.4612 37.5958 11.7331C37.5958 12.0051 37.4092 12.2399 37.1452 12.299C32.0045 13.4409 30.4697 14.9814 29.3349 20.147C29.2761 20.4122 29.0424 20.5997 28.7718 20.5997C28.5011 20.5997 28.2674 20.4122 28.2086 20.147C27.0722 14.9814 25.539 13.4392 20.3983 12.299C20.1344 12.2399 19.9478 12.0051 19.9478 11.7331C19.9478 11.4612 20.1344 11.2264 20.3983 11.1673Z" fill="white"/>
<path d="M31.959 4.28716C34.6152 3.69764 35.4069 2.90203 35.9936 0.233108C36.0239 0.0962838 36.1449 0 36.2845 0C36.424 0 36.545 0.097973 36.5753 0.233108C37.162 2.90203 37.9538 3.69764 40.6099 4.28716C40.7461 4.31757 40.8419 4.43919 40.8419 4.57939C40.8419 4.71959 40.7444 4.84122 40.6099 4.87162C37.9538 5.46115 37.162 6.25676 36.5753 8.92568C36.545 9.0625 36.424 9.15878 36.2845 9.15878C36.1449 9.15878 36.0239 9.06081 35.9936 8.92568C35.4069 6.25676 34.6152 5.46115 31.959 4.87162C31.8229 4.84122 31.7271 4.71959 31.7271 4.57939C31.7271 4.43919 31.8246 4.31757 31.959 4.28716Z" fill="white"/>
</svg>
